<svg baseProfile="full" height="2336" preserveAspectRatio="none" shape-rendering="geometricPrecision" version="1.1" viewBox="0,0,3504,2336" width="3504" xmlns="http://www.w3.org/2000/svg" xmlns:ev="http://www.w3.org/2001/xml-events" xmlns:xlink="http://www.w3.org/1999/xlink"><title>Jigsaw puzzle piece clips</title><desc>Created with the piecemaker. Piece count: 48</desc><defs/><g><g><rect fill="white" height="2336" width="3504" x="0" y="0"/></g></g><g><g><path d="M 0 0  L 438.000000 0  c 0.0,100.83660688884467 -21.900000000000002,193.9149358634352 84.34178354375436,166.66160253010187
c 11.683499357494805,-23.36 25.387089654068944,0 25.387089654068944,28.005064136564783
c 0,31.348165714619768 -50.63557431658277,54.70816571461977 -53.85674379897116,31.348165714619768
c -56.940000000000005,-23.36 -35.04,81.75999999999999 -55.872129398852145,163.3185009520469 c -0.0,62.208513593504215 21.900000000000002,167.89429979888277 -40.85149790530808,140.64096646554944
c -72.14525868629909,-23.36 -93.16068668689392,0 -93.16068668689392,54.02570020111722
c 0,32.91354166552469 41.86936754584235,56.27354166552469 41.84865936066976,32.91354166552469
c 56.940000000000005,-23.36 35.04,81.75999999999999 92.16352523153225,161.75312500114197 c 0.0,71.9318532555985 -21.900000000000002,183.90669458707424 14.126647178122182,156.6533612537409
c 38.35574195132169,-23.36 100.30343695450797,0 100.30343695450797,38.013305412925746
c 0,34.78723549852282 -51.169833051175395,58.14723549852282 -117.76290225381517,34.78723549852282
c -56.940000000000005,-23.36 -35.04,81.75999999999999 3.3328181211850136,159.87943116814384 c 0.0,73.37354156462851 -21.900000000000002,177.81975678030972 78.61013749104626,150.5664234469764
c 47.13046953976561,-23.36 64.52600228181853,0 64.52600228181853,44.10024321969027
c 0,29.72409634640718 -96.00904582653293,53.08409634640718 -109.66377666823553,29.72409634640718
c -56.940000000000005,-23.36 -35.04,81.75999999999999 -33.47236310462927,164.94257032025948 c 0.0,63.03025783776146 -21.900000000000002,185.12812563761048 19.082676486865527,157.87479230427715
c 73.98523189748734,-23.36 99.15593141523925,0 99.15593141523925,36.79187436238951
c 0,28.280615198587128 -70.5784166761502,51.64061519858713 -77.21873305610842,28.280615198587128
c -56.940000000000005,-23.36 -35.04,81.75999999999999 -41.019874845996355,166.38605146807953 c 0.0,56.829775825894906 -21.900000000000002,191.5005901304719 90.19695205989282,164.24725679713856
c 28.33898042835732,-23.36 38.87981286929252,0 38.87981286929252,30.419409869528096
c 0,31.88771702959491 -96.00740332222007,55.24771702959491 -104.6814369694126,31.88771702959491
c -56.940000000000005,-23.36 -35.04,81.75999999999999 -24.395327959772743,162.77894963707175 L 0 2336 " fill="none" stroke="black" stroke-width="0.1" style="vector-effect:non-scaling-stroke;"/></g><g><path d="M 0 0  L 876.000000 0  c -0.0,36.8989951807859 21.900000000000002,170.49210773430568 -57.05000694470308,143.23877440097235
c -46.01825177206353,-23.36 -65.15216612317334,0 -65.15216612317334,51.42789226569431
c 0,34.183519790621716 87.68943897289266,57.543519790621716 97.3443422527341,34.183519790621716
c 56.940000000000005,-23.36 35.04,81.75999999999999 24.857830815142336,160.48314687604494 c -0.0,66.1421782281955 21.900000000000002,181.7737001802799 -78.09146783498024,154.52036684694656
c -13.043753100103405,-23.36 -61.08709142006309,0 -61.08709142006309,40.1462998197201
c 0,40.11965930114809 84.71020276715652,63.47965930114809 87.2464159242057,40.11965930114809
c 56.940000000000005,-23.36 35.04,81.75999999999999 51.93214333083762,154.54700736551857 c 0.0,38.354119233546406 -21.900000000000002,174.1337002808322 41.74655453198743,146.88036694749886
c 33.20918057925163,-23.36 92.19569932357432,0 92.19569932357432,47.7862997191678
c 0,27.711389096742835 -56.10601388658104,51.071389096742834 -59.9631372503226,27.711389096742835
c -56.940000000000005,-23.36 -35.04,81.75999999999999 -73.97911660523914,166.95527756992382 c 0.0,34.00275315291035 -21.900000000000002,175.06323791765394 47.553743424719805,147.8099045843206
c 60.1824576798634,-23.36 84.8931802188032,0 84.8931802188032,46.85676208234605
c 0,56.828457920923995 -72.11966530678417,80.188457920924 -73.73993879512477,56.828457920923995
c -56.940000000000005,-23.36 -35.04,81.75999999999999 -58.706984848398235,137.83820874574266 c 0.0,33.58881900341031 -21.900000000000002,182.1139848633599 18.9914531102915,154.86065153002656
c 52.02869734019732,-23.36 92.2500609240568,0 92.2500609240568,39.8060151366401
c 0,35.86084712913487 -5.777486804848871,59.22084712913487 -16.016097927081645,35.86084712913487
c -56.940000000000005,-23.36 -35.04,81.75999999999999 -95.22541610726665,158.8058195375318 c -0.0,36.108010174203045 21.900000000000002,178.61204010875042 -26.98381821301483,151.3587067754171
c -68.76761668405229,-23.36 -88.65410947266841,0 -88.65410947266841,43.30795989124957
c 0,57.5141452838844 72.66542578002405,80.8741452838844 116.46912416442466,57.5141452838844
c 56.940000000000005,-23.36 35.04,81.75999999999999 -0.8311964787414183,137.15252138278225 L 0 2336 " fill="none" stroke="black" stroke-width="0.1" style="vector-effect:non-scaling-stroke;"/></g><g><path d="M 0 0  L 1314.000000 0  c 0.0,29.590337667089003 -21.900000000000002,176.17687216457455 49.64986175158836,148.92353883124122
c 41.86739719584104,-23.36 55.97789698366694,0 55.97789698366694,45.74312783542544
c 0,34.857661653797834 -27.033619124007945,58.21766165379783 -104.86835025891327,34.857661653797834
c -56.940000000000005,-23.36 -35.04,81.75999999999999 -0.7594084763420312,159.80900501286882 c 0.0,52.80879186530332 -21.900000000000002,183.04353194421788 47.249030419976,155.79019861088454
c 21.918435369179026,-23.36 95.0344762510133,0 95.0344762510133,38.87646805578211
c 0,60.998472341850544 -34.51386976923198,84.35847234185054 -66.00895355000765,60.998472341850544
c -56.940000000000005,-23.36 -35.04,81.75999999999999 -76.27455312098166,133.6681943248161 c 0.0,32.703273720215286 -21.900000000000002,179.00614176615272 93.87185020822628,151.7528084328194
c 6.698153832532505,-23.36 19.026116572900662,0 19.026116572900662,42.913858233847265
c 0,46.07055136989345 -14.182237356344192,69.43055136989345 -44.49746886706474,46.07055136989345
c -56.940000000000005,-23.36 -35.04,81.75999999999999 -68.4004979140622,148.5961152967732 c 0.0,93.15067714424974 -21.900000000000002,169.28537266796448 68.03363705644249,142.03203933463115
c 33.67045417052517,-23.36 38.08789640653903,0 38.08789640653903,52.63462733203551
c 0,44.886436366346004 -103.21293282232637,68.246436366346 -105.69594893148273,44.886436366346004
c -56.940000000000005,-23.36 -35.04,81.75999999999999 -0.42558453149878517,149.78023030032065 c -0.0,49.16883050448245 21.900000000000002,161.9054904275174 -36.406450262179185,134.65215709418408
c -15.86503205405883,-23.36 -68.88541593336817,0 -68.88541593336817,60.01450957248258
c 0,34.7122286057849 44.668941113153366,58.0722286057849 63.66092225444492,34.7122286057849
c 56.940000000000005,-23.36 35.04,81.75999999999999 41.63094394110244,159.95443806088176 c 0.0,20.619992569871645 -21.900000000000002,161.00108489088598 93.75430927870453,133.74775155755265
c 26.800541389231924,-23.36 54.85162529380061,0 54.85162529380061,60.91891510911401
c 0,58.07453431938899 -20.170224790700026,81.43453431938899 -93.1164235282466,58.07453431938899
c -56.940000000000005,-23.36 -35.04,81.75999999999999 -55.489511044258535,136.59213234727767 L 0 2336 " fill="none" stroke="black" stroke-width="0.1" style="vector-effect:non-scaling-stroke;"/></g><g><path d="M 0 0  L 1752.000000 0  c -0.0,82.95466305280716 21.900000000000002,191.1146360384642 -8.470196318093382,163.86130270513087
c -61.434345156790904,-23.36 -100.04549085687205,0 -100.04549085687205,30.80536396153579
c 0,40.19728056490936 6.665711161140344,63.55728056490936 25.48745393452967,40.19728056490936
c 56.940000000000005,-23.36 35.04,81.75999999999999 83.02823324043577,154.4693861017573 c -0.0,92.2871320436274 21.900000000000002,191.86892666712401 -49.69219628584889,164.61559333379068
c -42.28735164015379,-23.36 -84.6456698261311,0 -84.6456698261311,30.051073332875973
c 0,50.92004522340912 75.53601586566863,74.28004522340912 95.35993384318505,50.92004522340912
c 56.940000000000005,-23.36 35.04,81.75999999999999 38.977932268794945,143.74662144325754 c 0.0,88.02662329689586 -21.900000000000002,173.19640184830993 59.7851934839466,145.9430685149766
c 40.485582342415974,-23.36 49.486636906262646,0 49.486636906262646,48.723598151690055
c 0,39.843491126642306 -31.3770018145444,63.203491126642305 -63.089227111121545,39.843491126642306
c -56.940000000000005,-23.36 -35.04,81.75999999999999 -46.1826032790877,154.82317554002435 c 0.0,25.436697374958325 -21.900000000000002,162.89124330403703 46.11496096982166,135.6379099707037
c 33.93326534398393,-23.36 61.37965467861728,0 61.37965467861728,59.028756695962954
c 0,50.47143787534699 -14.544964831373672,73.83143787534699 -58.35987014968679,50.47143787534699
c -56.940000000000005,-23.36 -35.04,81.75999999999999 -49.134745498752146,144.19522879131966 c -0.0,67.46804906868384 21.900000000000002,181.33388786834428 -4.941943009333869,154.08055453501095
c -101.92446305442056,-23.36 -126.91627157887604,0 -126.91627157887604,40.58611213165571
c 0,53.20227293929216 16.37996290182446,76.56227293929216 62.86036766301174,53.20227293929216
c 56.940000000000005,-23.36 35.04,81.75999999999999 68.99784692519816,141.4643937273745 c -0.0,98.60436595962393 21.900000000000002,164.2459123133038 -77.17131547508446,136.99257897997046
c -10.66583013894415,-23.36 -30.230540080655828,0 -30.230540080655828,57.6740876866962
c 0,29.605817302135506 45.0582821826894,52.965817302135505 52.42528728325486,29.605817302135506
c 56.940000000000005,-23.36 35.04,81.75999999999999 54.97656827248542,165.06084936453115 L 0 2336 " fill="none" stroke="black" stroke-width="0.1" style="vector-effect:non-scaling-stroke;"/></g><g><path d="M 0 0  L 2190.000000 0  c 0.0,107.38054399876974 -21.900000000000002,161.7707945536122 44.052783008704424,134.51746122027888
c 16.260475693150163,-23.36 65.91655422518346,0 65.91655422518346,60.14920544638778
c 0,47.02307239095444 -48.64671090849283,70.38307239095444 -98.37668479706943,47.02307239095444
c -56.940000000000005,-23.36 -35.04,81.75999999999999 -11.592652436818454,147.64359427571222 c 0.0,65.91649566748981 -21.900000000000002,171.29891500492238 80.50303799120495,144.04558167158905
c 29.29450762187033,-23.36 37.95383832167148,0 37.95383832167148,50.62108499507761
c 0,31.72149276291941 -24.082160277320497,55.08149276291941 -111.64198825275636,31.72149276291941
c -56.940000000000005,-23.36 -35.04,81.75999999999999 -6.814888060120069,162.94517390374725 c -0.0,89.6661836520252 21.900000000000002,194.25755273665808 -94.3072294651903,167.00421940332475
c -38.390556367770394,-23.36 -41.206626102545854,0 -41.206626102545854,27.662447263341903
c 0,38.3950603191862 45.99721713918197,61.7550603191862 129.50429736695597,38.3950603191862
c 56.940000000000005,-23.36 35.04,81.75999999999999 6.009558200780191,156.27160634748046 c -0.0,40.114026752276736 21.900000000000002,176.1298762824703 8.45930457560502,148.87654294913696
c -98.58808980464771,-23.36 -141.42836371715507,0 -141.42836371715507,45.790123717529696
c 0,51.677922493347154 40.12254903661882,75.03792249334715 46.251309313692204,51.677922493347154
c 56.940000000000005,-23.36 35.04,81.75999999999999 86.71774982785784,142.9887441733195 c -0.0,65.18710787749674 21.900000000000002,176.1319246301557 -57.549888994925574,148.87859129682238
c -24.822372346415882,-23.36 -58.26506462741202,0 -58.26506462741202,45.78807536984428
c 0,55.8367273390092 69.4859141332311,79.1967273390092 98.29353846455314,55.8367273390092
c 56.940000000000005,-23.36 35.04,81.75999999999999 17.52141515778446,138.82993932765746 c -0.0,70.04466873546203 21.900000000000002,166.3483685037627 -41.97423080550672,139.09503517042938
c -55.44041249239824,-23.36 -63.72988441446044,0 -63.72988441446044,55.57163149623727
c 0,44.82074836147922 59.12422095132548,68.18074836147922 98.76183190292107,44.82074836147922
c 56.940000000000005,-23.36 35.04,81.75999999999999 6.9422833170460905,149.84591830518744 L 0 2336 " fill="none" stroke="black" stroke-width="0.1" style="vector-effect:non-scaling-stroke;"/></g><g><path d="M 0 0  L 2628.000000 0  c 0.0,94.61188048017559 -21.900000000000002,188.17569236400988 76.91797659446101,160.92235903067655
c 15.790182565534257,-23.36 62.460868209718,0 62.460868209718,33.74430763599011
c 0,49.26611034499979 -45.17584709968942,72.62611034499979 -100.67101634152706,49.26611034499979
c -56.940000000000005,-23.36 -35.04,81.75999999999999 -38.707828462651946,145.40055632166687 c 0.0,91.68028401094774 -21.900000000000002,172.84244811047796 88.31404506404145,145.58911477714463
c 28.452391115527362,-23.36 36.867792285265864,0 36.867792285265864,49.07755188952203
c 0,44.20092720410156 -62.19672495189635,67.56092720410156 -133.50214744523697,44.20092720410156
c -56.940000000000005,-23.36 -35.04,81.75999999999999 8.320310095929656,150.4657394625651 c -0.0,97.14093367966564 21.900000000000002,178.63599364488454 -22.4415456343673,151.3826603115512
c -27.54083245304386,-23.36 -121.56290340366913,0 -121.56290340366913,43.28400635511545
c 0,48.42041883208395 39.282414157281266,71.78041883208395 93.28458645537034,48.42041883208395
c 56.940000000000005,-23.36 35.04,81.75999999999999 50.71986258266608,146.2462478345827 c -0.0,25.239117607974666 21.900000000000002,166.46370618793875 8.307638248808116,139.21037285460542
c -54.43628278001173,-23.36 -129.86284011333666,0 -129.86284011333666,55.45629381206123
c 0,59.722139301015375 34.10164295134933,83.08213930101537 34.55736188154134,59.722139301015375
c 56.940000000000005,-23.36 35.04,81.75999999999999 86.9978399829872,134.94452736565128 c 0.0,32.0411673914368 -21.900000000000002,177.48216448365014 51.83988452800773,150.2288311503168
c 80.67697045179646,-23.36 82.2521375545912,0 82.2521375545912,44.43783551634985
c 0,40.5047476385748 -51.64945400496301,63.8647476385748 -90.23723678264443,40.5047476385748
c -56.940000000000005,-23.36 -35.04,81.75999999999999 -43.8547852999545,154.16191902809186 c 0.0,69.45043759097496 -21.900000000000002,176.6371409394044 73.54112503754784,149.38380760607106
c 40.41682668911515,-23.36 72.87180006358231,0 72.87180006358231,45.2828590605956
c 0,57.36676393971598 -82.54919047474361,80.72676393971598 -124.89431582145095,57.36676393971598
c -56.940000000000005,-23.36 -35.04,81.75999999999999 -21.51860927967921,137.29990272695068 L 0 2336 " fill="none" stroke="black" stroke-width="0.1" style="vector-effect:non-scaling-stroke;"/></g><g><path d="M 0 0  L 3066.000000 0  c 0.0,82.320202576302 -21.900000000000002,168.36913559893736 -2.685757130054441,141.11580226560403
c 65.60879517010085,-23.36 134.12321810476587,0 134.12321810476587,53.550864401062626
c 0,44.194572790224555 -113.7548959287541,67.55457279022455 -124.51438184166744,44.194572790224555
c -56.940000000000005,-23.36 -35.04,81.75999999999999 -6.923079133043984,150.4720938764421 c -0.0,42.241659233279 21.900000000000002,183.36228631403822 -88.13661970260368,156.10895298070488
c -24.2183161735789,-23.36 -25.08467103391277,0 -25.08467103391277,38.55771368596177
c 0,35.721168920395115 20.158301011977176,59.081168920395115 41.5083286108661,35.721168920395115
c 56.940000000000005,-23.36 35.04,81.75999999999999 71.71296212565035,158.94549774627154 c -0.0,31.53181412363887 21.900000000000002,181.79412326317393 -95.49546344051912,154.5407899298406
c -12.871239535720107,-23.36 -30.050025670043652,0 -30.050025670043652,40.12587673682606
c 0,27.929656376605067 48.31774450010711,51.289656376605066 86.90114403970227,27.929656376605067
c 56.940000000000005,-23.36 35.04,81.75999999999999 38.644345070860496,166.7370102900616 c -0.0,38.16152543072419 21.900000000000002,179.9108344053214 -79.45746898404634,152.65750107198807
c -11.747368246620004,-23.36 -35.327984600988955,0 -35.327984600988955,42.00916559467859
c 0,51.98429046602425 28.520958350449945,75.34429046602425 54.86426125750904,51.98429046602425
c 56.940000000000005,-23.36 35.04,81.75999999999999 59.921192327526256,142.6823762006424 c -0.0,55.85888481631832 21.900000000000002,164.71912411038733 0.25257555725482506,137.465790777054
c -122.09172969390615,-23.36 -144.55247006718187,0 -144.55247006718187,57.20087588961266
c 0,30.769176909598002 54.08983890552821,54.129176909598 145.82474617357818,30.769176909598002
c 56.940000000000005,-23.36 35.04,81.75999999999999 -1.524851663651134,163.89748975706866 c 0.0,54.612292570704334 -21.900000000000002,176.55136057739307 94.34123147791342,149.29802724405974
c 39.302949140525115,-23.36 40.26610288537057,0 40.26610288537057,45.36863942260692
c 0,28.029342539391905 -74.60306616468645,51.389342539391905 -90.57728552476955,28.029342539391905
c -56.940000000000005,-23.36 -35.04,81.75999999999999 -44.030048838514446,166.63732412727475 L 0 2336 " fill="none" stroke="black" stroke-width="0.1" style="vector-effect:non-scaling-stroke;"/></g></g><g><g><path d="M 0 0  L 0 389.333333  c 101.1613618787653,-0.0 180.20478585978893,19.46666666666667 149.54478585978893,-57.938546659734435
c -26.279999999999998,-17.066733511680493 0,-55.966569357328474 69.45521414021107,-55.966569357328474
c 49.67384100874244,0 75.95384100874244,90.69118241427647 49.67384100874244,116.62240032290455
c -26.279999999999998,50.61333333333333 91.97999999999999,31.146666666666665 169.32615899125756,-2.7172843058416447 c 104.14849946808059,-0.0 188.35154338863987,19.46666666666667 157.69154338863987,-19.249201067068153
c -26.279999999999998,-36.36470885680861 0,-80.05277444152074 61.30845661136013,-80.05277444152074
c 41.53673935736009,0 67.81673935736009,32.98509858822714 41.53673935736009,106.57103819090393
c -26.279999999999998,50.61333333333333 91.97999999999999,31.146666666666665 177.4632606426399,-7.269062682315038 c 98.72477846982032,0.0 206.19162864660342,-19.46666666666667 175.53162864660342,7.3459165505696244
c -26.279999999999998,79.58543797019607 0,96.92649141135018 43.46837135339658,96.92649141135018
c 47.105231504344374,0 73.38523150434438,-35.92527443296829 47.105231504344374,-40.54353837944467
c -26.279999999999998,-50.61333333333333 91.97999999999999,-31.146666666666665 171.89476849565563,-63.72886958247514 c 81.29283506530706,0.0 193.80777911998263,-19.46666666666667 163.14777911998263,21.10050864858298
c -26.279999999999998,42.50761145947071 0,77.43076568535173 55.85222088001737,77.43076568535173
c 31.53209967024111,0 57.81209967024111,-23.985737791607598 31.53209967024111,-89.39285809888126
c -26.279999999999998,-50.61333333333333 91.97999999999999,-31.146666666666665 187.4679003297589,-9.138416235053441 c 56.45275812680794,-0.0 206.91006935891426,19.46666666666667 176.25006935891426,-37.01323325344661
c -26.279999999999998,-14.01121595972839 0,-64.7040999183576 42.74993064108574,-64.7040999183576
c 62.064429895128,0 88.344429895128,49.5293413885163 62.064429895128,66.02297253317288
c -26.279999999999998,50.61333333333333 91.97999999999999,31.146666666666665 156.935570104872,35.69436063863132 c 57.56361448710388,-0.0 203.28816789759105,19.46666666666667 172.62816789759106,-12.620162031969762
c -26.279999999999998,-95.66015960517973 0,-110.19474361822904 46.371832102408945,-110.19474361822904
c 69.82897449756564,0 96.10897449756564,80.97896556297245 69.82897449756564,88.32420784153473
c -26.279999999999998,50.61333333333333 91.97999999999999,31.146666666666665 149.17102550243436,34.490697808664066 c 117.57055707262536,0.0 197.70159807906154,-19.46666666666667 167.04159807906154,19.489153210329967
c -26.279999999999998,45.04698020499328 0,76.27235076309066 51.958401920938456,76.27235076309066
c 33.45996847622823,0 59.73996847622823,-57.260238036388735 33.45996847622823,-61.12279819086833
c -26.279999999999998,-50.61333333333333 91.97999999999999,-31.146666666666665 185.54003152377177,-34.638705782552286 c 65.72177846067186,0.0 211.51924292247918,-19.46666666666667 180.85924292247918,19.56800050068877
c -26.279999999999998,29.78591122515978 0,111.20009208870259 38.14075707752082,111.20009208870259
c 56.961646356741085,0 83.24164635674109,-45.77852776877415 56.961646356741085,-134.5974099782969
c -26.279999999999998,-50.61333333333333 91.97999999999999,-31.146666666666665 162.03835364325892,3.8293173889055367 L 3504 0 " fill="none" stroke="black" stroke-width="0.1" style="vector-effect:non-scaling-stroke;"/></g><g><path d="M 0 0  L 0 778.666667  c 32.38087018694985,0.0 181.71112411460115,-19.46666666666667 151.05112411460115,56.63127634727915
c -26.279999999999998,32.23577044591 0,47.20124635831423 67.94887588539885,47.20124635831423
c 62.703870845021356,0 88.98387084502136,-32.173187187315705 62.703870845021356,-44.11036508233486
c -26.279999999999998,-50.61333333333333 91.97999999999999,-31.146666666666665 156.29612915497864,-59.72215762325852 c 119.08376260917004,0.0 211.86499891601622,-19.46666666666667 181.20499891601622,52.53846623507799
c -26.279999999999998,22.69328193404011 0,67.47760083022649 37.79500108398378,67.47760083022649
c 69.04596200974595,0 95.32596200974595,-34.603855229888644 69.04596200974595,-66.37919602127846
c -26.279999999999998,-50.61333333333333 91.97999999999999,-31.146666666666665 149.95403799025405,-53.63687104402602 c 47.85658398714461,-0.0 199.18150558472055,19.46666666666667 168.52150558472056,-27.49538326126367
c -26.279999999999998,-77.72710154829588 0,-93.15817924600441 50.47849441527944,-93.15817924600441
c 37.85498242456936,0 64.13498242456936,71.04507942803212 37.85498242456936,88.64709581058558
c -26.279999999999998,50.61333333333333 91.97999999999999,31.146666666666665 181.14501757543064,32.006466696682494 c 124.08759494884008,0.0 215.04048086970496,-19.46666666666667 184.38048086970497,32.605036962281496
c -26.279999999999998,45.09212417175103 0,99.17610593947853 34.61951913029503,99.17610593947853
c 57.38374621684807,0 83.66374621684807,-37.58677345502582 57.38374621684807,-77.94416789569149
c -26.279999999999998,-50.61333333333333 91.97999999999999,-31.146666666666665 161.61625378315193,-53.83697500606854 c 115.64228350662083,-0.0 203.44994692444547,19.46666666666667 172.78994692444547,-16.696755068518534
c -26.279999999999998,-72.9596584066372 0,-79.41113800728928 46.21005307555453,-79.41113800728928
c 65.57193635622843,0 91.85193635622844,49.79844774488224 65.57193635622843,60.11180315848782
c -26.279999999999998,50.61333333333333 91.97999999999999,31.146666666666665 153.42806364377157,35.996089917320006 c 104.6469181783555,0.0 217.1271445330957,-19.46666666666667 186.4671445330957,16.78768968706318
c -26.279999999999998,97.71561306562526 0,104.80749746863731 32.532855466904294,104.80749746863731
c 54.639064836105035,0 80.91906483610504,-35.36286853076105 54.639064836105035,-106.56980453603197
c -26.279999999999998,-50.61333333333333 91.97999999999999,-31.146666666666665 164.36093516389496,-15.02538261966852 c 52.90323227372826,0.0 181.49822143555775,-19.46666666666667 150.83822143555776,11.152287896545543
c -26.279999999999998,41.43966964106716 0,103.48327763859099 68.16177856444224,103.48327763859099
c 34.116309097794755,0 60.396309097794756,-99.5669592361378 34.116309097794755,-111.72393790757438
c -26.279999999999998,-50.61333333333333 91.97999999999999,-31.146666666666665 184.88369090220525,-2.9116276275621544 c 54.10815255168812,0.0 179.85634140187398,-19.46666666666667 149.19634140187398,36.34542089602396
c -26.279999999999998,45.18829005000918 0,80.63978843331307 69.80365859812602,80.63978843331307
c 59.75637134219647,0 86.03637134219647,-31.913114437577796 59.75637134219647,-41.60698924349403
c -26.279999999999998,-50.61333333333333 91.97999999999999,-31.146666666666665 159.24362865780353,-75.37822008584301 L 3504 0 " fill="none" stroke="black" stroke-width="0.1" style="vector-effect:non-scaling-stroke;"/></g><g><path d="M 0 0  L 0 1168.000000  c 23.26565200191272,0.0 196.54720847708123,-19.46666666666667 165.88720847708123,25.15946807420362
c -26.279999999999998,47.84088047782389 0,94.5551873060838 53.11279152291877,94.5551873060838
c 50.326365482905715,0 76.60636548290572,-53.74778828649108 50.326365482905715,-68.47340770639829
c -26.279999999999998,-50.61333333333333 91.97999999999999,-31.146666666666665 168.67363451709429,-51.24124767388912 c 73.90185675447374,0.0 203.8686608404369,-19.46666666666667 173.2086608404369,45.01968004036001
c -26.279999999999998,39.25095618918972 0,55.04287475201976 45.79133915956311,55.04287475201976
c 66.78132597495039,0 93.06132597495039,-9.71354727384947 66.78132597495039,-44.27653604348711
c -26.279999999999998,-50.61333333333333 91.97999999999999,-31.146666666666665 152.2186740250496,-55.78601874889266 c 60.779977055478334,0.0 194.28891780518856,-19.46666666666667 163.62891780518856,53.65412455208295
c -26.279999999999998,36.95205346006979 0,48.31445737423368 55.371082194811436,48.31445737423368
c 66.5892210118268,0 92.8692210118268,-58.813741750092035 66.5892210118268,-99.23443803773151
c -26.279999999999998,-50.61333333333333 91.97999999999999,-31.146666666666665 152.4107789881732,-2.7341438885851232 c 46.6256883135426,0.0 210.89877356020398,-19.46666666666667 180.23877356020398,55.58748029592618
c -26.279999999999998,29.934496782837538 0,58.39039986788617 38.76122643979602,58.39039986788617
c 36.66374005987359,0 62.94374005987359,-37.155468609037236 36.66374005987359,-48.273737846379234
c -26.279999999999998,-50.61333333333333 91.97999999999999,-31.146666666666665 182.3362599401264,-65.70414231743311 c 29.45478807189641,0.0 206.86599422315032,-19.46666666666667 176.20599422315033,49.871249925503314
c -26.279999999999998,56.772904797101546 0,69.2590220681686 42.79400577684967,69.2590220681686
c 31.510705343601956,0 57.79070534360196,-39.84041160683934 31.510705343601956,-78.68312658094366
c -26.279999999999998,-50.61333333333333 91.97999999999999,-31.146666666666665 187.48929465639804,-40.44714541272826 c 51.330247279177286,-0.0 184.0196066610279,19.46666666666667 153.3596066610279,0.0673049917548374
c -26.279999999999998,-37.49288102538866 0,-112.35573158086606 65.6403933389721,-112.35573158086606
c 45.52253281294173,0 71.80253281294173,98.18230898747507 45.52253281294173,108.48865831013572
c -26.279999999999998,50.61333333333333 91.97999999999999,31.146666666666665 173.47746718705827,3.799768278975506 c 59.03611474289542,-0.0 213.52419137613495,19.46666666666667 182.86419137613495,-5.91790572978034
c -26.279999999999998,-57.75792415280408 0,-119.96988233955999 36.135808623865046,-119.96988233955999
c 33.176884643082104,0 59.456884643082105,54.78495076190321 33.176884643082104,95.06865467252946
c -26.279999999999998,50.61333333333333 91.97999999999999,31.146666666666665 185.8231153569179,30.81913339681087 c 125.64199270329304,0.0 203.14772729402273,-19.46666666666667 172.48772729402273,-4.45577664484826
c -26.279999999999998,125.06479117859662 0,133.94085303077344 46.51227270597727,133.94085303077344
c 67.66373891950462,0 93.94373891950463,-64.81129325377246 67.66373891950462,-87.27005754745264
c -26.279999999999998,-50.61333333333333 91.97999999999999,-31.146666666666665 151.33626108049538,-42.21501883847253 L 3504 0 " fill="none" stroke="black" stroke-width="0.1" style="vector-effect:non-scaling-stroke;"/></g><g><path d="M 0 0  L 0 1557.333333  c 45.56794567119565,-0.0 198.1702929784039,19.46666666666667 167.5102929784039,-31.702511455086086
c -26.279999999999998,-16.544088846504454 0,-68.87573281643927 51.489707021596104,-68.87573281643927
c 54.28362908540686,0 80.56362908540686,79.31791058409672 54.28362908540686,107.79894018924885
c -26.279999999999998,50.61333333333333 91.97999999999999,31.146666666666665 164.71637091459314,-7.2206959177235035 c 23.331072700089408,-0.0 205.36739893265556,19.46666666666667 174.70739893265556,-70.44052465323826
c -26.279999999999998,-41.26187517804729 0,-50.41191446606655 44.292601067344435,-50.41191446606655
c 62.61918750209003,0 88.89918750209003,85.79747535939484 62.61918750209003,108.38641602559991
c -26.279999999999998,50.61333333333333 91.97999999999999,31.146666666666665 156.38081249790997,12.46602309370489 c 37.361791322479874,-0.0 208.06347703336954,19.46666666666667 177.40347703336954,-12.657489689686138
c -26.279999999999998,-88.78285957938256 0,-112.29669363479456 41.59652296663046,-112.29669363479456
c 53.17505760887195,0 79.45505760887195,103.00321034797825 53.17505760887195,115.54218978738163
c -26.279999999999998,50.61333333333333 91.97999999999999,31.146666666666665 165.82494239112805,9.411993537099079 c 84.51484701299712,-0.0 215.63040872519943,19.46666666666667 184.97040872519943,-12.294450027375499
c -26.279999999999998,-90.03245367943697 0,-92.5770618634517 34.029591274800566,-92.5770618634517
c 49.69166956286648,0 75.97166956286648,27.615303107778164 49.69166956286648,35.8879762579471
c -26.279999999999998,50.61333333333333 91.97999999999999,31.146666666666665 169.30833043713352,68.9835356328801 c 119.26195453348407,-0.0 181.48779053976514,19.46666666666667 150.82779053976515,-48.6167488419078
c -26.279999999999998,-62.596122486826125 0,-65.66306323247301 68.17220946023485,-65.66306323247301
c 35.92068024587965,0 62.20068024587965,43.835968464028376 35.92068024587965,46.10568681413825
c -26.279999999999998,50.61333333333333 91.97999999999999,31.146666666666665 183.07931975412035,68.17412526024255 c 31.596046647205554,0.0 190.26953803729225,-19.46666666666667 159.60953803729225,36.25018855708625
c -26.279999999999998,15.849820150902108 0,71.30639720926408 59.39046196270775,71.30639720926408
c 33.62802089407589,0 59.90802089407589,-82.06815599245671 33.62802089407589,-89.49951710333542
c -26.279999999999998,-50.61333333333333 91.97999999999999,-31.146666666666665 185.3719791059241,-18.057068663014903 c 110.96177003149333,-0.0 180.80364235957282,19.46666666666667 150.14364235957282,-81.30023781932847
c -26.279999999999998,-10.827538663555474 0,-43.749237829779574 68.85635764042718,-43.749237829779574
c 46.22345139752889,0 72.50345139752889,58.60627056371079 46.22345139752889,66.19152332629278
c -26.279999999999998,50.61333333333333 91.97999999999999,31.146666666666665 172.7765486024711,58.857952322815265 c 122.97664718496596,-0.0 211.1223215811503,19.46666666666667 180.4623215811503,-48.12036692586759
c -26.279999999999998,-25.120595414116636 0,-51.06020812551673 38.53767841884971,-51.06020812551673
c 61.32815754650471,0 87.60815754650471,59.05026728865482 61.32815754650471,72.419832515733
c -26.279999999999998,50.61333333333333 91.97999999999999,31.146666666666665 157.6718424534953,26.760742535651318 L 3504 0 " fill="none" stroke="black" stroke-width="0.1" style="vector-effect:non-scaling-stroke;"/></g><g><path d="M 0 0  L 0 1946.666667  c 117.50263273004995,-0.0 202.06363904567493,19.46666666666667 171.40363904567494,5.737964494325502
c -26.279999999999998,-45.12823613917368 0,-112.887217005512 47.596360954325064,-112.887217005512
c 35.367584401352445,0 61.64758440135245,32.886550652612016 35.367584401352445,103.4558153739906
c -26.279999999999998,50.61333333333333 91.97999999999999,31.146666666666665 183.63241559864755,3.6934371371959003 c 34.06367188766369,-0.0 196.91756309329725,19.46666666666667 166.25756309329725,-54.024360090703304
c -26.279999999999998,-14.382597626470025 0,-68.07427891844515 52.74243690670275,-68.07427891844515
c 36.11750919818596,0 62.39750919818596,53.59074017073514 36.11750919818596,85.9322809303981
c -26.279999999999998,50.61333333333333 91.97999999999999,31.146666666666665 182.88249080181404,36.16635807875036 c 124.3128396168319,-0.0 213.92105515875116,19.46666666666667 183.26105515875116,-62.978786421212405
c -26.279999999999998,-12.368964803537622 0,-53.92923552176266 35.73894484124884,-53.92923552176266
c 67.82197104051977,0 94.10197104051977,76.13671078911112 67.82197104051977,78.79166703330752
c -26.279999999999998,50.61333333333333 91.97999999999999,31.146666666666665 151.17802895948023,38.11635490966755 c 93.45914442920986,-0.0 209.79432510811716,19.46666666666667 179.13432510811717,-39.088268520730715
c -26.279999999999998,-63.22160646293942 0,-67.47098602089702 39.86567489188283,-67.47098602089702
c 56.76169316561845,0 83.04169316561845,23.084714789407943 56.76169316561845,81.77870026593024
c -26.279999999999998,50.61333333333333 91.97999999999999,31.146666666666665 162.23830683438155,24.780554275697483 c 54.37941270642934,-0.0 208.47299240555745,19.46666666666667 177.81299240555745,-51.1957557905938
c -26.279999999999998,-53.32323905995909 0,-65.43041178584795 41.18700759444255,-65.43041178584795
c 36.095933668856105,0 62.375933668856106,64.00124314988284 36.095933668856105,105.54225686381385
c -26.279999999999998,50.61333333333333 91.97999999999999,31.146666666666665 182.9040663311439,11.083910712627912 c 21.91517390764892,0.0 201.94500693820896,-19.46666666666667 171.28500693820897,-3.5603629228192406
c -26.279999999999998,78.53505931978036 0,125.225916958587 47.714993061791034,125.225916958587
c 51.859738951363056,0 78.13973895136306,-42.579956853712716 51.859738951363056,-103.85074698502119
c -26.279999999999998,-50.61333333333333 91.97999999999999,-31.146666666666665 167.14026104863694,-17.81480705074658 c 115.13540249376243,0.0 183.84915038923904,-19.46666666666667 153.18915038923905,26.311802491605413
c -26.279999999999998,71.64114103425473 0,103.82466360292383 65.81084961076095,103.82466360292383
c 43.21556708051327,0 69.49556708051327,-28.990442410413387 43.21556708051327,-98.58237466947377
c -26.279999999999998,-50.61333333333333 91.97999999999999,-31.146666666666665 175.78443291948673,-31.55409142505549 c 58.39166595172756,0.0 194.81941254422176,-19.46666666666667 164.15941254422177,81.4416122352455
c -26.279999999999998,5.8315094675293295 0,17.909460393279105 54.840587455778234,17.909460393279105
c 60.34565133020345,0 86.62565133020345,-41.39813273781862 60.34565133020345,-46.995272703127675
c -26.279999999999998,-50.61333333333333 91.97999999999999,-31.146666666666665 158.65434866979655,-52.35579992539693 L 3504 0 " fill="none" stroke="black" stroke-width="0.1" style="vector-effect:non-scaling-stroke;"/></g></g></svg>