<svg baseProfile="full" height="1200" preserveAspectRatio="none" shape-rendering="geometricPrecision" version="1.1" viewBox="0,0,2133,1200" width="2133" xmlns="http://www.w3.org/2000/svg" xmlns:ev="http://www.w3.org/2001/xml-events" xmlns:xlink="http://www.w3.org/1999/xlink"><title>Jigsaw puzzle piece clips</title><desc>Created with the piecemaker. Piece count: 32</desc><defs/><g><g><rect fill="white" height="1200" width="2133" x="0" y="0"/></g></g><g><g><path d="M 0 0  L 266.625000 0  c -0.0,50.01013192249916 13.33125,125.53190340067351 -1.8241736929530108,104.53190340067351
c -49.00930924359462,-18.0 -68.34554540773523,0 -68.34554540773523,45.468096599326486
c 0,32.48535492199352 16.47434496310749,50.48535492199352 34.55462643569346,32.48535492199352
c 34.66125,-18.0 21.330000000000002,63.0 35.61509266499478,117.51464507800648 c 0.0,15.645110282131991 -13.33125,136.67839790395172 21.1702320580391,115.67839790395172
c 22.645156168727485,-18.0 47.23843692406477,0 47.23843692406477,34.32160209604828
c 0,47.070379468709206 -11.814097312104842,65.0703794687092 -16.47224948940108,47.070379468709206
c -34.66125,-18.0 -21.330000000000002,63.0 -51.9364194927028,102.9296205312908 c -0.0,78.87772190903836 13.33125,137.4578729687113 -11.777540129300954,116.4578729687113
c -55.43174988320463,-18.0 -71.76373365541983,0 -71.76373365541983,33.5421270312887
c 0,31.909174889795565 54.693152924606395,49.909174889795565 80.58486925094599,31.909174889795565
c 34.66125,-18.0 21.330000000000002,63.0 2.9564045337748013,118.09082511020443 c 0.0,36.39824220532772 -13.33125,138.44734130848667 42.70266639915742,117.44734130848666
c 23.65385151972123,-18.0 30.068331893925063,0 30.068331893925063,32.552658691513344
c 0,31.607611037621098 -49.659514525052344,49.6076110376211 -72.94755930346444,31.607611037621098
c -34.66125,-18.0 -21.330000000000002,63.0 0.1765610103819597,118.3923889623789 L 0 1200 " fill="none" stroke="black" stroke-width="0.1" style="vector-effect:non-scaling-stroke;"/></g><g><path d="M 0 0  L 533.250000 0  c 0.0,18.9209468393803 -13.33125,127.08224579341419 23.706559797858368,106.08224579341419
c 30.636152534780603,-18.0 63.29018107969721,0 63.29018107969721,43.91775420658581
c 0,35.86604925862932 -27.700084219869932,53.86604925862932 -89.20240711430932,35.86604925862932
c -34.66125,-18.0 -21.330000000000002,63.0 2.2056662367537427,114.13395074137068 c 0.0,30.66808085475823 -13.33125,147.12038110141168 5.2090365821526925,126.12038110141167
c 16.288539832677213,-18.0 76.56637963939241,0 76.56637963939241,23.879618898588333
c 0,26.198691875094028 -18.556542144010155,44.19869187509403 -53.11680465242298,26.198691875094028
c -34.66125,-18.0 -21.330000000000002,63.0 -28.658611569122122,123.80130812490597 c -0.0,36.07350119008186 13.33125,139.89899900152673 -13.883084915295495,118.89899900152673
c -45.80972589652464,-18.0 -56.13947465478053,0 -56.13947465478053,31.101000998473268
c 0,30.36365179690688 37.59510385348395,48.36365179690688 47.59769066848296,30.36365179690688
c 34.66125,-18.0 21.330000000000002,63.0 22.424868901593065,119.63634820309312 c -0.0,74.90156290042194 13.33125,145.7940166435262 -52.19074683054595,124.79401664352618
c -15.765646425200812,-18.0 -38.01212263958867,0 -38.01212263958867,25.205983356473823
c 0,24.662961187890687 69.42170056103105,42.66296118789069 71.8519438710078,24.662961187890687
c 34.66125,-18.0 21.330000000000002,63.0 18.35092559912681,125.33703881210931 L 0 1200 " fill="none" stroke="black" stroke-width="0.1" style="vector-effect:non-scaling-stroke;"/></g><g><path d="M 0 0  L 799.875000 0  c -0.0,23.97984635157037 13.33125,141.66669276151907 -2.419691952725583,120.66669276151907
c -38.195456418618875,-18.0 -71.75337413496945,0 -71.75337413496945,29.333307238480927
c 0,32.78677835066722 11.314353520827266,50.78677835066722 48.78556068969604,32.78677835066722
c 34.66125,-18.0 21.330000000000002,63.0 25.387505397998993,117.21322164933278 c -0.0,39.29940583671791 13.33125,137.04399043305474 -57.62654157891002,116.04399043305474
c -6.941543081287984,-18.0 -32.341820336162826,0 -32.341820336162826,33.956009566945255
c 0,28.155721909408015 23.419169065116883,46.155721909408015 49.9379132256182,28.155721909408015
c 34.66125,-18.0 21.330000000000002,63.0 40.030448689454644,121.84427809059198 c -0.0,31.613572916697493 13.33125,136.3820599905621 -53.93455031321164,115.38205999056211
c -22.665617010722666,-18.0 -32.586315698068795,0 -32.586315698068795,34.61794000943789
c 0,30.86928248623272 31.747327288198996,48.86928248623272 59.55948379456591,30.86928248623272
c 34.66125,-18.0 21.330000000000002,63.0 26.961382216714526,119.13071751376728 c 0.0,36.61409140673855 -13.33125,126.04390376402573 14.858302634949354,105.04390376402573
c 27.663579845301154,-18.0 65.4618099071684,0 65.4618099071684,44.95609623597427
c 0,36.444585389056584 -33.04138599561829,54.444585389056584 -47.767080070740946,36.444585389056584
c -34.66125,-18.0 -21.330000000000002,63.0 -32.55303247137681,113.55541461094342 L 0 1200 " fill="none" stroke="black" stroke-width="0.1" style="vector-effect:non-scaling-stroke;"/></g><g><path d="M 0 0  L 1066.500000 0  c 0.0,45.62250923420441 -13.33125,125.5176641547766 12.594490301472316,104.5176641547766
c 48.498167578823974,-18.0 53.71876751407147,0 53.71876751407147,45.4823358452234
c 0,22.03806913860035 -6.877101597726348,40.03806913860035 -11.56318242372268,22.03806913860035
c -34.66125,-18.0 -21.330000000000002,63.0 -54.75007539182111,127.96193086139965 c -0.0,20.097134663083686 13.33125,147.66776012173804 -10.21994857445898,126.66776012173803
c -47.76537435896061,-18.0 -59.85707208976147,0 -59.85707208976147,23.332239878261973
c 0,27.079175407260124 25.105980337079046,45.079175407260124 50.8883953681535,27.079175407260124
c 34.66125,-18.0 21.330000000000002,63.0 19.188625296066952,122.92082459273988 c 0.0,73.81970216723946 -13.33125,128.4125029729003 -2.171913925155134,107.41250297290031
c 50.77654199089125,-18.0 88.28183634481124,0 88.28183634481124,42.58749702709969
c 0,26.85105353745311 -36.90346645792112,44.85105353745311 -38.451363899555126,26.85105353745311
c -34.66125,-18.0 -21.330000000000002,63.0 -47.658558520100975,123.14894646254689 c -0.0,52.60463663089398 13.33125,135.05072961151583 -50.38215705938934,114.05072961151583
c -19.47242220130986,-18.0 -22.705099460718117,0 -22.705099460718117,35.949270388484166
c 0,31.629087648917874 49.09755227755614,49.629087648917874 49.506121242869995,31.629087648917874
c 34.66125,-18.0 21.330000000000002,63.0 23.581135277237465,118.37091235108213 L 0 1200 " fill="none" stroke="black" stroke-width="0.1" style="vector-effect:non-scaling-stroke;"/></g><g><path d="M 0 0  L 1333.125000 0  c -0.0,25.165908118117326 13.33125,149.18853921087063 -46.56779344828953,128.18853921087063
c -37.28009699509161,-18.0 -37.68559462275686,0 -37.68559462275686,21.81146078912937
c 0,43.591134217910195 18.175918585421517,61.591134217910195 59.148450781166446,43.591134217910195
c 34.66125,-18.0 21.330000000000002,63.0 25.104937289879942,106.4088657820898 c 0.0,70.25959760979187 -13.33125,133.9070992162115 11.44078240231426,112.90709921621149
c 70.54018672456812,-18.0 70.93945973225654,0 70.93945973225654,37.09290078378851
c 0,40.8283936408188 -43.57315286317445,58.8283936408188 -87.30621692292588,40.8283936408188
c -34.66125,-18.0 -21.330000000000002,63.0 4.9259747883550915,109.1716063591812 c 0.0,36.29876185938798 -13.33125,124.33817909512926 11.212375618559296,103.33817909512926
c 46.520026871202,-18.0 59.39028054811743,0 59.39028054811743,46.66182090487074
c 0,45.04600126129628 -15.316556841386028,63.04600126129628 -16.31439925213094,45.04600126129628
c -34.66125,-18.0 -21.330000000000002,63.0 -54.288256914545784,104.95399873870372 c 0.0,75.61047822499033 -13.33125,139.88106411897036 35.90465012114803,118.88106411897034
c 35.594513339843935,-18.0 41.06345558390529,0 41.06345558390529,31.118935881029657
c 0,38.847462902313765 -34.590329347848765,56.847462902313765 -44.27084283882353,38.847462902313765
c -34.66125,-18.0 -21.330000000000002,63.0 -32.697262866229785,111.15253709768623 L 0 1200 " fill="none" stroke="black" stroke-width="0.1" style="vector-effect:non-scaling-stroke;"/></g><g><path d="M 0 0  L 1599.750000 0  c -0.0,18.630844118922585 13.33125,128.99762579304894 -53.31467724423237,107.99762579304894
c -17.916736986606203,-18.0 -21.822222105469507,0 -21.822222105469507,42.00237420695106
c 0,22.810541103380245 32.37408687965349,40.810541103380245 72.53098624227675,22.810541103380245
c 34.66125,-18.0 21.330000000000002,63.0 2.605913107425124,127.18945889661975 c 0.0,69.20608141600977 -13.33125,124.78195167625852 -0.03822451512036846,103.78195167625852
c 24.786735110210024,-18.0 78.6805562976084,0 78.6805562976084,46.218048323741485
c 0,26.518671140768447 -67.95325040936514,44.51867114076845 -77.96174555299994,26.518671140768447
c -34.66125,-18.0 -21.330000000000002,63.0 -0.6805862294880995,123.48132885923155 c -0.0,46.249185940099096 13.33125,132.5232870472047 -42.51452428931694,111.52328704720469
c -18.488448480379777,-18.0 -39.50360441076688,0 -39.50360441076688,38.47671295279531
c 0,35.573518290859056 22.560840269485794,53.573518290859056 26.090105781275383,35.573518290859056
c 34.66125,-18.0 21.330000000000002,63.0 55.92802291880844,114.42648170914094 c -0.0,28.48605251801476 13.33125,130.82867227000824 1.7265796609122357,109.82867227000823
c -33.64414001516607,-18.0 -76.92463100473597,0 -76.92463100473597,40.17132772999177
c 0,31.24574816365353 47.55011389354456,49.24574816365353 68.69106506484766,31.24574816365353
c 34.66125,-18.0 21.330000000000002,63.0 6.506986278976072,118.75425183634647 L 0 1200 " fill="none" stroke="black" stroke-width="0.1" style="vector-effect:non-scaling-stroke;"/></g><g><path d="M 0 0  L 1866.375000 0  c 0.0,47.104059366054905 -13.33125,149.09538396990285 58.27305029455165,128.09538396990285
c 5.665514347384839,-18.0 14.800621103963806,0 14.800621103963806,21.904616030097145
c 0,31.01718287286627 -22.617599361912706,49.01718287286627 -24.80448817479013,31.01718287286627
c -34.66125,-18.0 -21.330000000000002,63.0 -48.26918322372533,118.98281712713373 c 0.0,26.873289902890434 -13.33125,145.58970486676986 28.309956675425976,124.58970486676985
c 32.48597549049015,-18.0 39.23990478256661,0 39.23990478256661,25.41029513323015
c 0,43.16006426341244 -15.531571720294473,61.16006426341244 -67.68534129077939,43.16006426341244
c -34.66125,-18.0 -21.330000000000002,63.0 0.13547983278679965,106.83993573658756 c 0.0,27.23228362105702 -13.33125,124.41409172436803 3.858056645778148,103.41409172436803
c 35.581652479889875,-18.0 72.34193979504217,0 72.34193979504217,46.585908275631965
c 0,30.3485107836826 -26.086656976035147,48.3485107836826 -45.15734511982285,30.3485107836826
c -34.66125,-18.0 -21.330000000000002,63.0 -31.042651320997464,119.6514892163174 c -0.0,32.37428358788095 13.33125,147.94511597247183 -41.759712649891725,126.94511597247181
c -28.541402615070197,-18.0 -34.37078853503708,0 -34.37078853503708,23.05488402752819
c 0,43.65759130563353 65.09692687877705,61.65759130563353 67.91988816348687,43.65759130563353
c 34.66125,-18.0 21.330000000000002,63.0 8.21061302144193,106.34240869436647 L 0 1200 " fill="none" stroke="black" stroke-width="0.1" style="vector-effect:non-scaling-stroke;"/></g></g><g><g><path d="M 0 0  L 0 300.000000  c 46.13780329189495,-0.0 111.54417551066936,15.0 92.88042551066937,5.36714654684578
c -15.997499999999999,-79.10300431736012 0,-104.39092714070934 40.43207448933063,-104.39092714070934
c 28.65610787892433,0 44.65360787892433,29.93064851438381 28.65610787892433,82.85251922581766
c -15.997499999999999,39.0 55.99125,24.0 104.65639212107567,16.171261368045904 c 27.82766521961508,0.0 116.12102267853601,-15.0 97.457272678536,-4.0762102928819655
c -15.997499999999999,63.60882429303467 0,88.40392014498185 35.855227321464,88.40392014498185
c 32.364400965603096,0 48.3619009656031,-9.93740029176688 32.364400965603096,-41.808935770442474
c -15.997499999999999,-39.0 55.99125,-24.0 100.9480990343969,-42.51877408165741 c 45.55045304617388,0.0 129.56181317488588,-15.0 110.89806317488588,57.495966634270346
c -15.997499999999999,36.621487981286236 0,38.307613922701464 22.414436825114123,38.307613922701464
c 42.274294522178764,0 58.271794522178766,-77.96929580075904 42.274294522178764,-84.25910738907935
c -15.997499999999999,-39.0 55.99125,-24.0 91.03820547782124,-11.544473167892463 c 20.262105934328773,-0.0 114.44713388774477,15.0 95.78338388774476,0.9628343415507535
c -15.997499999999999,-32.46528146622026 0,-78.4222099494983 37.52911611225524,-78.4222099494983
c 24.342919231876323,0 40.340419231876325,25.070947610974667 24.342919231876323,42.956191218770286
c -15.997499999999999,39.0 55.99125,24.0 108.96958076812368,34.50318438917725 c 47.519313805751004,-0.0 121.92475389507564,15.0 103.26100389507565,-3.6205756884936195
c -15.997499999999999,-44.48851280048792 0,-94.52274913585089 30.051496104924354,-94.52274913585089
c 36.489204923769506,0 52.48670492376951,53.312357676661144 36.489204923769506,73.50289043564159
c -15.997499999999999,39.0 55.99125,24.0 96.8232950762305,24.640434388702914 c 39.137954760922504,-0.0 121.69359754426799,15.0 103.02984754426798,-28.429918887331965
c -15.997499999999999,-12.533062322988416 0,-57.728453555501346 30.28265245573202,-57.728453555501346
c 40.150703693391506,0 56.14820369339151,17.798277756393183 40.150703693391506,40.34785120965929
c -15.997499999999999,39.0 55.99125,24.0 93.1617963066085,45.81052123317402 c 34.416475595572486,0.0 110.10394810263304,-15.0 91.44019810263303,14.002710809082467
c -15.997499999999999,56.56206558581616 0,68.11126028630835 41.87230189736697,68.11126028630835
c 34.2310767614193,0 50.228576761419305,-22.84693719685351 34.2310767614193,-44.55646413520907
c -15.997499999999999,-39.0 55.99125,-24.0 99.0814232385807,-37.557506960181755 c 63.940609031825176,0.0 126.92382519157422,-15.0 108.26007519157423,25.614636207891802
c -15.997499999999999,30.01516578932752 0,57.71666263347754 25.05242480842577,57.71666263347754
c 37.09762178853356,0 53.09512178853356,-25.830739247762654 37.09762178853356,-30.7922351024363
c -15.997499999999999,-39.0 55.99125,-24.0 96.21487821146644,-52.539063738933045 L 2133 0 " fill="none" stroke="black" stroke-width="0.1" style="vector-effect:non-scaling-stroke;"/></g><g><path d="M 0 0  L 0 600.000000  c 15.880012449153627,-0.0 110.76084683918486,15.0 92.09709683918486,-29.191989469731922
c -15.997499999999999,-22.95267748064891 0,-71.22811754476278 41.21540316081514,-71.22811754476278
c 32.67114721872326,0 48.668647218723265,21.168080702569874 32.67114721872326,42.08074331137049
c -15.997499999999999,39.0 55.99125,24.0 100.64135278127674,58.339363703124214 c 73.62577236513991,-0.0 126.1054301283244,15.0 107.44168012832439,-15.677746740877085
c -15.997499999999999,-49.01883345129113 0,-77.37983454540378 25.870819871675607,-77.37983454540378
c 22.133306034289063,0 38.130806034289066,17.16692772800473 22.133306034289063,64.86428831289584
c -15.997499999999999,39.0 55.99125,24.0 111.17919396571094,28.193292973385027 c 14.428552652518492,0.0 117.17556186805109,-15.0 98.51181186805108,60.23333465614408
c -15.997499999999999,25.93097587664423 0,39.54804882912266 34.80068813194892,39.54804882912266
c 31.14004264640974,0 47.13754264640974,-70.22205610436633 31.14004264640974,-83.4066090172523
c -15.997499999999999,-39.0 55.99125,-24.0 102.17245735359026,-16.37477446801445 c 53.68883750240016,0.0 121.45160237552673,-15.0 102.78785237552674,63.936974098061754
c -15.997499999999999,7.096688798776913 0,15.47698923622319 30.52464762447326,15.47698923622319
c 19.56612830916336,0 35.56362830916336,-11.574651213599811 19.56612830916336,-13.956491641113232
c -15.997499999999999,-39.0 55.99125,-24.0 113.74637169083664,-65.45747169317171 c 44.19949651138029,0.0 120.00413830945593,-15.0 101.34038830945592,32.93952755480686
c -15.997499999999999,24.56096395105663 0,53.491354253639855 31.972111690544082,53.491354253639855
c 30.647035802156665,0 46.64453580215667,-16.912220467046346 30.647035802156665,-80.13118886548611
c -15.997499999999999,-39.0 55.99125,-24.0 102.66546419784333,-6.299692942960604 c 19.333205621795713,0.0 126.4643250147906,-15.0 107.8005750147906,47.242275552410135
c -15.997499999999999,12.474728960070221 0,44.48975320122608 25.511924985209404,44.48975320122608
c 42.19920619999982,0 58.196706199999824,-28.25406016726522 42.19920619999982,-72.9226830432977
c -15.997499999999999,-39.0 55.99125,-24.0 91.11329380000018,-18.80934571033852 c 53.583495357273,0.0 114.71977059187753,-15.0 96.05602059187753,22.009360683384227
c -15.997499999999999,67.27551804557635 0,79.85029471486358 37.25647940812247,79.85029471486358
c 19.437616103967514,0 35.435116103967516,-77.65577176191124 19.437616103967514,-100.2707854786364
c -15.997499999999999,-39.0 55.99125,-24.0 113.87488389603249,-1.5888699196114118 c 13.423356709764157,0.0 122.42963970768827,-15.0 103.76588970768826,3.107724366023297
c -15.997499999999999,74.94039852712012 0,95.09271698881297 29.54661029231174,95.09271698881297
c 31.57057822884167,0 47.56807822884167,-32.557521936821125 31.57057822884167,-98.10939350822487
c -15.997499999999999,-39.0 55.99125,-24.0 101.74192177115833,-0.09104784661138865 L 2133 0 " fill="none" stroke="black" stroke-width="0.1" style="vector-effect:non-scaling-stroke;"/></g><g><path d="M 0 0  L 0 900.000000  c 51.563843939473855,-0.0 110.93095282499579,15.0 92.26720282499578,-11.272758811277567
c -15.997499999999999,-57.368485816945366 0,-61.28399528068081 41.04529717500422,-61.28399528068081
c 36.977710847817804,0 52.975210847817806,8.791043880498083 36.977710847817804,26.73347395977438
c -15.997499999999999,39.0 55.99125,24.0 96.3347891521822,45.823280132184 c 55.93280072681943,-0.0 129.75959633432714,15.0 111.09584633432715,-17.609176915221596
c -15.997499999999999,-18.218092985651097 0,-63.239469938914894 22.21665366567285,-63.239469938914894
c 34.94988498803593,0 50.947384988035935,22.048680507124708 34.94988498803593,54.490127563050336
c -15.997499999999999,39.0 55.99125,24.0 98.36261501196407,26.358519291086154 c 69.20320706977445,-0.0 110.79989135546023,15.0 92.13614135546024,1.5021781402303964
c -15.997499999999999,-70.75077829773012 0,-81.36336163962845 41.17635864453976,-81.36336163962845
c 31.059437609286363,0 47.056937609286365,26.055037979220774 31.059437609286363,47.13264446140712
c -15.997499999999999,39.0 55.99125,24.0 102.25306239071364,32.728539037990934 c 60.87689610913598,-0.0 117.91941922221534,15.0 99.25566922221535,-15.8767868188629
c -15.997499999999999,-32.50290483628733 0,-81.64734497507233 34.056830777784654,-81.64734497507233
c 36.29565139829376,0 52.29315139829376,34.954618442051654 36.29565139829376,50.932644422685385
c -15.997499999999999,39.0 55.99125,24.0 97.01684860170624,46.59148737124984 c 27.63144613290123,-0.0 126.29191597041554,15.0 107.62816597041555,-17.419262624126016
c -15.997499999999999,-46.84582383344784 0,-64.64186897001383 25.68433402958445,-64.64186897001383
c 29.31482948575328,0 45.31232948575328,14.195973970674618 29.31482948575328,21.384963936400972
c -15.997499999999999,39.0 55.99125,24.0 103.99767051424672,60.67616765773888 c 64.53396930838134,-0.0 132.6719829917169,15.0 114.0082329917169,-35.22437641599852
c -15.997499999999999,-43.09707035654866 0,-45.55899634502927 19.304267008283105,-45.55899634502927
c 37.6670044947021,0 53.6645044947021,33.72148380563802 37.6670044947021,86.22134211508671
c -15.997499999999999,39.0 55.99125,24.0 95.6454955052979,-5.437969354058922 c 58.42773560205129,0.0 121.1513469680973,-15.0 102.48759696809731,48.90759419865959
c -15.997499999999999,10.483624065532652 0,44.061137828958714 30.824903031902693,44.061137828958714
c 22.18692215686866,0 38.18442215686866,-67.84304786993667 22.18692215686866,-70.17251578985196
c -15.997499999999999,-39.0 55.99125,-24.0 111.12557784313134,-22.796216237766345 c 56.1683768796056,-0.0 128.9859765533421,15.0 110.3222265533421,-7.555190651764592
c -15.997499999999999,-18.82076838221868 0,-82.49541397581167 22.990273446657895,-82.49541397581167
c 36.941181240140025,0 52.93868124014003,38.77253758157261 36.941181240140025,38.75467689343351
c -15.997499999999999,39.0 55.99125,24.0 96.37131875985997,51.29592773414275 L 2133 0 " fill="none" stroke="black" stroke-width="0.1" style="vector-effect:non-scaling-stroke;"/></g></g></svg>