<svg baseProfile="full" height="3011" preserveAspectRatio="none" shape-rendering="geometricPrecision" version="1.1" viewBox="0,0,2000,3011" width="2000" xmlns="http://www.w3.org/2000/svg" xmlns:ev="http://www.w3.org/2001/xml-events" xmlns:xlink="http://www.w3.org/1999/xlink"><title>Jigsaw puzzle piece clips</title><desc>Created with the piecemaker. Piece count: 35</desc><defs /><g><g><rect fill="white" height="3011" width="2000" x="0" y="0" /></g></g><g><g><path d="M 0 0  L 400.000000 0  c 0.0,49.743876407270044 -20.0,201.68989063638816 32.25120060481911,171.57989063638814&#10;c 26.942411762097205,-25.80857142857143 68.54052770511578,0 68.54052770511578,43.49153793504044&#10;c 0,44.93525851816801 -15.135222705976702,70.74382994673944 -56.279700014746396,44.93525851816801&#10;c -52.0,-25.80857142857143 -32.0,90.33 -44.512028295188486,170.13617005326057 c 0.0,85.88255060538471 -20.0,181.57246556906307 62.018965244908586,151.46246556906306&#10;c 50.3411805190595,-25.80857142857143 61.31012784378363,0 61.31012784378363,63.60896300236553&#10;c 0,54.57404393854611 -57.7560675391871,80.38261536711754 -60.12692741696883,54.57404393854611&#10;c -52.0,-25.80857142857143 -32.0,90.33 -63.202165671723385,160.49738463288247 c -0.0,118.91365761613636 20.0,190.8713178839728 -56.71837259969538,160.7613178839728&#10;c -17.094458102953535,-25.80857142857143 -51.05455147533983,0 -51.05455147533983,54.31011068745579&#10;c 0,35.8960186632718 38.97581714934209,61.70459009184323 39.538538314585765,35.8960186632718&#10;c 52.0,-25.80857142857143 32.0,90.33 68.23438576044944,179.17540990815678 c 0.0,87.5872128739354 -20.0,184.94121482162626 28.904855982105843,154.83121482162625&#10;c 50.62289796353403,-25.80857142857143 87.58809548350223,0 87.58809548350223,60.24021374980234&#10;c 0,34.93383262407778 -35.287068513548256,60.742404052649206 -60.43378850086487,34.93383262407778&#10;c -52.0,-25.80857142857143 -32.0,90.33 -56.0591629647432,180.1375959473508 c -0.0,57.77656548767216 20.0,177.017959368836 -85.18609011823897,146.90795936883598&#10;c -18.947601170635558,-25.80857142857143 -34.59234883437901,0 -34.59234883437901,68.16346920259261&#10;c 0,51.5596429085692 19.32540488326403,77.36821433714063 56.80215507693497,51.5596429085692&#10;c 52.0,-25.80857142857143 32.0,90.33 62.976283875683,163.51178566285938 c -0.0,33.89152013673574 20.0,214.54436986370197 -17.35571246679272,184.43436986370196&#10;c -20.862508902010973,-25.80857142857143 -80.16539850519003,0 -80.16539850519003,30.637058707726624&#10;c 0,58.35375915176658 20.14257177792869,84.16233058033801 32.39625084255823,58.35375915176658&#10;c 52.0,-25.80857142857143 32.0,90.33 65.12486012942452,156.717669419662 c 0.0,115.7452151697432 -20.0,187.50405449134146 35.889564394782205,157.39405449134145&#10;c 52.31329326751575,-25.80857142857143 95.84838097888695,0 95.84838097888695,57.677374080087134&#10;c 0,61.67644601455888 -89.63967192248933,87.4850174431303 -107.41889017262116,61.67644601455888&#10;c -52.0,-25.80857142857143 -32.0,90.33 -24.319055201048002,153.3949825568697 L 0 3011 " fill="none" stroke="black" stroke-width="0.1" style="vector-effect:non-scaling-stroke;" /></g><g><path d="M 0 0  L 800.000000 0  c 0.0,124.02971316786713 -20.0,184.73678796031564 47.99335379611967,154.62678796031562&#10;c 24.604334947049605,-25.80857142857143 77.99448812871489,0 77.99448812871489,60.44464061111296&#10;c 0,54.74161144259878 -39.80274285004954,80.55018287117021 -100.21570577273867,54.74161144259878&#10;c -52.0,-25.80857142857143 -32.0,90.33 -25.772136152095882,160.3298171288298 c -0.0,116.52687418939904 20.0,207.19839231706044 -62.22007189634049,177.08839231706042&#10;c -29.32665643384305,-25.80857142857143 -51.11554254150207,0 -51.11554254150207,37.98303625436816&#10;c 0,55.77732238481346 105.67230966753345,81.58589381338489 112.80807103772159,55.77732238481346&#10;c 52.0,-25.80857142857143 32.0,90.33 0.527543400120976,159.29410618661512 c 0.0,96.99793325184334 -20.0,212.8292109261535 77.8588626127094,182.7192109261535&#10;c 8.064077701871552,-25.80857142857143 26.28946153593192,0 26.28946153593192,32.35221764527509&#10;c 0,53.817587106141985 -68.20411553451484,79.62615853471341 -83.9635271488562,53.817587106141985&#10;c -52.0,-25.80857142857143 -32.0,90.33 -20.18479699978512,161.2538414652866 c -0.0,118.43173434440442 20.0,181.71784010824362 -59.51397545927848,151.6078401082436&#10;c -28.350480644704795,-25.80857142857143 -63.870302906688785,0 -63.870302906688785,63.463588463184976&#10;c 0,59.2565582914946 38.497168600430335,85.06512972006603 62.45723294710674,59.2565582914946&#10;c 52.0,-25.80857142857143 32.0,90.33 60.92704541886052,155.81487027993398 c -0.0,105.43896090130036 20.0,182.98456610427525 -40.856174990917786,152.87456610427523&#10;c -74.32590985962953,-25.80857142857143 -79.16384852632879,0 -79.16384852632879,62.19686246715335&#10;c 0,61.89535039725703 21.936762524725516,87.70392182582846 42.918873446692444,61.89535039725703&#10;c 52.0,-25.80857142857143 32.0,90.33 77.10115007055414,153.17607817417155 c 0.0,45.98189515736303 -20.0,199.66228721854296 80.1283822509658,169.55228721854294&#10;c 37.039846361115,-25.80857142857143 52.38296066534433,0 52.38296066534433,45.51914135288564&#10;c 0,37.43486273430338 -72.81199382845251,63.243434162874806 -112.42457232079138,37.43486273430338&#10;c -52.0,-25.80857142857143 -32.0,90.33 -20.086770595518743,177.6365658371252 c -0.0,78.15071899958149 20.0,179.43408871388664 -52.08738164770589,149.32408871388662&#10;c -13.279520513007213,-25.80857142857143 -58.36570312036603,0 -58.36570312036603,65.74733985754196&#10;c 0,45.199155433329594 15.729744741896907,71.00772686190102 34.83688794369537,45.199155433329594&#10;c 52.0,-25.80857142857143 32.0,90.33 75.61619682437654,169.872273138099 L 0 3011 " fill="none" stroke="black" stroke-width="0.1" style="vector-effect:non-scaling-stroke;" /></g><g><path d="M 0 0  L 1200.000000 0  c -0.0,22.70400679935907 20.0,206.98803036079792 -20.649530556431035,176.8780303607979&#10;c -43.92256638430411,-25.80857142857143 -98.59577567319583,0 -98.59577567319583,38.193398210630676&#10;c 0,61.17244639246431 45.08739360256411,86.98101782103573 55.33731675588017,61.17244639246431&#10;c 52.0,-25.80857142857143 32.0,90.33 63.907989473746696,153.89898217896427 c -0.0,67.16233604007083 20.0,205.9057166155715 -78.65887996992673,175.79571661557148&#10;c -29.18509760782554,-25.80857142857143 -53.1620052146054,0 -53.1620052146054,39.275711955857105&#10;c 0,34.11332368862227 54.053771958576,59.9218951171937 113.5894899759812,34.11332368862227&#10;c 52.0,-25.80857142857143 32.0,90.33 18.231395208550936,180.9581048828063 c 0.0,121.3886304772838 -20.0,194.02162427932967 71.28847982352288,163.91162427932966&#10;c 22.43292305980744,-25.80857142857143 59.845509715672264,0 59.845509715672264,51.159804292098926&#10;c 0,39.65728550855275 -40.58117211951546,65.46585693712417 -102.63605794597859,39.65728550855275&#10;c -52.0,-25.80857142857143 -32.0,90.33 -28.49793159321655,175.41414306287584 c 0.0,120.38033384085918 -20.0,195.60636860164607 -4.6496973942911035,165.49636860164605&#10;c 30.99945540772913,-25.80857142857143 111.13995458682908,0 111.13995458682908,49.57505996978253&#10;c 0,35.66794472400585 -4.266073329655791,61.476516152577275 -19.9964593046396,35.66794472400585&#10;c -52.0,-25.80857142857143 -32.0,90.33 -86.49379788789837,179.40348384742273 c 0.0,98.52581409888968 -20.0,208.20505470415844 82.84793416736774,178.09505470415843&#10;c 11.804630242764798,-25.80857142857143 38.59091580508999,0 38.59091580508999,36.976373867270155&#10;c 0,36.79487511199824 -62.34350083515054,62.603446540569664 -124.27364270189553,36.79487511199824&#10;c -52.0,-25.80857142857143 -32.0,90.33 2.834792729437794,178.27655345943035 c -0.0,28.02344765629061 20.0,186.33334843762213 -84.10713367297666,156.22334843762212&#10;c -26.186909279410475,-25.80857142857143 -43.60589001738384,0 -43.60589001738384,58.84808013380646&#10;c 0,62.76585185737164 18.75018083133004,88.57442328594307 83.78619158602706,62.76585185737164&#10;c 52.0,-25.80857142857143 32.0,90.33 43.92683210433344,152.30557671405694 c -0.0,76.34371534638508 20.0,200.47274632687743 -44.443996598288784,170.3627463268774&#10;c -49.23820135839546,-25.80857142857143 -76.34244027762696,0 -76.34244027762696,44.70868224455117&#10;c 0,61.19517202544418 16.7045439656513,87.0037434540156 57.044378228962,61.19517202544418&#10;c 52.0,-25.80857142857143 32.0,90.33 63.74205864695374,153.8762565459844 L 0 3011 " fill="none" stroke="black" stroke-width="0.1" style="vector-effect:non-scaling-stroke;" /></g><g><path d="M 0 0  L 1600.000000 0  c -0.0,122.0945003150701 20.0,211.94149755502337 2.187261795573555,181.83149755502336&#10;c -62.2244474377766,-25.80857142857143 -125.2818955313638,0 -125.2818955313638,33.23993101640522&#10;c 0,64.03581691553151 42.1131045501293,89.84438834410294 82.04984139782677,64.03581691553151&#10;c 52.0,-25.80857142857143 32.0,90.33 41.04479233796347,151.03561165589707 c -0.0,44.06848231839014 20.0,179.67667479316935 -27.60744128237757,149.56667479316934&#10;c -72.06583103761902,-25.80857142857143 -80.9384212320671,0 -80.9384212320671,65.50475377825924&#10;c 0,49.53978255410246 20.68303235718176,75.34835398267388 64.0146903958202,49.53978255410246&#10;c 52.0,-25.80857142857143 32.0,90.33 44.53117211862448,165.53164601732612 c 0.0,83.57229365642068 -20.0,187.9690336030599 32.78388446505568,157.85903360305988&#10;c 68.4553663545242,-25.80857142857143 92.11155251601258,0 92.11155251601258,57.2123949683687&#10;c 0,67.04570639404645 -38.323375053145874,92.85427782261787 -43.0050348918585,67.04570639404645&#10;c -52.0,-25.80857142857143 -32.0,90.33 -81.89040208920976,148.02572217738214 c -0.0,103.41061734797411 20.0,211.58162848274765 -87.40398867461174,181.47162848274763&#10;c -22.237489017559504,-25.80857142857143 -45.403241640216194,0 -45.403241640216194,33.59980008868095&#10;c 0,40.62933018298901 107.25198721467208,66.43790161156043 110.10694602220308,40.62933018298901&#10;c 52.0,-25.80857142857143 32.0,90.33 22.700284292624858,174.44209838843958 c -0.0,29.82417068447527 20.0,193.4050914282545 -4.4617744592333715,163.2950914282545&#10;c -48.08962503857919,-25.80857142857143 -131.06181504085288,0 -131.06181504085288,51.77633714317409&#10;c 0,60.87348698067447 95.11690837331966,86.6820584092459 124.73244940335594,60.87348698067447&#10;c 52.0,-25.80857142857143 32.0,90.33 10.791140096730302,154.1979415907541 c -0.0,33.85752306749716 20.0,197.8841711489383 -35.505826304464385,167.77417114893828&#10;c -18.876133474648363,-25.80857142857143 -74.93984877606394,0 -74.93984877606394,47.297257422490304&#10;c 0,31.51058860882233 30.14639603740435,57.31916003739376 87.6287686265577,31.51058860882233&#10;c 52.0,-25.80857142857143 32.0,90.33 22.81690645397063,183.56083996260625 c 0.0,124.11036813598344 -20.0,194.3976391521338 50.36410066178462,164.28763915213378&#10;c 27.444211937889104,-25.80857142857143 80.44475719517891,0 80.44475719517891,50.783789419294806&#10;c 0,68.23430085463937 -14.95005041486171,94.0428722832108 -58.40323876176143,68.23430085463937&#10;c -52.0,-25.80857142857143 -32.0,90.33 -72.4056190952021,146.8371277167892 L 0 3011 " fill="none" stroke="black" stroke-width="0.1" style="vector-effect:non-scaling-stroke;" /></g></g><g><g><path d="M 0 0  L 0 430.142857  c 31.713506427582654,0.0 198.9069529658951,-21.50714285714286 170.9069529658951,47.205941832036565&#10;c -24.0,38.25058848268124 0,77.05374125728247 29.0930470341049,77.05374125728247&#10;c 55.95165520571004,0 79.95165520571004,-76.438949080459 55.95165520571004,-87.293984675297&#10;c -24.0,-55.91857142857143 84.0,-34.41142857142857 144.04834479428996,-36.96569841402203 c 72.6166979285885,0.0 168.74311367596326,-21.50714285714286 140.74311367596326,32.94817168193088&#10;c -24.0,24.288310193083234 0,85.26089701021596 59.25688632403674,85.26089701021596&#10;c 38.15775842756,0 62.15775842756,-54.33452195730388 38.15775842756,-76.53944314428975&#10;c -24.0,-55.91857142857143 84.0,-34.41142857142857 161.84224157244,-41.669625547857095 c 23.640091407128793,-0.0 183.61872697536313,21.50714285714286 155.61872697536313,-33.85192547105464&#10;c -24.0,-87.37385069852246 0,-89.45582954402786 44.38127302463687,-89.45582954402786&#10;c 29.600809252766282,0 53.60080925276628,23.882950762166967 29.600809252766282,95.68344151781727&#10;c -24.0,55.91857142857143 84.0,34.41142857142857 170.39919074723372,27.624313497265234 c 63.096013042307916,0.0 176.04155208572905,-21.50714285714286 148.04155208572905,14.53163776398212&#10;c -24.0,125.18062690334293 0,127.74727346266066 51.95844791427095,127.74727346266066&#10;c 59.39320849187959,0 83.39320849187959,-31.614399766014376 59.39320849187959,-55.283558417118925&#10;c -24.0,-55.91857142857143 84.0,-34.41142857142857 140.6067915081204,-86.99535280952385 c 32.55403956234271,-0.0 197.03728566581327,21.50714285714286 169.03728566581327,-40.39215835482723&#10;c -24.0,-78.9313242048154 0,-82.70271225236743 30.962714334186728,-82.70271225236743&#10;c 39.738740296224364,0 63.738740296224364,51.943230344046334 39.738740296224364,54.366197499429134&#10;c -24.0,55.91857142857143 84.0,34.41142857142857 160.26125970377564,68.72867310776553 L 2000 0 " fill="none" stroke="black" stroke-width="0.1" style="vector-effect:non-scaling-stroke;" /></g><g><path d="M 0 0  L 0 860.285714  c 71.22295565774249,-0.0 184.42549943746127,21.50714285714286 156.42549943746127,-81.78300136652977&#10;c -24.0,-10.23376541813676 0,-33.20396694874404 43.57450056253873,-33.20396694874404&#10;c 32.783942399721155,0 56.783942399721155,57.87477412868504 32.783942399721155,79.93544640895628&#10;c -24.0,55.91857142857143 84.0,34.41142857142857 167.21605760027884,35.05152190631753 c 48.1209852487227,-0.0 168.55673697915284,21.50714285714286 140.55673697915284,-61.23456642620206&#10;c -24.0,-58.356647331632566 0,-59.22692685987115 59.443263020847155,-59.22692685987115&#10;c 40.36022222774071,0 64.3602222277407,18.198818598655546 40.36022222774071,55.88530127704465&#10;c -24.0,55.91857142857143 84.0,34.41142857142857 159.6397777722593,64.57619200902856 c 58.300335878708,0.0 183.95478192633067,-21.50714285714286 155.95478192633067,19.14939616740336&#10;c -24.0,37.41316876255339 0,115.56962610525864 44.04521807366933,115.56962610525864&#10;c 40.043142887832545,0 64.04314288783254,-103.3368280328232 40.043142887832545,-117.73033594586715&#10;c -24.0,-55.91857142857143 84.0,-34.41142857142857 159.95685711216746,-16.988686326794834 c 92.2164971988767,-0.0 170.01792289220754,21.50714285714286 142.01792289220754,-73.33755498144033&#10;c -24.0,-36.6661936771679 0,-50.69498894672728 57.98207710779246,-50.69498894672728&#10;c 51.82658007685018,0 75.82658007685018,54.07931043394928 51.82658007685018,107.02146243013824&#10;c -24.0,55.91857142857143 84.0,34.41142857142857 148.17341992314982,17.01108149802937 c 98.80772904443806,0.0 184.58875740927851,-21.50714285714286 156.58875740927851,60.706910640339935&#10;c -24.0,23.203302540724277 0,71.83115456453191 43.411242590721486,71.83115456453191&#10;c 34.288951593425566,0 58.288951593425566,-108.56064964221105 34.288951593425566,-130.33451188744698&#10;c -24.0,-55.91857142857143 84.0,-34.41142857142857 165.71104840657443,-2.203553317424877 L 2000 0 " fill="none" stroke="black" stroke-width="0.1" style="vector-effect:non-scaling-stroke;" /></g><g><path d="M 0 0  L 0 1290.428571  c 80.16026985571763,0.0 198.4001753135831,-21.50714285714286 170.4001753135831,49.21869081868523&#10;c -24.0,33.893922877382096 0,78.90562156154247 29.599824686416895,78.90562156154247&#10;c 35.694330513486165,0 59.694330513486165,-81.71103285102491 35.694330513486165,-81.50848643586039&#10;c -24.0,-55.91857142857143 84.0,-34.41142857142857 164.30566948651384,-46.615825944367316 c 71.948152513591,-0.0 192.77362231670537,21.50714285714286 164.77362231670537,-40.02033583507096&#10;c -24.0,-48.32173006604597 0,-89.70333125397477 35.22637768329463,-89.70333125397477&#10;c 51.89143769470249,0 75.89143769470249,35.856576733784536 51.89143769470249,59.6304082191794&#10;c -24.0,55.91857142857143 84.0,34.41142857142857 148.1085623052975,70.09325886986633 c 107.90937602262632,0.0 182.94472849724875,-21.50714285714286 154.94472849724875,17.345133033927358&#10;c -24.0,87.46694663959623 0,128.65053637824374 45.05527150275125,128.65053637824374&#10;c 59.17494246034323,0 83.17494246034323,-20.406912025466497 59.17494246034323,-74.44653579882825&#10;c -24.0,-55.91857142857143 84.0,-34.41142857142857 140.82505753965677,-71.54913361334286 c 111.57986319777405,0.0 183.17233400427898,-21.50714285714286 155.17233400427898,1.3903895919126037&#10;c -24.0,31.09068415636412 0,103.45866126054486 44.82766599572102,103.45866126054486&#10;c 35.249757993071825,0 59.249757993071825,-28.860055605206274 35.249757993071825,-96.25880689205476&#10;c -24.0,-55.91857142857143 84.0,-34.41142857142857 164.75024200692818,-8.590243960402702 c 98.28460288134755,0.0 178.91486864271755,-21.50714285714286 150.91486864271755,91.06828241372887&#10;c -24.0,10.429796740252714 0,14.262843016033926 49.08513135728245,14.262843016033926&#10;c 36.60526424153545,0 60.60526424153545,-11.805608229079908 36.60526424153545,-38.45405630051634&#10;c -24.0,-55.91857142857143 84.0,-34.41142857142857 163.39473575846455,-66.87706912924645 L 2000 0 " fill="none" stroke="black" stroke-width="0.1" style="vector-effect:non-scaling-stroke;" /></g><g><path d="M 0 0  L 0 1720.571429  c 79.73966710106824,0.0 192.4918224410187,-21.50714285714286 164.4918224410187,80.62240454406343&#10;c -24.0,27.523003190250893 0,58.268570514054616 35.50817755898129,58.268570514054616&#10;c 32.50564888443458,0 56.50564888443458,-66.31922337782936 32.50564888443458,-124.8228236694541&#10;c -24.0,-55.91857142857143 84.0,-34.41142857142857 167.49435111556542,-14.06815138866395 c 74.16278073053269,-0.0 183.40705694579694,21.50714285714286 155.40705694579694,-78.59428551464234&#10;c -24.0,-31.01198217052291 0,-38.67963730596465 44.59294305420306,-38.67963730596465&#10;c 35.25867898776073,0 59.25867898776073,49.6240544588036 35.25867898776073,62.52412731789355&#10;c -24.0,55.91857142857143 84.0,34.41142857142857 164.74132101223927,54.74979550271343 c 88.67709575761147,0.0 176.60296226753866,-21.50714285714286 148.60296226753866,35.895704389440546&#10;c -24.0,78.24997930286372 0,85.21735713529367 51.39703773246134,85.21735713529367&#10;c 48.944377897252224,0 72.94437789725222,-59.77840557921575 48.944377897252224,-115.49179325209452&#10;c -24.0,-55.91857142857143 84.0,-34.41142857142857 151.05562210274778,-5.621268272639682 c 105.75039358904901,-0.0 166.78778920929076,21.50714285714286 138.78778920929076,-91.39700049459248&#10;c -24.0,-26.197181232553792 0,-41.41522241202014 61.212210790709236,-41.41522241202014&#10;c 32.855860476184574,0 56.855860476184574,42.81753297055133 32.855860476184574,110.59491808281625&#10;c -24.0,55.91857142857143 84.0,34.41142857142857 167.14413952381543,22.21730482379637 c 53.0613248397915,0.0 169.06982635048823,-21.50714285714286 141.06982635048823,44.60170339655563&#10;c -24.0,72.77772886059864 0,95.56851923908647 58.93017364951177,95.56851923908647&#10;c 60.04314038726022,0 84.04314038726022,-90.58087265035167 60.04314038726022,-134.62917072202526&#10;c -24.0,-55.91857142857143 84.0,-34.41142857142857 139.95685961273978,-5.541051913616826 L 2000 0 " fill="none" stroke="black" stroke-width="0.1" style="vector-effect:non-scaling-stroke;" /></g><g><path d="M 0 0  L 0 2150.714286  c 113.30016254306399,0.0 188.37071451153466,-21.50714285714286 160.37071451153466,9.662069557637846&#10;c -24.0,70.51486928097003 0,108.68496894498819 39.62928548846534,108.68496894498819&#10;c 31.9040063886423,0 55.9040063886423,-37.533597399349844 31.9040063886423,-52.25212745856902&#10;c -24.0,-55.91857142857143 84.0,-34.41142857142857 168.0959936113577,-66.09491104405701 c 57.311608951389104,0.0 192.5517053088362,-21.50714285714286 164.5517053088362,23.22188544726524&#10;c -24.0,63.73640689012574 0,92.29836870147948 35.448294691163795,92.29836870147948&#10;c 48.1318480842082,0 72.1318480842082,-45.03888911373538 48.1318480842082,-93.75680729134298&#10;c -24.0,-55.91857142857143 84.0,-34.41142857142857 151.8681519157918,-21.763446857401732 c 29.44336696464007,-0.0 193.23906811611164,21.50714285714286 165.23906811611164,-44.201625385963666&#10;c -24.0,-57.66803008613416 0,-61.5401875789735 34.76093188388836,-61.5401875789735&#10;c 41.42369055400721,0 65.42369055400721,22.342968491498873 41.42369055400721,66.0996849800635&#10;c -24.0,55.91857142857143 84.0,34.41142857142857 158.5763094459928,39.64212798487367 c 76.36274622786748,-0.0 177.89704144536867,21.50714285714286 149.89704144536867,4.589053541116064&#10;c -24.0,-47.77443900354204 0,-130.9397659904707 50.10295855463133,-130.9397659904707&#10;c 38.912712982432026,0 62.912712982432026,71.3993744200822 38.912712982432026,82.3551649372404&#10;c -24.0,55.91857142857143 84.0,34.41142857142857 161.08728701756797,43.99554751211424 c 55.607191569379935,-0.0 195.42071815437728,21.50714285714286 167.42071815437728,-39.323108929960924&#10;c -24.0,-59.55320449270897 0,-88.03464091186852 32.57928184562272,-88.03464091186852&#10;c 40.32595948249343,0 64.32595948249343,90.6363377334112 40.32595948249343,92.17127276557423&#10;c -24.0,55.91857142857143 84.0,34.41142857142857 159.67404051750657,35.186477076255215 L 2000 0 " fill="none" stroke="black" stroke-width="0.1" style="vector-effect:non-scaling-stroke;" /></g><g><path d="M 0 0  L 0 2580.857143  c 93.29277057099159,-0.0 185.67664566725696,21.50714285714286 157.67664566725696,-92.1034072637022&#10;c -24.0,-8.131672432881885 0,-18.260247847292746 42.32335433274304,-18.260247847292746&#10;c 39.26790102243004,0 63.26790102243004,35.791554353736075 39.26790102243004,109.20308458907591&#10;c -24.0,55.91857142857143 84.0,34.41142857142857 160.73209897756996,1.160570521919027 c 104.11155191342745,0.0 165.3484803339347,-21.50714285714286 137.3484803339347,-6.644226874643323&#10;c -24.0,148.25011900607282 0,152.86970165474227 62.6515196660653,152.86970165474227&#10;c 57.73687782581351,0 81.73687782581351,-52.84495911278635 57.73687782581351,-112.99993022638321&#10;c -24.0,-55.91857142857143 84.0,-34.41142857142857 142.2631221741865,-33.225544553715736 c 32.821517075623674,-0.0 183.57662679308854,21.50714285714286 155.57662679308854,-27.84661963106704&#10;c -24.0,-31.527132077434654 0,-105.14218114569483 44.423373206911464,-105.14218114569483&#10;c 33.996337155717384,0 57.996337155717384,20.102835460345784 33.996337155717384,63.65776341470368&#10;c -24.0,55.91857142857143 84.0,34.41142857142857 166.00366284428262,69.3310373620582 c 90.6026919569969,-0.0 194.87678071364374,21.50714285714286 166.87678071364374,-72.01202413635488&#10;c -24.0,-31.845336087760657 0,-48.712929713435784 33.12321928635626,-48.712929713435784&#10;c 51.143363862342056,0 75.14336386234206,10.27960927095421 51.143363862342056,39.63750048720452&#10;c -24.0,55.91857142857143 84.0,34.41142857142857 148.85663613765794,81.08745336258615 c 61.8215111229541,-0.0 184.61895561236742,21.50714285714286 156.61895561236742,2.5057045162617597&#10;c -24.0,-73.99595333739737 0,-112.53507344638062 43.381044387632585,-112.53507344638062&#10;c 47.13426112176114,0 71.13426112176114,87.78065298877326 47.13426112176114,112.75054084130365&#10;c -24.0,55.91857142857143 84.0,34.41142857142857 152.86573887823886,-2.7211719111847827 L 2000 0 " fill="none" stroke="black" stroke-width="0.1" style="vector-effect:non-scaling-stroke;" /></g></g></svg>