<svg baseProfile="full" height="1200" preserveAspectRatio="none" shape-rendering="geometricPrecision" version="1.1" viewBox="0,0,1920,1200" width="1920" xmlns="http://www.w3.org/2000/svg" xmlns:ev="http://www.w3.org/2001/xml-events" xmlns:xlink="http://www.w3.org/1999/xlink"><title>Jigsaw puzzle piece clips</title><desc>Created with the piecemaker. Piece count: 35</desc><defs/><g><g><rect fill="white" height="1200" width="1920" x="0" y="0"/></g></g><g><g><path d="M 0 0  L 274.285714 0  c -0.0,27.82337166894669 13.714285714285715,116.88744378783234 -3.19489063563862,100.08744378783234
c -70.71766961470975,-14.399999999999999 -79.99004184742937,0 -79.99004184742937,19.912556212167658
c 0,27.941008614524463 70.46062074545223,42.34100861452446 69.83656556285717,27.941008614524463
c 35.65714285714286,-14.399999999999999 21.942857142857143,50.4 13.348366920210808,92.05899138547554 c 0.0,38.537616904781196 -13.714285714285715,106.94226584312914 -0.28701678154053223,90.14226584312914
c 46.12693286518087,-14.399999999999999 87.50582132313959,0 87.50582132313959,29.857734156870862
c 0,21.790618717006225 -29.090733093198658,36.190618717006224 -30.35027459313074,21.790618717006225
c -35.65714285714286,-14.399999999999999 -21.942857142857143,50.4 -56.868529948468314,98.20938128299377 c 0.0,35.931318229890884 -13.714285714285715,114.63717525469501 9.045516401043907,97.83717525469501
c 20.793175856288926,-14.399999999999999 59.67993530901847,0 59.67993530901847,22.162824745304988
c 0,31.330731311346426 -18.349782013754673,45.730731311346425 -61.83272611252714,31.330731311346426
c -35.65714285714286,-14.399999999999999 -21.942857142857143,50.4 -6.892725597535232,88.66926868865357 c -0.0,17.430299856374507 13.714285714285715,100.63549879745182 2.0745115752739838,83.83549879745182
c -69.40589737482208,-14.399999999999999 -76.76285709595723,0 -76.76285709595723,36.16450120254818
c 0,18.313367255612263 19.888423616399365,32.71336725561226 76.04529799117034,18.313367255612263
c 35.65714285714286,-14.399999999999999 21.942857142857143,50.4 -1.3569524704871014,101.68663274438774 c -0.0,15.699345869378554 13.714285714285715,119.61935665553926 -53.5266295164408,102.81935665553927
c -15.12341217643403,-14.399999999999999 -25.60295435743854,0 -25.60295435743854,17.180643344460734
c 0,30.52616470981684 58.04332287813829,44.92616470981684 69.8661935696767,30.52616470981684
c 35.65714285714286,-14.399999999999999 21.942857142857143,50.4 9.263390304202645,89.47383529018316 L 0 1200 " fill="none" stroke="black" stroke-width="0.1" style="vector-effect:non-scaling-stroke;"/></g><g><path d="M 0 0  L 548.571429 0  c -0.0,57.43724038975118 13.714285714285715,117.38039693234012 -21.398870216538953,100.58039693234012
c -46.135460233611866,-14.399999999999999 -49.669023057460265,0 -49.669023057460265,19.419603067659878
c 0,26.016009766442778 21.69938681842384,40.41600976644278 51.61848853159259,26.016009766442778
c 35.65714285714286,-14.399999999999999 21.942857142857143,50.4 19.449404742406628,93.98399023355722 c -0.0,55.07278109459548 13.714285714285715,109.47856730601421 -28.160914951596364,92.67856730601422
c -16.269594919209595,-14.399999999999999 -46.69367933288463,0 -46.69367933288463,27.321432693985784
c 0,33.8850608084681 34.5248387965532,48.285060808468096 45.86343088141209,33.8850608084681
c 35.65714285714286,-14.399999999999999 21.942857142857143,50.4 28.991163403068903,86.1149391915319 c -0.0,56.940183668480685 13.714285714285715,110.7328270072033 -49.92544369062909,93.9328270072033
c -33.05055661456317,-14.399999999999999 -40.46000814762164,0 -40.46000814762164,26.0671729927967
c 0,27.17066097030093 9.501960852773307,41.57066097030093 40.99331140962801,27.17066097030093
c 35.65714285714286,-14.399999999999999 21.942857142857143,50.4 49.392140428622724,92.82933902969907 c -0.0,42.92044439850625 13.714285714285715,99.98693792679207 -41.686199660778776,83.18693792679207
c -38.44920800411453,-14.399999999999999 -39.306219405815504,0 -39.306219405815504,36.81306207320793
c 0,28.95882559690071 17.772259910529606,43.35882559690071 39.202494908379954,28.95882559690071
c 35.65714285714286,-14.399999999999999 21.942857142857143,50.4 41.789924158214326,91.04117440309929 c 0.0,44.37809807608503 -13.714285714285715,118.73112075929048 40.484896236461836,101.93112075929048
c 22.823845808185812,-14.399999999999999 36.811855099222086,0 36.811855099222086,18.06887924070952
c 0,18.89934668209395 -54.15474298236548,33.29934668209395 -75.01514011203486,18.89934668209395
c -35.65714285714286,-14.399999999999999 -21.942857142857143,50.4 -2.2816112236490653,101.10065331790605 L 0 1200 " fill="none" stroke="black" stroke-width="0.1" style="vector-effect:non-scaling-stroke;"/></g><g><path d="M 0 0  L 822.857143 0  c 0.0,12.279859571724968 -13.714285714285715,103.35553026345082 45.98160948699698,86.55553026345082
c 30.67119570814873,-14.399999999999999 44.20932874837411,0 44.20932874837411,33.44446973654918
c 0,19.19341593345115 -77.26751836061486,33.59341593345115 -84.5910218047064,19.19341593345115
c -35.65714285714286,-14.399999999999999 -21.942857142857143,50.4 -5.599916430664692,100.80658406654885 c 0.0,60.949049176605115 -13.714285714285715,99.54616685751044 35.04309444308097,82.74616685751045
c 6.875946939723861,-14.399999999999999 32.480917250091444,0 32.480917250091444,37.253833142489555
c 0,21.330252250272906 -21.042222580102585,35.730252250272905 -61.830499121306616,21.330252250272906
c -35.65714285714286,-14.399999999999999 -21.942857142857143,50.4 -5.693512571865796,98.6697477497271 c 0.0,39.03055571783682 -13.714285714285715,106.22730791206631 56.54685491665727,89.42730791206631
c 8.693379993856418,-14.399999999999999 20.404416342616614,0 20.404416342616614,30.57269208793369
c 0,29.811199205383303 -25.5201892650125,44.2111992053833 -25.310038504613523,29.811199205383303
c -35.65714285714286,-14.399999999999999 -21.942857142857143,50.4 -51.64123275466036,90.1888007946167 c -0.0,37.188526057021164 13.714285714285715,99.85611045127791 -12.65280168432824,83.05611045127792
c -36.76705510024914,-14.399999999999999 -71.92667847257034,0 -71.92667847257034,36.94388954872208
c 0,32.97705516770466 18.583858218648174,47.37705516770466 33.10322284778778,32.97705516770466
c 35.65714285714286,-14.399999999999999 21.942857142857143,50.4 51.47625730911081,87.02294483229534 c -0.0,20.17591682504232 13.714285714285715,104.92384798192732 -59.272145310353665,88.12384798192733
c -8.156536159525151,-14.399999999999999 -15.83498695076159,0 -15.83498695076159,31.876152018072673
c 0,26.229601705192295 40.67070675553863,40.62960170519229 75.6049590615424,26.229601705192295
c 35.65714285714286,-14.399999999999999 21.942857142857143,50.4 -0.49782680042714844,93.7703982948077 L 0 1200 " fill="none" stroke="black" stroke-width="0.1" style="vector-effect:non-scaling-stroke;"/></g><g><path d="M 0 0  L 1097.142857 0  c -0.0,60.11119142508497 13.714285714285715,100.13102875449202 -49.656877321171756,83.33102875449202
c -26.902792353151607,-14.399999999999999 -35.54931851345008,0 -35.54931851345008,36.668971245507976
c 0,19.856265231496593 10.451785357241805,34.25626523149659 28.113883604611523,19.856265231496593
c 35.65714285714286,-14.399999999999999 21.942857142857143,50.4 57.092312230010315,100.1437347685034 c -0.0,18.9212985659673 13.714285714285715,111.42286435933673 -0.47438427769302355,94.62286435933673
c -39.65255169200718,-14.399999999999999 -68.7921393758297,0 -68.7921393758297,25.37713564066327
c 0,19.18193304740356 4.204927639297336,33.58193304740356 12.435016030939437,19.18193304740356
c 35.65714285714286,-14.399999999999999 21.942857142857143,50.4 56.83150762258329,100.81806695259644 c 0.0,31.39269902687215 -13.714285714285715,101.25618717522136 22.76595251490712,84.45618717522136
c 17.491734854539985,-14.399999999999999 46.95063372331456,0 46.95063372331456,35.54381282477864
c 0,31.90442969310348 -45.98219459314513,46.30442969310348 -49.07851162407849,31.90442969310348
c -35.65714285714286,-14.399999999999999 -21.942857142857143,50.4 -20.638074614143193,88.09557030689652 c 0.0,56.97757355819677 -13.714285714285715,104.95937221733817 19.907241243586853,88.15937221733817
c 21.242048185691576,-14.399999999999999 52.25362273123123,0 52.25362273123123,31.840627782661826
c 0,26.13415648032509 -44.37630579550852,40.53415648032509 -63.946087754555016,26.13415648032509
c -35.65714285714286,-14.399999999999999 -21.942857142857143,50.4 -8.214776220263069,93.86584351967491 c 0.0,57.52205286930056 -13.714285714285715,104.38710023481711 32.82727852411073,87.58710023481711
c 36.508838162469424,-14.399999999999999 56.80313098049505,0 56.80313098049505,32.412899765182885
c 0,17.178053094625938 -28.884657686588493,31.578053094625936 -31.151791248973396,17.178053094625938
c -35.65714285714286,-14.399999999999999 -21.942857142857143,50.4 -58.478618255632384,102.82194690537406 L 0 1200 " fill="none" stroke="black" stroke-width="0.1" style="vector-effect:non-scaling-stroke;"/></g><g><path d="M 0 0  L 1371.428571 0  c -0.0,65.32562597248003 13.714285714285715,111.3270804743532 -49.41516432832539,94.5270804743532
c -35.61467876542328,-14.399999999999999 -40.08851571342974,0 -40.08851571342974,25.4729195256468
c 0,34.141495319313435 29.748723021882242,48.541495319313434 55.41588301280313,34.141495319313435
c 35.65714285714286,-14.399999999999999 21.942857142857143,50.4 34.087797028952004,85.85850468068656 c -0.0,39.97303458192076 13.714285714285715,111.93830709718112 -37.79730982852937,95.13830709718113
c -30.676417191683235,-14.399999999999999 -35.25685584032073,0 -35.25685584032073,24.861692902818874
c 0,17.823816895088697 11.25277152041054,32.223816895088696 18.895263130079883,17.823816895088697
c 35.65714285714286,-14.399999999999999 21.942857142857143,50.4 54.15890253877022,102.1761831049113 c -0.0,20.751394871017602 13.714285714285715,101.52317494718719 -36.284458465879396,84.72317494718719
c -26.440367586934578,-14.399999999999999 -43.35643708727477,0 -43.35643708727477,35.27682505281281
c 0,30.64700435205853 19.5444289238189,45.04700435205853 36.29975547522062,30.64700435205853
c 35.65714285714286,-14.399999999999999 21.942857142857143,50.4 43.341140077933545,89.35299564794147 c 0.0,48.62499413352732 -13.714285714285715,119.75283637757627 59.249908717211035,102.95283637757628
c 7.163191218597588,-14.399999999999999 10.65074475453816,0 10.65074475453816,17.047163622423724
c 0,29.462504252732714 -50.47091487096838,43.86250425273271 -61.56290147482304,29.462504252732714
c -35.65714285714286,-14.399999999999999 -21.942857142857143,50.4 -8.337751996926151,90.53749574726729 c -0.0,49.65024656451237 13.714285714285715,113.17024018281008 -31.922490638476667,96.37024018281008
c -9.896315275747133,-14.399999999999999 -45.07895929760419,0 -45.07895929760419,23.62975981718992
c 0,26.448282261853763 37.95508660783141,40.84828226185376 40.347711634225654,26.448282261853763
c 35.65714285714286,-14.399999999999999 21.942857142857143,50.4 36.653738301855206,93.55171773814624 L 0 1200 " fill="none" stroke="black" stroke-width="0.1" style="vector-effect:non-scaling-stroke;"/></g><g><path d="M 0 0  L 1645.714286 0  c -0.0,49.69467286824154 13.714285714285715,112.67936718367297 -12.9933401024415,95.87936718367297
c -71.37530959426915,-14.399999999999999 -79.58296798498893,0 -79.58296798498893,24.12063281632703
c 0,30.435636155400204 56.758549943401235,44.8356361554002 70.26871657087842,30.435636155400204
c 35.65714285714286,-14.399999999999999 21.942857142857143,50.4 22.307591516551994,89.5643638445998 c -0.0,63.90313840949168 13.714285714285715,107.93862636355551 -49.29721730134516,91.13862636355552
c -8.388969247222768,-14.399999999999999 -28.586436409534457,0 -28.586436409534457,28.861373636444483
c 0,24.503888697101786 46.06178494742915,38.903888697101785 54.60850320784287,24.503888697101786
c 35.65714285714286,-14.399999999999999 21.942857142857143,50.4 23.27515050303674,95.49611130289821 c 0.0,43.94034155483813 -13.714285714285715,108.26952401206687 32.921815069365266,91.46952401206687
c 16.628372746308234,-14.399999999999999 49.75223803082861,0 49.75223803082861,28.53047598793313
c 0,17.40202104906396 -7.8803803729035975,31.80202104906396 -23.142519294076877,17.40202104906396
c -35.65714285714286,-14.399999999999999 -21.942857142857143,50.4 -59.531533806117,102.59797895093604 c -0.0,23.34704320038283 13.714285714285715,106.29492398475773 -44.82617331479486,89.49492398475773
c -7.749719922269221,-14.399999999999999 -22.13486420090085,0 -22.13486420090085,30.505076015242267
c 0,22.856101834999635 8.129414837416107,37.25610183499963 14.600576997519426,22.856101834999635
c 35.65714285714286,-14.399999999999999 21.942857142857143,50.4 52.36046051817628,97.14389816500037 c 0.0,19.2863853482935 -13.714285714285715,99.82103910897274 2.595856791558068,83.02103910897274
c 61.039868349258576,-14.399999999999999 67.33519509960203,0 67.33519509960203,36.978960891027256
c 0,29.28898297187729 -17.668546234454894,43.68898297187729 -27.954290224155812,29.28898297187729
c -35.65714285714286,-14.399999999999999 -21.942857142857143,50.4 -41.97676166700428,90.71101702812271 L 0 1200 " fill="none" stroke="black" stroke-width="0.1" style="vector-effect:non-scaling-stroke;"/></g></g><g><g><path d="M 0 0  L 0 240.000000  c 65.85341810101278,-0.0 122.78575764316145,12.0 103.58575764316144,-11.185951591615279
c -16.457142857142856,-48.329457843345914 0,-48.1023718034752 33.557099499695695,-48.1023718034752
c 40.20012049987534,0 56.657263357018195,4.357030811319518 40.20012049987534,15.754206151044308
c -16.457142857142856,31.200000000000003 57.599999999999994,19.2 96.9427366429818,43.53411724404617 c 64.06812510009273,0.0 122.04380412265103,-12.0 102.84380412265102,26.75537469599342
c -16.457142857142856,22.795897978125534 0,48.3493529355775 34.29905302020612,48.3493529355775
c 38.13458277893855,0 54.59172563608141,-63.223803931500676 38.13458277893855,-76.9136378379017
c -16.457142857142856,-31.200000000000003 57.599999999999994,-19.2 99.00827436391859,1.8089102063307791 c 48.54253654634744,-0.0 122.89054513082922,12.0 103.69054513082922,-15.26809292403563
c -16.457142857142856,-38.13897129881951 0,-55.475690985184144 33.45231201202792,-55.475690985184144
c 36.19050625053879,0 52.647649107681644,35.06336512164865 36.19050625053879,65.94484550310382
c -16.457142857142856,31.200000000000003 57.599999999999994,19.2 100.95235089231835,4.798938406115951 c 52.438225665987076,0.0 135.74302858367832,-12.0 116.5430285836783,1.1951572279314426
c -16.457142857142856,39.971665360536065 0,59.47287020422834 20.59982855917883,59.47287020422834
c 30.2479687114068,0 46.705111568549654,-29.3695887844954 30.2479687114068,-48.32122344804017
c -16.457142857142856,-31.200000000000003 57.599999999999994,-19.2 106.89488843145034,-12.346803984119617 c 70.40985690242755,0.0 134.83837245646637,-12.0 115.63837245646637,0.19851697933531587
c -16.457142857142856,33.105286909218144 0,60.80660134494567 21.504484686390768,60.80660134494567
c 38.79808132727277,0 55.255224184415624,-63.253265825494196 38.79808132727277,-64.27578487803106
c -16.457142857142856,-31.200000000000003 57.599999999999994,-19.2 98.34477581558437,3.2706665537500754 c 61.639411016823175,0.0 125.9594292841339,-12.0 106.7594292841339,34.021211136040606
c -16.457142857142856,11.052898158458389 0,27.699920847958225 30.383427858723238,27.699920847958225
c 27.191808367028415,0 43.64895122417127,-14.0764175551418 27.191808367028415,-28.262882672592127
c -16.457142857142856,-31.200000000000003 57.599999999999994,-19.2 109.95104877582872,-33.4582493114067 c 57.86363029365126,0.0 136.95705397786003,-12.0 117.75705397786004,51.80349538430707
c -16.457142857142856,9.733267984218669 0,10.630844555952109 19.3858031649971,10.630844555952109
c 36.632175513082586,0 53.08931837022544,-21.001973961971174 36.632175513082586,-29.91048669628347
c -16.457142857142856,-31.200000000000003 57.599999999999994,-19.2 100.51068162977455,-32.52385324397571 L 1920 0 " fill="none" stroke="black" stroke-width="0.1" style="vector-effect:non-scaling-stroke;"/></g><g><path d="M 0 0  L 0 480.000000  c 31.470997975098545,0.0 127.61805071043867,-12.0 108.41805071043866,6.332260747220155
c -16.457142857142856,29.16454137574594 0,64.80625093725492 28.724806432418475,64.80625093725492
c 37.435772175071946,0 53.8929150322148,-27.51039076393665 37.435772175071946,-60.590021418582545
c -16.457142857142856,-31.200000000000003 57.599999999999994,-19.2 99.70708496778519,-10.548490265892532 c 35.895853457533256,-0.0 128.40185934744792,12.0 109.20185934744792,-19.386460644536307
c -16.457142857142856,-31.000482853305762 0,-39.618671785740645 27.940997795409217,-39.618671785740645
c 23.177556162050877,0 39.63469901919373,33.504682976454035 23.177556162050877,61.65507285967643
c -16.457142857142856,31.200000000000003 57.599999999999994,19.2 113.96530098080626,-2.6499404293994786 c 62.16354765440018,-0.0 125.9028082900628,12.0 106.70280829006279,-36.563432653370214
c -16.457142857142856,-20.94965701899269 0,-29.30099376664795 30.440048852794348,-29.30099376664795
c 34.87358662461722,0 51.33072948176007,12.913325442919083 34.87358662461722,20.517960281519223
c -16.457142857142856,31.200000000000003 57.599999999999994,19.2 102.26927051823992,45.34646613849894 c 44.899914495036406,-0.0 118.7960705437905,12.0 99.5960705437905,-48.434717547469226
c -16.457142857142856,-13.82595595334205 0,-22.00487203456364 37.546786599066635,-22.00487203456364
c 41.280207208789136,0 57.73735006593199,19.434850251783207 41.280207208789136,48.347153017416446
c -16.457142857142856,31.200000000000003 57.599999999999994,19.2 95.862649934068,22.09243656461642 c 30.362935502470254,-0.0 124.82359488825318,12.0 105.62359488825318,-26.305165647279697
c -16.457142857142856,-18.368759577768042 0,-48.11769420543273 31.51926225460396,-48.11769420543273
c 27.030089558442285,0 43.48723241558514,41.702393695744135 27.030089558442285,65.14075065519835
c -16.457142857142856,31.200000000000003 57.599999999999994,19.2 110.11276758441485,9.282109197514075 c 57.9832231984987,0.0 127.20458833646047,-12.0 108.00458833646047,6.704749216908022
c -16.457142857142856,20.386082440595334 0,51.491030718543406 29.138268806396667,51.491030718543406
c 28.07035443895859,0 44.527497296101444,-25.08122127079601 28.07035443895859,-53.73740025302879
c -16.457142857142856,-31.200000000000003 57.599999999999994,-19.2 109.07250270389855,-4.458379682422638 c 70.81432128855522,-0.0 114.6270633972252,12.0 95.4270633972252,-0.8141340208785369
c -16.457142857142856,-27.7177846678034 0,-61.15792060179919 41.71579374563194,-61.15792060179919
c 24.157241750492517,0 40.61438460763537,9.51721123727771 24.157241750492517,16.923215919670156
c -16.457142857142856,31.200000000000003 57.599999999999994,19.2 112.98561539236462,45.04883870300757 L 1920 0 " fill="none" stroke="black" stroke-width="0.1" style="vector-effect:non-scaling-stroke;"/></g><g><path d="M 0 0  L 0 720.000000  c 62.025653332628984,-0.0 116.33874694186079,12.0 97.13874694186079,-15.514406058928184
c -16.457142857142856,-34.15585043213856 0,-60.46680434904725 40.00411020099635,-60.46680434904725
c 32.31310198560345,0 48.77024484274631,40.171626530744774 32.31310198560345,53.41830919730096
c -16.457142857142856,31.200000000000003 57.599999999999994,19.2 104.82975515725369,22.562901210674482 c 72.8627248095947,-0.0 136.05931502014778,12.0 116.85931502014779,0.7457905721721523
c -16.457142857142856,-55.839280372800765 0,-74.42545585068159 20.28354212270935,-74.42545585068159
c 37.21710581738347,0 53.674248674526325,56.95173661352979 37.21710581738347,57.61961920623353
c -16.457142857142856,31.200000000000003 57.599999999999994,19.2 99.92575132547367,16.060046072275902 c 77.35925418563495,0.0 115.17256293189533,-12.0 95.97256293189533,-4.131938821245481
c -16.457142857142856,67.06614600430778 0,80.69561833908337 41.17029421096181,80.69561833908337
c 23.088290682917886,0 39.54543354006074,-23.391696450257044 23.088290682917886,-71.5707443187286
c -16.457142857142856,-31.200000000000003 57.599999999999994,-19.2 114.05456645993925,-4.992935199109283 c 49.80134541509317,0.0 135.16994824244838,-12.0 115.96994824244838,33.68246955973564
c -16.457142857142856,13.420825613557069 0,36.87951853889993 21.172908900408757,36.87951853889993
c 24.23695362016076,0 40.69409647730362,-21.81344704678159 24.23695362016076,-64.48725414636394
c -16.457142857142856,-31.200000000000003 57.599999999999994,-19.2 112.90590352269638,-6.074733952271629 c 29.312026834901605,-0.0 129.99135292298666,12.0 110.79135292298666,-2.7251455559416833
c -16.457142857142856,-47.43252371932898 0,-62.30294916115625 26.351504219870478,-62.30294916115625
c 19.867778434609562,0 36.32492129175242,15.28473354576818 19.867778434609562,29.98786662751904
c -16.457142857142856,31.200000000000003 57.599999999999994,19.2 117.27507870824758,35.04022808957889 c 45.877877387517806,-0.0 120.61932331762156,12.0 101.41932331762156,-43.959340487431234
c -16.457142857142856,-7.294747187179598 0,-32.6016913653813 35.72353382523558,-32.6016913653813
c 43.82746027345678,0 60.284603130599635,21.67554153326411 43.82746027345678,57.161085915079966
c -16.457142857142856,31.200000000000003 57.599999999999994,19.2 93.31539686940036,19.399945937732568 c 28.976276054679406,-0.0 127.62191000189614,12.0 108.42191000189614,-6.5216378069495855
c -16.457142857142856,-49.06478648363846 0,-51.114680470115644 28.720947140961,-51.114680470115644
c 22.186689231174398,0 38.643832088317254,7.428070378313207 22.186689231174398,13.87933759145556
c -16.457142857142856,31.200000000000003 57.599999999999994,19.2 114.95616791168274,43.75698068560967 L 1920 0 " fill="none" stroke="black" stroke-width="0.1" style="vector-effect:non-scaling-stroke;"/></g><g><path d="M 0 0  L 0 960.000000  c 70.33140153442884,-0.0 131.6865494940964,12.0 112.4865494940964,-4.452079411115641
c -16.457142857142856,-58.274511048184905 0,-69.80019419929367 24.656307648760745,-69.80019419929367
c 32.747956266408096,0 49.20509912355095,29.37663157142503 32.747956266408096,41.92788619328845
c -16.457142857142856,31.200000000000003 57.599999999999994,19.2 104.39490087644904,32.32438741712087 c 59.80639208490665,0.0 131.26049068103805,-12.0 112.06049068103806,7.0029336754083635
c -16.457142857142856,51.187153855668576 0,62.933185127847175 25.082366461819078,62.933185127847175
c 37.857780335558175,0 54.31492319270103,-14.709235413014202 37.857780335558175,-19.625873227349267
c -16.457142857142856,-31.200000000000003 57.599999999999994,-19.2 99.28507680729896,-50.31024557590627 c 73.55152658891075,0.0 127.56790907475776,-12.0 108.36790907475776,4.582443766299671
c -16.457142857142856,17.026250687552754 0,73.25043700317214 28.774948068099377,73.25043700317214
c 34.95025367859978,0 51.407396535742635,-40.540642301488 34.95025367859978,-47.80943616227585
c -16.457142857142856,-31.200000000000003 57.599999999999994,-19.2 102.19260346425736,-30.023444607195962 c 71.7932761207282,0.0 119.98898849565825,-12.0 100.78898849565824,49.42151236484038
c -16.457142857142856,2.5954584524217776 0,11.12120532947511 36.353868647198894,11.12120532947511
c 39.5508760954655,0 56.00801895260835,-26.53327427677333 39.5508760954655,-35.75880739892078
c -16.457142857142856,-31.200000000000003 57.599999999999994,-19.2 97.59198104739164,-24.783910295394712 c 19.76934264204534,-0.0 136.01065470539453,12.0 116.81065470539454,-14.458030849396124
c -16.457142857142856,-42.01652551787147 0,-44.79631713115745 20.3322024374626,-44.79631713115745
c 19.625858374885297,0 36.08300123202815,45.71760517658026 19.625858374885297,55.83419310826788
c -16.457142857142856,31.200000000000003 57.599999999999994,19.2 117.51699876797184,3.4201548722856927 c 71.75320092888518,0.0 131.45551603275135,-12.0 112.25551603275136,32.18739154184463
c -16.457142857142856,21.01961799026459 0,40.47959986246511 24.88734111010578,40.47959986246511
c 42.0479372458764,0 58.50508010301925,-57.734308164496305 42.0479372458764,-57.55828827237797
c -16.457142857142856,-31.200000000000003 57.599999999999994,-19.2 95.09491989698074,-15.108703131931769 c 72.88235177882493,0.0 124.77993080122836,-12.0 105.57993080122836,13.028144336218341
c -16.457142857142856,40.93858033266912 0,60.07610415817941 31.56292634162878,60.07610415817941
c 20.650997320352843,0 37.1081401774957,-25.48365984453633 20.650997320352843,-47.97966862612745
c -16.457142857142856,-31.200000000000003 57.599999999999994,-19.2 116.4918598225043,-25.124579868270303 L 1920 0 " fill="none" stroke="black" stroke-width="0.1" style="vector-effect:non-scaling-stroke;"/></g></g></svg>