<svg baseProfile="full" height="2176" preserveAspectRatio="none" shape-rendering="geometricPrecision" version="1.1" viewBox="0,0,3264,2176" width="3264" xmlns="http://www.w3.org/2000/svg" xmlns:ev="http://www.w3.org/2001/xml-events" xmlns:xlink="http://www.w3.org/1999/xlink"><title>Jigsaw puzzle piece clips</title><desc>Created with the piecemaker. Piece count: 48</desc><defs /><g><g><rect fill="white" height="2176" width="3264" x="0" y="0" /></g></g><g><g><path d="M 0 0  L 408.000000 0  c 0.0,80.1168888515263 -20.400000000000002,169.91719983228927 53.996541204249986,144.5305331656226&#10;c 39.10775944500643,-21.76 50.213383562068906,0 50.213383562068906,36.80280016771076&#10;c 0,51.18364337558302 -14.162870488662739,72.94364337558302 -43.77388661381827,51.18364337558302&#10;c -53.04,-21.76 -32.64,76.16 -60.43603815250062,130.14968995775033 c 0.0,26.29415664920904 -20.400000000000002,166.9109765094604 86.10985191042647,141.52430984279374&#10;c 9.292901890076879,-21.76 11.819541502013436,0 11.819541502013436,39.8090234905396&#10;c 0,53.891503004774336 -29.839359217032396,75.65150300477434 -69.71007606555072,53.891503004774336&#10;c -53.04,-21.76 -32.64,76.16 -28.219317346889184,127.441830328559 c -0.0,32.04550328779089 20.400000000000002,150.68886645282333 -88.38125035136086,125.30219978615665&#10;c -19.964479744893136,-21.76 -31.059851174051985,0 -31.059851174051985,56.031133547176694&#10;c 0,57.72205501964365 26.507663118067104,79.48205501964365 41.79453002878553,57.72205501964365&#10;c 53.04,-21.76 32.64,76.16 77.64657149662732,123.6112783136897 c -0.0,90.4310241089713 20.400000000000002,174.9903712142446 -56.51999982001402,149.6037045475779&#10;c -14.45004742356029,-21.76 -52.890419551593084,0 -52.890419551593084,31.729628785755438&#10;c 0,56.06521004997043 62.85900148082356,77.82521004997044 84.93084308060509,56.06521004997043&#10;c 53.04,-21.76 32.64,76.16 24.47957629100202,125.26812328336291 c 0.0,58.21866175378267 -20.400000000000002,169.28515287620456 20.29321966247922,143.8984862095379&#10;c 70.99225427259034,-21.76 88.9802988573824,0 88.9802988573824,37.434847123795436&#10;c 0,33.1647732502542 -66.08692915188935,54.924773250254205 -101.30551093843924,33.1647732502542&#10;c -53.04,-21.76 -32.64,76.16 -7.96800758142237,148.16856008307914 c -0.0,45.0887850458732 20.400000000000002,152.46383292557914 -68.5775295069874,127.07716625891248&#10;c -27.28375575188253,-21.76 -42.14668356842881,0 -42.14668356842881,54.25616707442086&#10;c 0,26.606408917078852 44.120266231785884,48.36640891707886 55.29958928157191,26.606408917078852&#10;c 53.04,-21.76 32.64,76.16 55.424623793844304,154.7269244162545 L 0 2176 " fill="none" stroke="black" stroke-width="0.1" style="vector-effect:non-scaling-stroke;" /></g><g><path d="M 0 0  L 816.000000 0  c -0.0,50.559083827390516 20.400000000000002,151.35231882719052 -18.33495786498145,125.96565216052383&#10;c -89.08538422655928,-21.76 -101.93009193572607,0 -101.93009193572607,55.36768117280951&#10;c 0,32.593603379288936 93.50152126658813,54.35360337928894 95.7968605732586,32.593603379288936&#10;c 53.04,-21.76 32.64,76.16 24.468189227448917,148.7397299540444 c 0.0,82.21257353573849 -20.400000000000002,175.83479289961394 81.31475210960026,150.4481262329473&#10;c 13.965961711091095,-21.76 37.51311586008329,0 37.51311586008329,30.885207100386054&#10;c 0,46.35755886145202 -10.561520723027314,68.11755886145203 -29.932888624652534,46.35755886145202&#10;c -53.04,-21.76 -32.64,76.16 -88.89497934503102,134.97577447188132 c 0.0,70.77455149144632 -20.400000000000002,174.81393417387181 41.313540962267936,149.42726750720516&#10;c 39.20344670713034,-21.76 79.74623308116512,0 79.74623308116512,31.906065826128184&#10;c 0,48.556389753909315 -36.387958196629235,70.31638975390932 -47.75321572075998,48.556389753909315&#10;c -53.04,-21.76 -32.64,76.16 -73.30655832267307,132.77694357942403 c -0.0,52.75197990009017 20.400000000000002,180.90106918965745 -58.73653337224612,155.51440252299076&#10;c -38.01716140996695,-21.76 -44.09421766886461,0 -44.09421766886461,25.81893081034258&#10;c 0,40.120351486095075 95.59020528687412,61.88035148609508 103.82394855264052,40.120351486095075&#10;c 53.04,-21.76 32.64,76.16 -0.993197511529786,141.21298184723827 c 0.0,61.95948474773128 -20.400000000000002,150.87090553330876 74.10494880880515,125.4842388666421&#10;c 24.072262334209707,-21.76 35.63343074125599,0 35.63343074125599,55.84909446669124&#10;c 0,30.948450011815652 -54.79601404778612,52.70845001181566 -68.62264291463309,30.948450011815652&#10;c -53.04,-21.76 -32.64,76.16 -41.11573663542805,150.3848833215177 c 0.0,48.264830422248465 -20.400000000000002,156.55618054109397 62.10540968310916,131.16951387442728&#10;c 17.23817780165906,-21.76 64.5739383113754,0 64.5739383113754,50.16381945890606&#10;c 0,45.96944922788376 -23.287773095896622,67.72944922788376 -81.10732878161215,45.96944922788376&#10;c -53.04,-21.76 -32.64,76.16 -45.572019212872405,135.36388410544959 L 0 2176 " fill="none" stroke="black" stroke-width="0.1" style="vector-effect:non-scaling-stroke;" /></g><g><path d="M 0 0  L 1224.000000 0  c 0.0,31.76853586750027 -20.400000000000002,153.37255655424568 8.90657412472123,127.985889887579&#10;c 49.77173110137906,-21.76 107.85815150341324,0 107.85815150341324,53.34744344575434&#10;c 0,33.922585318530395 -82.69956454413972,55.6825853185304 -113.6096774565716,33.922585318530395&#10;c -53.04,-21.76 -32.64,76.16 -3.1550481715628678,147.41074801480295 c -0.0,87.35514799919645 20.400000000000002,157.05195587486475 -59.35619464057502,131.66528920819806&#10;c -11.703705563305315,-21.76 -39.83354484964497,0 -39.83354484964497,49.66804412513528&#10;c 0,56.54273710097152 82.73059302739041,78.30273710097153 90.1539199300532,56.54273710097152&#10;c 53.04,-21.76 32.64,76.16 9.035819560166786,124.79059623236182 c -0.0,91.96385689442631 20.400000000000002,148.88586529902864 -6.337096855899468,123.49919863236195&#10;c -39.9678851285484,-21.76 -128.83548134008672,0 -128.83548134008672,57.83413470097139&#10;c 0,45.06558343442657 36.40494495281636,66.82558343442658 49.96268263552514,45.06558343442657&#10;c 53.04,-21.76 32.64,76.16 85.20989556046104,136.26774989890677 c -0.0,56.93744472521466 20.400000000000002,160.56131451601294 -60.142696919037746,135.1746478493463&#10;c -29.47245282084601,-21.76 -40.93327873975498,0 -40.93327873975498,46.15868548398706&#10;c 0,40.68189833378503 20.53717809384723,62.44189833378503 35.88045208700133,40.68189833378503&#10;c 53.04,-21.76 32.64,76.16 65.1955235717914,140.65143499954831 c 0.0,78.49819538797118 -20.400000000000002,157.0476796535665 41.82180700185058,131.66101298689983&#10;c 16.06478260901594,-21.76 57.90914980954566,0 57.90914980954566,49.67232034643351&#10;c 0,41.64815281090742 -80.85050021232246,63.408152810907424 -105.50287565580471,41.64815281090742&#10;c -53.04,-21.76 -32.64,76.16 5.771918844408475,139.68518052242592 c 0.0,59.384654822411804 -20.400000000000002,173.46998363977445 84.33107473528486,148.0833169731078&#10;c 11.826895576924269,-21.76 48.251028981359525,0 48.251028981359525,33.250016360225544&#10;c 0,34.414886985062594 -33.55831907031389,56.1748869850626 -95.43237469102118,34.414886985062594&#10;c -53.04,-21.76 -32.64,76.16 -37.1497290256232,146.91844634827075 L 0 2176 " fill="none" stroke="black" stroke-width="0.1" style="vector-effect:non-scaling-stroke;" /></g><g><path d="M 0 0  L 1632.000000 0  c 0.0,90.24522878115668 -20.400000000000002,159.6331979334587 15.193710596969664,134.246531266792&#10;c 24.1690952284973,-21.76 84.59370272978633,0 84.59370272978633,47.08680206654134&#10;c 0,27.55500570382995 -5.9882364085974435,49.315005703829954 -28.490560780932398,27.55500570382995&#10;c -53.04,-21.76 -32.64,76.16 -71.2968525458236,153.7783276295034 c -0.0,76.65489211469337 20.400000000000002,178.17579193846126 -45.67177234216443,152.78912527179457&#10;c -42.346406171886905,-21.76 -77.82769087309566,0 -77.82769087309566,28.544208061538768&#10;c 0,25.896717134097145 70.79701477652117,47.65671713409715 77.23781926768562,25.896717134097145&#10;c 53.04,-21.76 32.64,76.16 46.26164394757447,155.4366161992362 c 0.0,56.59843714898149 -20.400000000000002,153.81404370248913 20.40910866936853,128.42737703582245&#10;c 24.50172166768993,-21.76 97.48926994357797,0 97.48926994357797,52.9059562975109&#10;c 0,28.01045324879513 -54.41433366232169,49.770453248795135 -89.9120195385598,28.01045324879513&#10;c -53.04,-21.76 -32.64,76.16 -27.986359074386684,153.3228800845382 c 0.0,83.23131915660304 -20.400000000000002,177.86312907065877 -0.2976334574655979,152.47646240399212&#10;c 31.312449586915573,-21.76 102.64344124947733,0 102.64344124947733,28.856870929341227&#10;c 0,43.97577303779522 -76.24693249457833,65.73577303779523 -80.50025211281232,43.97577303779522&#10;c -53.04,-21.76 -32.64,76.16 -21.84555567919942,137.35756029553812 c 0.0,63.884371556333456 -20.400000000000002,153.72104728321995 25.69043265385319,128.3343806165533&#10;c 73.54914736061168,-21.76 76.31531668159748,0 76.31531668159748,52.99895271678005&#10;c 0,44.54474223571708 -33.09413003203213,66.30474223571709 -42.952578195283486,44.54474223571708&#10;c -53.04,-21.76 -32.64,76.16 -59.05317114016719,136.78859109761626 c 0.0,59.29795790471436 -20.400000000000002,155.9248991100174 81.04984398281232,130.53823244335075&#10;c 8.476230531099613,-21.76 37.08521425054188,0 37.08521425054188,50.79510088998259&#10;c 0,34.532972034462006 -58.523589432320016,56.29297203446201 -125.61076420939702,34.532972034462006&#10;c -53.04,-21.76 -32.64,76.16 7.475705976042818,146.80036129887134 L 0 2176 " fill="none" stroke="black" stroke-width="0.1" style="vector-effect:non-scaling-stroke;" /></g><g><path d="M 0 0  L 2040.000000 0  c -0.0,75.22485111940826 20.400000000000002,176.72311206842755 -29.239335878085274,151.33644540176087&#10;c -15.953180057620443,-21.76 -69.19598340709354,0 -69.19598340709354,29.996887931572473&#10;c 0,27.642379008976064 56.27859219664933,49.40237900897607 105.354660212406,27.642379008976064&#10;c 53.04,-21.76 32.64,76.16 -6.919340927227196,153.69095432435728 c 0.0,78.66629208716512 -20.400000000000002,172.39205279685433 66.48138798126345,147.00538613018767&#10;c 31.417897426608747,-21.76 61.37388727742821,0 61.37388727742821,34.32794720314567&#10;c 0,31.333984501605215 -51.831289233301135,53.09398450160522 -118.67836797200557,31.333984501605215&#10;c -53.04,-21.76 -32.64,76.16 -9.176907286686088,149.99934883172813 c 0.0,75.3370816467853 -20.400000000000002,171.0868392342624 0.6499006607406307,145.70017256759573&#10;c 100.89120488366996,-21.76 123.62576914054965,0 123.62576914054965,35.633160765737614&#10;c 0,35.78010638864899 -45.06733406827415,57.540106388648994 -99.61469059212345,35.78010638864899&#10;c -53.04,-21.76 -32.64,76.16 -24.660979209166825,145.55322694468435 c 0.0,91.29959307639334 -20.400000000000002,168.0714438936484 60.90200385109726,142.6847772269817&#10;c 50.043139320998385,-21.76 60.725438244322575,0 60.725438244322575,38.648556106351634&#10;c 0,51.546853730034655 -40.99281182995537,73.30685373003466 -63.56215369237773,51.546853730034655&#10;c -53.04,-21.76 -32.64,76.16 -58.06528840304211,129.7864796032987 c -0.0,76.35096054322244 20.400000000000002,171.85256217880482 -82.31858842249382,146.46589551213813&#10;c -34.356286988088485,-21.76 -43.36247934128609,0 -43.36247934128609,34.86743782119521&#10;c 0,38.07938434254905 34.7933301711599,59.83938434254905 54.30501160118236,38.07938434254905&#10;c 53.04,-21.76 32.64,76.16 71.37605616259755,143.2539489907843 c -0.0,99.20995106483021 20.400000000000002,175.40727660235774 -18.6420034120386,150.02060993569106&#10;c -78.59969667251092,-21.76 -84.83763338744303,0 -84.83763338744303,31.312723397642287&#10;c 0,50.660446427604995 39.43892311461347,72.420446427605 110.69434463023858,50.660446427604995&#10;c 53.04,-21.76 32.64,76.16 -7.214707830756936,130.67288690572835 L 0 2176 " fill="none" stroke="black" stroke-width="0.1" style="vector-effect:non-scaling-stroke;" /></g><g><path d="M 0 0  L 2448.000000 0  c 0.0,86.51982904030497 -20.400000000000002,167.52688175290496 82.53930520725231,142.14021508623827&#10;c 12.312939135245927,-21.76 31.08965475293894,0 31.08965475293894,39.19311824709507&#10;c 0,30.032578244217945 -28.79428726054204,51.79257824421795 -30.82610906799664,30.032578244217945&#10;c -53.04,-21.76 -32.64,76.16 -82.80285089219461,151.3007550891154 c -0.0,37.74851482884767 20.400000000000002,179.04332742960423 -53.20500803853741,153.65666076293755&#10;c -41.833799864807034,-21.76 -48.4201289000979,0 -48.4201289000979,27.676672570395795&#10;c 0,44.761964125352335 2.8008132687988083,66.52196412535234 12.482464602877727,44.761964125352335&#10;c 53.04,-21.76 32.64,76.16 89.14267233575758,136.571369207981 c -0.0,39.913775467889664 20.400000000000002,170.5046662789083 -17.281600707116976,145.11799961224162&#10;c -71.06351438492558,-21.76 -93.392587201122,0 -93.392587201122,36.215333721091724&#10;c 0,42.35625345882721 49.93468634962607,64.11625345882722 52.26708401232952,42.35625345882721&#10;c 53.04,-21.76 32.64,76.16 58.40710389590946,138.97707987450613 c 0.0,100.47278222233491 -20.400000000000002,159.85504434636124 56.86081428725586,134.46837767969458&#10;c 71.23338579987782,-21.76 76.77246367634436,0 76.77246367634436,46.86495565363876&#10;c 0,47.45485028731261 -42.27650387155306,69.21485028731261 -88.5113247561698,47.45485028731261&#10;c -53.04,-21.76 -32.64,76.16 -45.12195320743042,133.87848304602073 c 0.0,86.2790698200349 -20.400000000000002,180.69930986386618 53.863358007937016,155.31264319719952&#10;c 31.824512259679704,-21.76 60.396324788304234,0 60.396324788304234,26.020690136133823&#10;c 0,29.353962720178686 -67.13161799100482,51.11396272017869 -119.89622647207145,29.353962720178686&#10;c -53.04,-21.76 -32.64,76.16 5.636543675830197,151.97937061315466 c 0.0,84.09836479002348 -20.400000000000002,178.71056307122643 13.162083363601926,153.32389640455978&#10;c 50.66181562810397,-21.76 84.92378412228587,0 84.92378412228587,28.009436928773567&#10;c 0,34.27506312210451 -46.74148914738598,56.03506312210452 -71.14343146221556,34.27506312210451&#10;c -53.04,-21.76 -32.64,76.16 -26.94243602367223,147.05827021122883 L 0 2176 " fill="none" stroke="black" stroke-width="0.1" style="vector-effect:non-scaling-stroke;" /></g><g><path d="M 0 0  L 2856.000000 0  c -0.0,98.79122539438524 20.400000000000002,170.64168776166753 -13.349536067363909,145.25502109500084&#10;c -44.121386713175426,-21.76 -111.2746639924269,0 -111.2746639924269,36.0783122383325&#10;c 0,25.473201684625508 23.711025575981328,47.23320168462551 80.35360269238507,25.473201684625508&#10;c 53.04,-21.76 32.64,76.16 44.27059736740574,155.86013164870783 c -0.0,77.94219404564313 20.400000000000002,151.51078735274592 -50.59275149808113,126.12412068607925&#10;c -22.800757294127337,-21.76 -64.99248569191943,0 -64.99248569191943,55.20921264725409&#10;c 0,41.3134293435441 100.02303308318024,63.073429343544106 118.5371741009168,41.3134293435441&#10;c 53.04,-21.76 32.64,76.16 -2.9519369109162454,140.01990398978924 c -0.0,84.21616434125357 20.400000000000002,177.7562016541873 -8.463108107187496,152.3695349875206&#10;c -27.592220606144675,-21.76 -115.00449998387117,0 -115.00449998387117,28.963798345812734&#10;c 0,51.40326083941798 38.14497034249184,73.16326083941799 67.45770025488059,51.40326083941798&#10;c 53.04,-21.76 32.64,76.16 56.00990783617807,129.93007249391536 c 0.0,66.80211457486047 -20.400000000000002,152.01609847600054 18.778856021914578,126.62943180933385&#10;c 53.919832468231164,-21.76 85.24111264825663,0 85.24111264825663,54.70390152399949&#10;c 0,56.74817684461644 -4.649468331250824,78.50817684461644 -18.5462754615224,56.74817684461644&#10;c -53.04,-21.76 -32.64,76.16 -85.47369320864881,124.5851564887169 c 0.0,50.27126410878816 -20.400000000000002,159.858659965946 54.40414219548813,134.47199329927935&#10;c 20.97657607559653,-21.76 60.9334416968561,0 60.9334416968561,46.861340034053995&#10;c 0,27.722051969617155 -78.2506833290646,49.48205196961716 -109.99403368058036,27.722051969617155&#10;c -53.04,-21.76 -32.64,76.16 -5.343550211763869,153.6112813637162 c 0.0,35.09504422426409 -20.400000000000002,163.06679832423112 88.97023134031677,137.68013165756446&#10;c 10.523265171874167,-21.76 19.39609840195017,0 19.39609840195017,43.653201675768884&#10;c 0,51.54687856908504 -35.773569312744165,73.30687856908504 -90.66001702262484,51.54687856908504&#10;c -53.04,-21.76 -32.64,76.16 -17.7063127196421,129.7864547642483 L 0 2176 " fill="none" stroke="black" stroke-width="0.1" style="vector-effect:non-scaling-stroke;" /></g></g><g><g><path d="M 0 0  L 0 362.666667  c 29.008461701852895,0.0 181.75859074827457,-18.133333333333336 153.19859074827457,40.75501734897487&#10;c -24.48,27.781488230833414 0,47.74595595828867 50.80140925172543,47.74595595828867&#10;c 32.17310034874944,0 56.65310034874945,-11.156399086324154 32.17310034874944,-46.700976146389&#10;c -24.48,-47.14666666666667 85.67999999999999,-29.013333333333335 171.82689965125056,-41.79999716087453 c 28.182078954687157,0.0 194.20643664334642,-18.133333333333336 165.64643664334642,71.96476196052306&#10;c -24.48,21.519598649790286 0,37.19016867118509 38.35356335665358,37.19016867118509&#10;c 63.012352243740054,0 87.49235224374006,-9.616436548803904 63.012352243740054,-35.39071432479615&#10;c -24.48,-47.14666666666667 85.67999999999999,-29.013333333333335 140.98764775625995,-73.764216306912 c 77.49619257173572,-0.0 194.75856597613821,18.133333333333336 166.1985659761382,-13.007726904281993&#10;c -24.48,-39.756921796986 0,-76.48021904322084 37.80143402386179,-76.48021904322084&#10;c 60.844795185341184,0 85.32479518534119,15.420017650609571 60.844795185341184,41.682608534982656&#10;c -24.48,47.14666666666667 85.67999999999999,29.013333333333335 143.15520481465882,47.80533741252018 c 65.66642431109233,0.0 196.92724963922487,-18.133333333333336 168.36724963922487,2.1743020545808256&#10;c -24.48,58.06133643771007 0,91.19625039231094 35.632750360775134,91.19625039231094&#10;c 42.13372393522991,0 66.61372393522991,-94.44711327027015 42.13372393522991,-99.50236375370639&#10;c -24.48,-47.14666666666667 85.67999999999999,-29.013333333333335 161.8662760647701,6.131811306814626 c 43.97560769629427,0.0 171.99106944649128,-18.133333333333336 143.43106944649128,33.93050528332742&#10;c -24.48,56.085066433714566 0,76.21032601014474 60.56893055350872,76.21032601014474&#10;c 37.0779800104994,0 61.557980010499406,-9.30598838717 37.0779800104994,-32.945607339664136&#10;c -24.48,-47.14666666666667 85.67999999999999,-29.013333333333335 166.9220199895006,-77.19522395380802 c 35.643784551828595,0.0 180.2654056661488,-18.133333333333336 151.7054056661488,31.335915156886&#10;c -24.48,40.80148031790522 0,76.39625905319049 52.294594333851194,76.39625905319049&#10;c 32.1030895548833,0 56.5830895548833,-21.506019827387014 32.1030895548833,-72.09901734040906&#10;c -24.48,-47.14666666666667 85.67999999999999,-29.013333333333335 171.8969104451167,-35.63315686966743 c 73.64916735580265,0.0 174.7749251233006,-18.133333333333336 146.2149251233006,8.612513860528392&#10;c -24.48,27.41903999009154 0,96.49906966980814 57.78507487669941,96.49906966980814&#10;c 35.57572552464603,0 60.055725524646036,-15.53897134596728 35.57572552464603,-39.49045014920847&#10;c -24.48,-47.14666666666667 85.67999999999999,-29.013333333333335 168.42427447535397,-65.62113338112806 c 109.54694539605839,0.0 195.05066025434343,-18.133333333333336 166.49066025434342,28.478415680629134&#10;c -24.48,35.85726646345156 0,83.00215715252583 37.509339745656575,83.00215715252583&#10;c 57.908886644744655,0 82.38888664474466,-18.1610899921217 57.908886644744655,-58.303773447861296&#10;c -24.48,-47.14666666666667 85.67999999999999,-29.013333333333335 146.09111335525535,-53.176799385293656 L 3264 0 " fill="none" stroke="black" stroke-width="0.1" style="vector-effect:non-scaling-stroke;" /></g><g><path d="M 0 0  L 0 725.333333  c 65.27074603392697,0.0 202.19035533292404,-18.133333333333336 173.63035533292404,62.79453471326526&#10;c -24.48,13.49732919842649 0,57.029642460398456 30.36964466707596,57.029642460398456&#10;c 57.546102004917714,0 82.02610200491772,-35.395110147187275 57.546102004917714,-49.0974440819779&#10;c -24.48,-47.14666666666667 85.67999999999999,-29.013333333333335 146.4538979950823,-70.72673309168582 c 29.646000423451273,-0.0 187.46946654032266,18.133333333333336 158.90946654032265,-55.29671927668096&#10;c -24.48,-25.04195480473098 0,-54.19252422540285 45.090533459677346,-54.19252422540285&#10;c 40.00558656822926,0 64.48558656822927,37.29102419599729 40.00558656822926,45.317679473185905&#10;c -24.48,47.14666666666667 85.67999999999999,29.013333333333335 163.99441343177074,64.1715640288979 c 114.24521623825908,0.0 172.1288411019381,-18.133333333333336 143.5688411019381,14.276835911519523&#10;c -24.48,52.35806684659591 0,86.96428376964897 60.43115889806191,86.96428376964897&#10;c 62.769758504319725,0 87.24975850431973,-49.03772777638363 62.769758504319725,-63.48305662024266&#10;c -24.48,-47.14666666666667 85.67999999999999,-29.013333333333335 141.23024149568027,-37.75806306092584 c 96.63152080785942,0.0 192.9858137499185,-18.133333333333336 164.4258137499185,9.730594236319384&#10;c -24.48,46.38038489767705 0,77.45741218052379 39.57418625008151,77.45741218052379&#10;c 48.17787524663632,0 72.65787524663632,-9.934834880454689 48.17787524663632,-36.692855870895&#10;c -24.48,-47.14666666666667 85.67999999999999,-29.013333333333335 155.82212475336368,-50.495150545948164 c 115.57654656154232,0.0 200.627200819192,-18.133333333333336 172.067200819192,6.8642569793118895&#10;c -24.48,84.57380445906233 0,88.08019507685277 31.93279918080799,88.08019507685277&#10;c 47.5893879748032,0 72.0693879748032,-11.868952491510084 47.5893879748032,-39.68133644081073&#10;c -24.48,-47.14666666666667 85.67999999999999,-29.013333333333335 156.4106120251968,-55.26311561535393 c 21.57899547222174,0.0 202.78908087264796,-18.133333333333336 174.22908087264796,29.42067326936961&#10;c -24.48,35.28469547294121 0,65.16654777479476 29.770919127352045,65.16654777479476&#10;c 41.501131245905924,0 65.98113124590593,-34.509290079631555 41.501131245905924,-53.010085661683&#10;c -24.48,-47.14666666666667 85.67999999999999,-29.013333333333335 162.49886875409408,-41.57713538248138 c 30.57083307925658,-0.0 172.65302107566364,18.133333333333336 144.09302107566364,-52.08227443556299&#10;c -24.48,-65.24757041567884 0,-65.39654263875443 59.90697892433636,-65.39654263875443&#10;c 56.95836323027811,0 81.43836323027811,8.951083466483993 56.95836323027811,40.35967503688401&#10;c -24.48,47.14666666666667 85.67999999999999,29.013333333333335 147.0416367697219,77.1191420374334 c 60.72772169042565,-0.0 199.93347052824797,18.133333333333336 171.37347052824796,-50.388458625915185&#10;c -24.48,-36.58232220827544 0,-54.46231459409697 32.626529471752036,-54.46231459409697&#10;c 63.35151710308901,0 87.83151710308901,60.593859167458355 63.35151710308901,66.59908236338315&#10;c -24.48,47.14666666666667 85.67999999999999,29.013333333333335 140.648482896911,38.25169085662901 L 3264 0 " fill="none" stroke="black" stroke-width="0.1" style="vector-effect:non-scaling-stroke;" /></g><g><path d="M 0 0  L 0 1088.000000  c 78.36576498967469,-0.0 183.31990990332775,18.133333333333336 154.75990990332775,-17.160408855294897&#10;c -24.48,-83.56795959373184 0,-104.78815719234751 49.24009009667225,-104.78815719234751&#10;c 48.49944626912611,0 72.97944626912611,103.16638347705008 48.49944626912611,122.43125579085918&#10;c -24.48,47.14666666666667 85.67999999999999,29.013333333333335 155.5005537308739,-0.48268974321678115 c 83.4242045055992,-0.0 188.64284801959244,18.133333333333336 160.08284801959243,-78.78632126038931&#10;c -24.48,-14.07314502395518 0,-22.731165515551524 43.91715198040757,-22.731165515551524&#10;c 61.20600980258291,0 85.68600980258292,22.958492567207244 61.20600980258291,61.63524784990306&#10;c -24.48,47.14666666666667 85.67999999999999,29.013333333333335 142.7939901974171,39.88223892603778 c 106.34941864837552,-0.0 196.8719741912714,18.133333333333336 168.3119741912714,-44.84365262156569&#10;c -24.48,-42.32786184370736 0,-42.766953593793126 35.68802580872861,-42.766953593793126&#10;c 41.020626522057796,0 65.5006265220578,26.203303439925328 41.020626522057796,67.97230190342442&#10;c -24.48,47.14666666666667 85.67999999999999,29.013333333333335 162.9793734779422,19.63830431193439 c 62.882857627257664,-0.0 187.61991877435236,18.133333333333336 159.05991877435235,-53.63002636201117&#10;c -24.48,-30.360003881177786 0,-50.24568496665979 44.940081225647646,-50.24568496665979&#10;c 56.49725145174932,0 80.97725145174932,32.3470240408023 56.49725145174932,39.96326613290433&#10;c -24.48,47.14666666666667 85.67999999999999,29.013333333333335 147.50274854825068,63.91244519576663 c 42.18028374904684,-0.0 200.6048623454992,18.133333333333336 172.0448623454992,-9.653794624445247&#10;c -24.48,-49.71527215146559 0,-113.0345114846892 31.95513765450079,-113.0345114846892&#10;c 64.26230348734282,0 88.74230348734282,51.08906308749476 64.26230348734282,126.51828724005854&#10;c -24.48,47.14666666666667 85.67999999999999,29.013333333333335 139.73769651265718,-3.8299811309240823 c 91.48856692429085,0.0 203.23276858690753,-18.133333333333336 174.67276858690752,49.99395906753564&#10;c -24.48,20.723941534971168 0,42.18110330185044 29.327231413092477,42.18110330185044&#10;c 32.94763349572008,0 57.42763349572009,-74.69242173494828 32.94763349572008,-90.31927620367794&#10;c -24.48,-47.14666666666667 85.67999999999999,-29.013333333333335 171.05236650427992,-1.855786165708139 c 102.01876335327043,-0.0 175.71559184731015,18.133333333333336 147.15559184731015,-4.463526178679414&#10;c -24.48,-44.23048967363501 0,-101.85067748446298 56.84440815268985,-101.85067748446298&#10;c 58.265241212972626,0 82.74524121297263,25.877819445603617 58.265241212972626,111.5957384567209&#10;c -24.48,47.14666666666667 85.67999999999999,29.013333333333335 145.73475878702737,-5.281534793578501 c 23.03574909388803,0.0 189.20748429280926,-18.133333333333336 160.64748429280925,10.616523325760646&#10;c -24.48,48.683203203710534 0,78.75544508965646 43.35251570719075,78.75544508965646&#10;c 33.68230709366142,0 58.162307093661425,-41.372180151710445 33.68230709366142,-50.97059396185034&#10;c -24.48,-47.14666666666667 85.67999999999999,-29.013333333333335 170.31769290633858,-38.401374453566774 L 3264 0 " fill="none" stroke="black" stroke-width="0.1" style="vector-effect:non-scaling-stroke;" /></g><g><path d="M 0 0  L 0 1450.666667  c 102.96024314417717,-0.0 193.5526474413891,18.133333333333336 164.9926474413891,-18.144597514715866&#10;c -24.48,-81.19534537677826 0,-86.21935015072367 39.007352558610904,-86.21935015072367&#10;c 28.79955838386516,0 53.279558383865165,48.61340069565517 28.79955838386516,73.94959808806149&#10;c -24.48,47.14666666666667 85.67999999999999,29.013333333333335 175.20044161613484,30.414349577378047 c 100.85636607732303,-0.0 199.3662196906834,18.133333333333336 170.8062196906834,-22.773480711265425&#10;c -24.48,-57.68076255159334 0,-78.42586318462817 33.193780309316594,-78.42586318462817&#10;c 60.0355548477886,0 84.51555484778861,56.16441189501297 60.0355548477886,88.17022171029537&#10;c -24.48,47.14666666666667 85.67999999999999,29.013333333333335 143.9644451522114,13.029122185598226 c 104.09251376944101,-0.0 174.7339709222898,18.133333333333336 146.1739709222898,-9.917589256439722&#10;c -24.48,-38.082365305814584 0,-102.71978792120059 57.82602907771019,-102.71978792120059&#10;c 48.076931061179266,0 72.55693106117927,54.166929243775556 48.076931061179266,69.24339395614493&#10;c -24.48,47.14666666666667 85.67999999999999,29.013333333333335 155.92306893882073,43.39398322149539 c 67.30661243318865,-0.0 195.9868179440071,18.133333333333336 167.4268179440071,-76.91907257770083&#10;c -24.48,-17.576647077222567 0,-21.16831904693207 36.5731820559929,-21.16831904693207&#10;c 33.0846681427127,0 57.564668142712705,71.68454292447869 33.0846681427127,83.29257712734429&#10;c -24.48,47.14666666666667 85.67999999999999,29.013333333333335 170.9153318572873,14.794814497288613 c 78.64838014899256,0.0 183.59196345203813,-18.133333333333336 155.03196345203813,9.958254242157162&#10;c -24.48,110.47831580958565 0,111.46696718507297 48.96803654796187,111.46696718507297&#10;c 47.42597001223851,0 71.90597001223851,-37.30408631415862 47.42597001223851,-73.35931394656109&#10;c -24.48,-47.14666666666667 85.67999999999999,-29.013333333333335 156.5740299877615,-48.065907480669054 c 51.07191576654191,-0.0 183.93697795580584,18.133333333333336 155.37697795580584,-3.542479619195971&#10;c -24.48,-87.01533634564184 0,-101.18257208159899 48.62302204419416,-101.18257208159899&#10;c 52.23089346383625,0 76.71089346383626,20.378095172754843 52.23089346383625,64.25819321732347&#10;c -24.48,47.14666666666667 85.67999999999999,29.013333333333335 151.76910653616375,40.4668584834715 c 83.57899986706171,0.0 189.37955019700945,-18.133333333333336 160.81955019700945,-2.807538096078722&#10;c -24.48,85.7240763685684 0,104.94213917450031 43.18044980299055,104.94213917450031&#10;c 29.28851915213596,0 53.768519152135966,-33.84057152169334 29.28851915213596,-100.82664136913431&#10;c -24.48,-47.14666666666667 85.67999999999999,-29.013333333333335 174.71148084786404,-1.3079597092872888 c 88.59688022335621,0.0 173.55616599392258,-18.133333333333336 144.99616599392257,74.19249187063532&#10;c -24.48,16.023288339540404 0,37.835058079275015 59.003834006077426,37.835058079275015&#10;c 31.38455647671134,0 55.86455647671134,-32.63467101169299 31.38455647671134,-58.11200415108992&#10;c -24.48,-47.14666666666667 85.67999999999999,-29.013333333333335 172.61544352328866,-53.91554579882042 L 3264 0 " fill="none" stroke="black" stroke-width="0.1" style="vector-effect:non-scaling-stroke;" /></g><g><path d="M 0 0  L 0 1813.333333  c 37.49857500664029,0.0 172.72778883401728,-18.133333333333336 144.16778883401727,78.86125778676808&#10;c -24.48,33.94747472237316 0,34.21852514440836 59.83221116598273,34.21852514440836&#10;c 49.54734859817498,0 74.02734859817498,-21.660084988120737 49.54734859817498,-33.80104014227429&#10;c -24.48,-47.14666666666667 85.67999999999999,-29.013333333333335 154.45265140182502,-79.27874278890215 c 27.103345709263397,0.0 174.30699883611283,-18.133333333333336 145.74699883611282,-4.4604953599639705&#10;c -24.48,23.61715140607906 0,104.32484960907823 58.25300116388718,104.32484960907823&#10;c 48.97220534368233,0 73.45220534368234,-57.21539399954537 48.97220534368233,-100.34305688674004&#10;c -24.48,-47.14666666666667 85.67999999999999,-29.013333333333335 155.02779465631767,0.478702637625787 c 36.55512990799668,-0.0 184.39783410761632,18.133333333333336 155.83783410761632,-67.00526846437654&#10;c -24.48,-28.529826326389294 0,-49.86963061652412 48.16216589238368,-49.86963061652412&#10;c 48.53406186151852,0 73.01406186151853,45.52298881218635 48.53406186151852,46.01044588663328&#10;c -24.48,47.14666666666667 85.67999999999999,29.013333333333335 155.46593813848148,70.86445319426738 c 55.63078369189478,0.0 178.4306900984039,-18.133333333333336 149.87069009840388,54.556489538634935&#10;c -24.48,25.729283934326148 0,59.14558813699669 54.129309901596116,59.14558813699669&#10;c 46.7235020643152,0 71.2035020643152,-74.25497331947368 46.7235020643152,-104.26313069979061&#10;c -24.48,-47.14666666666667 85.67999999999999,-29.013333333333335 157.2764979356848,-9.43894697584102 c 78.37174669142435,0.0 173.87924018469053,-18.133333333333336 145.31924018469053,5.580679010539509&#10;c -24.48,34.28444911873645 0,93.99118410866858 58.68075981530947,93.99118410866858&#10;c 58.72841807563975,0 83.20841807563976,-28.850816288197866 58.72841807563975,-42.67837526518791&#10;c -24.48,-47.14666666666667 85.67999999999999,-29.013333333333335 145.27158192436025,-56.89348785402018 c 34.75532539537432,0.0 182.60327885379124,-18.133333333333336 154.04327885379124,42.36857369145736&#10;c -24.48,32.9660462808202 0,47.22285579851487 49.956721146208764,47.22285579851487&#10;c 57.99385134335523,0 82.47385134335524,-33.81556003264579 57.99385134335523,-33.56230902393013&#10;c -24.48,-47.14666666666667 85.67999999999999,-29.013333333333335 146.00614865664477,-56.029120466042095 c 44.675338398705684,-0.0 179.25788091474234,18.133333333333336 150.69788091474234,-25.062457102699025&#10;c -24.48,-19.580154779725234 0,-79.24208052324431 53.30211908525766,-79.24208052324431&#10;c 54.31013369940348,0 78.79013369940348,14.058094660876298 54.31013369940348,31.742216535073823&#10;c -24.48,47.14666666666667 85.67999999999999,29.013333333333335 149.68986630059652,72.56232109086952 c 43.94517451466182,-0.0 193.78333828641502,18.133333333333336 165.22333828641501,-3.3294910946593017&#10;c -24.48,-18.407142062637796 0,-85.33690825995053 38.776661713584986,-85.33690825995053&#10;c 51.537888057535866,0 76.01788805753587,6.949692546936126 51.537888057535866,15.29476844496402&#10;c -24.48,47.14666666666667 85.67999999999999,29.013333333333335 152.46211194246413,73.37163090964582 L 3264 0 " fill="none" stroke="black" stroke-width="0.1" style="vector-effect:non-scaling-stroke;" /></g></g></svg>