<svg baseProfile="full" height="3072" preserveAspectRatio="none" shape-rendering="geometricPrecision" version="1.1" viewBox="0,0,4608,3072" width="4608" xmlns="http://www.w3.org/2000/svg" xmlns:ev="http://www.w3.org/2001/xml-events" xmlns:xlink="http://www.w3.org/1999/xlink"><title>Jigsaw puzzle piece clips</title><desc>Created with the piecemaker. Piece count: 48</desc><defs/><g><g><rect fill="white" height="3072" width="4608" x="0" y="0"/></g></g><g><g><path d="M 0 0  L 576.000000 0  c 0.0,83.18584935941632 -28.8,233.22888598462376 100.39695427685092,197.38888598462376
c 36.83570543243228,-30.72 71.31418723073443,0 71.31418723073443,58.611114015376245
c 0,78.10309945479906 -58.516624615955344,108.82309945479906 -65.47394023201437,78.10309945479906
c -74.88,-30.72 -46.08,107.52 -106.23720127557098,177.89690054520094 c 0.0,74.76737330654778 -28.8,252.44659476848423 109.10206414251017,216.60659476848423
c 49.4223872197695,-30.72 52.790258249475315,0 52.790258249475315,39.39340523151577
c 0,62.864206375576885 -19.89735615146638,93.58420637557688 -40.65074787390732,62.864206375576885
c -74.88,-30.72 -46.08,107.52 -121.24157451807817,193.13579362442312 c 0.0,63.0658975140971 -28.8,211.3671149580985 67.9165824393781,175.5271149580985
c 78.28574508300063,-30.72 121.58944893516083,0 121.58944893516083,80.47288504190149
c 0,67.72007430229598 -113.73302392575526,98.44007430229598 -132.20871718191182,67.72007430229598
c -74.88,-30.72 -46.08,107.52 -57.29731419262711,188.27992569770402 c 0.0,72.55341722509428 -28.8,254.0489932923637 100.14826713015907,218.2089932923637
c 20.38653256324015,-30.72 47.87325362730661,0 47.87325362730661,37.79100670763631
c 0,58.276869273736736 -22.32130089435845,88.99686927373673 -37.693978216021335,58.276869273736736
c -74.88,-30.72 -46.08,107.52 -110.32754254144434,197.72313072626326 c -0.0,47.97432602592281 28.8,222.48892534637037 -116.25800923205645,186.64892534637036
c -31.445568516566492,-30.72 -42.92014885499631,0 -42.92014885499631,69.35107465362964
c 0,38.399379401349734 24.082995695895317,69.11937940134973 38.70615067129779,38.399379401349734
c 74.88,-30.72 46.08,107.52 120.47200741575497,217.60062059865027 c -0.0,132.60156344818068 28.8,218.64492561097273 -94.40229639637715,182.80492561097273
c -62.72917121131536,-30.72 -97.399132179557,0 -97.399132179557,73.19507438902727
c 0,46.553536448251066 68.42766997731155,77.27353644825106 98.56584050223144,46.553536448251066
c 74.88,-30.72 46.08,107.52 93.23558807370271,209.44646355174893 L 0 3072 " fill="none" stroke="black" stroke-width="0.1" style="vector-effect:non-scaling-stroke;"/></g><g><path d="M 0 0  L 1152.000000 0  c -0.0,44.61285726351294 28.8,210.28757560384713 -107.96906565623034,174.44757560384713
c -44.07752889525151,-30.72 -77.18726315740828,0 -77.18726315740828,81.55242439615287
c 0,69.21658646835925 93.65063210237746,99.93658646835925 110.96333925234744,69.21658646835925
c 74.88,-30.72 46.08,107.52 74.19298956129118,186.78341353164075 c -0.0,29.455061725389147 28.8,216.15461604249975 -42.524466413493315,180.31461604249975
c -34.997436730019615,-30.72 -137.08384350170525,0 -137.08384350170525,75.68538395750025
c 0,43.57871858040778 53.00533352617204,74.29871858040778 185.71609600933064,43.57871858040778
c 74.88,-30.72 46.08,107.52 -6.107786094132081,212.42128141959222 c -0.0,133.85737991734192 28.8,232.876034370427 -32.83666771022328,197.036034370427
c -111.85613240107789,-30.72 -113.79788867385258,0 -113.79788867385258,58.96396562957301
c 0,52.242540539000856 30.936333458159304,82.96254053900086 75.09398440139664,52.242540539000856
c 74.88,-30.72 46.08,107.52 71.54057198267923,203.75745946099914 c 0.0,102.0391630992201 -28.8,223.2300408432018 55.25199036188322,187.3900408432018
c 75.08272036542154,-30.72 121.70124167631587,0 121.70124167631587,68.6099591567982
c 0,56.67921662549401 -83.31281479496997,87.399216625494 -120.47107988450821,56.67921662549401
c -74.88,-30.72 -46.08,107.52 -56.48215215369089,199.320783374506 c 0.0,111.94631723572459 -28.8,230.6656379069416 50.24211520888218,194.8256379069416
c 109.38500433671551,-30.72 108.49361734066369,0 108.49361734066369,61.17436209305839
c 0,45.458648111915636 -72.940788348728,76.17864811191563 -80.4395153352791,45.458648111915636
c -74.88,-30.72 -46.08,107.52 -78.29621721426678,210.54135188808436 c 0.0,74.26340826194793 -28.8,216.5500929715984 114.64379274135177,180.71009297159839
c 36.615033264141665,-30.72 52.524803771355835,0 52.524803771355835,75.28990702840161
c 0,81.06085902471983 -59.22814574875976,111.78085902471983 -131.45397713648958,81.06085902471983
c -74.88,-30.72 -46.08,107.52 -35.714619376218025,174.93914097528017 L 0 3072 " fill="none" stroke="black" stroke-width="0.1" style="vector-effect:non-scaling-stroke;"/></g><g><path d="M 0 0  L 1728.000000 0  c -0.0,145.86304705068227 28.8,246.9807609600111 -90.9011359260637,211.1407609600111
c -33.23185355641999,-30.72 -55.4867642922478,0 -55.4867642922478,44.85923903998889
c 0,75.82759447974894 122.15079921042411,106.54759447974894 141.72946991942698,75.82759447974894
c 74.88,-30.72 46.08,107.52 4.658430298884525,180.17240552025106 c -0.0,52.75782573615202 28.8,212.05291379413276 -46.76026766910743,176.21291379413276
c -90.59106174524581,-30.72 -100.21040359939374,0 -100.21040359939374,79.78708620586724
c 0,60.41099449895688 20.71480496398006,91.13099449895688 22.876804303327418,60.41099449895688
c 74.88,-30.72 46.08,107.52 124.09386696517376,195.58900550104312 c -0.0,62.60027734220005 28.8,222.932825155217 -19.124099498808793,187.09282515521699
c -73.39442985397658,-30.72 -155.98023922389328,0 -155.98023922389328,68.90717484478301
c 0,79.26913587757707 63.59108252515232,109.98913587757707 184.51347915327375,79.26913587757707
c 74.88,-30.72 46.08,107.52 -9.409140430571682,176.73086412242293 c 0.0,38.27844381667113 -28.8,240.69092462176513 46.594841660066706,204.85092462176513
c 34.280818986263604,-30.72 135.6823694203767,0 135.6823694203767,51.14907537823487
c 0,50.44442201782755 -67.22872108483107,81.16442201782755 -171.59810658829917,50.44442201782755
c -74.88,-30.72 -46.08,107.52 -10.679104492144234,205.55557798217245 c -0.0,76.30946513666413 28.8,222.08984667092088 -74.98684621220526,186.24984667092087
c -96.8982705137085,-30.72 -110.56521479387477,0 -110.56521479387477,69.75015332907913
c 0,36.444312792325945 74.58889806421274,67.16431279232594 88.47572407061969,36.444312792325945
c 74.88,-30.72 46.08,107.52 97.07633693546035,219.55568720767405 c 0.0,30.027016254349096 -28.8,245.57505526864784 39.65856050262095,209.73505526864784
c 59.20155884024157,-30.72 152.62916517801614,0 152.62916517801614,46.26494473135216
c 0,60.451649717820715 -80.88153202481169,91.17164971782071 -88.31050837922763,60.451649717820715
c -74.88,-30.72 -46.08,107.52 -103.97721730140947,195.54835028217929 L 0 3072 " fill="none" stroke="black" stroke-width="0.1" style="vector-effect:non-scaling-stroke;"/></g><g><path d="M 0 0  L 2304.000000 0  c 0.0,118.16381810193695 -28.8,232.02536870597416 101.08631780822415,196.18536870597416
c 61.377459805492066,-30.72 81.27053134710192,0 81.27053134710192,59.814631294025844
c 0,71.87533309464357 -37.601487414098465,102.59533309464356 -62.35670219703937,71.87533309464357
c -74.88,-30.72 -46.08,107.52 -120.0001469582867,184.12466690535643 c 0.0,52.838485229378136 -28.8,221.34457777705748 113.59809233966163,185.50457777705748
c 10.320595429264731,-30.72 27.3916167013937,0 27.3916167013937,70.49542222294252
c 0,41.93884416819935 -19.793579518418504,72.65884416819935 -61.10812940761541,41.93884416819935
c -74.88,-30.72 -46.08,107.52 -79.88157963343993,214.06115583180065 c 0.0,96.32801136820592 -28.8,225.3289444148424 115.77584488160922,189.4889444148424
c 21.279661279666644,-30.72 31.698253715819718,0 31.698253715819718,66.5110555851576
c 0,54.10890361766059 -40.48876858715423,84.82890361766059 -123.22157214591314,54.10890361766059
c -74.88,-30.72 -46.08,107.52 -24.25252645151579,201.8910963823394 c -0.0,129.89108584346428 28.8,240.50504345128766 -116.62564208702344,204.66504345128766
c -72.32863298477253,-30.72 -77.1150302002469,0 -77.1150302002469,51.33495654871234
c 0,62.43697362394414 67.47228539262737,93.15697362394414 74.40275945764147,62.43697362394414
c 74.88,-30.72 46.08,107.52 119.33791282962888,193.56302637605586 c -0.0,95.11234736605292 28.8,220.12272674214532 -56.53357242451461,184.28272674214531
c -31.168896353309425,-30.72 -115.35769368769095,0 -115.35769368769095,71.71727325785469
c 0,58.86899697995045 49.87160569534578,89.58899697995045 56.24860735357075,58.86899697995045
c 74.88,-30.72 46.08,107.52 115.64265875863481,197.13100302004955 c -0.0,114.88577905060265 28.8,230.20442185191703 -9.464934604566047,194.36442185191703
c -159.00866993433084,-30.72 -184.12425025652107,0 -184.12425025652107,61.63557814808297
c 0,55.07169232458443 61.40842869387287,85.79169232458443 105.45898982523626,55.07169232458443
c 74.88,-30.72 46.08,107.52 88.13019503585086,200.92830767541557 L 0 3072 " fill="none" stroke="black" stroke-width="0.1" style="vector-effect:non-scaling-stroke;"/></g><g><path d="M 0 0  L 2880.000000 0  c 0.0,77.20285051282232 -28.8,211.52812217009404 -9.785328452996202,175.68812217009403
c 39.63189480619205,-30.72 168.016923144398,0 168.016923144398,80.31187782990597
c 0,72.40255089299006 -123.17351182829682,103.12255089299006 -167.55598910565834,72.40255089299006
c -74.88,-30.72 -46.08,107.52 9.324394414256545,183.59744910700994 c 0.0,120.50240913201358 -28.8,236.46198955853453 111.24091879876114,200.62198955853452
c 22.839788367333103,-30.72 81.39310047058918,0 81.39310047058918,55.37801044146548
c 0,51.217147330290516 -51.08596863723799,81.93714733029051 -109.24098315036497,51.217147330290516
c -74.88,-30.72 -46.08,107.52 -83.39303611898535,204.78285266970948 c -0.0,29.65234011474842 28.8,243.09243733344593 3.4537192135928647,207.25243733344593
c -172.61316625566076,-30.72 -183.0518432775914,0 -183.0518432775914,48.747562666554074
c 0,41.25188306934945 48.11064785418738,71.97188306934945 107.19873776621105,41.25188306934945
c 74.88,-30.72 46.08,107.52 72.39938629778746,214.74811693065055 c 0.0,114.30542586603431 -28.8,222.7142897713871 109.89430798878136,186.87428977138708
c 24.985806057784366,-30.72 64.91979602360341,0 64.91979602360341,69.12571022861292
c 0,52.24188431422499 -80.96939322012815,82.96188431422499 -84.32435325723677,52.24188431422499
c -74.88,-30.72 -46.08,107.52 -90.48975075514801,203.758115685775 c -0.0,118.77964271507469 28.8,234.93103430305626 -72.41917170242728,199.09103430305626
c -58.97753076682562,-30.72 -66.96980275514754,0 -66.96980275514754,56.90896569694374
c 0,63.438708148169724 29.237304125051764,94.15870814816972 33.74805066981621,63.438708148169724
c 74.88,-30.72 46.08,107.52 105.64092378775861,192.56129185183028 c -0.0,126.88620515276983 28.8,212.22531495989347 11.279858503834241,176.38531495989346
c -130.5342426937259,-30.72 -157.9654652493698,0 -157.9654652493698,79.61468504010654
c 0,50.760887606325184 47.83092284633718,81.48088760632518 58.40662224982705,50.760887606325184
c 74.88,-30.72 46.08,107.52 88.2789844957085,205.23911239367482 L 0 3072 " fill="none" stroke="black" stroke-width="0.1" style="vector-effect:non-scaling-stroke;"/></g><g><path d="M 0 0  L 3456.000000 0  c -0.0,100.16249008730654 28.8,246.67010493225646 -60.86210802698295,210.83010493225646
c -57.144180344550605,-30.72 -112.57314165053313,0 -112.57314165053313,45.16989506774354
c 0,52.05586621381394 155.3900902966857,82.77586621381394 165.37934255268877,52.05586621381394
c 74.88,-30.72 46.08,107.52 8.055907124827314,203.94413378618606 c 0.0,111.82622461038974 -28.8,242.80138812370575 85.71860612214834,206.96138812370575
c 33.86757716019222,-30.72 59.80392689957429,0 59.80392689957429,49.038611876294254
c 0,80.74391165210193 -29.789486240098107,111.46391165210193 -126.71794445744428,80.74391165210193
c -74.88,-30.72 -46.08,107.52 -18.80458856427836,175.25608834789807 c -0.0,69.98041506016261 28.8,243.026552438332 -36.66970256317979,207.186552438332
c -83.44760992861136,-30.72 -122.44124961591052,0 -122.44124961591052,48.813447561668
c 0,37.09354528382852 137.73684871388087,67.81354528382852 137.72438332180465,37.09354528382852
c 74.88,-30.72 46.08,107.52 21.386568857285653,218.90645471617148 c -0.0,56.80324172543955 28.8,223.22046702996226 -70.51441177591204,187.38046702996226
c -24.16627244460195,-30.72 -97.33413627268723,0 -97.33413627268723,68.61953297003774
c 0,71.53883824191428 121.45319504150054,102.25883824191428 146.81815217757793,71.53883824191428
c 74.88,-30.72 46.08,107.52 21.03039587102134,184.46116175808572 c 0.0,88.60494477480901 -28.8,227.20055656554135 0.15122233983556077,191.36055656554134
c 67.88186576577831,-30.72 170.94688361923653,0 170.94688361923653,64.63944343445866
c 0,61.01016274530707 -132.62461036131262,91.73016274530707 -138.78669758055767,61.01016274530707
c -74.88,-30.72 -46.08,107.52 -32.311408378514415,194.98983725469293 c 0.0,137.00728235279118 -28.8,233.77196800025618 80.12201857617745,197.93196800025618
c 35.49423545975998,-30.72 91.76427646728914,0 91.76427646728914,58.06803199974382
c 0,58.646335147607715 -34.088168676572806,89.36633514760771 -83.97162891022808,58.646335147607715
c -74.88,-30.72 -46.08,107.52 -87.91466613323851,197.35366485239228 L 0 3072 " fill="none" stroke="black" stroke-width="0.1" style="vector-effect:non-scaling-stroke;"/></g><g><path d="M 0 0  L 4032.000000 0  c -0.0,70.37982295791008 28.8,236.07774585866466 -38.55765620097929,200.23774585866465
c -58.92139456117968,-30.72 -121.72917085087715,0 -121.72917085087715,55.76225414133535
c 0,43.090212241286565 66.66356598676991,73.81021224128656 169.40435451999105,43.090212241286565
c 74.88,-30.72 46.08,107.52 -9.117527468134597,212.90978775871343 c -0.0,44.170322770047456 28.8,237.9217798325418 -27.955380992704775,202.0817798325418
c -39.24899834052714,-30.72 -118.97581201657358,0 -118.97581201657358,53.9182201674582
c 0,54.71850933196214 91.70670503213923,85.43850933196214 109.80889699867869,54.71850933196214
c 74.88,-30.72 46.08,107.52 37.12229601059967,201.28149066803786 c 0.0,138.18751036125707 -28.8,237.0911377151156 18.834754925360787,201.2511377151156
c 111.27327671073391,-30.72 160.1019386250018,0 160.1019386250018,54.74886228488441
c 0,79.97845571248388 -115.55883201784896,110.69845571248388 -170.40201976330266,79.97845571248388
c -74.88,-30.72 -46.08,107.52 -8.534673787059916,176.02154428751612 c -0.0,34.37708068268785 28.8,254.85462107850537 -87.11922269794684,219.01462107850537
c -50.290803079239225,-30.72 -55.09093991064131,0 -55.09093991064131,36.98537892149463
c 0,76.92675811986544 26.781821127903168,107.64675811986544 110.8836829389833,76.92675811986544
c 74.88,-30.72 46.08,107.52 31.32647966960485,179.07324188013456 c 0.0,49.32744058199731 -28.8,241.2312426992387 63.26088426954277,205.3912426992387
c 80.92118155516611,-30.72 83.05378256627117,0 83.05378256627117,50.60875730076131
c 0,77.49879261501366 -103.900927383185,108.21879261501365 -115.52742747058213,77.49879261501366
c -74.88,-30.72 -46.08,107.52 -30.787239365231812,178.50120738498634 c 0.0,81.8786321565308 -28.8,248.96094351036527 47.618620129837694,213.12094351036527
c 118.82291828949036,-30.72 122.84598535478287,0 122.84598535478287,42.879056489634735
c 0,57.716605216119376 -58.29759303934605,88.43660521611937 -62.69778309477344,57.716605216119376
c -74.88,-30.72 -46.08,107.52 -107.76682238984712,198.28339478388062 L 0 3072 " fill="none" stroke="black" stroke-width="0.1" style="vector-effect:non-scaling-stroke;"/></g></g><g><g><path d="M 0 0  L 0 512.000000  c 100.72194321040438,-0.0 246.0033986948219,25.6 205.6833986948219,-28.05431623501734
c -34.56,-92.27316889066975 0,-126.1555541092602 82.3166013051781,-126.1555541092602
c 57.776735019718274,0 92.33673501971828,35.92257384433476 57.776735019718274,54.50455857276499
c -34.56,66.56 120.96,40.96 230.22326498028173,99.70531177151254 c 140.0616335804559,0.0 238.05893923231628,-25.6 197.73893923231626,24.33925540319779
c -34.56,41.91308246145038 0,105.81965648955813 90.26106076768374,105.81965648955813
c 57.041467018727246,0 91.60146701872725,-44.70851017010378 57.041467018727246,-52.32943886034094
c -34.56,-66.56 120.96,-40.96 230.95853298127275,-77.82947303241498 c 53.44304900267531,0.0 272.2065172173854,-25.6 231.8865172173854,22.80576109791771
c -34.56,98.4016132389566 0,148.33407078302577 56.1134827826146,148.33407078302577
c 72.0202719861802,0 106.58027198618021,-77.41189780716884 72.0202719861802,-106.13392758393786
c -34.56,-66.56 120.96,-40.96 215.9797280138198,-65.0059042970056 c 124.84359476918237,-0.0 255.77026178374098,25.6 215.45026178374096,-48.23541282578468
c -34.56,-98.77592089544277 0,-110.48442063639975 72.54973821625904,-110.48442063639975
c 77.06880514739055,0 111.62880514739055,84.10391937306677 77.06880514739055,96.1382626207072
c -34.56,66.56 120.96,40.96 210.93119485260945,62.58157084147723 c 85.39956708369739,0.0 254.21190520677595,-25.6 213.89190520677596,83.64947109988736
c -34.56,53.66166054559993 0,59.35078639377656 74.10809479322404,59.35078639377656
c 77.96154981415214,0 112.52154981415214,-39.817089926069855 77.96154981415214,-89.80609287880492
c -34.56,-66.56 120.96,-40.96 210.03845018584786,-53.194164614859005 c 154.69215930369458,0.0 274.2779442160953,-25.6 233.95794421609529,13.111492940261341
c -34.56,33.4618914329499 0,127.83538855033504 54.042055783904715,127.83538855033504
c 49.55516636021105,0 84.11516636021105,-29.293558841185053 49.55516636021105,-57.88766827088982
c -34.56,-66.56 120.96,-40.96 238.44483363978895,-83.05921321970656 c 65.34792298207024,0.0 273.4451441463343,-25.6 233.1251441463343,83.6511043024252
c -34.56,57.08105701023171 0,62.694038401836295 54.87485585366571,62.694038401836295
c 46.24042030729828,0 80.80042030729828,-25.03666792724912 46.24042030729828,-101.22284827273057
c -34.56,-66.56 120.96,-40.96 241.75957969270172,-45.12229443153092 c 52.370816671338304,-0.0 243.80206968504564,25.6 203.48206968504564,-41.897739135520986
c -34.56,-50.20656205373438 0,-107.30486816958532 84.51793031495436,-107.30486816958532
c 71.9585051842077,0 106.5185051842077,85.5500423350343 71.9585051842077,137.54680150203416
c -34.56,66.56 120.96,40.96 216.0414948157923,11.655805803072155 L 4608 0 " fill="none" stroke="black" stroke-width="0.1" style="vector-effect:non-scaling-stroke;"/></g><g><path d="M 0 0  L 0 1024.000000  c 76.13824739062468,-0.0 269.77342682423625,25.6 229.45342682423623,4.325758488212723
c -34.56,-47.385330495876296 0,-138.0809777114973 58.54657317576377,-138.0809777114973
c 60.05228176734545,0 94.61228176734545,29.904826364303865 60.05228176734545,91.02675303682375
c -34.56,66.56 120.96,40.96 227.94771823265455,42.72846618646082 c 147.4571361919413,-0.0 253.32178964606987,25.6 213.00178964606988,-50.23080978300121
c -34.56,-52.154042975700804 0,-90.73777199777209 74.99821035393012,-90.73777199777209
c 44.78843658691011,0 79.34843658691011,23.893984774337717 44.78843658691011,61.963240631765444
c -34.56,66.56 120.96,40.96 243.2115634130899,79.00534114900785 c 117.80492980558299,-0.0 263.6702908051254,25.6 223.35029080512535,5.124875614448456
c -34.56,-111.47337682917433 0,-177.05936594698298 64.64970919487465,-177.05936594698298
c 79.87204031695347,0 114.43204031695348,98.75844315561825 79.87204031695347,155.542810016663
c -34.56,66.56 120.96,40.96 208.12795968304653,16.391680315871525 c 40.27303063259852,-0.0 258.61275795114267,25.6 218.29275795114268,-57.79616505935912
c -34.56,-86.00453078061138 0,-90.75053512846512 69.70724204885732,-90.75053512846512
c 75.21742553796298,0 109.77742553796298,51.6398169524235 75.21742553796298,150.59498369475855
c -34.56,66.56 120.96,40.96 212.78257446203702,-2.0482835069343253 c 151.17315803611174,0.0 284.14771062841123,-25.6 243.8277106284112,-3.5489272760776753
c -34.56,70.8233508565338 0,152.89829468897827 44.17228937158879,152.89829468897827
c 68.61894572109662,0 103.17894572109662,-64.4729087828375 68.61894572109662,-64.08516527619007
c -34.56,-66.56 120.96,-40.96 219.38105427890338,-85.26420213671052 c 112.81133167578128,0.0 273.36015629368563,-25.6 233.0401562936856,107.48389636688628
c -34.56,7.603416643560495 0,15.948080824273461 54.95984370631439,15.948080824273461
c 77.09776063297102,0 111.65776063297102,-19.209740596114603 77.09776063297102,-85.48821500967435
c -34.56,-66.56 120.96,-40.96 210.90223936702898,-37.9437621814854 c 146.19086432395807,0.0 274.12069271512905,-25.6 233.80069271512906,2.8191171446462153
c -34.56,43.41466436323769 0,153.42993155907533 54.19930728487094,153.42993155907533
c 86.9106370810564,0 121.4706370810564,-42.03855638234 86.9106370810564,-91.3253990738105
c -34.56,-66.56 120.96,-40.96 201.0893629189436,-64.92364962991104 c 56.70978601052555,-0.0 265.5482069601883,25.6 225.2282069601883,1.8952102025422164
c -34.56,-101.4856574203771 0,-139.1413692837899 62.77179303981171,-139.1413692837899
c 82.94507693861141,0 117.50507693861141,96.55437587663162 82.94507693861141,110.49042012280978
c -34.56,66.56 120.96,40.96 205.0549230613886,26.755738958437917 L 4608 0 " fill="none" stroke="black" stroke-width="0.1" style="vector-effect:non-scaling-stroke;"/></g><g><path d="M 0 0  L 0 1536.000000  c 110.56794589243307,-0.0 258.2546364818976,25.6 217.9346364818976,-23.56544307299481
c -34.56,-55.574722627042156 0,-123.81388185625212 70.0653635181024,-123.81388185625212
c 52.93324451816636,0 87.49324451816636,42.66075767756606 52.93324451816636,48.82827339196818
c -34.56,66.56 120.96,40.96 235.06675548183364,98.55105153727875 c 110.74274967529314,-0.0 250.46586069985972,25.6 210.1458606998597,-25.908285122585134
c -34.56,-76.78205601265645 0,-128.24203622458018 77.8541393001403,-128.24203622458018
c 46.24103495210397,0 80.80103495210398,28.329371988881466 46.24103495210397,77.68811166917938
c -34.56,66.56 120.96,40.96 241.75896504789603,76.46220967798594 c 112.85998512856011,0.0 244.20881249515577,-25.6 203.88881249515578,38.678033488848136
c -34.56,31.487016867928915 0,132.9437724163072 84.11118750484422,132.9437724163072
c 85.12191293663267,0 119.68191293663267,-49.66762285361201 85.12191293663267,-68.71559363280792
c -34.56,-66.56 120.96,-40.96 202.87808706336733,-102.90621227234743 c 164.4170610364299,-0.0 255.82337437489417,25.6 215.50337437489418,-85.83519941362412
c -34.56,-40.94661739676362 0,-75.61681708342944 72.49662562510582,-75.61681708342944
c 55.123635857468116,0 89.68363585746812,120.76960824540748 55.123635857468116,153.72696174901805
c -34.56,66.56 120.96,40.96 232.87636414253188,7.725054748035518 c 141.6807427240811,0.0 267.99374095144975,-25.6 227.67374095144973,103.5545976531997
c -34.56,29.66148703289073 0,43.93337894658784 60.32625904855027,43.93337894658784
c 55.137968758704574,0 89.69796875870458,-37.62037303718261 55.137968758704574,-119.18524597721878
c -34.56,-66.56 120.96,-40.96 232.86203124129543,-28.30273062256876 c 114.75236102552626,-0.0 286.86196813806475,25.6 246.54196813806473,-42.71162888115875
c -34.56,-36.33186415343076 0,-89.39005560938438 41.45803186193527,-89.39005560938438
c 49.372544355443154,0 83.93254435544316,28.411114436356957 49.372544355443154,53.208438512386635
c -34.56,66.56 120.96,40.96 238.62745564455685,78.8932459781565 c 80.90113093817762,-0.0 254.72255768399634,25.6 214.40255768399635,9.3478009319967
c -34.56,-95.64907971794887 0,-177.60735084504324 73.59744231600365,-177.60735084504324
c 43.09195305993421,0 77.65195305993421,119.14034308139487 43.09195305993421,171.70869227057267
c -34.56,66.56 120.96,40.96 244.9080469400658,-3.4491423575261138 c 152.9254143661789,0.0 250.3841443228519,-25.6 210.06414432285192,18.445410589038254
c -34.56,46.49712161536739 0,131.2605544151124 77.93585567714808,131.2605544151124
c 73.50654844430778,0 108.06654844430778,-14.174839767891289 73.50654844430778,-57.24584787691174
c -34.56,-66.56 120.96,-40.96 214.49345155569222,-92.46011712723893 L 4608 0 " fill="none" stroke="black" stroke-width="0.1" style="vector-effect:non-scaling-stroke;"/></g><g><path d="M 0 0  L 0 2048.000000  c 142.1633549007665,-0.0 262.89032029478204,25.6 222.57032029478205,9.37964933241421
c -34.56,-125.09645263037025 0,-141.30456495554543 65.42967970521795,-141.30456495554543
c 84.06770719124188,0 118.62770719124188,31.086094005106084 84.06770719124188,38.78493998018557
c -34.56,66.56 120.96,40.96 203.93229280875812,93.13997564294566 c 107.63796532231504,-0.0 280.84052621629957,25.6 240.52052621629957,-61.88998180119703
c -34.56,-36.591896579896286 0,-81.49195182341163 47.47947378370043,-81.49195182341163
c 60.248809698382956,0 94.80880969838296,34.87381225480937 60.248809698382956,142.99388585719515
c -34.56,66.56 120.96,40.96 227.75119030161704,0.38804776741349656 c 58.390093391507705,-0.0 280.94985869666783,25.6 240.6298586966678,-11.403970241634136
c -34.56,-95.46371166571888 0,-137.1574665959651 47.37014130333219,-137.1574665959651
c 57.46003631958456,0 92.02003631958456,47.69224610499254 57.46003631958456,83.48370571388998
c -34.56,66.56 120.96,40.96 230.53996368041544,65.07773112370927 c 108.11419585426073,0.0 238.47767912422734,-25.6 198.15767912422731,31.941006131548477
c -34.56,49.14841699108579 0,108.5088446852007 89.84232087577269,108.5088446852007
c 75.64957503776151,0 110.20957503776151,-42.99881208301731 75.64957503776151,-93.76070371244356
c -34.56,-66.56 120.96,-40.96 212.3504249622385,-46.68914710430562 c 161.95151865090492,0.0 248.01914090043778,-25.6 207.69914090043778,18.301622523072858
c -34.56,57.793291670096785 0,116.35985759228993 80.30085909956222,116.35985759228993
c 46.47438575192433,0 81.03438575192433,-31.601455931089994 46.47438575192433,-72.28885562061322
c -34.56,-66.56 120.96,-40.96 241.52561424807567,-62.37262449474957 c 152.670874630522,-0.0 238.61403275549554,25.6 198.29403275549555,9.693135196786002
c -34.56,-81.30229689923918 0,-136.46729607750365 89.70596724450445,-136.46729607750365
c 58.0325184410101,0 92.5925184410101,20.155526241544223 58.0325184410101,35.644110640622145
c -34.56,66.56 120.96,40.96 229.9674815589899,91.1300502400955 c 84.8858674927302,0.0 259.28043931721277,-25.6 218.96043931721277,110.95889096566383
c -34.56,9.535031098470446 0,21.143509609240922 69.03956068278723,21.143509609240922
c 64.54935620572894,0 99.10935620572894,-23.751356458680668 64.54935620572894,-40.65784846857359
c -34.56,-66.56 120.96,-40.96 223.45064379427106,-91.44455210633116 c 47.67078600479286,-0.0 267.28372827632376,25.6 226.96372827632376,-47.07653717533208
c -34.56,-30.0135026523552 0,-99.83792498212031 61.036271723676236,-99.83792498212031
c 66.71987259584387,0 101.27987259584387,21.214602156080765 66.71987259584387,49.93821331023989
c -34.56,66.56 120.96,40.96 221.28012740415613,96.9762488472125 L 4608 0 " fill="none" stroke="black" stroke-width="0.1" style="vector-effect:non-scaling-stroke;"/></g><g><path d="M 0 0  L 0 2560.000000  c 163.84439680194774,-0.0 285.1268949364282,25.6 244.80689493642817,-55.006391541417635
c -34.56,-40.766123581844404 0,-88.00165058553134 43.193105063571835,-88.00165058553134
c 43.43897472394059,0 77.99897472394059,90.27689434040296 43.43897472394059,130.58476503671253
c -34.56,66.56 120.96,40.96 244.5610252760594,12.42327709023644 c 121.69206692338652,0.0 258.7060983948077,-25.6 218.38609839480773,93.33223394027536
c -34.56,33.916908228464216 0,41.663502207626266 69.61390160519227,41.663502207626266
c 67.68690682340315,0 102.24690682340315,-97.91792722327305 67.68690682340315,-101.3127005032348
c -34.56,-66.56 120.96,-40.96 220.31309317659685,-33.68303564466683 c 116.0775046283344,0.0 243.51939930519228,-25.6 203.19939930519226,94.9103596488773
c -34.56,44.68202442343535 0,44.407495113191274 84.80060069480774,44.407495113191274
c 52.2343657466817,0 86.7943657466817,-34.01013399666907 52.2343657466817,-70.82879413347774
c -34.56,-66.56 120.96,-40.96 235.7656342533183,-68.48906062859083 c 105.04152246609411,0.0 247.1760471512464,-25.6 206.85604715124637,-1.0448074719369291
c -34.56,35.524940300031986 0,128.7648920410429 81.14395284875363,128.7648920410429
c 41.10471424707123,0 75.66471424707123,-132.12819104397104 41.10471424707123,-135.10361206586947
c -34.56,-66.56 120.96,-40.96 246.89528575292877,7.383527496763492 c 158.8690880453402,-0.0 242.25562987199572,25.6 201.9356298719957,-107.46610404238045
c -34.56,-20.597153309598653 0,-33.602553907998484 86.0643701280043,-33.602553907998484
c 51.24473851122809,0 85.8047385112281,30.853680201855827 51.24473851122809,67.8200579975278
c -34.56,66.56 120.96,40.96 236.7552614887719,73.24859995285114 c 162.7022252264915,-0.0 244.1601442280023,25.6 203.8401442280023,-86.26992441565355
c -34.56,-14.60459000052901 0,-42.086451828874004 84.15985577199771,-42.086451828874004
c 75.11521721256935,0 109.67521721256935,59.07036590327713 75.11521721256935,60.3755537328006
c -34.56,66.56 120.96,40.96 212.88478278743065,67.98082251172696 c 102.7381538810995,-0.0 246.92877219919222,25.6 206.60877219919223,-52.13300957745107
c -34.56,-45.364412416160384 0,-100.58936310075234 81.39122780080777,-100.58936310075234
c 51.300796173827564,0 85.86079617382757,55.62490129059721 51.300796173827564,78.6120231919873
c -34.56,66.56 120.96,40.96 236.69920382617244,74.11034948621611 c 89.14009458238888,-0.0 243.0834644601784,25.6 202.7634644601784,-5.027939991578126
c -34.56,-47.68057335931364 0,-130.23814671849019 85.2365355398216,-130.23814671849019
c 62.04861975633105,0 96.60861975633105,37.687757997948005 62.04861975633105,52.31123344128754
c -34.56,66.56 120.96,40.96 225.95138024366895,82.95485326878078 L 4608 0 " fill="none" stroke="black" stroke-width="0.1" style="vector-effect:non-scaling-stroke;"/></g></g></svg>