<svg baseProfile="full" height="3622" preserveAspectRatio="none" shape-rendering="geometricPrecision" version="1.1" viewBox="0,0,2758,3622" width="2758" xmlns="http://www.w3.org/2000/svg" xmlns:ev="http://www.w3.org/2001/xml-events" xmlns:xlink="http://www.w3.org/1999/xlink"><title>Jigsaw puzzle piece clips</title><desc>Created with the piecemaker. Piece count: 20</desc><defs/><g><g><rect fill="white" height="3622" width="2758" x="0" y="0"/></g></g><g><g><path d="M 0 0  L 689.500000 0  c 0.0,169.2262835008491 -34.475,352.94004268395975 0.9856593013162103,302.2320426839597
c 160.00633989977288,-43.464 171.88757200529645,0 171.88757200529645,59.96795731604027
c 0,98.3999264218026 -64.01838885801331,141.8639264218026 -87.50885040654306,98.3999264218026
c -89.635,-43.464 -55.160000000000004,152.124 -85.3643809000696,263.8000735781974 c 0.0,119.55777976989684 -34.475,336.3400650297338 -5.859439537025027,285.6320650297338
c 169.36709647671975,-43.464 221.28571433557917,0 221.28571433557917,76.56793497026621
c 0,67.91240483107771 -148.0085075140466,111.3764048310777 -157.6728586077582,67.91240483107771
c -89.635,-43.464 -55.160000000000004,152.124 -57.753416190795946,294.2875951689223 c 0.0,161.92839377013934 -34.475,318.3714461753794 136.98634601360035,267.66344617537936
c 13.099819328903678,-43.464 41.257051728949705,0 41.257051728949705,94.53655382462063
c 0,101.61770669694977 -13.100548062189691,145.08170669694977 -42.52153229321877,101.61770669694977
c -89.635,-43.464 -55.160000000000004,152.124 -135.7218654493313,260.5822933030502 c -0.0,43.77244791691019 34.475,313.643669504058 -74.97977594682379,262.93566950405796
c -78.33695055640042,-43.464 -154.32256407734027,0 -154.32256407734027,99.26433049594203
c 0,54.32303386868591 115.09904685948112,97.78703386868591 144.22015655524092,54.32303386868591
c 89.635,-43.464 55.160000000000004,152.124 85.08218346892315,307.8769661313141 c -0.0,90.99978453231573 34.475,321.41574582549384 -77.3209699231197,270.7077458254938
c -53.469697870831254,-43.464 -153.8254933057196,0 -153.8254933057196,91.49225417450617
c 0,104.33445059776903 58.22129710298007,147.79845059776903 88.10692117172081,104.33445059776903
c 89.635,-43.464 55.160000000000004,152.124 143.0395420571185,257.86554940223095 L 0 3622 " fill="none" stroke="black" stroke-width="0.1" style="vector-effect:non-scaling-stroke;"/></g><g><path d="M 0 0  L 1379.000000 0  c -0.0,103.19368005641613 34.475,298.4118175829661 -122.64176810402121,247.70381758296608
c -21.47976981790151,-43.464 -56.152422228035746,0 -56.152422228035746,114.4961824170339
c 0,83.56149934135294 116.90482652688475,127.02549934135294 153.36142911987014,83.56149934135294
c 89.635,-43.464 55.160000000000004,152.124 25.43276121218682,278.63850065864705 c -0.0,56.28962626971841 34.475,326.7516336862761 -54.05843290573752,276.04363368627605
c -105.77496925141776,-43.464 -158.669500983031,0 -158.669500983031,86.15636631372394
c 0,83.82740966012437 33.64949872570774,127.29140966012437 128.76711023417505,83.82740966012437
c 89.635,-43.464 55.160000000000004,152.124 83.96082365459347,278.3725903398756 c -0.0,168.87848281914583 34.475,334.6296240043467 -36.114569513629846,283.92162400434665
c -102.21371428379479,-43.464 -166.82629091904332,0 -166.82629091904332,78.27837599565333
c 0,56.28901707728721 43.13955097290807,99.75301707728721 69.2057455565301,56.28901707728721
c 89.635,-43.464 55.160000000000004,152.124 133.73511487614306,305.9109829227128 c -0.0,118.6772987056385 34.475,336.4019367464203 -132.38607799736116,285.69393674642026
c -82.14016963172007,-43.464 -86.35868669809437,0 -86.35868669809437,76.50606325357973
c 0,94.50641725639451 199.0608402895072,137.9704172563945 229.61201530482919,94.50641725639451
c 89.635,-43.464 55.160000000000004,152.124 -10.867250609373656,267.6935827436055 c 0.0,186.6040174615149 -34.475,360.04945682069405 15.848654418170756,309.341456820694
c 55.643076345437485,-43.464 178.16299770233294,0 178.16299770233294,52.85854317930597
c 0,104.50166851000273 -49.2409722362441,147.96566851000273 -77.28562982112605,104.50166851000273
c -89.635,-43.464 -55.160000000000004,152.124 -116.72602229937765,257.69833148999726 L 0 3622 " fill="none" stroke="black" stroke-width="0.1" style="vector-effect:non-scaling-stroke;"/></g><g><path d="M 0 0  L 2068.500000 0  c -0.0,209.26286997568525 34.475,326.8751663786675 -94.60395826519495,276.16716637866745
c -36.87886958839093,-43.464 -130.60194876019642,0 -130.60194876019642,86.03283362133254
c 0,63.06143269426167 40.76232428069111,106.52543269426167 119.21326426719155,63.06143269426167
c 89.635,-43.464 55.160000000000004,152.124 105.9926427581998,299.1385673057383 c -0.0,170.3390001084979 34.475,356.07423311008364 -72.74707436461752,305.3662331100836
c -110.67320362085087,-43.464 -126.74157146894613,0 -126.74157146894613,56.833766889916376
c 0,89.95700878910526 51.58634104728329,133.42100878910526 146.2980233774466,89.95700878910526
c 89.635,-43.464 55.160000000000004,152.124 53.19062245611704,272.24299121089473 c 0.0,196.563529987221 -34.475,319.44476295186496 29.43307421297947,268.73676295186493
c 110.40083075209738,-43.464 192.77736516066116,0 192.77736516066116,93.46323704813506
c 0,101.07207418902476 -32.35502516928561,144.53607418902476 -135.77823513219283,101.07207418902476
c -89.635,-43.464 -55.160000000000004,152.124 -86.4322042414478,261.1279258109752 c -0.0,78.9398812130635 34.475,304.1623188259572 7.975277029790351,253.4543188259572
c -149.1522553850769,-43.464 -239.023275693613,0 -239.023275693613,108.7456811740428
c 0,89.18586482342965 192.68370427218804,132.64986482342965 211.44057018997816,89.18586482342965
c 89.635,-43.464 55.160000000000004,152.124 19.607428473844465,273.01413517657033 c 0.0,127.50132870153179 -34.475,355.6359626756866 80.11791444544272,304.92796267568656
c 94.64971885334566,-43.464 110.62628852028453,0 110.62628852028453,57.27203732431343
c 0,57.70111888311504 -143.97627406278622,101.16511888311504 -145.20775252704527,57.70111888311504
c -89.635,-43.464 -55.160000000000004,152.124 -45.53645043868198,304.49888111688495 L 0 3622 " fill="none" stroke="black" stroke-width="0.1" style="vector-effect:non-scaling-stroke;"/></g></g><g><g><path d="M 0 0  L 0 724.400000  c 84.30219893941364,0.0 339.65854790167026,-36.22 291.3935479016703,68.02432394291735
c -41.37,101.25455877836673 0,172.32299459826868 53.356452098329726,172.32299459826868
c 76.22318161083706,0 117.59318161083706,-105.22041280003434 76.22318161083706,-106.76874177182071
c -41.37,-94.172 144.795,-57.952 268.52681838916294,-133.57857676936533 c 48.136580319646946,-0.0 306.3805170018271,36.22 258.11551700182713,-147.54330707045187
c -41.37,-32.897616731331794 0,-96.6345868876976 86.63448299817287,-96.6345868876976
c 101.23061227868999,0 142.60061227869,28.35015055907389 101.23061227868999,107.91959733268155
c -41.37,94.172 144.795,57.952 243.51938772131,136.25829662546792 c 43.78656629285814,0.0 335.06392941647425,-36.22 286.79892941647427,56.16049942321919
c -41.37,173.06387794300153 0,182.86908656789765 57.951070583525734,182.86908656789765
c 86.19644462550866,0 127.56644462550867,-57.772216915983506 86.19644462550866,-148.2929180671417
c -41.37,-94.172 144.795,-57.952 258.55355537449134,-90.73666792397515 c 176.0113656021454,0.0 312.5348774363418,-36.22 264.2698774363418,85.42013765702396
c -41.37,58.71415449701895 0,130.61253709012666 80.4801225636582,130.61253709012666
c 58.86225801468299,0 100.232258014683,-66.63054482608807 58.86225801468299,-152.1768845139568
c -41.37,-94.172 144.795,-57.952 285.887741985317,-63.85579023319383 L 2758 0 " fill="none" stroke="black" stroke-width="0.1" style="vector-effect:non-scaling-stroke;"/></g><g><path d="M 0 0  L 0 1448.800000  c 86.97274947371129,0.0 339.83437529465186,-36.22 291.5693752946519,59.75718410686137
c -41.37,102.06832551408614 0,132.34586281760727 53.18062470534812,132.34586281760727
c 78.82101019312063,0 120.19101019312063,-71.71028345646711 78.82101019312063,-107.54601643112674
c -41.37,-94.172 144.795,-57.952 265.9289898068794,-84.55703049334188 c 151.19919570675242,-0.0 332.2281413802882,36.22 283.9631413802882,-91.83696287276832
c -41.37,-105.74590564095598 0,-145.75719991893953 60.78685861971178,-145.75719991893953
c 92.64128457928172,0 134.01128457928172,89.0922420041255 92.64128457928172,115.48434772269597
c -41.37,94.172 144.795,57.952 252.10871542071828,122.10981506901187 c 132.78872871357382,-0.0 305.54291994938916,36.22 257.2779199493892,-52.55752018411619
c -41.37,-80.3998891901293 0,-136.0827167330346 87.47208005061083,-136.0827167330346
c 91.4160650104991,0 132.7860650104991,60.82841132425819 91.4160650104991,64.11518522509684
c -41.37,94.172 144.795,57.952 253.3339349895009,124.52505169205395 c 86.5489386654292,0.0 290.5451835829049,-36.22 242.28018358290487,-8.20223260168888
c -41.37,194.79418556133666 0,214.3221524312003 102.46981641709513,214.3221524312003
c 108.90812285898329,0 150.2781228589833,-99.65834794596574 108.90812285898329,-203.21784869513857
c -41.37,-94.172 144.795,-57.952 235.8418771410167,-2.9020711343728465 L 2758 0 " fill="none" stroke="black" stroke-width="0.1" style="vector-effect:non-scaling-stroke;"/></g><g><path d="M 0 0  L 0 2173.200000  c 124.0517781731757,0.0 293.8820517018265,-36.22 245.6170517018265,101.12170647946893
c -41.37,61.32975229557867 0,87.15233775207945 99.13294829817349,87.15233775207945
c 87.95546511141333,0 129.32546511141334,-9.328372983465 87.95546511141333,-32.63513701829646
c -41.37,-94.172 144.795,-57.952 256.79453488858667,-155.6389072132519 c 59.35642393372307,0.0 290.0541101664395,-36.22 241.7891101664395,139.12846879546262
c -41.37,18.270605388484658 0,67.9260610094432 102.96088983356049,67.9260610094432
c 108.66125132164393,0 150.03125132164394,-103.56425526948875 108.66125132164393,-118.98309891518039
c -41.37,-94.172 144.795,-57.952 236.08874867835607,-88.07143088972543 c 66.50818967691474,0.0 330.3972435113803,-36.22 282.1322435113803,-3.6918051332060213
c -41.37,78.52517789940582 0,200.5765309733202 62.617756488619705,200.5765309733202
c 62.02228208751853,0 103.39228208751854,-83.88786504586251 62.02228208751853,-117.92928057896806
c -41.37,-94.172 144.795,-57.952 282.72771791248147,-78.9554452611461 c 150.0008775523635,0.0 297.1621734595324,-36.22 248.89717345953244,28.4575171527489
c -41.37,153.5442436718606 0,153.97765196299588 95.85282654046756,153.97765196299588
c 70.135761878214,0 111.505761878214,-48.44575881837571 70.135761878214,-54.61386394214625
c -41.37,-94.172 144.795,-57.952 274.614238121786,-127.82130517359852 L 2758 0 " fill="none" stroke="black" stroke-width="0.1" style="vector-effect:non-scaling-stroke;"/></g><g><path d="M 0 0  L 0 2897.600000  c 43.41732245336856,-0.0 303.15038609875984,36.22 254.88538609875982,-29.374726175449368
c -41.37,-146.17033932975494 0,-151.57288837834983 89.86461390124018,-151.57288837834983
c 105.79531901455783,0 147.16531901455784,115.1143627850115 105.79531901455783,128.14195069367236
c -41.37,94.172 144.795,57.952 238.95468098544217,52.805663860126856 c 37.83162392493413,0.0 338.5352778144838,-36.22 290.2702778144838,34.053541141627726
c -41.37,119.58711233704184 0,180.09249065240041 54.47972218551621,180.09249065240041
c 55.94753306223379,0 97.31753306223379,-29.678304448448273 55.94753306223379,-88.77171542031425
c -41.37,-94.172 144.795,-57.952 288.8024669377662,-125.3743163737139 c 80.57690880035146,-0.0 293.67138985526304,36.22 245.40638985526303,9.022579730352177
c -41.37,-214.67424884376797 0,-214.686562092693 99.34361014473697,-214.686562092693
c 90.01074483608829,0 131.3807448360883,73.8991131896475 90.01074483608829,201.60776929818638
c -41.37,94.172 144.795,57.952 254.7392551639117,4.056213064154463 c 183.35237360124881,0.0 334.65620434175685,-36.22 286.39120434175686,41.50575325247407
c -41.37,71.48031525946759 0,164.36677889008405 58.35879565824314,164.36677889008405
c 63.08455007917894,0 104.45455007917894,-61.54102518461145 63.08455007917894,-143.1138186280886
c -41.37,-94.172 144.795,-57.952 281.66544992082106,-62.75871351446952 L 2758 0 " fill="none" stroke="black" stroke-width="0.1" style="vector-effect:non-scaling-stroke;"/></g></g></svg>