<svg baseProfile="full" height="2670" preserveAspectRatio="none" shape-rendering="geometricPrecision" version="1.1" viewBox="0,0,4000,2670" width="4000" xmlns="http://www.w3.org/2000/svg" xmlns:ev="http://www.w3.org/2001/xml-events" xmlns:xlink="http://www.w3.org/1999/xlink"><title>Jigsaw puzzle piece clips</title><desc>Created with the piecemaker. Piece count: 24</desc><defs/><g><g><rect fill="white" height="2670" width="4000" x="0" y="0"/></g></g><g><g><path d="M 0 0  L 666.666667 0  c 0.0,173.29387302754293 -33.333333333333336,275.7348397940177 107.90215967434514,229.0098397940177
c 47.86618910052525,-40.05 70.70443332850576,0 70.70443332850576,104.7401602059823
c 0,80.47444474337965 -63.04063399498676,120.52444474337965 -109.22760268542828,80.47444474337965
c -86.66666666666667,-40.05 -53.33333333333333,140.17499999999998 -69.37899031742262,253.27555525662035 c 0.0,121.39727649386883 -33.333333333333336,274.96250327062006 67.96474644113285,228.23750327062007
c 84.4355547988085,-40.05 104.13116965036285,0 104.13116965036285,105.51249672937993
c 0,75.80469122608082 -50.000128917889896,115.85469122608082 -94.62430517499153,75.80469122608082
c -86.66666666666667,-40.05 -53.33333333333333,140.17499999999998 -77.47161091650416,257.9453087739192 c -0.0,56.97167205249726 33.333333333333336,299.546207634116 -41.13543286525831,252.82120763411598
c -56.16230937133824,-40.05 -132.28726846378646,0 -132.28726846378646,80.92879236588402
c 0,73.26816728797309 70.51206925330253,113.31816728797308 126.7281632151675,73.26816728797309
c 86.66666666666667,-40.05 53.33333333333333,140.17499999999998 46.69453811387727,260.4818327120269 c 0.0,51.40044611385338 -33.333333333333336,333.31640389641666 -1.3098570217807066,286.59140389641664
c 43.28578719095356,-40.05 163.64679448227173,0 163.64679448227173,47.15859610358336
c 0,56.22282158149602 -75.08512405323687,96.27282158149602 -170.9757418454542,56.22282158149602
c -86.66666666666667,-40.05 -53.33333333333333,140.17499999999998 8.63880438496318,277.527178418504 L 0 2670 " fill="none" stroke="black" stroke-width="0.1" style="vector-effect:non-scaling-stroke;"/></g><g><path d="M 0 0  L 1333.333333 0  c -0.0,97.80677033965489 33.333333333333336,304.1909106428171 7.60649676767517,257.46591064281705
c -146.63996934663155,-40.05 -230.375357066437,0 -230.375357066437,76.28408935718295
c 0,84.9126432071464 127.83171791164122,124.9626432071464 233.7474516619463,84.9126432071464
c 86.66666666666667,-40.05 53.33333333333333,140.17499999999998 -10.97859136318445,248.8373567928536 c 0.0,139.12782578621076 -33.333333333333336,318.14712758311936 129.076694549321,271.42212758311933
c 36.08849148874722,-40.05 77.01086522601605,0 77.01086522601605,62.327872416880666
c 0,73.13523567607291 -129.46680555116745,113.1852356760729 -204.36556725770387,73.13523567607291
c -86.66666666666667,-40.05 -53.33333333333333,140.17499999999998 -1.7219925176331685,260.6147643239271 c -0.0,88.0402106933345 33.333333333333336,317.6650360880942 1.082699478367454,270.9400360880942
c -104.91183729985228,-40.05 -195.62408826037625,0 -195.62408826037625,62.80996391190581
c 0,82.19496382060015 112.93494593295753,122.24496382060015 147.805583006299,82.19496382060015
c 86.66666666666667,-40.05 53.33333333333333,140.17499999999998 46.73580577570979,251.55503617939985 c 0.0,166.3356367667166 -33.333333333333336,302.22631929032 9.770588091357629,255.50131929032
c 148.04391782517584,-40.05 202.44367899664996,0 202.44367899664996,78.24868070968
c 0,104.9834675102424 -116.20442840588935,145.03346751024242 -125.63202398070155,104.9834675102424
c -86.66666666666667,-40.05 -53.33333333333333,140.17499999999998 -86.58224310730606,228.7665324897576 L 0 2670 " fill="none" stroke="black" stroke-width="0.1" style="vector-effect:non-scaling-stroke;"/></g><g><path d="M 0 0  L 2000.000000 0  c -0.0,84.42053040125643 33.333333333333336,290.5986121050283 -22.675562581123593,243.87361210502826
c -64.2120772043884,-40.05 -155.99910258060345,0 -155.99910258060345,89.87638789497174
c 0,94.71772788683404 26.6434360502424,134.76772788683405 38.406003230257426,94.71772788683404
c 86.66666666666667,-40.05 53.33333333333333,140.17499999999998 140.2686619314696,239.03227211316596 c -0.0,191.17388110686537 33.333333333333336,316.9853409053119 -85.04843522385441,270.26034090531186
c -84.53209731534676,-40.05 -115.34840913078146,0 -115.34840913078146,63.489659094688136
c 0,89.78987464678852 127.24192568802451,129.83987464678853 162.7002343043972,89.78987464678852
c 86.66666666666667,-40.05 53.33333333333333,140.17499999999998 37.69661005023866,243.96012535321148 c 0.0,42.03371868678172 -33.333333333333336,292.5635891978497 80.42542015285449,245.8385891978497
c 91.29432982335888,-40.05 129.11296531746225,0 129.11296531746225,87.9114108021503
c 0,57.59232003687225 -61.63093619212356,97.64232003687225 -166.00142769162122,57.59232003687225
c -86.66666666666667,-40.05 -53.33333333333333,140.17499999999998 -43.53695777869552,276.15767996312775 c -0.0,173.61543535208577 33.333333333333336,329.72511272365654 -67.30090954565567,283.0001127236565
c -41.292100868729776,-40.05 -94.92476212361792,0 -94.92476212361792,50.749887276343486
c 0,86.33144670055225 10.58323157917114,126.38144670055225 19.30236830464179,86.33144670055225
c 86.66666666666667,-40.05 53.33333333333333,140.17499999999998 142.9233033646318,247.41855329944775 L 0 2670 " fill="none" stroke="black" stroke-width="0.1" style="vector-effect:non-scaling-stroke;"/></g><g><path d="M 0 0  L 2666.666667 0  c -0.0,134.20943958183 33.333333333333336,301.95629142081674 -138.68133511007332,255.23129142081675
c -41.341774693652646,-40.05 -58.46433404520309,0 -58.46433404520309,78.51870857918325
c 0,80.63793754971016 31.110838972853845,120.68793754971016 67.01719932465758,80.63793754971016
c 86.66666666666667,-40.05 53.33333333333333,140.17499999999998 130.12846983061883,253.11206245028984 c 0.0,42.624119162771116 -33.333333333333336,277.6544041067377 68.94465462761708,230.92940410673768
c 104.30283997275036,-40.05 153.03915763754634,0 153.03915763754634,102.82059589326232
c 0,48.650676248442494 -74.74161466046654,88.70067624844249 -130.54533158601373,48.650676248442494
c -86.66666666666667,-40.05 -53.33333333333333,140.17499999999998 -91.43848067914968,285.0993237515575 c 0.0,48.02929560433966 -33.333333333333336,287.9701900427626 71.79100127061292,241.2451900427626
c 56.26960932105865,-40.05 135.2518246316765,0 135.2518246316765,92.5048099572374
c 0,64.99568378049077 -63.92269119009192,105.04568378049076 -70.5852836457914,64.99568378049077
c -86.66666666666667,-40.05 -53.33333333333333,140.17499999999998 -136.45754225649802,268.75431621950923 c 0.0,128.15252662305173 -33.333333333333336,319.52498857185896 144.19608991710442,272.79998857185893
c 10.803272378036944,-40.05 45.904624641622206,0 45.904624641622206,60.95001142814107
c 0,93.24603534575033 -80.25292651203848,133.29603534575034 -136.8240324764346,93.24603534575033
c -86.66666666666667,-40.05 -53.33333333333333,140.17499999999998 -53.27668208229201,240.50396465424967 L 0 2670 " fill="none" stroke="black" stroke-width="0.1" style="vector-effect:non-scaling-stroke;"/></g><g><path d="M 0 0  L 3333.333333 0  c 0.0,103.09063112841017 -33.333333333333336,318.9636296344732 -3.1168511752830903,272.23862963447317
c 217.22225177183438,-40.05 221.253951346925,0 221.253951346925,61.51137036552683
c 0,51.21147761091305 -26.350882642033437,91.26147761091305 -76.86992101623605,51.21147761091305
c -86.66666666666667,-40.05 -53.33333333333333,140.17499999999998 -141.26717915540584,282.53852238908695 c -0.0,130.43392100554334 33.333333333333336,286.16001273133367 -134.2371410373881,239.43501273133364
c -25.721424542383986,-40.05 -36.17883918741089,0 -36.17883918741089,94.31498726866636
c 0,69.40175217130246 62.13637421760015,109.45175217130246 119.83001841687715,69.40175217130246
c 86.66666666666667,-40.05 53.33333333333333,140.17499999999998 50.58596180792185,264.34824782869754 c -0.0,84.28295519828056 33.333333333333336,299.9624252490918 -139.45744969102384,253.23742524909176
c -58.843615791161355,-40.05 -65.56380101579379,0 -65.56380101579379,80.51257475090824
c 0,83.0348250181716 72.7871576314909,123.0848250181716 130.93335178662818,83.0348250181716
c 86.66666666666667,-40.05 53.33333333333333,140.17499999999998 74.08789892018945,250.7151749818284 c -0.0,105.83808792836912 33.333333333333336,317.7747070188436 -38.598580935461996,271.0497070188436
c -84.51811058567552,-40.05 -121.87734604603506,0 -121.87734604603506,62.700292981156394
c 0,83.8916680346199 27.597452726123638,123.9416680346199 96.32424895864278,83.8916680346199
c 86.66666666666667,-40.05 53.33333333333333,140.17499999999998 64.15167802285427,249.8583319653801 L 0 2670 " fill="none" stroke="black" stroke-width="0.1" style="vector-effect:non-scaling-stroke;"/></g></g><g><g><path d="M 0 0  L 0 667.500000  c 90.0240498784376,-0.0 328.40979634111653,33.375 281.74312967444985,-88.81494195174068
c -39.99999999999999,-69.83709286810287 0,-82.60578432153486 51.59020365888347,-82.60578432153486
c 104.87333736618604,0 144.87333736618604,42.154661931034155 104.87333736618604,51.66015347708503
c -39.99999999999999,86.775 140.0,53.4 228.45999596714728,119.7605727961905 c 161.17653861222217,-0.0 297.3482099757799,33.375 250.68154330911324,-27.679445317765293
c -39.99999999999999,-89.2469619762822 0,-193.2915346947537 82.65179002422008,-193.2915346947537
c 94.47151741341918,0 134.47151741341918,41.97243450716361 94.47151741341918,83.96450860617668
c -39.99999999999999,86.775 140.0,53.4 238.86181591991414,137.0064714063423 c 176.8598256755424,-0.0 319.14123303659545,33.375 272.47456636992877,-40.91128502399318
c -39.99999999999999,-26.831199509649974 0,-123.50636178833435 60.85876696340455,-123.50636178833435
c 75.7163254677493,0 115.7163254677493,36.52940172072209 75.7163254677493,38.487884981388476
c -39.99999999999999,86.775 140.0,53.4 257.617007865584,125.92976183093904 c 87.41356073283146,0.0 294.3646300505616,-33.375 247.6979633838949,84.44589665666955
c -39.99999999999999,119.91512484247401 0,138.99894194435603 85.63536994943843,138.99894194435603
c 72.48663722868321,0 112.48663722868321,-57.5790275005967 72.48663722868321,-171.04886617356271
c -39.99999999999999,-86.775 140.0,-53.4 260.8466961046501,-52.39597242746288 c 134.22429630263855,0.0 286.6458666626864,-33.375 239.9791999960197,23.498116769348783
c -39.99999999999999,142.04521972308441 0,186.95494969467978 93.35413333731361,186.95494969467978
c 48.62200733221823,0 88.62200733221823,-71.989558674269 48.62200733221823,-195.70962972625378
c -39.99999999999999,-86.775 140.0,-53.4 284.7113260011151,-14.743436737774772 c 121.44540428124269,0.0 283.01848480367465,-33.375 236.35181813700797,91.64077574367059
c -39.99999999999999,94.74364520297206 0,124.70973345567202 96.98151519632535,124.70973345567202
c 73.97051690642894,0 113.97051690642894,-165.70805585941912 73.97051690642894,-215.0094467879244
c -39.99999999999999,-86.775 140.0,-53.4 259.3628164269044,-1.3410624114182212 L 4000 0 " fill="none" stroke="black" stroke-width="0.1" style="vector-effect:non-scaling-stroke;"/></g><g><path d="M 0 0  L 0 1335.000000  c 143.89132711194,-0.0 287.5354832002588,33.375 240.8688165335921,-98.8361960982706
c -39.99999999999999,-32.75073552045469 0,-105.99650606921172 92.4645167997412,-105.99650606921172
c 85.36626105934181,0 125.36626105934181,102.34494560244025 85.36626105934181,128.69786655550763
c -39.99999999999999,86.775 140.0,53.4 247.9670722739915,76.1348356119747 c 43.48922129033128,0.0 292.49647810522464,-33.375 245.82981143855795,94.5555366508138
c -39.99999999999999,35.12340330127719 0,98.55606124347419 87.50352189477536,98.55606124347419
c 77.02053522615438,0 117.02053522615438,-29.336832326598184 77.02053522615438,-91.62056509697945
c -39.99999999999999,-86.775 140.0,-53.4 256.31279810717893,-101.49103279730855 c 105.61378781450009,-0.0 306.7403218765556,33.375 260.0736552098889,-54.61218823443572
c -39.99999999999999,-111.16668948503818 0,-157.53405129034854 73.25967812344442,-157.53405129034854
c 58.547042928144435,0 98.54704292814444,180.28830323026276 58.547042928144435,189.2951540146453
c -39.99999999999999,86.775 140.0,53.4 274.7862904051889,22.851085510138972 c 152.89665144739232,-0.0 319.7256948421924,33.375 273.0590281755257,-33.78860041446877
c -39.99999999999999,-72.49417343185071 0,-128.4416444486703 60.27430515780759,-128.4416444486703
c 50.947872202553526,0 90.94787220255353,37.17168438065168 50.947872202553526,92.59746650432537
c -39.99999999999999,86.775 140.0,53.4 282.3854611307798,69.6327783588137 c 154.39384551649033,0.0 278.1362391754546,-33.375 231.4695725087879,17.017088777096713
c -39.99999999999999,86.24067069666984 0,183.34430721747276 101.86376082454541,183.34430721747276
c 72.49265701498013,0 112.49265701498013,-35.87570286412569 72.49265701498013,-69.20829922658291
c -39.99999999999999,-86.775 140.0,-53.4 260.8406763183532,-131.15309676798657 c 164.3628133488617,0.0 291.5073324349014,-33.375 244.84066576823474,46.97862100814509
c -39.99999999999999,110.9869267497433 0,113.22750777141167 88.49266756509857,113.22750777141167
c 100.73484705216259,0 140.7348470521626,-109.15198206920995 100.73484705216259,-112.11543348541049
c -39.99999999999999,-86.775 140.0,-53.4 232.59848628117072,-48.09069529414627 L 4000 0 " fill="none" stroke="black" stroke-width="0.1" style="vector-effect:non-scaling-stroke;"/></g><g><path d="M 0 0  L 0 2002.500000  c 69.83530251491892,-0.0 306.9013871468628,33.375 260.23472048019613,-17.941836001011307
c -39.99999999999999,-53.71842500256052 0,-149.1914252648635 73.09861285313718,-149.1914252648635
c 80.48749116312916,0 120.48749116312916,25.438373072664145 80.48749116312916,103.16672822780501
c -39.99999999999999,86.775 140.0,53.4 252.84584217020415,63.9665330380698 c 173.1742251543419,0.0 287.2002858778216,-33.375 240.53361921115496,56.05184848204536
c -39.99999999999999,95.23932759218076 0,120.71639158778368 92.79971412217836,120.71639158778368
c 71.08553542978433,0 111.08553542978433,-49.536114185730256 71.08553542978433,-93.55309197540222
c -39.99999999999999,-86.775 140.0,-53.4 262.247797903549,-83.21514809442681 c 45.49828873665864,0.0 288.89403513616094,-33.375 242.22736846949425,79.41819500765628
c -39.99999999999999,37.656618237639584 0,83.10464162959848 91.10596486383906,83.10464162959848
c 80.07632235120991,0 120.07632235120991,-82.52981617328217 80.07632235120991,-170.07609685830016
c -39.99999999999999,-86.775 140.0,-53.4 253.2570109821234,7.553260221045406 c 39.4199693362489,-0.0 304.72737529535254,33.375 258.06070862868586,-10.365030969119898
c -39.99999999999999,-124.79328610603844 0,-166.25209703202222 75.27262470464746,-166.25209703202222
c 57.73168626149584,0 97.73168626149584,28.60191671517865 57.73168626149584,63.254682897518094
c -39.99999999999999,86.775 140.0,53.4 275.6016470718375,113.36244510362401 c 174.81637383590706,0.0 311.6199649305647,-33.375 264.95329826389803,66.86505572694755
c -39.99999999999999,61.41154864146673 0,104.02316633262565 68.38003506943528,104.02316633262565
c 57.4883009113795,0 97.4883009113795,-145.68266587063897 57.4883009113795,-178.89293214445036
c -39.99999999999999,-86.775 140.0,-53.4 275.8450324219538,8.00471008487716 c 183.2245518508702,-0.0 288.8877241910938,33.375 242.22105752442715,-14.654610543750998
c -39.99999999999999,-46.770835807017846 0,-183.12054667583752 91.11227580890616,-183.12054667583752
c 89.83060018973293,0 129.83060018973293,90.90460206485115 89.83060018973293,199.47350519928554
c -39.99999999999999,86.775 140.0,53.4 243.50273314360038,-1.6983479796970187 L 4000 0 " fill="none" stroke="black" stroke-width="0.1" style="vector-effect:non-scaling-stroke;"/></g></g></svg>