<svg baseProfile="full" height="3072" preserveAspectRatio="none" shape-rendering="geometricPrecision" version="1.1" viewBox="0,0,4608,3072" width="4608" xmlns="http://www.w3.org/2000/svg" xmlns:ev="http://www.w3.org/2001/xml-events" xmlns:xlink="http://www.w3.org/1999/xlink"><title>Jigsaw puzzle piece clips</title><desc>Created with the piecemaker. Piece count: 48</desc><defs /><g><g><rect fill="white" height="3072" width="4608" x="0" y="0" /></g></g><g><g><path d="M 0 0  L 576.000000 0  c 0.0,120.78107127078758 -28.8,255.90777159622593 34.653668158838116,220.06777159622592&#10;c 44.45964421248102,-30.72 120.9938764437841,0 120.9938764437841,35.932228403774076&#10;c 0,41.7394752219202 -76.31069594250492,72.4594752219202 -88.04416668507409,41.7394752219202&#10;c -74.88,-30.72 -46.08,107.52 -67.60337791754813,214.2605247780798 c -0.0,104.92692220610826 28.8,247.53353725167443 -70.19972849641988,211.69353725167443&#10;c -78.39142251878862,-30.72 -83.33410438413875,0 -83.33410438413875,44.30646274832557&#10;c 0,79.12559011522069 50.14782357910652,109.84559011522069 162.24026786606672,79.12559011522069&#10;c 74.88,-30.72 46.08,107.52 -8.706434985508082,176.8744098847793 c -0.0,111.36720151564288 28.8,253.91763928440704 -39.99748227220284,218.07763928440704&#10;c -92.06535088982177,-30.72 -117.19158940951027,0 -117.19158940951027,37.92236071559296&#10;c 0,47.95353368945234 19.248294503506806,78.67353368945234 63.67567375022303,47.95353368945234&#10;c 74.88,-30.72 46.08,107.52 93.51339793149008,208.04646631054766 c 0.0,128.98283248677063 -28.8,242.24873349211555 -4.913963095981913,206.40873349211554&#10;c 67.23542551768614,-30.72 190.5550062642297,0 190.5550062642297,49.591266507884455&#10;c 0,40.190935482326836 -48.13219009275341,70.91093548232683 -154.3855712229587,40.190935482326836&#10;c -74.88,-30.72 -46.08,107.52 -31.255471945289088,215.80906451767316 c 0.0,134.33883002489418 -28.8,220.50003943521207 102.23154088964301,184.66003943521207&#10;c 82.39261618844988,-30.72 88.45901277517999,0 88.45901277517999,71.33996056478793&#10;c 0,37.494882610508114 -122.65028258621243,68.21488261050811 -176.2006254020527,37.494882610508114&#10;c -74.88,-30.72 -46.08,107.52 -14.489928262770292,218.5051173894919 c -0.0,120.03889295257503 28.8,251.86394509995432 -125.54209979957658,216.02394509995432&#10;c -12.446011919979611,-30.72 -40.21615472126744,0 -40.21615472126744,39.97605490004568&#10;c 0,79.02471828640626 109.30274321411926,109.74471828640625 170.4502843246938,79.02471828640626&#10;c 74.88,-30.72 46.08,107.52 -4.692029803849778,176.97528171359374 L 0 3072 " fill="none" stroke="black" stroke-width="0.1" style="vector-effect:non-scaling-stroke;" /></g><g><path d="M 0 0  L 1152.000000 0  c 0.0,131.6719966384339 -28.8,232.30483617214205 69.98633087948166,196.46483617214204&#10;c 61.804145132117235,-30.72 98.90560979345175,0 98.90560979345175,59.53516382785796&#10;c 0,46.865362297263744 -42.10241199116201,77.58536229726374 -44.29282482334342,46.865362297263744&#10;c -74.88,-30.72 -46.08,107.52 -124.59911584958998,209.13463770273626 c 0.0,113.76007320694148 -28.8,221.64977647917235 -6.246188164735678,185.80977647917234&#10;c 135.31082805412257,-30.72 181.48482565631562,0 181.48482565631562,70.19022352082766&#10;c 0,57.941912076607764 -18.468165549083608,88.66191207660776 -78.71203470906376,57.941912076607764&#10;c -74.88,-30.72 -46.08,107.52 -96.52660278251618,198.05808792339224 c 0.0,103.26405722391587 -28.8,232.66266982186337 64.2617691834326,196.82266982186337&#10;c 81.64359820789754,-30.72 124.31504082348663,0 124.31504082348663,59.17733017813663&#10;c 0,73.03830627048 -145.77920498455086,103.75830627048 -158.00670510351384,73.03830627048&#10;c -74.88,-30.72 -46.08,107.52 -30.570104903405394,182.96169372952 c -0.0,139.17829275241724 28.8,250.44668663295207 -113.34103911532148,214.60668663295206&#10;c -10.155266031908717,-30.72 -28.287730616181477,0 -28.287730616181477,41.39331336704794&#10;c 0,66.72944496302875 34.56338067039463,97.44944496302875 141.96023303054517,66.72944496302875&#10;c 74.88,-30.72 46.08,107.52 -0.3314632990422126,189.27055503697125 c -0.0,69.62946330462375 28.8,233.14303117566175 -105.16184534573571,197.30303117566174&#10;c -32.80372703081964,-30.72 -45.58958186768976,0 -45.58958186768976,58.696968824338256&#10;c 0,57.963060636075795 62.76780795656371,88.6830606360758 89.4550619166514,57.963060636075795&#10;c 74.88,-30.72 46.08,107.52 61.29636529677407,198.0369393639242 c -0.0,100.63450825973172 28.8,220.92761133811422 8.281931134675366,185.08761133811421&#10;c -54.3329838558726,-30.72 -175.4117400552818,0 -175.4117400552818,70.91238866188579&#10;c 0,66.5104464469473 57.506090279798514,97.2304464469473 61.089131066790756,66.5104464469473&#10;c 74.88,-30.72 46.08,107.52 106.04067785381567,189.4895535530527 L 0 3072 " fill="none" stroke="black" stroke-width="0.1" style="vector-effect:non-scaling-stroke;" /></g><g><path d="M 0 0  L 1728.000000 0  c 0.0,108.31950132091603 -28.8,249.29008854937524 84.98665394551202,213.45008854937524&#10;c 22.93899741285598,-30.72 55.25298238670135,0 55.25298238670135,42.54991145062476&#10;c 0,76.40877081928312 -24.754219326774386,107.12877081928312 -60.773611374664114,76.40877081928312&#10;c -74.88,-30.72 -46.08,107.52 -79.46602495754925,179.59122918071688 c 0.0,129.59139501020044 -28.8,246.99628690535567 38.48549788684072,211.15628690535567&#10;c 110.83941957620168,-30.72 142.5996250688258,0 142.5996250688258,44.84371309464433&#10;c 0,53.41114096871149 -41.53545646071881,84.13114096871149 -62.32298915713855,53.41114096871149&#10;c -74.88,-30.72 -46.08,107.52 -118.76213379852797,202.5888590312885 c 0.0,73.85672362620173 -28.8,253.53576765289532 89.97778073995316,217.6957676528953&#10;c 64.42880581568429,-30.72 64.49483904659236,0 64.49483904659236,38.30423234710469&#10;c 0,80.37534576006846 -25.814214765738157,111.09534576006845 -89.83325187742572,80.37534576006846&#10;c -74.88,-30.72 -46.08,107.52 -64.6393679091198,175.62465423993154 c -0.0,52.26889568982938 28.8,247.02032650662315 6.985484360102232,211.18032650662315&#10;c -44.32994257554061,-30.72 -180.5368553846476,0 -180.5368553846476,44.819673493376854&#10;c 0,65.45955997542592 88.59509341287108,96.17955997542592 100.2918883500129,65.45955997542592&#10;c 74.88,-30.72 46.08,107.52 73.25948267453248,190.54044002457408 c -0.0,106.10626686279645 28.8,236.52610077891327 -26.474034564349974,200.68610077891327&#10;c -56.34622210901592,-30.72 -130.03374442663258,0 -130.03374442663258,55.31389922108673&#10;c 0,79.84928921658201 60.18838564074356,110.569289216582 138.13372670249967,79.84928921658201&#10;c 74.88,-30.72 46.08,107.52 18.374052288482886,176.150710783418 c -0.0,125.0331540541992 28.8,213.6741099526708 -83.62034900158437,177.8341099526708&#10;c -92.17660435155035,-30.72 -98.38701171799556,0 -98.38701171799556,78.16589004732921&#10;c 0,75.35489303758203 65.80680129657505,106.07489303758203 130.28785705474013,75.35489303758203&#10;c 74.88,-30.72 46.08,107.52 51.719503664839806,180.64510696241797 L 0 3072 " fill="none" stroke="black" stroke-width="0.1" style="vector-effect:non-scaling-stroke;" /></g><g><path d="M 0 0  L 2304.000000 0  c -0.0,106.48929704630436 28.8,229.93456275239762 -38.51499214094297,194.09456275239762&#10;c -57.80837236822045,-30.72 -142.04934423858245,0 -142.04934423858245,61.90543724760238&#10;c 0,70.91929581789418 132.80996383399085,101.63929581789418 166.50172606847525,70.91929581789418&#10;c 74.88,-30.72 46.08,107.52 14.062610311050179,185.08070418210582 c 0.0,31.646038127090264 -28.8,213.15938330356525 71.46569255173262,177.31938330356525&#10;c 34.47883338438553,-30.72 90.28034681233149,0 90.28034681233149,78.68061669643475&#10;c 0,47.67220520717137 -116.74304244914717,78.39220520717137 -172.5623590469591,47.67220520717137&#10;c -74.88,-30.72 -46.08,107.52 10.816319682895,208.32779479282863 c -0.0,86.36133554868664 28.8,242.71553659462867 -125.99797774965265,206.87553659462867&#10;c -9.343810805887388,-30.72 -12.588826064975478,0 -12.588826064975478,49.12446340537133&#10;c 0,43.07755311184462 32.22388884437867,73.79755311184462 45.99861797209465,43.07755311184462&#10;c 74.88,-30.72 46.08,107.52 92.58818584253348,212.92244688815538 c 0.0,27.954338190756722 -28.8,226.09344927647086 107.96650576379363,190.25344927647086&#10;c 26.081659190905555,-30.72 37.00833869065815,0 37.00833869065815,65.74655072352914&#10;c 0,54.93642466206461 -74.37839269453924,85.65642466206461 -98.63778618059436,54.93642466206461&#10;c -74.88,-30.72 -46.08,107.52 -46.33705827385742,201.0635753379354 c -0.0,85.20593280269867 28.8,253.30819788600834 -92.40643861671103,217.46819788600834&#10;c -65.71217228793479,-30.72 -77.82347710678911,0 -77.82347710678911,38.53180211399166&#10;c 0,60.51915193783162 169.31823936959208,91.23915193783162 169.66292566441186,60.51915193783162&#10;c 74.88,-30.72 46.08,107.52 0.5669900590882833,195.48084806216838 c -0.0,102.70392894986315 28.8,239.14241510943756 -53.47085704720907,203.30241510943756&#10;c -86.31698060203935,-30.72 -88.96581842804673,0 -88.96581842804673,52.69758489056244&#10;c 0,73.74838450128624 49.53912220053484,104.46838450128624 130.63941545555826,73.74838450128624&#10;c 74.88,-30.72 46.08,107.52 11.797260019697546,182.25161549871376 L 0 3072 " fill="none" stroke="black" stroke-width="0.1" style="vector-effect:non-scaling-stroke;" /></g><g><path d="M 0 0  L 2880.000000 0  c -0.0,105.5042780461514 28.8,219.6262624130238 -120.89536576692845,183.7862624130238&#10;c -55.32272385008923,-30.72 -65.56758074466686,0 -65.56758074466686,72.21373758697621&#10;c 0,45.49093909807084 156.22610488353843,76.21093909807084 197.80251378885808,45.49093909807084&#10;c 74.88,-30.72 46.08,107.52 -11.339567277262773,210.50906090192916 c -0.0,141.75173665464482 28.8,224.95943192253424 -31.585707842668143,189.11943192253423&#10;c -134.44634060279384,-30.72 -161.52534281309102,0 -161.52534281309102,66.88056807746577&#10;c 0,52.260707285275146 39.49295400937584,82.98070728527514 149.3023691845749,52.260707285275146&#10;c 74.88,-30.72 46.08,107.52 43.80868147118426,203.73929271472485 c -0.0,82.96287557573953 28.8,212.7708894043793 -38.42026553014685,176.9308894043793&#10;c -63.61883371685696,-30.72 -120.60783595918898,0 -120.60783595918898,79.06911059562071&#10;c 0,76.57741419013513 41.68810860566262,107.29741419013513 104.96528193547506,76.57741419013513&#10;c 74.88,-30.72 46.08,107.52 54.06281955386076,179.42258580986487 c 0.0,50.05752069958716 -28.8,255.40824686645874 89.4618575360654,219.56824686645874&#10;c 38.90316517951816,-30.72 99.74421502424167,0 99.74421502424167,36.431753133541264&#10;c 0,73.78531054205183 -65.09307841236033,104.50531054205183 -64.86922055236442,73.78531054205183&#10;c -74.88,-30.72 -46.08,107.52 -124.33685200794264,182.21468945794817 c 0.0,116.87113771768657 -28.8,226.1205625479553 104.93059284898239,190.2805625479553&#10;c 35.29176208007953,-30.72 69.63237638817647,0 69.63237638817647,65.7194374520447&#10;c 0,57.36104430665233 -73.87788382450623,88.08104430665233 -147.87778999766954,57.36104430665233&#10;c -74.88,-30.72 -46.08,107.52 -26.685179239489315,198.63895569334767 c -0.0,107.13488824144144 28.8,216.01027354556328 8.302079823161806,180.17027354556328&#10;c -61.26879502003494,-30.72 -150.34333232344738,0 -150.34333232344738,75.82972645443672&#10;c 0,60.9521674979153 112.80550604327121,91.6721674979153 136.37482959795494,60.9521674979153&#10;c 74.88,-30.72 46.08,107.52 5.666422902330623,195.0478325020847 L 0 3072 " fill="none" stroke="black" stroke-width="0.1" style="vector-effect:non-scaling-stroke;" /></g><g><path d="M 0 0  L 3456.000000 0  c -0.0,109.98976643854274 28.8,224.75208357385972 -54.64725704574845,188.91208357385972&#10;c -123.63739674535846,-30.72 -124.9628407488484,0 -124.9628407488484,67.08791642614028&#10;c 0,64.76760935296198 42.57544250703678,95.48760935296198 58.86865642647797,64.76760935296198&#10;c 74.88,-30.72 46.08,107.52 120.74144136811887,191.23239064703802 c -0.0,109.82708630031212 28.8,240.03560877183133 -48.14948225284941,204.19560877183133&#10;c -48.67240743840576,-30.72 -98.91529396264237,0 -98.91529396264237,51.80439122816867&#10;c 0,71.75446741223072 60.78151299122227,102.47446741223072 126.41732852320564,71.75446741223072&#10;c 74.88,-30.72 46.08,107.52 20.647447692286136,184.24553258776928 c 0.0,133.02347716015353 -28.8,238.62056412713807 107.73104729170063,202.78056412713806&#10;c 40.315865288559195,-30.72 48.54726219853532,0 48.54726219853532,53.219435872861936&#10;c 0,67.73383996846468 -9.705752499484188,98.45383996846468 -37.60800612161681,67.73383996846468&#10;c -74.88,-30.72 -46.08,107.52 -118.67030336861914,188.26616003153532 c -0.0,70.06464827173954 28.8,216.0602260331228 -80.47337108865176,180.2202260331228&#10;c -35.83675615544252,-30.72 -58.69652275463491,0 -58.69652275463491,75.7797739668772&#10;c 0,57.893057470290785 120.42251045003863,88.61305747029078 134.27960505867833,57.893057470290785&#10;c 74.88,-30.72 46.08,107.52 4.8902887846083445,198.10694252970922 c 0.0,66.35773632541516 -28.8,228.47193426656298 46.475569994140635,192.63193426656298&#10;c 118.23101809991047,-30.72 147.87454623609958,0 147.87454623609958,63.36806573343702&#10;c 0,41.39345430358617 -79.45367783780796,72.11345430358617 -112.64832815967058,41.39345430358617&#10;c -74.88,-30.72 -46.08,107.52 -81.70178807056963,214.60654569641383 c -0.0,86.57300701651445 28.8,216.09122377287176 -27.932441577845974,180.25122377287175&#10;c -96.52289001506276,-30.72 -117.17945878634428,0 -117.17945878634428,75.74877622712825&#10;c 0,64.65941141348844 104.44734180875156,95.37941141348844 122.65811346879275,64.65941141348844&#10;c 74.88,-30.72 46.08,107.52 22.453786895397513,191.34058858651156 L 0 3072 " fill="none" stroke="black" stroke-width="0.1" style="vector-effect:non-scaling-stroke;" /></g><g><path d="M 0 0  L 4032.000000 0  c -0.0,61.94117434400273 28.8,226.7434788854642 -73.72713759834261,190.9034788854642&#10;c -79.03143878769875,-30.72 -99.13131615648052,0 -99.13131615648052,65.09652111453579&#10;c 0,58.216222556310356 103.9673152754663,88.93622255631036 118.23360998937017,58.216222556310356&#10;c 74.88,-30.72 46.08,107.52 54.624843765452965,197.78377744368964 c 0.0,90.72684455154209 -28.8,244.21588011902853 -6.429978398785637,208.37588011902852&#10;c 153.48779768700996,-30.72 180.34405670877857,0 180.34405670877857,47.62411988097148&#10;c 0,80.34898153915873 -44.88716409173877,111.06898153915873 -102.86046929819696,80.34898153915873&#10;c -74.88,-30.72 -46.08,107.52 -71.05360901179597,175.65101846084127 c 0.0,76.53101996600319 -28.8,239.019861051141 21.478149826429153,203.179861051141&#10;c 150.06858651295778,-30.72 170.77269223944538,0 170.77269223944538,52.82013894885901&#10;c 0,60.04101857955766 -46.00410145788987,90.76101857955766 -107.14848792533274,60.04101857955766&#10;c -74.88,-30.72 -46.08,107.52 -85.10235414054179,195.95898142044234 c -0.0,51.59719370025715 28.8,252.07857946709044 -121.01994453482119,216.23857946709043&#10;c -24.926382971115572,-30.72 -59.52306003994987,0 -59.52306003994987,39.76142053290957&#10;c 0,55.89974242242971 83.15248303072464,86.61974242242971 147.65814663083228,55.89974242242971&#10;c 74.88,-30.72 46.08,107.52 32.88485794393878,200.1002575775703 c 0.0,75.33741912654682 -28.8,221.40611760662244 13.863140863717348,185.56611760662244&#10;c 70.04749191808207,-30.72 145.2167699048564,0 145.2167699048564,70.43388239337756&#10;c 0,51.70685010045378 -12.599273811526878,82.42685010045378 -58.2332902278265,51.70685010045378&#10;c -74.88,-30.72 -46.08,107.52 -100.84662054074724,204.29314989954622 c -0.0,81.3125333750969 28.8,224.1574429727397 2.0619380600001644,188.31744297273968&#10;c -122.57154619880131,-30.72 -192.24505068622275,0 -192.24505068622275,67.68255702726032&#10;c 0,36.70466969674959 112.53284026826509,67.42466969674959 143.9501953615879,36.70466969674959&#10;c 74.88,-30.72 46.08,107.52 46.23291726463469,219.2953303032504 L 0 3072 " fill="none" stroke="black" stroke-width="0.1" style="vector-effect:non-scaling-stroke;" /></g></g><g><g><path d="M 0 0  L 0 512.000000  c 165.0350169319735,-0.0 285.74144034945147,25.6 245.42144034945144,-43.331441836525585&#10;c -34.56,-51.410308920907134 0,-87.5311011222631 42.578559650548556,-87.5311011222631&#10;c 40.43855544088501,0 74.99855544088501,28.54713460667585 40.43855544088501,60.136233980041624&#10;c -34.56,66.56 120.96,40.96 247.561444559115,70.72630897874706 c 145.56024721824932,-0.0 265.0306373054919,25.6 224.7106373054919,-7.623762961931957&#10;c -34.56,-97.25078201546631 0,-162.63792272915376 63.2893626945081,-162.63792272915376&#10;c 50.300163003831244,0 84.86016300383125,170.14397584659386 50.300163003831244,173.82064304022995&#10;c -34.56,66.56 120.96,40.96 237.69983699616876,-3.5589573491442366 c 107.2389756425479,0.0 250.0569648544889,-25.6 209.73696485448892,102.74983999658893&#10;c -34.56,52.37243420005786 0,54.15596730719183 78.26303514551108,54.15596730719183&#10;c 80.30791278625907,0 114.86791278625907,-62.09838239779669 80.30791278625907,-140.96029330515285&#10;c -34.56,-66.56 120.96,-40.96 207.69208721374093,-15.945513998627916 c 116.61294881171881,-0.0 284.99228566390536,25.6 244.67228566390534,-100.14850829430505&#10;c -34.56,-14.142069226981214 0,-55.187545217614016 43.32771433609466,-55.187545217614016&#10;c 85.26725300590181,0 119.82725300590181,54.91713694567208 85.26725300590181,121.09148304928524&#10;c -34.56,66.56 120.96,40.96 202.7327469940982,34.24457046263382 c 145.66937283617108,0.0 282.5998874621837,-25.6 242.2798874621837,82.61784033079458&#10;c -34.56,48.638976619766446 0,54.92282776193399 45.720112537816306,54.92282776193399&#10;c 54.2107632944257,0 88.7707632944257,-60.73582547598917 54.2107632944257,-81.15166426318419&#10;c -34.56,-66.56 120.96,-40.96 233.7892367055743,-56.38900382954438 c 49.40368111983976,0.0 242.56507192409686,-25.6 202.24507192409686,60.49864298976363&#10;c -34.56,62.59854012265397 0,105.83500483379532 85.75492807590314,105.83500483379532&#10;c 55.78830115289037,0 90.34830115289037,-95.83810631290315 55.78830115289037,-110.291202634445&#10;c -34.56,-66.56 120.96,-40.96 232.21169884710963,-56.04244518911395 c 114.03262880881667,-0.0 268.1180809175321,25.6 227.79808091753208,6.285550304656914&#10;c -34.56,-102.03208592364615 0,-158.71012988718545 60.201919082467924,-158.71012988718545&#10;c 73.8347310135112,0 108.3947310135112,58.22441120329658 73.8347310135112,65.68026471857814&#10;c -34.56,66.56 120.96,40.96 214.1652689864888,86.7443148639504 c 86.87530057830948,0.0 281.5080885314724,-25.6 241.18808853147243,53.572334658072876&#10;c -34.56,36.2854912443909 0,87.56540402723489 46.81191146852757,87.56540402723489&#10;c 81.70785515907215,0 116.26785515907216,-51.96393047808459 81.70785515907215,-76.44350036330754&#10;c -34.56,-66.56 120.96,-40.96 206.29214484092785,-64.69423832200023 L 4608 0 " fill="none" stroke="black" stroke-width="0.1" style="vector-effect:non-scaling-stroke;" /></g><g><path d="M 0 0  L 0 1024.000000  c 161.87125897799302,-0.0 243.48765924188416,25.6 203.16765924188417,-67.31753272732381&#10;c -34.56,-49.003373622773324 0,-84.71082910580854 84.83234075811583,-84.71082910580854&#10;c 61.29340599172082,0 95.85340599172082,93.67785024265736 61.29340599172082,154.66996720374988&#10;c -34.56,66.56 120.96,40.96 226.70659400827918,-2.641605370617526 c 40.447200289174006,0.0 286.7741631369269,-25.6 246.4541631369269,105.28657640770341&#10;c -34.56,45.34868123181196 0,55.12285013093678 41.545836863073106,55.12285013093678&#10;c 67.5769932268791,0 102.1369932268791,-39.91428041079773 67.5769932268791,-60.059272704004044&#10;c -34.56,-66.56 120.96,-40.96 220.4230067731209,-100.35015383463615 c 158.85164626612772,-0.0 250.23664064607868,25.6 209.9166406460787,-105.86244888803398&#10;c -34.56,-26.729797714778098 0,-50.227729724253834 78.08335935392131,-50.227729724253834&#10;c 47.23950424171653,0 81.79950424171653,52.74692666388138 47.23950424171653,69.77620304951425&#10;c -34.56,66.56 120.96,40.96 240.76049575828347,86.31397556277356 c 77.5485349987491,0.0 261.620129289087,-25.6 221.300129289087,91.12053520463493&#10;c -34.56,27.00941833203831 0,63.25880628192763 66.69987071091299,63.25880628192763&#10;c 69.8160743535438,0 104.3760743535438,-30.02547726325272 69.8160743535438,-69.77616714976638&#10;c -34.56,-66.56 120.96,-40.96 218.1839256464562,-84.60317433679619 c 149.43185175373918,-0.0 267.992156559611,25.6 227.67215655961095,-56.018782124978706&#10;c -34.56,-49.07287645864735 0,-102.81336965906365 60.327843440389046,-102.81336965906365&#10;c 57.8100907415332,0 92.3700907415332,46.028136660681824 57.8100907415332,67.87382700990646&#10;c -34.56,66.56 120.96,40.96 230.1899092584668,90.9583247741359 c 50.932233098838466,0.0 276.03065847052966,-25.6 235.71065847052967,44.862087171731716&#10;c -34.56,81.36731606612433 0,100.1570579034866 52.289341529470335,100.1570579034866&#10;c 42.78226830216852,0 77.34226830216852,-117.20339436992461 42.78226830216852,-130.4408470271703&#10;c -34.56,-66.56 120.96,-40.96 245.21773169783148,-14.578298048048026 c 69.20051212623808,0.0 241.30222229295015,-25.6 200.98222229295013,24.1651084975734&#10;c -34.56,122.00400197536297 0,140.81526581314802 87.01777770704987,140.81526581314802&#10;c 45.79535576916368,0 80.35535576916368,-105.70721948745455 45.79535576916368,-107.3124874809061&#10;c -34.56,-66.56 120.96,-40.96 242.20464423083632,-57.6678868298153 c 56.89138662362455,0.0 273.20459670409684,-25.6 232.88459670409685,-6.147864029896969&#10;c -34.56,99.60027606773731 0,179.882786478628 55.11540329590315,179.882786478628&#10;c 75.81944942845001,0 110.37944942845002,-140.9689950515294 75.81944942845001,-150.29900276682613&#10;c -34.56,-66.56 120.96,-40.96 212.18055057155,-23.435919681904892 L 4608 0 " fill="none" stroke="black" stroke-width="0.1" style="vector-effect:non-scaling-stroke;" /></g><g><path d="M 0 0  L 0 1536.000000  c 67.63397682647127,0.0 266.9451731291371,-25.6 226.6251731291371,61.63389595471035&#10;c -34.56,18.311852389519725 0,80.459062315907 61.374826870862904,80.459062315907&#10;c 59.0758143360257,0 93.6358143360257,-23.289202787070696 59.0758143360257,-33.83985344740425&#10;c -34.56,-66.56 120.96,-40.96 228.9241856639743,-108.25310482321309 c 116.26678494431347,-0.0 246.73401659220565,25.6 206.41401659220566,0.5229127296978504&#10;c -34.56,-82.07297497232604 0,-131.39476016819503 81.58598340779434,-131.39476016819503&#10;c 43.26510275292475,0 77.82510275292475,41.83928298333972 43.26510275292475,48.45362004787032&#10;c -34.56,66.56 120.96,40.96 244.73489724707525,82.41822739062687 c 157.41490875351386,-0.0 263.2780965238072,25.6 222.95809652380723,-69.54086260673353&#10;c -34.56,-46.76619800782624 0,-59.00978914806319 65.04190347619277,-59.00978914806319&#10;c 68.03943395234296,0 102.59943395234296,22.703714213979442 68.03943395234296,45.44043785393636&#10;c -34.56,66.56 120.96,40.96 219.96056604765704,83.11021390086036 c 140.54528793736995,-0.0 265.8776459566135,25.6 225.55764595661347,-107.21545032902905&#10;c -34.56,-23.011929460788384 0,-40.36463502594022 62.44235404338653,-40.36463502594022&#10;c 54.306433515753156,0 88.86643351575316,76.39603389501326 54.306433515753156,96.98422575182681&#10;c -34.56,66.56 120.96,40.96 233.69356648424684,50.59585960314246 c 93.08786828788796,-0.0 242.0442580439659,25.6 201.72425804396588,-106.16132488881154&#10;c -34.56,-30.580715243917076 0,-49.76441001820727 86.27574195603412,-49.76441001820727&#10;c 74.27926937620623,0 108.83926937620623,31.57372442473412 74.27926937620623,52.43192137805944&#10;c -34.56,66.56 120.96,40.96 213.72073062379377,103.49381352895936 c 131.3733562968399,0.0 242.96285256932134,-25.6 202.64285256932135,88.03350165716718&#10;c -34.56,31.534945827583382 0,36.898822316017785 85.35714743067865,36.898822316017785&#10;c 65.80925883642965,0 100.36925883642965,-58.57032578996639 65.80925883642965,-83.65350025154187&#10;c -34.56,-66.56 120.96,-40.96 222.19074116357035,-41.27882372164309 c 103.18418476105626,-0.0 283.04621230043875,25.6 242.72621230043876,-19.56161987378089&#10;c -34.56,-92.20921102873984 0,-143.86546853904477 45.27378769956124,-143.86546853904477&#10;c 58.36764287097617,0 92.92764287097617,68.61459457118694 58.36764287097617,108.34880941665256&#10;c -34.56,66.56 120.96,40.96 229.63235712902383,55.07827899617311 c 112.04430888331261,-0.0 275.19122563932825,25.6 234.87122563932826,-69.68100471523934&#10;c -34.56,-37.30078586838291 0,-77.6039809319854 53.12877436067174,-77.6039809319854&#10;c 52.659170378368685,0 87.21917037836869,85.09004799053461 52.659170378368685,128.47632203957875&#10;c -34.56,66.56 120.96,40.96 235.34082962163131,18.808663607645997 L 4608 0 " fill="none" stroke="black" stroke-width="0.1" style="vector-effect:non-scaling-stroke;" /></g><g><path d="M 0 0  L 0 2048.000000  c 102.59004164009629,0.0 279.6207451766553,-25.6 239.30074517665528,24.5282462003619&#10;c -34.56,95.02366852817948 0,129.1021647619476 48.69925482334472,129.1021647619476&#10;c 43.23686364862027,0 77.79686364862027,-35.61667892957853 43.23686364862027,-55.011484867949775&#10;c -34.56,-66.56 120.96,-40.96 244.76313635137973,-98.61892609435972 c 60.2114379231692,0.0 287.31763712965864,-25.6 246.99763712965864,105.280300989337&#10;c -34.56,27.98213495944174 0,30.891611066319584 41.00236287034136,30.891611066319584&#10;c 74.66019251796126,0 109.22019251796127,-95.0844239568758 74.66019251796126,-98.36634127314103&#10;c -34.56,-66.56 120.96,-40.96 213.33980748203874,-37.805570782515545 c 84.23971921047043,-0.0 267.848990337783,25.6 227.528990337783,-6.702702186053633&#10;c -34.56,-113.30783323309166 0,-128.70041341613708 60.471009662217,-128.70041341613708&#10;c 47.91994139082112,0 82.47994139082112,32.02166611296603 47.91994139082112,74.42009219767033&#10;c -34.56,66.56 120.96,40.96 240.08005860917888,60.983023404520395 c 99.69835743680473,-0.0 252.59035339965925,25.6 212.27035339965926,-46.632244186172755&#10;c -34.56,-69.01167201516395 0,-112.71111057490518 75.72964660034074,-112.71111057490518&#10;c 62.05985052001921,0 96.61985052001921,43.257134770979114 62.05985052001921,120.73154673922996&#10;c -34.56,66.56 120.96,40.96 225.9401494799808,38.61180802184798 c 152.70692185710044,0.0 264.32349944282345,-25.6 224.00349944282343,15.700910051316404&#10;c -34.56,90.57159131314573 0,135.1355619810025 63.996500557176574,135.1355619810025&#10;c 60.458886451104775,0 95.01888645110478,-83.6342078595118 60.458886451104775,-104.56059531613158&#10;c -34.56,-66.56 120.96,-40.96 227.54111354889523,-46.27587671618733 c 36.822986341200306,-0.0 271.8914862691277,25.6 231.57148626912772,-85.60893129901143&#10;c -34.56,-35.9910928879971 0,-52.815000425881806 56.42851373087228,-52.815000425881806&#10;c 84.123022449279,0 118.68302244927901,39.62062457229341 84.123022449279,144.12304158509997&#10;c -34.56,66.56 120.96,40.96 203.876977550721,-5.6991098602067325 c 126.9819442044468,0.0 274.5594430440818,-25.6 234.23944304408178,82.07988199168585&#10;c -34.56,49.64462072148673 0,51.51772662033869 53.76055695591822,51.51772662033869&#10;c 70.1759464139817,0 104.73594641398171,-24.103552679048008 70.1759464139817,-73.3516556917636&#10;c -34.56,-66.56 120.96,-40.96 217.8240535860183,-60.24595292026095 c 97.06056834415097,-0.0 283.21818613837235,25.6 242.89818613837235,-35.49971562852105&#10;c -34.56,-53.7953274132344 0,-123.62592459333078 45.10181386162765,-123.62592459333078&#10;c 74.75913824043448,0 109.31913824043448,93.36243284839249 74.75913824043448,159.69496287055753&#10;c -34.56,66.56 120.96,40.96 213.24086175956552,-0.5693226487057075 L 4608 0 " fill="none" stroke="black" stroke-width="0.1" style="vector-effect:non-scaling-stroke;" /></g><g><path d="M 0 0  L 0 2560.000000  c 54.218778805460865,-0.0 264.5419791821923,25.6 224.22197918219229,-110.30887362135365&#10;c -34.56,-33.61389550555962 0,-33.40921131424204 63.778020817807715,-33.40921131424204&#10;c 56.4367727800946,0 90.9967727800946,30.32586050195668 56.4367727800946,70.87033842004875&#10;c -34.56,66.56 120.96,40.96 231.5632272199054,72.84774651554694 c 159.01507842306145,-0.0 260.399872154188,25.6 220.07987215418802,2.8518425614941956&#10;c -34.56,-60.75744037936021 0,-142.50737205796 67.92012784581198,-142.50737205796&#10;c 70.40600243717654,0 104.96600243717654,45.55319518875909 70.40600243717654,86.70071968182283&#10;c -34.56,66.56 120.96,40.96 217.59399756282346,52.95480981464296 c 111.88015083104557,0.0 247.6855936495378,-25.6 207.3655936495378,51.477824002868466&#10;c -34.56,74.00748747383811 0,101.3817554926884 80.6344063504622,101.3817554926884&#10;c 89.34965277537628,0 123.90965277537629,-21.49074165309049 89.34965277537628,-86.98056889844457&#10;c -34.56,-66.56 120.96,-40.96 198.65034722462372,-65.87901059711228 c 95.87412950506263,0.0 253.1546324027144,-25.6 212.83463240271442,17.09926528848615&#10;c -34.56,78.26864906506778 0,118.22827119744153 75.16536759728558,118.22827119744153&#10;c 50.41223215955051,0 84.97223215955052,-37.56562692870008 50.41223215955051,-81.2465543093767&#10;c -34.56,-66.56 120.96,-40.96 237.5877678404495,-54.080982176550975 c 129.38237950308857,-0.0 272.1814520792113,25.6 231.8614520792113,-74.6091447799816&#10;c -34.56,-45.771654950035106 0,-51.38408976031896 56.13854792078871,-51.38408976031896&#10;c 62.606846291503075,0 97.16684629150308,102.26203731086807 62.606846291503075,111.80986206802883&#10;c -34.56,66.56 120.96,40.96 225.39315370849692,14.183372472271728 c 83.07029051638567,0.0 240.6180534715249,-25.6 200.29805347152487,42.493369262798325&#10;c -34.56,30.737414102044884 0,114.38486208787847 87.70194652847513,114.38486208787847&#10;c 86.36153747147591,0 120.92153747147592,-59.1688327917428 86.36153747147591,-59.83072131540399&#10;c -34.56,-66.56 120.96,-40.96 201.6384625285241,-97.04751003527281 c 111.53897679898144,-0.0 270.9443434967384,25.6 230.6243434967384,-48.24473146948729&#10;c -34.56,-67.81460460767588 0,-77.82156017146566 57.37565650326161,-77.82156017146566&#10;c 91.93330735058095,0 126.49330735058095,27.594452154824808 91.93330735058095,35.48609402870912&#10;c -34.56,66.56 120.96,40.96 196.06669264941905,90.58019761224384 c 68.86047834721015,-0.0 246.10408332851085,25.6 205.78408332851086,-21.026721454655018&#10;c -34.56,-115.70681329547477 0,-150.29944952736147 82.21591667148914,-150.29944952736147&#10;c 72.87911345742793,0 107.43911345742794,38.84736066723971 72.87911345742793,95.38571125611226&#10;c -34.56,66.56 120.96,40.96 215.12088654257207,75.94045972590423 L 4608 0 " fill="none" stroke="black" stroke-width="0.1" style="vector-effect:non-scaling-stroke;" /></g></g></svg>