<svg baseProfile="full" height="3264" preserveAspectRatio="none" shape-rendering="geometricPrecision" version="1.1" viewBox="0,0,4912,3264" width="4912" xmlns="http://www.w3.org/2000/svg" xmlns:ev="http://www.w3.org/2001/xml-events" xmlns:xlink="http://www.w3.org/1999/xlink"><title>Jigsaw puzzle piece clips</title><desc>Created with the piecemaker. Piece count: 20</desc><defs /><g><g><rect fill="white" height="3264" width="4912" x="0" y="0" /></g></g><g><g><path d="M 0 0  L 982.400000 0  c 0.0,194.955542906448 -49.120000000000005,404.00088239864374 36.90052120169844,346.88088239864373&#10;c 125.08095448661423,-48.96 288.92769431088806,0 288.92769431088806,61.119117601356265&#10;c 0,118.95479066901805 -59.528398305168984,167.91479066901806 -283.33611763036276,118.95479066901805&#10;c -127.712,-48.96 -78.592,171.35999999999999 -42.49209788222373,289.04520933098195 c 0.0,150.95087351001305 -49.120000000000005,394.96870580071015 116.16895322290782,337.84870580071015&#10;c 170.61966237794113,-48.96 195.0637382031129,0 195.0637382031129,70.15129419928985&#10;c 0,100.2144213524225 -125.2798712100467,149.1744213524225 -213.33054172141496,100.2144213524225&#10;c -127.712,-48.96 -78.592,171.35999999999999 -97.90214970460576,307.7855786475775 c -0.0,226.81448692889134 49.120000000000005,385.09544933640996 -112.11773680158257,327.97544933640995&#10;c -127.39043152906049,-48.96 -139.79943013999218,0 -139.79943013999218,80.02455066359005&#10;c 0,119.52504573811939 210.92138856973824,168.4850457381194 214.8570489161345,119.52504573811939&#10;c 127.712,-48.96 78.592,171.35999999999999 37.06011802544026,288.4749542618806 c -0.0,75.81334052032588 49.120000000000005,355.2729679785311 -186.57989735742424,298.1529679785311&#10;c -23.865573056837455,-48.96 -60.694454883436464,0 -60.694454883436464,109.84703202146892&#10;c 0,70.18520473413076 39.87109940232889,119.14520473413077 156.62833965404417,70.18520473413076&#10;c 127.712,-48.96 78.592,171.35999999999999 90.64601258681654,337.81479526586924 L 0 3264 " fill="none" stroke="black" stroke-width="0.1" style="vector-effect:non-scaling-stroke;" /></g><g><path d="M 0 0  L 1964.800000 0  c -0.0,150.90014337690948 49.120000000000005,395.6432730162721 -166.41737237160314,338.52327301627207&#10;c -24.66504980998053,-48.96 -102.25712171111994,0 -102.25712171111994,69.47672698372793&#10;c 0,100.02938607726992 230.00361500330771,148.98938607726993 272.9714784197977,100.02938607726992&#10;c 127.712,-48.96 78.592,171.35999999999999 -4.296984337074605,307.9706139227301 c -0.0,159.14286231162774 49.120000000000005,406.0545576232267 -82.33478725769096,348.9345576232267&#10;c -169.89331966916123,-48.96 -237.52154878185502,0 -237.52154878185502,59.06544237677332&#10;c 0,99.90449615540717 201.38782538417513,148.86449615540718 234.54081532056568,99.90449615540717&#10;c 127.712,-48.96 78.592,171.35999999999999 85.31552071898028,308.0955038445928 c 0.0,166.1221596612665 -49.120000000000005,338.9165436382565 -8.268349405565003,281.7965436382565&#10;c 157.52233803243746,-48.96 315.62338167952504,0 315.62338167952504,126.20345636174352&#10;c 0,85.58859222329085 -129.5130139849995,134.54859222329085 -138.12746372871285,85.58859222329085&#10;c -127.712,-48.96 -78.592,171.35999999999999 -169.22756854524718,322.41140777670915 c -0.0,69.99768561059057 49.120000000000005,345.3829165389695 -29.96082415213403,288.2629165389695&#10;c -177.43103232264176,-48.96 -223.2411669033736,0 -223.2411669033736,119.73708346103052&#10;c 0,113.10897348005903 77.68842108849178,162.06897348005904 217.92946856071418,113.10897348005903&#10;c 127.712,-48.96 78.592,171.35999999999999 35.272522494793435,294.89102651994097 L 0 3264 " fill="none" stroke="black" stroke-width="0.1" style="vector-effect:non-scaling-stroke;" /></g><g><path d="M 0 0  L 2947.200000 0  c -0.0,140.73015971776 49.120000000000005,365.64661326538175 -103.18016419769353,308.52661326538174&#10;c -93.25024030247484,-48.96 -190.6091693674065,0 -190.6091693674065,99.47338673461826&#10;c 0,121.11761779349229 241.4763684541741,170.0776177934923 244.48829322436399,121.11761779349229&#10;c 127.712,-48.96 78.592,171.35999999999999 49.30104034073605,286.8823822065077 c -0.0,127.94092368809507 49.120000000000005,362.69837599626476 -1.2995079027331164,305.57837599626475&#10;c -119.9045795140499,-48.96 -331.3870697249619,0 -331.3870697249619,102.42162400373525&#10;c 0,109.4638017879746 249.47490964433464,158.4238017879746 256.8784734421648,109.4638017879746&#10;c 127.712,-48.96 78.592,171.35999999999999 75.80810418553023,298.5361982120254 c -0.0,211.89392528537877 49.120000000000005,407.1314517457147 -122.30569736739,350.0114517457147&#10;c -66.32929027275769,-48.96 -138.6525449067667,0 -138.6525449067667,57.98854825428532&#10;c 0,79.66129150432954 65.33415590489203,128.62129150432955 263.23354393130313,79.66129150432954&#10;c 127.712,-48.96 78.592,171.35999999999999 -2.2753016571464286,328.33870849567046 c -0.0,152.73489995352034 49.120000000000005,383.18423403078316 -42.87457832842741,326.06423403078315&#10;c -262.2003169286753,-48.96 -261.875532136336,0 -261.875532136336,81.93576596921685&#10;c 0,114.17553036495588 26.90184204624588,163.13553036495588 109.6387196051117,114.17553036495588&#10;c 127.712,-48.96 78.592,171.35999999999999 195.1113908596517,293.8244696350441 L 0 3264 " fill="none" stroke="black" stroke-width="0.1" style="vector-effect:non-scaling-stroke;" /></g><g><path d="M 0 0  L 3929.600000 0  c -0.0,93.40078207058473 49.120000000000005,351.12394652209036 -66.88136141589017,294.00394652209036&#10;c -118.88902196301912,-48.96 -204.26887237035862,0 -204.26887237035862,113.99605347790964&#10;c 0,85.06406183320667 98.33035950432216,134.02406183320667 119.71870908146144,85.06406183320667&#10;c 127.712,-48.96 78.592,171.35999999999999 151.43152470478736,322.93593816679333 c -0.0,194.50303824701345 49.120000000000005,369.51859883782976 -0.4566554572159461,312.39859883782975&#10;c -264.0441312248937,-48.96 -265.23265101883555,0 -265.23265101883555,95.60140116217025&#10;c 0,89.81168755898034 67.8236745460908,138.77168755898035 97.91107904308762,89.81168755898034&#10;c 127.712,-48.96 78.592,171.35999999999999 167.7782274329639,318.18831244101966 c -0.0,74.18618291375276 49.120000000000005,367.2506456164331 -154.525210637097,310.13064561643307&#10;c -103.59278808928093,-48.96 -162.74610075345234,0 -162.74610075345234,97.86935438356693&#10;c 0,123.1442670590693 148.5723443902631,172.10426705906931 234.15891190401425,123.1442670590693&#10;c 127.712,-48.96 78.592,171.35999999999999 83.11239948653508,284.8557329409307 c 0.0,55.060228308055734 -49.120000000000005,371.3651846012986 52.237919640682286,314.2451846012986&#10;c 206.0530402552356,-48.96 266.1407903164421,0 266.1407903164421,93.7548153987014&#10;c 0,87.54716481161222 -204.62775230695593,136.50716481161223 -233.46573763429296,87.54716481161222&#10;c -127.712,-48.96 -78.592,171.35999999999999 -84.91297232283142,320.4528351883878 L 0 3264 " fill="none" stroke="black" stroke-width="0.1" style="vector-effect:non-scaling-stroke;" /></g></g><g><g><path d="M 0 0  L 0 816.000000  c 185.43994631777636,0.0 417.92099382295567,-40.800000000000004 349.1529938229557,-8.688591181043465&#10;c -58.943999999999996,136.691405437911 0,277.6900318397695 142.0470061770443,277.6900318397695&#10;c 117.03546092091182,0 175.9794609209118,-249.80102683204584 117.03546092091182,-268.2896077797339&#10;c -58.943999999999996,-106.08 206.30399999999997,-65.28 374.1645390790882,-0.7118328789921406 c 58.506439236952744,0.0 464.46281351206767,-40.800000000000004 395.69481351206764,28.645433818646577&#10;c -58.943999999999996,74.10191159315039 0,236.52304079622732 95.50518648793235,236.52304079622732&#10;c 120.70367406829683,0 179.64767406829682,-146.82692088286478 120.70367406829683,-231.90827646625502&#10;c -58.943999999999996,-106.08 206.30399999999997,-65.28 370.49632593170315,-33.26019814861888 c 161.58927869366278,-0.0 473.5011915626071,40.800000000000004 404.7331915626071,-129.1323111022212&#10;c -58.943999999999996,-55.59284915281588 0,-108.05417313017216 86.4668084373929,-108.05417313017216&#10;c 114.22224932160663,0 173.1662493216066,188.65912583235854 114.22224932160663,230.69582136418865&#10;c -58.943999999999996,106.08 206.30399999999997,65.28 376.97775067839336,6.4906628682047085 c 81.71538049631677,0.0 418.6369053208406,-40.800000000000004 349.8689053208406,128.6064186019406&#10;c -58.943999999999996,46.21753325517748 0,115.11104078072219 141.33109467915938,115.11104078072219&#10;c 109.2231079162247,0 168.1671079162247,-78.7403415819492 109.2231079162247,-170.02397285276425&#10;c -58.943999999999996,-106.08 206.30399999999997,-65.28 381.9768920837753,-73.69348652989854 c 214.80649396609778,-0.0 409.7921313887816,40.800000000000004 341.0241313887816,-167.96089303767664&#10;c -58.943999999999996,-28.44822560010822 0,-30.445045498681566 150.1758686112184,-30.445045498681566&#10;c 83.15458396233754,0 142.09858396233753,66.39987247044796 83.15458396233754,116.12810892616237&#10;c -58.943999999999996,106.08 206.30399999999997,65.28 408.04541603766245,82.27782961019584 L 4912 0 " fill="none" stroke="black" stroke-width="0.1" style="vector-effect:non-scaling-stroke;" /></g><g><path d="M 0 0  L 0 1632.000000  c 146.36179807980773,0.0 459.0574918880832,-40.800000000000004 390.28949188808315,76.57819818990872&#10;c -58.943999999999996,40.2817370333148 0,135.5384514894394 100.91050811191684,135.5384514894394&#10;c 134.64258870003545,0 193.58658870003543,-65.3077897028033 134.64258870003545,-144.795499918978&#10;c -58.943999999999996,-106.08 206.30399999999997,-65.28 356.55741129996454,-67.32114976037013 c 271.65600740647903,-0.0 471.010324339969,40.800000000000004 402.242324339969,-47.57222621809505&#10;c -58.943999999999996,-125.69304213752967 0,-162.50601136446392 88.95767566003099,-162.50601136446392&#10;c 76.21199173688836,0 135.15599173688835,53.05160786075425 76.21199173688836,53.973445979931626&#10;c -58.943999999999996,106.08 206.30399999999997,65.28 414.9880082631116,156.10479160262733 c 163.28288129450237,-0.0 463.6016998445226,40.800000000000004 394.8336998445226,-28.080408759042395&#10;c -58.943999999999996,-199.8888340352453 0,-220.35512580783495 96.3663001554774,-220.35512580783495&#10;c 149.96900645432555,0 208.91300645432554,62.329176207673626 149.96900645432555,140.13516925448283&#10;c -58.943999999999996,106.08 206.30399999999997,65.28 341.23099354567444,108.30036531239452 c 210.14903538587586,-0.0 489.5647937387548,40.800000000000004 420.79679373875484,7.231423691183186&#10;c -58.943999999999996,-114.95816587271142 0,-240.40825338934724 70.40320626124515,-240.40825338934724&#10;c 147.01101976686567,0 205.95501976686566,22.313392705457463 147.01101976686567,96.06663700316486&#10;c -58.943999999999996,106.08 206.30399999999997,65.28 344.1889802331343,137.1101926949992 c 270.016555053885,-0.0 409.367084155538,40.800000000000004 340.599084155538,-144.0297547605179&#10;c -58.943999999999996,-77.16676448660529 0,-76.58290950382974 150.600915844462,-76.58290950382974&#10;c 110.80272964741704,0 169.74672964741703,26.282966142075498 110.80272964741704,49.491795366899595&#10;c -58.943999999999996,106.08 206.30399999999997,65.28 380.39727035258295,171.12086889744805 L 4912 0 " fill="none" stroke="black" stroke-width="0.1" style="vector-effect:non-scaling-stroke;" /></g><g><path d="M 0 0  L 0 2448.000000  c 133.95564321005045,-0.0 460.31341626284507,40.800000000000004 391.5454162628451,-152.17598854998403&#10;c -58.943999999999996,-86.5365511383455 0,-101.24934305662646 99.6545837371549,-101.24934305662646&#10;c 80.85452273261825,0 139.79852273261824,87.21351802644723 80.85452273261825,114.00715843043034&#10;c -58.943999999999996,106.08 206.30399999999997,65.28 410.34547726738174,139.41817317618015 c 251.35786962397424,-0.0 427.56910672713434,40.800000000000004 358.8011067271343,-68.58028727266202&#10;c -58.943999999999996,-116.65116347436732 0,-207.90236138795848 132.39889327286568,-207.90236138795848&#10;c 108.87479068844442,0 167.8187906884444,261.61129196943523 108.87479068844442,266.8118126731043&#10;c -58.943999999999996,106.08 206.30399999999997,65.28 382.32520931155557,9.67083598751617 c 213.96810858619187,0.0 410.2762912416367,-40.800000000000004 341.5082912416367,5.025064493829452&#10;c -58.943999999999996,117.92968976007633 0,198.36770852582862 149.6917087583633,198.36770852582862&#10;c 104.91749048033506,0 163.86149048033505,-117.0319121588285 104.91749048033506,-133.98926957261853&#10;c -58.943999999999996,-106.08 206.30399999999997,-65.28 386.2825095196649,-69.40350344703955 c 225.81094539462,0.0 487.3438061805167,-40.800000000000004 418.5758061805167,145.543786111894&#10;c -58.943999999999996,49.49906288902546 0,99.73208678203582 72.62419381948331,99.73208678203582&#10;c 155.37433197277056,0 214.31833197277055,-118.78884107425544 155.37433197277056,-203.60746033307987&#10;c -58.943999999999996,-106.08 206.30399999999997,-65.28 335.8256680272294,-41.66841256084996 c 117.82689565506942,0.0 422.04260869815516,-40.800000000000004 353.2746086981552,148.7070497504641&#10;c -58.943999999999996,31.88421301409576 0,114.41029852460784 137.9253913018448,114.41029852460784&#10;c 121.71108077679145,0 180.65508077679144,-158.00026043488768 121.71108077679145,-173.36862226597538&#10;c -58.943999999999996,-106.08 206.30399999999997,-65.28 369.48891922320854,-89.74872600909657 L 4912 0 " fill="none" stroke="black" stroke-width="0.1" style="vector-effect:non-scaling-stroke;" /></g></g></svg>