<svg baseProfile="full" height="3250" preserveAspectRatio="none" shape-rendering="geometricPrecision" version="1.1" viewBox="0,0,5000,3250" width="5000" xmlns="http://www.w3.org/2000/svg" xmlns:ev="http://www.w3.org/2001/xml-events" xmlns:xlink="http://www.w3.org/1999/xlink"><title>Jigsaw puzzle piece clips</title><desc>Created with the piecemaker. Piece count: 24</desc><defs/><g><g><rect fill="white" height="3250" width="5000" x="0" y="0"/></g></g><g><g><path d="M 0 0  L 833.333333 0  c -0.0,79.87415826661112 41.66666666666667,338.6695290494602 -126.82490078943725,281.7945290494602
c -61.35605873332953,-48.75 -133.48463072301269,0 -133.48463072301269,124.45547095053979
c 0,115.87818369654292 110.26028828114,164.62818369654292 117.22144112369321,115.87818369654292
c 108.33333333333334,-48.75 66.66666666666667,170.625 143.08809038875674,290.3718163034571 c 0.0,53.97829538580386 -41.66666666666667,373.7618335053432 98.96427677842841,316.8868335053432
c 44.056733297908764,-48.75 162.6899679763397,0 162.6899679763397,89.36316649465681
c 0,81.80241449475437 -46.52775219906913,130.55241449475437 -210.82279678538794,81.80241449475437
c -108.33333333333334,-48.75 -66.66666666666667,170.625 -50.83144796938018,324.4475855052456 c -0.0,217.23676787336862 41.66666666666667,375.0331931399227 -146.2204135817171,318.1581931399227
c -83.58555262071422,-48.75 -107.3831370670236,0 -107.3831370670236,88.09180686007733
c 0,79.24857638974373 56.66943535960821,127.99857638974373 100.50175928806527,79.24857638974373
c 108.33333333333334,-48.75 66.66666666666667,170.625 153.10179136067543,327.00142361025627 c -0.0,73.74847708088093 41.66666666666667,368.0631696103978 4.212418320741233,311.1881696103978
c -72.56917725606819,-48.75 -249.09408557160435,0 -249.09408557160435,95.06183038960222
c 0,87.3861888901788 94.15901599016748,136.1361888901788 116.65896877131249,87.3861888901788
c 108.33333333333334,-48.75 66.66666666666667,170.625 128.22269847955064,318.8638111098212 L 0 3250 " fill="none" stroke="black" stroke-width="0.1" style="vector-effect:non-scaling-stroke;"/></g><g><path d="M 0 0  L 1666.666667 0  c -0.0,166.12145199777413 41.66666666666667,344.09563359530966 -170.95685511411955,287.22063359530966
c -45.82742529705266,-48.75 -83.736632674628,0 -83.736632674628,119.02936640469034
c 0,69.048198123313 52.475462472951506,117.798198123313 102.93010377002739,69.048198123313
c 108.33333333333334,-48.75 66.66666666666667,170.625 151.76338401872016,337.201801876687 c -0.0,90.02727441599492 41.66666666666667,358.8271135046702 -20.49605413058194,301.9521135046702
c -101.5244863714258,-48.75 -227.17273380707172,0 -227.17273380707172,104.2978864953298
c 0,96.77444467161132 161.4564243731116,145.52444467161132 189.19333441459952,96.77444467161132
c 108.33333333333334,-48.75 66.66666666666667,170.625 58.47545352305414,309.4755553283887 c -0.0,87.12400676298051 41.66666666666667,397.8151522372616 -130.8755891898492,340.9401522372616
c -55.81880196430461,-48.75 -90.86066201654222,0 -90.86066201654222,65.3098477627384
c 0,89.53986154818887 81.94400772489686,138.28986154818887 87.25048055196316,89.53986154818887
c 108.33333333333334,-48.75 66.66666666666667,170.625 134.48577065442825,316.71013845181113 c 0.0,84.6836842586887 -41.66666666666667,367.10970261918806 17.53290012288405,310.23470261918806
c 168.07789405214584,-48.75 206.0873903851952,0 206.0873903851952,96.01529738081194
c 0,117.16317438791293 -14.5337992364253,165.91317438791293 -55.85456536615146,117.16317438791293
c -108.33333333333334,-48.75 -66.66666666666667,170.625 -167.7657251419278,289.08682561208707 L 0 3250 " fill="none" stroke="black" stroke-width="0.1" style="vector-effect:non-scaling-stroke;"/></g><g><path d="M 0 0  L 2500.000000 0  c 0.0,58.3724933172702 -41.66666666666667,377.39979882431794 36.44794248559311,320.52479882431794
c 144.77186934064503,-48.75 174.77700837926847,0 174.77700837926847,85.72520117568206
c 0,106.5240759621255 -37.23689743706679,155.2740759621255 -42.19438994821806,106.5240759621255
c -108.33333333333334,-48.75 -66.66666666666667,170.625 -169.0305609166435,299.7259240378745 c 0.0,52.097967781446926 -41.66666666666667,370.6559996113637 52.81691006271381,313.7809996113637
c 118.25995985482102,-48.75 195.18329866358917,0 195.18329866358917,92.46900038863629
c 0,82.99549532909617 -87.16510995129421,131.74549532909617 -88.54450222411936,82.99549532909617
c -108.33333333333334,-48.75 -66.66666666666667,170.625 -159.45570650218363,323.2545046709038 c -0.0,192.92401724051263 41.66666666666667,343.9325711544166 -115.24384579692274,287.0575711544166
c -82.90647454318501,-48.75 -102.59356934571706,0 -102.59356934571706,119.19242884558338
c 0,80.22498802073903 212.88517736314944,128.97498802073903 222.13485137314066,80.22498802073903
c 108.33333333333334,-48.75 66.66666666666667,170.625 -4.297436230500864,326.02501197926097 c 0.0,88.56875960523125 -41.66666666666667,361.63104994682055 100.31125336949592,304.75604994682055
c 140.79940224692808,-48.75 151.83608312614032,0 151.83608312614032,101.49395005317945
c 0,60.01081146933046 -51.2036660625339,108.76081146933046 -179.1145318076056,60.01081146933046
c -108.33333333333334,-48.75 -66.66666666666667,170.625 -73.03280468803064,346.23918853066954 L 0 3250 " fill="none" stroke="black" stroke-width="0.1" style="vector-effect:non-scaling-stroke;"/></g><g><path d="M 0 0  L 3333.333333 0  c 0.0,139.0116772829562 -41.66666666666667,376.39441332503674 51.90523916303753,319.51941332503674
c 160.30309306408793,-48.75 197.4540166329936,0 197.4540166329936,86.73058667496326
c 0,58.59849642468157 -98.89158147499573,107.34849642468157 -122.3327775558269,58.59849642468157
c -108.33333333333334,-48.75 -66.66666666666667,170.625 -127.02647824020424,347.65150357531843 c 0.0,57.853425674979704 -41.66666666666667,342.4059341336794 13.180394148756898,285.5309341336794
c 70.18941336684271,-48.75 187.82553671788787,0 187.82553671788787,120.71906586632059
c 0,59.50231296753276 -41.09293760509753,108.25231296753276 -50.43146398324126,59.50231296753276
c -108.33333333333334,-48.75 -66.66666666666667,170.625 -150.57446688340352,346.74768703246724 c 0.0,48.26826836027816 -41.66666666666667,337.8136674999802 88.00178025769726,280.9386674999802
c 89.87609666349749,-48.75 118.2146567272779,0 118.2146567272779,125.31133250001977
c 0,68.54089023055735 -62.77942615142529,117.29089023055735 -137.65925304000774,68.54089023055735
c -108.33333333333334,-48.75 -66.66666666666667,170.625 -68.55718394496742,337.70910976944265 c 0.0,163.60380646953067 -41.66666666666667,337.59226239417904 80.36243510354764,280.71726239417904
c 93.15007763184725,-48.75 159.03084818557284,0 159.03084818557284,125.53273760582096
c 0,106.15575921047673 -82.63904987156718,154.90575921047673 -164.5836819040091,106.15575921047673
c -108.33333333333334,-48.75 -66.66666666666667,170.625 -74.80960138511136,300.09424078952327 L 0 3250 " fill="none" stroke="black" stroke-width="0.1" style="vector-effect:non-scaling-stroke;"/></g><g><path d="M 0 0  L 4166.666667 0  c -0.0,71.94027975740434 41.66666666666667,357.0052624944866 -175.13827554667265,300.1302624944866
c -70.87259805046045,-48.75 -74.6940422991984,0 -74.6940422991984,106.1197375055134
c 0,95.16055132942637 191.09675969494094,143.91055132942637 202.58882614620072,95.16055132942637
c 108.33333333333334,-48.75 66.66666666666667,170.625 47.24349169967033,311.08944867057363 c 0.0,48.16272697280916 -41.66666666666667,345.2590529708615 84.00170695384975,288.3840529708615
c 101.13256357541101,-48.75 197.2582667148452,0 197.2582667148452,117.86594702913851
c 0,74.55194083317002 -94.36232336083268,123.30194083317002 -132.76855632230826,74.55194083317002
c -108.33333333333334,-48.75 -66.66666666666667,170.625 -148.4914173463867,331.69805916683 c 0.0,226.34594524619135 -41.66666666666667,341.51153569016117 29.81734766595517,284.63653569016117
c 62.1031270107757,-48.75 170.7531210584079,0 170.7531210584079,121.61346430983883
c 0,98.55719596295194 -196.31196260810646,147.30719596295194 -213.5672592821062,98.55719596295194
c -108.33333333333334,-48.75 -66.66666666666667,170.625 12.996790557743111,307.69280403704806 c 0.0,40.85355696797916 -41.66666666666667,373.51017491168665 51.23132176388521,316.63517491168665
c 107.39545601641606,-48.75 227.6543941483274,0 227.6543941483274,89.61482508831335
c 0,73.3575513571983 -199.23769343824515,122.1075513571983 -234.39640006078832,73.3575513571983
c -108.33333333333334,-48.75 -66.66666666666667,170.625 -44.489315851424294,332.8924486428017 L 0 3250 " fill="none" stroke="black" stroke-width="0.1" style="vector-effect:non-scaling-stroke;"/></g></g><g><g><path d="M 0 0  L 0 812.500000  c 172.37327451110443,0.0 398.6579667633674,-40.625 340.3246334300341,158.46410713956902
c -50.0,82.08916015849057 0,104.57780202483201 76.34203323663257,104.57780202483201
c 97.37626113041557,0 147.37626113041557,-139.14385292678404 97.37626113041557,-255.01226232239688
c -50.0,-105.625 175.0,-65.0 319.2904055362511,-8.029646842004155 c 156.4813300121249,0.0 413.08654054315093,-40.625 354.7532072098176,170.28873133883727
c -50.0,35.60856963482096 0,72.79225211002012 61.91345945684907,72.79225211002012
c 104.56678407796261,0 154.5667840779626,-32.57479434150267 104.56678407796261,-74.50118789063279
c -50.0,-105.625 175.0,-65.0 312.0998825887041,-168.5797955582246 c 55.48830947499256,0.0 410.23851900663954,-40.625 351.9051856733062,26.71121862863717
c -50.0,129.67545872717042 0,239.94300804837954 64.76148099336046,239.94300804837954
c 87.05653574298987,0 137.05653574298987,-226.90510261828166 87.05653574298987,-243.67684728708738
c -50.0,-105.625 175.0,-65.0 329.6101309236768,-22.977379389929325 c 149.80045743223727,0.0 398.6771680410934,-40.625 340.34383470776004,106.60596546540376
c -50.0,37.51582770082458 0,114.83042807847792 76.32283195890665,114.83042807847792
c 91.55435692476749,0 141.5543569247675,-121.31840397890659 91.55435692476749,-134.16098367330792
c -50.0,-105.625 175.0,-65.0 325.1123097418992,-87.27540987057375 c 193.08935634034833,-0.0 402.7341435951462,40.625 344.4008102618128,-41.02945686544258
c -50.0,-43.9567996151672 0,-180.95244636368108 72.26585640485388,-180.95244636368108
c 58.792828812807215,0 108.79282881280722,75.69642395130688 58.792828812807215,189.1298318563125
c -50.0,105.625 175.0,65.0 357.87383785385947,32.85207137281114 c 219.75762830212048,0.0 404.2076962802935,-40.625 345.87436294696016,150.48316139611958
c -50.0,85.53538773707928 0,125.37125748719862 70.79230371970652,125.37125748719862
c 94.3018955420082,0 144.3018955420082,-99.74921309783603 94.3018955420082,-142.06630389489203
c -50.0,-105.625 175.0,-65.0 322.3647711246585,-133.78811498842617 L 5000 0 " fill="none" stroke="black" stroke-width="0.1" style="vector-effect:non-scaling-stroke;"/></g><g><path d="M 0 0  L 0 1625.000000  c 226.09880161753856,-0.0 377.6740674637,40.625 319.3407341303666,-49.14003260607359
c -50.0,-42.37412552925241 0,-161.2043125697669 97.32593253630006,-161.2043125697669
c 101.19764295507167,0 151.19764295507167,64.24741060283523 101.19764295507167,109.94543419547195
c -50.0,105.625 175.0,65.0 315.469023711595,100.39891098036854 c 122.0513888232607,0.0 375.54086511053515,-40.625 317.20753177720184,54.30411750266539
c -50.0,55.431409279394344 0,214.23765267459464 99.45913488946485,214.23765267459464
c 80.24691497690122,0 130.24691497690122,-47.63975301084419 80.24691497690122,-113.21197864161024
c -50.0,-105.625 175.0,-65.0 336.41975168976546,-155.3297915356498 c 232.07309527518146,-0.0 358.90893562494864,40.625 300.5756022916153,-117.4860618296009
c -50.0,-51.61269240036898 0,-101.62615357456203 116.09106437505136,-101.62615357456203
c 97.3018435783926,0 147.3018435783926,99.2323992890239 97.3018435783926,120.76780376697275
c -50.0,105.625 175.0,65.0 319.3648230882741,98.34441163719018 c 178.40227159219592,0.0 352.5244290533427,-40.625 294.1910957200094,55.94532755169307
c -50.0,85.01797186691901 0,205.92556469241623 122.47557094665729,205.92556469241623
c 87.57429522197714,0 137.57429522197714,-49.483461683696 87.57429522197714,-170.34259901655537
c -50.0,-105.625 175.0,-65.0 329.09237144468955,-91.52829322755395 c 220.37693055985315,0.0 405.29732127223986,-40.625 346.9639879389065,117.97955662552424
c -50.0,31.044554944969178 0,101.42230186319772 69.7026787277602,101.42230186319772
c 88.09519486363502,0 138.09519486363502,-42.361802026647446 88.09519486363502,-84.98034406661921
c -50.0,-105.625 175.0,-65.0 328.57147180303167,-134.42151442210275 c 195.80180933824485,0.0 347.7603983230606,-40.625 289.4270649897272,169.3296989933168
c -50.0,30.372412679194138 0,41.501090310604525 127.23960167693946,41.501090310604525
c 119.19989911714896,0 169.19989911714896,-79.60377024357582 119.19989911714896,-109.78190048135009
c -50.0,-105.625 175.0,-65.0 297.4667675495177,-101.04888882257124 L 5000 0 " fill="none" stroke="black" stroke-width="0.1" style="vector-effect:non-scaling-stroke;"/></g><g><path d="M 0 0  L 0 2437.500000  c 228.1752220974741,-0.0 406.0281333823457,40.625 347.6948000490124,-66.14326617508583
c -50.0,-131.0771310855007 0,-209.85349951817477 68.97186661765431,-209.85349951817477
c 100.10396859048882,0 150.10396859048882,41.39594257350543 100.10396859048882,111.52539625007742
c -50.0,105.625 175.0,65.0 316.56269807617787,164.4713694431832 c 207.4751006748467,-0.0 352.44768948891544,40.625 294.11435615558213,-58.00991143080208
c -50.0,-55.11592790214663 0,-203.56912234513132 122.55231051108456,-203.56912234513132
c 79.80234847898828,0 129.80234847898828,81.70673697257757 79.80234847898828,107.44962837439178
c -50.0,105.625 175.0,65.0 336.8643181876784,154.12940540154162 c 80.40903728474022,-0.0 347.8849814288112,40.625 289.5516480954779,-164.27367836473638
c -50.0,-44.65678375130013 0,-49.590267484054834 127.11501857118878,-49.590267484054834
c 117.20305887890328,0 167.20305887890328,82.7408234381281 117.20305887890328,150.31503923276682
c -50.0,105.625 175.0,65.0 299.4636077877634,63.5489066160244 c 170.1419389297884,0.0 385.85044712910417,-40.625 327.5171137957708,123.25180920234408
c -50.0,57.8880974086793 0,147.31838617055985 89.14955287089589,147.31838617055985
c 133.2687701257674,0 183.2687701257674,-173.37949920480813 133.2687701257674,-202.07941725175428
c -50.0,-105.625 175.0,-65.0 283.3978965408993,-68.49077812114965 c 169.99328184514204,-0.0 407.2810222438603,40.625 348.947688910527,8.729120810421746
c -50.0,-112.68237484817791 0,-227.51464340191833 67.71897775613968,-227.51464340191833
c 76.90890683984946,0 126.90890683984946,206.91019284567818 76.90890683984946,221.91848389674357
c -50.0,105.625 175.0,65.0 339.7577598268172,-3.1329613052469654 c 73.89087260672251,0.0 406.53396822298157,-40.625 348.20063488964826,101.46705081812541
c -50.0,105.94699474118859 0,159.66444241778578 68.46603177701843,159.66444241778578
c 69.72957718813797,0 119.72957718813797,-80.66525868980018 69.72957718813797,-132.32770352399777
c -50.0,-105.625 175.0,-65.0 346.9370894785287,-128.80378971191342 L 5000 0 " fill="none" stroke="black" stroke-width="0.1" style="vector-effect:non-scaling-stroke;"/></g></g></svg>