<svg baseProfile="full" height="1920" preserveAspectRatio="none" shape-rendering="geometricPrecision" version="1.1" viewBox="0,0,2880,1920" width="2880" xmlns="http://www.w3.org/2000/svg" xmlns:ev="http://www.w3.org/2001/xml-events" xmlns:xlink="http://www.w3.org/1999/xlink"><title>Jigsaw puzzle piece clips</title><desc>Created with the piecemaker. Piece count: 24</desc><defs /><g><g><rect fill="white" height="1920" width="2880" x="0" y="0" /></g></g><g><g><path d="M 0 0  L 480.000000 0  c 0.0,89.38042179044066 -24.0,230.75907465734147 96.83690327648287,197.15907465734148&#10;c 32.22067677798125,-28.799999999999997 32.204858250502156,0 32.204858250502156,42.84092534265852&#10;c 0,56.377752240208736 -93.48121098066574,85.17775224020873 -107.37407751472604,56.377752240208736&#10;c -62.400000000000006,-28.799999999999997 -38.4,100.8 -21.667684012258988,183.62224775979126 c -0.0,113.00601122999484 24.0,200.7460234824698 -57.10058500443052,167.14602348246981&#10;c -22.8794885837105,-28.799999999999997 -66.05948493949967,0 -66.05948493949967,72.85397651753019&#10;c 0,65.8428389439419 32.93258951929487,94.6428389439419 79.98313697261246,65.8428389439419&#10;c 62.400000000000006,-28.799999999999997 38.4,100.8 43.176932971317726,174.1571610560581 c 0.0,85.06216380877457 -24.0,212.82900868171964 46.92565477879547,179.22900868171965&#10;c 34.53085567851137,-28.799999999999997 101.29896893453645,0 101.29896893453645,60.77099131828035&#10;c 0,56.37849208975581 -76.1957280690145,85.1784920897558 -93.45028020699884,56.37849208975581&#10;c -62.400000000000006,-28.799999999999997 -38.4,100.8 -54.77434350633307,183.6215079102442 c 0.0,91.05327266182016 -24.0,222.98839284593433 85.30529474457153,189.38839284593433&#10;c 24.062988077944837,-28.799999999999997 55.685435653225525,0 55.685435653225525,50.611607154065666&#10;c 0,71.47492878586843 -46.39438163135622,100.27492878586843 -133.24045061616806,71.47492878586843&#10;c -62.400000000000006,-28.799999999999997 -38.4,100.8 -7.75027978162899,168.52507121413157 L 0 1920 " fill="none" stroke="black" stroke-width="0.1" style="vector-effect:non-scaling-stroke;" /></g><g><path d="M 0 0  L 960.000000 0  c 0.0,42.08963901740052 -24.0,225.42429792844473 15.724131447108219,191.82429792844474&#10;c 140.28461868254485,-28.799999999999997 145.02852135541661,0 145.02852135541661,48.175702071555264&#10;c 0,34.342175293211994 -160.49391196253532,63.14217529321199 -164.8556520291715,34.342175293211994&#10;c -62.400000000000006,-28.799999999999997 -38.4,100.8 4.102999226646659,205.657824706788 c -0.0,74.72342432435607 24.0,200.69464264930537 -52.37411366673295,167.09464264930537&#10;c -44.519381145430934,-28.799999999999997 -109.81283720000933,0 -109.81283720000933,72.90535735069463&#10;c 0,45.55864827440422 135.46234039562978,74.35864827440422 148.06873458224402,45.55864827440422&#10;c 62.400000000000006,-28.799999999999997 38.4,100.8 14.11821628449826,194.44135172559578 c 0.0,59.80038837649445 -24.0,227.47981712492057 22.000856530517282,193.87981712492058&#10;c 88.6696827997545,-28.799999999999997 127.629350978499,0 127.629350978499,46.12018287507942&#10;c 0,49.98791541278547 -58.648809688596074,78.78791541278547 -63.62865676160877,49.98791541278547&#10;c -62.400000000000006,-28.799999999999997 -38.4,100.8 -86.00155074740752,190.01208458721453 c 0.0,47.942730136423904 -24.0,207.46872114939748 41.42623107911098,173.8687211493975&#10;c 35.47805670100369,-28.799999999999997 108.1991950258251,0 108.1991950258251,66.13127885060251&#10;c 0,66.06418488303808 -54.89350833757071,94.86418488303808 -54.500094838277846,66.06418488303808&#10;c -62.400000000000006,-28.799999999999997 -38.4,100.8 -95.12533126665824,173.93581511696192 L 0 1920 " fill="none" stroke="black" stroke-width="0.1" style="vector-effect:non-scaling-stroke;" /></g><g><path d="M 0 0  L 1440.000000 0  c 0.0,59.13626942105481 -24.0,217.51553233976983 0.8823970495442524,183.91553233976984&#10;c 59.382905908910026,-28.799999999999997 123.61490598692153,0 123.61490598692153,56.08446766023016&#10;c 0,42.08957358480052 -15.265521808306676,70.88957358480052 -33.05734467926028,42.08957358480052&#10;c -62.400000000000006,-28.799999999999997 -38.4,100.8 -91.4399583572055,197.91042641519948 c -0.0,33.96272389545651 24.0,206.69483532435464 3.644494078176723,173.09483532435465&#10;c -65.31103371053942,-28.799999999999997 -149.4941852321367,0 -149.4941852321367,66.90516467564535&#10;c 0,35.928725585860036 41.76037819485887,64.72872558586003 154.32321128970418,35.928725585860036&#10;c 62.400000000000006,-28.799999999999997 38.4,100.8 -8.473520135744224,204.07127441413996 c 0.0,74.86610391737146 -24.0,211.49594202328794 23.231753943697612,177.89594202328794&#10;c 41.42667891371948,-28.799999999999997 117.74926929668146,0 117.74926929668146,62.104057976712056&#10;c 0,45.37703336112867 -72.72896658872952,74.17703336112866 -132.40500815309136,45.37703336112867&#10;c -62.400000000000006,-28.799999999999997 -38.4,100.8 -8.576015087287715,194.62296663887133 c -0.0,137.62568490004412 24.0,202.94490618269413 -71.49603771162482,169.34490618269413&#10;c -41.54161040062997,-28.799999999999997 -70.16426608327804,0 -70.16426608327804,70.65509381730587&#10;c 0,66.93684011345363 65.48061668477376,95.73684011345362 73.32977873092648,66.93684011345363&#10;c 62.400000000000006,-28.799999999999997 38.4,100.8 68.33052506397638,173.06315988654637 L 0 1920 " fill="none" stroke="black" stroke-width="0.1" style="vector-effect:non-scaling-stroke;" /></g><g><path d="M 0 0  L 1920.000000 0  c 0.0,39.13008261478981 -24.0,197.64019572506677 15.365120553902493,164.04019572506678&#10;c 103.1711639386135,-28.799999999999997 143.86903229462723,0 143.86903229462723,75.95980427493322&#10;c 0,72.30286496396337 -60.11214687682296,101.10286496396337 -59.9291725208878,72.30286496396337&#10;c -62.400000000000006,-28.799999999999997 -38.4,100.8 -99.30498032764193,167.69713503603663 c -0.0,84.03926680523381 24.0,239.37010021381607 -11.419846365767366,205.77010021381608&#10;c -39.58650117812568,-28.799999999999997 -109.88818371150474,0 -109.88818371150474,34.22989978618392&#10;c 0,50.52479082417295 81.592793843719,79.32479082417295 109.00089762435512,50.52479082417295&#10;c 62.400000000000006,-28.799999999999997 38.4,100.8 12.307132452916989,189.47520917582705 c 0.0,49.7391477850888 -24.0,210.62260252238622 40.34965418213123,177.02260252238622&#10;c 82.99427348023461,-28.799999999999997 101.48825887936415,0 101.48825887936415,62.97739747761378&#10;c 0,54.52821698326562 -126.05872241521448,83.32821698326562 -150.9577282484695,54.52821698326562&#10;c -62.400000000000006,-28.799999999999997 -38.4,100.8 9.119815186974108,185.47178301673438 c 0.0,55.18771824749196 -24.0,213.88023974369636 73.99842814307245,180.28023974369637&#10;c 37.44699924221089,-28.799999999999997 70.01389472217245,0 70.01389472217245,59.71976025630363&#10;c 0,38.830798970704734 -16.201084556275,67.63079897070473 -52.59117667706501,38.830798970704734&#10;c -62.400000000000006,-28.799999999999997 -38.4,100.8 -91.42114618817989,201.16920102929527 L 0 1920 " fill="none" stroke="black" stroke-width="0.1" style="vector-effect:non-scaling-stroke;" /></g><g><path d="M 0 0  L 2400.000000 0  c 0.0,138.45084897357992 -24.0,229.8420513027943 31.59412596832323,196.2420513027943&#10;c 44.68751093601494,-28.799999999999997 97.85936329915626,0 97.85936329915626,43.757948697205705&#10;c 0,74.50806362444166 -29.407754073240948,103.30806362444166 -132.8133337767409,74.50806362444166&#10;c -62.400000000000006,-28.799999999999997 -38.4,100.8 3.3598445092614213,165.49193637555834 c 0.0,136.78494611277 -24.0,231.32561008539105 66.35648496603476,197.72561008539105&#10;c 53.268017303103235,-28.799999999999997 61.82178115656443,0 61.82178115656443,42.274389914608946&#10;c 0,73.67724669428208 -29.795484545622102,102.47724669428207 -43.48735541112461,73.67724669428208&#10;c -62.400000000000006,-28.799999999999997 -38.4,100.8 -84.69091071147457,166.32275330571792 c 0.0,96.23861968613424 -24.0,234.05809948497026 99.8413843611122,200.45809948497026&#10;c 33.91255650372496,-28.799999999999997 42.563366702132726,0 42.563366702132726,39.54190051502974&#10;c 0,65.18667704955396 -54.32252787758352,93.98667704955396 -60.86640564167493,65.18667704955396&#10;c -62.400000000000006,-28.799999999999997 -38.4,100.8 -81.53834542157,174.81332295044604 c 0.0,37.3931154417939 -24.0,215.98883205959459 19.47989710084563,182.3888320595946&#10;c 136.8754520210901,-28.799999999999997 136.54251634917304,0 136.54251634917304,57.61116794040541&#10;c 0,70.99126055213384 -129.48304935087944,99.79126055213383 -129.06773320403414,70.99126055213384&#10;c -62.400000000000006,-28.799999999999997 -38.4,100.8 -26.95468024598452,169.00873944786616 L 0 1920 " fill="none" stroke="black" stroke-width="0.1" style="vector-effect:non-scaling-stroke;" /></g></g><g><g><path d="M 0 0  L 0 480.000000  c 109.45361391537544,0.0 239.2579439153695,-24.0 205.65794391536951,17.70148438324192&#10;c -28.799999999999997,65.72940635491543 0,124.93328868798433 34.342056084630485,124.93328868798433&#10;c 57.48075525456852,0 86.28075525456852,-22.049188273917636 57.48075525456852,-68.47164647340288&#10;c -28.799999999999997,-62.400000000000006 100.8,-38.4 182.51924474543148,-74.16312659782336 c 69.22164523740005,-0.0 207.572541752022,24.0 173.972541752022,6.50134196175809&#10;c -28.799999999999997,-59.424099075091114 0,-159.60429241847274 66.02745824797799,-159.60429241847274&#10;c 65.00624165687077,0 93.80624165687077,45.671778509656185 65.00624165687077,86.68115347833417&#10;c -28.799999999999997,62.400000000000006 100.8,38.4 174.99375834312923,66.42179697838047 c 59.75744145971105,-0.0 198.8376896524579,24.0 165.2376896524579,-17.003431991250192&#10;c -28.799999999999997,-93.62105807356849 0,-137.3384542955431 74.7623103475421,-137.3384542955431&#10;c 51.330889552113376,0 80.13088955211337,21.665837441689387 51.330889552113376,73.22938027935045&#10;c -28.799999999999997,62.400000000000006 100.8,38.4 188.66911044788662,81.11250600744283 c 42.455123401361696,0.0 229.64599580013567,-24.0 196.04599580013567,94.1693669497389&#10;c -28.799999999999997,40.18819460940461 0,42.62501879346223 43.95400419986433,42.62501879346223&#10;c 75.69756372821195,0 104.49756372821194,-12.826459367500199 75.69756372821195,-32.10119842388856&#10;c -28.799999999999997,-62.400000000000006 100.8,-38.4 164.30243627178805,-104.69318731931257 c 32.407991283117894,-0.0 234.4492444872816,24.0 200.8492444872816,-27.58931294277432&#10;c -28.799999999999997,-52.457845793350536 0,-105.07431370431644 39.150755512718405,-105.07431370431644&#10;c 64.50253545379951,0 93.3025354537995,110.3856137451042 64.50253545379951,117.98152009064304&#10;c -28.799999999999997,62.400000000000006 100.8,38.4 175.4974645462005,14.682106556447707 c 108.85099220808797,-0.0 216.27604842775605,24.0 182.67604842775606,-58.84059979820099&#10;c -28.799999999999997,-57.813898621963986 0,-86.01880563734045 57.32395157224394,-86.01880563734045&#10;c 47.6665350781214,0 76.4665350781214,128.0929673829079 47.6665350781214,143.48798033773653&#10;c -28.799999999999997,62.400000000000006 100.8,38.4 192.3334649218786,1.3714250978049165 L 2880 0 " fill="none" stroke="black" stroke-width="0.1" style="vector-effect:non-scaling-stroke;" /></g><g><path d="M 0 0  L 0 960.000000  c 101.28035045381179,0.0 213.01502381025864,-24.0 179.41502381025865,94.30189378387325&#10;c -28.799999999999997,38.769157967563906 0,68.36084934688913 60.584976189741354,68.36084934688913&#10;c 36.12235190844376,0 64.92235190844376,-42.78992110452403 36.12235190844376,-145.40887601747116&#10;c -28.799999999999997,-62.400000000000006 100.8,-38.4 203.87764809155624,-17.25386711329122 c 87.87266576379753,0.0 221.99859161386158,-24.0 188.39859161386158,84.45037374730629&#10;c -28.799999999999997,38.53565209709173 0,46.69731554672805 51.60140838613842,46.69731554672805&#10;c 33.61188653752424,0 62.41188653752424,-25.017130246510643 33.61188653752424,-36.92657181437589&#10;c -28.799999999999997,-62.400000000000006 100.8,-38.4 206.38811346247576,-94.22111747965845 c 89.00519185756625,0.0 197.49274021402778,-24.0 163.89274021402778,11.385716733101383&#10;c -28.799999999999997,125.75918324331147 0,129.68696248818597 76.10725978597222,129.68696248818597&#10;c 53.05877591929158,0 81.85877591929157,-18.803809609238673 53.05877591929158,-52.01965570950394&#10;c -28.799999999999997,-62.400000000000006 100.8,-38.4 186.94122408070842,-89.05302351178342 c 42.55760212727935,0.0 225.76334417183762,-24.0 192.16334417183762,-2.5107257381327432&#10;c -28.799999999999997,92.08934703061307 0,148.8566681879974 47.83665582816238,148.8566681879974&#10;c 74.99507344534692,0 103.79507344534692,-46.53750249349774 74.99507344534692,-48.54896846757903&#10;c -28.799999999999997,-62.400000000000006 100.8,-38.4 165.00492655465308,-97.79697398228562 c 128.5247552890856,0.0 220.04403753795043,-24.0 186.44403753795044,3.99132359625796&#10;c -28.799999999999997,116.1498267591709 0,124.19714762280537 53.555962462049564,124.19714762280537&#10;c 44.344802170099285,0 73.14480217009928,-67.74792770212335 44.344802170099285,-81.2783955428509&#10;c -28.799999999999997,-62.400000000000006 100.8,-38.4 195.65519782990071,-46.91007567621243 c 121.68023218785689,-0.0 215.31149047594488,24.0 181.71149047594488,-1.2695351317466985&#10;c -28.799999999999997,-32.442656988916546 0,-143.09459646635474 58.288509524055115,-143.09459646635474&#10;c 40.26498754582997,0 69.06498754582996,35.87644206623831 40.26498754582997,58.68657694227166&#10;c -28.799999999999997,62.400000000000006 100.8,38.4 199.73501245417003,85.67755465582978 L 2880 0 " fill="none" stroke="black" stroke-width="0.1" style="vector-effect:non-scaling-stroke;" /></g><g><path d="M 0 0  L 0 1440.000000  c 25.328500481991494,-0.0 208.35866185955754,24.0 174.75866185955755,-105.4280815486244&#10;c -28.799999999999997,-5.481728016292365 0,-11.829709165874931 65.24133814044245,-11.829709165874931&#10;c 45.81557520092724,0 74.61557520092724,54.17157498081248 45.81557520092724,92.01193929792987&#10;c -28.799999999999997,62.400000000000006 100.8,38.4 194.18442479907276,25.245851416569465 c 95.8276773672126,-0.0 221.55507784933133,24.0 187.95507784933133,-10.132768716533846&#10;c -28.799999999999997,-65.09090414073287 0,-148.0677399454135 52.04492215066867,-148.0677399454135&#10;c 57.436289029366606,0 86.2362890293666,14.545065299015683 57.436289029366606,54.9667599234907&#10;c -28.799999999999997,62.400000000000006 100.8,38.4 182.5637109706334,103.23374873845667 c 31.83075327650294,-0.0 218.1496193561639,24.0 184.5496193561639,-60.5146383000758&#10;c -28.799999999999997,-25.416173912461534 0,-92.28795503287989 55.4503806438361,-92.28795503287989&#10;c 74.6126619535138,0 103.41266195351379,51.86073222903145 74.6126619535138,74.6804998759679&#10;c -28.799999999999997,62.400000000000006 100.8,38.4 165.3873380464862,78.1220934569878 c 97.74199314994594,0.0 198.38994917276202,-24.0 164.78994917276202,105.04789529630692&#10;c -28.799999999999997,37.292874862960005 0,49.32348535783247 75.21005082723798,49.32348535783247&#10;c 39.27908646294867,0 68.07908646294867,-50.956296546313084 39.27908646294867,-89.57742759879764&#10;c -28.799999999999997,-62.400000000000006 100.8,-38.4 200.72091353705133,-64.79395305534175 c 106.52342813125645,-0.0 230.5545358986342,24.0 196.95453589863422,-88.60298987719622&#10;c -28.799999999999997,-13.686486485207219 0,-51.13655070687648 43.04546410136578,-51.13655070687648&#10;c 64.46275425539233,0 93.26275425539232,74.14480565169636 64.46275425539233,83.55920744210285&#10;c -28.799999999999997,62.400000000000006 100.8,38.4 175.53724574460767,56.180333141969854 c 25.19127176528616,0.0 229.72261878078965,-24.0 196.12261878078965,77.97038287224541&#10;c -28.799999999999997,22.948796661799406 0,62.752669286258765 43.87738121921035,62.752669286258765&#10;c 70.9306688822079,0 99.7306688822079,-45.555649607182175 70.9306688822079,-57.11098213843269&#10;c -28.799999999999997,-62.400000000000006 100.8,-38.4 169.0693311177921,-83.61207002007149 L 2880 0 " fill="none" stroke="black" stroke-width="0.1" style="vector-effect:non-scaling-stroke;" /></g></g></svg>