<svg baseProfile="full" height="774" preserveAspectRatio="none" shape-rendering="geometricPrecision" version="1.1" viewBox="0,0,1280,774" width="1280" xmlns="http://www.w3.org/2000/svg" xmlns:ev="http://www.w3.org/2001/xml-events" xmlns:xlink="http://www.w3.org/1999/xlink"><title>Jigsaw puzzle piece clips</title><desc>Created with the piecemaker. Piece count: 15</desc><defs/><g><g><rect fill="white" height="774" width="1280" x="0" y="0"/></g></g><g><g><path d="M 0 0  L 256.000000 0  c -0.0,20.284125146866725 12.8,127.50564972851586 -3.656528522177953,109.44564972851586
c -28.740389951803405,-15.479999999999999 -78.52017086654554,0 -78.52017086654554,19.55435027148414
c 0,39.93966857838137 38.359267033754016,55.41966857838137 61.51806490678271,39.93966857838137
c 33.28,-15.479999999999999 20.48,54.18 20.65863448194078,89.06033142161863 c 0.0,45.86976385444579 -12.8,126.97340974568895 -4.8529874947113605,108.91340974568895
c 27.552849208071166,-15.479999999999999 84.53566134271588,0 84.53566134271588,20.086590254311048
c 0,20.561959652294263 -75.42919352615691,36.04195965229426 -75.07537598344109,20.561959652294263
c -33.28,-15.479999999999999 -20.48,54.18 -4.607297864563435,108.43804034770574 c -0.0,74.65149001699726 12.8,112.39968724619668 -41.90955684111243,94.33968724619668
c -16.59814967848291,-15.479999999999999 -28.98030975476216,0 -28.98030975476216,34.660312753803325
c 0,34.987216692535725 35.370677745323036,50.46721669253572 37.613744027411215,34.987216692535725
c 33.28,-15.479999999999999 20.48,54.18 33.27612256846338,94.01278330746428 L 0 774 " fill="none" stroke="black" stroke-width="0.1" style="vector-effect:non-scaling-stroke;"/></g><g><path d="M 0 0  L 512.000000 0  c 0.0,31.871501714756615 -12.8,111.21191618709945 4.21999124661692,93.15191618709945
c 69.51004395777805,-15.479999999999999 81.06479578367265,0 81.06479578367265,35.848083812900555
c 0,20.319409362508793 -32.07000928694891,35.79940936250879 -44.79351167713188,20.319409362508793
c -33.28,-15.479999999999999 -20.48,54.18 -40.49127535315768,108.6805906374912 c 0.0,36.63441830426879 -12.8,122.87406543070344 7.4337559698008056,104.81406543070344
c 18.127372153832567,-15.479999999999999 61.567849327676846,0 61.567849327676846,24.185934569296563
c 0,19.919040859250515 -21.140861804813266,35.39904085925051 -50.4739467084035,19.919040859250515
c -33.28,-15.479999999999999 -20.48,54.18 -18.52765858907415,109.08095914074948 c -0.0,46.45030056751161 12.8,108.86059345845881 -0.00962715160102956,90.8005934584588
c -43.2037699875674,-15.479999999999999 -68.00979892448501,0 -68.00979892448501,38.199406541541194
c 0,30.2835078312076 40.07953503916568,45.7635078312076 57.26146870072442,30.2835078312076
c 33.28,-15.479999999999999 20.48,54.18 10.757957375361613,98.7164921687924 L 0 774 " fill="none" stroke="black" stroke-width="0.1" style="vector-effect:non-scaling-stroke;"/></g><g><path d="M 0 0  L 768.000000 0  c -0.0,60.20926235810629 12.8,124.75533539859879 -33.73747237423137,106.69533539859879
c -16.573166961172177,-15.479999999999999 -32.7701351164458,0 -32.7701351164458,22.304664601401214
c 0,18.39532374114222 41.02994358150774,33.87532374114222 56.13654178827014,18.39532374114222
c 33.28,-15.479999999999999 20.48,54.18 10.371065702407037,110.60467625885778 c -0.0,70.24456979011389 12.8,111.17226758016469 -7.978472684341452,93.11226758016468
c -41.714748725426865,-15.479999999999999 -58.96554493656022,0 -58.96554493656022,35.88773241983532
c 0,28.44032782844701 23.827141900534578,43.92032782844701 58.788770022111706,28.44032782844701
c 33.28,-15.479999999999999 20.48,54.18 8.15524759878997,100.55967217155299 c -0.0,25.95504447184293 12.8,123.23631933744885 1.4437795582930928,105.17631933744885
c -47.44226853881674,-15.479999999999999 -72.25846825074098,0 -72.25846825074098,23.823680662551155
c 0,38.12614424155049 15.609105250165115,53.60614424155049 71.41152296546515,38.12614424155049
c 33.28,-15.479999999999999 20.48,54.18 -0.5968342730172651,90.87385575844951 L 0 774 " fill="none" stroke="black" stroke-width="0.1" style="vector-effect:non-scaling-stroke;"/></g><g><path d="M 0 0  L 1024.000000 0  c 0.0,30.674641308631298 -12.8,110.32397470290641 -0.9350579391479874,92.26397470290641
c 28.381873031970848,-15.479999999999999 84.50488584205226,0 84.50488584205226,36.73602529709359
c 0,26.876263182050565 -60.6299992699228,42.35626318205056 -67.35337439256091,26.876263182050565
c -33.28,-15.479999999999999 -20.48,54.18 -16.21645351034337,102.12373681794944 c 0.0,62.85303549934038 -12.8,111.70379258222758 48.90570001579774,93.64379258222758
c 15.894626985968777,-15.479999999999999 33.86766517781911,0 33.86766517781911,35.356207417772424
c 0,26.85051709474871 -19.1745967253519,42.33051709474871 -27.834003009642167,26.85051709474871
c -33.28,-15.479999999999999 -20.48,54.18 -54.93936218397469,102.14948290525129 c 0.0,60.24038529278173 -12.8,106.40337005843229 2.176712186311028,88.34337005843228
c 61.797528788231894,-15.479999999999999 73.20413150567576,0 73.20413150567576,40.656629941567715
c 0,22.61966125111246 -12.462900715407322,38.09966125111246 -40.72230824719388,22.61966125111246
c -33.28,-15.479999999999999 -20.48,54.18 -34.6585354447929,106.38033874888754 L 0 774 " fill="none" stroke="black" stroke-width="0.1" style="vector-effect:non-scaling-stroke;"/></g></g><g><g><path d="M 0 0  L 0 258.000000  c 66.24300433846024,0.0 115.4452298098125,-12.9 97.5252298098125,12.198956503821641
c -15.36,44.59693500009188 0,50.463315453550564 30.4747701901875,50.463315453550564
c 38.9460445688612,0 54.306044568861196,-19.782052208627682 38.9460445688612,-37.57652388191928
c -15.36,-33.54 53.76,-20.64 89.0539554311388,-25.085748075452926 c 41.385796226949836,0.0 111.00258373714773,-12.9 93.08258373714773,54.42723467448569
c -15.36,10.04863891633501 0,22.125753547965573 34.91741626285227,22.125753547965573
c 29.16687646759962,0 44.52687646759962,-32.64909048321447 29.16687646759962,-55.08917865433453
c -15.36,-33.54 53.76,-20.64 98.83312353240038,-21.46380956811673 c 68.54475508624917,0.0 127.45985521284491,-12.9 109.53985521284491,10.658394446486685
c -15.36,22.447650071696184 0,64.66430768165449 18.460144787155087,64.66430768165449
c 31.015853762165733,0 46.37585376216573,-32.36619495776794 31.015853762165733,-35.5821873340354
c -15.36,-33.54 53.76,-20.64 96.98414623783427,-39.74051479410577 c 13.518470388770625,0.0 110.74358412826388,-12.9 92.82358412826387,35.011492828884705
c -15.36,41.113805818857976 0,49.18563981487117 35.176415871736125,49.18563981487117
c 40.4956838952925,0 55.8556838952925,-29.735845169828867 40.4956838952925,-38.52489586469927
c -15.36,-33.54 53.76,-20.64 87.5043161047075,-45.67223677905661 c 13.742976984556595,-0.0 109.5261124873397,12.9 91.6061124873397,3.42381281221275
c -15.36,-27.498369285774327 0,-76.92313125390164 36.3938875126603,-76.92313125390164
c 26.72943418587039,0 42.08943418587039,29.751715109866534 26.72943418587039,68.05613226021237
c -15.36,33.54 53.76,20.64 101.27056581412961,5.443186181476534 L 1280 0 " fill="none" stroke="black" stroke-width="0.1" style="vector-effect:non-scaling-stroke;"/></g><g><path d="M 0 0  L 0 516.000000  c 49.85952094767214,-0.0 124.52735329274377,12.9 106.60735329274377,-20.221397843009722
c -15.36,-57.85349588378855 0,-67.135202962382 21.392646707256233,-67.135202962382
c 20.104157031405663,0 35.46415703140566,18.909031881424823 20.104157031405663,47.40732395430099
c -15.36,33.54 53.76,20.64 107.89584296859434,39.94927685109073 c 71.47993488397849,-0.0 122.46957466694518,12.9 104.54957466694518,-16.14843828911293
c -15.36,-42.50680886452885 0,-65.79254970996898 23.450425333054824,-65.79254970996898
c 33.23797778590168,0 48.597977785901676,58.46282597691369 33.23797778590168,71.25003107352812
c -15.36,33.54 53.76,20.64 94.76202221409832,10.690956925553792 c 70.28500412040827,0.0 119.53170603802396,-12.9 101.61170603802395,13.03427309644792
c -15.36,18.71503318241624 0,69.49905201270406 26.388293961976046,69.49905201270406
c 33.998020562593666,0 49.358020562593666,-36.58853391730456 33.998020562593666,-69.19451700237342
c -15.36,-33.54 53.76,-20.64 94.00197943740633,-13.338808106778558 c 31.53148793199432,-0.0 114.29510537365927,12.9 96.37510537365927,-24.64108000613898
c -15.36,-41.6727260949376 0,-46.12784578905257 31.624894626340733,-46.12784578905257
c 38.61363137553519,0 53.97363137553519,13.728381824687567 38.61363137553519,23.022374926612997
c -15.36,33.54 53.76,20.64 89.38636862446481,47.74655086857855 c 27.647726707673353,-0.0 126.51918942062143,12.9 108.59918942062143,-48.987757498985566
c -15.36,-3.7257150732248863 0,-14.982158377498237 19.40081057937857,-14.982158377498237
c 39.97141451568018,0 55.33141451568018,25.75169864942777 39.97141451568018,32.45469925322943
c -15.36,33.54 53.76,20.64 88.02858548431982,31.515216623254375 L 1280 0 " fill="none" stroke="black" stroke-width="0.1" style="vector-effect:non-scaling-stroke;"/></g></g></svg>