<svg baseProfile="full" height="3333" preserveAspectRatio="none" shape-rendering="geometricPrecision" version="1.1" viewBox="0,0,5000,3333" width="5000" xmlns="http://www.w3.org/2000/svg" xmlns:ev="http://www.w3.org/2001/xml-events" xmlns:xlink="http://www.w3.org/1999/xlink"><title>Jigsaw puzzle piece clips</title><desc>Created with the piecemaker. Piece count: 35</desc><defs /><g><g><rect fill="white" height="3333" width="5000" x="0" y="0" /></g></g><g><g><path d="M 0 0  L 714.285714 0  c -0.0,70.5932905255307 35.714285714285715,299.4112198769136 -106.95404753946084,252.7492198769136&#10;c -60.570907457864486,-39.996 -85.31361941024059,0 -85.31361941024059,80.55078012308641&#10;c 0,47.57623664233603 158.09493709546416,87.57223664233604 166.7674220449113,47.57623664233603&#10;c 92.85714285714286,-39.996 57.142857142857146,139.986 25.500244904790122,285.723763357664 c -0.0,43.918732202993034 35.714285714285715,321.42930737205097 -80.45561734221418,274.767307372051&#10;c -55.186309647841995,-39.996 -125.7221812942327,0 -125.7221812942327,58.53269262794902&#10;c 0,60.900091039443396 86.38864529230067,100.8960910394434 94.7044912337818,60.900091039443396&#10;c 92.85714285714286,-39.996 57.142857142857146,139.986 111.47330740266509,272.3999089605566 c -0.0,46.76830991241417 35.714285714285715,303.96242858786775 -60.79696224222656,257.3004285878677&#10;c -98.2955073449774,-39.996 -110.73605788131738,0 -110.73605788131738,75.9995714121323&#10;c 0,89.32651903193533 24.349811755655054,129.32251903193534 61.81826755392625,89.32651903193533&#10;c 92.85714285714286,-39.996 57.142857142857146,139.986 109.71475256961769,243.97348096806468 c -0.0,163.6077157695799 35.714285714285715,308.5679429319158 -4.453230899323415,261.9059429319158&#10;c -47.63299628848197,-39.996 -185.44480658616445,0 -185.44480658616445,71.39405706808424&#10;c 0,57.752320252474874 21.480988581408106,97.74832025247488 70.73795347441292,57.752320252474874&#10;c 92.85714285714286,-39.996 57.142857142857146,139.986 119.16008401107494,275.54767974752514 c 0.0,44.05605659226533 -35.714285714285715,309.95779059675885 -12.115857708566853,263.2957905967589&#10;c 121.5628572431127,-39.996 217.00925861438935,0 217.00925861438935,70.00420940324113&#10;c 0,92.34911881956913 -98.54834724956171,132.34511881956914 -206.89188820417957,92.34911881956913&#10;c -92.85714285714286,-39.996 -57.142857142857146,139.986 1.9984872983570767,240.95088118043088 L 0 3333 " fill="none" stroke="black" stroke-width="0.1" style="vector-effect:non-scaling-stroke;" /></g><g><path d="M 0 0  L 1428.571429 0  c 0.0,153.97025513603566 -35.714285714285715,325.4593089334562 58.10825300288443,278.7973089334562&#10;c 51.25326650888989,-39.996 159.0234590048508,0 159.0234590048508,54.50269106654383&#10;c 0,55.108734501838626 -91.78721911055045,95.10473450183864 -191.54458011075718,55.108734501838626&#10;c -92.85714285714286,-39.996 -57.142857142857146,139.986 -25.587131896978036,278.1912654981614 c 0.0,180.3000858810188 -35.714285714285715,322.7312075880525 92.70185807728713,276.0692075880525&#10;c 94.50105564959728,-39.996 99.8014979312356,0 99.8014979312356,57.230792411947505&#10;c 0,95.35526652111503 -48.51913487824177,135.35126652111504 -205.1517559799761,95.35526652111503&#10;c -92.85714285714286,-39.996 -57.142857142857146,139.986 12.648399971453358,237.94473347888498 c 0.0,47.983736314876666 -35.714285714285715,324.8455234780879 7.723380825373477,278.1835234780879&#10;c 165.45712112839058,-39.996 177.03324281573623,0 177.03324281573623,55.11647652191209&#10;c 0,55.86844144359992 -20.71679505389752,95.86444144359993 -85.86760346469799,55.86844144359992&#10;c -92.85714285714286,-39.996 -57.142857142857146,139.986 -98.88902017641172,277.4315585564001 c -0.0,95.0946588872439 35.714285714285715,290.9075162587734 -28.334233527871813,244.24551625877342&#10;c -123.18085096405929,-39.996 -204.1159570169536,0 -204.1159570169536,89.05448374122659&#10;c 0,74.76951719808159 90.41121202048947,114.7655171980816 242.06249904895998,74.76951719808159&#10;c 92.85714285714286,-39.996 57.142857142857146,139.986 -9.612308504134575,258.5304828019184 c 0.0,189.06395797073478 -35.714285714285715,311.46722344793193 26.39278486787086,264.80522344793195&#10;c 133.7153601880788,-39.996 163.71220283966144,0 163.71220283966144,68.49477655206806&#10;c 0,76.67696210305877 -156.13302466313596,116.67296210305878 -156.5982586078757,76.67696210305877&#10;c -92.85714285714286,-39.996 -57.142857142857146,139.986 -33.50672909965661,256.62303789694124 L 0 3333 " fill="none" stroke="black" stroke-width="0.1" style="vector-effect:non-scaling-stroke;" /></g><g><path d="M 0 0  L 2142.857143 0  c -0.0,111.16053557716606 35.714285714285715,304.1752235998897 -140.84294909571503,257.5132235998897&#10;c -20.082415643891895,-39.996 -88.39191973907134,0 -88.39191973907134,75.78677640011028&#10;c 0,71.51763593882998 224.2871620801357,111.51363593882999 229.9751691931109,71.51763593882998&#10;c 92.85714285714286,-39.996 57.142857142857146,139.986 -0.7403003583245322,261.78236406117003 c 0.0,147.36138766178945 -35.714285714285715,291.9643491095668 53.87401670102596,245.3023491095668&#10;c 167.30271737731573,-39.996 173.0774049654737,0 173.0774049654737,87.99765089043322&#10;c 0,57.637804737041506 -188.35854659061923,97.63380473704152 -226.84216785810546,57.637804737041506&#10;c -92.85714285714286,-39.996 -57.142857142857146,139.986 -0.1092538083942145,275.6621952629585 c 0.0,101.04747948730683 -35.714285714285715,298.0538128287609 104.94910620243114,251.3918128287609&#10;c 33.017391963930706,-39.996 113.99695133666354,0 113.99695133666354,81.90818717123912&#10;c 0,60.267584600270766 -70.74645562597047,100.26358460027078 -135.2373192885143,60.267584600270766&#10;c -92.85714285714286,-39.996 -57.142857142857146,139.986 -83.70873825058038,273.03241539972925 c 0.0,49.281566764372464 -35.714285714285715,329.15678316074354 57.019216006389115,282.4947831607435&#10;c 185.4816680689276,-39.996 185.6172145417039,0 185.6172145417039,50.8052168392565&#10;c 0,102.33487988460752 -76.62767391766316,142.33087988460753 -112.72574820747226,102.33487988460752&#10;c -92.85714285714286,-39.996 -57.142857142857146,139.986 -129.91068234062075,230.9651201153925 c -0.0,181.55977714402795 35.714285714285715,285.3130039879217 -75.39418832185422,238.6510039879217&#10;c -30.759437452936545,-39.996 -126.60623594022678,0 -126.60623594022678,94.6489960120783&#10;c 0,47.42805753693568 41.759912693875194,87.42405753693569 51.890001641720545,47.42805753693568&#10;c 92.85714285714286,-39.996 57.142857142857146,139.986 150.11042262036045,285.87194246306433 L 0 3333 " fill="none" stroke="black" stroke-width="0.1" style="vector-effect:non-scaling-stroke;" /></g><g><path d="M 0 0  L 2857.142857 0  c -0.0,151.81943796677993 35.714285714285715,314.2823149336202 -154.7359670074089,267.6203149336202&#10;c -13.651254824040153,-39.996 -51.64237206960189,0 -51.64237206960189,65.67968506637982&#10;c 0,47.62078230302791 68.1718731502575,87.61678230302792 105.62392403853238,47.62078230302791&#10;c 92.85714285714286,-39.996 57.142857142857146,139.986 100.75441503847841,285.6792176969721 c 0.0,133.48996840048258 -35.714285714285715,320.4971780771673 147.6620558717654,273.8351780771673&#10;c 20.138289445288013,-39.996 76.93643968507595,0 76.93643968507595,59.4648219228327&#10;c 0,91.83337412255514 -34.281154047569125,131.82937412255515 -96.13622089532564,91.83337412255514&#10;c -92.85714285714286,-39.996 -57.142857142857146,139.986 -128.46227466151572,241.46662587744487 c -0.0,174.85762997044657 35.714285714285715,292.4594684796066 -143.79863503590943,245.79746847960658&#10;c -21.48269694581872,-39.996 -62.47649763588771,0 -62.47649763588771,87.50253152039343&#10;c 0,92.19294187199318 68.9025136863657,132.1889418719932 179.5782207409522,92.19294187199318&#10;c 92.85714285714286,-39.996 57.142857142857146,139.986 26.696911930844948,241.10705812800683 c 0.0,61.246610158139006 -35.714285714285715,326.07118724428176 149.6690185742375,279.4091872442817&#10;c 17.70355861180779,-39.996 61.8229431893987,0 61.8229431893987,53.89081275571829&#10;c 0,56.16483423744393 -80.44827271719446,96.16083423744394 -149.14999651714353,56.16483423744393&#10;c -92.85714285714286,-39.996 -57.142857142857146,139.986 -62.34196524649266,277.1351657625561 c 0.0,127.88481400236728 -35.714285714285715,309.8869918111536 40.76905383377862,263.2249918111536&#10;c 146.13161041478747,-39.996 147.54381304500058,0 147.54381304500058,70.07500818884643&#10;c 0,50.66960779368952 -148.83601738160135,90.66560779368953 -163.46697562109273,50.66960779368952&#10;c -92.85714285714286,-39.996 -57.142857142857146,139.986 -24.845891257686475,282.6303922063105 L 0 3333 " fill="none" stroke="black" stroke-width="0.1" style="vector-effect:non-scaling-stroke;" /></g><g><path d="M 0 0  L 3571.428571 0  c -0.0,140.20841532827995 35.714285714285715,304.7012658009228 -24.33208375874456,258.0392658009228&#10;c -118.53042359310054,-39.996 -186.01079697548136,0 -186.01079697548136,75.2607341990772&#10;c 0,74.56373416522587 47.55786013341159,114.55973416522588 89.0635829874181,74.56373416522587&#10;c 92.85714285714286,-39.996 57.142857142857146,139.986 121.2792977468078,258.73626583477414 c -0.0,75.45126557690507 35.714285714285715,308.8267418241593 -60.724730976381366,262.1647418241593&#10;c -76.33548527782055,-39.996 -136.9392563365853,0 -136.9392563365853,71.1352581758407&#10;c 0,84.73579972969395 46.22519965340575,124.73179972969396 194.72522043848613,84.73579972969395&#10;c 92.85714285714286,-39.996 57.142857142857146,139.986 2.938766874480507,248.56420027030606 c -0.0,85.19567093276753 35.714285714285715,331.94253219470056 -5.460247974360107,285.2805321947006&#10;c -130.60439625995633,-39.996 -199.2377673377563,0 -199.2377673377563,48.01946780529943&#10;c 0,66.6394036251757 111.58179352432546,106.63540362517571 120.6744436892143,66.6394036251757&#10;c 92.85714285714286,-39.996 57.142857142857146,139.986 84.02357162290211,266.6605963748243 c -0.0,184.8527133026523 35.714285714285715,304.75964741051826 -7.449279031477207,258.0976474105183&#10;c -154.8094080826337,-39.996 -179.76599414145156,0 -179.76599414145156,75.20235258948173&#10;c 0,98.41548434733585 30.181840321496903,138.41148434733586 60.82151468733936,98.41548434733585&#10;c 92.85714285714286,-39.996 57.142857142857146,139.986 126.3937584855894,234.88451565266416 c -0.0,120.9747896419122 35.714285714285715,292.27377438513975 -80.92039042892242,245.61177438513974&#10;c -100.96974684213721,-39.996 -151.5192648907888,0 -151.5192648907888,87.68822561486027&#10;c 0,64.40551283891631 149.72626601432628,104.40151283891632 219.66941933933947,64.40551283891631&#10;c 92.85714285714286,-39.996 57.142857142857146,139.986 12.770235980371751,268.8944871610837 L 0 3333 " fill="none" stroke="black" stroke-width="0.1" style="vector-effect:non-scaling-stroke;" /></g><g><path d="M 0 0  L 4285.714286 0  c 0.0,144.98003586481167 -35.714285714285715,319.22941516745755 149.56642678416384,272.56741516745757&#10;c 45.500916003611415,-39.996 65.72756452932134,0 65.72756452932134,60.73258483254244&#10;c 0,60.444677207234804 -86.45850730379566,100.44067720723481 -138.99640426943415,60.444677207234804&#10;c -92.85714285714286,-39.996 -57.142857142857146,139.986 -76.29758704405103,272.8553227927652 c 0.0,117.81710444778182 -35.714285714285715,281.8834706639827 109.6888766520367,235.22147066398267&#10;c 104.27316966534403,-39.996 120.4684307248171,0 120.4684307248171,98.07852933601734&#10;c 0,82.74516209361269 -146.03773728785683,122.7411620936127 -149.0161862743593,82.74516209361269&#10;c -92.85714285714286,-39.996 -57.142857142857146,139.986 -81.14112110249448,250.55483790638732 c -0.0,46.27012963950784 35.714285714285715,305.8445342813592 -129.54978417280688,259.1825342813592&#10;c -63.81578877433609,-39.996 -72.33850945619233,0 -72.33850945619233,74.1174657186408&#10;c 0,73.13494289573418 108.51564588909471,113.1309428957342 148.2912201736426,73.13494289573418&#10;c 92.85714285714286,-39.996 57.142857142857146,139.986 53.59707345535659,260.1650571042658 c 0.0,184.42019919253786 -35.714285714285715,296.9453282337203 59.436650299779586,250.2833282337203&#10;c 110.18183783577472,-39.996 130.5181403289405,0 130.5181403289405,83.0166717662797&#10;c 0,47.564629964037806 -194.62598381540352,87.56062996403782 -193.48586190808552,47.564629964037806&#10;c -92.85714285714286,-39.996 -57.142857142857146,139.986 3.531071279365449,285.7353700359622 c 0.0,38.5257813419287 -35.714285714285715,299.20133433668553 -11.961517591973317,252.53933433668553&#10;c 72.58906657984105,-39.996 209.56700536887251,0 209.56700536887251,80.76066566331448&#10;c 0,81.36333721416224 -92.90175909062847,121.35933721416225 -120.54305853589645,81.36333721416224&#10;c -92.85714285714286,-39.996 -57.142857142857146,139.986 -77.06242924100275,251.93666278583777 L 0 3333 " fill="none" stroke="black" stroke-width="0.1" style="vector-effect:non-scaling-stroke;" /></g></g><g><g><path d="M 0 0  L 0 666.600000  c 58.64500451986279,0.0 315.1532104302412,-33.330000000000005 265.1532104302412,9.492601361919542&#10;c -42.85714285714286,81.1761542695902 0,173.4629085246227 91.98964671261598,173.4629085246227&#10;c 99.710680644224,0 142.56782350136686,-133.46984743760316 99.710680644224,-133.71614849677377&#10;c -42.85714285714286,-86.658 150.0,-53.328 257.43217649863317,-49.239361389768476 c 80.08477156643863,0.0 338.88539745557443,-33.330000000000005 288.88539745557443,79.0706423788904&#10;c -42.85714285714286,88.5592155454404 0,122.6421782860759 68.25745968728273,122.6421782860759&#10;c 97.13685403648088,0 139.99399689362374,-73.99634036221632 97.13685403648088,-121.58800582819244&#10;c -42.85714285714286,-86.658 150.0,-53.328 260.0060031063763,-80.12481483677387 c 112.1052831058998,-0.0 344.7511147260278,33.330000000000005 294.7511147260278,5.265515377374173&#10;c -42.85714285714286,-139.0059616342333 0,-196.19883797762498 62.391742416829345,-196.19883797762498&#10;c 51.306568060609266,0 94.16371091775213,109.4127022310809 51.306568060609266,158.25795608257081&#10;c -42.85714285714286,86.658 150.0,53.328 305.8362890822479,32.675366517679976 c 146.4169331059886,0.0 354.9177840636502,-33.330000000000005 304.9177840636502,108.63530295687569&#10;c -42.85714285714286,76.75229612498978 0,80.87677633276881 52.22507307920699,80.87677633276881&#10;c 77.72251331927174,0 120.5796561764146,-104.94087358108716 77.72251331927174,-112.30575944499255&#10;c -42.85714285714286,-86.658 150.0,-53.328 279.4203438235854,-77.20631984465196 c 41.496528072468124,0.0 328.8935485866429,-33.330000000000005 278.8935485866429,79.4168348222207&#10;c -42.85714285714286,56.02225813516191 0,95.79234203422445 78.24930855621426,95.79234203422445&#10;c 67.93921546933717,0 110.79635832648003,-93.3703611190087 67.93921546933717,-166.03009368472365&#10;c -42.85714285714286,-86.658 150.0,-53.328 289.20364167352,-9.179083171721487 c 138.92430030100735,0.0 349.55200923317915,-33.330000000000005 299.55200923317915,29.79805374187807&#10;c -42.85714285714286,36.67556756219088 0,149.349044639035 57.59084790967802,149.349044639035&#10;c 95.69844487586812,0 138.55558773301098,-77.03015626031687 95.69844487586812,-190.0868795222869&#10;c -42.85714285714286,-86.658 150.0,-53.328 261.44441226698905,10.939781141373828 c 145.6894572122843,-0.0 342.9859825950509,33.330000000000005 292.9859825950509,-109.24889497642774&#10;c -42.85714285714286,-50.40747768760186 0,-66.04059461775897 64.15687454780624,-66.04059461775897&#10;c 67.71768929008067,0 110.57483214722353,139.33032989409304 67.71768929008067,169.56894429649256&#10;c -42.85714285714286,86.658 150.0,53.328 289.4251678527765,5.720545297694144 L 5000 0 " fill="none" stroke="black" stroke-width="0.1" style="vector-effect:non-scaling-stroke;" /></g><g><path d="M 0 0  L 0 1333.200000  c 154.14449204143997,0.0 316.48554516330717,-33.330000000000005 266.48554516330717,-8.698867958042655&#10;c -42.85714285714286,107.48645150698047 0,193.33381023451278 90.65731197955,193.33381023451278&#10;c 68.03889801408098,0 110.89604087122385,-65.65018142768155 68.03889801408098,-166.01589296783987&#10;c -42.85714285714286,-86.658 150.0,-53.328 289.1039591287762,-18.619049308630252 c 68.00694967644851,0.0 332.56617886535446,-33.330000000000005 282.56617886535446,137.10989261947893&#10;c -42.85714285714286,29.374279956787902 0,52.271807906405115 74.57667827750271,52.271807906405115&#10;c 107.38650400274372,0 150.24364685988658,-71.23250829649479 107.38650400274372,-116.50016389095865&#10;c -42.85714285714286,-86.658 150.0,-53.328 249.75635314011345,-72.8815366349254 c 41.55084991707032,0.0 343.22367502011065,-33.330000000000005 293.22367502011065,81.22316863293342&#10;c -42.85714285714286,97.07591505733633 0,109.12116792587743 63.91918212274652,109.12116792587743&#10;c 99.96545252113896,0 142.82259537828182,-65.61937231589059 99.96545252113896,-138.93410777161108&#10;c -42.85714285714286,-86.658 150.0,-53.328 257.1774046217182,-51.41022878719977 c 200.90866027704342,-0.0 341.1876679134889,33.330000000000005 291.1876679134889,-72.92257552479256&#10;c -42.85714285714286,-38.088879983258444 0,-131.42184263727225 65.95518922936827,-131.42184263727225&#10;c 60.089403394176315,0 102.94654625131918,62.11564348753169 60.089403394176315,198.2554418940751&#10;c -42.85714285714286,86.658 150.0,53.328 297.05345374868085,6.088976267989722 c 137.3817273557674,-0.0 303.248882665732,33.330000000000005 253.248882665732,10.237992035877069&#10;c -42.85714285714286,-133.46131217282172 0,-232.32872354387268 103.89397447712517,-232.32872354387268&#10;c 80.09037081058727,0 122.94751366773014,38.1164658012887 80.09037081058727,78.22508912129862&#10;c -42.85714285714286,86.658 150.0,53.328 277.0524863322699,143.865642386697 c 200.75902404086455,-0.0 304.71819444910267,33.330000000000005 254.71819444910267,-59.51070457785739&#10;c -42.85714285714286,-87.63004067312248 0,-133.6474478403476 102.4246626937545,-133.6474478403476&#10;c 59.19700691639093,0 102.0541497735338,93.04372276094264 59.19700691639093,183.07396408365287&#10;c -42.85714285714286,86.658 150.0,53.328 297.94585022646623,10.084188334552124 c 91.53916458881302,-0.0 338.57192334563507,33.330000000000005 288.57192334563507,-76.39634884246098&#10;c -42.85714285714286,-110.9272352017016 0,-128.64182614124283 68.5709337972221,-128.64182614124283&#10;c 73.06022620307141,0 115.91736906021427,49.850387132426334 73.06022620307141,87.53584656784626&#10;c -42.85714285714286,86.658 150.0,53.328 284.08263093978576,117.50232841585755 L 5000 0 " fill="none" stroke="black" stroke-width="0.1" style="vector-effect:non-scaling-stroke;" /></g><g><path d="M 0 0  L 0 1999.800000  c 142.84845943145208,0.0 319.25589833675065,-33.330000000000005 269.25589833675065,103.1798795975433&#10;c -42.85714285714286,65.900976859927 0,119.82565558320223 87.88695880610652,119.82565558320223&#10;c 90.13679811152423,0 132.9939409686671,-166.79099622577982 90.13679811152423,-194.5393831471822&#10;c -42.85714285714286,-86.658 150.0,-53.328 267.00605903133294,-28.466152033563333 c 41.10336866297493,0.0 328.794533917094,-33.330000000000005 278.794533917094,114.80226438916783&#10;c -42.85714285714286,15.225747285356691 0,66.30531207211315 78.34832322576318,66.30531207211315&#10;c 73.00370325609725,0 115.86084611324011,-113.85348414651662 73.00370325609725,-170.39186243015342&#10;c -42.85714285714286,-86.658 150.0,-53.328 284.1391538867599,-10.715714031127561 c 58.51853328445729,-0.0 333.2076733755197,33.330000000000005 283.2076733755197,-50.81907225784924&#10;c -42.85714285714286,-132.8678970991269 0,-171.30412209959974 73.93518376733749,-171.30412209959974&#10;c 91.09144648808245,0 133.94858934522532,22.09184994988507 91.09144648808245,83.9152977906125&#10;c -42.85714285714286,86.658 150.0,53.328 266.0514106547747,138.2078965668365 c 167.8862313588572,-0.0 324.5955416480281,33.330000000000005 274.5955416480281,-143.45663709456454&#10;c -42.85714285714286,-44.2556987064044 0,-76.54565249059661 82.54731549482909,-76.54565249059661&#10;c 50.90343486474484,0 93.7605777218877,47.56258801288381 50.90343486474484,149.70919316481883&#10;c -42.85714285714286,86.658 150.0,53.328 306.23942227811233,70.29309642034232 c 94.58376496545577,0.0 342.0249237467806,-33.330000000000005 292.0249237467806,128.87881268458094&#10;c -42.85714285714286,27.435953458406164 0,47.45798190132524 65.11793339607658,47.45798190132524&#10;c 86.95163755794988,0 129.80878041509274,-150.21996788230672 86.95163755794988,-174.38534248874265&#10;c -42.85714285714286,-86.658 150.0,-53.328 270.1912195849073,-1.951452097163525 c 167.98151354175513,-0.0 349.1030125948338,33.330000000000005 299.1030125948338,-66.25333098269297&#10;c -42.85714285714286,-38.473133882889904 0,-116.19823445231393 58.03984454802338,-116.19823445231393&#10;c 67.89219993511313,0 110.74934279225599,24.951372532178414 67.89219993511313,69.71487152901246&#10;c -42.85714285714286,86.658 150.0,53.328 289.25065720774404,112.73669390599444 c 157.7827979958546,0.0 339.6446493496475,-33.330000000000005 289.6446493496475,48.27117364682425&#10;c -42.85714285714286,80.16873651672564 0,135.15128654968086 67.49820779320964,135.15128654968086&#10;c 64.20074467116984,0 107.0578875283127,-54.953377561141494 64.20074467116984,-75.15334586496748&#10;c -42.85714285714286,-86.658 150.0,-53.328 292.9421124716873,-108.26911433153764 L 5000 0 " fill="none" stroke="black" stroke-width="0.1" style="vector-effect:non-scaling-stroke;" /></g><g><path d="M 0 0  L 0 2666.400000  c 69.69943723251174,0.0 304.9274420175488,-33.330000000000005 254.92744201754877,85.16831685640499&#10;c -42.85714285714286,112.59604456109321 0,118.71745641562195 102.2154151253084,118.71745641562195&#10;c 81.37886454479337,0 124.23600740193623,-166.01975289108432 81.37886454479337,-199.53830318779674&#10;c -42.85714285714286,-86.658 150.0,-53.328 275.7639925980638,-4.347470084230196 c 41.8785043921643,0.0 317.43692262967363,-33.330000000000005 267.43692262967363,66.5458881645928&#10;c -42.85714285714286,111.3073842340414 0,142.16069755577155 89.70593451318354,142.16069755577155&#10;c 106.64452340269185,0 149.5016662598347,-84.97598439648957 106.64452340269185,-204.52407181637486&#10;c -42.85714285714286,-86.658 150.0,-53.328 250.49833374016532,-4.182513903989474 c 115.87291026455965,0.0 325.90437566625707,-33.330000000000005 275.90437566625707,16.522182275441864&#10;c -42.85714285714286,95.0788364489574 0,196.9537482601287 81.2384814766001,196.9537482601287&#10;c 69.66735595613886,0 112.52449881328172,-30.47949802408273 69.66735595613886,-72.80485411085195&#10;c -42.85714285714286,-86.658 150.0,-53.328 287.4755011867183,-140.67107642471862 c 159.40085049829776,0.0 324.6220061300312,-33.330000000000005 274.6220061300312,116.47464911030035&#10;c -42.85714285714286,47.977058718415805 0,65.1093901217079 82.52085101282597,65.1093901217079&#10;c 95.40594591079662,0 138.26308876793948,-22.156949784187763 95.40594591079662,-52.61331859330821&#10;c -42.85714285714286,-86.658 150.0,-53.328 261.73691123206055,-128.97072063870004 c 185.73839368033507,-0.0 299.0595959276317,33.330000000000005 249.05959592763168,-8.013044429122557&#10;c -42.85714285714286,-105.74395995007042 0,-173.16461610274095 108.08326121522549,-173.16461610274095&#10;c 82.0039386811398,0 124.86108153828266,69.01064037483786 82.0039386811398,161.18080294983892&#10;c -42.85714285714286,86.658 150.0,53.328 275.13891846171737,19.996857582024575 c 189.69471865715204,0.0 347.9812089688978,-33.330000000000005 297.9812089688978,92.9180400782665&#10;c -42.85714285714286,38.236552028535066 0,123.83569593937185 59.16164817395935,123.83569593937185&#10;c 103.92709622947899,0 146.78423908662185,-84.59015240726387 103.92709622947899,-229.5063707266685&#10;c -42.85714285714286,-86.658 150.0,-53.328 253.21576091337818,12.752634709030161 c 99.34512695675889,0.0 343.13950494825866,-33.330000000000005 293.13950494825866,40.76624932805108&#10;c -42.85714285714286,51.468003859890544 0,142.95269619303207 64.0033521945985,142.95269619303207&#10;c 99.28335401699098,0 142.14049687413385,-13.341626396087516 99.28335401699098,-52.605217535253644&#10;c -42.85714285714286,-86.658 150.0,-53.328 257.8595031258662,-131.1137279858295 L 5000 0 " fill="none" stroke="black" stroke-width="0.1" style="vector-effect:non-scaling-stroke;" /></g></g></svg>