<svg baseProfile="full" height="1280" preserveAspectRatio="none" shape-rendering="geometricPrecision" version="1.1" viewBox="0,0,1280,1280" width="1280" xmlns="http://www.w3.org/2000/svg" xmlns:ev="http://www.w3.org/2001/xml-events" xmlns:xlink="http://www.w3.org/1999/xlink"><title>Jigsaw puzzle piece clips</title><desc>Created with the piecemaker. Piece count: 36</desc><defs /><g><g><rect fill="white" height="1280" width="1280" x="0" y="0" /></g></g><g><g><path d="M 0 0  L 213.333333 0  c -0.0,41.19794398539625 10.666666666666668,94.39938334939974 -44.619903674064524,79.4660500160664&#10;c -18.621421835496907,-12.8 -26.020104600348,0 -26.020104600348,27.200616650600267&#10;c 0,26.718023276000636 8.059118021377975,39.51802327600063 24.093295681092926,26.718023276000636&#10;c 27.733333333333334,-12.8 17.066666666666666,44.8 46.5467125933196,79.94864339066604 c 0.0,41.31957840276209 -10.666666666666668,89.03013420390057 14.961333906024619,74.09680087056724&#10;c 14.869982187117815,-12.8 39.401614849954804,0 39.401614849954804,32.569865796099435&#10;c 0,25.383852808464482 -6.167166774393989,38.18385280846448 -8.558665488877502,25.383852808464482&#10;c -27.733333333333334,-12.8 -17.066666666666666,44.8 -45.80428326710192,81.28281385820219 c 0.0,22.82030256335896 -10.666666666666668,95.38826093076544 42.7657297990663,80.4549275974321&#10;c 21.501035719817295,-12.8 29.50581313067527,0 29.50581313067527,26.211739069234568&#10;c 0,24.027915735026696 -28.013072119444168,36.82791573502669 -45.87866283399616,24.027915735026696&#10;c -27.733333333333334,-12.8 -17.066666666666666,44.8 -26.39288009574541,82.63875093163998 c -0.0,59.9462520559174 10.666666666666668,101.93284886940106 -7.422531924451507,86.99951553606772&#10;c -49.79958421289933,-12.8 -49.853742310361774,0 -49.853742310361774,19.667151130598953&#10;c 0,27.816496382507708 29.004383310970226,40.616496382507705 55.869128019526954,27.816496382507708&#10;c 27.733333333333334,-12.8 17.066666666666666,44.8 1.4071462152863248,78.85017028415896 c -0.0,45.41500848351987 10.666666666666668,95.12924555369007 -5.308642055355389,80.19591222035673&#10;c -35.894354342695344,-12.8 -62.00947447874353,0 -62.00947447874353,26.47075444630994&#10;c 0,16.189261386240645 16.23857381062565,28.989261386240646 68.52678866216417,16.189261386240645&#10;c 27.733333333333334,-12.8 17.066666666666666,44.8 -1.2086721280652455,90.47740528042603 c -0.0,28.03108440081592 10.666666666666668,104.90248985641983 -42.17264857414658,89.9691565230865&#10;c -16.8441931730858,-12.8 -20.1570375438724,0 -20.1570375438724,16.697510143580175&#10;c 0,28.838864991918584 14.891747904192172,41.63886499191858 45.164470775943215,28.838864991918584&#10;c 27.733333333333334,-12.8 17.066666666666666,44.8 17.16521534207576,77.82780167474809 L 0 1280 " fill="none" stroke="black" stroke-width="0.1" style="vector-effect:non-scaling-stroke;" /></g><g><path d="M 0 0  L 426.666667 0  c 0.0,12.670921281169688 -10.666666666666668,93.75471697702952 8.821501740299897,78.82138364369618&#10;c 26.029072595015727,-12.8 60.805468524759945,0 60.805468524759945,27.84528302297049&#10;c 0,21.504606657081965 -24.140103062229077,34.30460665708196 -50.371683093986746,21.504606657081965&#10;c -27.733333333333334,-12.8 -17.066666666666666,44.8 -19.255287171073093,85.1620600095847 c -0.0,16.65701275492858 10.666666666666668,93.76590765501577 -34.445868387804396,78.83257432168243&#10;c -25.311616518185545,-12.8 -26.616229292108002,0 -26.616229292108002,27.834092344984242&#10;c 0,24.728708960535315 29.297041791223702,37.52870896053531 48.4835501157231,24.728708960535315&#10;c 27.733333333333334,-12.8 17.066666666666666,44.8 12.5785475641893,81.93795770613136 c 0.0,44.545793790354075 -10.666666666666668,100.30359429607043 30.10009457753111,85.37026096273709&#10;c 14.823601334016338,-12.8 33.26842300364372,0 33.26842300364372,21.29640570392958&#10;c 0,24.003064382860472 -48.635589942594216,36.80306438286047 -57.363447637842285,24.003064382860472&#10;c -27.733333333333334,-12.8 -17.066666666666666,44.8 -6.005069943332543,82.6636022838062 c 0.0,49.34247510266182 -10.666666666666668,102.73335178188607 39.06845614111199,87.80001844855273&#10;c 20.86306073810668,-12.8 24.969650508467232,0 24.969650508467232,18.866648218113937&#10;c 0,19.42556261761976 -22.998454573558938,32.22556261761976 -52.44496859579641,19.42556261761976&#10;c -27.733333333333334,-12.8 -17.066666666666666,44.8 -11.593138053782809,87.24110404904691 c -0.0,38.30403778116178 10.666666666666668,90.97241383867365 -10.430412519573578,76.03908050534031&#10;c -31.41531594191135,-12.8 -43.2330410116212,0 -43.2330410116212,30.627586161326363&#10;c 0,26.11623730522298 47.357250456562866,38.91623730522298 55.66540395116595,26.11623730522298&#10;c 27.733333333333334,-12.8 17.066666666666666,44.8 -2.0019504199711733,80.55042936144369 c -0.0,31.074992541299338 10.666666666666668,102.60152936536272 -5.659968316034253,87.66819603202939&#10;c -36.130998215202816,-12.8 -54.454817705611006,0 -54.454817705611006,18.998470634637286&#10;c 0,25.465967478649233 18.396542559958853,38.26596747864923 42.36118326418606,25.465967478649233&#10;c 27.733333333333334,-12.8 17.066666666666666,44.8 17.7536027574592,81.20069918801744 L 0 1280 " fill="none" stroke="black" stroke-width="0.1" style="vector-effect:non-scaling-stroke;" /></g><g><path d="M 0 0  L 640.000000 0  c 0.0,52.103037331076 -10.666666666666668,100.73864517698816 35.06413646868835,85.80531184365482&#10;c 13.852397427236378,-12.8 20.309570294647486,0 20.309570294647486,20.86135482301185&#10;c 0,26.55105657645693 -39.06444448409518,39.35105657645693 -53.524463374215735,26.55105657645693&#10;c -27.733333333333334,-12.8 -17.066666666666666,44.8 -1.8492433891201046,80.11561009020974 c -0.0,42.50565751015601 10.666666666666668,92.29001157421403 -25.415473839188913,77.3566782408807&#10;c -14.307600411193937,-12.8 -37.08229301402647,0 -37.08229301402647,29.309988425785974&#10;c 0,15.831005452947622 15.761170533058879,28.631005452947623 21.85195402482678,15.831005452947622&#10;c 27.733333333333334,-12.8 17.066666666666666,44.8 40.6458128283886,90.83566121371905 c -0.0,32.3071115748446 10.666666666666668,99.06244852733056 -33.91307816366551,84.12911519399722&#10;c -33.78705333536479,-12.8 -35.419870065771086,0 -35.419870065771086,22.53755147266945&#10;c 0,25.319173524246267 23.412981271149373,38.119173524246264 26.785977402689838,25.319173524246267&#10;c 27.733333333333334,-12.8 17.066666666666666,44.8 42.54697082674676,81.3474931424204 c 0.0,19.28415075505619 -10.666666666666668,92.1662235555163 15.310229836855765,77.23289022218296&#10;c 39.88832091207929,-12.8 52.9021997412807,0 52.9021997412807,29.433776444483712&#10;c 0,31.354056224017015 -35.35715450548655,44.15405622401701 -37.292897674993924,31.354056224017015&#10;c -27.733333333333334,-12.8 -17.066666666666666,44.8 -30.91953190314254,75.31261044264966 c 0.0,43.66135753094784 -10.666666666666668,106.56986427622468 26.96724729257774,91.63653094289134&#10;c 12.491534384148286,-12.8 29.283413100907524,0 29.283413100907524,15.03013572377533&#10;c 0,31.82224515235511 -16.374196420091966,44.622245152355106 -24.577347670638755,31.82224515235511&#10;c -27.733333333333334,-12.8 -17.066666666666666,44.8 -31.673312722846507,74.84442151431156 c -0.0,18.95432688992798 10.666666666666668,102.35997211781823 -24.46265819569215,87.4266387844849&#10;c -15.56783087815691,-12.8 -32.9250177720519,0 -32.9250177720519,19.240027882181778&#10;c 0,31.94963794239628 35.71390350635257,44.74963794239628 39.73610961990104,31.94963794239628&#10;c 27.733333333333334,-12.8 17.066666666666666,44.8 17.65156634784301,74.71702872427039 L 0 1280 " fill="none" stroke="black" stroke-width="0.1" style="vector-effect:non-scaling-stroke;" /></g><g><path d="M 0 0  L 853.333333 0  c -0.0,40.063660397760096 10.666666666666668,101.35258869368867 -17.83628269419815,86.41925536035534&#10;c -36.61057391641842,-12.8 -37.503396834998384,0 -37.503396834998384,20.247411306311335&#10;c 0,30.98334474087393 9.962342491894091,43.78334474087393 43.67433647032668,30.98334474087393&#10;c 27.733333333333334,-12.8 17.066666666666666,44.8 11.665343058869851,75.68332192579274 c -0.0,45.54010316529716 10.666666666666668,102.83261545001623 -10.352761495396988,87.8992821166829&#10;c -45.52134507703399,-12.8 -54.348254098346814,0 -54.348254098346814,18.767384549983774&#10;c 0,18.85147058251566 39.91835877106965,31.65147058251566 43.08960054315207,18.85147058251566&#10;c 27.733333333333334,-12.8 17.066666666666666,44.8 21.61141505059173,87.81519608415101 c 0.0,33.06403472184587 -10.666666666666668,91.62939563768992 8.932467680803178,76.69606230435659&#10;c 31.72733506024952,-12.8 53.124791716578514,0 53.124791716578514,29.970604362310084&#10;c 0,16.450965702891338 -15.16226583671497,29.25096570289134 -57.89239718071695,16.450965702891338&#10;c -27.733333333333334,-12.8 -17.066666666666666,44.8 -4.164862216664744,90.21570096377533 c 0.0,49.68853532460016 -10.666666666666668,103.74592978382053 -4.116576795591094,88.81259645048719&#10;c 35.88045767726877,-12.8 72.98031744647085,0 72.98031744647085,17.85407021617948&#10;c 0,15.487642391503059 -21.997868412838255,28.28764239150306 -22.570949407972677,15.487642391503059&#10;c -27.733333333333334,-12.8 -17.066666666666666,44.8 -46.29279124290707,91.17902427516361 c -0.0,39.07923822832135 10.666666666666668,93.26959627176146 -2.0429038567098097,78.33626293842812&#10;c -37.80927309249073,-12.8 -69.87991379899215,0 -69.87991379899215,28.33040372823855&#10;c 0,30.834972260848318 20.12596219587148,43.634972260848315 26.78018108935195,30.834972260848318&#10;c 27.733333333333334,-12.8 17.066666666666666,44.8 45.14263656635001,75.83169440581835 c 0.0,41.652851286640804 -10.666666666666668,87.72466406986915 30.751104735453385,72.79133073653581&#10;c 10.750678736152384,-12.8 31.89315213304784,0 31.89315213304784,33.87533593013086&#10;c 0,17.912988373307243 -26.5248115141233,30.712988373307244 -62.491239334175596,17.912988373307243&#10;c -27.733333333333334,-12.8 -17.066666666666666,44.8 -0.15301753432562748,88.75367829335943 L 0 1280 " fill="none" stroke="black" stroke-width="0.1" style="vector-effect:non-scaling-stroke;" /></g><g><path d="M 0 0  L 1066.666667 0  c 0.0,40.73935712251956 -10.666666666666668,102.59951608281251 23.558055530317578,87.66618274947918&#10;c 10.292435085055917,-12.8 28.690158801382385,0 28.690158801382385,19.000483917187495&#10;c 0,21.641458375163026 -13.60739906748014,34.44145837516302 -14.854040194763058,21.641458375163026&#10;c -27.733333333333334,-12.8 -17.066666666666666,44.8 -37.394174136936904,85.02520829150365 c 0.0,35.93850295353183 -10.666666666666668,92.94358833543134 7.647379876551028,78.010255002098&#10;c 64.26723839280116,-12.8 64.52445133795501,0 64.52445133795501,28.656411664568665&#10;c 0,24.632796789538972 -52.20947097114221,37.43279678953897 -55.44991891462966,24.632796789538972&#10;c -27.733333333333334,-12.8 -17.066666666666666,44.8 -16.72191229987638,82.0338698771277 c 0.0,29.88899980430217 -10.666666666666668,91.01493272163015 12.5878683855487,76.08159938829681&#10;c 33.788005549645,-12.8 46.81739782616011,0 46.81739782616011,30.585067278369863&#10;c 0,23.963687640025867 -6.714701928542222,36.763687640025864 -29.357328119514218,23.963687640025867&#10;c -27.733333333333334,-12.8 -17.066666666666666,44.8 -30.047938092194595,82.7029790266408 c 0.0,48.33018450332979 -10.666666666666668,96.8590133906019 46.044317555175105,81.92568005726856&#10;c 2.3274795760483165,-12.8 8.58433065414961,0 8.58433065414961,24.740986609398107&#10;c 0,27.156345038352626 -15.375258653891194,39.95634503835262 -29.853538384854982,27.156345038352626&#10;c -27.733333333333334,-12.8 -17.066666666666666,44.8 -24.775109824469734,79.51032162831405 c -0.0,57.94109320680961 10.666666666666668,99.34388148562665 -30.360846835179505,84.41054815229332&#10;c -31.88578004390008,-12.8 -32.922897153403454,0 -32.922897153403454,22.256118514373355&#10;c 0,21.059811105061925 27.087479117079642,33.85981110506192 37.855432091639585,21.059811105061925&#10;c 27.733333333333334,-12.8 17.066666666666666,44.8 25.42831189694337,85.60685556160475 c 0.0,24.80428275762927 -10.666666666666668,104.62694635043549 42.09899304111139,89.69361301710215&#10;c 11.027737900706274,-12.8 26.329161887811104,0 26.329161887811104,16.97305364956452&#10;c 0,22.57480428635192 -24.543416096445643,35.37480428635192 -44.43316886138497,22.57480428635192&#10;c -27.733333333333334,-12.8 -17.066666666666666,44.8 -23.994986067537525,84.09186238031475 L 0 1280 " fill="none" stroke="black" stroke-width="0.1" style="vector-effect:non-scaling-stroke;" /></g></g><g><g><path d="M 0 0  L 0 213.333333  c 46.15353167733703,0.0 103.4359810482012,-10.666666666666668 88.50264771486786,10.1259528578001&#10;c -12.8,16.62017596904035 0,47.5092748371547 18.16401895179881,47.5092748371547&#10;c 25.207754553672302,0 38.0077545536723,-9.124176455306243 25.207754553672302,-15.962652231165471&#10;c -12.8,-27.733333333333334 44.8,-17.066666666666666 81.45891211299437,-41.67257546378933 c 39.0589858852841,0.0 99.76022777479002,-10.666666666666668 84.82689444145669,44.06617191623702&#10;c -12.8,12.000686686004277 0,15.296192240159428 21.839772225209984,15.296192240159428&#10;c 25.416525395457953,0 38.21652539545795,-38.41134163722422 25.416525395457953,-49.62716771749005&#10;c -12.8,-27.733333333333334 44.8,-17.066666666666666 81.25014127120872,-9.735196438906392 c 37.57850833003942,0.0 98.89526428231557,-10.666666666666668 83.96193094898223,2.3535736982405204&#10;c -12.8,66.68698761715619 0,69.10085177765691 22.704735717684443,69.10085177765691&#10;c 27.696277259929516,0 40.49627725992951,-22.573622644802004 27.696277259929516,-68.0743298845956&#10;c -12.8,-27.733333333333334 44.8,-17.066666666666666 78.97038940673716,-3.3800955913018385 c 20.016767037869823,0.0 104.84372828142935,-10.666666666666668 89.91039494809601,33.183839046900474&#10;c -12.8,15.40230229715302 0,19.882317114271864 16.75627171857066,19.882317114271864&#10;c 22.693767396861105,0 35.4937673968611,-14.398680908117438 22.693767396861105,-47.153738157401676&#10;c -12.8,-27.733333333333334 44.8,-17.066666666666666 83.97289926980557,-5.912418003770661 c 16.99428350430934,-0.0 101.65161359692193,10.666666666666668 86.7182802635886,-6.307227545403665&#10;c -12.8,-18.317678912594264 0,-62.98890568947938 19.948386403078075,-62.98890568947938&#10;c 32.597719529940164,0 45.39771952994016,32.7908503457911 32.597719529940164,66.86992016668384&#10;c -12.8,27.733333333333334 44.8,17.066666666666666 74.0689471367265,2.4262130681992033 c 33.75494352436408,0.0 97.3178362358429,-10.666666666666668 82.38450290250957,46.853858070839514&#10;c -12.8,13.773918397235997 0,19.031840093255163 24.282163764157104,19.031840093255163&#10;c 18.68885873840692,0 31.488858738406922,-23.74369406168695 18.68885873840692,-46.92858000491242&#10;c -12.8,-27.733333333333334 44.8,-17.066666666666666 87.97780792825975,-18.957118159182258 L 1280 0 " fill="none" stroke="black" stroke-width="0.1" style="vector-effect:non-scaling-stroke;" /></g><g><path d="M 0 0  L 0 426.666667  c 28.363810620750037,-0.0 90.36686362779669,10.666666666666668 75.43353029446335,-7.660834312419537&#10;c -12.8,-41.44214888135502 0,-44.71450587691619 31.23313637220332,-44.71450587691619&#10;c 21.66466306146161,0 34.46466306146161,6.912283294927033 21.66466306146161,10.216848200506867&#10;c -12.8,27.733333333333334 44.8,17.066666666666666 85.00200360520506,42.158491988828864 c 46.10953996174531,0.0 96.39394963755748,-10.666666666666668 81.46061630422415,35.72656796995683&#10;c -12.8,10.653446615502219 0,21.813918084749723 25.206050362442525,21.813918084749723&#10;c 26.687601643800136,0 39.48760164380013,-19.01294207893442 26.687601643800136,-55.08974747576826&#10;c -12.8,-27.733333333333334 44.8,-17.066666666666666 79.97906502286654,-2.4507385789382923 c 18.481953979496982,-0.0 93.51617394437527,10.666666666666668 78.58284061104193,1.693170225701469&#10;c -12.8,-53.24318895277483 0,-61.16368435347147 28.08382605562474,-61.16368435347147&#10;c 15.654750888469707,0 28.454750888469707,13.423216154152632 15.654750888469707,41.50084575401094&#10;c -12.8,27.733333333333334 44.8,17.066666666666666 91.01191577819696,17.969668373759056 c 23.49984406580238,0.0 96.91014025638455,-10.666666666666668 81.97680692305121,3.629436719459751&#10;c -12.8,49.36420573398564 0,61.47285452116363 24.689859743615457,61.47285452116363&#10;c 29.961365677921165,0 42.76136567792116,-37.72339516568288 29.961365677921165,-42.84197629024985&#10;c -12.8,-27.733333333333334 44.8,-17.066666666666666 76.7053009887455,-22.260314950373534 c 53.56781510545889,-0.0 99.35037904991164,10.666666666666668 84.4170457165783,-32.20521364153701&#10;c -12.8,-10.044044690254767 0,-30.44913539299207 22.24962095008837,-30.44913539299207&#10;c 22.791952512823983,0 35.59195251282398,19.559065859010094 22.791952512823983,31.529895912709456&#10;c -12.8,27.733333333333334 44.8,17.066666666666666 83.87471415384269,31.12445312181962 c 21.96184586122953,0.0 99.55612626363451,-10.666666666666668 84.62279293030117,31.479799703309386&#10;c -12.8,15.02216645110807 0,24.589875296938555 22.043873736365498,24.589875296938555&#10;c 25.4654699873429,0 38.2654699873429,-31.74882897768006 25.4654699873429,-41.76818243847073&#10;c -12.8,-27.733333333333334 44.8,-17.066666666666666 81.20119667932377,-14.30149256177721 L 1280 0 " fill="none" stroke="black" stroke-width="0.1" style="vector-effect:non-scaling-stroke;" /></g><g><path d="M 0 0  L 0 640.000000  c 30.567810519984338,0.0 91.96596714893191,-10.666666666666668 77.03263381559857,35.60051271533662&#10;c -12.8,11.196318142360985 0,20.310148057759093 29.6340328510681,20.310148057759093&#10;c 16.568612461248193,0 29.368612461248194,-8.902641945255228 16.568612461248193,-38.40278859393531&#10;c -12.8,-27.733333333333334 44.8,-17.066666666666666 90.09805420541848,-17.5078721791604 c 38.836988781103635,-0.0 106.20446174482963,10.666666666666668 91.27112841149629,-36.92742555920658&#10;c -12.8,-18.988428318218364 0,-20.87396323585554 15.39553825517038,-20.87396323585554&#10;c 27.355032447572498,0 40.155032447572495,18.20457071395777 27.355032447572498,40.04848648958935&#10;c -12.8,27.733333333333334 44.8,17.066666666666666 79.31163421909417,17.752902305472773 c 33.169487425921815,-0.0 100.33619263783213,10.666666666666668 85.40285930449879,-19.62599210939664&#10;c -12.8,-30.72864381276363 0,-48.199216822196156 21.26380736216788,-48.199216822196156&#10;c 24.328908508793845,0 37.12890850879384,40.18800841881811 24.328908508793845,48.909158908156954&#10;c -12.8,27.733333333333334 44.8,17.066666666666666 82.33775815787283,18.916050023435844 c 11.816332021429547,0.0 100.75495666590503,-10.666666666666668 85.82162333257169,46.32209985596461&#10;c -12.8,4.796191030305612 0,6.5496938784078935 20.84504333409498,6.5496938784078935&#10;c 21.732898815134618,0 34.532898815134615,-3.7990598356048033 21.732898815134618,-11.91969150948109&#10;c -12.8,-27.733333333333334 44.8,-17.066666666666666 84.93376785153205,-40.95210222489141 c 43.53603562101011,0.0 97.15834877842241,-10.666666666666668 82.22501544508907,38.194523301883166&#10;c -12.8,14.574922287349139 0,26.253413711662233 24.4416512215776,26.253413711662233&#10;c 15.258092989766581,0 28.058092989766582,-32.2124389556179 15.258092989766581,-60.065411364256235&#10;c -12.8,-27.733333333333334 44.8,-17.066666666666666 91.40857367690009,-4.382525649289164 c 11.48585691816442,0.0 102.25621379795777,-10.666666666666668 87.32288046462443,19.519122421966166&#10;c -12.8,20.697226792046443 0,42.833242209530624 19.34378620204224,42.833242209530624&#10;c 25.222920012659287,0 38.022920012659284,-25.431885880253574 25.222920012659287,-28.307940681307585&#10;c -12.8,-27.733333333333334 44.8,-17.066666666666666 81.44374665400738,-34.044423950189206 L 1280 0 " fill="none" stroke="black" stroke-width="0.1" style="vector-effect:non-scaling-stroke;" /></g><g><path d="M 0 0  L 0 853.333333  c 37.11226440348859,0.0 94.15398962907047,-10.666666666666668 79.22065629573713,46.16897220291606&#10;c -12.8,10.675637238260808 0,15.842804952568017 27.446010370929542,15.842804952568017&#10;c 32.433773779603385,0 45.23377377960338,-11.929415695171867 32.433773779603385,-16.28736118398126&#10;c -12.8,-27.733333333333334 44.8,-17.066666666666666 74.23289288706329,-45.724415971502815 c 45.04993811079712,0.0 95.50259304783864,-10.666666666666668 80.5692597145053,23.35040674005792&#10;c -12.8,20.633863881831346 0,40.41074627421743 26.097406952161364,40.41074627421743&#10;c 28.047905400178948,0 40.847905400178945,-26.683258199393233 28.047905400178948,-38.175897547256426&#10;c -12.8,-27.733333333333334 44.8,-17.066666666666666 78.61876126648772,-25.585255467018925 c 46.14797081887001,0.0 93.61354746474319,-10.666666666666668 78.68021413140985,41.084548900961394&#10;c -12.8,6.91163188698908 0,14.466622378553147 27.986452535256817,14.466622378553147&#10;c 26.20947493630335,0 39.00947493630335,-22.91098870454701 26.20947493630335,-34.51701362262554&#10;c -12.8,-27.733333333333334 44.8,-17.066666666666666 80.45719173036332,-21.034157656889 c 13.730303792704328,-0.0 97.1189638364266,10.666666666666668 82.18563050309326,-18.075800075055323&#10;c -12.8,-12.053188788314092 0,-39.78509377639459 24.481036163573407,-39.78509377639459&#10;c 29.97519479706297,0 42.775194797062966,11.764542833268337 29.97519479706297,21.639233483300913&#10;c -12.8,27.733333333333334 44.8,17.066666666666666 76.6914718696037,36.221660368149 c 36.43969478395142,-0.0 104.85957349553419,10.666666666666668 89.92624016220086,-20.331005179161036&#10;c -12.8,-27.956315027458377 0,-48.87973567887953 16.740426504465816,-48.87973567887953&#10;c 29.34231157606372,0 42.14231157606372,26.052296434235366 29.34231157606372,66.5863539287594&#10;c -12.8,27.733333333333334 44.8,17.066666666666666 77.32435509060295,2.6243869292811723 c 12.529427623746862,0.0 100.05876965951458,-10.666666666666668 85.12543632618124,17.60818504905998&#10;c -12.8,40.23248105038365 0,53.11381038300638 21.541230340485427,53.11381038300638&#10;c 31.765625500416732,0 44.56562550041673,-49.38691688469269 31.765625500416732,-59.581785317000225&#10;c -12.8,-27.733333333333334 44.8,-17.066666666666666 74.90104116624994,-11.14021011506614 L 1280 0 " fill="none" stroke="black" stroke-width="0.1" style="vector-effect:non-scaling-stroke;" /></g><g><path d="M 0 0  L 0 1066.666667  c 38.71231678911337,-0.0 88.15640846313158,10.666666666666668 73.22307512979825,-2.0759275126640904&#10;c -12.8,-37.42577209399247 0,-52.433079722404784 33.443591536868425,-52.433079722404784&#10;c 20.39137592214047,0 33.191375922140466,18.20525387124461 20.39137592214047,19.284061275001186&#10;c -12.8,27.733333333333334 44.8,17.066666666666666 86.2752907445262,35.224945960067686 c 22.575359916422713,-0.0 89.31091563298241,10.666666666666668 74.37758229964908,-20.99177638905084&#10;c -12.8,-8.5311089407224 0,-33.767017995028134 32.289084367017594,-33.767017995028134&#10;c 17.161762141315833,0 29.961762141315834,6.507200795076941 17.161762141315833,9.256740350562126&#10;c -12.8,27.733333333333334 44.8,17.066666666666666 89.50490452535084,45.50205403351685 c 48.66867784541776,-0.0 103.70221111092982,10.666666666666668 88.76887777759649,-22.089161243730018&#10;c -12.8,-36.20751279062241 0,-41.91954438100299 17.897788889070185,-41.91954438100299&#10;c 32.80811792011529,0 45.60811792011529,15.881124038312993 32.80811792011529,35.859232769543326&#10;c -12.8,27.733333333333334 44.8,17.066666666666666 73.85854874655138,28.149472855189686 c 16.960271871639847,-0.0 89.5644240400669,10.666666666666668 74.63109070673356,-6.993644511582104&#10;c -12.8,-26.660833579006447 0,-44.97352918619848 32.03557595993311,-44.97352918619848&#10;c 32.883484982911384,0 45.68348498291138,51.3771600634746 32.883484982911384,52.11794755935777&#10;c -12.8,27.733333333333334 44.8,17.066666666666666 73.78318168375529,-0.15077386157718564 c 27.737617813909115,0.0 103.97899292971822,-10.666666666666668 89.04565959638488,14.377440585343896&#10;c -12.8,11.14482387586033 0,47.45152767379588 17.62100707028179,47.45152767379588&#10;c 18.689777806833405,0 31.489777806833406,-4.599071253136089 18.689777806833405,-21.15756207595382&#10;c -12.8,-27.733333333333334 44.8,-17.066666666666666 87.97688885983327,-40.67140618318596 c 61.02040015203121,0.0 99.01501482306305,-10.666666666666668 84.08168148972972,7.587560161098761&#10;c -12.8,37.2888673822642 0,51.439516198118895 22.584985176936954,51.439516198118895&#10;c 30.998315444713157,0 43.798315444713154,-22.12389965722304 30.998315444713157,-22.93875577746077&#10;c -12.8,-27.733333333333334 44.8,-17.066666666666666 75.66835122195351,-36.08832058175689 L 1280 0 " fill="none" stroke="black" stroke-width="0.1" style="vector-effect:non-scaling-stroke;" /></g></g></svg>