<svg baseProfile="full" height="2000" preserveAspectRatio="none" shape-rendering="geometricPrecision" version="1.1" viewBox="0,0,3011,2000" width="3011" xmlns="http://www.w3.org/2000/svg" xmlns:ev="http://www.w3.org/2001/xml-events" xmlns:xlink="http://www.w3.org/1999/xlink"><title>Jigsaw puzzle piece clips</title><desc>Created with the piecemaker. Piece count: 40</desc><defs /><g><g><rect fill="white" height="2000" width="3011" x="0" y="0" /></g></g><g><g><path d="M 0 0  L 376.375000 0  c -0.0,41.26061263479621 18.81875,190.65061039684298 -30.5431475637782,162.65061039684298&#10;c -16.94442684439961,-24.0 -64.83875148060201,0 -64.83875148060201,37.34938960315702&#10;c 0,42.14963033079226 24.616255532723077,66.14963033079226 52.21393754863267,42.14963033079226&#10;c 48.92875,-24.0 30.11,84.0 43.16796149574755,157.85036966920774 c -0.0,83.57605848108565 18.81875,183.02324114705928 -49.86500050565359,155.02324114705928&#10;c -37.10018100250194,-24.0 -42.65496247524289,0 -42.65496247524289,44.97675885294072&#10;c 0,55.94432843271724 34.79254119241782,79.94432843271724 41.93093625885401,55.94432843271724&#10;c 48.92875,-24.0 30.11,84.0 50.58902672204247,144.05567156728276 c -0.0,71.43177305923693 18.81875,190.8430605423463 -32.17525647991297,162.8430605423463&#10;c -89.29448536834227,-24.0 -95.08548397430235,0 -95.08548397430235,37.15693945765369&#10;c 0,37.25511420218561 29.333201657907438,61.25511420218561 59.44609222875589,37.25511420218561&#10;c 48.92875,-24.0 30.11,84.0 67.81464822545944,162.7448857978144 c -0.0,50.24092359164811 18.81875,175.12033894172836 -10.488166287193245,147.12033894172836&#10;c -48.39229268583881,-24.0 -86.05646025451199,0 -86.05646025451199,52.87966105827164&#10;c 0,50.00671637766092 60.68096328149447,74.00671637766092 68.21589430937662,50.00671637766092&#10;c 48.92875,-24.0 30.11,84.0 28.32873223232862,149.99328362233908 c -0.0,65.33590013421431 18.81875,192.99532944692305 -32.318178350783036,164.99532944692305&#10;c -66.53346631807763,-24.0 -95.03791797100118,0 -95.03791797100118,35.00467055307695&#10;c 0,37.654843031488866 59.22098868949676,61.654843031488866 82.50677412641208,37.654843031488866&#10;c 48.92875,-24.0 30.11,84.0 44.849322195372125,162.34515696851113 L 0 2000 " fill="none" stroke="black" stroke-width="0.1" style="vector-effect:non-scaling-stroke;" /></g><g><path d="M 0 0  L 752.750000 0  c -0.0,111.99907727900388 18.81875,193.698690330077 -42.20873120123779,165.698690330077&#10;c -46.039060979943294,-24.0 -58.36718035742022,0 -58.36718035742022,34.301309669923&#10;c 0,42.89052464954307 10.383537491057847,66.89052464954307 24.651380448195468,42.89052464954307&#10;c 48.92875,-24.0 30.11,84.0 75.92453111046254,157.10947535045693 c 0.0,97.15859111447556 -18.81875,190.18155542419655 49.49523537791968,162.18155542419655&#10;c 22.376199990649923,-24.0 62.39618130938231,0 62.39618130938231,37.818444575803454&#10;c 0,52.64325193571983 -40.389671730133614,76.64325193571983 -50.33755174313351,52.64325193571983&#10;c -48.92875,-24.0 -30.11,84.0 -61.553864944168474,147.35674806428017 c 0.0,109.36984566895123 -18.81875,176.93069718464187 18.409753516233717,148.93069718464187&#10;c 29.696748867305192,-24.0 89.15779186344768,0 89.15779186344768,51.06930281535813&#10;c 0,46.72793682155506 -42.73063376550746,70.72793682155506 -108.21836587801694,46.72793682155506&#10;c -48.92875,-24.0 -30.11,84.0 0.6508204983355341,153.27206317844494 c 0.0,65.16672749946821 -18.81875,198.29155435927703 77.56895314077053,170.29155435927703&#10;c 37.810540058958935,-24.0 44.107063618224174,0 44.107063618224174,29.70844564072297&#10;c 0,48.878612610099566 -85.62401517097936,72.87861261009957 -117.88054185661086,48.878612610099566&#10;c -48.92875,-24.0 -30.11,84.0 -3.7954749023838446,151.12138738990043 c -0.0,112.01841372155226 18.81875,197.94702786255954 -1.7654754936974928,169.94702786255954&#10;c -76.25839700005662,-24.0 -91.6284374285765,0 -91.6284374285765,30.052972137440463&#10;c 0,51.32872221055638 90.67016818350749,75.32872221055638 100.36536750942933,51.32872221055638&#10;c 48.92875,-24.0 30.11,84.0 -6.9714545871553355,148.67127778944362 L 0 2000 " fill="none" stroke="black" stroke-width="0.1" style="vector-effect:non-scaling-stroke;" /></g><g><path d="M 0 0  L 1129.125000 0  c 0.0,31.04330316025975 -18.81875,173.16334735468823 75.77302413896211,145.16334735468823&#10;c 16.06172885126448,-24.0 35.567911711351485,0 35.567911711351485,54.83665264531177&#10;c 0,48.633693791186346 -18.20275064831361,72.63369379118635 -46.68952762829268,48.633693791186346&#10;c -48.92875,-24.0 -30.11,84.0 -64.65140822202092,151.36630620881365 c 0.0,112.23756169010184 -18.81875,187.06420309324716 4.8846885950766135,159.06420309324716&#10;c 43.15369693360009,-24.0 120.89394624145703,0 120.89394624145703,40.93579690675284&#10;c 0,31.496547093036213 -73.92185798886544,55.49654709303621 -129.64693568605864,31.496547093036213&#10;c -48.92875,-24.0 -30.11,84.0 3.8683008495249993,168.5034529069638 c -0.0,78.81245158731377 18.81875,195.49189968867643 -31.703024480530793,167.49189968867643&#10;c -62.44284834068049,-24.0 -80.70708868338295,0 -80.70708868338295,32.508100311323574&#10;c 0,29.834815061355698 45.27817395532746,53.8348150613557 81.41284939809438,29.834815061355698&#10;c 48.92875,-24.0 30.11,84.0 30.997263765819355,170.1651849386443 c -0.0,73.23114188808634 18.81875,177.7119682254558 -68.97185061045178,149.7119682254558&#10;c -18.167555993323493,-24.0 -35.417001832519986,0 -35.417001832519986,50.28803177454421&#10;c 0,31.544797328713685 64.37175265384333,55.544797328713685 101.28620971676006,31.544797328713685&#10;c 48.92875,-24.0 30.11,84.0 3.1026427262117124,168.45520267128632 c 0.0,24.606366726814937 -18.81875,166.085939829806 14.443736622710619,138.085939829806&#10;c 79.06882915432834,-24.0 86.4528572007692,0 86.4528572007692,61.914060170194006&#10;c 0,44.56035811311011 -49.574203846638305,68.56035811311011 -50.28477119465203,44.56035811311011&#10;c -48.92875,-24.0 -30.11,84.0 -50.61182262882779,155.4396418868899 L 0 2000 " fill="none" stroke="black" stroke-width="0.1" style="vector-effect:non-scaling-stroke;" /></g><g><path d="M 0 0  L 1505.500000 0  c 0.0,82.80072660167457 -18.81875,197.56525765946571 71.06480621661477,169.56525765946571&#10;c 8.279120371308762,-24.0 38.823955983802605,0 38.823955983802605,30.434742340534285&#10;c 0,46.60089318959453 -31.878334471520414,70.60089318959453 -65.45051012804981,46.60089318959453&#10;c -48.92875,-24.0 -30.11,84.0 -44.43825207236756,153.39910681040547 c -0.0,103.67018342871795 18.81875,189.5558719574568 -56.6512744619792,161.5558719574568&#10;c -17.925521371234925,-24.0 -58.194774021792185,0 -58.194774021792185,38.44412804254321&#10;c 0,31.977125756432486 28.393841465056127,55.977125756432486 65.83699063541073,31.977125756432486&#10;c 48.92875,-24.0 30.11,84.0 49.009057848360655,168.02287424356751 c -0.0,27.711981616062324 18.81875,186.01680607353464 -10.892465974408665,158.01680607353464&#10;c -78.76875122554122,-24.0 -92.0285893152938,0 -92.0285893152938,41.98319392646536&#10;c 0,48.4869628323581 84.30517401354788,72.4869628323581 110.17957730934368,48.4869628323581&#10;c 48.92875,-24.0 30.11,84.0 -7.2585220196412195,151.5130371676419 c 0.0,68.87326469622303 -18.81875,181.84975734023544 74.39948269591018,153.84975734023544&#10;c 15.281374043545071,-24.0 30.550158092866724,0 30.550158092866724,46.15024265976456&#10;c 0,49.62732076846953 -36.26967314429421,73.62732076846953 -66.81382798937513,49.62732076846953&#10;c -48.92875,-24.0 -30.11,84.0 -38.135812799401776,150.37267923153047 c -0.0,25.755152750899395 18.81875,198.04703363198138 1.1791681321614973,170.04703363198138&#10;c -76.22881327334586,-24.0 -95.02374150728488,0 -95.02374150728488,29.952966368018622&#10;c 0,54.30991967672574 69.7275647362387,78.30991967672574 69.12624501306578,54.30991967672574&#10;c 48.92875,-24.0 30.11,84.0 24.718328362057605,145.69008032327426 L 0 2000 " fill="none" stroke="black" stroke-width="0.1" style="vector-effect:non-scaling-stroke;" /></g><g><path d="M 0 0  L 1881.875000 0  c -0.0,27.542545751626452 18.81875,188.60767533042736 -15.274386522973215,160.60767533042736&#10;c -104.68161325649419,-24.0 -108.57854772900042,0 -108.57854772900042,39.392324669572645&#10;c 0,44.80501247880849 24.84010923077258,68.8050124788085 62.35858553081962,44.80501247880849&#10;c 48.92875,-24.0 30.11,84.0 61.49434872115402,155.1949875211915 c -0.0,63.511581972387575 18.81875,179.67941430732287 -66.4107029026914,151.67941430732287&#10;c -26.32063129908145,-24.0 -44.64224028078107,0 -44.64224028078107,48.32058569267713&#10;c 0,51.90225803603008 51.609319524545015,75.90225803603008 67.43699598161695,51.90225803603008&#10;c 48.92875,-24.0 30.11,84.0 43.61594720185552,148.09774196396992 c 0.0,88.6399707526089 -18.81875,165.44275248910563 16.732906825357794,137.44275248910563&#10;c 22.51951170343478,-24.0 83.2209958223279,0 83.2209958223279,62.55724751089437&#10;c 0,53.98907757655115 -25.89861086583733,77.98907757655115 -59.773845664016015,53.98907757655115&#10;c -48.92875,-24.0 -30.11,84.0 -40.180056983669665,146.01092242344885 c -0.0,47.93535465672735 18.81875,198.95353980680204 -70.04465917373103,170.95353980680204&#10;c -12.621455164531353,-24.0 -48.418414805054766,0 -48.418414805054766,29.04646019319796&#10;c 0,43.4669526558846 66.86541902553974,67.4669526558846 112.2993271164151,43.4669526558846&#10;c 48.92875,-24.0 30.11,84.0 6.163746862370701,156.5330473441154 c 0.0,85.88340840861952 -18.81875,198.07032139998876 9.436719641391429,170.07032139998876&#10;c 47.797935827145366,-24.0 90.57500762961592,0 90.57500762961592,29.929678600011243&#10;c 0,35.696359272103535 -30.05993260038283,59.696359272103535 -50.64527381660664,35.696359272103535&#10;c -48.92875,-24.0 -30.11,84.0 -49.36645345440072,164.30364072789646 L 0 2000 " fill="none" stroke="black" stroke-width="0.1" style="vector-effect:non-scaling-stroke;" /></g><g><path d="M 0 0  L 2258.250000 0  c 0.0,112.10169372213655 -18.81875,182.47860674043665 38.41261019841962,154.47860674043665&#10;c 67.6504221219511,-24.0 68.86428150611943,0 68.86428150611943,45.521393259563354&#10;c 0,30.791627441402937 -9.252760859134668,54.79162744140294 -28.257639954470832,30.791627441402937&#10;c -48.92875,-24.0 -30.11,84.0 -79.01925175006822,169.20837255859706 c 0.0,112.07948362881197 -18.81875,185.74505020904877 65.9575573230553,157.74505020904877&#10;c 48.47882263295146,-24.0 56.60912035304119,0 56.60912035304119,42.25494979095123&#10;c 0,39.584112423306806 -30.852963600029312,63.584112423306806 -87.13216068815888,39.584112423306806&#10;c -48.92875,-24.0 -30.11,84.0 -35.43451698793761,160.4158875766932 c -0.0,44.953251464530396 18.81875,168.7991209675298 -48.874446331239795,140.7991209675298&#10;c -34.203492644065825,-24.0 -52.187332488614786,0 -52.187332488614786,59.2008790324702&#10;c 0,34.38504319170539 58.892657982630176,58.38504319170539 100.31351540629657,34.38504319170539&#10;c 48.92875,-24.0 30.11,84.0 0.7482634135580071,165.6149568082946 c 0.0,23.883488286218004 -18.81875,194.82911610019607 59.61397239179942,166.82911610019607&#10;c 7.343414851369361,-24.0 34.36664118280936,0 34.36664118280936,33.170883899803925&#10;c 0,63.759063427706565 -32.407159382235314,87.75906342770656 -49.413125793969726,63.759063427706565&#10;c -48.92875,-24.0 -30.11,84.0 -44.567487780639055,136.24093657229344 c -0.0,95.49322062870176 18.81875,165.91564573525338 -49.65937686054164,137.91564573525338&#10;c -26.612593564303406,-24.0 -54.92527713971762,0 -54.92527713971762,62.08435426474662&#10;c 0,52.097650926253436 22.4405944725002,76.09765092625344 89.77563323490918,52.097650926253436&#10;c 48.92875,-24.0 30.11,84.0 14.809020765350084,147.90234907374656 L 0 2000 " fill="none" stroke="black" stroke-width="0.1" style="vector-effect:non-scaling-stroke;" /></g><g><path d="M 0 0  L 2634.625000 0  c 0.0,103.60950502695559 -18.81875,199.49441351101143 63.22164661160513,171.49441351101143&#10;c 30.812300030742726,-24.0 40.355573349657455,0 40.355573349657455,28.50558648898857&#10;c 0,46.16471500118564 -23.250299183749227,70.16471500118564 -33.17024844783495,46.16471500118564&#10;c -48.92875,-24.0 -30.11,84.0 -70.40697151342764,153.83528499881436 c 0.0,44.04012062741069 -18.81875,195.4972675862892 -4.3236197390891915,167.4972675862892&#10;c 60.947699159590165,-24.0 95.98900744599466,0 95.98900744599466,32.50273241371079&#10;c 0,34.35332585421017 -25.93133465500433,58.35332585421017 -51.68342637386829,34.35332585421017&#10;c -48.92875,-24.0 -30.11,84.0 -39.98196133303717,165.64667414578983 c 0.0,40.40638409993542 -18.81875,190.4616613547028 66.98731826684883,162.4616613547028&#10;c 24.409460014474103,-24.0 35.68525637517335,0 35.68525637517335,37.53833864529719&#10;c 0,37.23519999151685 -55.23496916223872,61.23519999151685 -85.47476478268817,37.23519999151685&#10;c -48.92875,-24.0 -30.11,84.0 -17.197809859334015,162.76480000848315 c -0.0,55.01454927891951 18.81875,169.45040477033152 -73.45507548256161,141.45040477033152&#10;c -25.651056465494676,-24.0 -26.244617390068,0 -26.244617390068,58.54959522966848&#10;c 0,43.90855991190281 19.664297490437065,67.90855991190281 76.7039351520039,43.90855991190281&#10;c 48.92875,-24.0 30.11,84.0 22.99575772062572,156.0914400880972 c 0.0,84.52639909362676 -18.81875,176.43024162627972 39.284941038061554,148.43024162627972&#10;c 47.19456236373716,-24.0 63.99299117212902,0 63.99299117212902,51.569758373720276&#10;c 0,32.244203218040695 -71.03294725067494,56.244203218040695 -82.73601180341804,32.244203218040695&#10;c -48.92875,-24.0 -30.11,84.0 -20.541920406772533,167.7557967819593 L 0 2000 " fill="none" stroke="black" stroke-width="0.1" style="vector-effect:non-scaling-stroke;" /></g></g><g><g><path d="M 0 0  L 0 400.000000  c 100.87316241316219,0.0 175.90203995650836,-20.0 149.55578995650836,38.877615903772124&#10;c -22.5825,39.103710322937886 0,92.65139875750899 38.63171004349164,92.65139875750899&#10;c 56.30926361138478,0 78.89176361138477,-78.11961275189822 56.30926361138478,-120.80190243242444&#10;c -22.5825,-52.0 79.03875,-32.0 131.87823638861522,-10.727112228856669 c 85.79975840242369,-0.0 162.7089954900167,20.0 136.3627454900167,-46.60433089469701&#10;c -22.5825,-74.70457571709076 0,-85.3401829553664 51.82475450998331,-85.3401829553664&#10;c 31.683435876922715,0 54.26593587692271,45.56338187320576 31.683435876922715,80.97438121509323&#10;c -22.5825,52.0 79.03875,32.0 156.50406412307728,50.97013263497017 c 108.41418907916201,0.0 154.8899478110733,-20.0 128.54369781107332,14.707953968464881&#10;c -22.5825,72.20620339285003 0,115.56152433113802 59.643802188926685,115.56152433113802&#10;c 54.47628793735976,0 77.05878793735975,-15.625754578158372 54.47628793735976,-46.24868220641022&#10;c -22.5825,-52.0 79.03875,-32.0 133.71121206264024,-84.02079609319267 c 38.60065759662812,-0.0 167.66176480420182,20.0 141.31551480420183,-86.69241501084306&#10;c -22.5825,-5.0659972435897 0,-9.749359121208258 46.871985195798175,-9.749359121208258&#10;c 34.65139740435916,0 57.233897404359155,31.380959893786606 34.65139740435916,83.66726418816181&#10;c -22.5825,52.0 79.03875,32.0 153.53610259564084,12.774509943889512 c 79.96584529134344,0.0 154.34755728841316,-20.0 128.00130728841316,0.7916044079321505&#10;c -22.5825,117.50119211004728 0,121.5315406568706 60.18619271158684,121.5315406568706&#10;c 51.00685423466686,0 73.58935423466686,-55.47187776607488 51.00685423466686,-57.22325241244191&#10;c -22.5825,-52.0 79.03875,-32.0 137.18064576533314,-65.09989265236085 c 95.72198738361246,-0.0 176.58669098362552,20.0 150.24044098362552,-84.65095583264339&#10;c -22.5825,-17.62821662366086 0,-32.99243595409267 37.94705901637448,-32.99243595409267&#10;c 43.28403729559105,0 65.86653729559104,100.4278772209956 43.28403729559105,106.36685442704287&#10;c -22.5825,52.0 79.03875,32.0 144.90346270440895,11.276537359693194 c 87.72637647738381,0.0 181.7099923664106,-20.0 155.3637423664106,30.502710994458248&#10;c -22.5825,103.18355281126672 0,103.07669682274746 32.823757633589395,103.07669682274746&#10;c 29.332623209315983,0 51.91512320931598,-81.12033295888484 29.332623209315983,-137.07524510429096&#10;c -22.5825,-52.0 79.03875,-32.0 158.85487679068402,3.495837287085237 c 87.46163412498521,-0.0 185.30534167196882,20.0 158.95909167196882,-25.686731949020885&#10;c -22.5825,-60.10793000195733 0,-94.19135321504751 29.22840832803118,-94.19135321504751&#10;c 44.38091867511588,0 66.96341867511588,32.84284263268585 44.38091867511588,50.95745355113367&#10;c -22.5825,52.0 79.03875,32.0 143.80658132488412,68.92063161293473 L 3011 0 " fill="none" stroke="black" stroke-width="0.1" style="vector-effect:non-scaling-stroke;" /></g><g><path d="M 0 0  L 0 800.000000  c 91.412082272692,0.0 169.37604456029035,-20.0 143.02979456029036,66.66925712130333&#10;c -22.5825,49.49269415341838 0,59.155912261845245 45.157705439709645,59.155912261845245&#10;c 55.41352373750678,0 77.99602373750677,-49.369774027123135 55.41352373750678,-88.80051467779404&#10;c -22.5825,-52.0 79.03875,-32.0 132.77397626249322,-37.024654705354536 c 74.47885840722937,-0.0 154.5383396280569,20.0 128.1920896280569,-6.2251311213895&#10;c -22.5825,-93.21133489043191 0,-129.77161003345955 59.99541037194311,-129.77161003345955&#10;c 50.45277663818294,0 73.03527663818294,32.46209722149827 50.45277663818294,103.42272857896084&#10;c -22.5825,52.0 79.03875,32.0 137.73472336181706,32.574012575888204 c 21.508025188890116,-0.0 160.384495923869,20.0 134.038245923869,-2.609310597208597&#10;c -22.5825,-42.79982341913003 0,-104.36444004549676 54.149254076131,-104.36444004549676&#10;c 31.889895546545688,0 54.472395546545684,33.1871220257751 31.889895546545688,114.82578064479526&#10;c -22.5825,52.0 79.03875,32.0 156.2976044534543,-7.852030002089904 c 34.75447851468962,0.0 166.32276321837162,-20.0 139.97651321837162,71.18868817376162&#10;c -22.5825,40.266671513634726 0,43.711931646454005 48.21098678162838,43.711931646454005&#10;c 37.198455801465656,0 59.78095580146565,-92.18901737055172 37.198455801465656,-97.87711638216827&#10;c -22.5825,-52.0 79.03875,-32.0 150.98904419853434,-17.023503438047356 c 25.684050645576242,-0.0 156.7253912679173,20.0 130.3791412679173,-24.181315698192662&#10;c -22.5825,-24.972413599946396 0,-98.7802760315392 57.808358732082695,-98.7802760315392&#10;c 44.20378905068293,0 66.78628905068292,48.543544163869555 44.20378905068293,115.00729586678726&#10;c -22.5825,52.0 79.03875,32.0 143.98371094931707,7.954295862944605 c 45.06941153188185,-0.0 166.9918888668024,20.0 140.64563886680241,-43.926367190694656&#10;c -22.5825,-47.5188083864721 0,-56.93536117319798 47.541861133197585,-56.93536117319798&#10;c 51.090725496629545,0 73.67322549662954,34.53150172387228 51.090725496629545,35.73201266324267&#10;c -22.5825,52.0 79.03875,32.0 137.09677450337045,65.12971570064997 c 69.13109701558113,-0.0 174.21922489221902,20.0 147.87297489221902,-36.05836317379845&#10;c -22.5825,-85.66902173654897 0,-99.55254171466584 40.31452510778098,-99.55254171466584&#10;c 26.43424958441915,0 49.016749584419145,78.8666543873772 26.43424958441915,110.39715198293052&#10;c -22.5825,52.0 79.03875,32.0 161.75325041558085,25.213752905533767 c 42.61189192733455,0.0 173.87596823940223,-20.0 147.52971823940223,26.31633735487584&#10;c -22.5825,89.72262780382468 0,98.09042280982199 40.65778176059777,98.09042280982199&#10;c 57.70861529728805,0 80.29111529728804,-14.696833906512873 57.70861529728805,-55.06373722804523&#10;c -22.5825,-52.0 79.03875,-32.0 130.47888470271195,-69.3430229366526 L 3011 0 " fill="none" stroke="black" stroke-width="0.1" style="vector-effect:non-scaling-stroke;" /></g><g><path d="M 0 0  L 0 1200.000000  c 105.21530798800093,-0.0 170.31787519709695,20.0 143.97162519709696,-67.84591221361137&#10;c -22.5825,-58.24342466255589 0,-66.94829490467052 44.215874802903045,-66.94829490467052&#10;c 42.40942224624732,0 64.99192224624731,64.1671611303707 42.40942224624732,108.24930624572887&#10;c -22.5825,52.0 79.03875,32.0 145.77807775375268,26.544900872553015 c 93.23806785337437,0.0 170.59889650185355,-20.0 144.25264650185355,62.583358639873296&#10;c -22.5825,29.100960277250746 0,68.93925531245696 43.93485349814645,68.93925531245696&#10;c 38.26973765360478,0 60.852237653604774,-33.88321019140089 38.26973765360478,-104.51206751095063&#10;c -22.5825,-52.0 79.03875,-32.0 149.91776234639522,-27.01054644137963 c 104.18623171218367,0.0 168.5345334857378,-20.0 142.1882834857378,68.33991919359796&#10;c -22.5825,28.820659390818392 0,49.061645308671544 45.9992165142622,49.061645308671544&#10;c 30.24024470306972,0 52.822744703069716,-103.04843220596055 30.24024470306972,-108.79374763553157&#10;c -22.5825,-52.0 79.03875,-32.0 157.94725529693028,-8.607816866737934 c 63.30337517919385,0.0 169.3485650856582,-20.0 143.0023150856582,1.6096564244998959&#10;c -22.5825,106.96209169338944 0,107.19083814295186 45.18518491434179,107.19083814295186&#10;c 38.856789029313035,0 61.43928902931303,-43.70485023151828 38.856789029313035,-72.77329513736991&#10;c -22.5825,-52.0 79.03875,-32.0 149.33071097068697,-36.027199430081836 c 84.39461462949099,-0.0 173.32295974322886,20.0 146.97670974322887,-83.99844815471641&#10;c -22.5825,-31.6401472506027 0,-34.09470676255857 41.21079025677113,-34.09470676255857&#10;c 48.32160546813097,0 70.90410546813096,23.705824166542687 48.32160546813097,96.29261161690911&#10;c -22.5825,52.0 79.03875,32.0 139.86589453186903,21.800543300365874 c 77.44888349308779,0.0 167.8817921373424,-20.0 141.5355421373424,8.543707954011902&#10;c -22.5825,48.93458287449025 0,95.20953062109521 46.65195786265761,95.20953062109521&#10;c 44.85185367117592,0 67.43435367117591,-87.55834369848904 44.85185367117592,-109.7980290336964&#10;c -22.5825,-52.0 79.03875,-32.0 143.33564632882408,6.044790458589276 c 78.65532101983389,-0.0 174.6428763334805,20.0 148.2966263334805,-41.534979091864024&#10;c -22.5825,-58.29822249860822 0,-78.38892335783885 39.8908736665195,-78.38892335783885&#10;c 34.661993227538574,0 57.24449322753857,109.32198403860032 34.661993227538574,126.67282871819525&#10;c -22.5825,52.0 79.03875,32.0 153.52550677246143,-6.748926268492383 c 68.4863064889642,0.0 184.4020586162359,-20.0 158.0558086162359,59.2554429668007&#10;c -22.5825,28.449929864753766 0,54.214236897263234 30.131691383764093,54.214236897263234&#10;c 48.85451228623546,0 71.43701228623546,-34.91933459211032 48.85451228623546,-99.03971067512741&#10;c -22.5825,-52.0 79.03875,-32.0 139.33298771376454,-14.429969188936525 L 3011 0 " fill="none" stroke="black" stroke-width="0.1" style="vector-effect:non-scaling-stroke;" /></g><g><path d="M 0 0  L 0 1600.000000  c 45.58152040076386,-0.0 167.10327393783487,20.0 140.75702393783487,-72.42257707645925&#10;c -22.5825,-8.60477000903836 0,-38.12796210907101 47.43047606216513,-38.12796210907101&#10;c 55.92343992037604,0 78.50593992037604,51.186237822145614 55.92343992037604,105.98024793850259&#10;c -22.5825,52.0 79.03875,32.0 132.26406007962396,4.570291247027669 c 85.32527256577217,0.0 181.07544101808185,-20.0 154.72919101808185,72.80316644067122&#10;c -22.5825,28.42094477762148 0,34.03037444413404 33.45830898191815,34.03037444413404&#10;c 31.28988141885509,0 53.872381418855085,-16.672055905782493 31.28988141885509,-63.175653077366&#10;c -22.5825,-52.0 79.03875,-32.0 156.8976185811449,-43.65788780743926 c 82.07141453000735,-0.0 158.2837165195055,20.0 131.9374665195055,-55.12878913686008&#10;c -22.5825,-52.20952604205413 0,-60.22189054092722 56.250033480494494,-60.22189054092722&#10;c 48.5241418694755,0 71.1066418694755,54.17149100592683 48.5241418694755,77.73455079937423&#10;c -22.5825,52.0 79.03875,32.0 139.6633581305245,37.616128878413065 c 106.1858393139486,0.0 181.55763068052536,-20.0 155.21138068052537,57.344122219907234&#10;c -22.5825,60.85144962700632 0,78.55031037186296 32.976119319474634,78.55031037186296&#10;c 47.35994752444671,0 69.9424475244467,-17.340974725977578 47.35994752444671,-54.93050817252639&#10;c -22.5825,-52.0 79.03875,-32.0 140.8275524755533,-80.96392441924381 c 101.23879930879416,0.0 169.9028679319912,-20.0 143.5566179319912,83.75683405788403&#10;c -22.5825,6.330456956201761 0,25.984966252338552 44.63088206800879,25.984966252338552&#10;c 46.72094263108406,0 69.30344263108405,-61.14297930434375 46.72094263108406,-109.23373584648954&#10;c -22.5825,-52.0 79.03875,-32.0 141.46655736891594,-0.5080644637330494 c 89.28389524277203,0.0 177.66877001811773,-20.0 151.32252001811773,32.315560818683764&#10;c -22.5825,95.42833745251461 0,102.68503213666358 36.86497998188227,102.68503213666358&#10;c 40.55100276645598,0 63.133502766455976,-48.2574653082137 40.55100276645598,-64.84383801675212&#10;c -22.5825,-52.0 79.03875,-32.0 147.63649723354402,-70.15675493859523 c 76.89250431254135,-0.0 162.8837482105094,20.0 136.5374982105094,-21.498943912036673&#10;c -22.5825,-96.42282917807701 0,-100.94024814951186 51.6500017894906,-100.94024814951186&#10;c 35.62174985108129,0 58.204249851081286,38.940111544314945 35.62174985108129,51.49779899939222&#10;c -22.5825,52.0 79.03875,32.0 152.5657501489187,70.94139306215632 c 102.58318790378159,-0.0 184.3736078035641,20.0 158.02735780356412,-77.91390213920202&#10;c -22.5825,-31.587401569455487 0,-42.26353522152739 30.160142196435885,-42.26353522152739&#10;c 30.203197853046646,0 52.78569785304664,44.10965410307825 30.203197853046646,47.91419268760595&#10;c -22.5825,52.0 79.03875,32.0 157.98430214695335,72.26324467312347 L 3011 0 " fill="none" stroke="black" stroke-width="0.1" style="vector-effect:non-scaling-stroke;" /></g></g></svg>