<svg baseProfile="full" height="3333" preserveAspectRatio="none" shape-rendering="geometricPrecision" version="1.1" viewBox="0,0,5000,3333" width="5000" xmlns="http://www.w3.org/2000/svg" xmlns:ev="http://www.w3.org/2001/xml-events" xmlns:xlink="http://www.w3.org/1999/xlink"><title>Jigsaw puzzle piece clips</title><desc>Created with the piecemaker. Piece count: 54</desc><defs/><g><g><rect fill="white" height="3333" width="5000" x="0" y="0"/></g></g><g><g><path d="M 0 0  L 555.555556 0  c -0.0,149.77206059290526 27.77777777777778,268.68698032105584 -25.66487189243589,229.80198032105585
c -32.74455490280458,-33.33 -129.94258511421486,0 -129.94258511421486,47.94801967894415
c 0,84.21771743961637 130.53292558759404,117.54771743961636 140.22508412112566,84.21771743961637
c 72.22222222222223,-33.33 44.44444444444444,116.655 15.382372885525086,193.53228256038363 c -0.0,70.36083316135208 27.77777777777778,259.54648850265403 -112.14734342304588,220.661488502654
c -26.675988584444134,-33.33 -35.29985409169281,0 -35.29985409169281,57.08851149734599
c 0,78.78592499428288 17.283248110979383,112.11592499428288 29.014848647962523,78.78592499428288
c 72.22222222222223,-33.33 44.44444444444444,116.655 118.43234886677617,198.96407500571712 c -0.0,62.99314932102086 27.77777777777778,264.73869731922997 -68.56415177307689,225.85369731922998
c -112.86238407070793,-33.33 -120.12320935980391,0 -120.12320935980391,51.89630268077002
c 0,55.68608663406576 103.55084226949123,89.01608663406576 195.84139935790932,55.68608663406576
c 72.22222222222223,-33.33 44.44444444444444,116.655 -7.154038225028529,222.06391336593424 c -0.0,91.50337834682921 27.77777777777778,235.38141291932703 -107.18509075359403,196.49641291932704
c -13.112956873395234,-33.33 -46.01837034392521,0 -46.01837034392521,81.25358708067296
c 0,55.05466750728118 45.388723147839904,88.38466750728118 96.12397997530839,55.05466750728118
c 72.22222222222223,-33.33 44.44444444444444,116.655 57.07948112221085,222.69533249271882 c -0.0,133.99018828274345 27.77777777777778,274.54260257882436 -19.313883727523212,235.65760257882437
c -94.843885906239,-33.33 -137.96578328609772,0 -137.96578328609772,42.09239742117563
c 0,60.79810116721006 59.10758150389626,94.12810116721006 83.02154586051357,60.79810116721006
c 72.22222222222223,-33.33 44.44444444444444,116.655 74.25812115310735,216.95189883278994 c 0.0,51.72175697772429 -27.77777777777778,275.050361004987 -6.863439481120799,236.16536100498698
c 60.21669808899068,-33.33 149.36147446141388,0 149.36147446141388,41.58463899501302
c 0,76.47705938094941 -57.55290085017063,109.80705938094941 -109.26115428683909,76.47705938094941
c -72.22222222222223,-33.33 -44.44444444444444,116.655 -33.236880693454,201.2729406190506 L 0 3333 " fill="none" stroke="black" stroke-width="0.1" style="vector-effect:non-scaling-stroke;"/></g><g><path d="M 0 0  L 1111.111111 0  c -0.0,40.41511066638762 27.77777777777778,265.3111641231529 -61.32248947918592,226.4261641231529
c -90.59299718249079,-33.33 -100.33666539512438,0 -100.33666539512438,51.32383587684711
c 0,79.39072394192283 111.13736167534417,112.72072394192283 144.34954799846946,79.39072394192283
c 72.22222222222223,-33.33 44.44444444444444,116.655 17.309606875840842,198.35927605807717 c 0.0,81.91012883584268 -27.77777777777778,268.6661076460894 85.87838244827688,229.7811076460894
c 58.22667419036097,-33.33 61.354156085351065,0 61.354156085351065,47.968892353910604
c 0,46.81150121059949 -26.980437976236527,80.14150121059949 -38.835169895968704,46.81150121059949
c -72.22222222222223,-33.33 -44.44444444444444,116.655 -108.39736863765924,230.9384987894005 c -0.0,160.519260775627 27.77777777777778,273.26567911886826 -58.243414548285834,234.38067911886824
c -56.32100169603863,-33.33 -104.55919767746238,0 -104.55919767746238,43.369320881131756
c 0,48.4036416566974 31.5392696588266,81.7336416566974 80.75368869896005,48.4036416566974
c 72.22222222222223,-33.33 44.44444444444444,116.655 82.04892352678817,229.3463583433026 c -0.0,120.90260519636439 27.77777777777778,253.20997949980443 -3.5236545098342185,214.3249794998044
c -144.57137903220715,-33.33 -154.07678019262784,0 -154.07678019262784,63.425020500195586
c 0,47.698243325473754 104.17995312213573,81.02824332547375 143.609756683792,47.698243325473754
c 72.22222222222223,-33.33 44.44444444444444,116.655 13.990678018670053,230.05175667452625 c -0.0,92.45539628980733 27.77777777777778,268.2732848507109 -51.867237192134,229.38828485071093
c -82.7311014175308,-33.33 -91.45289835099554,0 -91.45289835099554,48.36171514928907
c 0,59.28958353307826 31.266057869779385,92.61958353307826 40.57479878704447,59.28958353307826
c 72.22222222222223,-33.33 44.44444444444444,116.655 102.74533675608507,218.46041646692174 c 0.0,134.40366502858592 -27.77777777777778,251.70418378725208 79.80981255323228,212.8191837872521
c 43.41112249343991,-33.33 76.7014916670616,0 76.7014916670616,64.93081621274791
c 0,46.25861741059788 -112.56001678890209,79.58861741059788 -127.58286143010696,46.25861741059788
c -72.22222222222223,-33.33 -44.44444444444444,116.655 -28.92844279018692,231.49138258940212 L 0 3333 " fill="none" stroke="black" stroke-width="0.1" style="vector-effect:non-scaling-stroke;"/></g><g><path d="M 0 0  L 1666.666667 0  c 0.0,151.49917770689544 -27.77777777777778,258.0424644902386 109.90208664333802,219.15746449023862
c 17.127200512956534,-33.33 43.620994238526194,0 43.620994238526194,58.592535509761376
c 0,47.257967620524596 -100.29234595312381,80.5879676205246 -162.23714793924003,47.257967620524596
c -72.22222222222223,-33.33 -44.44444444444444,116.655 8.714067057375814,230.4920323794754 c 0.0,28.786101635638133 -27.77777777777778,252.04600749936844 54.47141487435073,213.16100749936842
c 80.15633001609042,-33.33 128.3253626327573,0 128.3253626327573,64.58899250063158
c 0,72.99460736248392 -80.54124542346807,106.32460736248392 -87.85703178679101,72.99460736248392
c -72.22222222222223,-33.33 -44.44444444444444,116.655 -94.93974572031702,204.75539263751608 c 0.0,128.83791089184732 -27.77777777777778,245.99543844634428 53.44738537750325,207.1104384463443
c 22.946424002246427,-33.33 96.27888888348437,0 96.27888888348437,70.63956155365571
c 0,46.94070488475916 -50.46857428556712,80.27070488475916 -125.1016993217784,46.94070488475916
c -72.22222222222223,-33.33 -44.44444444444444,116.655 -24.624574939209225,230.80929511524084 c 0.0,62.84274379235443 -27.77777777777778,277.71329997332725 18.726987042613217,238.82829997332726
c 139.14262788150384,-33.33 169.5596777907252,0 169.5596777907252,38.92170002667274
c 0,63.40389899879784 -41.4594819558387,96.73389899879784 -188.90238978663245,63.40389899879784
c -72.22222222222223,-33.33 -44.44444444444444,116.655 0.6157249532940341,214.34610100120216 c -0.0,139.11663154766146 27.77777777777778,263.92103799270166 -43.50808833154421,225.03603799270164
c -61.73524463342076,-33.33 -106.45338175306736,0 -106.45338175306736,52.71396200729836
c 0,82.07573157711244 19.185387441860698,115.40573157711243 59.38797298183002,82.07573157711244
c 72.22222222222223,-33.33 44.44444444444444,116.655 90.57349710278154,195.67426842288756 c -0.0,40.374547430984116 27.77777777777778,256.72507892014414 -11.977136604655762,217.84007892014412
c -136.02055115787047,-33.33 -156.47100808485214,0 -156.47100808485214,59.90992107985588
c 0,76.84314242319522 122.9749866468806,110.17314242319522 154.56548398942468,76.84314242319522
c 72.22222222222223,-33.33 44.44444444444444,116.655 13.882660700083221,200.90685757680478 L 0 3333 " fill="none" stroke="black" stroke-width="0.1" style="vector-effect:non-scaling-stroke;"/></g><g><path d="M 0 0  L 2222.222222 0  c -0.0,144.81240826630568 27.77777777777778,249.02534508220594 -4.332677845746311,210.14034508220595
c -134.32466410652617,-33.33 -180.0757934987349,0 -180.0757934987349,67.60965491779405
c 0,85.91692409730689 109.72098213410564,119.24692409730689 128.67065463817954,85.91692409730689
c 72.22222222222223,-33.33 44.44444444444444,116.655 55.73781670630166,191.8330759026931 c -0.0,41.173550598394534 27.77777777777778,231.36145924260518 -78.82079745874249,192.4764592426052
c -80.32908202594842,-33.33 -83.00657797714815,0 -83.00657797714815,85.27354075739481
c 0,39.41628444020347 89.12407883520879,72.74628444020347 167.52405724940047,39.41628444020347
c 72.22222222222223,-33.33 44.44444444444444,116.655 -5.6966818135098265,238.33371555979653 c -0.0,130.33047882211164 27.77777777777778,265.5279908511732 -107.08419919243684,226.64299085117315
c -69.32589594089282,-33.33 -79.57787000919095,0 -79.57787000919095,51.10700914882685
c 0,39.066297827687606 40.868946491280866,72.3962978276876 133.2167537169558,39.066297827687606
c 72.22222222222223,-33.33 44.44444444444444,116.655 53.445315484671994,238.6837021723124 c -0.0,155.07374343197384 27.77777777777778,272.1939749211249 -105.70703077772319,233.30897492112487
c -23.086226471332754,-33.33 -54.67108431222934,0 -54.67108431222934,44.44102507887513
c 0,57.06356657467518 43.254555613119585,90.39356657467518 53.10270366913704,57.06356657467518
c 72.22222222222223,-33.33 44.44444444444444,116.655 107.27541142081549,220.68643342532482 c 0.0,141.4198263704503 -27.77777777777778,265.43564742586324 32.72358816595194,226.55064742586322
c 28.70111111701256,-33.33 104.18728312718657,0 104.18728312718657,51.19935257413678
c 0,50.272470094649634 -11.647860968201025,83.60247009464963 -53.04564954985075,50.272470094649634
c -72.22222222222223,-33.33 -44.44444444444444,116.655 -83.86522174328776,227.47752990535037 c 0.0,148.83585343559437 -27.77777777777778,255.71670512582273 34.76929561617606,216.83170512582274
c 58.797943233831575,-33.33 127.54898166707022,0 127.54898166707022,60.91829487417726
c 0,56.50756383339143 -140.85995937656907,89.83756383339143 -164.64696520675014,56.50756383339143
c -72.22222222222223,-33.33 -44.44444444444444,116.655 2.32868792350385,221.24243616660857 L 0 3333 " fill="none" stroke="black" stroke-width="0.1" style="vector-effect:non-scaling-stroke;"/></g><g><path d="M 0 0  L 2777.777778 0  c -0.0,143.83090764150154 27.77777777777778,260.60179391751154 -58.090183541878375,221.71679391751152
c -71.68958199027077,-33.33 -79.1068913542319,0 -79.1068913542319,56.033206082488476
c 0,54.03953279699613 80.78231864297382,87.36953279699613 116.12672418152394,54.03953279699613
c 72.22222222222223,-33.33 44.44444444444444,116.655 21.07035071458634,223.71046720300387 c 0.0,72.41867295547361 -27.77777777777778,228.0420066693344 11.000143864761679,189.1570066693344
c 121.28893293998286,-33.33 163.2988797849215,0 163.2988797849215,88.59299333066559
c 0,58.34277078373049 -97.44971258270168,91.67277078373048 -102.12454806881425,58.34277078373049
c -72.22222222222223,-33.33 -44.44444444444444,116.655 -72.17447558086891,219.4072292162695 c -0.0,156.40434312858855 27.77777777777778,227.9032484000477 -18.974525257545064,189.0182484000477
c -74.37773938049133,-33.33 -143.23476227042886,0 -143.23476227042886,88.7317515999523
c 0,52.86435984275374 26.91310723771,86.19435984275374 69.43418188968079,52.86435984275374
c 72.22222222222223,-33.33 44.44444444444444,116.655 92.77510563829313,224.88564015724626 c 0.0,138.27017274885714 -27.77777777777778,242.96870281368825 -5.417086161196223,204.08370281368826
c 120.73709629728307,-33.33 142.7803995081659,0 142.7803995081659,73.66629718631174
c 0,65.94146022754859 -32.58600862762609,99.27146022754859 -114.66133642445344,65.94146022754859
c -72.22222222222223,-33.33 -44.44444444444444,116.655 -22.701976922516266,211.8085397724514 c 0.0,107.0523924072887 -27.77777777777778,250.2792846996016 56.44740173999605,211.3942846996016
c 33.125448424573,-33.33 114.58306922586888,0 114.58306922586888,66.3557153003984
c 0,46.18505264448896 -47.554442208054844,79.51505264448896 -180.29739685668693,46.18505264448896
c -72.22222222222223,-33.33 -44.44444444444444,116.655 9.266925890821994,231.56494735551104 c 0.0,87.49777802339715 -27.77777777777778,251.3420555027809 81.81661605158051,212.45705550278092
c 24.966162207085922,-33.33 62.06206830596291,0 62.06206830596291,65.29294449721908
c 0,87.57511266116109 -56.394399019922886,120.90511266116108 -56.783603333219986,87.57511266116109
c -72.22222222222223,-33.33 -44.44444444444444,116.655 -87.09508102432343,190.17488733883891 L 0 3333 " fill="none" stroke="black" stroke-width="0.1" style="vector-effect:non-scaling-stroke;"/></g><g><path d="M 0 0  L 3333.333333 0  c -0.0,49.11874560870903 27.77777777777778,265.75879965147647 -103.79650478591086,226.87379965147645
c -30.808335011801848,-33.33 -42.414305291161156,0 -42.414305291161156,50.876200348523554
c 0,63.93096199384905 12.139255889113361,97.26096199384905 31.270300023481866,63.93096199384905
c 72.22222222222223,-33.33 44.44444444444444,116.655 114.94051005359015,213.81903800615095 c 0.0,108.36807550561686 -27.77777777777778,232.68416992699252 55.45843380439785,193.79916992699253
c 85.31970350952173,-33.33 124.55040298530056,0 124.55040298530056,83.95083007300747
c 0,72.91948577452769 -70.25870281858853,106.24948577452768 -81.14558327835653,72.91948577452769
c -72.22222222222223,-33.33 -44.44444444444444,116.655 -98.8632535113419,204.8305142254723 c 0.0,40.796795345941746 -27.77777777777778,233.21403908979767 6.049502107934021,194.32903908979765
c 52.76882757623738,-33.33 171.71162268387218,0 171.71162268387218,83.42096091020235
c 0,67.91711299713455 -84.97291717148111,101.24711299713455 -124.24853476243891,67.91711299713455
c -72.22222222222223,-33.33 -44.44444444444444,116.655 -53.51259002936729,209.83288700286545 c -0.0,73.53050475380029 27.77777777777778,230.24472407645897 -65.22438008414642,191.35972407645897
c -67.33068375272765,-33.33 -102.75214006260504,0 -102.75214006260504,86.39027592354103
c 0,84.73980570095057 50.40790644162736,118.06980570095057 76.81923932375261,84.73980570095057
c 72.22222222222223,-33.33 44.44444444444444,116.655 91.15728082299884,193.01019429904943 c -0.0,96.85026208947916 27.77777777777778,261.5370814664882 -12.659670116500031,222.65208146648817
c -136.8576188262102,-33.33 -164.9883920022989,0 -164.9883920022989,55.09791853351183
c 0,46.514297801989244 57.42523166677646,79.84429780198924 166.8877702373452,46.514297801989244
c 72.22222222222223,-33.33 44.44444444444444,116.655 10.760291881453725,231.23570219801076 c -0.0,131.0498955984344 27.77777777777778,272.89822349633846 -50.21739099644401,234.01322349633844
c -27.248033106801234,-33.33 -112.9985534042857,0 -112.9985534042857,43.73677650366156
c 0,47.27177638238794 29.146529865290002,80.60177638238794 126.73163242956278,47.27177638238794
c 72.22222222222223,-33.33 44.44444444444444,116.655 36.48431197116693,230.47822361761206 L 0 3333 " fill="none" stroke="black" stroke-width="0.1" style="vector-effect:non-scaling-stroke;"/></g><g><path d="M 0 0  L 3888.888889 0  c -0.0,128.81803950622003 27.77777777777778,275.82966715610536 -8.75959158481572,236.94466715610534
c -71.44875655992752,-33.33 -171.19354924340857,0 -171.19354924340857,40.80533284389466
c 0,41.78933210385486 79.58361047417756,75.11933210385486 132.5986131188228,41.78933210385486
c 72.22222222222223,-33.33 44.44444444444444,116.655 47.35452770940148,235.96066789614514 c -0.0,105.63998408141389 27.77777777777778,235.94173695096407 -49.566787647701766,197.05673695096408
c -29.894098747836164,-33.33 -106.08458733047962,0 -106.08458733047962,80.69326304903592
c 0,69.0533361787887 74.62481914621526,102.3833361787887 113.39079842547683,69.0533361787887
c 72.22222222222223,-33.33 44.44444444444444,116.655 42.26057655270456,208.6966638212113 c 0.0,118.15474101198558 -27.77777777777778,228.2594719043766 66.3371833599552,189.37447190437658
c 105.49405525433458,-33.33 115.84779764475489,0 115.84779764475489,88.37552809562342
c 0,39.388557045539585 -110.13544855771963,72.71855704553958 -125.68747105533149,39.388557045539585
c -72.22222222222223,-33.33 -44.44444444444444,116.655 -56.49750994937861,238.36144295446041 c -0.0,29.634480902180496 27.77777777777778,232.32405026479051 -79.10108976491493,193.4390502647905
c -98.154295181753,-33.33 -99.73499265562815,0 -99.73499265562815,84.3109497352095
c 0,84.58086604336313 44.329864414118965,117.91086604336313 141.36278394006044,84.58086604336313
c 72.22222222222223,-33.33 44.44444444444444,116.655 37.47329848048264,193.16913395663687 c -0.0,144.67493405188102 27.77777777777778,256.65744098916736 -35.09284635299748,217.77244098916734
c -114.34944839683496,-33.33 -126.40797582825168,0 -126.40797582825168,59.977559010832664
c 0,39.66861592595541 35.59283929726261,72.9986159259554 90.81283002851153,39.66861592595541
c 72.22222222222223,-33.33 44.44444444444444,116.655 70.68799215273764,238.0813840740446 c -0.0,136.18329040908876 27.77777777777778,240.48115709357734 -42.29326685204372,201.59615709357732
c -85.30798631171446,-33.33 -136.35359816680779,0 -136.35359816680779,76.15384290642268
c 0,59.53657908257105 164.63233991791293,92.86657908257105 170.45796276417707,59.53657908257105
c 72.22222222222223,-33.33 44.44444444444444,116.655 8.188902254674446,218.21342091742895 L 0 3333 " fill="none" stroke="black" stroke-width="0.1" style="vector-effect:non-scaling-stroke;"/></g><g><path d="M 0 0  L 4444.444444 0  c 0.0,68.2381371510711 -27.77777777777778,236.71224874781836 91.83097057636351,197.82724874781837
c 33.214176369391645,-33.33 79.22115675651972,0 79.22115675651972,79.92275125218163
c 0,69.143447001661 -45.7796169785897,102.473447001661 -71.41807736890028,69.143447001661
c -72.22222222222223,-33.33 -44.44444444444444,116.655 -99.63404996398295,208.606552998339 c -0.0,42.737576351101055 27.77777777777778,268.7733084364513 -116.78844288042033,229.88830843645133
c -31.183592068382488,-33.33 -48.627077509855965,0 -48.627077509855965,47.861691563548675
c 0,68.38545869420074 49.45125713660718,101.71545869420073 66.55480754454682,68.38545869420074
c 72.22222222222223,-33.33 44.44444444444444,116.655 98.86071284572948,209.36454130579926 c -0.0,146.29172502094488 27.77777777777778,272.4943250010681 -29.15575485220052,233.60932500106807
c -43.84217674130536,-33.33 -130.06899582571205,0 -130.06899582571205,44.14067499893193
c 0,57.91055077161246 73.73153760100469,91.24055077161246 81.82140565544535,57.91055077161246
c 72.22222222222223,-33.33 44.44444444444444,116.655 77.40334502246722,219.83944922838754 c -0.0,92.86319748250469 27.77777777777778,276.3297960205737 4.62961013483728,237.44479602057373
c -71.13553023687862,-33.33 -152.961065333378,0 -152.961065333378,40.30520397942627
c 0,45.34066179002207 97.40928545698509,78.67066179002207 123.53976570988276,45.34066179002207
c 72.22222222222223,-33.33 44.44444444444444,116.655 24.79168948865795,232.40933820997793 c -0.0,88.06887942838341 27.77777777777778,267.5662398126804 -15.63728165426694,228.6812398126804
c -70.28293806071014,-33.33 -131.91941407349333,0 -131.91941407349333,49.06876018731961
c 0,71.90429224726853 70.07625134480323,105.23429224726853 80.5099140921625,71.90429224726853
c 72.22222222222223,-33.33 44.44444444444444,116.655 67.04678163559775,205.84570775273147 c -0.0,102.92931084562966 27.77777777777778,267.83368645819706 -118.4482721505174,228.94868645819705
c -53.67899756649449,-33.33 -60.371161007390896,0 -60.371161007390896,48.801313541802955
c 0,58.45112932058646 123.90667206590777,91.78112932058646 138.0545237259752,58.45112932058646
c 72.22222222222223,-33.33 44.44444444444444,116.655 40.76490943193309,219.29887067941354 L 0 3333 " fill="none" stroke="black" stroke-width="0.1" style="vector-effect:non-scaling-stroke;"/></g></g><g><g><path d="M 0 0  L 0 555.500000  c 54.26705875891101,0.0 276.6520289646173,-27.775000000000002 237.76314007572836,108.11708766681386
c -33.33333333333333,49.315604154707465 0,55.107282544673325 40.01463770204941,55.107282544673325
c 43.395982235307144,0 76.72931556864047,-64.88261275084437 43.395982235307144,-149.85393208015267
c -33.33333333333333,-72.215 116.66666666666666,-44.44 234.38179554247063,-13.37043813133451 c 64.49720030091734,-0.0 241.918609813409,27.775000000000002 203.02972092452012,-4.8723728352833975
c -33.33333333333333,-33.517321668882275 0,-153.9404203104791 74.74805685325765,-153.9404203104791
c 46.52296771415291,0 79.85630104748624,79.059978879873 46.52296771415291,103.42175194698876
c -33.33333333333333,72.215 116.66666666666666,44.44 231.25481006362486,55.391041198773735 c 98.1931955660495,-0.0 254.74736326037112,27.775000000000002 215.85847437148223,-101.90453984934706
c -33.33333333333333,-19.896934024477275 0,-60.19137734715903 61.91930340629554,-60.19137734715903
c 41.15237229463645,0 74.48570562796978,17.85596240947061 41.15237229463645,55.490464337603655
c -33.33333333333333,72.215 116.66666666666666,44.44 236.62540548314132,106.60545285890244 c 63.79984442588727,-0.0 263.5220696175879,27.775000000000002 224.63318072869896,-22.024411024722895
c -33.33333333333333,-158.35787344920598 0,-165.8719325380399 53.14459704907881,-165.8719325380399
c 69.36940520397832,0 102.70273853731165,136.10168999860468 69.36940520397832,142.85900528113575
c -33.33333333333333,72.215 116.66666666666666,44.44 208.40837257379945,45.03733828162706 c 116.17387876708176,0.0 235.7596967347218,-27.775000000000002 196.87080784583293,0.8276677048020464
c -33.33333333333333,119.94270474510319 0,162.5335145227079 80.90696993194484,162.5335145227079
c 49.65115313595169,0 82.98448646928502,-114.5158460454823 49.65115313595169,-157.83118333420927
c -33.33333333333333,-72.215 116.66666666666666,-44.44 228.12662464182608,-5.529998893300672 c 141.3451736526781,0.0 246.17916219136126,-27.775000000000002 207.29027330247237,19.569397591382767
c -33.33333333333333,156.59256565504 0,165.70826000186364 70.4875044753054,165.70826000186364
c 52.133174804567375,0 85.4665081379007,-56.079715338095006 52.133174804567375,-98.85253254275916
c -33.33333333333333,-72.215 116.66666666666666,-44.44 225.6446029732104,-86.42512505048724 c 88.79169833170161,0.0 272.9971254049246,-27.775000000000002 234.10823651603567,11.234924371458185
c -33.33333333333333,63.42420489201542 0,154.86864730649611 43.6695412617421,154.86864730649611
c 68.93464943861568,0 102.26798277194901,-102.15325486238713 68.93464943861568,-172.06648494919352
c -33.33333333333333,-72.215 116.66666666666666,-44.44 208.8431283391621,5.962913271239216 c 47.41243340079668,0.0 246.33277806111965,-27.775000000000002 207.44388917223077,106.80258916335475
c -33.33333333333333,35.43252306336959 0,42.05473880473451 70.333888605547,42.05473880473451
c 51.86822833736761,0 85.20156167070094,-94.9000213067397 51.86822833736761,-103.62921160954446
c -33.33333333333333,-72.215 116.66666666666666,-44.44 225.90954944041016,-45.22811635854481 c 131.1626503616372,-0.0 255.3450988641426,27.775000000000002 216.45620997525373,-42.64637212518831
c -33.33333333333333,-31.21897323919418 0,-117.05176412060989 61.321567802524044,-117.05176412060989
c 73.50077838956463,0 106.83411172289796,80.5575439078082 73.50077838956463,141.94245007804437
c -33.33333333333333,72.215 116.66666666666666,44.44 204.27699938821314,17.755686167753822 L 5000 0 " fill="none" stroke="black" stroke-width="0.1" style="vector-effect:non-scaling-stroke;"/></g><g><path d="M 0 0  L 0 1111.000000  c 126.7260009119398,-0.0 275.08632356324335,27.775000000000002 236.19743467435447,-80.21137268611676
c -33.33333333333333,-44.84959249663316 0,-101.27303096164653 41.5803431034233,-101.27303096164653
c 83.77344068321258,0 117.10677401654591,81.76917857302186 83.77344068321258,98.79230532857399
c -33.33333333333333,72.215 116.66666666666666,44.44 194.0043370945652,82.6920983191893 c 49.066032098754214,0.0 260.64294927316155,-27.775000000000002 221.75406038427263,-0.8405785926752993
c -33.33333333333333,156.90230028791268 0,161.9779712125052 56.02371739350514,161.9779712125052
c 73.13698780615886,0 106.47032113949219,-41.70507334043041 73.13698780615886,-83.78878896913844
c -33.33333333333333,-72.215 116.66666666666666,-44.44 204.64078997161891,-77.34860365069147 c 50.282360147630584,0.0 274.3508989672314,-27.775000000000002 235.46201007834247,14.04171879078624
c -33.33333333333333,141.0555327801603 0,140.1697032989404 42.3157676994353,140.1697032989404
c 51.14212030690567,0 84.475453640239,-21.167691098633114 51.14212030690567,-70.57614646775912
c -33.33333333333333,-72.215 116.66666666666666,-44.44 226.6356574708721,-83.63527562196751 c 80.22533884747024,-0.0 267.49761002686563,27.775000000000002 228.60872113797672,-9.722846714269139
c -33.33333333333333,-132.3216677370825 0,-159.9135529902002 49.169056639801056,-159.9135529902002
c 75.28852333814433,0 108.62185667147766,118.27557865979979 75.28852333814433,122.74477585910302
c -33.33333333333333,72.215 116.66666666666666,44.44 202.48925443963344,46.891623845366325 c 63.20928787878014,-0.0 259.0040408752846,27.775000000000002 220.11515198639572,-81.5291025523712
c -33.33333333333333,-45.41717669192941 0,-65.60514437274347 57.662625791382055,-65.60514437274347
c 84.51285428527268,0 117.84618761860601,50.25067466417982 84.51285428527268,60.03352854222804
c -33.33333333333333,72.215 116.66666666666666,44.44 193.2649234925051,87.10071838288663 c 62.739058638487364,0.0 243.48020637999815,-27.775000000000002 204.59131749110927,117.78556977087699
c -33.33333333333333,14.801403600283262 0,34.775381845498615 73.1864602866685,34.775381845498615
c 71.35037770748539,0 104.68371104081872,-30.470861596693716 71.35037770748539,-144.30304940499082
c -33.33333333333333,-72.215 116.66666666666666,-44.44 206.42740007029238,-8.257902211384788 c 112.6580145565129,-0.0 243.07990664758896,27.775000000000002 204.19101775870007,-79.44002044070214
c -33.33333333333333,-51.65971924869106 0,-55.79523275919985 73.5867600190777,-55.79523275919985
c 73.01090418050461,0 106.34423751383794,83.05835023856837 73.01090418050461,98.74951630521245
c -33.33333333333333,72.215 116.66666666666666,44.44 204.76687359727316,36.48573689468954 c 154.240129454395,0.0 248.73556076574167,-27.775000000000002 209.84667187685278,70.83922490626202
c -33.33333333333333,55.18616281580471 0,72.15655648257547 67.93110590092499,72.15655648257547
c 85.7182262770574,0 119.05155961039073,-62.98189112267188 85.7182262770574,-142.9284921223846
c -33.33333333333333,-72.215 116.66666666666666,-44.44 192.05955150072037,-0.0672892664528888 c 88.31117401071675,-0.0 230.59412349754444,27.775000000000002 191.70523460865556,-44.83342986283412
c -33.33333333333333,-30.80701830992361 0,-95.87758840323318 86.07254316912221,-95.87758840323318
c 51.69657454556602,0 85.02990787889935,17.231242176491502 51.69657454556602,40.31499677975056
c -33.33333333333333,72.215 116.66666666666666,44.44 226.08120323221175,100.39602148631674 L 5000 0 " fill="none" stroke="black" stroke-width="0.1" style="vector-effect:non-scaling-stroke;"/></g><g><path d="M 0 0  L 0 1666.500000  c 148.21228459487352,0.0 235.53839254604222,-27.775000000000002 196.64950365715333,90.31892655858378
c -33.33333333333333,47.736244723321974 0,67.9843672446603 81.12827412062444,67.9843672446603
c 75.73591774633951,0 109.06925107967284,-111.38335663550066 75.73591774633951,-132.80584408126066
c -33.33333333333333,-72.215 116.66666666666666,-44.44 202.04186003143826,-25.49744972198343 c 104.20595207031631,0.0 266.21229898757,-27.775000000000002 227.32341009868114,-8.141209526328076
c -33.33333333333333,118.72231415856172 0,153.04360600140194 50.454367679096634,153.04360600140194
c 47.458469843865714,0 80.79180317719904,-20.84944601171703 47.458469843865714,-40.321458924070896
c -33.33333333333333,-72.215 116.66666666666666,-44.44 230.31930793391206,-104.58093755100296 c 139.86683975338963,0.0 231.420776677677,-27.775000000000002 192.5318877887881,45.714049255976136
c -33.33333333333333,99.3187995174514 0,120.30306029154653 85.24588998898966,120.30306029154653
c 56.3222322012038,0 89.65556553453713,-58.28622568679222 56.3222322012038,-83.53183199581893
c -33.33333333333333,-72.215 116.66666666666666,-44.44 221.45554557657397,-82.48527755170373 c 56.90367049662836,0.0 269.44886876113566,-27.775000000000002 230.55997987224677,67.70468633057405
c -33.33333333333333,52.54072260994359 0,86.0545703550178 47.217797905531,86.0545703550178
c 69.51679913871033,0 102.85013247204365,-19.17559863784218 69.51679913871033,-49.22691827221712
c -33.33333333333333,-72.215 116.66666666666666,-44.44 208.26097863906745,-104.53233841337473 c 95.20785827929089,0.0 229.8179689085204,-27.775000000000002 190.92908001963153,94.85103516385881
c -33.33333333333333,62.13942123265956 0,86.42955746472556 86.84869775814624,86.42955746472556
c 84.7852282773967,0 118.11856161073003,-85.61799260673139 84.7852282773967,-102.81725495676137
c -33.33333333333333,-72.215 116.66666666666666,-44.44 192.99254950038107,-78.463337671823 c 73.93888952500079,-0.0 261.0202783630634,27.775000000000002 222.13138947417454,-40.05114775644261
c -33.33333333333333,-113.13465543058557 0,-144.73192123446717 55.64638830360323,-144.73192123446717
c 58.066963263325476,0 91.4002965966588,166.0625702006458 58.066963263325476,168.74165510357426
c -33.33333333333333,72.215 116.66666666666666,44.44 219.7108145144523,16.041413887335523 c 140.63513565439047,0.0 238.68870488446063,-27.775000000000002 199.79981599557175,21.32183957927933
c -33.33333333333333,47.18820953404213 0,129.69819246708315 77.97796178220602,129.69819246708315
c 57.61487212726939,0 90.94820546060272,-50.347349529982274 57.61487212726939,-157.43524307621345
c -33.33333333333333,-72.215 116.66666666666666,-44.44 220.16290565050838,6.41521102985098 c 76.53232692922322,0.0 234.2615624031799,-27.775000000000002 195.37267351429102,49.83246094139064
c -33.33333333333333,35.007293798637185 0,105.82600661154206 82.40510426348675,105.82600661154206
c 65.0623223290134,0 98.39565566234673,-19.30428178923033 65.0623223290134,-89.83057048693631
c -33.33333333333333,-72.215 116.66666666666666,-44.44 212.71545544876437,-65.8278970659964 c 122.72934464040776,-0.0 276.3208145966341,27.775000000000002 237.4319257077452,-0.37448943752091257
c -33.33333333333333,-94.1781413550248 0,-181.62545004683557 40.34585207003258,-181.62545004683557
c 53.1918883086131,0 86.52522164194643,145.9214811928133 53.1918883086131,152.9400133135258
c -33.33333333333333,72.215 116.66666666666666,44.44 224.58588946916467,29.059926170830664 L 5000 0 " fill="none" stroke="black" stroke-width="0.1" style="vector-effect:non-scaling-stroke;"/></g><g><path d="M 0 0  L 0 2222.000000  c 138.33876385059784,0.0 248.17621140133636,-27.775000000000002 209.28732251244747,33.73726074774377
c -33.33333333333333,32.37219754529857 0,107.28826466922675 68.4904552653303,107.28826466922675
c 80.49757296326283,0 113.83090629659615,-36.49931182625432 80.49757296326283,-92.15618900937474
c -33.33333333333333,-72.215 116.66666666666666,-44.44 197.28020481451495,-48.86933640759577 c 110.48997401774763,0.0 260.0232224235897,-27.775000000000002 221.13433353470077,95.98554137717392
c -33.33333333333333,16.52978962263808 0,73.04028724220072 56.643444243077,73.04028724220072
c 74.11006327508818,0 107.44339660842151,-28.979683315722717 74.11006327508818,-56.65323038396497
c -33.33333333333333,-72.215 116.66666666666666,-44.44 203.6677145026896,-112.37259823540967 c 45.33435820810831,-0.0 234.03802754232038,27.775000000000002 195.1491386534315,-59.64299266002931
c -33.33333333333333,-99.3852310473503 0,-117.90483795019739 82.62863912434628,-117.90483795019739
c 72.68421858462779,0 106.01755191796111,102.81244924238032 72.68421858462779,126.511967828329
c -33.33333333333333,72.215 116.66666666666666,44.44 205.09355919314999,51.03586278189769 c 44.34012410438887,0.0 235.76319485977857,-27.775000000000002 196.87430597088968,82.77234769819323
c -33.33333333333333,18.443927636339247 0,64.11430269631363 80.90347180688809,64.11430269631363
c 81.26617782995112,0 114.59951116328445,-57.85742957007849 81.26617782995112,-59.43697660333527
c -33.33333333333333,-72.215 116.66666666666666,-44.44 196.51159994782665,-87.44967379117159 c 80.14171139646102,-0.0 242.2594600004171,27.775000000000002 203.37057111152822,-42.014055123732454
c -33.33333333333333,-111.33006953229582 0,-122.43077256700695 74.40720666624955,-122.43077256700695
c 55.830976932751014,0 89.16431026608434,160.4616442971601 55.830976932751014,166.9201209478655
c -33.33333333333333,72.215 116.66666666666666,44.44 221.94680084502676,-2.4752932571261113 c 65.59347878220835,0.0 256.65397729820205,-27.775000000000002 217.76508840931314,69.50526832949302
c -33.33333333333333,79.55434504802295 0,106.77163941826299 60.012689368464635,106.77163941826299
c 60.53613034876622,0 93.86946368209955,-49.60494914598289 60.53613034876622,-152.03125213911554
c -33.33333333333333,-72.215 116.66666666666666,-44.44 217.24164742901155,-24.245655608640476 c 30.507969949841627,0.0 235.39622257887964,-27.775000000000002 196.50733368999076,92.22800492557506
c -33.33333333333333,52.61632009508306 0,74.44997101537659 81.27044408778701,74.44997101537659
c 84.17837807286969,0 117.51171140620302,-38.84143272703969 84.17837807286969,-66.64103821230901
c -33.33333333333333,-72.215 116.66666666666666,-44.44 193.59939970490808,-100.03693772864264 c 77.96780102865371,-0.0 261.5217677841685,27.775000000000002 222.63287889527962,-89.86122937943406
c -33.33333333333333,-70.02349645867083 0,-98.100133483913 55.144898882498154,-98.100133483913
c 41.417476438348956,0 74.75080977168228,99.10080913936835 41.417476438348956,143.82591023604647
c -33.33333333333333,72.215 116.66666666666666,44.44 236.36030133942882,44.135452627300594 c 142.63646756772772,0.0 248.51285195587565,-27.775000000000002 209.62396306698676,59.77607556488888
c -33.33333333333333,39.4826260175884 0,107.37230172055683 68.15381471079101,107.37230172055683
c 71.09094279656176,0 104.42427612989509,-27.218352851073348 71.09094279656176,-126.23448712288665
c -33.33333333333333,-72.215 116.66666666666666,-44.44 206.686834981216,-40.91389016255907 L 5000 0 " fill="none" stroke="black" stroke-width="0.1" style="vector-effect:non-scaling-stroke;"/></g><g><path d="M 0 0  L 0 2777.500000  c 121.81788314416849,-0.0 258.64485121937673,27.775000000000002 219.75596233048785,-1.6561086583209637
c -33.33333333333333,-160.47011212984154 0,-186.32399047414654 58.021815447289924,-186.32399047414654
c 46.720293470875845,0 80.05362680420917,92.65091682453958 46.720293470875845,137.52327413107236
c -33.33333333333333,72.215 116.66666666666666,44.44 231.05748430690193,50.456825001395146 c 41.48218624375067,0.0 262.46392120656037,-27.775000000000002 223.57503231767146,116.76316307241478
c -33.33333333333333,7.6978921286021205 0,35.24114497138487 54.202745460106314,35.24114497138487
c 67.3089673144924,0 100.64230064782573,-94.97847256189067 67.3089673144924,-161.78641658721895
c -33.33333333333333,-72.215 116.66666666666666,-44.44 210.46881046328537,9.782108543419298 c 144.4909631541711,-0.0 265.26808858826337,27.775000000000002 226.37919969937445,-103.46323600422298
c -33.33333333333333,-47.90346348616056 0,-56.17391772370621 51.39857807840332,-56.17391772370621
c 66.48030645424245,0 99.81363978757578,19.570041716605484 66.48030645424245,46.77961161089313
c -33.33333333333333,72.215 116.66666666666666,44.44 211.29747132353532,112.85754211703606 c 77.08705790986052,-0.0 233.04454872810356,27.775000000000002 194.15565983921468,-64.02079337458801
c -33.33333333333333,-32.69034490886975 0,-98.88279143923234 83.6221179385631,-98.88279143923234
c 67.94451950311247,0 101.2778528364458,42.52871896724751 67.94451950311247,114.99519260226113
c -33.33333333333333,72.215 116.66666666666666,44.44 209.8332582746653,47.90839221155922 c 101.62447707846553,-0.0 265.78640003998896,27.775000000000002 226.89751115110005,-13.513162078168236
c -33.33333333333333,-130.84932878147814 0,-172.18965821284837 50.880266626677724,-172.18965821284837
c 51.39110100059975,0 84.72443433393308,34.28427070466324 51.39110100059975,92.39706886657754
c -33.33333333333333,72.215 116.66666666666666,44.44 226.38667677717802,93.30575142443908 c 57.37064968265107,0.0 238.04574991178092,-27.775000000000002 199.15686102289203,8.283649896700796
c -33.33333333333333,39.17618197181783 0,166.92506287247753 78.62091675488574,166.92506287247753
c 44.62353018081728,0 77.95686351415061,-124.76985206904027 44.62353018081728,-146.1451579712184
c -33.33333333333333,-72.215 116.66666666666666,-44.44 233.1542475969605,-29.063554797959938 c 101.98131058261028,-0.0 232.92837855986141,27.775000000000002 194.03948967097253,-121.93752336785731
c -33.33333333333333,-9.164537098393458 0,-12.080822664297116 83.73828810680524,-12.080822664297116
c 53.2425854281812,0 86.57591876151453,30.60549215761734 53.2425854281812,47.691938308436505
c -33.33333333333333,72.215 116.66666666666666,44.44 224.53519234959657,86.32640772371792 c 127.7896565836489,0.0 257.1061821559506,-27.775000000000002 218.21729326706168,101.79400749931273
c -33.33333333333333,20.22969896253861 0,84.85258433978575 59.560484510716094,84.85258433978575
c 57.42541982793199,0 90.75875316126532,-67.28202705223727 57.42541982793199,-110.48441598797642
c -33.33333333333333,-72.215 116.66666666666666,-44.44 220.35235794984578,-76.16217585112206 c 123.78398808427507,-0.0 247.6444196991608,27.775000000000002 208.75553081027192,-56.05094922367176
c -33.33333333333333,-103.95579920876673 0,-109.52659086513793 69.02224696750585,-109.52659086513793
c 42.42226641091321,0 75.75559974424654,28.457978474755915 42.42226641091321,108.5416814394861
c -33.33333333333333,72.215 116.66666666666666,44.44 235.35551136686456,57.035858649323586 L 5000 0 " fill="none" stroke="black" stroke-width="0.1" style="vector-effect:non-scaling-stroke;"/></g></g></svg>