<svg baseProfile="full" height="2304" preserveAspectRatio="none" shape-rendering="geometricPrecision" version="1.1" viewBox="0,0,3456,2304" width="3456" xmlns="http://www.w3.org/2000/svg" xmlns:ev="http://www.w3.org/2001/xml-events" xmlns:xlink="http://www.w3.org/1999/xlink"><title>Jigsaw puzzle piece clips</title><desc>Created with the piecemaker. Piece count: 24</desc><defs /><g><g><rect fill="white" height="2304" width="3456" x="0" y="0" /></g></g><g><g><path d="M 0 0  L 576.000000 0  c -0.0,132.25264423383834 28.8,244.83623720814415 -8.408092084516785,204.51623720814413&#10;c -129.21318330587235,-34.56 -160.0837521558321,0 -160.0837521558321,83.48376279185587&#10;c 0,84.73675024665903 43.20374766450352,119.29675024665903 86.8380689654892,84.73675024665903&#10;c 74.88,-34.56 46.08,120.96 81.65377527485968,203.26324975334097 c -0.0,81.28849382361912 28.8,283.43218336326476 -86.81546344117088,243.11218336326476&#10;c -63.4865967726809,-34.56 -63.31798343799254,0 -63.31798343799254,44.88781663673524&#10;c 0,53.17756118686714 62.348566412291966,87.73756118686714 109.03370570535877,53.17756118686714&#10;c 74.88,-34.56 46.08,120.96 41.099741173804645,234.82243881313286 c -0.0,79.20232245281721 28.8,287.5202333741746 -26.029593125803363,247.20023337417462&#10;c -117.55626975375644,-34.56 -128.8629808504986,0 -128.8629808504986,40.799766625825384&#10;c 0,83.3197244718994 50.05150072257651,117.87972447189941 74.23339382766592,83.3197244718994&#10;c 74.88,-34.56 46.08,120.96 80.65918014863603,204.6802755281006 c -0.0,101.13439945585365 28.8,287.4787926556308 -39.94289149351399,247.1587926556308&#10;c -119.55020527860778,-34.56 -146.67968391340852,0 -146.67968391340852,40.841207344369195&#10;c 0,62.900342964826564 102.72620520121295,97.46034296482657 129.46959978231206,62.900342964826564&#10;c 74.88,-34.56 46.08,120.96 57.15297562461046,225.09965703517344 L 0 2304 " fill="none" stroke="black" stroke-width="0.1" style="vector-effect:non-scaling-stroke;" /></g><g><path d="M 0 0  L 1152.000000 0  c 0.0,35.01790126237316 -28.8,284.7687336950231 53.963605582716035,244.44873369502312&#10;c 88.05021464331683,-34.56 120.28128897880816,0 120.28128897880816,43.55126630497688&#10;c 0,61.23666594361919 -56.32350620474223,95.79666594361919 -185.21044713564075,61.23666594361919&#10;c -74.88,-34.56 -46.08,120.96 10.965552574116543,226.7633340563808 c 0.0,126.19525635844462 -28.8,278.3279868484138 -1.8189411578562726,238.0079868484138&#10;c 84.75307557152613,-34.56 169.98520825906994,0 169.98520825906994,49.99201315158621&#10;c 0,64.63964284878574 -105.04200783579478,99.19964284878574 -106.62622267256273,64.63964284878574&#10;c -74.88,-34.56 -46.08,120.96 -61.54004442865093,223.36035715121426 c -0.0,77.89073916613044 28.8,267.3429724362649 -82.25876137398235,227.02297243626492&#10;c -77.64550202255109,-34.56 -107.10375165477625,0 -107.10375165477625,60.97702756373508&#10;c 0,83.49550207680994 71.40988032223301,118.05550207680994 100.46691064870669,83.49550207680994&#10;c 74.88,-34.56 46.08,120.96 88.89560238005191,204.50449792319006 c -0.0,146.54587926684522 28.8,275.58676051574247 7.4222971481201645,235.26676051574248&#10;c -136.08245143361128,-34.56 -147.94817224151458,0 -147.94817224151458,52.733239484257524&#10;c 0,82.73864512466173 54.01898103433264,117.29864512466173 110.59812963985028,82.73864512466173&#10;c 74.88,-34.56 46.08,120.96 29.927745453544148,205.26135487533827 L 0 2304 " fill="none" stroke="black" stroke-width="0.1" style="vector-effect:non-scaling-stroke;" /></g><g><path d="M 0 0  L 1728.000000 0  c 0.0,52.97332980461293 -28.8,249.7738930948102 64.9035294190222,209.45389309481018&#10;c 67.63087161387057,-34.56 130.1511812006438,0 130.1511812006438,78.54610690518982&#10;c 0,70.090690524281 -80.58197132134617,104.650690524281 -105.83192564154062,70.090690524281&#10;c -74.88,-34.56 -46.08,120.96 -89.2227849781254,217.909309475719 c -0.0,127.05209372799533 28.8,245.39512424705862 -0.6383674879224095,205.0751242470586&#10;c -131.3180735570742,-34.56 -150.02332756468792,0 -150.02332756468792,82.9248757529414&#10;c 0,45.083740247420224 95.15500001715412,79.64374024742023 105.73926184786924,45.083740247420224&#10;c 74.88,-34.56 46.08,120.96 44.92243320474108,242.91625975257978 c -0.0,82.00506933671095 28.8,262.2288762240317 -51.976548407102825,221.90887622403167&#10;c -89.58257762898852,-34.56 -117.38968664000407,0 -117.38968664000407,66.09112377596833&#10;c 0,90.82967024583735 99.12928126171646,125.38967024583735 121.45347757896982,90.82967024583735&#10;c 74.88,-34.56 46.08,120.96 47.91275746813707,197.17032975416265 c -0.0,35.57451064450921 28.8,263.5287585359475 11.421247413377607,223.20875853594748&#10;c -77.77582327596399,-34.56 -200.93926773927947,0 -200.93926773927947,64.79124146405252&#10;c 0,91.2894468700378 61.973028704317876,125.84944687003781 190.85574556439366,91.2894468700378&#10;c 74.88,-34.56 46.08,120.96 -1.3377252384917995,196.7105531299622 L 0 2304 " fill="none" stroke="black" stroke-width="0.1" style="vector-effect:non-scaling-stroke;" /></g><g><path d="M 0 0  L 2304.000000 0  c 0.0,98.36191706221192 -28.8,281.5253962541795 94.2352755218083,241.20539625417948&#10;c 31.35671393692113,-34.56 90.93912853986531,0 90.93912853986531,46.794603745820524&#10;c 0,85.4321840284814 -30.11483607237386,119.9921840284814 -123.3880648768172,85.4321840284814&#10;c -74.88,-34.56 -46.08,120.96 -61.786339184856416,202.5678159715186 c -0.0,145.60153783025945 28.8,271.1856070306331 -7.08185966211166,230.86560703063307&#10;c -35.46430499639353,-34.56 -147.61313767390118,0 -147.61313767390118,57.13439296936693&#10;c 0,69.40046263096053 41.53626776953421,103.96046263096054 86.64678675692736,69.40046263096053&#10;c 74.88,-34.56 46.08,120.96 68.04821057908549,218.59953736903947 c -0.0,57.12572832275354 28.8,272.81675879365224 -76.1063480939311,232.49675879365222&#10;c -66.96333891432432,-34.56 -80.6129006354324,0 -80.6129006354324,55.50324120634778&#10;c 0,76.62016183109631 51.18729896761738,111.18016183109631 110.4556321976232,76.62016183109631&#10;c 74.88,-34.56 46.08,120.96 46.2636165317403,211.3798381689037 c -0.0,78.1575268033382 28.8,241.8983874398349 -44.08519682059769,201.57838743983487&#10;c -42.37067742472442,-34.56 -140.2447454890846,0 -140.2447454890846,86.42161256016513&#10;c 0,58.4117660021609 102.34159257858768,92.9717660021609 119.46253864584763,58.4117660021609&#10;c 74.88,-34.56 46.08,120.96 64.86740366383465,229.5882339978391 L 0 2304 " fill="none" stroke="black" stroke-width="0.1" style="vector-effect:non-scaling-stroke;" /></g><g><path d="M 0 0  L 2880.000000 0  c -0.0,144.56517968486583 28.8,244.53887487936834 -33.941759175503066,204.21887487936831&#10;c -81.51200752406997,-34.56 -139.98314762196912,0 -139.98314762196912,83.78112512063169&#10;c 0,88.23592900018264 43.70101850582645,122.79592900018264 66.67157485747617,88.23592900018264&#10;c 74.88,-34.56 46.08,120.96 107.25333193999603,199.76407099981736 c 0.0,81.49572922258656 -28.8,257.774142665953 72.66521880085087,217.454142665953&#10;c 29.398587100210477,-34.56 120.68070541503086,0 120.68070541503086,70.54585733404701&#10;c 0,72.66544858958065 -88.817214607362,107.22544858958065 -190.60274958116986,72.66544858958065&#10;c -74.88,-34.56 -46.08,120.96 -2.7431746347118633,215.33455141041935 c 0.0,154.96903469994817 -28.8,270.87901570339056 94.42267338638243,230.55901570339057&#10;c 34.17814456365253,-34.56 94.64457046623954,0 94.64457046623954,57.44098429660943&#10;c 0,79.67032507864639 -96.66719443526691,114.23032507864639 -119.7043709778149,79.67032507864639&#10;c -74.88,-34.56 -46.08,120.96 -69.36287287480707,208.32967492135361 c -0.0,135.0887932903327 28.8,264.55460963578895 -4.285246801635207,224.23460963578896&#10;c -50.414663720661686,-34.56 -168.4183797050967,0 -168.4183797050967,63.765390364211044&#10;c 0,76.03356615755786 93.33231193554333,110.59356615755786 119.52731467413767,76.03356615755786&#10;c 74.88,-34.56 46.08,120.96 53.17631183259422,211.96643384244214 L 0 2304 " fill="none" stroke="black" stroke-width="0.1" style="vector-effect:non-scaling-stroke;" /></g></g><g><g><path d="M 0 0  L 0 576.000000  c 35.89862659525289,-0.0 255.0585904724701,28.8 214.7385904724701,-34.16408391800331&#10;c -34.56,-86.15804416074015 0,-112.74111702977262 73.2614095275299,-112.74111702977262&#10;c 82.24316417173259,0 116.80316417173259,37.26953067638478 82.24316417173259,63.0855915194643&#10;c -34.56,74.88 120.96,46.08 205.7568358282674,83.81960942831164 c 159.0974043406369,-0.0 241.2988641119669,28.8 200.9788641119669,-121.55195019224857&#10;c -34.56,-22.156515498752228 0,-22.859896537705936 87.02113588803309,-22.859896537705936&#10;c 71.18346717867178,0 105.74346717867178,38.192883540208484 71.18346717867178,131.87877755125504&#10;c -34.56,74.88 120.96,46.08 216.81653282132822,12.533069178699463 c 143.52312307266712,0.0 263.6117670247298,-28.8 223.29176702472978,8.67875597761705&#10;c -34.56,58.104239511833704 0,130.89213546195427 64.70823297527022,130.89213546195427&#10;c 73.3259073511561,0 107.8859073511561,-30.643506978162662 73.3259073511561,-61.90388954500081&#10;c -34.56,-74.88 120.96,-46.08 214.6740926488439,-77.6670018945705 c 154.60374152968666,-0.0 285.1319477663588,28.8 244.8119477663588,-121.780955250604&#10;c -34.56,-33.36002275123782 0,-41.05534460135266 43.1880522336412,-41.05534460135266&#10;c 90.29929717349813,0 124.85929717349813,108.99778414909147 90.29929717349813,169.8271763370696&#10;c -34.56,74.88 120.96,46.08 197.70070282650187,-6.990876485112949 c 138.2941096685678,-0.0 250.51877845400958,28.8 210.19877845400956,-96.48889564213704&#10;c -34.56,-19.714598244281316 0,-74.95110373430222 77.80122154599044,-74.95110373430222&#10;c 51.934154826217934,0 86.49415482621794,72.3372266760168 51.934154826217934,149.17726749288067&#10;c -34.56,74.88 120.96,46.08 236.06584517378207,22.262731883558587 c 34.64020394029823,0.0 251.95345438025856,-28.8 211.63345438025857,89.85329415213104&#10;c -34.56,26.616148701345942 0,67.9770912513591 76.36654561974143,67.9770912513591&#10;c 86.89818791996754,0 121.45818791996754,-57.83005170393668 86.89818791996754,-96.05381059056789&#10;c -34.56,-74.88 120.96,-46.08 201.10181208003246,-61.77657481292225 L 3456 0 " fill="none" stroke="black" stroke-width="0.1" style="vector-effect:non-scaling-stroke;" /></g><g><path d="M 0 0  L 0 1152.000000  c 42.24316040291345,0.0 246.22890659013052,-28.8 205.9089065901305,98.88457741796067&#10;c -34.56,50.65392201490092 0,57.81117704270365 82.0910934098695,57.81117704270365&#10;c 65.31355506598845,0 99.87355506598846,-63.03337280833539 65.31355506598845,-125.02744793926264&#10;c -34.56,-74.88 120.96,-46.08 222.68644493401155,-31.668306521401675 c 113.60935433747535,0.0 269.0554291143341,-28.8 228.73542911433412,-1.6599038637730925&#10;c -34.56,125.78157313424111 0,158.80654817181198 59.264570885665876,158.80654817181198&#10;c 81.48541199577602,0 116.04541199577602,-31.31858705108462 81.48541199577602,-46.0192336010643&#10;c -34.56,-74.88 120.96,-46.08 206.51458800422398,-111.1274107069746 c 62.23569053699852,0.0 254.55283155092724,-28.8 214.23283155092722,4.394179041812065&#10;c -34.56,150.21657948734267 0,169.9342984738461 73.76716844907278,169.9342984738461&#10;c 66.76504765652965,0 101.32504765652965,-73.85298051403367 66.76504765652965,-92.4422157180579&#10;c -34.56,-74.88 120.96,-46.08 221.23495234347035,-81.88626179760027 c 46.830037227816334,-0.0 268.5911464679666,28.8 228.2711464679666,-55.07426998202555&#10;c -34.56,-110.28540376718585 0,-132.65638124622544 59.72885353203341,-132.65638124622544&#10;c 77.94362559652217,0 112.50362559652217,53.554330813440664 77.94362559652217,123.9736097687234&#10;c -34.56,74.88 120.96,46.08 210.05637440347783,63.757041459527585 c 91.51683977610745,-0.0 272.7694273463584,28.8 232.4494273463584,-49.41935764054169&#10;c -34.56,-120.80042949256888 0,-141.53874580837493 55.55057265364161,-141.53874580837493&#10;c 71.4900968517718,0 106.0500968517718,51.25897525144717 71.4900968517718,183.99152242394547&#10;c -34.56,74.88 120.96,46.08 216.5099031482282,6.966581024971163 c 55.48710541384406,-0.0 281.32622710086486,28.8 241.00622710086486,-56.209016929265935&#10;c -34.56,-80.33033999977262 0,-102.21274881365613 46.99377289913514,-102.21274881365613&#10;c 81.24927318722143,0 115.80927318722144,49.95965831509573 81.24927318722143,160.17841824640504&#10;c -34.56,74.88 120.96,46.08 206.75072681277857,-1.756652503482968 L 3456 0 " fill="none" stroke="black" stroke-width="0.1" style="vector-effect:non-scaling-stroke;" /></g><g><path d="M 0 0  L 0 1728.000000  c 146.5323505118264,0.0 256.6475048135088,-28.8 216.32750481350882,5.802546937441959&#10;c -34.56,84.25304614411611 0,138.8890160270698 71.67249518649118,138.8890160270698&#10;c 76.18237633417971,0 110.74237633417971,-14.834515481227966 76.18237633417971,-19.011406314257613&#10;c -34.56,-74.88 120.96,-46.08 211.8176236658203,-125.68015665025413 c 107.72348686291141,-0.0 281.3745677308953,28.8 241.05456773089531,-28.58488294996353&#10;c -34.56,-61.950305485786785 0,-111.27760749770674 46.945432269104685,-111.27760749770674&#10;c 70.24692754114187,0 104.80692754114187,56.72410868011962 70.24692754114187,141.41723381962615&#10;c -34.56,74.88 120.96,46.08 217.75307245885813,-1.5547433719558796 c 143.8538477042249,0.0 236.9778733477943,-28.8 196.6578733477943,19.90199374848148&#10;c -34.56,88.10437388895843 0,124.87943400096498 91.3421266522057,124.87943400096498&#10;c 53.49103319296012,0 88.05103319296012,-12.623795056592025 53.49103319296012,-20.152805981824798&#10;c -34.56,-74.88 120.96,-46.08 234.50896680703988,-124.62862176762167 c 60.93026011019127,-0.0 266.0831316870841,28.8 225.76313168708413,-79.21430779160197&#10;c -34.56,-57.57883920447709 0,-67.48393661590988 62.236868312915874,-67.48393661590988&#10;c 70.80637408130019,0 105.3663740813002,42.54833496811524 70.80637408130019,52.35689281004815&#10;c -34.56,74.88 120.96,46.08 217.1936259186998,94.3413515974637 c 87.61276856219065,-0.0 237.57916786850086,28.8 197.25916786850084,-95.4460973959235&#10;c -34.56,-44.072800497580054 0,-93.73414527492459 90.74083213149916,-93.73414527492459&#10;c 71.54983975705261,0 106.10983975705261,70.39062694717548 71.54983975705261,115.28712067806265&#10;c -34.56,74.88 120.96,46.08 216.4501602429474,73.89312199278544 c 88.13453301255575,-0.0 262.93283635058896,28.8 222.61283635058894,-84.89072668736907&#10;c -34.56,-35.49808082166051 0,-98.16791599625526 65.38716364941106,-98.16791599625526&#10;c 51.230507589423155,0 85.79050758942316,38.662517648684855 51.230507589423155,61.92244784442896&#10;c -34.56,74.88 120.96,46.08 236.76949241057685,121.13619483919537 L 3456 0 " fill="none" stroke="black" stroke-width="0.1" style="vector-effect:non-scaling-stroke;" /></g></g></svg>