<svg baseProfile="full" height="1667" preserveAspectRatio="none" shape-rendering="geometricPrecision" version="1.1" viewBox="0,0,2500,1667" width="2500" xmlns="http://www.w3.org/2000/svg" xmlns:ev="http://www.w3.org/2001/xml-events" xmlns:xlink="http://www.w3.org/1999/xlink"><title>Jigsaw puzzle piece clips</title><desc>Created with the piecemaker. Piece count: 48</desc><defs/><g><g><rect fill="white" height="1667" width="2500" x="0" y="0"/></g></g><g><g><path d="M 0 0  L 312.500000 0  c -0.0,51.66287681512797 15.625,130.00497031357017 0.2821950357635521,110.55663698023683
c -34.328246092565884,-16.669999999999998 -97.4125907271864,0 -97.4125907271864,28.360029686429826
c 0,29.37437171358053 38.74398119001375,46.04437171358053 68.14417133247031,29.37437171358053
c 40.625,-16.669999999999998 25.0,58.34499999999999 28.98622435895254,109.54229495308613 c 0.0,38.592898235830674 -15.625,120.30432126287764 67.79768094897322,100.8559879295443
c 10.761815902318673,-16.669999999999998 21.52182659282144,0 21.52182659282144,38.06067873712236
c 0,23.738321797399976 -22.047384357010923,40.40832179739998 -24.32011330090056,23.738321797399976
c -40.625,-16.669999999999998 -25.0,58.34499999999999 -64.9993942408941,115.17834486926668 c -0.0,47.68230330547471 15.625,137.7177254396111 -61.60468487324986,118.26939210627776
c -13.859494908717153,-16.669999999999998 -22.539408807161756,0 -22.539408807161756,20.647274560388894
c 0,25.427234482655166 7.680749152186352,42.09723448265517 24.70133084495763,25.427234482655166
c 40.625,-16.669999999999998 25.0,58.34499999999999 59.44276283545398,113.48943218401149 c 0.0,51.37754472248591 -15.625,133.80240432721257 40.259344763700874,114.35407099387925
c 26.404067818269613,-16.669999999999998 50.51250588211203,0 50.51250588211203,24.56259567278741
c 0,37.02381706431615 -26.665115522271318,53.69381706431615 -46.59048129965965,37.02381706431615
c -40.625,-16.669999999999998 -25.0,58.34499999999999 -44.181369346153254,101.89284960235051 c 0.0,73.14756120369793 -15.625,124.0817918081615 10.647462659340839,104.63345847482816
c 56.440213274001984,-16.669999999999998 88.06236581834318,0 88.06236581834318,34.2832081918385
c 0,26.540630486250365 -11.88416540952504,43.210630486250366 -32.05707260260833,26.540630486250365
c -40.625,-16.669999999999998 -25.0,58.34499999999999 -66.6527558750757,112.37603618041629 c -0.0,20.15276267508035 15.625,127.23482564880787 -56.22011513554865,107.78649231547453
c -17.92739525314477,-16.669999999999998 -19.06700996983642,0 -19.06700996983642,31.130174351192125
c 0,32.1724873145819 11.468004523740873,48.8424873145819 15.560768336266896,32.1724873145819
c 40.625,-16.669999999999998 25.0,58.34499999999999 59.726356769118176,106.74417935208476 L 0 1667 " fill="none" stroke="black" stroke-width="0.1" style="vector-effect:non-scaling-stroke;"/></g><g><path d="M 0 0  L 625.000000 0  c 0.0,33.0812414112121 -15.625,120.96878810407328 9.971417844037438,101.52045477073995
c 57.4017728311782,-16.669999999999998 67.34145868893549,0 67.34145868893549,37.39621189592671
c 0,44.27150351440588 -38.89870472460263,60.94150351440588 -75.270567423145,44.27150351440588
c -40.625,-16.669999999999998 -25.0,58.34499999999999 -2.042309109827926,94.64516315226078 c -0.0,40.97070115013362 15.625,137.95793659073192 -50.37062914972831,118.5096032573986
c -23.55678849184614,-16.669999999999998 -32.38464972730906,0 -32.38464972730906,20.407063409268062
c 0,29.704963050493745 18.679754173412757,46.37496305049375 30.573643332786034,29.704963050493745
c 40.625,-16.669999999999998 25.0,58.34499999999999 52.181635544251336,109.21170361617291 c 0.0,68.3387548151113 -15.625,123.31196443575375 35.97612000401427,103.86363110242041
c 14.188898235057128,-16.669999999999998 63.55875230265011,0 63.55875230265011,35.053035564246244
c 0,21.5885274591721 -79.20789085929849,38.2585274591721 -89.68677981672465,21.5885274591721
c -40.625,-16.669999999999998 -25.0,58.34499999999999 -9.84809248993973,117.32813920749456 c -0.0,43.67796406638747 15.625,138.65898592962418 -31.091180231382587,119.21065259629084
c -20.88475970843491,-16.669999999999998 -49.41406525689879,0 -49.41406525689879,19.706014070375815
c 0,23.025065482437128 6.1654062689375175,39.69506548243713 26.224127653437613,23.025065482437128
c 40.625,-16.669999999999998 25.0,58.34499999999999 54.28111783484376,115.89160118422953 c -0.0,38.89875644652809 15.625,129.64746377557861 -9.508953951275823,110.19913044224528
c -69.3887898480505,-16.669999999999998 -79.57598716842683,0 -79.57598716842683,28.71753622442138
c 0,39.87952551092283 55.14482477669753,56.549525510922834 75.14267104263011,39.87952551092283
c 40.625,-16.669999999999998 25.0,58.34499999999999 13.94227007707255,99.03714115574383 c -0.0,77.78361221159726 15.625,128.56055057823545 -45.8724231333761,109.11221724490213
c -15.344687983994593,-16.669999999999998 -37.29539075097945,0 -37.29539075097945,29.80444942176453
c 0,31.605848739734142 34.25007564241305,48.275848739734144 52.98687241417744,31.605848739734142
c 40.625,-16.669999999999998 25.0,58.34499999999999 30.180941470178112,107.31081792693251 L 0 1667 " fill="none" stroke="black" stroke-width="0.1" style="vector-effect:non-scaling-stroke;"/></g><g><path d="M 0 0  L 937.500000 0  c 0.0,63.677659694631195 -15.625,138.02586130952088 -1.6304677594177006,118.57752797618755
c 27.138135933974443,-16.669999999999998 85.35037960772067,0 85.35037960772067,20.339138690479103
c 0,28.935812735644987 -29.156087988668943,45.60581273564499 -49.45635374896545,28.935812735644987
c -40.625,-16.669999999999998 -25.0,58.34499999999999 -34.26355809933752,109.98085393102167 c 0.0,74.54346386850887 -15.625,135.67223800479783 34.58989225154457,116.22390467146451
c 10.161162417449303,-16.669999999999998 46.17607733594829,0 46.17607733594829,22.692761995202147
c 0,32.5456867772977 -33.68392442874352,49.215686777297705 -44.181825435335426,32.5456867772977
c -40.625,-16.669999999999998 -25.0,58.34499999999999 -36.584144152157435,106.37097988936895 c -0.0,48.87754379378097 15.625,113.9138522169322 -33.3811170399547,94.46551888359886
c -18.937475598547408,-16.669999999999998 -70.23505290484071,0 -70.23505290484071,44.451147783067796
c 0,23.43868299658783 41.18082836338259,40.10868299658783 43.23683060192039,23.43868299658783
c 40.625,-16.669999999999998 25.0,58.34499999999999 60.37933934287503,115.47798367007883 c 0.0,60.45486489987719 -15.625,135.8237767799822 39.06700568052271,116.37544344664887
c 19.612328150964682,-16.669999999999998 55.15959140655252,0 55.15959140655252,22.541223220017784
c 0,22.482139217955734 -54.67717454837442,39.152139217955735 -86.89815313870086,22.482139217955734
c -40.625,-16.669999999999998 -25.0,58.34499999999999 -7.328443948374371,116.43452744871092 c 0.0,36.65241957751529 -15.625,124.64149905387619 6.27213835112538,105.19316572054285
c 17.170327015009114,-16.669999999999998 70.4946227025537,0 70.4946227025537,33.723500946123806
c 0,34.760841013073474 -35.357254003133356,51.430841013073476 -81.85117312841312,34.760841013073474
c -40.625,-16.669999999999998 -25.0,58.34499999999999 5.084412074734047,104.15582565359318 c 0.0,57.817018068501454 -15.625,117.16675676871347 15.109352911782869,97.71842343538013
c 72.56066811200208,-16.669999999999998 71.9103189005424,0 71.9103189005424,41.198243231286526
c 0,44.407006318719 -43.8357881637216,61.077006318719 -84.68895696118923,44.407006318719
c -40.625,-16.669999999999998 -25.0,58.34499999999999 -2.3307148511360367,94.50966034794766 L 0 1667 " fill="none" stroke="black" stroke-width="0.1" style="vector-effect:non-scaling-stroke;"/></g><g><path d="M 0 0  L 1250.000000 0  c 0.0,47.04646751619194 -15.625,115.25318491295356 40.270891271375845,95.80485157962022
c 49.98196186368509,-16.669999999999998 56.713960373043946,0 56.713960373043946,43.11181508704644
c 0,30.33747524085865 -68.19570213192347,47.00747524085865 -82.69199154456076,30.33747524085865
c -40.625,-16.669999999999998 -25.0,58.34499999999999 -14.292860099859027,108.579191425808 c -0.0,29.82574728043517 15.625,116.5811218404721 -27.037988593789414,97.13278850713876
c -19.391573540312738,-16.669999999999998 -66.58807063247531,0 -66.58807063247531,41.7838781595279
c 0,32.53599492577126 16.951680118578583,49.205994925771265 36.35655623603395,32.53599492577126
c 40.625,-16.669999999999998 25.0,58.34499999999999 57.26950299023076,106.3806717408954 c 0.0,46.14598563488554 -15.625,126.15044567558779 26.95752263392353,106.70211234225445
c 44.55559116401988,-16.669999999999998 70.93794531955858,0 70.93794531955858,32.214554324412205
c 0,31.696290754068798 -56.75826350831863,48.3662907540688 -97.12828996926022,31.696290754068798
c -40.625,-16.669999999999998 -25.0,58.34499999999999 -0.7671779842218882,107.22037591259786 c 0.0,76.18830968935464 -15.625,114.9697600813075 22.89710959317414,95.52142674797416
c 18.70479797565568,-16.669999999999998 66.05451826150279,0 66.05451826150279,43.395239918692496
c 0,31.721168387327737 -30.805016734537634,48.39116838732774 -52.146262179394675,31.721168387327737
c -40.625,-16.669999999999998 -25.0,58.34499999999999 -36.80536567528225,107.19549827933892 c -0.0,18.106120745016117 15.625,136.6364729165603 -67.74986170953501,117.18813958322698
c -6.151695449781544,-16.669999999999998 -25.736830205072152,0 -25.736830205072152,21.728527083439673
c 0,41.6423826196895 6.668968628159957,58.3123826196895 27.64101459719049,41.6423826196895
c 40.625,-16.669999999999998 25.0,58.34499999999999 65.84567731741667,97.27428404697716 c 0.0,53.11089813891514 -15.625,135.28782898915986 -1.3939565166160603,115.83949565582652
c 73.11627032704811,-16.669999999999998 86.34230505929449,0 86.34230505929449,23.077171010840132
c 0,37.092624937056996 -23.165174868922044,53.762624937057 -64.13266399664695,37.092624937056996
c -40.625,-16.669999999999998 -25.0,58.34499999999999 -20.815684546031477,101.82404172960966 L 0 1667 " fill="none" stroke="black" stroke-width="0.1" style="vector-effect:non-scaling-stroke;"/></g><g><path d="M 0 0  L 1562.500000 0  c 0.0,62.53074189791463 -15.625,116.12992183518827 62.880146646667946,96.68158850185493
c 25.56595928356505,-16.669999999999998 30.492608393521046,0 30.492608393521046,42.235078164811725
c 0,39.666000518557496 -78.5270416033938,56.3360005185575 -90.24958995987939,39.666000518557496
c -40.625,-16.669999999999998 -25.0,58.34499999999999 -3.1231650803096045,99.25066614810916 c 0.0,79.41847286365432 -15.625,122.91436813890735 46.60303501710322,103.46603480557401
c 35.83395004962272,-16.669999999999998 42.35361967038903,0 42.35361967038903,35.450631861092646
c 0,43.6003510604086 -15.352578259118227,60.2703510604086 -41.50220535782591,43.6003510604086
c -40.625,-16.669999999999998 -25.0,58.34499999999999 -47.45444932966634,95.31631560625806 c -0.0,17.763711442471024 15.625,125.108002544724 -0.31143426600850316,105.65966921139066
c -63.561957754770674,-16.669999999999998 -89.49328105450957,0 -89.49328105450957,33.25699745527599
c 0,43.90571288241688 9.932594699622944,60.57571288241688 23.313000000284646,43.90571288241688
c 40.625,-16.669999999999998 25.0,58.34499999999999 66.49171532023342,95.01095378424978 c -0.0,19.846008833667486 15.625,117.3325190514684 -38.15734707592294,97.88418571813506
c -30.867986909967925,-16.669999999999998 -39.10899019662928,0 -39.10899019662928,41.0324809485316
c 0,30.541928645296167 19.287916059469357,47.21192864529617 24.839994067259042,30.541928645296167
c 40.625,-16.669999999999998 25.0,58.34499999999999 52.42634320529318,108.37473802137049 c 0.0,45.66297050792077 -15.625,114.34777123694536 -1.1189277879879307,94.89943790361203
c 28.05383686779294,-16.669999999999998 97.36296171131657,0 97.36296171131657,44.01722876305463
c 0,43.50715661913085 -13.196505322140657,60.177156619130855 -48.04865729722626,43.50715661913085
c -40.625,-16.669999999999998 -25.0,58.34499999999999 -48.19537662610238,95.4095100475358 c 0.0,34.55861632546721 -15.625,136.2596284998181 59.72898284348639,116.81129516648475
c 4.804470179579557,-16.669999999999998 15.842884056752254,0 15.842884056752254,22.105371500181903
c 0,34.90994722855626 -19.558023648632375,51.579947228556264 -32.271779751139235,34.90994722855626
c -40.625,-16.669999999999998 -25.0,58.34499999999999 -43.30008714909941,104.0067194381104 L 0 1667 " fill="none" stroke="black" stroke-width="0.1" style="vector-effect:non-scaling-stroke;"/></g><g><path d="M 0 0  L 1875.000000 0  c -0.0,52.1327582824362 15.625,136.1484943155487 0.6546427329156591,116.70016098221537
c -51.16514719000932,-16.669999999999998 -81.93713186597563,0 -81.93713186597563,22.216505684451292
c 0,20.594349465084207 44.01817110638809,37.26434946508421 72.70364446356243,20.594349465084207
c 40.625,-16.669999999999998 25.0,58.34499999999999 8.578844669497542,118.32231720158245 c 0.0,21.730393869450054 -15.625,131.1693307050902 -3.1133936504919193,111.72099737175687
c 47.18361713841777,-16.669999999999998 83.14093073979375,0 83.14093073979375,27.19566929490979
c 0,21.150373198625203 -46.76827351070965,37.820373198625205 -63.31947971948154,21.150373198625203
c -40.625,-16.669999999999998 -25.0,58.34499999999999 -16.70805736982029,117.76629346804145 c 0.0,54.95394992018243 -15.625,119.90611979622135 44.23943607064055,100.45778646288801
c 43.36316320768539,-16.669999999999998 52.05288569883268,0 52.05288569883268,38.45888020377865
c 0,36.84631805087258 -35.6083889261582,53.516318050872584 -42.28235641836625,36.84631805087258
c -40.625,-16.669999999999998 -25.0,58.34499999999999 -54.009965351106985,102.07034861579407 c -0.0,70.86488267937811 15.625,138.00704263328848 -25.391836033795578,118.55870929995515
c -20.44232852056706,-16.669999999999998 -51.42744021207327,0 -51.42744021207327,20.357957366711503
c 0,35.02795207001577 25.696152120878143,51.69795207001577 61.333291629449924,35.02795207001577
c 40.625,-16.669999999999998 25.0,58.34499999999999 15.485984616418925,103.88871459665089 c 0.0,36.500153087384035 -15.625,115.60745964636622 4.042730758279808,96.15912631303289
c 18.60951985461123,-16.669999999999998 72.12365327115934,0 72.12365327115934,42.75754035363377
c 0,23.322022409853787 -47.89702623255863,39.99202240985379 -51.989200909601095,23.322022409853787
c -40.625,-16.669999999999998 -25.0,58.34499999999999 -24.17718311983805,115.59464425681287 c -0.0,30.344900242856017 15.625,131.43223698986836 -5.529771436693411,111.98390365653503
c -64.38783786826583,-16.669999999999998 -86.0635426626059,0 -86.0635426626059,26.932763010131623
c 0,42.2975135049758 32.88370977961225,58.9675135049758 61.538025520053864,42.2975135049758
c 40.625,-16.669999999999998 25.0,58.34499999999999 30.055288579245442,96.61915316169086 L 0 1667 " fill="none" stroke="black" stroke-width="0.1" style="vector-effect:non-scaling-stroke;"/></g><g><path d="M 0 0  L 2187.500000 0  c 0.0,67.75653872818692 -15.625,121.39868429946833 31.593748403976157,101.95035096613499
c 18.434941168009022,-16.669999999999998 71.13846584156553,0 71.13846584156553,36.966315700531666
c 0,21.025003648602222 -46.49990943949245,37.695003648602224 -81.42145509129084,21.025003648602222
c -40.625,-16.669999999999998 -25.0,58.34499999999999 -21.310759154250846,117.89166301806443 c 0.0,78.60594624404652 -15.625,123.64355812954751 -3.414934937037462,104.19522479621418
c 68.5353558686401,-16.669999999999998 100.67142542018783,0 100.67142542018783,34.72144187045248
c 0,28.91077098357519 -12.151873890759592,45.58077098357519 -29.612237472602644,28.91077098357519
c -40.625,-16.669999999999998 -25.0,58.34499999999999 -67.64425301054773,110.00589568309147 c 0.0,75.21782005543214 -15.625,137.41886499228974 8.708416755395163,117.9705316589564
c 31.731737617515293,-16.669999999999998 73.94197638661625,0 73.94197638661625,20.946135007710254
c 0,42.619365280068166 -71.47001935519789,59.28936528006817 -77.17760151723921,42.619365280068166
c -40.625,-16.669999999999998 -25.0,58.34499999999999 -5.472791624772199,96.29730138659849 c -0.0,56.89787612965404 15.625,137.80357730832333 -33.862483681008335,118.35524397499
c -46.23998517187975,-16.669999999999998 -55.182645483768134,0 -55.182645483768134,20.561422691676654
c 0,28.954693853900835 17.55332037828228,45.62469385390084 39.38579838148943,28.954693853900835
c 40.625,-16.669999999999998 25.0,58.34499999999999 49.65933078328704,109.96197281276582 c -0.0,25.41460651012718 15.625,133.94122211099386 -55.52490884680969,114.49288877766053
c -16.647655856832984,-16.669999999999998 -38.69551121483682,0 -38.69551121483682,24.423777889006132
c 0,41.98684753429552 34.78732927782511,58.65684753429552 41.82402726936003,41.98684753429552
c 40.625,-16.669999999999998 25.0,58.34499999999999 52.39639279228648,96.92981913237114 c 0.0,70.56155071533894 -15.625,125.81373777444844 66.4088663766966,106.3654044411151
c 16.461072068973355,-16.669999999999998 34.43882438850673,0 34.43882438850673,32.551262225551554
c 0,28.479889492701545 -62.97385999680969,45.14988949270155 -107.01443206544624,28.479889492701545
c -40.625,-16.669999999999998 -25.0,58.34499999999999 6.1667413002429186,110.43677717396511 L 0 1667 " fill="none" stroke="black" stroke-width="0.1" style="vector-effect:non-scaling-stroke;"/></g></g><g><g><path d="M 0 0  L 0 277.833333  c 83.8693107392077,-0.0 143.3526899723451,13.891666666666666 121.4776899723451,-50.65318322216282
c -18.75,-27.939890230899604 0,-30.11733528133888 34.772310027654896,-30.11733528133888
c 48.886693822203995,0 67.636693822204,21.049991225155097 48.886693822203995,41.78833639774168
c -18.75,36.11833333333333 65.625,22.226666666666667 107.363306177796,38.982182105760025 c 88.4450148572374,0.0 132.9654737636831,-13.891666666666666 111.09047376368308,10.844121284843448
c -18.75,52.92907638443332 0,74.49121643739551 45.15952623631692,74.49121643739551
c 43.511126364672464,0 62.261126364672464,-12.615145863660528 43.511126364672464,-53.395990267651385
c -18.75,-36.11833333333333 65.625,-22.226666666666667 112.73887363532754,-31.939347454587576 c 33.5740409730703,0.0 135.4389115979697,-13.891666666666666 113.5639115979697,10.987071810129475
c -18.75,20.298337468688768 0,68.0501530820056 42.68608840203029,68.0501530820056
c 25.459256635368405,0 44.209256635368405,-51.72054699749183 25.459256635368405,-51.41696013566981
c -18.75,-36.11833333333333 65.625,-22.226666666666667 130.7907433646316,-27.62026475646526 c 19.851560662797123,0.0 155.81201383224624,-13.891666666666666 133.93701383224624,60.16846551016056
c -18.75,6.73953404666033 0,12.08912493032392 22.312986167753763,12.08912493032392
c 28.909178270916783,0 47.65917827091678,-34.052585805898275 28.909178270916783,-64.20815229267971
c -18.75,-36.11833333333333 65.625,-22.226666666666667 127.34082172908322,-8.049438147804764 c 49.29060801571325,0.0 149.70211105381043,-13.891666666666666 127.82711105381041,11.817646121501497
c -18.75,49.21366794356965 0,71.69991856243972 28.422888946189588,71.69991856243972
c 22.706091292131077,0 41.45609129213108,-9.128721473576501 22.706091292131077,-35.39243327411902
c -18.75,-36.11833333333333 65.625,-22.226666666666667 133.54390870786892,-48.125131409822195 c 50.88463971431218,-0.0 142.00669077517685,13.891666666666666 120.13169077517684,-24.374217483166383
c -18.75,-37.969231951446226 0,-65.68668277373251 36.118309224823165,-65.68668277373251
c 43.689948415365706,0 62.439948415365706,45.75736070186607 43.689948415365706,88.5264807052738
c -18.75,36.11833333333333 65.625,22.226666666666667 112.5600515846343,1.534419551625092 c 85.15636931923198,0.0 134.11954137924184,-13.891666666666666 112.24454137924184,-2.534519024679653
c -18.75,49.47306991783176 0,92.74769755504406 44.00545862075816,92.74769755504406
c 39.99173226291305,0 58.74173226291305,-22.33872735879731 39.99173226291305,-90.26820666214894
c -18.75,-36.11833333333333 65.625,-22.226666666666667 116.25826773708695,0.055028131784538914 c 81.26366566286279,0.0 151.8932243804336,-13.891666666666666 130.0182243804336,5.792944367529859
c -18.75,31.75241716102977 0,76.55279767775993 26.231775619566406,76.55279767775993
c 27.906929978781136,0 46.656929978781136,-39.17949050640372 27.906929978781136,-63.4298699396826
c -18.75,-36.11833333333333 65.625,-22.226666666666667 128.34307002121886,-18.915872105607185 L 2500 0 " fill="none" stroke="black" stroke-width="0.1" style="vector-effect:non-scaling-stroke;"/></g><g><path d="M 0 0  L 0 555.666667  c 31.04761891946488,0.0 140.06018794476162,-13.891666666666666 118.18518794476161,0.19565743160173132
c -18.75,76.14232765359114 0,81.89254016602085 38.06481205523839,81.89254016602085
c 37.438099798842785,0 56.188099798842785,-76.35809726823373 37.438099798842785,-77.33879273778425
c -18.75,-36.11833333333333 65.625,-22.226666666666667 118.81190020115721,-4.749404859838336 c 29.168475403080407,0.0 148.64448022507395,-13.891666666666666 126.76948022507393,55.33946717392626
c -18.75,11.166434664420978 0,25.79023061362998 29.480519774926066,25.79023061362998
c 35.99852433320433,0 54.74852433320433,-16.159305192044894 35.99852433320433,-42.025073861346044
c -18.75,-36.11833333333333 65.625,-22.226666666666667 120.25147566679567,-39.104623926210195 c 45.35414576432288,-0.0 153.64501491806067,13.891666666666666 131.77001491806067,-34.19577860698371
c -18.75,-17.2601173511832 0,-33.12539705594614 24.479985081939333,-33.12539705594614
c 33.32101172014126,0 52.07101172014126,33.06136367170449 33.32101172014126,64.00407504719747
c -18.75,36.11833333333333 65.625,22.226666666666667 122.92898827985874,3.3171006157323717 c 38.19094718114414,-0.0 130.9188023739404,13.891666666666666 109.04380237394038,-42.16260551561365
c -18.75,-38.030345583310115 0,-49.851251076345434 47.20619762605962,-49.851251076345434
c 41.42059318347967,0 60.17059318347967,29.399750172138756 41.42059318347967,72.03081355537381
c -18.75,36.11833333333333 65.625,22.226666666666667 114.82940681652033,19.983043036585272 c 23.939545540013125,-0.0 154.5720350230828,13.891666666666666 132.6970350230828,-14.24906440852995
c -18.75,-46.1722599057599 0,-59.02675827021723 23.552964976917195,-59.02675827021723
c 34.55815815025841,0 53.30815815025841,32.43108207201443 34.55815815025841,60.3814798806312
c -18.75,36.11833333333333 65.625,22.226666666666667 121.69184184974159,12.894342798115979 c 74.81615488319827,-0.0 155.91057835142772,13.891666666666666 134.03557835142772,-33.97044994486191
c -18.75,-16.556712644279013 0,-42.54690653271791 22.214421648572284,-42.54690653271791
c 38.78900590329985,0 57.53900590329985,13.016097733051984 38.78900590329985,31.78853192730947
c -18.75,36.11833333333333 65.625,22.226666666666667 117.46099409670015,44.72882455027035 c 76.57685778281855,0.0 130.91284056644315,-13.891666666666666 109.03784056644314,10.155616665093538
c -18.75,40.02077851687558 0,60.597247120419944 47.21215943355686,60.597247120419944
c 35.56730626827647,0 54.31730626827647,-12.584325158998276 35.56730626827647,-12.67626360433134
c -18.75,-36.11833333333333 65.625,-22.226666666666667 120.68269373172353,-58.076600181182144 c 17.646711645436366,-0.0 132.46697497952098,13.891666666666666 110.59197497952098,-48.206453429196536
c -18.75,-6.922938191577202 0,-20.30440022062512 45.658025020479016,-20.30440022062512
c 42.67517131599001,0 61.42517131599001,62.91791725687422 42.67517131599001,66.35606673785341
c -18.75,36.11833333333333 65.625,22.226666666666667 113.57482868400999,2.1547869119682446 L 2500 0 " fill="none" stroke="black" stroke-width="0.1" style="vector-effect:non-scaling-stroke;"/></g><g><path d="M 0 0  L 0 833.500000  c 63.08605110979772,0.0 136.14201187902663,-13.891666666666666 114.26701187902661,58.5517540254243
c -18.75,11.960497380740051 0,25.675576468193114 41.98298812097339,25.675576468193114
c 48.669540731861815,0 67.41954073186182,-33.41888256512162 48.669540731861815,-66.6889219108173
c -18.75,-36.11833333333333 65.625,-22.226666666666667 107.58045926813818,-17.538408582800116 c 27.68140863637598,-0.0 143.62995257134006,13.891666666666666 121.75495257134004,2.1764874488295978
c -18.75,-55.98521876056474 0,-94.81600384747988 34.49504742865996,-94.81600384747988
c 43.875973055705714,0 62.625973055705714,48.96619319141927 43.875973055705714,63.863039663635064
c -18.75,36.11833333333333 65.625,22.226666666666667 112.37402694429429,28.77647673501521 c 72.1070218658,-0.0 143.842866070371,13.891666666666666 121.967866070371,-51.15050861489373
c -18.75,-22.553803787913072 0,-34.2799733268159 34.282133929629,-34.2799733268159
c 49.67339389457038,0 68.42339389457038,35.879950001047824 49.67339389457038,46.49498863308953
c -18.75,36.11833333333333 65.625,22.226666666666667 106.57660610542962,38.9354933086201 c 78.24430319482481,-0.0 128.7712232393742,13.891666666666666 106.8962232393742,-40.02832262966995
c -18.75,-12.015422842768109 0,-45.39201877965248 49.353776760625806,-45.39201877965248
c 41.380209255982635,0 60.130209255982635,67.17712467522438 41.380209255982635,86.10701048212978
c -18.75,36.11833333333333 65.625,22.226666666666667 114.86979074401737,-0.6866690728073479 c 46.02447564179865,-0.0 129.00689387741207,13.891666666666666 107.13189387741205,2.117814522424107
c -18.75,-42.4771149170099 0,-82.03013488959132 49.118106122587946,-82.03013488959132
c 23.737048823626736,0 42.487048823626736,22.897572102820224 23.737048823626736,37.96298854429722
c -18.75,36.11833333333333 65.625,22.226666666666667 132.51295117637326,41.94933182286999 c 70.00830140603784,-0.0 148.46994237018376,13.891666666666666 126.59494237018374,5.2709879574837055
c -18.75,-56.08330341023257 0,-92.46675394947 29.655057629816255,-92.46675394947
c 29.378343384380116,0 48.128343384380116,29.356213692881436 29.378343384380116,64.18008050761883
c -18.75,36.11833333333333 65.625,22.226666666666667 126.87165661561988,23.015685484367467 c 41.78414803049781,0.0 145.64465391066904,-13.891666666666666 123.76965391066904,19.219706989152403
c -18.75,17.27553706763387 0,48.501625468085024 32.480346089330965,48.501625468085024
c 32.22584208747878,0 50.97584208747878,-33.58703375279133 32.22584208747878,-40.72432978065511
c -18.75,-36.11833333333333 65.625,-22.226666666666667 124.02415791252122,-26.997002676582312 c 79.36364408902406,-0.0 147.8558154201911,13.891666666666666 125.98081542019109,-55.65508410050033
c -18.75,-16.26024859375552 0,-19.200250575018686 30.269184579808908,-19.200250575018686
c 28.108690917774226,0 46.858690917774226,4.802697314716798 28.108690917774226,16.98279777058773
c -18.75,36.11833333333333 65.625,22.226666666666667 128.14130908222577,57.87253690493129 L 2500 0 " fill="none" stroke="black" stroke-width="0.1" style="vector-effect:non-scaling-stroke;"/></g><g><path d="M 0 0  L 0 1111.333333  c 46.99661521622449,-0.0 130.28572389591773,13.891666666666666 108.41072389591773,-20.615461108305418
c -18.75,-68.81254622701978 0,-70.51489139992631 47.83927610408227,-70.51489139992631
c 42.99652561860947,0 61.74652561860947,49.764604446253905 42.99652561860947,91.63398538956295
c -18.75,36.11833333333333 65.625,22.226666666666667 113.25347438139053,-0.5036328813312139 c 76.19377537063866,-0.0 133.00666915632786,13.891666666666666 111.13166915632785,-1.65767639605355
c -18.75,-56.490014786473786 0,-76.95354433899642 45.118330843672155,-76.95354433899642
c 41.55959447290428,0 60.30959447290428,19.28826323641962 41.55959447290428,25.39960682610696
c -18.75,36.11833333333333 65.625,22.226666666666667 114.69040552709572,53.21161390894301 c 74.68922605922344,-0.0 143.68786395039393,13.891666666666666 121.81286395039392,-8.055574854982062
c -18.75,-64.20313841989677 0,-65.59205057779184 34.43713604960608,-65.59205057779184
c 35.32934761830779,0 54.07934761830779,25.20259175302435 35.32934761830779,30.958152676193457
c -18.75,36.11833333333333 65.625,22.226666666666667 120.92065238169221,42.68947275658045 c 75.47740109566914,0.0 139.50013270824982,-13.891666666666666 117.62513270824982,28.65163768332459
c -18.75,15.55345258944826 0,42.16528894013743 38.62486729175018,42.16528894013743
c 27.575856032691973,0 46.32585603269197,-10.972049785526377 27.575856032691973,-45.85229125314102
c -18.75,-36.11833333333333 65.625,-22.226666666666667 128.67414396730803,-24.964635370321005 c 23.0681101137588,-0.0 155.16256647870713,13.891666666666666 133.28756647870713,-6.652216341841203
c -18.75,-59.50602693503899 0,-77.20094031937461 22.962433521292866,-77.20094031937461
c 36.362311982708434,0 55.112311982708434,18.2742095027152 36.362311982708434,24.43016300414036
c -18.75,36.11833333333333 65.625,22.226666666666667 119.88768801729157,59.422993657075445 c 27.60081371655643,-0.0 149.9365091153593,13.891666666666666 128.0615091153593,-35.20539297695924
c -18.75,-20.45440322908692 0,-40.24287639609509 28.188490884640686,-40.24287639609509
c 25.185136812820758,0 43.93513681282076,37.771364740628584 25.185136812820758,58.7935536590696
c -18.75,36.11833333333333 65.625,22.226666666666667 131.06486318717924,16.65471571398473 c 67.76502660140594,-0.0 151.89685050399694,13.891666666666666 130.02185050399694,-10.961890515112152
c -18.75,-18.896808253344886 0,-60.77641153118295 26.228149496003056,-60.77641153118295
c 29.15095655222848,0 47.90095655222848,10.066508239043836 29.15095655222848,45.60388200684905
c -18.75,36.11833333333333 65.625,22.226666666666667 127.09904344777152,26.134420039446056 c 33.14217733198577,-0.0 130.65756689221553,13.891666666666666 108.78256689221551,-38.97806684495417
c -18.75,-28.249496258352444 0,-55.44536691480086 47.46743310778449,-55.44536691480086
c 32.24505670464069,0 50.99505670464069,74.76688209279938 32.24505670464069,95.9160548759772
c -18.75,36.11833333333333 65.625,22.226666666666667 124.00494329535931,-1.4926211162221676 L 2500 0 " fill="none" stroke="black" stroke-width="0.1" style="vector-effect:non-scaling-stroke;"/></g><g><path d="M 0 0  L 0 1389.166667  c 45.1431016495582,-0.0 134.96492811414524,13.891666666666666 113.08992811414522,-56.12568938937688
c -18.75,-10.849453929597694 0,-11.683059056842403 43.16007188585478,-11.683059056842403
c 32.09685400848602,0 50.84685400848602,15.42362773380138 32.09685400848602,21.314503536399023
c -18.75,36.11833333333333 65.625,22.226666666666667 124.15314599151398,46.49424490982026 c 39.29589207559748,0.0 136.51074037057913,-13.891666666666666 114.63574037057911,39.80739245680062
c -18.75,22.92885704382698 0,37.22459419284851 41.614259629420886,37.22459419284851
c 42.20871016753972,0 60.95871016753972,-15.313070789896637 42.20871016753972,-32.86615233331729
c -18.75,-36.11833333333333 65.625,-22.226666666666667 114.04128983246028,-44.16583431633184 c 86.76338756380983,0.0 146.28730217098075,-13.891666666666666 124.41230217098075,57.53006924112949
c -18.75,15.929985742208448 0,18.281645015068243 31.83769782901925,18.281645015068243
c 25.43402580024474,0 44.18402580024474,-19.09605452404438 25.43402580024474,-61.56685913369259
c -18.75,-36.11833333333333 65.625,-22.226666666666667 130.81597419975526,-14.244855122505143 c 30.653183012393086,-0.0 129.12664170263722,13.891666666666666 107.25164170263722,-48.48422914288978
c -18.75,-9.701932105282797 0,-24.09230147732861 48.998358297362785,-24.09230147732861
c 34.95420915705256,0 53.70420915705256,4.428299276656789 34.95420915705256,19.18479305090937
c -18.75,36.11833333333333 65.625,22.226666666666667 121.29579084294744,53.39173756930902 c 71.11055337781188,0.0 136.52766706953946,-13.891666666666666 114.65266706953945,40.4311112318951
c -18.75,25.704487986079798 0,42.375907729388956 41.59733293046055,42.375907729388956
c 22.320608750614838,0 41.07060875061484,-10.923988357306502 22.320608750614838,-44.2070145370467
c -18.75,-36.11833333333333 65.625,-22.226666666666667 133.92939124938516,-38.600004424237355 c 73.22022619173097,-0.0 143.21007224862265,13.891666666666666 121.33507224862264,-56.454614421196254
c -18.75,-7.824107075694933 0,-30.4340878058577 34.91492775137736,-30.4340878058577
c 35.32895183552657,0 54.07895183552657,44.99226124779064 35.32895183552657,67.52991524361695
c -18.75,36.11833333333333 65.625,22.226666666666667 120.92104816447343,19.358786983437 c 29.329716855999777,0.0 142.8370406577549,-13.891666666666666 120.9620406577549,57.98892749507432
c -18.75,7.4182432793679425 0,29.757045602677934 35.2879593422451,29.757045602677934
c 27.15821898515523,0 45.90821898515523,-74.60669152085666 27.15821898515523,-92.23490624912938
c -18.75,-36.11833333333333 65.625,-22.226666666666667 129.09178101484477,4.488933151377125 c 26.035731671651828,-0.0 133.00571283638047,13.891666666666666 111.13071283638047,-13.959989063411053
c -18.75,-27.986576940166895 0,-68.73665583286957 45.11928716361953,-68.73665583286957
c 29.70744328105539,0 48.45744328105539,18.530123626491797 29.70744328105539,27.941158806705296
c -18.75,36.11833333333333 65.625,22.226666666666667 126.54255671894461,54.755486089575335 L 2500 0 " fill="none" stroke="black" stroke-width="0.1" style="vector-effect:non-scaling-stroke;"/></g></g></svg>