<svg baseProfile="full" height="997" preserveAspectRatio="none" shape-rendering="geometricPrecision" version="1.1" viewBox="0,0,1500,997" width="1500" xmlns="http://www.w3.org/2000/svg" xmlns:ev="http://www.w3.org/2001/xml-events" xmlns:xlink="http://www.w3.org/1999/xlink"><title>Jigsaw puzzle piece clips</title><desc>Created with the piecemaker. Piece count: 20</desc><defs/><g><g><rect fill="white" height="997" width="1500" x="0" y="0"/></g></g><g><g><path d="M 0 0  L 300.000000 0  c -0.0,23.233431417172895 15.0,110.32347553799954 -42.909464472667224,92.87597553799954
c -17.693625728870334,-14.955 -42.882164297351764,0 -42.882164297351764,31.749024462000463
c 0,38.88882189308384 50.744652334885814,53.84382189308384 50.68670319420341,38.88882189308384
c 39.0,-14.955 24.0,52.3425 35.10492557581558,85.73617810691616 c -0.0,56.89103955820134 15.0,113.42609339832183 5.169747518109036,95.97859339832182
c -71.60101543760078,-14.955 -88.39099962217756,0 -88.39099962217756,28.64640660167818
c 0,19.244587412772745 59.157828024452606,34.19958741277274 84.59365785483192,19.244587412772745
c 39.0,-14.955 24.0,52.3425 -1.3724057507633916,105.38041258722726 c -0.0,63.07495033835956 15.0,105.56187190631714 -58.803449972859305,88.11437190631713
c -34.436243804236334,-14.955 -35.84270274329966,0 -35.84270274329966,36.51062809368287
c 0,28.14771665866712 90.40116627368604,43.10271665866712 93.21423058281195,28.14771665866712
c 39.0,-14.955 24.0,52.3425 1.4319221333470153,96.47728334133288 c 0.0,65.1001460195075 -15.0,123.18316534503326 43.41046109655179,105.73566534503325
c 27.309318684624774,-14.955 37.412077934346975,0 37.412077934346975,18.889334654966746
c 0,32.379052368369145 -13.66291603888511,47.33405236836914 -44.02793357794773,32.379052368369145
c -39.0,-14.955 -24.0,52.3425 -36.79460545295104,92.24594763163086 L 0 997 " fill="none" stroke="black" stroke-width="0.1" style="vector-effect:non-scaling-stroke;"/></g><g><path d="M 0 0  L 600.000000 0  c 0.0,45.63941318803611 -15.0,118.50087277883087 56.84406554776543,101.05337277883086
c 9.51033866135625,-14.955 21.370962489769887,0 21.370962489769887,23.571627221169138
c 0,23.330796719628125 -34.31119700646176,38.285796719628124 -54.5934242396914,23.330796719628125
c -39.0,-14.955 -24.0,52.3425 -23.621603797843918,101.29420328037187 c -0.0,36.61889629923085 15.0,115.92459049034433 -7.981422464904204,98.47709049034432
c -15.538154874842897,-14.955 -69.01591775771205,0 -69.01591775771205,26.147909509655676
c 0,22.67320820637633 23.999674635998936,37.62820820637633 30.887449824603053,22.67320820637633
c 39.0,-14.955 24.0,52.3425 46.10989039801319,101.95179179362367 c -0.0,16.03509866742096 15.0,110.85327708526664 -26.92788841225351,93.40577708526664
c -17.350578760017363,-14.955 -51.54707504801581,0 -51.54707504801581,31.219222914733365
c 0,25.590322519086186 31.014154999497936,40.545322519086184 31.594285422071465,25.590322519086186
c 39.0,-14.955 24.0,52.3425 46.88067803819786,99.03467748091381 c 0.0,12.788929583997374 -15.0,117.24017731516288 36.481752379234756,99.79267731516288
c 21.847363989335832,-14.955 61.32157713396165,0 61.32157713396165,24.832322684837123
c 0,26.184586954432575 -68.80713655653499,41.13958695443257 -95.72868536244847,26.184586954432575
c -39.0,-14.955 -24.0,52.3425 -2.074644150747929,98.44041304556742 L 0 997 " fill="none" stroke="black" stroke-width="0.1" style="vector-effect:non-scaling-stroke;"/></g><g><path d="M 0 0  L 900.000000 0  c 0.0,42.228904041008676 -15.0,106.35528555070935 43.321865491091295,88.90778555070935
c 30.403431328652758,-14.955 44.491064977542145,0 44.491064977542145,35.71721444929065
c 0,30.818663301906213 -25.77530035558003,45.77366330190621 -91.18019231091142,30.818663301906213
c -39.0,-14.955 -24.0,52.3425 3.3672618422779834,93.80633669809379 c 0.0,20.904068646729442 -15.0,122.90221075650655 1.6247356820547418,105.45471075650654
c 55.946554577743086,-14.955 77.17889134440395,0 77.17889134440395,19.170289243493457
c 0,18.57869939864193 -20.7374984115802,33.53369939864193 -30.19580074154465,18.57869939864193
c -39.0,-14.955 -24.0,52.3425 -48.60782628491405,106.04630060135807 c -0.0,44.42574608429314 15.0,119.28635098080791 -8.653937542434685,101.8388509808079
c -15.504617278735376,-14.955 -70.86679412583952,0 -70.86679412583952,22.786149019192095
c 0,38.438598890176905 16.723257799973897,53.393598890176904 49.90926506282693,38.438598890176905
c 39.0,-14.955 24.0,52.3425 29.611466605447276,86.1864011098231 c 0.0,37.72865788116587 -15.0,115.87845571722751 10.864214701938419,98.4309557172275
c 58.049361759593324,-14.955 73.45780368519299,0 73.45780368519299,26.194044282772495
c 0,22.22639934055772 -31.005718389078083,37.18139934055772 -67.5759704212841,22.22639934055772
c -39.0,-14.955 -24.0,52.3425 -16.74604796584731,102.39860065944228 L 0 997 " fill="none" stroke="black" stroke-width="0.1" style="vector-effect:non-scaling-stroke;"/></g><g><path d="M 0 0  L 1200.000000 0  c -0.0,18.55397146756474 15.0,110.67893271898926 -57.64044287181361,93.23143271898925
c -12.07898168750792,-14.955 -14.768208400325484,0 -14.768208400325484,31.393567281010746
c 0,17.466734941727964 7.540693144707428,32.42173494172796 15.19837375828697,17.466734941727964
c 39.0,-14.955 24.0,52.3425 57.21027751385213,107.15826505827204 c 0.0,45.78005949991378 -15.0,107.41867651722644 40.418623155820626,89.97117651722644
c 37.641104291865894,-14.955 59.777700486079695,0 59.777700486079695,34.65382348277356
c 0,30.648552588344756 -29.762800749062507,45.603552588344755 -52.324429304004234,30.648552588344756
c -39.0,-14.955 -24.0,52.3425 -47.87189433789609,93.97644741165524 c 0.0,60.36406462426851 -15.0,116.13215885777466 31.998101902265347,98.68465885777465
c 49.59304197827745,-14.955 57.68894149196176,0 57.68894149196176,25.94034114222535
c 0,20.125643407746082 -37.47519377153045,35.08064340774608 -62.31101830077846,20.125643407746082
c -39.0,-14.955 -24.0,52.3425 -27.376025093448646,104.49935659225392 c -0.0,20.36350553462881 15.0,122.99114516502516 -6.027151655959132,105.54364516502515
c -26.462222551624393,-14.955 -70.08341570149898,0 -70.08341570149898,19.081354834974846
c 0,35.09988826768395 44.2655015107027,50.05488826768395 59.98518752926081,35.09988826768395
c 39.0,-14.955 24.0,52.3425 16.125379828197296,89.52511173231605 L 0 997 " fill="none" stroke="black" stroke-width="0.1" style="vector-effect:non-scaling-stroke;"/></g></g><g><g><path d="M 0 0  L 0 249.250000  c 36.57668677902602,0.0 132.1955623959236,-12.4625 111.19556239592357,21.445888764187387
c -18.0,14.096351009558678 0,62.75390100651032 38.804437604076426,62.75390100651032
c 22.68390931541927,0 40.68390931541927,-16.90468930701854 22.68390931541927,-66.37236297222833
c -18.0,-32.4025 63.0,-19.94 127.31609068458073,-17.827426798469375 c 82.63932453356207,-0.0 130.34976913656203,12.4625 109.34976913656202,-43.38807854494719
c -18.0,-27.0622672375532 0,-39.76208392771801 40.65023086343798,-39.76208392771801
c 47.115320658362975,0 65.11532065836298,40.620510942943305 47.115320658362975,69.3093884342449
c -18.0,32.4025 63.0,19.94 102.88467934163702,13.840774038420307 c 25.526145552938484,0.0 123.46482345356885,-12.4625 102.46482345356885,12.007929680009202
c -18.0,44.321551005099145 0,58.66452000305799 47.535176546431146,58.66452000305799
c 42.4499240462996,0 60.4499240462996,-28.389506069992272 42.4499240462996,-31.90087981266904
c -18.0,-32.4025 63.0,-19.94 107.5500759537004,-38.771569870398146 c 37.541722166863146,0.0 138.8444054556213,-12.4625 117.84440545562131,12.81473335675603
c -18.0,53.79843349843041 0,58.6633222473266 32.15559454437869,58.6633222473266
c 27.83511701430558,0 45.83511701430558,-46.850754793699146 27.83511701430558,-56.821750384432036
c -18.0,-32.4025 63.0,-19.94 122.16488298569442,-14.65630521965059 c 30.607408894977212,0.0 128.11656917163083,-12.4625 107.11656917163081,16.186052574814983
c -18.0,40.3163404386056 0,45.12629238296694 42.883430828369185,45.12629238296694
c 30.277064826832884,0 48.277064826832884,-38.103044503446256 30.277064826832884,-41.56359275106777
c -18.0,-32.4025 63.0,-19.94 119.72293517316712,-19.748752206714144 L 1500 0 " fill="none" stroke="black" stroke-width="0.1" style="vector-effect:non-scaling-stroke;"/></g><g><path d="M 0 0  L 0 498.500000  c 72.45146230743885,-0.0 141.39927813423714,12.4625 120.39927813423714,-31.214416809178957
c -18.0,-26.991689891257387 0,-47.169447360317236 29.600721865762864,-47.169447360317236
c 34.5156512819882,0 52.5156512819882,64.01340930714743 34.5156512819882,82.54165961481304
c -18.0,32.4025 63.0,19.94 115.4843487180118,-4.15779544531685 c 76.92725612200904,-0.0 145.6073600652758,12.4625 124.60736006527578,-51.39307638144071
c -18.0,-5.465944507335463 0,-11.690255827910839 25.392639934724215,-11.690255827910839
c 42.476739880144635,0 60.476739880144635,5.7403835349327625 42.476739880144635,25.280309249514744
c -18.0,32.4025 63.0,19.94 107.52326011985537,37.8030229598368 c 17.625241545333218,-0.0 144.22170428735157,12.4625 123.22170428735156,-35.451785860330766
c -18.0,-41.98405053553294 0,-42.36102154526596 26.778295712648443,-42.36102154526596
c 30.479851051598985,0 48.479851051598985,33.553086235270406 30.479851051598985,63.26087735683844
c -18.0,32.4025 63.0,19.94 119.52014894840102,14.551930048758287 c 15.883425568775209,0.0 133.6140539825558,-12.4625 112.61405398255577,46.644132831825296
c -18.0,7.15497485771582 0,14.182862905541178 37.385946017444226,14.182862905541178
c 24.889561090053377,0 42.88956109005338,-19.14655884235518 24.889561090053377,-33.94614663917818
c -18.0,-32.4025 63.0,-19.94 125.11043890994662,-26.880849098188293 c 25.311673638250387,-0.0 137.09999813984442,12.4625 116.0999981398444,-41.11986030517469
c -18.0,-9.528330481087202 0,-18.875742988382896 33.9000018601556,-18.875742988382896
c 29.315106872283593,0 47.31510687228359,34.59722864823463 29.315106872283593,56.284544847379664
c -18.0,32.4025 63.0,19.94 120.6848931277164,3.7110584461779226 L 1500 0 " fill="none" stroke="black" stroke-width="0.1" style="vector-effect:non-scaling-stroke;"/></g><g><path d="M 0 0  L 0 747.750000  c 51.28775700552294,-0.0 140.024103346173,12.4625 119.024103346173,-31.182451124284587
c -18.0,-42.23260834758271 0,-42.2808562582898 30.975896653826993,-42.2808562582898
c 40.945663107055964,0 58.945663107055964,17.80670324226056 40.945663107055964,74.24360738136717
c -18.0,32.4025 63.0,19.94 109.05433689294404,-0.7802999987927848 c 22.804325048649634,0.0 147.47387629535905,-12.4625 126.47387629535903,40.56953993630863
c -18.0,23.409412401370187 0,31.50428326202315 23.526123704640966,31.50428326202315
c 47.46425267666916,0 65.46425267666916,-30.8528128877395 47.46425267666916,-57.27557059557738
c -18.0,-32.4025 63.0,-19.94 102.53574732333084,-14.798252602754403 c 54.10159088072861,0.0 148.9822951002616,-12.4625 127.9822951002616,35.855277937117926
c -18.0,11.04386871845963 0,34.53379801663315 22.017704899738405,34.53379801663315
c 32.76204077567536,0 50.76204077567536,-9.99902356269782 32.76204077567536,-46.50454761621486
c -18.0,-32.4025 63.0,-19.94 117.23795922432464,-23.884528337536217 c 24.713893065161642,0.0 146.85029228295926,-12.4625 125.85029228295924,18.060236589757757
c -18.0,46.04267356436466 0,63.529712943963155 24.149707717040755,63.529712943963155
c 43.80110939085063,0 61.80110939085063,-12.195821767902423 43.80110939085063,-32.68016196592832
c -18.0,-32.4025 63.0,-19.94 106.19889060914937,-48.90978756779259 c 25.287337126547907,0.0 139.0234584720415,-12.4625 118.02345847204151,20.94255191011385
c -18.0,54.986574747849396 0,60.11784019919159 31.97654152795849,60.11784019919159
c 38.90908033534649,0 56.90908033534649,-39.58207371379829 38.90908033534649,-68.69609486737716
c -18.0,-32.4025 63.0,-19.94 111.09091966465351,-12.364297241928284 L 1500 0 " fill="none" stroke="black" stroke-width="0.1" style="vector-effect:non-scaling-stroke;"/></g></g></svg>