<svg baseProfile="full" height="960" preserveAspectRatio="none" shape-rendering="geometricPrecision" version="1.1" viewBox="0,0,1280,960" width="1280" xmlns="http://www.w3.org/2000/svg" xmlns:ev="http://www.w3.org/2001/xml-events" xmlns:xlink="http://www.w3.org/1999/xlink"><title>Jigsaw puzzle piece clips</title><desc>Created with the piecemaker. Piece count: 20</desc><defs/><g><g><rect fill="white" height="960" width="1280" x="0" y="0"/></g></g><g><g><path d="M 0 0  L 256.000000 0  c 0.0,65.63508132016652 -12.8,103.93016838997242 42.980621502159664,87.13016838997243
c 30.459527452708485,-14.399999999999999 31.272752983504688,0 31.272752983504688,32.869831610027575
c 0,19.32333044307282 -37.490171738770144,33.72333044307282 -72.64300741630656,19.32333044307282
c -33.28,-14.399999999999999 -20.48,50.4 -1.6103670693577925,100.67666955692718 c 0.0,64.98014131540886 -12.8,100.9314988156692 39.41568119650138,84.1314988156692
c 25.19943854935251,-14.399999999999999 30.227517065719525,0 30.227517065719525,35.868501184330796
c 0,31.363689367891396 -35.98157050267295,45.763689367891395 -69.79785000914734,31.363689367891396
c -33.28,-14.399999999999999 -20.48,50.4 0.15465174692643302,88.6363106321086 c -0.0,40.02969927411787 12.8,113.84142968963414 -19.74716972235636,97.04142968963414
c -57.99469518412889,-14.399999999999999 -66.02476403187595,0 -66.02476403187595,22.958570310365857
c 0,34.0379403255462 28.656008570984,48.4379403255462 37.95327777570322,34.0379403255462
c 33.28,-14.399999999999999 20.48,50.4 47.81865597852909,85.9620596744538 c -0.0,46.514991525208664 12.8,102.73913494600683 -16.21400942300075,85.93913494600683
c -27.538686868724152,-14.399999999999999 -51.275339270842466,0 -51.275339270842466,34.06086505399317
c 0,36.59636798003933 16.485404512095872,50.99636798003933 21.022757509183492,36.59636798003933
c 33.28,-14.399999999999999 20.48,50.4 46.46659118465972,83.40363201996067 L 0 960 " fill="none" stroke="black" stroke-width="0.1" style="vector-effect:non-scaling-stroke;"/></g><g><path d="M 0 0  L 512.000000 0  c -0.0,14.094978057608735 12.8,116.68447482992276 -14.215231272130133,99.88447482992277
c -27.578942181868488,-14.399999999999999 -47.384458199230686,0 -47.384458199230686,20.115525170077234
c 0,32.12785309688695 40.53200638684636,46.52785309688695 59.64429595431726,32.12785309688695
c 33.28,-14.399999999999999 20.48,50.4 1.9553935170435608,87.87214690311305 c 0.0,18.978923895285252 -12.8,114.60643685439955 48.32429129015514,97.80643685439955
c 5.10905158896326,-14.399999999999999 15.812058971534377,0 15.812058971534377,22.19356314560045
c 0,17.83636787293426 -47.19923158487815,32.23636787293426 -51.473492400298035,17.83636787293426
c -33.28,-14.399999999999999 -20.48,50.4 -12.66285786139148,102.16363212706574 c 0.0,58.19192693953978 -12.8,117.99659311288063 0.10587214239029219,101.19659311288063
c 56.194893460695035,-14.399999999999999 80.82155549540614,0 80.82155549540614,18.803406887119365
c 0,26.715929669443938 -74.10225871805825,41.115929669443936 -77.80138312533238,26.715929669443938
c -33.28,-14.399999999999999 -20.48,50.4 -3.1260445124640626,93.28407033055606 c -0.0,57.47636863369777 12.8,111.54289465917807 -0.2050233405384141,94.74289465917808
c -40.22793322504472,-14.399999999999999 -77.9560773072096,0 -77.9560773072096,25.257105340821923
c 0,25.62753234470452 38.48131050159059,40.02753234470452 71.06439601112874,25.62753234470452
c 33.28,-14.399999999999999 20.48,50.4 7.096704636619279,94.37246765529548 L 0 960 " fill="none" stroke="black" stroke-width="0.1" style="vector-effect:non-scaling-stroke;"/></g><g><path d="M 0 0  L 768.000000 0  c -0.0,17.745618342975995 12.8,106.57174827033498 -50.29502234154523,89.77174827033498
c -16.138975206804716,-14.399999999999999 -29.76871067259389,0 -29.76871067259389,30.22825172966502
c 0,25.424370647663295 11.065851915029556,39.824370647663294 49.89599745850907,25.424370647663295
c 33.28,-14.399999999999999 20.48,50.4 30.167735555630045,94.5756293523367 c 0.0,48.51730086352906 -12.8,117.83552566813 42.68323015469592,101.03552566813
c 23.123097638433336,-14.399999999999999 32.78588191294679,0 32.78588191294679,18.964474331869994
c 0,31.10228905385725 -11.864410917384957,45.50228905385725 -22.840341704305217,31.10228905385725
c -33.28,-14.399999999999999 -20.48,50.4 -52.628770363337495,88.89771094614275 c 0.0,52.25168056625012 -12.8,108.28022955510147 52.584788935022935,91.48022955510147
c 18.02015459413438,-14.399999999999999 18.679116713207584,0 18.679116713207584,28.519770444898526
c 0,24.43391774153838 -22.435578159148132,38.83391774153838 -42.341446114675094,24.43391774153838
c -33.28,-14.399999999999999 -20.48,50.4 -28.922459533555426,95.56608225846162 c 0.0,13.235267405927926 -12.8,117.44221406043815 10.907574940386592,100.64221406043815
c 57.28557718727798,-14.399999999999999 71.02135621014902,0 71.02135621014902,19.35778593956185
c 0,23.05891450621985 -79.9716450356433,37.45891450621985 -79.58831616272327,23.05891450621985
c -33.28,-14.399999999999999 -20.48,50.4 -2.3406149878123443,96.94108549378015 L 0 960 " fill="none" stroke="black" stroke-width="0.1" style="vector-effect:non-scaling-stroke;"/></g><g><path d="M 0 0  L 1024.000000 0  c -0.0,52.072823158410046 12.8,116.9423713304122 -16.102629411662612,100.1423713304122
c -43.14382745221706,-14.399999999999999 -51.56308862900725,0 -51.56308862900725,19.857628669587797
c 0,21.5095612047285 27.66634172089532,35.9095612047285 36.541686800424785,21.5095612047285
c 33.28,-14.399999999999999 20.48,50.4 31.124031240245074,98.4904387952715 c 0.0,19.30070489038207 -12.8,101.27389342239435 37.68958968341654,84.47389342239435
c 44.856470683611946,-14.399999999999999 46.95248849883137,0 46.95248849883137,35.526106577605645
c 0,33.840168888529234 -16.864308970824908,48.24016888852923 -41.83810171715299,33.840168888529234
c -33.28,-14.399999999999999 -20.48,50.4 -42.80397646509493,86.15983111147077 c -0.0,60.48919971960561 12.8,105.23764250777892 -2.426647576629832,88.43764250777892
c -78.94309546256692,-14.399999999999999 -82.32461317327358,0 -82.32461317327358,31.562357492221082
c 0,27.815787188910548 39.72645678051878,42.21578718891055 60.06897056944469,27.815787188910548
c 33.28,-14.399999999999999 20.48,50.4 24.682290180458722,92.18421281108945 c -0.0,26.72863727137689 12.8,116.32861641949967 -44.742877283107745,99.52861641949967
c -15.018159199900913,-14.399999999999999 -36.80672196584844,0 -36.80672196584844,20.47138358050033
c 0,17.744857988397087 64.59422671087704,32.144857988397085 65.95699402997643,17.744857988397087
c 33.28,-14.399999999999999 20.48,50.4 15.592605218979756,102.25514201160291 L 0 960 " fill="none" stroke="black" stroke-width="0.1" style="vector-effect:non-scaling-stroke;"/></g></g><g><g><path d="M 0 0  L 0 240.000000  c 62.37195613318268,0.0 120.44100304497036,-12.0 102.52100304497036,8.712888699394295
c -15.36,48.30081579404219 0,65.01408844647189 25.478996955029643,65.01408844647189
c 21.33387368853886,0 36.69387368853886,-33.54363012551987 21.33387368853886,-63.383485750100604
c -15.36,-31.200000000000003 53.76,-19.2 106.66612631146114,-10.343491395765582 c 72.41751566116653,-0.0 107.53100258391179,12.0 89.61100258391178,2.53465587055767
c -15.36,-69.02363768472023 0,-72.57478065372003 38.388997416088216,-72.57478065372003
c 24.59186069124405,0 39.95186069124405,21.85878722710454 24.59186069124405,47.333144417677694
c -15.36,31.200000000000003 53.76,19.2 103.40813930875595,22.70698036548466 c 62.29770447832034,-0.0 116.38356583584778,12.0 98.46356583584777,-37.52720390392837
c -15.36,-12.733187145370534 0,-32.46864682142454 29.536434164152226,-32.46864682142454
c 36.40580375486178,0 51.76580375486178,57.42704304063164 36.40580375486178,74.57308073657191
c -15.36,31.200000000000003 53.76,19.2 91.59419624513822,-4.577230011219001 c 67.23508882561568,0.0 112.68172042834406,-12.0 94.76172042834406,33.025589679772104
c -15.36,9.976764972261279 0,44.426787241991356 33.23827957165594,44.426787241991356
c 35.42840376016923,0 50.78840376016923,-12.699035768986526 35.42840376016923,-24.983070132677113
c -15.36,-31.200000000000003 53.76,-19.2 92.57159623983077,-52.469306789086346 c 42.52196966353357,0.0 107.61116127510249,-12.0 89.69116127510249,-0.9732836526798022
c -15.36,55.43352448128837 0,58.704710001623766 38.30883872489751,58.704710001623766
c 40.08890101037082,0 55.44890101037082,-19.03336508905798 40.08890101037082,-29.68696047697868
c -15.36,-31.200000000000003 53.76,-19.2 87.91109898962918,-28.044465871965283 L 1280 0 " fill="none" stroke="black" stroke-width="0.1" style="vector-effect:non-scaling-stroke;"/></g><g><path d="M 0 0  L 0 480.000000  c 73.63557506032507,0.0 111.62729679871526,-12.0 93.70729679871526,42.036388521732796
c -15.36,24.07153170020371 0,27.60689057247523 34.29270320128474,27.60689057247523
c 30.83463884686381,0 46.19463884686381,-10.538779706680685 30.83463884686381,-34.30888812171876
c -15.36,-31.200000000000003 53.76,-19.2 97.16536115313619,-35.33439097248927 c 35.564838898491345,-0.0 111.40023654414067,12.0 93.48023654414067,-24.148587238227694
c -15.36,-17.884229656587227 0,-51.82494075456505 34.519763455859334,-51.82494075456505
c 38.773152226092435,0 54.133152226092434,33.66912938232591 38.773152226092435,67.97742110194213
c -15.36,31.200000000000003 53.76,19.2 89.22684777390756,7.996106890850612 c 72.81610701794808,0.0 108.22597298702,-12.0 90.30597298702,48.8266205832686
c -15.36,7.24859113546669 0,16.629440796110963 37.69402701298,16.629440796110963
c 33.61124302387648,0 48.97124302387648,-27.046113650111224 33.61124302387648,-61.499564558331
c -15.36,-31.200000000000003 53.76,-19.2 94.38875697612352,-3.9564968210485603 c 49.52355579020403,0.0 109.308058894216,-12.0 91.388058894216,40.74746539416261
c -15.36,18.72836008645974 0,33.1073544570174 36.611941105784,33.1073544570174
c 19.29509511128495,0 34.65509511128495,-20.53310436865961 19.29509511128495,-60.27268844251365
c -15.36,-31.200000000000003 53.76,-19.2 108.70490488871505,-13.582131408666363 c 51.13451489136543,0.0 121.26877399814043,-12.0 103.34877399814043,51.288525979878145
c -15.36,20.177703261833628 0,20.431092095145473 24.65122600185957,20.431092095145473
c 39.43514883878501,0 54.79514883878501,-28.22771344489109 39.43514883878501,-32.76624293666264
c -15.36,-31.200000000000003 53.76,-19.2 88.56485116121499,-38.953375138360975 L 1280 0 " fill="none" stroke="black" stroke-width="0.1" style="vector-effect:non-scaling-stroke;"/></g><g><path d="M 0 0  L 0 720.000000  c 19.939436322274627,-0.0 117.19061039674249,12.0 99.27061039674248,-3.153934321300992
c -15.36,-43.42895101048726 0,-62.79395316351702 28.729389603257516,-62.79395316351702
c 31.18710305503896,0 46.54710305503896,7.411780304085828 31.18710305503896,26.571707638263632
c -15.36,31.200000000000003 53.76,19.2 96.81289694496104,39.37617984655438 c 45.570180900819565,0.0 125.20091543867468,-12.0 107.28091543867468,45.851477774363325
c -15.36,16.69568028434435 0,29.18726748136944 20.719084561325317,29.18726748136944
c 19.365129077400724,0 34.72512907740072,-11.552975325200515 19.365129077400724,-31.671495494028413
c -15.36,-31.200000000000003 53.76,-19.2 108.63487092259928,-43.36724976170435 c 48.87898967918392,0.0 123.15709115973081,-12.0 105.23709115973081,33.10071289641849
c -15.36,14.555924413234687 0,39.891725530782544 22.76290884026919,39.891725530782544
c 24.254784145637558,0 39.61478414563756,-12.232992155948759 24.254784145637558,-22.30349478616266
c -15.36,-31.200000000000003 53.76,-19.2 103.74521585436244,-50.68894364103838 c 49.067857488106796,0.0 114.7308459032909,-12.0 96.8108459032909,26.1127808800203
c -15.36,33.13692505100531 0,35.97665849939051 31.189154096709103,35.97665849939051
c 32.460041700418685,0 47.820041700418685,-2.5114311427954794 32.460041700418685,-10.383988418350683
c -15.36,-31.200000000000003 53.76,-19.2 95.53995829958131,-51.70545096106012 c 22.160552716596648,0.0 117.31374695829318,-12.0 99.39374695829318,47.58567020363098
c -15.36,19.41349440038237 0,33.3520749169606 28.60625304170682,33.3520749169606
c 19.923906634411992,0 35.28390663441199,-50.976969645807635 19.923906634411992,-83.62364487680993
c -15.36,-31.200000000000003 53.76,-19.2 108.07609336558801,2.6858997562183475 L 1280 0 " fill="none" stroke="black" stroke-width="0.1" style="vector-effect:non-scaling-stroke;"/></g></g></svg>