<svg baseProfile="full" height="2998" preserveAspectRatio="none" shape-rendering="geometricPrecision" version="1.1" viewBox="0,0,1999,2998" width="1999" xmlns="http://www.w3.org/2000/svg" xmlns:ev="http://www.w3.org/2001/xml-events" xmlns:xlink="http://www.w3.org/1999/xlink"><title>Jigsaw puzzle piece clips</title><desc>Created with the piecemaker. Piece count: 15</desc><defs /><g><g><rect fill="white" height="2998" width="1999" x="0" y="0" /></g></g><g><g><path d="M 0 0  L 666.333333 0  c 0.0,62.63278538554142 -33.31666666666667,283.66729442405835 146.416165634256,241.69529442405835&#10;c 64.78033416451471,-35.976 73.28320296947291,0 73.28320296947291,58.104705575941665&#10;c 0,72.52713304267337 -61.6585392337747,108.50313304267337 -167.35579562650506,72.52713304267337&#10;c -86.62333333333333,-35.976 -53.30666666666667,125.916 -52.34357297722386,227.27286695732664 c -0.0,70.8345912762045 33.31666666666667,286.62654769425535 -118.71724005794563,244.65454769425534&#10;c -38.64650139257568,-35.976 -59.88937491469075,0 -59.88937491469075,55.14545230574467&#10;c 0,91.81386918701139 24.27154792431801,127.78986918701139 66.69960818285783,91.81386918701139&#10;c 86.62333333333333,-35.976 53.30666666666667,125.916 111.90700678977855,207.98613081298862 c 0.0,80.78858150430644 -33.31666666666667,298.1617600181811 21.726182855159557,256.1897600181811&#10;c 37.19034386259265,-35.976 166.5854245453107,0 166.5854245453107,43.61023998181889&#10;c 0,49.53195252265397 -56.836848477783306,85.50795252265397 -68.09089613551234,49.53195252265397&#10;c -86.62333333333333,-35.976 -53.30666666666667,125.916 -120.22071126495791,250.26804747734604 c 0.0,143.27345562265344 -33.31666666666667,294.79341396794007 12.599920151068469,252.82141396794003&#10;c 75.47384666661426,-35.976 209.7691468183004,0 209.7691468183004,46.97858603205998&#10;c 0,93.28191729763842 -100.66853112850553,129.25791729763841 -148.4992748374634,93.28191729763842&#10;c -86.62333333333333,-35.976 -53.30666666666667,125.916 -73.86979213190548,206.5180827023616 c -0.0,54.089583172214965 33.31666666666667,298.0352461388625 -142.2299199829641,256.06324613886244&#10;c -20.799933511827703,-35.976 -20.858682138625085,0 -20.858682138625085,43.73675386113757&#10;c 0,60.646646461814385 99.08353487768206,96.62264646181438 106.33771676665688,60.646646461814385&#10;c 86.62333333333333,-35.976 53.30666666666667,125.916 56.75088535493231,239.15335353818563 L 0 2998 " fill="none" stroke="black" stroke-width="0.1" style="vector-effect:non-scaling-stroke;" /></g><g><path d="M 0 0  L 1332.666667 0  c 0.0,122.95635419736817 -33.31666666666667,247.58112952206585 21.664091228854222,205.60912952206584&#10;c 92.99160677203555,-35.976 151.52829280390498,0 151.52829280390498,94.19087047793417&#10;c 0,87.0550091688811 -60.07026357238744,123.0310091688811 -124.64169277631493,87.0550091688811&#10;c -86.62333333333333,-35.976 -53.30666666666667,125.916 -48.55069125644428,212.7449908311189 c 0.0,156.3059355417471 -33.31666666666667,297.577579350292 95.92654984944727,255.60557935029198&#10;c 49.161109487733064,-35.976 83.69398415577376,0 83.69398415577376,44.194420649708036&#10;c 0,64.88166890079827 -153.40093601176213,100.85766890079827 -172.77183531118334,64.88166890079827&#10;c -86.62333333333333,-35.976 -53.30666666666667,125.916 -6.848698694037694,234.91833109920174 c 0.0,52.87781412776251 -33.31666666666667,292.26462142493835 0.5616743127282267,250.29262142493832&#10;c 174.49999777986665,-35.976 203.46397583146842,0 203.46397583146842,49.50737857506169&#10;c 0,49.399601256590074 -81.65262471701526,85.37560125659007 -119.22250825877744,49.399601256590074&#10;c -86.62333333333333,-35.976 -53.30666666666667,125.916 -84.80314188541921,250.40039874340994 c -0.0,143.15795492600563 33.31666666666667,277.77728486369864 -33.23132717268604,235.80528486369863&#10;c -61.22204205707282,-35.976 -154.22882112327997,0 -154.22882112327997,63.99471513630138&#10;c 0,74.09242372948472 50.17591907491991,110.06842372948472 166.02844569911454,74.09242372948472&#10;c 86.62333333333333,-35.976 53.30666666666667,125.916 21.431702596851466,225.7075762705153 c -0.0,150.9198317569143 33.31666666666667,296.0124592127838 12.534622425602766,254.0404592127838&#10;c -175.15643174151478,-35.976 -206.8994066156691,0 -206.8994066156691,45.759540787216224&#10;c 0,54.47655258773216 122.66728123753511,90.45255258773216 145.8926831048633,54.47655258773216&#10;c 86.62333333333333,-35.976 53.30666666666667,125.916 48.472101085203036,245.32344741226785 L 0 2998 " fill="none" stroke="black" stroke-width="0.1" style="vector-effect:non-scaling-stroke;" /></g></g><g><g><path d="M 0 0  L 0 599.600000  c 99.59899634099278,-0.0 287.2769157897705,29.980000000000004 240.63358245643718,-111.21731783895666&#10;c -39.980000000000004,-39.63022306917191 0,-43.61440468154461 92.5330842102295,-43.61440468154461&#10;c 105.13236474383399,0 145.112364743834,23.873302733685776 105.13236474383399,49.51019555431134&#10;c -39.980000000000004,77.94800000000001 139.93,47.968 228.0343019228327,105.32152696618994 c 129.71878771104593,-0.0 283.1837549429653,29.980000000000004 236.54042160963198,-17.919170665742385&#10;c -39.980000000000004,-82.13950359199914 0,-171.0377943197676 96.62624505703471,-171.0377943197676&#10;c 72.82419086915036,0 112.80419086915036,90.51226074145767 72.82419086915036,102.71817722326557&#10;c -39.980000000000004,77.94800000000001 139.93,47.968 260.34247579751633,86.23878776224444 c 41.15777752295775,0.0 323.9914070895788,-29.980000000000004 277.34807375624547,8.249667520537017&#10;c -39.980000000000004,45.45211633778973 0,155.97912395320776 55.818592910421216,155.97912395320776&#10;c 58.05751199077764,0 98.03751199077765,-32.333206009553244 58.05751199077764,-139.64324654590519&#10;c -39.980000000000004,-77.94800000000001 139.93,-47.968 275.10915467588904,-24.585544927839578 L 1999 0 " fill="none" stroke="black" stroke-width="0.1" style="vector-effect:non-scaling-stroke;" /></g><g><path d="M 0 0  L 0 1199.200000  c 122.05883353100697,0.0 314.35917391294714,-29.980000000000004 267.7158405796138,85.23905932686239&#10;c -39.980000000000004,68.55435399183925 0,79.80739501822816 65.45082608705286,79.80739501822816&#10;c 72.26419716527386,0 112.24419716527386,-88.51888361930723 72.26419716527386,-142.28827895483016&#10;c -39.980000000000004,-77.94800000000001 139.93,-47.968 260.90246950139283,-22.75817539026039 c 187.98148363330162,-0.0 314.94531689971603,29.980000000000004 268.3019835663827,-60.85176819940309&#10;c -39.980000000000004,-87.49675571239507 0,-118.14000329273537 64.86468310028397,-118.14000329273537&#10;c 99.94617447804961,0 139.92617447804963,176.64981540401737 99.94617447804961,186.25608907050793&#10;c -39.980000000000004,77.94800000000001 139.93,47.968 233.22049218861707,-7.264317578369457 c 191.45279825661294,0.0 302.51491730138986,-29.980000000000004 255.8715839680565,1.4764417641925882&#10;c -39.980000000000004,179.12367189458251 0,190.46256765739028 77.29508269861017,190.46256765739028&#10;c 76.16945815095022,0 116.14945815095022,-142.89071602145285 76.16945815095022,-196.28215366145395&#10;c -39.980000000000004,-77.94800000000001 139.93,-47.968 256.99720851571647,4.343144239871066 L 1999 0 " fill="none" stroke="black" stroke-width="0.1" style="vector-effect:non-scaling-stroke;" /></g><g><path d="M 0 0  L 0 1798.800000  c 109.08655657722288,0.0 325.4842100155598,-29.980000000000004 278.8408766822265,15.693485444269388&#10;c -39.980000000000004,42.422097795806486 0,136.3536498126274 54.32578998444018,136.3536498126274&#10;c 82.81029553341313,0 122.79029553341313,-18.422004903336262 82.81029553341313,-82.74154326632721&#10;c -39.980000000000004,-77.94800000000001 139.93,-47.968 250.35637113325356,-69.30559199056957 c 70.41744680519493,-0.0 333.1279608219988,29.980000000000004 286.48462748866547,-1.5627702167991988&#10;c -39.980000000000004,-106.45151133653661 0,-159.814367641947 46.68203917800122,-159.814367641947&#10;c 54.94640043237928,0 94.92640043237928,135.64675826550013 54.94640043237928,158.2387761475977&#10;c -39.980000000000004,77.94800000000001 139.93,47.968 278.2202662342874,3.1383617111485194 c 124.91044010431945,0.0 288.7136583983076,-29.980000000000004 242.07032506497427,33.337961165406405&#10;c -39.980000000000004,93.92735607072798 0,147.96168038827707 91.09634160169242,147.96168038827707&#10;c 48.93241445719764,0 88.91241445719764,-59.18259581044044 48.93241445719764,-93.16115296903851&#10;c -39.980000000000004,-77.94800000000001 139.93,-47.968 284.23425220946905,-88.13848858464496 L 1999 0 " fill="none" stroke="black" stroke-width="0.1" style="vector-effect:non-scaling-stroke;" /></g><g><path d="M 0 0  L 0 2398.400000  c 83.03120210442583,-0.0 289.29837504390446,29.980000000000004 242.6550417105711,-35.74898762717861&#10;c -39.980000000000004,-59.28660097837738 0,-158.0729194949135 90.51162495609557,-158.0729194949135&#10;c 101.32957464883651,0 141.30957464883653,92.82795852507837 101.32957464883651,102.61711552082741&#10;c -39.980000000000004,77.94800000000001 139.93,47.968 231.83709201783017,91.2047916012647 c 161.3618526703211,-0.0 304.08397653997923,29.980000000000004 257.4406432066459,-59.42155721434115&#10;c -39.980000000000004,-41.50697436724622 0,-92.52223505812971 75.72602346002077,-92.52223505812971&#10;c 83.18954619613783,0 123.16954619613783,107.3430789013758 83.18954619613783,153.40350408580943&#10;c -39.980000000000004,77.94800000000001 139.93,47.968 249.97712047052886,-1.459711813338572 c 49.367416141831264,0.0 300.5543166864127,-29.980000000000004 253.91098335307933,11.514289111219442&#10;c -39.980000000000004,122.44652476704718 0,173.29581532259874 79.25568331358735,173.29581532259874&#10;c 78.51035845074784,0 118.49035845074785,-184.26666596535495 78.51035845074784,-189.62763439968307&#10;c -39.980000000000004,-77.94800000000001 139.93,-47.968 254.65630821591884,4.817529965864878 L 1999 0 " fill="none" stroke="black" stroke-width="0.1" style="vector-effect:non-scaling-stroke;" /></g></g></svg>