<svg baseProfile="full" height="3072" preserveAspectRatio="none" shape-rendering="geometricPrecision" version="1.1" viewBox="0,0,4608,3072" width="4608" xmlns="http://www.w3.org/2000/svg" xmlns:ev="http://www.w3.org/2001/xml-events" xmlns:xlink="http://www.w3.org/1999/xlink"><title>Jigsaw puzzle piece clips</title><desc>Created with the piecemaker. Piece count: 24</desc><defs /><g><g><rect fill="white" height="3072" width="4608" x="0" y="0" /></g></g><g><g><path d="M 0 0  L 768.000000 0  c -0.0,217.76910422358065 38.400000000000006,337.2200715032289 -130.51339177557938,283.4600715032289&#10;c -110.3191036205449,-46.08 -129.81874675447662,0 -129.81874675447662,100.5399284967711&#10;c 0,57.68408634412674 111.21644597735423,103.76408634412674 245.90715824653773,57.68408634412674&#10;c 99.84,-46.08 61.44,161.28 14.424980283518266,326.31591365587326 c 0.0,119.74717260836286 -38.400000000000006,327.11870607022803 126.98500884637991,273.35870607022804&#10;c 45.505637428727674,-46.08 122.39510404703827,0 122.39510404703827,110.64129392977196&#10;c 0,88.62952945684458 -25.03287389723387,134.70952945684456 -114.30813344244683,88.62952945684458&#10;c -99.84,-46.08 -61.44,161.28 -135.07197945097136,295.3704705431554 c -0.0,200.20537079664885 38.400000000000006,320.77917454060486 -20.074125259636457,267.01917454060487&#10;c -167.45766652045833,-46.08 -222.50745004177725,0 -222.50745004177725,116.98082545939513&#10;c 0,111.542664123875 31.933231260038927,157.62266412387498 74.04379733462704,111.542664123875&#10;c 99.84,-46.08 61.44,161.28 168.53777796678665,272.457335876125 c 0.0,44.57918425975809 -38.400000000000006,329.35297749634873 33.11005546037663,275.59297749634874&#10;c 51.7925356627962,-46.08 193.34439559089768,0 193.34439559089768,108.40702250365126&#10;c 0,61.83152255461937 -109.78591492556626,107.91152255461937 -121.89335857372902,61.83152255461937&#10;c -99.84,-46.08 -61.44,161.28 -104.56109247754529,322.16847744538063 L 0 3072 " fill="none" stroke="black" stroke-width="0.1" style="vector-effect:non-scaling-stroke;" /></g><g><path d="M 0 0  L 1536.000000 0  c -0.0,87.13206382014565 38.400000000000006,335.27603328935027 -15.487638389114814,281.5160332893503&#10;c -130.26062664993216,-46.08 -245.35667839062336,0 -245.35667839062336,102.48396671064972&#10;c 0,79.26909902549966 107.26279772835228,125.34909902549965 211.42685233200905,79.26909902549966&#10;c 99.84,-46.08 61.44,161.28 49.41746444772912,304.73090097450034 c -0.0,102.1549839332307 38.400000000000006,341.34249367442646 -108.70767513544897,287.5824936744265&#10;c -95.30661393099827,-46.08 -110.64443191334865,0 -110.64443191334865,96.41750632557353&#10;c 0,54.17084998351527 95.71981285402076,100.25084998351527 222.36458909613037,54.17084998351527&#10;c 99.84,-46.08 61.44,161.28 -3.012482047332753,329.82915001648473 c 0.0,169.06435521005795 -38.400000000000006,348.28839032493875 107.8065719403515,294.52839032493875&#10;c 76.94740143591387,-46.08 125.25473730285272,0 125.25473730285272,89.47160967506125&#10;c 0,111.13441639037603 -61.96703918369248,157.21441639037602 -158.78128150942405,111.13441639037603&#10;c -99.84,-46.08 -61.44,161.28 -74.28002773378017,272.86558360962397 c -0.0,53.25165803029782 38.400000000000006,368.17157594536263 -2.466178928461847,314.41157594536264&#10;c -122.88635847538022,-46.08 -211.44594454556315,0 -211.44594454556315,69.58842405463736&#10;c 0,93.39528774048955 49.739863169456264,139.47528774048953 62.10415566112198,93.39528774048955&#10;c 99.84,-46.08 61.44,161.28 151.80796781290303,290.60471225951045 L 0 3072 " fill="none" stroke="black" stroke-width="0.1" style="vector-effect:non-scaling-stroke;" /></g><g><path d="M 0 0  L 2304.000000 0  c -0.0,90.2024387997331 38.400000000000006,352.6416496022874 -13.593740557456563,298.8816496022874&#10;c -146.0962159614698,-46.08 -191.80022214928726,0 -191.80022214928726,85.11835039771262&#10;c 0,59.09497693882099 55.99303756249931,105.17497693882099 123.83160934295422,59.09497693882099&#10;c 99.84,-46.08 61.44,161.28 81.5623533637896,324.905023061179 c 0.0,139.1949869469961 -38.400000000000006,362.667092433532 74.41892468157074,308.907092433532&#10;c 93.166519412901,-46.08 130.2793691368709,0 130.2793691368709,75.092907566468&#10;c 0,62.08979135561583 -160.90651283200077,108.16979135561583 -211.54212374962788,62.08979135561583&#10;c -99.84,-46.08 -61.44,161.28 6.843829931186235,321.91020864438417 c -0.0,78.44059046382672 38.400000000000006,348.43294202724616 -33.62150443779191,294.67294202724617&#10;c -92.28773579594342,-46.08 -152.44201099594622,0 -152.44201099594622,89.32705797275383&#10;c 0,61.78442211182062 63.34128148515896,107.86442211182062 138.29859826859067,61.78442211182062&#10;c 99.84,-46.08 61.44,161.28 47.764917165147466,322.2155778881794 c 0.0,75.98430668849991 -38.400000000000006,363.1016872148109 145.35572167384888,309.3416872148109&#10;c 31.282023031271155,-46.08 58.55635170238938,0 58.55635170238938,74.65831278518908&#10;c 0,119.86290644463281 -34.55701536084568,165.9429064446328 -118.75516619637177,119.86290644463281&#10;c -99.84,-46.08 -61.44,161.28 -85.15690717986648,264.1370935553672 L 0 3072 " fill="none" stroke="black" stroke-width="0.1" style="vector-effect:non-scaling-stroke;" /></g><g><path d="M 0 0  L 3072.000000 0  c -0.0,135.46505169223607 38.400000000000006,336.31980484092884 -141.32085140832405,282.55980484092885&#10;c -18.31006985810541,-46.08 -54.539416264115374,0 -54.539416264115374,101.44019515907115&#10;c 0,81.79518952651506 63.424492238350716,127.87518952651506 115.26295368419383,81.79518952651506&#10;c 99.84,-46.08 61.44,161.28 80.59731398824559,302.20481047348494 c 0.0,117.56355938169753 -38.400000000000006,379.3195151820029 70.94885498656758,325.5595151820029&#10;c 98.8402067287639,-46.08 132.9575892850857,0 132.9575892850857,58.44048481799712&#10;c 0,111.47948220082156 -39.417708825516165,157.55948220082155 -118.85427895213357,111.47948220082156&#10;c -99.84,-46.08 -61.44,161.28 -85.05216531951973,272.52051779917844 c -0.0,206.63049709207382 38.400000000000006,348.13192781529983 -13.69290849851134,294.37192781529984&#10;c -158.33574558369023,-46.08 -229.0440546970766,0 -229.0440546970766,89.62807218470016&#10;c 0,107.61038886400354 135.72131120047226,153.69038886400352 210.66577561724006,107.61038886400354&#10;c 99.84,-46.08 61.44,161.28 32.07118757834789,276.38961113599646 c 0.0,201.18234514531963 -38.400000000000006,326.82987833968485 162.14856287877845,273.06987833968486&#10;c 41.11565251250876,-46.08 92.01531495153765,0 92.01531495153765,110.93012166031514&#10;c 0,104.30612197954662 -175.11968532695212,150.3861219795466 -186.81490846839654,104.30612197954662&#10;c -99.84,-46.08 -61.44,161.28 -67.34896936191956,279.6938780204534 L 0 3072 " fill="none" stroke="black" stroke-width="0.1" style="vector-effect:non-scaling-stroke;" /></g><g><path d="M 0 0  L 3840.000000 0  c -0.0,143.33037991322044 38.400000000000006,325.4946561923749 -59.575014964859804,271.7346561923749&#10;c -145.46035594215937,-46.08 -161.0516793618988,0 -161.0516793618988,112.26534380762507&#10;c 0,68.18392766122611 104.37907676509845,114.2639276612261 152.81565526640776,68.18392766122611&#10;c 99.84,-46.08 61.44,161.28 67.81103906035085,315.8160723387739 c 0.0,66.47414202004117 -38.400000000000006,331.78770446075123 130.16798379611058,278.02770446075124&#10;c 34.27290686880635,-46.08 68.46166362335802,0 68.46166362335802,105.97229553924876&#10;c 0,63.639574560787025 -27.198946811650508,109.71957456078702 -45.57565139638814,63.639574560787025&#10;c -99.84,-46.08 -61.44,161.28 -153.05399602308046,320.360425439213 c -0.0,134.55488253207096 38.400000000000006,367.2452113147527 -138.79778986620892,313.4852113147527&#10;c -48.79805577382675,-46.08 -61.40714531483536,0 -61.40714531483536,70.51478868524731&#10;c 0,88.37778976491285 157.59237757627653,134.45778976491283 177.15094232073514,88.37778976491285&#10;c 99.84,-46.08 61.44,161.28 23.053992860309137,295.62221023508715 c -0.0,177.01331263515465 38.400000000000006,381.3974768186794 -46.24563655776575,327.63747681867943&#10;c -187.47867531799875,-46.08 -199.5795261434531,0 -199.5795261434531,56.36252318132057&#10;c 0,79.65343733834334 88.59685647528157,125.73343733834334 117.93958981165548,79.65343733834334&#10;c 99.84,-46.08 61.44,161.28 127.88557288956338,304.34656266165666 L 0 3072 " fill="none" stroke="black" stroke-width="0.1" style="vector-effect:non-scaling-stroke;" /></g></g><g><g><path d="M 0 0  L 0 768.000000  c 199.09485923726757,0.0 340.5947118701409,-38.400000000000006 286.8347118701409,-10.786471354289654&#10;c -46.08,186.17721591029408 0,211.3978637054996 97.1652881298591,211.3978637054996&#10;c 102.81244870952395,0 148.89244870952393,-63.33331449191928 102.81244870952395,-64.16632410464791&#10;c -46.08,-99.84 161.28,-61.44 281.18755129047605,-136.44506824656202 c 121.93655967056195,0.0 365.6173873623486,-38.400000000000006 311.8573873623486,130.48012586755183&#10;c -46.08,24.06245637268562 0,91.51548611934092 72.14261263765138,91.51548611934092&#10;c 113.34041859309366,0 159.42041859309364,-36.47576109974188 113.34041859309366,-54.02280852707946&#10;c -46.08,-99.84 161.28,-61.44 270.65958140690634,-167.9728034598133 c 117.29802744463336,0.0 343.106246752086,-38.400000000000006 289.346246752086,130.09308026706606&#10;c -46.08,100.04477154473072 0,129.17546636011417 94.65375324791398,129.17546636011417&#10;c 107.7862354592836,0 153.8662354592836,-256.24528943683305 107.7862354592836,-271.7774390682355&#10;c -46.08,-99.84 161.28,-61.44 276.2137645407164,12.508892441055252 c 173.88403307539457,0.0 319.449772434921,-38.400000000000006 265.689772434921,30.51734755851424&#10;c -46.08,153.17808340464953 0,185.35849006302288 118.310227565079,185.35849006302288&#10;c 72.46571071856863,0 118.54571071856863,-73.39760274309376 72.46571071856863,-126.90936084959388&#10;c -46.08,-99.84 161.28,-61.44 311.53428928143137,-88.96647677194325 c 164.73951564604673,-0.0 374.25038416561557,38.400000000000006 320.4903841656156,-85.8894104296637&#10;c -46.08,-100.36040966344856 0,-139.02201066410288 63.50961583438442,-139.02201066410288&#10;c 54.200853299299865,0 100.28085329929986,76.99309754865324 54.200853299299865,153.38573359272536&#10;c -46.08,99.84 161.28,61.44 329.79914670070013,71.52568750104123 c 213.72638400878873,0.0 330.21391217772975,-38.400000000000006 276.45391217772976,149.5893067029789&#10;c -46.08,49.141900985945554 0,109.9771662612489 107.54608782227024,109.9771662612489&#10;c 91.50838241831877,0 137.58838241831876,-75.08080247594359 91.50838241831877,-219.57463721582033&#10;c -46.08,-99.84 161.28,-61.44 292.4916175816812,-39.99183574840745 L 4608 0 " fill="none" stroke="black" stroke-width="0.1" style="vector-effect:non-scaling-stroke;" /></g><g><path d="M 0 0  L 0 1536.000000  c 131.37865872450047,-0.0 383.8814331782153,38.400000000000006 330.1214331782153,-60.2234270168461&#10;c -46.08,-44.81221006465672 0,-158.28276275517837 53.878566821784716,-158.28276275517837&#10;c 64.36742381682967,0 110.44742381682967,68.89993951806343 64.36742381682967,203.4034576657844&#10;c -46.08,99.84 161.28,61.44 319.63257618317033,15.102732106240069 c 39.012901304242895,-0.0 363.9582922678004,38.400000000000006 310.1982922678004,10.009382314405714&#10;c -46.08,-174.69491376190442 0,-211.7915692353241 73.80170773219959,-211.7915692353241&#10;c 120.74263369400978,0 166.82263369400977,29.367996751075417 120.74263369400978,40.33690469065573&#10;c -46.08,99.84 161.28,61.44 263.2573663059902,161.44528223026265 c 108.51872341308155,0.0 334.2866038139777,-38.400000000000006 280.5266038139777,2.138256972538434&#10;c -46.08,142.3213845542434 0,209.68380040400933 103.47339618602228,209.68380040400933&#10;c 104.91304624498247,0 150.99304624498245,-65.70955574633652 104.91304624498247,-66.72347306164141&#10;c -46.08,-99.84 161.28,-61.44 279.08695375501753,-145.09858431490636 c 94.86622524597936,-0.0 355.8698532957628,38.400000000000006 302.10985329576283,12.35290733997056&#10;c -46.08,-69.71156271494623 0,-197.84313493182185 81.89014670423717,-197.84313493182185&#10;c 117.36229352266889,0 163.44229352266888,70.83891025740334 117.36229352266889,97.86899915648092&#10;c -46.08,99.84 161.28,61.44 266.6377064773311,87.62122843537037 c 206.9556497238437,-0.0 331.82944372081477,38.400000000000006 278.0694437208148,-28.38109296622039&#10;c -46.08,-46.31927253512079 0,-207.9767599401773 105.93055627918523,-207.9767599401773&#10;c 109.5909194543791,0 155.6709194543791,206.9316702136845 109.5909194543791,228.8118508639476&#10;c -46.08,99.84 161.28,61.44 274.4090805456209,7.546002042450084 c 49.42371643596471,-0.0 368.3158134054121,38.400000000000006 314.5558134054121,-70.23484699918332&#10;c -46.08,-115.9400844233461 0,-163.58817856376862 69.4441865945879,-163.58817856376862&#10;c 59.14953582509861,0 105.22953582509861,68.87354789961498 59.14953582509861,122.1334403857789&#10;c -46.08,99.84 161.28,61.44 324.8504641749014,111.68958517717306 L 4608 0 " fill="none" stroke="black" stroke-width="0.1" style="vector-effect:non-scaling-stroke;" /></g><g><path d="M 0 0  L 0 2304.000000  c 196.48352351099902,0.0 330.37816412690944,-38.400000000000006 276.61816412690945,103.3422007942965&#10;c -46.08,29.030711770395122 0,89.56640223859765 107.38183587309055,89.56640223859765&#10;c 75.64417793540139,0 121.72417793540139,-77.60157163751414 75.64417793540139,-81.80809416540542&#10;c -46.08,-99.84 161.28,-61.44 308.3558220645986,-111.10050886748873 c 44.445108276125126,0.0 349.9892691270555,-38.400000000000006 296.2292691270555,76.9810327990677&#10;c -46.08,127.8826862452121 0,174.15346391623365 87.77073087294451,174.15346391623365&#10;c 94.53058110060817,0 140.61058110060816,-79.64032859167041 94.53058110060817,-145.75521848614545&#10;c -46.08,-99.84 161.28,-61.44 289.4694188993918,-105.37927822915589 c 201.23787052512847,0.0 377.5636731906708,-38.400000000000006 323.8036731906708,55.27136008012788&#10;c -46.08,51.5156639127275 0,147.79637858895512 60.19632680932921,147.79637858895512&#10;c 65.02499632699812,0 111.10499632699812,-39.24081928958026 65.02499632699812,-115.81549336851026&#10;c -46.08,-99.84 161.28,-61.44 318.9750036730019,-87.25224530057272 c 187.98636470113834,-0.0 336.3610163294363,38.400000000000006 282.60101632943633,-82.04831303418193&#10;c -46.08,-131.56813792684906 0,-141.6157351203289 101.39898367056367,-141.6157351203289&#10;c 110.77603858065345,0 156.85603858065343,72.39443542266692 110.77603858065345,110.22412828649124&#10;c -46.08,99.84 161.28,61.44 273.22396141934655,113.43991986801962 c 148.49388765605704,0.0 346.54118194348933,-38.400000000000006 292.78118194348934,116.9358883119175&#10;c -46.08,28.8085630289836 0,133.9334348996779 91.21881805651066,133.9334348996779&#10;c 95.07460351263472,0 141.1546035126347,-100.6350026618738 95.07460351263472,-225.07502710953392&#10;c -46.08,-99.84 161.28,-61.44 288.9253964873653,-25.79429610206148 c 175.74137041103793,0.0 372.0174451347474,-38.400000000000006 318.2574451347474,60.391531897547694&#10;c -46.08,84.82204114665076 0,176.8189458291851 65.7425548652526,176.8189458291851&#10;c 62.84765119026895,0 108.92765119026895,-69.20674171326225 62.84765119026895,-124.9893662424824&#10;c -46.08,-99.84 161.28,-61.44 321.15234880973105,-112.22111148425039 L 4608 0 " fill="none" stroke="black" stroke-width="0.1" style="vector-effect:non-scaling-stroke;" /></g></g></svg>