<svg baseProfile="full" height="2848" preserveAspectRatio="none" shape-rendering="geometricPrecision" version="1.1" viewBox="0,0,4288,2848" width="4288" xmlns="http://www.w3.org/2000/svg" xmlns:ev="http://www.w3.org/2001/xml-events" xmlns:xlink="http://www.w3.org/1999/xlink"><title>Jigsaw puzzle piece clips</title><desc>Created with the piecemaker. Piece count: 35</desc><defs/><g><g><rect fill="white" height="2848" width="4288" x="0" y="0"/></g></g><g><g><path d="M 0 0  L 612.571429 0  c -0.0,160.57724645867205 30.62857142857143,277.12559686791025 -57.11031378624579,237.25359686791026
c -32.513171345800096,-34.176 -123.78201925924537,0 -123.78201925924537,47.54640313208975
c 0,54.5035198258779 57.39411183193639,88.6795198258779 61.73041754351975,54.5035198258779
c 79.63428571428571,-34.176 49.005714285714284,119.616 119.16191550197142,230.2964801741221 c 0.0,91.60774742663058 -30.62857142857143,280.61745872459113 92.81044395629547,240.74545872459115
c 56.08602754458038,-34.176 76.12930500364388,0 76.12930500364388,44.054541275408866
c 0,56.7990918652788 -105.04121191903238,90.9750918652788 -158.75307416509992,56.7990918652788
c -79.63428571428571,-34.176 -49.005714285714284,119.616 -10.186674794839433,228.00090813472121 c 0.0,124.16161007652258 -30.62857142857143,274.670946937734 39.1056417607047,234.798946937734
c 96.52909322164643,-34.176 110.48793206090657,0 110.48793206090657,50.00105306226601
c 0,68.3035207680266 -51.18222431193083,102.4795207680266 -65.56652155921599,68.3035207680266
c -79.63428571428571,-34.176 -49.005714285714284,119.616 -84.02705226239529,216.4964792319734 c -0.0,146.71630527560637 30.62857142857143,264.7924112145105 -129.5400239671642,224.92041121451047
c -36.47400513589234,-34.176 -36.65593966026998,0 -36.65593966026998,59.879588785489545
c 0,61.57143748889774 25.347266877324696,95.74743748889775 88.27400330959354,61.57143748889774
c 79.63428571428571,-34.176 49.005714285714284,119.616 77.92196031784063,223.22856251110227 c -0.0,75.01902188812069 30.62857142857143,282.3672981312169 -90.76324672067595,242.4952981312169
c -67.61353764086611,-34.176 -102.39301817870948,0 -102.39301817870948,42.3047018687831
c 0,68.15304456298452 104.35300492188257,102.32904456298452 187.9432761601437,68.15304456298452
c 79.63428571428571,-34.176 49.005714285714284,119.616 5.212988739241723,216.6469554370155 L 0 2848 " fill="none" stroke="black" stroke-width="0.1" style="vector-effect:non-scaling-stroke;"/></g><g><path d="M 0 0  L 1225.142857 0  c -0.0,99.76142974506467 30.62857142857143,255.0593245157508 -31.934360537271562,215.1873245157508
c -67.05374388876385,-34.176 -151.77127722108952,0 -151.77127722108952,69.61267548424922
c 0,89.4740788989825 177.89570037455417,123.6500788989825 193.20236875468376,89.4740788989825
c 79.63428571428571,-34.176 49.005714285714284,119.616 -9.496730996322668,195.3259211010175 c -0.0,143.26279377764772 30.62857142857143,234.99072757463392 4.1051407379366385,195.1187275746339
c -90.04759624834243,-34.176 -152.17264034912552,0 -152.17264034912552,89.6812724253661
c 0,78.85406603500849 47.63479812438101,113.03006603500849 129.36145823720298,78.85406603500849
c 79.63428571428571,-34.176 49.005714285714284,119.616 18.706041373985897,205.94593396499153 c 0.0,84.04932795669102 -30.62857142857143,271.7502450976695 6.757712760172916,231.8782450976695
c 91.23795027584995,-34.176 159.53421502621654,0 159.53421502621654,52.92175490233052
c 0,83.64905229897249 -29.58793347171365,117.8250522989725 -36.72755107176934,83.64905229897249
c -79.63428571428571,-34.176 -49.005714285714284,119.616 -129.56437671462012,201.15094770102752 c 0.0,131.87156178630738 -30.62857142857143,259.8645621533276 14.835293031612345,219.99256215332758
c 138.8953809016688,-34.176 174.87231029894969,0 174.87231029894969,64.80743784667243
c 0,57.228498497431644 -190.61854370149987,91.40449849743165 -193.09677478929498,57.228498497431644
c -79.63428571428571,-34.176 -49.005714285714284,119.616 3.38917145873296,227.57150150256837 c 0.0,138.16433990201133 -30.62857142857143,256.4247348651181 92.74939376912958,216.55273486511814
c 43.82839779481607,-34.176 86.25471013375328,0 86.25471013375328,68.24726513488187
c 0,56.850075492400606 -77.99601066800498,91.02607549240061 -179.4191759048057,56.850075492400606
c -79.63428571428571,-34.176 -49.005714285714284,119.616 0.41507200192285154,227.9499245075994 L 0 2848 " fill="none" stroke="black" stroke-width="0.1" style="vector-effect:non-scaling-stroke;"/></g><g><path d="M 0 0  L 1837.714286 0  c 0.0,29.01645626635818 -30.62857142857143,265.3828838189688 38.23925155653923,225.5108838189688
c 131.8629947088906,-34.176 146.53266580255445,0 146.53266580255445,59.289116181031204
c 0,56.57569779539102 -77.91832430459303,90.75169779539102 -179.34200746406617,56.57569779539102
c -79.63428571428571,-34.176 -49.005714285714284,119.616 -5.429909895027492,228.224302204609 c 0.0,34.30712386417068 -30.62857142857143,260.6575094390239 100.88495300257438,220.7855094390239
c 23.303368362100045,-34.176 71.27977510885171,0 71.27977510885171,64.0144905609761
c 0,75.18620759641487 -96.27882163573085,109.36220759641488 -133.3143706539553,75.18620759641487
c -79.63428571428571,-34.176 -49.005714285714284,119.616 -38.85035745747078,209.61379240358514 c 0.0,55.13953286514898 -30.62857142857143,269.9519733626274 87.2395980088868,230.0799733626274
c 26.25229185691512,-34.176 74.08566665622756,0 74.08566665622756,54.7200266373726
c 0,60.26932939389411 -86.12521743721226,94.44532939389411 -153.65396824795576,60.26932939389411
c -79.63428571428571,-34.176 -49.005714285714284,119.616 -7.671296417158601,224.5306706061059 c -0.0,126.1216269987327 30.62857142857143,271.4683497933971 -68.58449779353944,231.59634979339714
c -98.55233532053646,-34.176 -104.1558159869715,0 -104.1558159869715,53.20365020660287
c 0,44.95555862015448 90.62139771582041,79.13155862015448 100.77098624089574,44.95555862015448
c 79.63428571428571,-34.176 49.005714285714284,119.616 71.96932753961521,239.84444137984553 c 0.0,89.57596860285801 -30.62857142857143,270.4152252896238 113.92259414046578,230.54322528962376
c 57.2517398193741,-34.176 64.8758794179436,0 64.8758794179436,54.25677471037625
c 0,60.41967606061047 -42.130599015231915,94.59567606061047 -150.01853082084125,60.41967606061047
c -79.63428571428571,-34.176 -49.005714285714284,119.616 -28.77994273756812,224.38032393938954 L 0 2848 " fill="none" stroke="black" stroke-width="0.1" style="vector-effect:non-scaling-stroke;"/></g><g><path d="M 0 0  L 2450.285714 0  c -0.0,143.97417565401028 30.62857142857143,277.2976337914148 -25.075306336533416,237.4256337914148
c -93.75857852247479,-34.176 -160.08375219888978,0 -160.08375219888978,47.3743662085852
c 0,55.7096415128193 52.646065203764365,89.8856415128193 152.00654268465678,55.7096415128193
c 79.63428571428571,-34.176 49.005714285714284,119.616 33.152515850766406,229.0903584871807 c -0.0,71.58361377378655 30.62857142857143,236.49992073250917 -119.7581611906868,196.62792073250915
c -17.46269582170174,-34.176 -47.34948088183732,0 -47.34948088183732,88.17207926749086
c 0,70.36175247001813 28.309204448320138,104.53775247001813 129.57526967601933,70.36175247001813
c 79.63428571428571,-34.176 49.005714285714284,119.616 37.5323723965048,214.43824752998188 c 0.0,87.11447017417991 -30.62857142857143,245.728619055597 58.38576225032498,205.85661905559698
c 105.12327378078614,-34.176 136.74576418780083,0 136.74576418780083,78.94338094440303
c 0,47.16616818082201 -163.0223970644577,81.34216818082201 -176.68270586409966,47.16616818082201
c -79.63428571428571,-34.176 -49.005714285714284,119.616 -18.448820574026144,237.633831819178 c -0.0,82.9231226292322 30.62857142857143,244.9576860754957 -90.93532606183753,205.0856860754957
c -78.41372302505266,-34.176 -88.96810663661653,0 -88.96810663661653,79.71431392450432
c 0,47.54174739024512 11.521441659694721,81.71774739024512 49.15182400575358,47.54174739024512
c 79.63428571428571,-34.176 49.005714285714284,119.616 130.75160869270047,237.2582526097549 c -0.0,98.76262530001196 30.62857142857143,272.36993938102546 -70.59735137555842,232.49793938102545
c -109.7354159576037,-34.176 -137.17115547216144,0 -137.17115547216144,52.302060618974565
c 0,87.1118760083815 35.47756163639501,121.2878760083815 74.11851154669577,87.1118760083815
c 79.63428571428571,-34.176 49.005714285714284,119.616 133.6499953010241,197.6881239916185 L 0 2848 " fill="none" stroke="black" stroke-width="0.1" style="vector-effect:non-scaling-stroke;"/></g><g><path d="M 0 0  L 3062.857143 0  c -0.0,44.29707217505121 30.62857142857143,284.1020954889808 -45.11992157668717,244.2300954889808
c -86.89080992678467,-34.176 -151.54636883748964,0 -151.54636883748964,40.56990451101922
c 0,56.94400210452096 60.64592323420422,91.12000210452096 70.04593181829898,56.94400210452096
c 79.63428571428571,-34.176 49.005714285714284,119.616 126.62035859587783,227.85599789547905 c -0.0,81.91746952804758 30.62857142857143,248.8682933129139 -109.22438086764375,208.99629331291388
c -17.90087578016396,-34.176 -66.60910583351948,0 -66.60910583351948,75.80370668708613
c 0,44.61310726770034 22.721549172615525,78.78910726770035 57.55753122193903,44.61310726770034
c 79.63428571428571,-34.176 49.005714285714284,119.616 118.2759554792242,240.18689273229967 c -0.0,110.03707015070844 30.62857142857143,263.05760988166196 -6.443940613851355,223.18560988166197
c -199.669313441874,-34.176 -201.71111598268007,0 -201.71111598268007,61.61439011833804
c 0,77.80283594491618 33.90406198477404,111.97883594491618 112.6507083021207,77.80283594491618
c 79.63428571428571,-34.176 49.005714285714284,119.616 95.50434829441073,206.99716405508383 c 0.0,82.54098453205786 -30.62857142857143,260.42647522981866 75.88234096895113,220.55447522981868
c 21.45098698749061,-34.176 94.49133111889884,0 94.49133111889884,64.24552477018133
c 0,57.281347945180755 -67.18856801689142,91.45734794518076 -167.9255852383623,57.281347945180755
c -79.63428571428571,-34.176 -49.005714285714284,119.616 -2.44808684948768,227.51865205481926 c 0.0,134.11045837083466 -30.62857142857143,260.40467833199216 58.136088355403636,220.53267833199217
c 123.6076398546289,-34.176 129.2350026539141,0 129.2350026539141,64.26732166800784
c 0,84.3973438700292 -101.58510565711455,118.5733438700292 -187.71839239889556,84.3973438700292
c -79.63428571428571,-34.176 -49.005714285714284,119.616 0.3473013895778081,200.4026561299708 L 0 2848 " fill="none" stroke="black" stroke-width="0.1" style="vector-effect:non-scaling-stroke;"/></g><g><path d="M 0 0  L 3675.428571 0  c -0.0,37.52298190954044 30.62857142857143,279.4453259946255 -127.53476840351038,239.5733259946255
c -16.221350413767794,-34.176 -35.313499524541754,0 -35.313499524541754,45.22667400537452
c 0,90.11205712544523 89.89637060938271,124.28805712544523 127.15061658168453,90.11205712544523
c 79.63428571428571,-34.176 49.005714285714284,119.616 35.69765134636761,194.68794287455478 c 0.0,138.41462150004227 -30.62857142857143,257.90800981541224 23.033133244937265,218.03600981541223
c 99.2545402853123,-34.176 184.86781775200407,0 184.86781775200407,66.76399018458778
c 0,56.25394324834457 -61.9661949881869,90.42994324834457 -200.82493942403414,56.25394324834457
c -79.63428571428571,-34.176 -49.005714285714284,119.616 -7.076011572907191,228.54605675165544 c -0.0,153.30548604785858 30.62857142857143,267.1405321419916 -59.507359576420676,227.2685321419916
c -144.72129943794323,-34.176 -146.37588008117427,0 -146.37588008117427,57.5314678580084
c 0,81.7681201613263 26.83277928714964,115.9441201613263 88.26905791592813,81.7681201613263
c 79.63428571428571,-34.176 49.005714285714284,119.616 117.61418174166681,203.03187983867372 c 0.0,86.39473693799899 -30.62857142857143,240.88382353512915 -2.529319938049024,201.01182353512914
c 50.96421109455407,-34.176 154.91805038353755,0 154.91805038353755,83.78817646487087
c 0,76.96556755224509 -86.7334736213532,111.14156755224509 -142.80115227538212,76.96556755224509
c -79.63428571428571,-34.176 -49.005714285714284,119.616 -9.587578170106411,207.83443244775492 c -0.0,91.36379566936893 30.62857142857143,250.21966373707986 -124.08953367628465,210.34766373707984
c -28.66705415498306,-34.176 -54.692382021623445,0 -54.692382021623445,74.45233626292017
c 0,65.71271594826118 51.26386951312223,99.88871594826118 116.99472471975304,65.71271594826118
c 79.63428571428571,-34.176 49.005714285714284,119.616 61.78719097815505,219.08728405173883 L 0 2848 " fill="none" stroke="black" stroke-width="0.1" style="vector-effect:non-scaling-stroke;"/></g></g><g><g><path d="M 0 0  L 0 569.600000  c 40.953846191607006,-0.0 282.09232994320143,28.480000000000004 239.2123299432014,-58.73855594444022
c -36.754285714285714,-19.16808769696715 0,-79.7406536911342 67.07338434251287,-79.7406536911342
c 81.12967391704257,0 117.88395963132828,30.641047682188645 81.12967391704257,31.234073463095314
c -36.754285714285714,74.048 128.64,45.568000000000005 225.1560403686717,107.2451361724791 c 90.83241260610191,0.0 258.70468716016364,-28.480000000000004 215.82468716016365,56.06243169256028
c -36.754285714285714,31.068154052498063 0,101.03588278841615 90.46102712555063,101.03588278841615
c 47.27376311967879,0 84.0280488339645,-51.780344642181696 47.27376311967879,-149.73874719738035
c -36.754285714285714,-74.048 128.64,-45.568000000000005 259.0119511660355,-7.359567283596078 c 83.675737571789,0.0 257.9131809986698,-28.480000000000004 215.03318099866982,35.920196552553065
c -36.754285714285714,98.56316211102758 0,114.07272862525754 91.25253328704446,114.07272862525754
c 49.1495103355353,0 85.90379604982101,-58.906478605305594 49.1495103355353,-142.47105503699186
c -36.754285714285714,-74.048 128.64,-45.568000000000005 257.136203950179,-7.5218701408187485 c 45.686780938349585,0.0 281.43096204218807,-28.480000000000004 238.55096204218805,104.0801655514158
c -36.754285714285714,47.37444229742108 0,61.01741608128654 67.73475224352623,61.01741608128654
c 84.11739451710281,0 120.87168023138852,-83.13030022940028 84.11739451710281,-171.90036288143185
c -36.754285714285714,-74.048 128.64,-45.568000000000005 222.16831976861147,6.802781248729502 c 80.82438666766399,-0.0 297.92186843284367,28.480000000000004 255.04186843284367,-46.82496308343407
c -36.754285714285714,-122.13454497188347 0,-125.13788092486003 51.24384585287061,-125.13788092486003
c 97.86855262295887,0 134.6228383372446,60.86261121004167 97.86855262295887,117.75549183339638
c -36.754285714285714,74.048 128.64,45.568000000000005 208.4171616627554,54.20735217489772 c 58.23866595384927,-0.0 285.7407241648246,28.480000000000004 242.8607241648246,-102.72452489887922
c -36.754285714285714,-20.696190036473684 0,-46.007758172582555 63.424990120889674,-46.007758172582555
c 84.97818867960382,0 121.73247439388953,35.15206095879733 84.97818867960382,56.36443181202959
c -36.754285714285714,74.048 128.64,45.568000000000005 221.30752560611046,92.36785125943219 c 159.4254980371874,-0.0 278.9267117792163,28.480000000000004 236.04671177921628,11.026616959572
c -36.754285714285714,-81.8324500626169 0,-183.97966296121774 70.239002506498,-183.97966296121774
c 43.91914284591854,0 80.67342856020426,89.12945696536599 43.91914284591854,127.73556910930532
c -36.754285714285714,74.048 128.64,45.568000000000005 262.36657143979573,45.217476892340414 L 4288 0 " fill="none" stroke="black" stroke-width="0.1" style="vector-effect:non-scaling-stroke;"/></g><g><path d="M 0 0  L 0 1139.200000  c 114.5151836919505,-0.0 253.10493884319382,28.480000000000004 210.22493884319383,-14.028563716880099
c -36.754285714285714,-113.17292282983898 0,-146.95073725773986 96.06077544252045,-146.95073725773986
c 89.3254973922161,0 126.07978310650182,124.21001085971058 89.3254973922161,143.49492648745607
c -36.754285714285714,74.048 128.64,45.568000000000005 216.96021689349817,17.484374487163876 c 162.15272892492035,-0.0 254.41637006515458,28.480000000000004 211.53637006515459,-60.874033230024715
c -36.754285714285714,-75.89572437762794 0,-89.71003889484558 94.74934422055969,-89.71003889484558
c 84.3023814857022,0 121.05666719998791,48.88628269487398 84.3023814857022,60.134070122542184
c -36.754285714285714,74.048 128.64,45.568000000000005 221.98333280001208,90.4500020023281 c 99.0982324746084,0.0 288.0271820814107,-28.480000000000004 245.14718208141068,14.59861140440295
c -36.754285714285714,80.62741248154803 0,152.07845903731936 61.1385322043036,152.07845903731936
c 68.61032746355363,0 105.36461317783935,-36.480447211100675 68.61032746355363,-78.20807321497558
c -36.754285714285714,-74.048 128.64,-45.568000000000005 237.67538682216065,-88.46899722674674 c 90.41150476635,-0.0 277.14884378686986,28.480000000000004 234.26884378686984,-66.21644876603831
c -36.754285714285714,-27.858022666390504 0,-96.97158281613285 72.01687049884444,-96.97158281613285
c 79.56452809136186,0 116.31881380564758,73.00003321498801 79.56452809136186,89.20734809924743
c -36.754285714285714,74.048 128.64,45.568000000000005 226.7211861943524,73.98068348292374 c 58.86148577366281,0.0 300.62183131498176,-28.480000000000004 257.74183131498177,114.34575919949835
c -36.754285714285714,20.761344361008664 0,51.390697024199156 48.54388297073251,51.390697024199156
c 54.695950145572056,0 91.45023585985777,-75.95393609432546 54.695950145572056,-152.25464285078786
c -36.754285714285714,-74.048 128.64,-45.568000000000005 251.58976414014222,-13.481813372909642 c 33.87069775453498,-0.0 262.67863483327216,28.480000000000004 219.79863483327213,-82.98064243840142
c -36.754285714285714,-27.34687662994936 0,-54.71333831629039 86.48707945244215,-54.71333831629039
c 82.23012596114461,0 118.98441167543032,60.987398876129674 82.23012596114461,61.11315563744628
c -36.754285714285714,74.048 128.64,45.568000000000005 224.05558832456967,76.58082511724552 c 128.8570095122563,0.0 268.4759667730083,-28.480000000000004 225.59596677300829,17.89145229163467
c -36.754285714285714,60.006045246961406 0,158.0875718711362 80.68974751270599,158.0875718711362
c 61.90982617504022,0 98.66411188932594,-75.81723865257848 61.90982617504022,-136.98632009571295
c -36.754285714285714,-74.048 128.64,-45.568000000000005 244.37588811067405,-38.9927040670579 L 4288 0 " fill="none" stroke="black" stroke-width="0.1" style="vector-effect:non-scaling-stroke;"/></g><g><path d="M 0 0  L 0 1708.800000  c 68.04124234007978,-0.0 258.443937138546,28.480000000000004 215.56393713854598,-79.95969669744052
c -36.754285714285714,-61.758713375211784 0,-61.65852129740132 90.7217771471683,-61.65852129740132
c 93.75981767287982,0 130.51410338716553,11.074613804844477 93.75981767287982,33.934434594870496
c -36.754285714285714,74.048 128.64,45.568000000000005 212.52589661283446,107.68378339997135 c 130.35926621017995,0.0 281.5375851726526,-28.480000000000004 238.65758517265257,79.64511397444272
c -36.754285714285714,71.58134595269763 0,105.14681845654789 67.6281291130617,105.14681845654789
c 51.893107640713424,0 88.64739335499914,-29.90479740504167 51.893107640713424,-65.99223026697975
c -36.754285714285714,-74.048 128.64,-45.568000000000005 254.39260664500085,-118.79970216401087 c 128.50741260516924,-0.0 279.78389186933566,28.480000000000004 236.90389186933564,7.718547638326015
c -36.754285714285714,-42.15482775255999 0,-194.14297592501225 69.38182241637864,-194.14297592501225
c 85.02282053059804,0 121.77710624488375,59.10797730482404 85.02282053059804,79.38621832297386
c -36.754285714285714,74.048 128.64,45.568000000000005 221.26289375511624,107.03820996371238 c 127.89112193484867,0.0 277.76844325601814,-28.480000000000004 234.88844325601815,52.72376159712486
c -36.754285714285714,81.00036403596306 0,125.77070998637204 71.39727102969613,125.77070998637204
c 49.314059633308034,0 86.06834534759375,-85.05622295468612 49.314059633308034,-115.99266031751597
c -36.754285714285714,-74.048 128.64,-45.568000000000005 256.97165465240624,-62.50181126598093 c 62.03592659986578,-0.0 264.64677701831897,28.480000000000004 221.76677701831895,-69.82016282149944
c -36.754285714285714,-79.47598974891115 0,-87.56787206740113 84.51893726739533,-87.56787206740113
c 91.93882600209162,0 128.69311171637733,153.04156378207713 91.93882600209162,157.89714336083227
c -36.754285714285714,74.048 128.64,45.568000000000005 214.34688828362266,-0.5091084719317109 c 157.8545089253215,0.0 298.1352249793329,-28.480000000000004 255.2552249793329,120.76633443024853
c -36.754285714285714,25.214372508697764 0,29.70102402699466 51.030489306381384,29.70102402699466
c 85.03868620073496,0 121.79297191502067,-149.84127951065955 85.03868620073496,-157.1137401931421
c -36.754285714285714,-74.048 128.64,-45.568000000000005 221.24702808497932,6.646381735898899 c 64.94556421655159,-0.0 277.58056103887094,28.480000000000004 234.70056103887092,-118.64539239607737
c -36.754285714285714,-11.14517523367204 0,-36.879240788169255 71.58515324684336,-36.879240788169255
c 94.77038984553087,0 131.5246755598166,40.7808177947182 94.77038984553087,117.43396614696718
c -36.754285714285714,74.048 128.64,45.568000000000005 211.5153244401834,38.090667037279445 L 4288 0 " fill="none" stroke="black" stroke-width="0.1" style="vector-effect:non-scaling-stroke;"/></g><g><path d="M 0 0  L 0 2278.400000  c 31.191954463881817,0.0 289.2638622608271,-28.480000000000004 246.38386226082713,68.67364945559963
c -36.754285714285714,69.1705035086559 0,87.15157513448885 59.90185202488715,87.15157513448885
c 88.54240225521829,0 125.296687969504,-33.42390159351818 88.54240225521829,-51.088209389266694
c -36.754285714285714,-74.048 128.64,-45.568000000000005 217.74331203049599,-104.73701520082179 c 165.28804997383799,0.0 260.12779933497944,-28.480000000000004 217.24779933497942,7.297454918761943
c -36.754285714285714,31.446315866389146 0,148.33443716988717 89.03791495073486,148.33443716988717
c 55.35539401400217,0 92.10967972828789,-17.886301391326114 55.35539401400217,-30.496742228385088
c -36.754285714285714,-74.048 128.64,-45.568000000000005 250.9303202717121,-125.13514986026404 c 85.21675069034251,0.0 258.06997361058365,-28.480000000000004 215.18997361058362,42.03250084644031
c -36.754285714285714,133.4297299423098 0,148.26881523068573 91.09574067513066,148.26881523068573
c 87.88585368010354,0 124.64013939438925,-34.76642997196538 87.88585368010354,-115.80155839896808
c -36.754285714285714,-74.048 128.64,-45.568000000000005 218.39986060561074,-74.49975767815796 c 111.98947735070713,-0.0 252.65753711202234,28.480000000000004 209.77753711202234,-8.3638996229055
c -36.754285714285714,-78.85669769834864 0,-143.05635113805488 96.50817717369193,-143.05635113805488
c 91.5900409693653,0 128.34432668365102,57.31847520393381 91.5900409693653,74.73071071220599
c -36.754285714285714,74.048 128.64,45.568000000000005 214.69567331634897,76.6895400487544 c 150.3630857064613,0.0 259.65317721595306,-28.480000000000004 216.77317721595304,14.359147143865393
c -36.754285714285714,65.7406340310665 0,124.76390467262809 89.51253706976124,124.76390467262809
c 66.66515272165526,0 103.41943843594098,-7.907054287128339 66.66515272165526,-34.151261492258755
c -36.754285714285714,-74.048 128.64,-45.568000000000005 239.62056156405902,-104.97179032423472 c 58.91698720207803,-0.0 261.9282010929516,28.480000000000004 219.0482010929516,-83.41909198330814
c -36.754285714285714,-26.986577845937955 0,-59.65811210488576 87.23751319276269,-59.65811210488576
c 52.02140191265329,0 88.775687626939,13.922707780805323 52.02140191265329,49.481223851607936
c -36.754285714285714,74.048 128.64,45.568000000000005 254.264312373061,93.59598023658596 c 34.0346207934536,0.0 268.2106254177648,-28.480000000000004 225.33062541776476,64.95812414891871
c -36.754285714285714,72.29660800536989 0,92.19581404903 80.95508886794951,92.19581404903
c 83.36595665115209,0 120.1202423654378,-20.32216227101295 83.36595665115209,-34.801150822794625
c -36.754285714285714,-74.048 128.64,-45.568000000000005 222.9197576345622,-122.3527873751541 L 4288 0 " fill="none" stroke="black" stroke-width="0.1" style="vector-effect:non-scaling-stroke;"/></g></g></svg>