<svg baseProfile="full" height="1667" preserveAspectRatio="none" shape-rendering="geometricPrecision" version="1.1" viewBox="0,0,2500,1667" width="2500" xmlns="http://www.w3.org/2000/svg" xmlns:ev="http://www.w3.org/2001/xml-events" xmlns:xlink="http://www.w3.org/1999/xlink"><title>Jigsaw puzzle piece clips</title><desc>Created with the piecemaker. Piece count: 35</desc><defs /><g><g><rect fill="white" height="1667" width="2500" x="0" y="0" /></g></g><g><g><path d="M 0 0  L 357.142857 0  c 0.0,70.07496116288846 -17.857142857142858,147.83962967803572 75.0946958772345,124.50162967803573&#10;c 27.07423569155704,-20.003999999999998 36.709866088924244,0 36.709866088924244,42.19837032196426&#10;c 0,52.392821961082774 -27.56493841310114,72.39682196108276 -79.78652522844001,52.392821961082774&#10;c -46.42857142857143,-20.003999999999998 -28.571428571428573,70.014 -32.01803673771873,114.30717803891721 c 0.0,44.87695345369824 -17.857142857142858,164.29527017812305 27.335084150212715,140.95727017812305&#10;c 50.89405638149348,-20.003999999999998 77.09910537739279,0 77.09910537739279,25.742729821876935&#10;c 0,38.3399052909009 -39.04299544177379,58.3439052909009 -97.52427356655187,38.3399052909009&#10;c -46.42857142857143,-20.003999999999998 -28.571428571428573,70.014 -6.909915961053628,128.3600947090991 c 0.0,36.978704100491676 -17.857142857142858,159.86115551202067 55.97654465442607,136.52315551202068&#10;c 15.104037146389905,-20.003999999999998 48.547044124629586,0 48.547044124629586,30.17684448797931&#10;c 0,37.38615308768473 -19.369098998826423,57.39015308768473 -55.215604706395666,37.38615308768473&#10;c -46.42857142857143,-20.003999999999998 -28.571428571428573,70.014 -49.30798407265999,129.31384691231526 c 0.0,68.61662156017593 -17.857142857142858,153.30209728472366 23.14332414691959,129.96409728472366&#10;c 69.2565235456987,-20.003999999999998 77.90876606865567,0 77.90876606865567,36.735902715276325&#10;c 0,28.82708032929699 -16.057470363627825,48.83108032929699 -64.29032642371139,28.82708032929699&#10;c -46.42857142857143,-20.003999999999998 -28.571428571428573,70.014 -36.76176379186386,137.872919670703 c -0.0,58.24645472138254 17.857142857142858,139.37334101588561 -29.133816613085877,116.0353410158856&#10;c -13.978727392811056,-20.003999999999998 -62.1224052703383,0 -62.1224052703383,50.66465898411438&#10;c 0,44.34060599292101 62.942744806471346,64.344605992921 66.96596597175912,44.34060599292101&#10;c 46.42857142857143,-20.003999999999998 28.571428571428573,70.014 24.290255911665056,122.35939400707898 L 0 1667 " fill="none" stroke="black" stroke-width="0.1" style="vector-effect:non-scaling-stroke;" /></g><g><path d="M 0 0  L 714.285714 0  c 0.0,37.12060504941919 -17.857142857142858,165.18369758303655 33.34193351238773,141.84569758303655&#10;c 64.09006317455434,-20.003999999999998 80.02616956687766,0 80.02616956687766,24.854302416963435&#10;c 0,27.41243313092164 -24.163544514142504,47.41643313092164 -39.1379778111704,27.41243313092164&#10;c -46.42857142857143,-20.003999999999998 -28.571428571428573,70.014 -74.23012526809498,139.28756686907835 c -0.0,66.37750530473689 17.857142857142858,139.1373474135369 -32.938522657789335,115.7993474135369&#10;c -26.6179251534883,-20.003999999999998 -87.91191976432161,0 -87.91191976432161,50.90065258646308&#10;c 0,27.025662487826537 42.68451444451336,47.029662487826535 54.19528499469807,27.025662487826537&#10;c 46.42857142857143,-20.003999999999998 28.571428571428573,70.014 66.65515742741287,139.67433751217345 c 0.0,25.61302214153643 -17.857142857142858,151.84452955217787 46.568239541156245,128.50652955217788&#10;c 26.635643036645245,-20.003999999999998 56.250560524375004,0 56.250560524375004,38.19347044782211&#10;c 0,39.71202879929885 -21.121375625146666,59.71602879929885 -37.49962635674132,39.71202879929885&#10;c -46.42857142857143,-20.003999999999998 -28.571428571428573,70.014 -65.31917370878993,126.98797120070114 c -0.0,41.60107242214727 17.857142857142858,162.29381687605337 1.8398891170592035,138.95581687605338&#10;c -64.43441074220958,-20.003999999999998 -93.53271629360066,0 -93.53271629360066,27.744183123946613&#10;c 0,25.599875520713596 72.95315837192018,45.60387552071359 75.17444285776682,25.599875520713596&#10;c 46.42857142857143,-20.003999999999998 28.571428571428573,70.014 16.518384318774636,141.1001244792864 c -0.0,65.11474737940445 17.857142857142858,139.55568451400413 -35.75643980452426,116.21768451400412&#10;c -58.11148236264607,-20.003999999999998 -80.24278542311949,0 -80.24278542311949,50.48231548599587&#10;c 0,32.50116572426728 33.21381503437335,52.50516572426728 68.20100470298479,32.50116572426728&#10;c 46.42857142857143,-20.003999999999998 28.571428571428573,70.014 47.79822052465896,134.1988342757327 L 0 1667 " fill="none" stroke="black" stroke-width="0.1" style="vector-effect:non-scaling-stroke;" /></g><g><path d="M 0 0  L 1071.428571 0  c -0.0,58.83347526468519 17.857142857142858,150.12133606748438 -2.336213156126991,126.78333606748437&#10;c -46.44752507726982,-20.003999999999998 -90.59049894981993,0 -90.59049894981993,39.91666393251562&#10;c 0,33.04427542389266 31.654119707450928,53.048275423892655 84.46816043725276,33.04427542389266&#10;c 46.42857142857143,-20.003999999999998 28.571428571428573,70.014 8.458551668694156,133.65572457610733 c 0.0,84.61873791446006 -17.857142857142858,139.8405704405962 42.00697047552158,116.50257044059619&#10;c 24.112393733853175,-20.003999999999998 69.86425856984806,0 69.86425856984806,50.1974295594038&#10;c 0,52.78638033395879 -64.55336541310382,72.79038033395878 -110.14868274603596,52.78638033395879&#10;c -46.42857142857143,-20.003999999999998 -28.571428571428573,70.014 -1.722546299333672,113.9136196660412 c -0.0,86.69328169508762 17.857142857142858,154.11131584587469 -71.34182625140416,130.7733158458747&#10;c -23.33328497030229,-20.003999999999998 -29.91231263308933,0 -29.91231263308933,35.9266841541253&#10;c 0,44.95171509303992 63.21562011141909,64.95571509303991 97.10407503834595,44.95171509303992&#10;c 46.42857142857143,-20.003999999999998 28.571428571428573,70.014 4.150063846147532,121.74828490696007 c 0.0,67.29288607446276 -17.857142857142858,158.0128730692891 10.985366089847881,134.6748730692891&#10;c 47.32475124747989,-20.003999999999998 78.58834382837777,0 78.58834382837777,32.02512693071088&#10;c 0,36.299967899201334 -47.46778872994218,56.30396789920133 -74.24121254791507,36.299967899201334&#10;c -46.42857142857143,-20.003999999999998 -28.571428571428573,70.014 -15.332497370310591,130.40003210079865 c 0.0,83.0838119291689 -17.857142857142858,162.16557343359898 -5.317482198007048,138.82757343359899&#10;c 51.489798727152014,-20.003999999999998 100.89785758288471,0 100.89785758288471,27.872426566401003&#10;c 0,41.52563714686417 -60.5593791729909,61.52963714686417 -67.18841484732565,41.52563714686417&#10;c -46.42857142857143,-20.003999999999998 -28.571428571428573,70.014 -28.391960537552023,125.17436285313582 L 0 1667 " fill="none" stroke="black" stroke-width="0.1" style="vector-effect:non-scaling-stroke;" /></g><g><path d="M 0 0  L 1428.571429 0  c -0.0,52.36558175665848 17.857142857142858,150.24000045464538 -37.10427365382143,126.90200045464537&#10;c -34.36151833160398,-20.003999999999998 -79.15159879383154,0 -79.15159879383154,39.797999545354614&#10;c 0,48.03810707800105 108.7175790165785,68.04210707800104 108.41634276115717,48.03810707800105&#10;c 46.42857142857143,-20.003999999999998 28.571428571428573,70.014 7.839529686495794,118.66189292199894 c 0.0,61.79980908044145 -17.857142857142858,152.48169707310797 34.730149330916205,129.14369707310797&#10;c 18.958768457400147,-20.003999999999998 59.29671539911685,0 59.29671539911685,37.556302926892016&#10;c 0,44.49187532536021 -33.31277625761696,64.4958753253602 -92.97728843292157,44.49187532536021&#10;c -46.42857142857143,-20.003999999999998 -28.571428571428573,70.014 -1.0495762971114857,122.20812467463978 c 0.0,34.05502234245236 -17.857142857142858,158.1873701497871 19.180396032091437,134.84937014978712&#10;c 42.19640829459519,-20.003999999999998 89.49114715622844,0 89.49114715622844,31.85062985021287&#10;c 0,37.87732879459193 -44.061556804805825,57.88132879459193 -94.58373206437632,37.87732879459193&#10;c -46.42857142857143,-20.003999999999998 -28.571428571428573,70.014 -14.087811123943553,128.82267120540806 c -0.0,47.61534918379958 17.857142857142858,157.01810393354413 -40.64436560620483,133.68010393354413&#10;c -23.535725185769294,-20.003999999999998 -73.50348137632119,0 -73.50348137632119,33.01989606645586&#10;c 0,28.563139950066386 36.182691135733016,48.567139950066384 119.15544527404248,28.563139950066386&#10;c 46.42857142857143,-20.003999999999998 28.571428571428573,70.014 -5.007598291516459,138.1368600499336 c -0.0,82.10081732650676 17.857142857142858,156.7718418538988 -59.74277026677113,133.4338418538988&#10;c -50.57177661456296,-20.003999999999998 -57.96930877868992,0 -57.96930877868992,33.26615814610119&#10;c 0,51.555483979534756 59.32105792836003,71.55948397953475 78.23135688735643,51.555483979534756&#10;c 46.42857142857143,-20.003999999999998 28.571428571428573,70.014 39.480722158104626,115.14451602046523 L 0 1667 " fill="none" stroke="black" stroke-width="0.1" style="vector-effect:non-scaling-stroke;" /></g><g><path d="M 0 0  L 1785.714286 0  c -0.0,37.89287625959545 17.857142857142858,152.9872932132645 2.134594631482747,129.6492932132645&#10;c -27.449471163201427,-20.003999999999998 -98.47253531420311,0 -98.47253531420311,37.050706786735475&#10;c 0,33.92761260747332 28.293165272326963,53.93161260747332 71.89260873715514,33.92761260747332&#10;c 46.42857142857143,-20.003999999999998 28.571428571428573,70.014 24.44533194556523,132.77238739252667 c 0.0,58.85335229160628 -17.857142857142858,155.27478982377755 5.9708574933527245,131.93678982377756&#10;c 59.68185438863385,-20.003999999999998 109.33276512259506,0 109.33276512259506,34.76321017622243&#10;c 0,40.74185663140821 -75.59873995464406,60.74585663140821 -103.6717500180451,40.74185663140821&#10;c -46.42857142857143,-20.003999999999998 -28.571428571428573,70.014 -11.631872597902685,125.95814336859178 c -0.0,24.16972031304186 17.857142857142858,140.02189055818232 -4.9920213057238705,116.68389055818231&#10;c -63.276254591862916,-20.003999999999998 -105.67407804285921,0 -105.67407804285921,50.016109441817676&#10;c 0,38.71791005269162 69.59064076447599,58.72191005269162 75.04037785989215,38.71791005269162&#10;c 46.42857142857143,-20.003999999999998 28.571428571428573,70.014 35.62572148869093,127.98208994730837 c -0.0,54.100773561761436 17.857142857142858,156.55593294727572 -14.590401851112228,133.21793294727573&#10;c -27.009345440428994,-20.003999999999998 -90.90890792888433,0 -90.90890792888433,33.48206705272426&#10;c 0,32.95817089762866 12.26563624247342,52.96217089762866 42.52867377138945,32.95817089762866&#10;c 46.42857142857143,-20.003999999999998 28.571428571428573,70.014 62.970636008607116,133.74182910237133 c -0.0,30.913957669949788 17.857142857142858,149.705073026841 -19.327836472312146,126.367073026841&#10;c -57.17283719659339,-20.003999999999998 -98.23730952917992,0 -98.23730952917992,40.33292697315899&#10;c 0,45.834776319598575 57.353572687663814,65.83877631959857 74.11949535550943,45.834776319598575&#10;c 46.42857142857143,-20.003999999999998 28.571428571428573,70.014 43.44565064598264,120.86522368040141 L 0 1667 " fill="none" stroke="black" stroke-width="0.1" style="vector-effect:non-scaling-stroke;" /></g><g><path d="M 0 0  L 2142.857143 0  c 0.0,43.964100325941224 -17.857142857142858,156.7205439429886 61.72987014197759,133.3825439429886&#10;c 17.600250689173432,-20.003999999999998 55.7097535547664,0 55.7097535547664,33.317456057011384&#10;c 0,27.744470043369688 -67.24302797396184,47.748470043369686 -78.54978191221159,27.744470043369688&#10;c -46.42857142857143,-20.003999999999998 -28.571428571428573,70.014 -38.88984178453241,138.9555299566303 c -0.0,60.20129899101286 17.857142857142858,138.4792448977773 7.0061225488932894,115.14124489777731&#10;c -23.13063108937356,-20.003999999999998 -101.39518773169083,0 -101.39518773169083,51.558755102222676&#10;c 0,27.032969116658478 34.84571674427747,47.036969116658476 62.089136460216615,27.032969116658478&#10;c 46.42857142857143,-20.003999999999998 28.571428571428573,70.014 32.29992872258092,139.6670308833415 c -0.0,30.746557903694857 17.857142857142858,139.2950859463574 -28.231725397350687,115.95708594635741&#10;c -69.03922809322562,-20.003999999999998 -69.3894344874391,0 -69.3894344874391,50.74291405364258&#10;c 0,53.310742485885214 24.798518394045384,73.3147424858852 72.13284813800065,53.310742485885214&#10;c 46.42857142857143,-20.003999999999998 28.571428571428573,70.014 25.488311746789137,113.38925751411477 c 0.0,51.40261383959038 -17.857142857142858,136.7049619621014 69.64312794086845,113.36696196210141&#10;c 22.24881490271463,-20.003999999999998 22.427398971225287,0 22.427398971225287,53.333038037898575&#10;c 0,42.04894844277143 -24.310221274333667,62.05294844277143 -64.72480036892728,42.04894844277143&#10;c -46.42857142857143,-20.003999999999998 -28.571428571428573,70.014 -27.345726543166464,124.65105155722856 c -0.0,23.493170782642544 17.857142857142858,155.00256248714402 -4.16227211201109,131.66456248714402&#10;c -63.722650795310194,-20.003999999999998 -88.01281992813685,0 -88.01281992813685,35.035437512855964&#10;c 0,46.52758052525812 22.80997482565124,66.53158052525811 70.01320083329045,46.52758052525812&#10;c 46.42857142857143,-20.003999999999998 28.571428571428573,70.014 22.16189120685749,120.17241947474187 L 0 1667 " fill="none" stroke="black" stroke-width="0.1" style="vector-effect:non-scaling-stroke;" /></g></g><g><g><path d="M 0 0  L 0 333.400000  c 59.25544695650068,0.0 159.24137149085098,-16.669999999999998 134.24137149085098,30.69798025278885&#10;c -21.42857142857143,37.376550250337004 0,71.67302148148313 44.3300570805776,71.67302148148313&#10;c 39.22751475941189,0 60.65608618798332,-90.95677497147958 39.22751475941189,-102.79864545222904&#10;c -21.42857142857143,-43.342 75.0,-26.671999999999997 139.3439138120167,0.4276437179570536 c 49.315682220623295,-0.0 167.05490924006014,16.669999999999998 142.05490924006014,-64.41017336088251&#10;c -21.42857142857143,-31.476480109912902 0,-36.96319429206346 36.51651933136844,-36.96319429206346&#10;c 46.771747574170234,0 68.20031900274167,40.80743407104529 46.771747574170234,72.26714684010781&#10;c -21.42857142857143,43.342 75.0,26.671999999999997 131.79968099725835,29.10622081283816 c 28.72189011385282,-0.0 154.88827983472027,16.669999999999998 129.88827983472027,-5.091201979097291&#10;c -21.42857142857143,-60.08102924869172 0,-82.67501915095029 48.68314873670832,-82.67501915095029&#10;c 34.98543198700176,0 56.41400341557319,25.403759494442667 34.98543198700176,61.31221255605348&#10;c -21.42857142857143,43.342 75.0,26.671999999999997 143.58599658442682,26.454008573994102 c 22.144447877093093,-0.0 168.74826158239586,16.669999999999998 143.74826158239586,-15.328057942453958&#10;c -21.42857142857143,-78.28333300497988 0,-85.44960224447814 34.82316698903273,-85.44960224447814&#10;c 46.89092576797839,0 68.31949719654982,80.46522759807074 46.89092576797839,88.93576961739531&#10;c -21.42857142857143,43.342 75.0,26.671999999999997 131.6805028034502,11.841890569536787 c 59.09306994907269,-0.0 169.28983094539498,16.669999999999998 144.28983094539498,-13.34356553447832&#10;c -21.42857142857143,-40.694330093042765 0,-69.39299892512024 34.2815976260336,-69.39299892512024&#10;c 38.153729028064845,0 59.582300456636275,26.128231946459362 38.153729028064845,56.46381163944995&#10;c -21.42857142857143,43.342 75.0,26.671999999999997 140.41769954336374,26.272752820148604 c 85.10888910263816,0.0 157.33444859994867,-16.669999999999998 132.33444859994867,17.993023235642013&#10;c -21.42857142857143,67.4667390486311 0,66.8691306864543 46.23697997147991,66.8691306864543&#10;c 55.36020588364397,0 76.7887773122154,-78.8149361399043 55.36020588364397,-87.28439683571678&#10;c -21.42857142857143,-43.342 75.0,-26.671999999999997 123.21122268778461,2.4222429136204653 c 92.53430184323935,-0.0 157.91803035501363,16.669999999999998 132.91803035501363,-6.033642482694258&#10;c -21.42857142857143,-61.048231577342996 0,-96.77636521408853 45.653398216414956,-96.77636521408853&#10;c 48.6321180054359,0 70.06068943400733,18.099770732369798 48.6321180054359,42.29351494604423&#10;c -21.42857142857143,43.342 75.0,26.671999999999997 129.93931056599268,60.51649275073856 L 2500 0 " fill="none" stroke="black" stroke-width="0.1" style="vector-effect:non-scaling-stroke;" /></g><g><path d="M 0 0  L 0 666.800000  c 25.11749741396835,0.0 151.69917221429012,-16.669999999999998 126.6991722142901,41.35101496325395&#10;c -21.42857142857143,15.016564433775867 0,49.620989960608775 51.87225635713848,49.620989960608775&#10;c 54.91234904930286,0 76.34092047787429,-27.29619850797428 54.91234904930286,-86.68835882314619&#10;c -21.42857142857143,-43.342 75.0,-26.671999999999997 123.65907952212572,-4.283646100716538 c 34.15272752283208,-0.0 163.74465267916776,16.669999999999998 138.74465267916776,-19.25219223553784&#10;c -21.42857142857143,-57.612913986687495 0,-70.5122922849084 39.82677589226083,-70.5122922849084&#10;c 32.56181777208889,0 53.99038920066032,24.86415823125981 32.56181777208889,31.333193503233417&#10;c -21.42857142857143,43.342 75.0,26.671999999999997 146.0096107993397,58.43129101721283 c 44.86484109770282,-0.0 176.93022977205254,16.669999999999998 151.93022977205254,-40.28457214709122&#10;c -21.42857142857143,-39.780264238842854 0,-61.54479411216837 26.641198799376042,-61.54479411216837&#10;c 42.45589900555902,0 63.88447043413045,32.85990804272292 42.45589900555902,77.74607666460005&#10;c -21.42857142857143,43.342 75.0,26.671999999999997 136.11552956586956,24.083289594659533 c 94.50053891585746,0.0 158.40417520655714,-16.669999999999998 133.40417520655714,68.8968261886415&#10;c -21.42857142857143,20.50931769993198 0,27.889692959265474 45.16725336487144,27.889692959265474&#10;c 50.56754216643006,0 71.99611359500149,-41.22527267561213 50.56754216643006,-69.70022343543322&#10;c -21.42857142857143,-43.342 75.0,-26.671999999999997 128.00388640499852,-27.086295712473756 c 34.53551898766622,0.0 173.93481623009134,-16.669999999999998 148.93481623009134,16.081604353482508&#10;c -21.42857142857143,19.8178329448826 0,86.78244655257548 29.63661234133724,86.78244655257548&#10;c 29.02016551540524,0 50.44873694397667,-7.669114383159472 29.02016551540524,-32.70966277679845&#10;c -21.42857142857143,-43.342 75.0,-26.671999999999997 149.55126305602334,-70.15438812925953 c 68.836079733583,0.0 170.13843622660997,-16.669999999999998 145.13843622660997,22.2003884821483&#10;c -21.42857142857143,26.774414740396974 0,77.91225048612063 33.432992344818615,77.91225048612063&#10;c 44.991892582968205,0 66.42046401153964,-72.95408205128493 44.991892582968205,-94.08491698148953&#10;c -21.42857142857143,-43.342 75.0,-26.671999999999997 133.57953598846038,-6.027721986779397 c 42.53385222073882,-0.0 157.90244425561025,16.669999999999998 132.90244425561025,-66.81220145330714&#10;c -21.42857142857143,-12.427562829410219 0,-32.0649681543743 45.668984315818335,-32.0649681543743&#10;c 29.41396511410153,0 50.84253654267296,33.60440274270771 29.41396511410153,59.33484381939629&#10;c -21.42857142857143,43.342 75.0,26.671999999999997 149.15746345732705,39.54232578828515 L 2500 0 " fill="none" stroke="black" stroke-width="0.1" style="vector-effect:non-scaling-stroke;" /></g><g><path d="M 0 0  L 0 1000.200000  c 35.155841425338195,0.0 158.7332098740078,-16.669999999999998 133.7332098740078,32.64556191120312&#10;c -21.42857142857143,53.416437389880834 0,75.01759891912943 44.838218697420785,75.01759891912943&#10;c 56.011127707187626,0 77.43969913575906,-29.429521314729815 56.011127707187626,-65.0220654417351&#10;c -21.42857142857143,-43.342 75.0,-26.671999999999997 122.56030086424096,-42.64109538859745 c 21.860898475783564,0.0 170.09323710781462,-16.669999999999998 145.09323710781462,23.1533370013315&#10;c -21.42857142857143,78.10593046634106 0,86.88155227526778 33.47819146361397,86.88155227526778&#10;c 36.70446160321191,0 58.13303303178334,-28.380035737794 36.70446160321191,-95.9633155615779&#10;c -21.42857142857143,-43.342 75.0,-26.671999999999997 141.86696696821667,-14.071573715021373 c 32.81360134416136,0.0 173.0651683078578,-16.669999999999998 148.0651683078578,55.22306700063293&#10;c -21.42857142857143,31.84511439657451 0,45.92817247484597 30.506260263570795,45.92817247484597&#10;c 28.877203828438695,0 50.305775257010126,-36.79569096453666 28.877203828438695,-37.44589285664597&#10;c -21.42857142857143,-43.342 75.0,-26.671999999999997 149.6942247429899,-63.705346618832934 c 17.964340571264085,0.0 173.69955812412817,-16.669999999999998 148.69955812412817,6.7382482594931306&#10;c -21.42857142857143,61.94582346937361 0,105.18844795964759 29.87187044730041,105.18844795964759&#10;c 54.79034812314558,0 76.21891955171701,-40.64786629206018 54.79034812314558,-73.81458644504802&#10;c -21.42857142857143,-43.342 75.0,-26.671999999999997 123.781080448283,-38.1121097740927 c 72.84512920512091,0.0 173.50443994789498,-16.669999999999998 148.50443994789498,44.54723485912462&#10;c -21.42857142857143,47.28389205352857 0,50.99123367040239 30.066988623533604,50.99123367040239&#10;c 54.403233772956014,0 75.83180520152744,-19.250430510247824 54.403233772956014,-55.31105654202441&#10;c -21.42857142857143,-43.342 75.0,-26.671999999999997 124.16819479847257,-40.2274119875026 c 96.13958904727228,-0.0 157.7580673937309,16.669999999999998 132.7580673937309,-58.51974963728884&#10;c -21.42857142857143,-18.08088959460629 0,-28.928500121265856 45.813361177697686,-28.928500121265856&#10;c 40.7254777966792,0 62.15404922525063,15.748188860553286 40.7254777966792,31.027148878260313&#10;c -21.42857142857143,43.342 75.0,26.671999999999997 137.84595077474938,56.42110088029438 c 103.07899875077595,0.0 151.1216718288448,-16.669999999999998 126.12167182884478,-2.2218115665183644&#10;c -21.42857142857143,77.82775930624695 0,101.61454502891881 52.4497567425838,101.61454502891881&#10;c 32.314620441364866,0 53.7431918699363,-40.5794083291745 32.314620441364866,-103.80020216152866&#10;c -21.42857142857143,-43.342 75.0,-26.671999999999997 146.25680813006372,4.407468699128216 L 2500 0 " fill="none" stroke="black" stroke-width="0.1" style="vector-effect:non-scaling-stroke;" /></g><g><path d="M 0 0  L 0 1333.600000  c 101.38383538119979,0.0 157.07922994371776,-16.669999999999998 132.07922994371776,-2.0215952076603596&#10;c -21.42857142857143,97.0892081330126 0,99.88826723643287 46.49219862771082,99.88826723643287&#10;c 28.345954790712142,0 49.77452621928357,-15.833922883151642 28.345954790712142,-62.63832190030115&#10;c -21.42857142857143,-43.342 75.0,-26.671999999999997 150.22547378071644,-35.22835012847136 c 50.07113865876836,0.0 161.76249461292585,-16.669999999999998 136.76249461292585,63.190363722057654&#10;c -21.42857142857143,15.390486369569956 0,49.00424823774418 41.808933958502735,49.00424823774418&#10;c 28.207296874762278,0 49.63586830333371,-46.438354117332096 28.207296874762278,-99.52893332642788&#10;c -21.42857142857143,-43.342 75.0,-26.671999999999997 150.3641316966663,-12.665678633373957 c 25.72554956717224,0.0 167.46863294848023,-16.669999999999998 142.46863294848023,10.91046377428088&#10;c -21.42857142857143,102.86230823410361 0,102.43929045448233 36.10279562294835,102.43929045448233&#10;c 54.74559686846979,0 76.17416829704122,-61.24404178573774 54.74559686846979,-74.82820463834943&#10;c -21.42857142857143,-43.342 75.0,-26.671999999999997 123.8258317029588,-38.521549590413784 c 83.43500232786772,-0.0 169.27987710834716,16.669999999999998 144.27987710834716,-22.00035227525113&#10;c -21.42857142857143,-23.590211491764133 0,-73.11175044504091 34.29155146308142,-73.11175044504091&#10;c 26.1279859265847,0 47.55655735515613,67.61740744548707 26.1279859265847,77.11837731866119&#10;c -21.42857142857143,43.342 75.0,26.671999999999997 152.44344264484388,17.993725401630854 c 90.01536000938977,-0.0 166.37440318384256,16.669999999999998 141.37440318384256,-10.542691612624427&#10;c -21.42857142857143,-64.81615609603153 0,-85.61179349628385 37.197025387586024,-85.61179349628385&#10;c 49.77878578925555,0 71.20735721782698,36.61009602697948 49.77878578925555,78.84923650472312&#10;c -21.42857142857143,43.342 75.0,26.671999999999997 128.79264278217303,17.305248604185152 c 91.17149907342578,0.0 163.1354966255773,-16.669999999999998 138.1354966255773,68.92488754908737&#10;c -21.42857142857143,29.55705270069398 0,34.16180700147311 40.43593194585128,34.16180700147311&#10;c 51.833770729142714,0 73.26234215771414,-61.2851417963133 51.833770729142714,-89.52972632174632&#10;c -21.42857142857143,-43.342 75.0,-26.671999999999997 126.73765784228587,-13.556968228814156 c 79.03790156068351,0.0 153.32737886373886,-16.669999999999998 128.32737886373886,47.112136846251715&#10;c -21.42857142857143,31.98775762729068 0,54.00466004079607 50.244049707689726,54.00466004079607&#10;c 27.6000894196834,0 49.02866084825483,-26.58151967614995 27.6000894196834,-60.23615557289775&#10;c -21.42857142857143,-43.342 75.0,-26.671999999999997 150.97133915174518,-40.88064131415003 L 2500 0 " fill="none" stroke="black" stroke-width="0.1" style="vector-effect:non-scaling-stroke;" /></g></g></svg>