<svg baseProfile="full" height="3333" preserveAspectRatio="none" shape-rendering="geometricPrecision" version="1.1" viewBox="0,0,5000,3333" width="5000" xmlns="http://www.w3.org/2000/svg" xmlns:ev="http://www.w3.org/2001/xml-events" xmlns:xlink="http://www.w3.org/1999/xlink"><title>Jigsaw puzzle piece clips</title><desc>Created with the piecemaker. Piece count: 35</desc><defs/><g><g><rect fill="white" height="3333" width="5000" x="0" y="0"/></g></g><g><g><path d="M 0 0  L 714.285714 0  c 0.0,181.36192148243586 -35.714285714285715,295.8776544189 56.95637617987094,249.21565441890002
c 59.04435205435503,-39.996 150.16556669225213,0 150.16556669225213,84.0843455811
c 0,77.1605627551196 -49.85074946733419,117.15656275511961 -87.54565732004103,77.1605627551196
c -92.85714285714286,-39.996 -57.142857142857146,139.986 -119.57628555208204,256.1394372448804 c -0.0,41.43426767374234 35.714285714285715,331.4068824717765 -63.75244785912201,284.7448824717765
c -59.16754543959923,-39.996 -160.32259162335458,0 -160.32259162335458,48.55511752822349
c 0,63.55907630779791 74.54079322032537,103.55507630779792 159.2934525731455,63.55907630779791
c 92.85714285714286,-39.996 57.142857142857146,139.986 64.78158690933111,269.7409236922021 c -0.0,130.80907666322616 35.714285714285715,310.41296518158447 -145.05924973994306,263.75096518158443
c -30.304332667427104,-39.996 -52.65684986351903,0 -52.65684986351903,69.54903481841558
c 0,46.73684804804094 61.5366613445485,86.73284804804095 103.22491286598645,46.73684804804094
c 92.85714285714286,-39.996 57.142857142857146,139.986 94.49118673747563,286.56315195195907 c 0.0,47.01753243349708 -35.714285714285715,275.06234774997574 27.354323123116092,228.40034774997574
c 69.65639146285957,-39.996 146.64318896418874,0 146.64318896418874,104.89965225002427
c 0,55.37817068554301 -64.23040382867302,95.37417068554302 -125.6882317524228,55.37817068554301
c -92.85714285714286,-39.996 -57.142857142857146,139.986 -48.30928033488205,277.921829314457 c 0.0,121.19656980746389 -35.714285714285715,284.6564863193407 45.08566253327428,237.99448631934067
c 101.60805593974739,-39.996 171.62778648805872,0 171.62778648805872,95.30551368065935
c 0,77.32450628929485 -134.36484222284315,117.32050628929485 -141.700483537752,77.32450628929485
c -92.85714285714286,-39.996 -57.142857142857146,139.986 -75.01296548358098,255.97549371070517 L 0 3333 " fill="none" stroke="black" stroke-width="0.1" style="vector-effect:non-scaling-stroke;"/></g><g><path d="M 0 0  L 1428.571429 0  c 0.0,162.36914127671986 -35.714285714285715,284.5672207739284 90.96370886695799,237.90522077392842
c 30.311469616687816,-39.996 80.64095463390227,0 80.64095463390227,95.39477922607159
c 0,75.5816095369878 -99.68293200539392,115.57760953698781 -111.51110394236693,75.5816095369878
c -92.85714285714286,-39.996 -57.142857142857146,139.986 -60.093559558493325,257.7183904630122 c 0.0,134.33885693654904 -35.714285714285715,303.6798541512412 10.361493893950092,257.0178541512412
c 147.2066746099808,-39.996 215.28969196585834,0 215.28969196585834,76.28214584875883
c 0,52.13612616851202 -96.50878849352246,92.13212616851203 -155.8264355645439,52.13612616851202
c -92.85714285714286,-39.996 -57.142857142857146,139.986 -69.82475029526452,281.163873831488 c 0.0,75.58694033395875 -35.714285714285715,295.25723634226097 63.1037896167745,248.59523634226093
c 61.172204098369406,-39.996 123.74131818891226,0 123.74131818891226,84.70476365773908
c 0,72.60497607153826 -21.291955768886424,112.60097607153827 -79.95413120412772,72.60497607153826
c -92.85714285714286,-39.996 -57.142857142857146,139.986 -106.89097660155903,260.69502392846175 c -0.0,186.71124394640043 35.714285714285715,315.93253885655406 -46.77752090669349,269.2705388565541
c -124.62839895315625,-39.996 -137.41593638206913,0 -137.41593638206913,64.02946114344593
c 0,54.781325720267546 17.282652415114228,94.77732572026756 48.37581097117106,54.781325720267546
c 92.85714285714286,-39.996 57.142857142857146,139.986 135.81764631759157,278.51867427973247 c -0.0,57.09889541096086 35.714285714285715,280.8601712618038 -27.89064193205754,234.19817126180382
c -170.23846830962282,-39.996 -175.03754143502152,0 -175.03754143502152,99.10182873819619
c 0,56.94621770479 39.84811355464677,96.94221770479001 64.00343631495127,56.94621770479
c 92.85714285714286,-39.996 57.142857142857146,139.986 138.9247470521278,276.35378229521 L 0 3333 " fill="none" stroke="black" stroke-width="0.1" style="vector-effect:non-scaling-stroke;"/></g><g><path d="M 0 0  L 2142.857143 0  c 0.0,77.68090014990197 -35.714285714285715,280.3704958172875 56.601273946975866,233.70849581728754
c 49.55873411870932,-39.996 154.5072302571267,0 154.5072302571267,99.59150418271247
c 0,54.401559511132234 -73.73270405698145,94.39755951113224 -124.2279984274888,54.401559511132234
c -92.85714285714286,-39.996 -57.142857142857146,139.986 -86.88050577661379,278.8984404888678 c 0.0,131.7757567721529 -35.714285714285715,284.0833870262815 93.44823265644787,237.4213870262815
c 30.4978057093122,-39.996 122.10047690124357,0 122.10047690124357,95.8786129737185
c 0,82.30910706270834 -142.86781534015643,122.30510706270834 -221.7712139836978,82.30910706270834
c -92.85714285714286,-39.996 -57.142857142857146,139.986 6.222504426006367,250.99089293729168 c 0.0,125.96232691114358 -35.714285714285715,300.714767556101 123.76287290572589,254.05276755610097
c 46.99516844949847,-39.996 63.36599963192248,0 63.36599963192248,79.24723244389904
c 0,71.0146181914904 -38.09123579931649,111.01061819149041 -68.14433546770377,71.0146181914904
c -92.85714285714286,-39.996 -57.142857142857146,139.986 -118.9845370699446,262.2853818085096 c -0.0,128.2360582268772 35.714285714285715,322.34031840624266 -46.90790355639772,275.6783184062427
c -92.39346216625154,-39.996 -194.26860662943136,0 -194.26860662943136,57.62168159375733
c 0,48.64105559599557 47.75737122675731,88.63705559599558 124.28242193618613,48.64105559599557
c 92.85714285714286,-39.996 57.142857142857146,139.986 116.89408824964295,284.65894440400444 c 0.0,155.24929610663014 -35.714285714285715,310.4770838064817 114.44584066421535,263.8150838064817
c 101.01850500963624,-39.996 107.11833530004074,0 107.11833530004074,69.4849161935183
c 0,55.66904152079849 -41.565568246565284,95.6650415207985 -194.63784343144442,55.66904152079849
c -92.85714285714286,-39.996 -57.142857142857146,139.986 -26.92633253281167,277.6309584792015 L 0 3333 " fill="none" stroke="black" stroke-width="0.1" style="vector-effect:non-scaling-stroke;"/></g><g><path d="M 0 0  L 2857.142857 0  c 0.0,186.8644542803192 -35.714285714285715,276.7001417501267 124.38632175435183,230.03814175012673
c 60.62262078270259,-39.996 103.84616263645776,0 103.84616263645776,103.26185824987328
c 0,57.45486231018674 -71.23792230097006,97.45086231018675 -159.4293483495303,57.45486231018674
c -92.85714285714286,-39.996 -57.142857142857146,139.986 -68.80313604127929,275.84513768981327 c 0.0,190.89986808982377 -35.714285714285715,281.18105148364697 150.59125653221017,234.51905148364696
c 53.50280424910015,-39.996 84.28830617656797,0 84.28830617656797,98.78094851635305
c 0,106.28433890854552 -70.13313769993603,146.28033890854553 -161.97089629216217,106.28433890854552
c -92.85714285714286,-39.996 -57.142857142857146,139.986 -72.90866641661597,227.0156610914545 c 0.0,177.79411383331134 -35.714285714285715,301.0549777697404 95.82116337248648,254.3929777697404
c 27.079077480812966,-39.996 128.11556512876734,0 128.11556512876734,78.9070222302596
c 0,94.9085624891598 -89.75456667198617,134.90456248915982 -90.60802269734387,94.9085624891598
c -92.85714285714286,-39.996 -57.142857142857146,139.986 -133.32870580390994,238.3914375108402 c 0.0,111.43102184025253 -35.714285714285715,286.12379431945214 -9.068841337316027,239.4617943194521
c 148.05027362872156,-39.996 183.37614945329847,0 183.37614945329847,93.8382056805479
c 0,93.11391491278027 -61.01134738633399,133.10991491278028 -157.05850454078686,93.11391491278027
c -92.85714285714286,-39.996 -57.142857142857146,139.986 -17.24880357519558,240.18608508721974 c 0.0,136.1888814272368 -35.714285714285715,312.16659203150334 149.03839835423307,265.50459203150336
c 21.56720125382922,-39.996 76.6646863303269,0 76.6646863303269,67.79540796849665
c 0,88.61293893772472 -106.96565024088926,128.60893893772473 -116.13888991900413,88.61293893772472
c -92.85714285714286,-39.996 -57.142857142857146,139.986 -109.56419476555584,244.6870610622753 L 0 3333 " fill="none" stroke="black" stroke-width="0.1" style="vector-effect:non-scaling-stroke;"/></g><g><path d="M 0 0  L 3571.428571 0  c 0.0,177.66544504391973 -35.714285714285715,319.9108836426449 100.04517533259012,273.2488836426449
c 90.92662493078174,-39.996 90.66048699579143,0 90.66048699579143,60.05111635735511
c 0,47.520580035616945 -95.20216328989119,87.51658003561695 -174.06864899388424,47.520580035616945
c -92.85714285714286,-39.996 -57.142857142857146,139.986 -16.63701333449731,285.77941996438307 c -0.0,116.24265546360854 35.714285714285715,307.5859765609856 -143.6158392798786,260.9239765609856
c -49.27402336707993,-39.996 -97.30129395274622,0 -97.30129395274622,72.37602343901443
c 0,100.23060076047705 53.998071295745355,140.22660076047706 116.96893442414736,100.23060076047705
c 92.85714285714286,-39.996 57.142857142857146,139.986 123.94819880847746,233.06939923952297 c 0.0,145.7455022313518 -35.714285714285715,312.23387028358377 -3.3402177080683613,265.5718702835838
c 74.60917894815951,-39.996 231.94639748994743,0 231.94639748994743,67.72812971641622
c 0,97.44324434595734 -117.73739140037333,137.43924434595735 -178.95164361099955,97.44324434595734
c -92.85714285714286,-39.996 -57.142857142857146,139.986 -49.65453617087951,235.85675565404267 c -0.0,186.41214119443933 35.714285714285715,313.00291175815903 -79.68382729139476,266.34091175815905
c -118.99075824040091,-39.996 -122.8139022564332,0 -122.8139022564332,66.95908824184096
c 0,91.68677751650716 156.9514405094886,131.68277751650717 174.53216767491514,91.68677751650716
c 92.85714285714286,-39.996 57.142857142857146,139.986 27.965561872912815,241.61322248349285 c 0.0,94.2819352583512 -35.714285714285715,278.46425288788726 117.71473839690529,231.80225288788725
c 55.153870560785755,-39.996 60.663395262305386,0 60.663395262305386,101.49774711211276
c 0,62.54505639110391 -38.19150454028558,102.54105639110392 -51.278408801192015,62.54505639110391
c -92.85714285714286,-39.996 -57.142857142857146,139.986 -127.09972485801866,270.7549436088961 L 0 3333 " fill="none" stroke="black" stroke-width="0.1" style="vector-effect:non-scaling-stroke;"/></g><g><path d="M 0 0  L 4285.714286 0  c -0.0,33.54536201123673 35.714285714285715,275.65609844958004 -100.02735649133146,228.99409844958004
c -63.34193584454403,-39.996 -72.2035360712454,0 -72.2035360712454,104.30590155041997
c 0,94.10374798925938 46.251330254237864,134.09974798925938 113.17839658525705,94.10374798925938
c 92.85714285714286,-39.996 57.142857142857146,139.986 59.05249597731981,239.19625201074064 c -0.0,68.75464191324006 35.714285714285715,293.2803121484773 -94.44928039575224,246.61831214847732
c -60.59327073116983,-39.996 -80.17680957418158,0 -80.17680957418158,86.6816878515227
c 0,55.97555085437642 58.570416066539046,95.97155085437643 145.88095142625934,55.97555085437642
c 92.85714285714286,-39.996 57.142857142857146,139.986 28.74513854367447,277.3244491456236 c -0.0,83.60867958216548 35.714285714285715,280.0191357266099 -121.78252557314805,233.35713572660987
c -92.46946191826524,-39.996 -107.36199197748367,0 -107.36199197748367,99.94286427339014
c 0,101.59188853606008 72.22558034737487,141.5878885360601 108.63765142665368,101.59188853606008
c 92.85714285714286,-39.996 57.142857142857146,139.986 120.50686612397804,231.70811146393993 c 0.0,78.69678643322494 -35.714285714285715,306.15634554064025 85.67338399556073,259.49434554064027
c 91.18098257621085,-39.996 144.61070636212904,0 144.61070636212904,73.80565445935974
c 0,91.77531352378418 -62.72627000937402,131.7713135237842 -83.53200608800154,91.77531352378418
c -92.85714285714286,-39.996 -57.142857142857146,139.986 -146.75208426968823,241.52468647621583 c -0.0,151.50104356725328 35.714285714285715,326.222709132682 12.44546456209762,279.560709132682
c -113.32465105814666,-39.996 -186.24455917978509,0 -186.24455917978509,53.739290867318005
c 0,47.932040324884554 86.02869941960991,87.92804032488456 149.79307368857263,47.932040324884554
c 92.85714285714286,-39.996 57.142857142857146,139.986 24.00602092911484,285.36795967511546 L 0 3333 " fill="none" stroke="black" stroke-width="0.1" style="vector-effect:non-scaling-stroke;"/></g></g><g><g><path d="M 0 0  L 0 666.600000  c 74.79569281659992,-0.0 313.2701113171534,33.330000000000005 263.2701113171534,-142.07880809834472
c -42.85714285714286,-31.13597598783978 0,-38.90028338807406 93.87274582570376,-38.90028338807406
c 91.50832375899842,0 134.36546661614128,89.01778440115278 91.50832375899842,88.52341698658628
c -42.85714285714286,86.658 150.0,53.328 265.63453338385875,92.4556744998325 c 198.74615444278757,0.0 347.79976418255785,-33.330000000000005 297.79976418255785,28.594605544415884
c -42.85714285714286,78.32050940874029 0,187.71748715736922 59.343092960299316,187.71748715736922
c 66.58667452300529,0 109.44381738014815,-195.27020679898322 66.58667452300529,-196.58940537175656
c -42.85714285714286,-86.658 150.0,-53.328 290.5561826198519,-19.72268733002855 c 193.10493213413184,-0.0 324.4989108746482,33.330000000000005 274.4989108746482,-110.81531576836719
c -42.85714285714286,-20.5983907136566 0,-71.9693845090967 82.64394626820899,-71.9693845090967
c 68.61844597680295,0 111.4755888339458,44.68454556149864 68.61844597680295,140.03442177067322
c -42.85714285714286,86.658 150.0,53.328 288.5244111660542,42.750278506790664 c 36.009693409335675,-0.0 319.1461677326711,33.330000000000005 269.1461677326711,-91.00079098410613
c -42.85714285714286,-36.11053085167369 0,-91.25754833301279 87.9966894101861,-91.25754833301279
c 90.34186273527564,0 133.1990055924185,18.57748592266332 90.34186273527564,44.16545526982671
c -42.85714285714286,86.658 150.0,53.328 266.8009944075815,138.09288404729222 c 158.9559479952377,0.0 342.39607708729943,-33.330000000000005 292.39607708729943,11.950283316076618
c -42.85714285714286,57.65067384289657 0,162.829352421492 64.74678005555774,162.829352421492
c 84.09714047516616,0 126.95428333230902,-16.919487961516445 84.09714047516616,-77.46208142585918
c -42.85714285714286,-86.658 150.0,-53.328 273.045716667691,-97.31755431170943 c 80.54426095579191,-0.0 312.2180787856033,33.330000000000005 262.2180787856033,-39.812070244392764
c -42.85714285714286,-168.12274911129222 0,-181.49205392550616 94.92477835725384,-181.49205392550616
c 93.57925085269409,0 136.43639370983695,102.67454543134721 93.57925085269409,109.14071195595216
c -42.85714285714286,86.658 150.0,53.328 263.5636062901631,112.16341221394677 c 205.71902621156707,0.0 298.69883200941575,-33.330000000000005 248.69883200941572,35.119232723939085
c -42.85714285714286,137.32337318295578 0,182.00392258836646 108.44402513344144,182.00392258836646
c 97.66808776750861,0 140.52523062465147,-116.85953520617662 97.66808776750861,-210.1854246444707
c -42.85714285714286,-86.658 150.0,-53.328 259.47476937534856,-6.93773066783487 L 5000 0 " fill="none" stroke="black" stroke-width="0.1" style="vector-effect:non-scaling-stroke;"/></g><g><path d="M 0 0  L 0 1333.200000  c 104.65065099413705,-0.0 310.3393771447162,33.330000000000005 260.3393771447162,-52.67503526847337
c -42.85714285714286,-110.91744331538216 0,-111.33548670157626 96.80347999814097,-111.33548670157626
c 80.95458542805545,0 123.81172828519831,44.41595007471027 80.95458542805545,49.78962919003149
c -42.85714285714286,86.658 150.0,53.328 276.1882717148017,114.22089278001815 c 191.0338690774856,0.0 357.07696015683945,-33.330000000000005 307.07696015683945,89.23398346668938
c -42.85714285714286,94.94660418022065 0,129.01856364838733 50.06589698601772,129.01856364838733
c 87.18339258284539,0 130.04053543998825,-105.95896895370775 87.18339258284539,-187.41878549754367
c -42.85714285714286,-86.658 150.0,-53.328 269.9594645600118,-30.833761617533042 c 93.90398516490126,-0.0 345.60696909597175,33.330000000000005 295.60696909597175,-17.021280824439913
c -42.85714285714286,-121.22295499062743 0,-180.88574584985744 61.53588804688542,-180.88574584985744
c 91.60301039175471,0 134.46015324889757,60.662012874931456 91.60301039175471,104.2166384088511
c -42.85714285714286,86.658 150.0,53.328 265.53984675110246,93.69038826544626 c 87.75799132060213,-0.0 299.2579833792343,33.330000000000005 249.25798337923428,-143.3775520553398
c -42.85714285714286,-28.095986400208144 0,-45.978122242827794 107.88487376362289,-45.978122242827794
c 88.73451384608654,0 131.5916567032294,56.50652277523563 88.73451384608654,108.88423076982511
c -42.85714285714286,86.658 150.0,53.328 268.4083432967706,80.47144352834249 c 190.00448572475872,0.0 354.2116620443916,-33.330000000000005 304.2116620443916,103.48217807226702
c -42.85714285714286,37.7746937619232 0,62.68601996161071 52.931195098465594,62.68601996161071
c 107.51492372013433,0 150.3720665772772,-108.19343130232602 107.51492372013433,-138.55490792145582
c -42.85714285714286,-86.658 150.0,-53.328 249.62793342272283,-27.613290112421907 c 143.1202686197097,0.0 297.23362175239856,-33.330000000000005 247.23362175239853,54.357238348002156
c -42.85714285714286,88.26958521538698 0,144.08880121227998 109.90923539045863,144.08880121227998
c 80.08374436580209,0 122.94088722294495,-178.30286404129578 80.08374436580209,-201.12643934808645
c -42.85714285714286,-86.658 150.0,-53.328 277.0591127770551,2.680399787804305 c 188.64286912232933,-0.0 314.0191496956448,33.330000000000005 264.0191496956448,-131.4078435840656
c -42.85714285714286,-36.693504502842046 0,-47.65577088960413 93.12370744721238,-47.65577088960413
c 88.46200363566817,0 131.31914649281103,32.86507021898605 88.46200363566817,91.7697967756942
c -42.85714285714286,86.658 150.0,53.328 268.680853507189,87.29381769797553 L 5000 0 " fill="none" stroke="black" stroke-width="0.1" style="vector-effect:non-scaling-stroke;"/></g><g><path d="M 0 0  L 0 1999.800000  c 141.82697018684766,-0.0 300.2916863856848,33.330000000000005 250.29168638568476,-22.721533858954764
c -42.85714285714286,-52.25066412506907 0,-165.12959640579274 106.85117075717241,-165.12959640579274
c 89.84509963830561,0 132.70224249544847,132.63360006209075 89.84509963830561,185.6852078708811
c -42.85714285714286,86.658 150.0,53.328 267.29775750455156,2.1659223938663956 c 93.34144081963305,-0.0 337.21387047692514,33.330000000000005 287.21387047692514,-70.20534528096832
c -42.85714285714286,-85.65094633178737 0,-100.00424740071074 69.92898666593203,-100.00424740071074
c 110.06887489840426,0 152.92601775554712,66.89465725695294 110.06887489840426,75.50317936338779
c -42.85714285714286,86.658 150.0,53.328 247.0739822444529,94.70641331829127 c 120.05186198866528,-0.0 346.49892894810915,33.330000000000005 296.49892894810915,-115.03225926224582
c -42.85714285714286,-14.450459536065173 0,-52.998923752719264 60.643928194748014,-52.998923752719264
c 67.60773098016523,0 110.46487383730809,79.8989936025682 67.60773098016523,173.05759160361958
c -42.85714285714286,86.658 150.0,53.328 289.53512616269194,-5.026408588654505 c 66.13557241668458,-0.0 325.0941392445073,33.330000000000005 275.0941392445073,-66.7468589709443
c -42.85714285714286,-123.48397262813957 0,-153.37065841294634 82.04871789834988,-153.37065841294634
c 109.66018242935121,0 152.51732528649407,119.92421079065483 109.66018242935121,134.83076323573908
c -42.85714285714286,86.658 150.0,53.328 247.48267471350596,85.28675414815154 c 45.069418884738,-0.0 295.9019757706161,33.330000000000005 245.90197577061608,-141.4749448342131
c -42.85714285714286,-50.79742006979836 0,-61.48272347194947 111.24088137224109,-61.48272347194947
c 112.54957450027274,0 155.4067173574156,58.23121532540078 112.54957450027274,75.85708954142382
c -42.85714285714286,86.658 150.0,53.328 244.59328264258443,127.10057876473874 c 42.93529975113162,0.0 293.30247188258073,-33.330000000000005 243.30247188258073,27.463990012879055
c -42.85714285714286,113.23159270356143 0,191.7362850496055 113.84038526027643,191.7362850496055
c 99.19588786925226,0 142.05303072639512,-60.6272556764286 99.19588786925226,-130.86599131554476
c -42.85714285714286,-86.658 150.0,-53.328 257.9469692736049,-88.3342837469398 c 183.57564642770046,-0.0 314.08539787367596,33.330000000000005 264.08539787367596,-58.38361719248494
c -42.85714285714286,-106.8251209127369 0,-150.10069569852595 93.05745926918121,-150.10069569852595
c 79.67954871010994,0 122.5366915672528,48.70136258494078 79.67954871010994,70.74637528246089
c -42.85714285714286,86.658 150.0,53.328 277.4633084327472,137.73793760855 L 5000 0 " fill="none" stroke="black" stroke-width="0.1" style="vector-effect:non-scaling-stroke;"/></g><g><path d="M 0 0  L 0 2666.400000  c 155.65592574927908,0.0 336.92147663762756,-33.330000000000005 286.92147663762756,2.1959058259417974
c -42.85714285714286,71.46538086419457 0,195.71042261438942 70.2213805052296,195.71042261438942
c 71.5881379430005,0 114.44528080014337,-58.802037822651336 71.5881379430005,-194.96759478225394
c -42.85714285714286,-86.658 150.0,-53.328 285.55471919985666,-2.9387336580772683 c 134.44819715577972,0.0 306.9616928056052,-33.330000000000005 256.9616928056052,26.009338709712228
c -42.85714285714286,104.89985328056329 0,150.19646232725177 100.18116433725197,150.19646232725177
c 87.20346498387568,0 130.06060784101854,-84.47932498701898 87.20346498387568,-98.09925209629404
c -42.85714285714286,-86.658 150.0,-53.328 269.9393921589815,-78.10654894066997 c 175.57230559522262,-0.0 338.58148005960874,33.330000000000005 288.58148005960874,-60.17138679600246
c -42.85714285714286,-98.92759893175447 0,-151.27202008524966 68.56137708324843,-151.27202008524966
c 105.36469675932233,0 148.2218396164652,126.70224122796425 105.36469675932233,202.87046692414924
c -42.85714285714286,86.658 150.0,53.328 251.77816038353484,8.572939957102875 c 119.7470618241946,-0.0 294.9545586627196,33.330000000000005 244.95455866271956,-33.69006863438564
c -42.85714285714286,-110.93846946612219 0,-128.50574806595188 112.1882984801376,-128.50574806595188
c 83.705639670307,0 126.56278252744985,6.517732969889031 83.705639670307,30.95565633905335
c -42.85714285714286,86.658 150.0,53.328 273.4372174725502,131.24016036128415 c 123.58262398101212,0.0 320.21075506755,-33.330000000000005 270.21075506755,5.784524088431954
c -42.85714285714286,158.77441958252987 0,165.39131757159015 86.93210207530717,165.39131757159015
c 107.45374000535548,0 150.31088286249835,-96.71073971133806 107.45374000535548,-158.94370766478667
c -42.85714285714286,-86.658 150.0,-53.328 249.68911713750168,-12.232133995235444 c 51.50256209807203,0.0 322.4236926584196,-33.330000000000005 272.4236926584196,51.755816197754655
c -42.85714285714286,120.8361472115517 0,120.34122583391076 84.71916448443756,120.34122583391076
c 108.07689367770911,0 150.93403653485197,-54.976796327314 108.07689367770911,-76.90135194051571
c -42.85714285714286,-86.658 150.0,-53.328 249.06596346514806,-95.1956900911497 c 73.50679696173312,-0.0 350.2443582981322,33.330000000000005 300.2443582981322,-136.51617276894282
c -42.85714285714286,-10.215684896567778 0,-48.630477868004675 56.89849884472494,-48.630477868004675
c 65.40722738073993,0 108.26437023788279,105.24763729101839 65.40722738073993,133.24964791407513
c -42.85714285714286,86.658 150.0,53.328 291.73562976211724,51.89700272287237 L 5000 0 " fill="none" stroke="black" stroke-width="0.1" style="vector-effect:non-scaling-stroke;"/></g></g></svg>