<svg baseProfile="full" height="2806" preserveAspectRatio="none" shape-rendering="geometricPrecision" version="1.1" viewBox="0,0,4106,2806" width="4106" xmlns="http://www.w3.org/2000/svg" xmlns:ev="http://www.w3.org/2001/xml-events" xmlns:xlink="http://www.w3.org/1999/xlink"><title>Jigsaw puzzle piece clips</title><desc>Created with the piecemaker. Piece count: 24</desc><defs /><g><g><rect fill="white" height="2806" width="4106" x="0" y="0" /></g></g><g><g><path d="M 0 0  L 684.333333 0  c -0.0,180.57765464204581 34.21666666666667,305.9391125461708 -68.5306867809955,256.8341125461708&#10;c -90.94070941815063,-42.089999999999996 -112.7817179438992,0 -112.7817179438992,93.91588745382921&#10;c 0,59.807466126961174 61.956538075013235,101.89746612696118 74.90636757510495,59.807466126961174&#10;c 88.96333333333334,-42.089999999999996 54.74666666666667,147.315 106.40603714978974,290.9425338730388 c -0.0,139.59248351317052 34.21666666666667,321.3417953275062 -91.60108451035059,272.2367953275062&#10;c -117.35870748379581,-42.089999999999996 -129.7856095811818,0 -129.7856095811818,78.51320467249383&#10;c 0,71.79642603496137 110.03065664529518,113.88642603496137 138.47750061799678,71.79642603496137&#10;c 88.96333333333334,-42.089999999999996 54.74666666666667,147.315 82.9091934735356,278.95357396503863 c -0.0,35.90184825735309 34.21666666666667,300.90815794772254 -53.766573318403175,251.80315794772255&#10;c -52.17633069478566,-42.089999999999996 -160.09960574078423,0 -160.09960574078423,98.94684205227745&#10;c 0,88.18151499645205 48.05199170024022,130.27151499645205 68.85476010603986,88.18151499645205&#10;c 88.96333333333334,-42.089999999999996 54.74666666666667,147.315 145.01141895314754,262.56848500354795 c 0.0,110.35769237189102 -34.21666666666667,307.5785772376021 10.33782109336342,258.47357723760206&#10;c 53.99407171353333,-42.089999999999996 163.33607691824815,0 163.33607691824815,92.27642276239794&#10;c 0,51.104288881465095 -43.96892359574992,93.1942888814651 -132.0720029686729,51.104288881465095&#10;c -88.96333333333334,-42.089999999999996 -54.74666666666667,147.315 -41.60189504293868,299.6457111185349 L 0 2806 " fill="none" stroke="black" stroke-width="0.1" style="vector-effect:non-scaling-stroke;" /></g><g><path d="M 0 0  L 1368.666667 0  c 0.0,152.8520658787561 -34.21666666666667,299.0844274767345 17.07520844686726,249.9794274767345&#10;c 62.13027082456407,-42.089999999999996 153.22899352729755,0 153.22899352729755,100.77057252326551&#10;c 0,111.53496728097235 -33.55738816170877,153.62496728097236 -94.4277981955729,111.53496728097235&#10;c -88.96333333333334,-42.089999999999996 -54.74666666666667,147.315 -75.87640377859191,239.21503271902765 c 0.0,123.30309300993163 -34.21666666666667,293.9841502794037 137.2859078248664,244.87915027940372&#10;c 30.57134188796562,-42.089999999999996 32.67854350649961,0 32.67854350649961,105.87084972059628&#10;c 0,49.950576759346234 -33.10841089702805,92.04057675934624 -90.22542316582359,49.950576759346234&#10;c -88.96333333333334,-42.089999999999996 -54.74666666666667,147.315 -79.73902816554242,300.79942324065377 c -0.0,131.15756628498178 34.21666666666667,325.47247509957583 -81.02817717689241,276.3674750995758&#10;c -118.10393273591536,-42.089999999999996 -145.12944887242764,0 -145.12944887242764,74.38252490042419&#10;c 0,80.71157508049873 44.27086969232253,122.80157508049874 181.30623556184486,80.71157508049873&#10;c 88.96333333333334,-42.089999999999996 54.74666666666667,147.315 44.851390487475214,270.03842491950127 c -0.0,55.23056916437648 34.21666666666667,337.4506065996913 -4.135262453013289,288.3456065996913&#10;c -130.4980913452006,-42.089999999999996 -225.07575626175435,0 -225.07575626175435,62.40439340030872&#10;c 0,50.789693004386095 45.6478375174587,92.8796930043861 106.12237768800591,50.789693004386095&#10;c 88.96333333333334,-42.089999999999996 54.74666666666667,147.315 123.08864102676174,299.9603069956139 L 0 2806 " fill="none" stroke="black" stroke-width="0.1" style="vector-effect:non-scaling-stroke;" /></g><g><path d="M 0 0  L 2053.000000 0  c 0.0,126.97891782925232 -34.21666666666667,295.4925551709307 117.72304501070698,246.38755517093068&#10;c 108.60400157802724,-42.089999999999996 113.37756874966482,0 113.37756874966482,104.36244482906932&#10;c 0,72.37124725265562 -64.10687807924101,114.46124725265562 -218.00388599117244,72.37124725265562&#10;c -88.96333333333334,-42.089999999999996 -54.74666666666667,147.315 -13.096727769199362,278.3787527473444 c 0.0,178.05795204519382 -34.21666666666667,295.0655945366914 -2.4562595130001625,245.9605945366914&#10;c 81.02378524855308,-42.089999999999996 179.57765621250073,0 179.57765621250073,104.78940546330861&#10;c 0,89.81845163220947 -127.71166610926757,131.90845163220948 -160.56069260556552,89.81845163220947&#10;c -88.96333333333334,-42.089999999999996 -54.74666666666667,147.315 -16.560704093935044,260.9315483677905 c -0.0,135.42235514527354 34.21666666666667,315.14224703561445 -109.38868858318295,266.0372470356144&#10;c -79.60926386989367,-42.089999999999996 -94.28873437995534,0 -94.28873437995534,84.71275296438557&#10;c 0,87.96702149188258 53.23090965757246,130.05702149188258 122.29474249848786,87.96702149188258&#10;c 88.96333333333334,-42.089999999999996 54.74666666666667,147.315 81.38268046465043,262.7829785081174 c -0.0,148.08089255551397 34.21666666666667,293.85970656133236 -109.45232755997354,244.75470656133237&#10;c -74.5834735571367,-42.089999999999996 -81.92613185829065,0 -81.92613185829065,105.99529343866763&#10;c 0,104.3679751545709 103.9864339226395,146.4579751545709 151.93678461881223,104.3679751545709&#10;c 88.96333333333334,-42.089999999999996 54.74666666666667,147.315 39.44167479945196,246.3820248454291 L 0 2806 " fill="none" stroke="black" stroke-width="0.1" style="vector-effect:non-scaling-stroke;" /></g><g><path d="M 0 0  L 2737.333333 0  c 0.0,150.181077412268 -34.21666666666667,314.8870119895049 86.2967741530698,265.7820119895049&#10;c 30.90160507576425,-42.089999999999996 94.15271977590805,0 94.15271977590805,84.9679880104951&#10;c 0,102.89147628869938 -109.75039239014123,144.98147628869938 -161.29606156800781,102.89147628869938&#10;c -88.96333333333334,-42.089999999999996 -54.74666666666667,147.315 -19.153432360970044,247.85852371130062 c 0.0,98.26269785749108 -34.21666666666667,308.62331440222624 22.095891141004994,259.5183144022262&#10;c 118.60909858546924,-42.089999999999996 151.09185031969128,0 151.09185031969128,91.23168559777378&#10;c 0,82.62733591372643 -165.6039386976884,124.71733591372643 -167.96304924741398,82.62733591372643&#10;c -88.96333333333334,-42.089999999999996 -54.74666666666667,147.315 -5.224692213282282,268.1226640862736 c 0.0,72.10866105793986 -34.21666666666667,313.68025539858075 41.45544847438823,264.57525539858074&#10;c 53.415113601365576,-42.089999999999996 170.12762119547781,0 170.12762119547781,86.17474460141926&#10;c 0,108.52300566474258 -65.42197459405439,150.6130056647426 -66.24477157117363,108.52300566474258&#10;c -88.96333333333334,-42.089999999999996 -54.74666666666667,147.315 -145.3382980986924,242.22699433525742 c 0.0,73.50876676039954 -34.21666666666667,327.2539899150336 76.44874348000926,278.1489899150336&#10;c 113.1921561960225,-42.089999999999996 146.53508048641487,0 146.53508048641487,72.60101008496639&#10;c 0,66.92303021477699 -117.83055671383129,109.01303021477699 -132.6348902203277,66.92303021477699&#10;c -88.96333333333334,-42.089999999999996 -54.74666666666667,147.315 -90.34893374609644,283.826969785223 L 0 2806 " fill="none" stroke="black" stroke-width="0.1" style="vector-effect:non-scaling-stroke;" /></g><g><path d="M 0 0  L 3421.666667 0  c -0.0,198.6947826627022 34.21666666666667,297.114138597014 2.3729689391861326,248.009138597014&#10;c -123.21435556256237,-42.089999999999996 -176.62303399054065,0 -176.62303399054065,102.74086140298601&#10;c 0,99.05571961823534 71.5906821368961,141.14571961823535 121.09047389189752,99.05571961823534&#10;c 88.96333333333334,-42.089999999999996 54.74666666666667,147.315 53.159591159456994,251.69428038176466 c 0.0,77.01307808814754 -34.21666666666667,297.7283376646223 111.83582859132231,248.62333766462228&#10;c 28.10211751948506,-42.089999999999996 77.45191980343758,0 77.45191980343758,102.12666233537772&#10;c 0,49.825728243497736 -56.13795456209734,91.91572824349774 -84.87055582579099,49.825728243497736&#10;c -88.96333333333334,-42.089999999999996 -54.74666666666667,147.315 -104.4171925689689,300.92427175650226 c -0.0,176.62176023549662 34.21666666666667,300.2762165386017 -80.37747773574645,251.1712165386017&#10;c -104.66223957230865,-42.089999999999996 -110.33628802035639,0 -110.33628802035639,99.5787834613983&#10;c 0,67.72682057012128 29.570288963216388,109.81682057012128 53.872255986686184,67.72682057012128&#10;c 88.96333333333334,-42.089999999999996 54.74666666666667,147.315 136.84150976941666,283.0231794298787 c -0.0,101.68733829929914 34.21666666666667,327.25244048547546 5.656632887125113,278.14744048547544&#10;c -232.13133667937066,-42.089999999999996 -231.12801937079465,0 -231.12801937079465,72.60255951452456&#10;c 0,65.82250331891771 41.65975659626484,107.91250331891771 111.19382383420083,65.82250331891771&#10;c 88.96333333333334,-42.089999999999996 54.74666666666667,147.315 114.2775626494687,284.9274966810823 L 0 2806 " fill="none" stroke="black" stroke-width="0.1" style="vector-effect:non-scaling-stroke;" /></g></g><g><g><path d="M 0 0  L 0 701.500000  c 75.9314574198905,0.0 298.92550086947784,-35.075 251.02216753614448,118.30434296746172&#10;c -41.06,100.3947229118531 0,107.59349117666626 91.1444991305222,107.59349117666626&#10;c 103.8042158582507,0 144.8642158582507,-61.267943218925005 103.8042158582507,-208.87360308441373&#10;c -41.06,-91.19500000000001 143.71,-56.120000000000005 238.36245080841599,-17.024231059714253 c 73.59720618961978,0.0 313.1570040851983,-35.075 265.25367075186495,99.86890313821712&#10;c -41.06,58.45019622588292 0,80.09105461793345 76.91299591480174,80.09105461793345&#10;c 105.80158694327685,0 146.86158694327685,-34.587142414132174 105.80158694327685,-92.39552111162035&#10;c -41.06,-91.19500000000001 143.71,-56.120000000000005 236.36507972338984,-87.56443664453022 c 114.55483860729764,0.0 321.33655433509006,-35.075 273.4332210017567,107.17340044376131&#10;c -41.06,58.37259228350448 0,74.62693428971848 68.73344566491,74.62693428971848&#10;c 63.29142352413635,0 104.35142352413635,-54.586485477181675 63.29142352413635,-194.58543702399172&#10;c -41.06,-91.19500000000001 143.71,-56.120000000000005 278.87524314253034,12.78510229051193 c 88.27726202410216,-0.0 292.23083382145757,35.075 244.3275004881242,-68.16477448163702&#10;c -41.06,-46.36995975284045 0,-157.4178429968273 97.83916617854248,-157.4178429968273&#10;c 71.97068666617781,0 113.03068666617781,88.42727195909491 71.97068666617781,166.44067820568574&#10;c -41.06,91.19500000000001 143.71,56.120000000000005 270.1959800004889,59.141939272778586 c 125.33920249711193,-0.0 327.540927813388,35.075 279.63759448005464,-108.63737767063496&#10;c -41.06,-83.78224231767138 0,-123.0526480574154 62.52907218661204,-123.0526480574154&#10;c 51.42451130825111,0 92.48451130825111,52.14536529897566 51.42451130825111,221.05002966764573&#10;c -41.06,91.19500000000001 143.71,56.120000000000005 290.7421553584156,10.639996060404627 c 195.5069973751704,-0.0 336.7237931301814,35.075 288.820459796848,-151.23006494828113&#10;c -41.06,-71.75053925100578 0,-73.90071702834643 53.34620686981867,-73.90071702834643&#10;c 62.651609705280066,0 103.71160970528007,174.25213949286186 62.651609705280066,187.98925172366125&#10;c -41.06,91.19500000000001 143.71,56.120000000000005 279.5150569613866,37.141530252966305 L 4106 0 " fill="none" stroke="black" stroke-width="0.1" style="vector-effect:non-scaling-stroke;" /></g><g><path d="M 0 0  L 0 1403.000000  c 71.23769219778619,0.0 309.7567653432134,-35.075 261.85343200988,72.40535023344853&#10;c -41.06,128.02344845505837 0,147.42799988129602 80.31323465678668,147.42799988129602&#10;c 71.04179554985228,0 112.10179554985228,-81.59060074543315 71.04179554985228,-158.2932944475236&#10;c -41.06,-91.19500000000001 143.71,-56.120000000000005 271.1248711168144,-61.54005566722094 c 102.19335850470962,0.0 304.46797972682,-35.075 256.5646463934866,6.146441460658814&#10;c -41.06,127.85031022366026 0,214.381308622271 85.60202027318007,214.381308622271&#10;c 50.58193513043119,0 91.6419351304312,-54.30034065291393 50.58193513043119,-108.75496842953541&#10;c -41.06,-91.19500000000001 143.71,-56.120000000000005 291.5847315362355,-111.77278165339442 c 185.77898492132596,0.0 301.89419033778114,-35.075 253.9908570044478,4.707446567402295&#10;c -41.06,99.64032679014596 0,219.3210910986487 88.17580966221888,219.3210910986487&#10;c 105.4163005121091,0 146.4763005121091,-122.09436391139383 105.4163005121091,-136.40782606879134&#10;c -41.06,-91.19500000000001 143.71,-56.120000000000005 236.75036615455758,-87.62071159725966 c 188.77065469999957,0.0 319.1069265686664,-35.075 271.203593235333,20.287870105342346&#10;c -41.06,157.7150862589717 0,169.72442869171036 70.96307343133367,169.72442869171036&#10;c 67.20764825283459,0 108.26764825283459,-41.40018149804521 67.20764825283459,-59.298580626298474&#10;c -41.06,-91.19500000000001 143.71,-56.120000000000005 274.9590184138321,-130.71371817075422 c 156.29480970782757,0.0 330.310809760219,-35.075 282.40747642688564,84.23243921219452&#10;c -41.06,69.9233347971345 0,97.04163276991505 59.75919023978105,97.04163276991505&#10;c 67.82531840011865,0 108.88531840011865,-14.951980338297123 67.82531840011865,-40.07144076059339&#10;c -41.06,-91.19500000000001 143.71,-56.120000000000005 274.34134826654804,-141.20263122151619 c 160.45081513357354,-0.0 330.13961799733517,35.075 282.2362846640018,-76.8634461130902&#10;c -41.06,-126.48200554579874 0,-159.78345170043087 59.930382002664885,-159.78345170043087&#10;c 48.92491805641873,0 89.98491805641873,100.52873905679498 48.92491805641873,142.954012114636&#10;c -41.06,91.19500000000001 143.71,56.120000000000005 293.24174861024795,93.6928856988851 L 4106 0 " fill="none" stroke="black" stroke-width="0.1" style="vector-effect:non-scaling-stroke;" /></g><g><path d="M 0 0  L 0 2104.500000  c 171.76747653329204,-0.0 298.6262866438698,35.075 250.72295331053644,-119.97465374489173&#10;c -41.06,-92.70127257677709 0,-99.98308414773547 91.44371335613025,-99.98308414773547&#10;c 54.461816457655914,0 95.52181645765592,38.64540599996141 54.461816457655914,173.82765518637754&#10;c -41.06,91.19500000000001 143.71,56.120000000000005 287.7048502090108,46.13008270624965 c 88.1712695593428,-0.0 319.86724225900633,35.075 271.96390892567297,-60.038973465166094&#10;c -41.06,-76.91907687372067 0,-113.9415728542036 70.20275774099372,-113.9415728542036&#10;c 90.22135963609549,0 131.2813596360955,51.01484868056202 90.22135963609549,58.557333046631115&#10;c -41.06,91.19500000000001 143.71,56.120000000000005 251.9453070305712,115.42321327273858 c 173.8543241854241,0.0 304.8262965522024,-35.075 256.92296321886903,104.97378834406474&#10;c -41.06,24.08614797222306 0,86.23175229151774 85.24370344779766,86.23175229151774&#10;c 59.78899133992053,0 100.84899133992053,-108.63956320905469 59.78899133992053,-135.25552942279066&#10;c -41.06,-91.19500000000001 143.71,-56.120000000000005 282.37767532674616,-55.95001121279182 c 52.10551051180444,-0.0 298.884093481862,35.075 250.98076014852867,-79.38370766453103&#10;c -41.06,-45.78813035996918 0,-143.6886499610497 91.18590651813801,-143.6886499610497&#10;c 88.71315560874632,0 129.77315560874632,178.12059017507823 88.71315560874632,195.65194860308384&#10;c -41.06,91.19500000000001 143.71,56.120000000000005 253.45351105792037,27.42040902249687 c 48.01895413137175,0.0 320.1833632546256,-35.075 272.2800299212922,58.501543488128235&#10;c -41.06,102.8849394316895 0,168.4546286886561 69.88663674537446,168.4546286886561&#10;c 100.86406302608958,0 141.92406302608958,-84.73419947781515 100.86406302608958,-183.7755838027462&#10;c -41.06,-91.19500000000001 143.71,-56.120000000000005 241.3026036405771,-43.18058837403811 c 54.636984653360734,0.0 285.48368226882343,-35.075 237.5803489354901,136.22257589717&#10;c -41.06,22.740329257616747 0,36.942189042562035 104.58631773117659,36.942189042562035&#10;c 99.73038724512662,0 140.79038724512662,-102.57124497335262 99.73038724512662,-162.40115734266502&#10;c -41.06,-91.19500000000001 143.71,-56.120000000000005 242.43627942154006,-10.763607597067022 L 4106 0 " fill="none" stroke="black" stroke-width="0.1" style="vector-effect:non-scaling-stroke;" /></g></g></svg>