<svg baseProfile="full" height="2769" preserveAspectRatio="none" shape-rendering="geometricPrecision" version="1.1" viewBox="0,0,4209,2769" width="4209" xmlns="http://www.w3.org/2000/svg" xmlns:ev="http://www.w3.org/2001/xml-events" xmlns:xlink="http://www.w3.org/1999/xlink"><title>Jigsaw puzzle piece clips</title><desc>Created with the piecemaker. Piece count: 20</desc><defs/><g><g><rect fill="white" height="2769" width="4209" x="0" y="0"/></g></g><g><g><path d="M 0 0  L 841.800000 0  c 0.0,187.22385469691363 -42.09,289.43207639241234 151.7202002270876,240.97457639241233
c 85.68861507612812,-41.535 127.60498634943073,0 127.60498634943073,105.15042360758767
c 0,110.17184147050403 -100.08658291105601,151.70684147050403 -180.53739982248234,110.17184147050403
c -109.434,-41.535 -67.344,145.3725 -98.78778675403598,235.95315852949597 c 0.0,68.1350782759172 -42.09,301.37536945496623 -11.894888530408997,252.91786945496625
c 127.41486726283198,-41.535 232.1984480060036,0 232.1984480060036,93.20713054503375
c 0,83.24803950156758 -65.8741837803346,124.78303950156757 -196.7199658289443,83.24803950156758
c -109.434,-41.535 -67.344,145.3725 -23.583593646650286,262.8769604984324 c -0.0,82.2231873406804 42.09,308.1552466628385 -69.19871700765144,259.69774666283854
c -96.2810655194585,-41.535 -138.00293878252046,0 -138.00293878252046,86.42725333716146
c 0,71.28199302106015 75.90092933549309,112.81699302106014 155.46355853866402,71.28199302106015
c 109.434,-41.535 67.344,145.3725 51.738097251507895,274.84300697893985 c -0.0,125.22351742684583 42.09,316.19069039427234 -153.76604835741583,267.73319039427236
c -37.23129210109406,-41.535 -117.54585573341811,0 -117.54585573341811,78.39180960572764
c 0,109.69341276740937 66.43706709714537,151.22841276740937 182.54593573692648,109.69341276740937
c 109.434,-41.535 67.344,145.3725 88.76596835390745,236.43158723259063 L 0 2769 " fill="none" stroke="black" stroke-width="0.1" style="vector-effect:non-scaling-stroke;"/></g><g><path d="M 0 0  L 1683.600000 0  c 0.0,169.56711990545332 -42.09,302.26471773928364 -8.320080248476339,253.80721773928363
c 195.43766198575565,-41.535 289.3823066564069,0 289.3823066564069,92.31778226071637
c 0,107.91221253979865 -101.14055695330391,149.44721253979864 -166.28892430309077,107.91221253979865
c -109.434,-41.535 -67.344,145.3725 -114.77330210483979,238.21278746020135 c 0.0,60.844239082183 -42.09,340.13847202595025 162.34139726751872,291.68097202595027
c 52.54511523553107,-41.535 116.12997308302934,0 116.12997308302934,54.44402797404973
c 0,92.00032571788086 -106.25068571589131,133.53532571788085 -112.59902357696396,92.00032571788086
c -109.434,-41.535 -67.344,145.3725 -165.8723467735841,254.12467428211914 c 0.0,153.8128114856546 -42.09,288.50695428889344 177.63527137766172,240.04945428889343
c 22.690926599111833,-41.535 40.05804341103081,0 40.05804341103081,106.07554571110657
c 0,78.4763695202513 -16.69108583632773,120.0113695202513 -33.86509908158678,78.4763695202513
c -109.434,-41.535 -67.344,145.3725 -183.82821570710576,267.6486304797487 c -0.0,128.42414195902822 42.09,323.70592746846575 -174.5687946784676,275.24842746846576
c -41.7528441630722,-41.535 -51.60648281153502,0 -51.60648281153502,70.87657253153424
c 0,81.00368417425403 136.08665147692713,122.53868417425403 158.86402359238144,81.00368417425403
c 109.434,-41.535 67.344,145.3725 67.31125389762119,265.12131582574597 L 0 2769 " fill="none" stroke="black" stroke-width="0.1" style="vector-effect:non-scaling-stroke;"/></g><g><path d="M 0 0  L 2525.400000 0  c 0.0,143.00908212089826 -42.09,334.2131715938388 65.58606289746311,285.7556715938388
c 132.39461478848182,-41.535 212.60796022965067,0 212.60796022965067,60.36932840616117
c 0,57.373922089387236 -152.2220637157608,98.90892208938723 -215.20971307898208,57.373922089387236
c -109.434,-41.535 -67.344,145.3725 -62.984310048131704,288.75107791061276 c 0.0,120.60371763070815 -42.09,314.8348893528474 90.69773481891237,266.37738935284744
c 104.96721005539071,-41.535 133.71792771962072,0 133.71792771962072,79.74761064715256
c 0,105.79024071096495 -211.0423622486358,147.32524071096495 -222.7722852226731,105.79024071096495
c -109.434,-41.535 -67.344,145.3725 -1.643377315859965,240.33475928903505 c 0.0,40.737017243694474 -42.09,293.539213125811 36.09876733232519,245.081713125811
c 70.69973565021542,-41.535 234.14666785908187,0 234.14666785908187,101.043286874189
c 0,109.53469795499416 -86.55553552452714,151.06969795499415 -259.73724278155254,109.53469795499416
c -109.434,-41.535 -67.344,145.3725 -10.50819240985453,236.59030204500584 c 0.0,120.93033076613945 -42.09,317.7516102542516 140.69425850016708,269.2941102542516
c 108.95918142692521,-41.535 143.04906980234685,0 143.04906980234685,76.83088974574838
c 0,97.18094066421412 -95.068214390916,138.71594066421412 -266.60666518639874,97.18094066421412
c -109.434,-41.535 -67.344,145.3725 -17.136663116115187,248.94405933578588 L 0 2769 " fill="none" stroke="black" stroke-width="0.1" style="vector-effect:non-scaling-stroke;"/></g><g><path d="M 0 0  L 3367.200000 0  c 0.0,47.768275319571416 -42.09,343.50555353350546 116.5033500091894,295.0480535335055
c 35.87726242452445,-41.535 139.9624075999387,0 139.9624075999387,51.07694646649452
c 0,71.19261098742055 -77.89264575063027,112.72761098742055 -157.7418364800169,71.19261098742055
c -109.434,-41.535 -67.344,145.3725 -98.7239211291112,274.93238901257945 c 0.0,163.21377414179463 -42.09,305.2515090668266 174.66432062039308,256.7940090668266
c 87.1105932520732,-41.535 101.00877841043985,0 101.00877841043985,89.33099093317338
c 0,68.20865782455672 -182.34982105925866,109.74365782455672 -223.05841041357306,68.20865782455672
c -109.434,-41.535 -67.344,145.3725 -52.61468861725987,277.9163421754433 c 0.0,155.03498456801202 -42.09,298.96057787010744 123.7643931007569,250.50307787010746
c 85.28222791128326,-41.535 91.24345489940589,0 91.24345489940589,95.62192212989254
c 0,89.43749322244918 -128.99996435604825,130.97249322244917 -137.2568212056949,89.43749322244918
c -109.434,-41.535 -67.344,145.3725 -77.75102679446789,256.6875067775508 c -0.0,47.29245709862386 42.09,310.79182981694055 -12.6753116298768,262.33432981694057
c -162.21823667855114,-41.535 -199.61801017585213,0 -199.61801017585213,83.79067018305943
c 0,101.85709300117463 76.49068276420125,143.39209300117463 114.06156486386327,101.85709300117463
c 109.434,-41.535 67.344,145.3725 98.23175694186567,244.26790699882537 L 0 2769 " fill="none" stroke="black" stroke-width="0.1" style="vector-effect:non-scaling-stroke;"/></g></g><g><g><path d="M 0 0  L 0 692.250000  c 75.46663080583232,-0.0 406.25394400175225,34.612500000000004 347.32794400175226,-88.69202723406075
c -50.507999999999996,-63.4671641671116 0,-126.55033199216165 73.57205599824772,-126.55033199216165
c 134.54192057936143,0 185.0499205793614,118.75683964016352 134.54192057936143,207.48652355493212
c -50.507999999999996,89.9925 176.778,55.38 286.35807942063855,7.755835671290271 c 243.7231790823434,0.0 350.4579000739012,-34.612500000000004 291.5319000739012,42.23244410636622
c -50.507999999999996,75.19108077940825 0,186.06052225240796 129.36809992609875,186.06052225240796
c 61.91425603446885,0 112.42225603446884,-139.34073999900716 61.91425603446885,-165.85752290075058
c -50.507999999999996,-89.9925 176.778,-55.38 358.9857439655311,-62.4354434580236 c 145.61149810836355,-0.0 358.4336271735866,34.612500000000004 299.5076271735866,-139.63438169232387
c -50.507999999999996,-45.362179310169616 0,-55.157084186098984 121.39237282641335,-55.157084186098984
c 91.56907000062608,0 142.07707000062607,22.208113178727597 91.56907000062608,98.85744923034244
c -50.507999999999996,89.9925 176.778,55.38 329.3309299993739,95.93401664808042 c 190.7399220565492,-0.0 383.276975885701,34.612500000000004 324.350975885701,-129.8302262856518
c -50.507999999999996,-21.673168661591575 0,-73.2653274553139 96.54902411429896,-73.2653274553139
c 87.70920186598192,0 138.2172018659819,76.7547900504609 87.70920186598192,168.5267976778894
c -50.507999999999996,89.9925 176.778,55.38 333.19079813401805,34.56875606307631 c 100.1498396704096,-0.0 401.7338655948835,34.612500000000004 342.80786559488354,-98.11882506356976
c -50.507999999999996,-60.53505697722564 0,-92.96494051026754 78.09213440511644,-92.96494051026754
c 132.39614205511873,0 182.9041420551187,35.67259054942773 132.39614205511873,127.03123158552047
c -50.507999999999996,89.9925 176.778,55.38 288.50385794488125,64.05253398831682 L 4209 0 " fill="none" stroke="black" stroke-width="0.1" style="vector-effect:non-scaling-stroke;"/></g><g><path d="M 0 0  L 0 1384.500000  c 71.63185819752177,0.0 403.50059059430015,-34.612500000000004 344.57459059430016,39.414833940692596
c -50.507999999999996,155.2917037629734 0,171.74110575062187 76.32540940569982,171.74110575062187
c 115.29949593627327,0 165.80749593627326,-207.3608388975693 115.29949593627327,-213.30584874205542
c -50.507999999999996,-89.9925 176.778,-55.38 305.6005040637267,2.149909050740945 c 173.69702439068297,-0.0 377.9647333132094,34.612500000000004 319.03873331320943,-47.648412679415124
c -50.507999999999996,-137.86949245366492 0,-154.55063324398387 101.86126668679054,-154.55063324398387
c 61.50141448153096,0 112.00941448153095,61.89754174905407 61.50141448153096,125.61631403354606
c -50.507999999999996,89.9925 176.778,55.38 359.398585518469,76.58273188985292 c 96.03364212531118,-0.0 389.0154261773515,34.612500000000004 330.0894261773515,5.990779687539905
c -50.507999999999996,-120.45225339198419 0,-180.95827109577033 90.81057382264845,-180.95827109577033
c 96.90342226293467,0 147.41142226293465,35.918250981326516 96.90342226293467,120.27537772869124
c -50.507999999999996,89.9925 176.778,55.38 323.9965777370653,54.692113679539176 c 193.53472702494182,0.0 395.4519331377978,-34.612500000000004 336.52593313779784,61.9901579600492
c -50.507999999999996,78.18008828672855 0,110.83560362988317 84.37406686220214,110.83560362988317
c 127.69161449139187,0 178.19961449139186,-41.327960172432455 127.69161449139187,-102.00393348423658
c -50.507999999999996,-89.9925 176.778,-55.38 293.2083855086081,-70.82182810569579 c 144.23307671232206,0.0 405.77550538025264,-34.612500000000004 346.84950538025265,148.0504846810044
c -50.507999999999996,48.69191732964215 0,57.575401194841334 74.05049461974733,57.575401194841334
c 109.41870501132382,0 159.9267050113238,-84.02425835701864 109.41870501132382,-205.40103763446527
c -50.507999999999996,-89.9925 176.778,-55.38 311.48129498867615,-0.22484824138047088 L 4209 0 " fill="none" stroke="black" stroke-width="0.1" style="vector-effect:non-scaling-stroke;"/></g><g><path d="M 0 0  L 0 2076.750000  c 64.6099649197801,0.0 363.5091311858167,-34.612500000000004 304.58313118581674,29.937732775460738
c -50.507999999999996,118.12912392214655 0,159.91521698997715 116.31686881418324,159.91521698997715
c 133.40649676693795,0 183.91449676693793,-23.34500366274457 133.40649676693795,-48.811316996063454
c -50.507999999999996,-89.9925 176.778,-55.38 287.49350323306203,-141.04163276937444 c 84.78321315904844,0.0 378.61573081359376,-34.612500000000004 319.68973081359377,75.4311470309007
c -50.507999999999996,68.86383954332169 0,121.6163052179091 101.21026918640621,121.6163052179091
c 73.66575894594058,0 124.17375894594058,-194.48954118336303 73.66575894594058,-209.84031617902866
c -50.507999999999996,-89.9925 176.778,-55.38 347.2342410540594,12.792863930218857 c 216.46049886839447,-0.0 364.1354397545246,34.612500000000004 305.2094397545246,-124.83436547795405
c -50.507999999999996,-58.76476615159037 0,-63.71897521425687 115.69056024547535,-63.71897521425687
c 112.42918403672104,0 162.93718403672102,109.50737952744913 112.42918403672104,187.69702332618314
c -50.507999999999996,89.9925 176.778,55.38 308.47081596327894,0.8563173660277812 c 97.71199400470577,-0.0 406.9992908141518,34.612500000000004 348.0732908141518,-49.04957560417986
c -50.507999999999996,-64.54823176636819 0,-169.3325361070415 72.82670918584819,-169.3325361070415
c 77.22813580576616,0 127.73613580576615,114.97871747538089 77.22813580576616,126.3581238209517
c -50.507999999999996,89.9925 176.778,55.38 343.6718641942338,92.02398789026967 c 86.0316909969992,0.0 372.2970725831481,-34.612500000000004 313.37107258314813,-2.807593030072714
c -50.507999999999996,188.59911430476802 0,226.9847532257398 107.52892741685184,226.9847532257398
c 70.68751502051441,0 121.1955150205144,-91.86056337610525 70.68751502051441,-191.5361727996269
c -50.507999999999996,-89.9925 176.778,-55.38 350.21248497948557,-32.640987396040174 L 4209 0 " fill="none" stroke="black" stroke-width="0.1" style="vector-effect:non-scaling-stroke;"/></g></g></svg>