<svg baseProfile="full" height="3264" preserveAspectRatio="none" shape-rendering="geometricPrecision" version="1.1" viewBox="0,0,2448,3264" width="2448" xmlns="http://www.w3.org/2000/svg" xmlns:ev="http://www.w3.org/2001/xml-events" xmlns:xlink="http://www.w3.org/1999/xlink"><title>Jigsaw puzzle piece clips</title><desc>Created with the piecemaker. Piece count: 42</desc><defs/><g><g><rect fill="white" height="3264" width="2448" x="0" y="0"/></g></g><g><g><path d="M 0 0  L 408.000000 0  c 0.0,28.54853589805349 -20.400000000000002,229.85971687338838 57.29727745369565,197.21971687338836
c 17.353988204320277,-27.977142857142855 67.75768697770823,0 67.75768697770823,35.923140269468774
c 0,51.40395276386366 -70.36237338869199,79.38109562100651 -94.48415731334248,51.40395276386366
c -53.04,-27.977142857142855 -32.64,97.92 -30.570807118061396,181.73890437899348 c -0.0,96.08095390668439 20.400000000000002,217.40831569145632 -80.36434175122822,184.76831569145634
c -22.28864796993538,-27.977142857142855 -34.915968273565184,0 -34.915968273565184,48.3745414514008
c 0,74.3186441538135 80.62364696830873,102.29578701095635 100.96024016423073,74.3186441538135
c 53.04,-27.977142857142855 32.64,97.92 14.320069860562683,158.82421298904364 c 0.0,105.59687240582583 -20.400000000000002,192.14984539372796 42.3945718407698,159.50984539372794
c 32.70490703720863,-27.977142857142855 57.423648732797034,0 57.423648732797034,73.6330117491292
c 0,44.01538475631102 -65.66531661337079,71.99252761345387 -84.87011237730492,44.01538475631102
c -53.04,-27.977142857142855 -32.64,97.92 -14.948108196261913,189.12747238654612 c 0.0,72.84906812272942 -20.400000000000002,218.1194871431867 8.32448995808829,185.47948714318667
c 50.24450880005423,-27.977142857142855 115.96003778861831,0 115.96003778861831,47.663369999670465
c 0,39.94509127267409 -102.01093588281526,67.92223412981694 -126.81843024375257,39.94509127267409
c -53.04,-27.977142857142855 -32.64,97.92 2.533902497045972,193.19776587018305 c -0.0,69.43207736032817 20.400000000000002,197.05855649109367 -64.37261593062381,164.41855649109368
c -22.49491707178625,-27.977142857142855 -40.959304342264545,0 -40.959304342264545,68.72430065176346
c 0,39.917453534647876 18.570488513353578,67.89459639179073 64.50567876848483,39.917453534647876
c 53.04,-27.977142857142855 32.64,97.92 40.82624150440353,193.22540360820926 c 0.0,126.40504125003436 -20.400000000000002,200.94574024478612 52.13558802129037,168.3057402447861
c 21.1751138274084,-27.977142857142855 53.9567918640305,0 53.9567918640305,64.83711689807103
c 0,62.97659697661041 -96.39552372379237,90.95373983375326 -110.24042147660917,62.97659697661041
c -53.04,-27.977142857142855 -32.64,97.92 4.148041591288305,170.16626016624673 c -0.0,48.765868905022835 20.400000000000002,204.51458026344443 -17.157890842063473,171.87458026344441
c -82.20077212002774,-27.977142857142855 -101.93238583780715,0 -101.93238583780715,61.268276879412724
c 0,56.53912384443319 8.646833924781442,84.51626670157604 37.99943276742374,56.53912384443319
c 53.04,-27.977142857142855 32.64,97.92 81.09084391244687,176.60373329842395 L 0 3264 " fill="none" stroke="black" stroke-width="0.1" style="vector-effect:non-scaling-stroke;"/></g><g><path d="M 0 0  L 816.000000 0  c 0.0,108.17820430719094 -20.400000000000002,226.44213607162158 41.96557812365118,193.80213607162156
c 41.448760991717634,-27.977142857142855 60.77981007901359,0 60.77981007901359,39.34072107123558
c 0,67.18236073996363 -33.77331566899696,95.15950359710648 -35.64861490819412,67.18236073996363
c -53.04,-27.977142857142855 -32.64,97.92 -67.09677329447065,165.9604964028935 c -0.0,87.01348082878344 20.400000000000002,231.43862850482867 -35.77237809644288,198.79862850482866
c -31.82717693930817,-27.977142857142855 -84.15210248316514,0 -84.15210248316514,34.34422863802848
c 0,36.98110071283614 23.983738702712614,64.95824356997899 113.99180306130417,36.98110071283614
c 53.04,-27.977142857142855 32.64,97.92 5.932677518303848,196.161756430021 c 0.0,116.74087807905526 -20.400000000000002,222.34083549500434 86.87526086018084,189.70083549500433
c 20.70518680187194,-27.977142857142855 40.66510888157255,0 40.66510888157255,43.44202164785281
c 0,67.24230206284724 -23.435332471118198,95.2194449199901 -101.68686044933345,67.24230206284724
c -53.04,-27.977142857142855 -32.64,97.92 -25.853509292419943,165.9005550800099 c -0.0,26.78684171225575 20.400000000000002,225.3959594222045 -81.70700220986484,192.7559594222045
c -20.448926105503055,-27.977142857142855 -40.64777027764039,0 -40.64777027764039,40.38689772065263
c 0,60.34480191134347 81.05770599214955,88.32194476848632 111.19298601959808,60.34480191134347
c 53.04,-27.977142857142855 32.64,97.92 11.161786467907149,172.79805523151367 c -0.0,89.95578227347771 20.400000000000002,195.32209489852488 -15.215903702028834,162.68209489852487
c -69.52565461729868,-27.977142857142855 -94.92811344358779,0 -94.92811344358779,70.46076224433227
c 0,33.533823913389 16.549385963301297,61.51096677053185 22.55533170673752,33.533823913389
c 53.04,-27.977142857142855 32.64,97.92 87.58868543887911,199.60903322946814 c -0.0,94.11096868932893 20.400000000000002,216.5487968198674 -17.304801607428434,183.90879681986738
c -77.02352399105327,-27.977142857142855 -102.44957686897196,0 -102.44957686897196,49.23406032298976
c 0,63.7338760119911 21.27906478637172,91.71101886913395 42.20120587700018,63.7338760119911
c 53.04,-27.977142857142855 32.64,97.92 77.55317259940021,169.40898113086604 c 0.0,119.88612795278321 -20.400000000000002,210.57048684534777 3.0175458669341526,177.9304868453478
c 80.7022141242618,-27.977142857142855 120.03343101638694,0 120.03343101638694,55.21237029750935
c 0,62.259763126161744 -28.554340794490294,90.2369059833046 -93.44538854391246,62.259763126161744
c -53.04,-27.977142857142855 -32.64,97.92 -29.60558833940864,170.8830940166954 L 0 3264 " fill="none" stroke="black" stroke-width="0.1" style="vector-effect:non-scaling-stroke;"/></g><g><path d="M 0 0  L 1224.000000 0  c 0.0,113.39508799949087 -20.400000000000002,200.3944232572544 72.5536993062543,167.7544232572544
c 48.06697661248989,-27.977142857142855 50.441734213725766,0 50.441734213725766,65.38843388560275
c 0,48.67317818131747 -11.319029496666687,76.65032103846032 -47.96167544766142,48.67317818131747
c -53.04,-27.977142857142855 -32.64,97.92 -75.03375807231865,184.46967896153967 c -0.0,65.99643015021192 20.400000000000002,197.6627820083002 -17.830866604506657,165.02278200830023
c -61.18938296041386,-27.977142857142855 -97.9378241736732,0 -97.9378241736732,68.12007513455691
c 0,53.17199856975233 49.894321503567404,81.14914142689518 103.68585753952846,53.17199856975233
c 53.04,-27.977142857142855 32.64,97.92 12.082833238651403,179.9708585731048 c 0.0,88.91307419178145 -20.400000000000002,202.62563474196168 54.73081291222239,169.9856347419617
c 34.34891017101083,-27.977142857142855 59.35228054398786,0 59.35228054398786,63.15722240089545
c 0,64.73347635855927 -68.70815417767875,92.71061921570212 -88.78844600649929,64.73347635855927
c -53.04,-27.977142857142855 -32.64,97.92 -25.294647449710965,168.40938078429787 c -0.0,84.15425777827419 20.400000000000002,197.93229767690644 -45.391900303324086,165.29229767690643
c -35.28691235926516,-27.977142857142855 -57.183255876600846,0 -57.183255876600846,67.85055946595071
c 0,40.70126322358428 81.6260142909235,68.67840608072713 81.53676883264197,40.70126322358428
c 53.04,-27.977142857142855 32.64,97.92 21.038387347282963,192.44159391927286 c 0.0,91.13985595837858 -20.400000000000002,193.71339271660514 83.40814077290929,161.07339271660516
c 28.08208129398608,-27.977142857142855 46.041622233855975,0 46.041622233855975,72.06946442625198
c 0,59.19732060962738 -79.34920821243529,87.17446346677023 -78.68033533128005,59.19732060962738
c -53.04,-27.977142857142855 -32.64,97.92 -50.76942767548522,173.94553653322976 c 0.0,112.34505345947565 -20.400000000000002,227.0341172744328 25.68317830358009,194.3941172744328
c 79.5887608418501,-27.977142857142855 112.02577054352236,0 112.02577054352236,38.74873986842434
c 0,55.02483213706077 -84.03315923479794,83.00197499420362 -117.98458354644026,55.02483213706077
c -53.04,-27.977142857142855 -32.64,97.92 -19.724365300662186,178.11802500579637 c -0.0,58.67551311136169 20.400000000000002,221.7204775789694 -40.183442377482635,189.08047757896938
c -20.229279495509967,-27.977142857142855 -71.50744600385336,0 -71.50744600385336,44.06237956388776
c 0,43.8510383514525 60.02612151271934,71.82818120859535 70.04137458900894,43.8510383514525
c 53.04,-27.977142857142855 32.64,97.92 41.649513792327056,189.29181879140464 L 0 3264 " fill="none" stroke="black" stroke-width="0.1" style="vector-effect:non-scaling-stroke;"/></g><g><path d="M 0 0  L 1632.000000 0  c 0.0,38.67746657007116 -20.400000000000002,198.5400465433935 38.80310106996865,165.90004654339347
c 57.00347016823038,-27.977142857142855 80.17261522657964,0 80.17261522657964,67.24281059946367
c 0,57.14637683742163 -19.5582752051682,85.12351969456448 -70.97922379383179,57.14637683742163
c -53.04,-27.977142857142855 -32.64,97.92 -47.99649250271649,175.9964803054355 c 0.0,34.06792052016116 -20.400000000000002,221.11733400001663 45.23940246686848,188.47733400001664
c 42.86194979785673,-27.977142857142855 64.85890011418134,0 64.85890011418134,44.6655231428405
c 0,62.50756463981472 -12.189347656524735,90.48470749695757 -27.51660827977709,62.50756463981472
c -53.04,-27.977142857142855 -32.64,97.92 -82.58169430127273,170.63529250304242 c 0.0,110.45261456878504 -20.400000000000002,233.0717279483734 50.22613832544846,200.43172794837338
c 67.35607911726612,-27.977142857142855 78.506256362285,0 78.506256362285,32.71112919448376
c 0,52.14832846503552 -25.628878400589276,80.12547132217837 -48.34787502355188,52.14832846503552
c -53.04,-27.977142857142855 -32.64,97.92 -80.38451966418158,180.99452867782162 c -0.0,32.17509305486148 20.400000000000002,196.92027172620186 4.776388616474152,164.28027172620185
c -84.85044629170788,-27.977142857142855 -130.97205282224093,0 -130.97205282224093,68.86258541665529
c 0,59.75888853443908 40.41990187850206,87.73603139158193 54.44128663508722,59.75888853443908
c 53.04,-27.977142857142855 32.64,97.92 71.75437757067955,173.38396860841806 c -0.0,111.62642557080054 20.400000000000002,219.71580257121144 -6.501965093181167,187.07580257121145
c -34.137592340081085,-27.977142857142855 -98.295585134625,0 -98.295585134625,46.067054571645684
c 0,65.2253216692001 11.909367065625403,93.20246452634295 20.44459648775917,65.2253216692001
c 53.04,-27.977142857142855 32.64,97.92 84.352953740047,167.91753547365704 c -0.0,90.17152173916568 20.400000000000002,197.11412683290683 -84.81149222677561,164.47412683290682
c -8.555385515725565,-27.977142857142855 -21.890253742600592,0 -21.890253742600592,68.66873030995032
c 0,52.95188029498124 14.642763342334138,80.92902315212409 30.7530784891175,52.95188029498124
c 53.04,-27.977142857142855 32.64,97.92 75.9486674802587,180.1909768478759 c -0.0,82.47431006778152 20.400000000000002,217.02268890442684 -26.35992133056463,184.38268890442686
c -40.64971518596658,-27.977142857142855 -84.37407925655167,0 -84.37407925655167,48.76016823843028
c 0,69.81659645482333 28.765836295758355,97.79373931196618 53.735456382413226,69.81659645482333
c 53.04,-27.977142857142855 32.64,97.92 56.99854420470307,163.3262606880338 L 0 3264 " fill="none" stroke="black" stroke-width="0.1" style="vector-effect:non-scaling-stroke;"/></g><g><path d="M 0 0  L 2040.000000 0  c -0.0,75.70148415564319 20.400000000000002,212.62614442666165 -67.5620707507801,179.98614442666164
c -50.67921812474308,-27.977142857142855 -65.98352573505844,0 -65.98352573505844,53.1567127161955
c 0,40.38740996055233 74.77672203186906,68.36455281769518 100.14818332836462,40.38740996055233
c 53.04,-27.977142857142855 32.64,97.92 33.397413157473906,192.7554471823048 c 0.0,50.57150865874182 -20.400000000000002,212.27259501521218 83.63525718322737,179.6325950152122
c 11.24210523836702,-27.977142857142855 52.99280829756603,0 52.99280829756603,53.51026212764495
c 0,70.43686765088668 -38.77312309347637,98.41401050802953 -75.1657108666992,70.43686765088668
c -53.04,-27.977142857142855 -32.64,97.92 -61.462354614094195,162.70598949197046 c 0.0,102.71698354091828 -20.400000000000002,214.0613800820692 0.3131510424765639,181.42138008206922
c 79.02157989178295,-27.977142857142855 120.52819418895136,0 120.52819418895136,51.72147706078792
c 0,36.2014420048898 -32.23402998630241,64.17858486203265 -34.20417839713707,36.2014420048898
c -53.04,-27.977142857142855 -32.64,97.92 -86.63716683429085,196.94141513796734 c -0.0,85.54994789558313 20.400000000000002,201.2312895552971 -22.452592001255013,168.5912895552971
c -63.85448191970182,-27.977142857142855 -84.3003598017723,0 -84.3003598017723,64.55156758756004
c 0,74.16340810740095 9.727088612734015,102.1405509645438 23.899767159309164,74.16340810740095
c 53.04,-27.977142857142855 32.64,97.92 82.85318464371815,158.97944903545618 c -0.0,126.78520552098287 20.400000000000002,224.813095340823 -87.44873866812559,192.173095340823
c -17.847454544626242,-27.977142857142855 -25.225792709080096,0 -25.225792709080096,40.96976180203413
c 0,38.70124131128753 24.563540533846727,66.67838416843038 67.76308969224274,38.70124131128753
c 53.04,-27.977142857142855 32.64,97.92 44.91144168496294,194.4416158315696 c 0.0,49.67514641466418 -20.400000000000002,191.24652541344966 75.69897123416175,158.60652541344967
c 17.827411832690903,-27.977142857142855 28.47607471751816,0 28.47607471751816,74.53633172940746
c 0,38.90800944034274 -19.085510034933083,66.88515229748559 -41.96165945824055,38.90800944034274
c -53.04,-27.977142857142855 -32.64,97.92 -62.21338649343936,194.2348477025144 c 0.0,101.2111711424002 -20.400000000000002,214.34230349806177 7.704615439031618,181.70230349806175
c 91.97909719558119,-27.977142857142855 105.40286408147696,0 105.40286408147696,51.440553644795386
c 0,64.57923648964888 -23.928167272621288,92.55637934679173 -26.9362039691365,64.57923648964888
c -53.04,-27.977142857142855 -32.64,97.92 -86.17127555137208,168.56362065320826 L 0 3264 " fill="none" stroke="black" stroke-width="0.1" style="vector-effect:non-scaling-stroke;"/></g></g><g><g><path d="M 0 0  L 0 466.285714  c 101.13102524023262,-0.0 191.8120944023762,23.314285714285717 163.2520944023762,-10.973239272290922
c -24.48,-52.57753328417173 0,-117.4781090966624 40.7479055976238,-117.4781090966624
c 58.22392622551371,0 82.70392622551371,67.48664986912627 58.22392622551371,74.32426578534447
c -24.48,60.61714285714286 85.67999999999999,37.30285714285714 145.7760737744863,54.12708258360885 c 33.626010220606666,-0.0 173.60626096099105,23.314285714285717 145.04626096099105,-17.675872489022904
c -24.48,-37.88080289518671 0,-106.41812933095044 58.95373903900895,-106.41812933095044
c 53.593083993836046,0 78.07308399383605,51.755199363999544 53.593083993836046,95.81009776805458
c -24.48,60.61714285714286 85.67999999999999,37.30285714285714 150.40691600616395,28.283904051918768 c 28.716088247635795,0.0 175.28659264470704,-23.314285714285717 146.72659264470704,24.383794524634528
c -24.48,98.25408410822592 0,129.44932102585946 57.27340735529296,129.44932102585946
c 42.880000307556884,0 67.36000030755689,-86.91784347824061 42.880000307556884,-136.94347017013078
c -24.48,-60.61714285714286 85.67999999999999,-37.30285714285714 161.11999969244312,-16.88964538036322 c 32.476687049801846,0.0 183.48460038734507,-23.314285714285717 154.92460038734507,91.48006023326381
c -24.48,11.294472652890477 0,27.685261368836876 49.075399612654934,27.685261368836876
c 37.69426475885717,0 62.17426475885718,-58.771237040928305 37.69426475885717,-103.02691774250405
c -24.48,-60.61714285714286 85.67999999999999,-37.30285714285714 166.30573524114283,-16.138403859596636 c 41.93815343037692,0.0 193.3271851095085,-23.314285714285717 164.7671851095085,28.569991884539906
c -24.48,104.18636194843991 0,112.34951272651641 39.23281489049151,112.34951272651641
c 59.70441379657069,0 84.1844137965707,-71.78292233292446 59.70441379657069,-127.13094355868073
c -24.48,-60.61714285714286 85.67999999999999,-37.30285714285714 144.2955862034293,-13.788561052375584 c 49.85595545156272,-0.0 174.62959888958017,23.314285714285717 146.06959888958016,3.4616862399100206
c -24.48,-134.32907438826226 0,-154.61397182169398 57.93040111041984,-154.61397182169398
c 34.33484841497881,0 58.81484841497881,37.36729165910764 34.33484841497881,72.58211159117998
c -24.48,60.61714285714286 85.67999999999999,37.30285714285714 169.6651515850212,78.57017399060398 L 2448 0 " fill="none" stroke="black" stroke-width="0.1" style="vector-effect:non-scaling-stroke;"/></g><g><path d="M 0 0  L 0 932.571429  c 69.59011846434419,-0.0 181.28719512384046,23.314285714285717 152.72719512384046,-80.40213687292396
c -24.48,-28.88654598108283 0,-58.815852195616685 51.27280487615954,-58.815852195616685
c 34.2764712933905,0 58.756471293390504,117.48092538116437 34.2764712933905,128.10378445920864
c -24.48,60.61714285714286 85.67999999999999,37.30285714285714 169.7235287066095,11.114204609332006 c 113.06570378871506,0.0 170.79012218269511,-23.314285714285717 142.2301221826951,78.61244249291093
c -24.48,41.98875365981641 0,57.7355932052738 61.76987781730489,57.7355932052738
c 49.24105025288142,0 73.72105025288143,-56.99215751631374 49.24105025288142,-76.56968282319464
c -24.48,-60.61714285714286 85.67999999999999,-37.30285714285714 154.75894974711858,-59.77835287499009 c 111.48413477775702,-0.0 191.59719359646962,23.314285714285717 163.03719359646962,7.2353208152102075
c -24.48,-85.11513028213213 0,-131.87074619097615 40.96280640353038,-131.87074619097615
c 56.626479436268596,0 81.1064794362686,89.63632664855649 56.626479436268596,131.98918777406962
c -24.48,60.61714285714286 85.67999999999999,37.30285714285714 147.3735205637314,-7.353762398303672 c 29.578796292597698,-0.0 198.2093965194188,23.314285714285717 169.6493965194188,-21.507011690449918
c -24.48,-121.23863876757791 0,-122.49728934880964 34.35060348058121,-122.49728934880964
c 49.37524232088694,0 73.85524232088694,50.95717656252123 49.37524232088694,70.55123729282568
c -24.48,60.61714285714286 85.67999999999999,37.30285714285714 154.62475767911306,73.45306374643388 c 71.62200773207765,-0.0 191.34989367530545,23.314285714285717 162.78989367530545,-18.289849350108135
c -24.48,-48.459820832078734 0,-108.41955529238447 41.21010632469455,-108.41955529238447
c 48.78098424951469,0 73.26098424951469,100.14777691448361 48.78098424951469,134.2259940753505
c -24.48,60.61714285714286 85.67999999999999,37.30285714285714 155.2190157504853,-7.516589432857899 c 51.78784375977554,0.0 180.99236052142953,-23.314285714285717 152.43236052142953,55.59826335923207
c -24.48,18.024356383356142 0,64.00536119112783 51.56763947857047,64.00536119112783
c 40.28558463492547,0 64.76558463492547,-24.11770824021529 40.28558463492547,-65.48850280356845
c -24.48,-60.61714285714286 85.67999999999999,-37.30285714285714 163.71441536507453,-54.11512174679146 L 2448 0 " fill="none" stroke="black" stroke-width="0.1" style="vector-effect:non-scaling-stroke;"/></g><g><path d="M 0 0  L 0 1398.857143  c 64.46039619743821,-0.0 191.75540402502673,23.314285714285717 163.19540402502673,-66.55080940915322
c -24.48,-38.02867567201711 0,-51.739032393548726 40.80459597497327,-51.739032393548726
c 57.214029205388385,0 81.69402920538839,12.81917931392181 57.214029205388385,33.06885895169606
c -24.48,60.61714285714286 85.67999999999999,37.30285714285714 146.78597079461161,85.22098285100589 c 97.45991241194078,0.0 199.2123290896665,-23.314285714285717 170.6523290896665,4.8117055117178325
c -24.48,123.75486638730919 0,125.30476053735126 33.347670910333505,125.30476053735126
c 60.00994578083515,0 84.48994578083516,-26.530607614922676 60.00994578083515,-92.85697964843061
c -24.48,-60.61714285714286 85.67999999999999,-37.30285714285714 143.99005421916485,-37.25948640063848 c 51.18373405751267,-0.0 192.7133739905073,23.314285714285717 164.1533739905073,-23.542038288713552
c -24.48,-90.75453921709311 0,-134.09573379940647 39.846626009492695,-134.09573379940647
c 52.455224539119,0 76.935224539119,60.02834498075587 52.455224539119,68.62219062780737
c -24.48,60.61714285714286 85.67999999999999,37.30285714285714 151.544775460881,89.01558146031265 c 35.29008177220015,-0.0 192.66436160477454,23.314285714285717 164.10436160477454,-50.05394212626427
c -24.48,-46.564178274740584 0,-80.99132659037019 39.89563839522546,-80.99132659037019
c 28.564954760906403,0 53.04495476090641,26.44812101801412 28.564954760906403,105.86781629725228
c -24.48,60.61714285714286 85.67999999999999,37.30285714285714 175.4350452390936,25.177452419382192 c 45.978305792248634,0.0 188.97968707708256,-23.314285714285717 160.41968707708256,58.55865542189339
c -24.48,68.30675017233852 0,77.98187093639815 43.58031292291744,77.98187093639815
c 37.79709197315481,0 62.27709197315481,-36.77022684007196 37.79709197315481,-76.69683959454562
c -24.48,-60.61714285714286 85.67999999999999,-37.30285714285714 166.2029080268452,-59.84368676374592 c 56.6198500210898,0.0 187.98007041050676,-23.314285714285717 159.42007041050675,78.89576830788731
c -24.48,26.27157594009706 0,48.453486736422946 44.57992958949325,48.453486736422946
c 37.80845722189966,0 62.28845722189966,-92.4158094828006 37.80845722189966,-133.0003502952539
c -24.48,-60.61714285714286 85.67999999999999,-37.30285714285714 166.19154277810034,5.651095250943641 L 2448 0 " fill="none" stroke="black" stroke-width="0.1" style="vector-effect:non-scaling-stroke;"/></g><g><path d="M 0 0  L 0 1865.142857  c 94.20836438057823,0.0 173.1143700497131,-23.314285714285717 144.5543700497131,25.179000171703457
c -24.48,56.261304633147375 0,117.8938961925214 59.4456299502869,117.8938961925214
c 30.27884785838711,0 54.758847858387114,-44.75885835446123 30.27884785838711,-45.3017722772487
c -24.48,-60.61714285714286 85.67999999999999,-37.30285714285714 173.7211521416129,-97.77112408697614 c 107.0427449239311,-0.0 177.13989513489074,23.314285714285717 148.57989513489073,-70.82251921386673
c -24.48,-32.46814853967294 0,-86.04330555963422 55.420104865109266,-86.04330555963422
c 61.28033240655964,0 85.76033240655964,152.41951102180687 61.28033240655964,159.86908207312115
c -24.48,60.61714285714286 85.67999999999999,37.30285714285714 142.71966759344036,-3.003257299620202 c 42.93251870143302,0.0 178.18108343371773,-23.314285714285717 149.62108343371773,-5.2974646703678765
c -24.48,44.666416478365285 0,149.8726447052119 54.37891656628227,149.8726447052119
c 49.393310357447035,0 73.87331035744704,-63.93860610139477 49.393310357447035,-145.90757836574753
c -24.48,-60.61714285714286 85.67999999999999,-37.30285714285714 154.60668964255296,1.3323983309034872 c 98.588908546127,-0.0 203.74227270094323,23.314285714285717 175.18227270094323,-96.25646252945742
c -24.48,-47.3736519164528 0,-56.112599567454026 28.81772729905677,-56.112599567454026
c 57.68346158824568,0 82.16346158824568,46.826632264011685 57.68346158824568,154.32978677954804
c -24.48,60.61714285714286 85.67999999999999,37.30285714285714 146.31653841175432,-1.9607246826365952 c 29.87734813372385,0.0 172.531057659212,-23.314285714285717 143.971057659212,44.77010760915388
c -24.48,57.59197872452075 0,96.68445482619066 60.02894234078801,96.68445482619066
c 36.08446403365596,0 60.564464033655966,-45.4178063814647 36.08446403365596,-66.27476037591389
c -24.48,-60.61714285714286 85.67999999999999,-37.30285714285714 167.91553596634404,-75.17980205943066 c 116.17381392813431,-0.0 167.37472828367464,23.314285714285717 138.81472828367464,-14.744316359447174
c -24.48,-48.291084452916714 0,-125.7080365587044 65.18527171632536,-125.7080365587044
c 46.31577718661265,0 70.79577718661265,63.80149416235118 46.31577718661265,83.17414338747867
c -24.48,60.61714285714286 85.67999999999999,37.30285714285714 157.68422281338735,57.27820953067291 L 2448 0 " fill="none" stroke="black" stroke-width="0.1" style="vector-effect:non-scaling-stroke;"/></g><g><path d="M 0 0  L 0 2331.428571  c 55.3214915530864,-0.0 188.58113338351473,23.314285714285717 160.02113338351472,-8.615068636030886
c -24.48,-107.77631211738057 0,-131.29369655406117 43.97886661648528,-131.29369655406117
c 64.65666491873202,0 89.13666491873202,47.54036949324392 64.65666491873202,76.50359335337934
c -24.48,60.61714285714286 85.67999999999999,37.30285714285714 139.34333508126798,63.40517183671271 c 54.70118035219655,0.0 176.07324149871124,-23.314285714285717 147.51324149871124,64.64117245754551
c -24.48,24.660099727308015 0,77.82879247680413 56.48675850128876,77.82879247680413
c 46.59301808505356,0 71.07301808505356,-126.17073844461844 46.59301808505356,-128.69596347468828
c -24.48,-60.61714285714286 85.67999999999999,-37.30285714285714 157.40698191494644,-13.77400145966135 c 118.02795774194686,0.0 186.6009407169522,-23.314285714285717 158.0409407169522,55.830075103600954
c -24.48,55.52190933561378 0,85.54125428611454 45.95905928304779,85.54125428611454
c 41.950048415538106,0 66.43004841553811,-33.0859253309973 41.950048415538106,-113.69758316313747
c -24.48,-60.61714285714286 85.67999999999999,-37.30285714285714 162.0499515844619,-27.673746226578032 c 76.88628092641068,0.0 188.31488439426056,-23.314285714285717 159.75488439426056,85.16418771473668
c -24.48,39.118662211864496 0,55.27175412794644 44.24511560573944,55.27175412794644
c 47.80134765740951,0 72.28134765740951,-58.573820504829484 47.80134765740951,-131.16058755392638
c -24.48,-60.61714285714286 85.67999999999999,-37.30285714285714 156.1986523425905,-9.275354288756745 c 97.90136803630125,-0.0 195.57167139088125,23.314285714285717 167.01167139088125,-57.61551007334799
c -24.48,-50.25026734082832 0,-61.80544252736783 36.98832860911875,-61.80544252736783
c 41.09449311455995,0 65.57449311455996,106.65706183277173 41.09449311455995,108.6946508414362
c -24.48,60.61714285714286 85.67999999999999,37.30285714285714 162.90550688544005,10.726301759279622 c 105.55197207147619,0.0 197.54798668365393,-23.314285714285717 168.98798668365393,23.364015198819605
c -24.48,117.71056249174939 0,121.83644244738471 35.01201331634607,121.83644244738471
c 60.53559591650139,0 85.0155959165014,-63.8189939815268 60.53559591650139,-103.93073697416193
c -24.48,-60.61714285714286 85.67999999999999,-37.30285714285714 143.4644040834986,-41.26972067204238 L 2448 0 " fill="none" stroke="black" stroke-width="0.1" style="vector-effect:non-scaling-stroke;"/></g><g><path d="M 0 0  L 0 2797.714286  c 36.11097144804306,-0.0 198.51790518026357,23.314285714285717 169.95790518026357,-3.009803581592855
c -24.48,-34.26482784601988 0,-129.75253529662237 34.042094819736434,-129.75253529662237
c 50.7563111179673,0 75.2363111179673,82.20637808231955 50.7563111179673,112.08815056499616
c -24.48,60.61714285714286 85.67999999999999,37.30285714285714 153.2436888820327,20.674188313219062 c 64.24243141149024,0.0 176.07930556912737,-23.314285714285717 147.51930556912737,88.09717302559858
c -24.48,34.10141129406501 0,59.22543982305805 56.48069443087263,59.22543982305805
c 45.85618142133822,0 70.33618142133822,-60.27723569222412 45.85618142133822,-79.48398297988477
c -24.48,-60.61714285714286 85.67999999999999,-37.30285714285714 158.14381857866178,-67.83862986877186 c 50.15773115079862,0.0 195.65350812098274,-23.314285714285717 167.09350812098273,2.737303904215908
c -24.48,67.37965421121841 0,133.33300829344742 36.90649187901727,133.33300829344742
c 36.56169615997101,0 61.04169615997101,-125.21910759021213 36.56169615997101,-132.2495782468693
c -24.48,-60.61714285714286 85.67999999999999,-37.30285714285714 167.438303840029,-3.820733950794022 c 60.67146120751673,0.0 187.17651417773436,-23.314285714285717 158.61651417773436,64.93147822794965
c -24.48,76.70266583444067 0,78.89048808542118 45.38348582226564,78.89048808542118
c 42.04831398512948,0 66.52831398512949,-66.58207827129695 42.04831398512948,-99.2803703913884
c -24.48,-60.61714285714286 85.67999999999999,-37.30285714285714 161.95168601487052,-44.541595921982434 c 99.31008597270956,0.0 202.92444814089023,-23.314285714285717 174.36444814089023,57.25127241731852
c -24.48,33.27926321410528 0,59.95977210339851 29.635551859109768,59.95977210339851
c 52.79227153375905,0 77.27227153375905,-41.3903755536119 52.79227153375905,-112.91027132884093
c -24.48,-60.61714285714286 85.67999999999999,-37.30285714285714 151.20772846624095,-4.30077319187609 c 97.8241010590182,0.0 179.5429330289489,-23.314285714285717 150.9829330289489,5.690977261680814
c -24.48,130.16075622686125 0,143.52632890692712 53.017066971051094,143.52632890692712
c 34.816404946182104,0 59.29640494618211,-120.57162150024931 34.816404946182104,-142.0283319761121
c -24.48,-60.61714285714286 85.67999999999999,-37.30285714285714 169.1835950538179,-7.188974192495834 L 2448 0 " fill="none" stroke="black" stroke-width="0.1" style="vector-effect:non-scaling-stroke;"/></g></g></svg>