<svg baseProfile="full" height="3269" preserveAspectRatio="none" shape-rendering="geometricPrecision" version="1.1" viewBox="0,0,5000,3269" width="5000" xmlns="http://www.w3.org/2000/svg" xmlns:ev="http://www.w3.org/2001/xml-events" xmlns:xlink="http://www.w3.org/1999/xlink"><title>Jigsaw puzzle piece clips</title><desc>Created with the piecemaker. Piece count: 48</desc><defs /><g><g><rect fill="white" height="3269" width="5000" x="0" y="0" /></g></g><g><g><path d="M 0 0  L 625.000000 0  c -0.0,152.0645000997517 31.25,233.35263944971206 -133.2105664055746,195.2143061163787&#10;c -21.57645764949265,-32.69 -22.38474853851656,0 -22.38474853851656,77.20236055028798&#10;c 0,69.10680005593252 69.83708292645495,101.79680005593252 112.84810960786683,69.10680005593252&#10;c 81.25,-32.69 50.0,114.415 42.74720533622434,203.30986661073416 c -0.0,80.64822925217749 31.25,258.34395772718375 -96.6643898329577,220.20562439385043&#10;c -80.5723394502136,-32.69 -87.21052944936336,0 -87.21052944936336,52.21104227281626&#10;c 0,77.59349138935346 59.737026718690714,110.28349138935346 132.83296024562694,77.59349138935346&#10;c 81.25,-32.69 50.0,114.415 51.041959036694124,194.82317527731323 c -0.0,116.44596317839182 31.25,257.6664778639394 -35.97389064418728,219.52814453060606&#10;c -111.24216596531492,-32.69 -125.34858596953752,0 -125.34858596953752,52.88852213606063&#10;c 0,60.44017901204518 16.588795360860036,93.13017901204518 68.32995727870411,60.44017901204518&#10;c 81.25,-32.69 50.0,114.415 92.99251933502069,211.9764876546215 c -0.0,99.5894398078153 31.25,226.26002299937778 -123.78501620026898,188.12168966604443&#10;c -78.67561910064404,-32.69 -79.37728502479709,0 -79.37728502479709,84.29497700062225&#10;c 0,50.64334352133483 100.25660202562446,83.33334352133483 169.05342987550998,50.64334352133483&#10;c 81.25,-32.69 50.0,114.415 34.1088713495561,221.77332314533186 c -0.0,30.220148810938962 31.25,246.56611860766978 -8.222598987072287,208.42778527433643&#10;c -132.43617686240788,-32.69 -145.17347087019047,0 -145.17347087019047,63.988881392330256&#10;c 0,56.080385134781295 21.97336293042945,88.77038513478129 33.5423206121784,56.080385134781295&#10;c 81.25,-32.69 50.0,114.415 119.85374924508434,216.3362815318854 c 0.0,141.86215167466682 -31.25,234.09896548593002 128.21381415869874,195.96063215259667&#10;c 24.356686735086498,-32.69 68.63331936666688,0 68.63331936666688,76.45603451407001&#10;c 0,82.64837908638219 -86.84207724441455,115.33837908638219 -178.6516450533664,82.64837908638219&#10;c -81.25,-32.69 -50.0,114.415 -18.195488471999226,189.7682875802845 L 0 3269 " fill="none" stroke="black" stroke-width="0.1" style="vector-effect:non-scaling-stroke;" /></g><g><path d="M 0 0  L 1250.000000 0  c 0.0,50.605042256339345 -31.25,265.82386366365114 69.82704456654211,227.68553033031782&#10;c 98.66515193289193,-32.69 107.89744630684619,0 107.89744630684619,44.73113633634887&#10;c 0,45.06515993036396 -18.460766756875625,77.75515993036396 -41.431059754273974,45.06515993036396&#10;c -81.25,-32.69 -50.0,114.415 -136.29343111911433,227.35150673630272 c -0.0,66.73748253050753 31.25,236.7947853437214 -134.59703638057258,198.65645201038805&#10;c -32.287708996310826,-32.69 -62.25041905007768,0 -62.25041905007768,73.76021465627863&#10;c 0,83.67572529514837 71.12635846721663,116.36572529514837 143.63770800536207,83.67572529514837&#10;c 81.25,-32.69 50.0,114.415 53.209747425288185,188.74094137151832 c 0.0,51.15404022480764 -31.25,270.85451885357884 -11.277429024562958,232.71618552024552&#10;c 61.80108825252149,-32.69 175.7906389478118,0 175.7906389478118,39.70048114642117&#10;c 0,73.18215378742644 -75.99348386572706,105.87215378742644 -87.31026784316327,73.18215378742644&#10;c -81.25,-32.69 -50.0,114.415 -77.20294208008556,199.23451287924024 c -0.0,114.69897343257666 31.25,234.20289523926897 -22.312841927447135,196.06456190593562&#10;c -67.8342426069415,-32.69 -171.13577038535396,0 -171.13577038535396,76.35210476073107&#10;c 0,58.3167831561513 47.74327833733674,91.0067831561513 171.87620995322317,58.3167831561513&#10;c 81.25,-32.69 50.0,114.415 21.57240235957792,214.09988351051538 c 0.0,125.25522028906283 -31.25,237.8444155538238 109.41179388273545,199.70608222049046&#10;c 50.708215200990175,-32.69 70.06672012172567,0 70.06672012172567,72.71058444617623&#10;c 0,84.8533675217738 -66.56725144736062,117.5433675217738 -84.75955299904668,84.8533675217738&#10;c -81.25,-32.69 -50.0,114.415 -94.71896100541444,187.56329914489288 c -0.0,106.48595478468516 31.25,231.91695021879295 -74.80133765309148,193.7786168854596&#10;c -72.8051802752498,-32.69 -134.92130882634993,0 -134.92130882634993,78.63804978120709&#10;c 0,71.5959530439734 120.05685350429766,104.2859530439734 188.39471957441805,71.5959530439734&#10;c 81.25,-32.69 50.0,114.415 21.32792690502336,200.8207136226933 L 0 3269 " fill="none" stroke="black" stroke-width="0.1" style="vector-effect:non-scaling-stroke;" /></g><g><path d="M 0 0  L 1875.000000 0  c 0.0,128.93739251808347 -31.25,232.38614800565594 74.94403946349712,194.2478146723226&#10;c 89.16489954670205,-32.69 100.39661161069412,0 100.39661161069412,78.1688519943441&#10;c 0,38.77206033269687 -68.70476126897687,71.46206033269686 -78.41842605380837,38.77206033269687&#10;c -81.25,-32.69 -50.0,114.415 -96.92222502038287,233.64460633396982 c 0.0,60.150022540981496 -31.25,226.146959750566 64.506380220035,188.00862641723265&#10;c 51.56291778825889,-32.69 145.15693201263613,0 145.15693201263613,84.40804024943404&#10;c 0,53.42522463165665 -22.45584358206164,86.11522463165664 -104.48020799352591,53.42522463165665&#10;c -81.25,-32.69 -50.0,114.415 -105.18310423914522,218.99144203501004 c 0.0,32.188992351459795 -31.25,231.66214096441232 110.06269706670749,193.52380763107897&#10;c 28.40285996814074,-32.69 41.13714267659715,0 41.13714267659715,78.89285903558772&#10;c 0,67.85408616546988 -5.473909104124099,100.54408616546988 -14.18933341683649,67.85408616546988&#10;c -81.25,-32.69 -50.0,114.415 -137.01050632646815,204.5625805011968 c 0.0,92.15193555181357 -31.25,269.12784890686186 119.15228047810663,230.9895155735285&#10;c 24.092517743081768,-32.69 36.03939976104235,0 36.03939976104235,41.42715109313818&#10;c 0,73.00208955798996 -17.657091136945724,105.69208955798996 -33.07099893431348,73.00208955798996&#10;c -81.25,-32.69 -50.0,114.415 -122.1206813048355,199.41457710867672 c -0.0,63.27284732156597 31.25,255.83131621146228 -35.61645457319723,217.69298287812893&#10;c -128.95258780412914,-32.69 -174.37623440243004,0 -174.37623440243004,54.723683788537755&#10;c 0,84.7937164841232 59.445396003883026,117.48371648412319 131.57012074433058,84.7937164841232&#10;c 81.25,-32.69 50.0,114.415 78.42256823129671,187.6229501825435 c -0.0,102.27031048594101 31.25,240.70232336886565 -58.054760364802945,202.5639900355323&#10;c -113.83330404894845,-32.69 -115.49360191923483,0 -115.49360191923483,69.85267663113439&#10;c 0,80.63819081122807 76.45454803261387,113.32819081122807 151.77822997054724,80.63819081122807&#10;c 81.25,-32.69 50.0,114.415 21.770132313490535,191.77847585543861 L 0 3269 " fill="none" stroke="black" stroke-width="0.1" style="vector-effect:non-scaling-stroke;" /></g><g><path d="M 0 0  L 2500.000000 0  c -0.0,107.92528788937477 31.25,225.90864419210612 -92.85346959792294,187.77031085877277&#10;c -103.95001900511663,-32.69 -110.20837253716947,0 -110.20837253716947,84.64635580789391&#10;c 0,75.52415109641032 55.63713195631746,108.21415109641032 141.88129390950363,75.52415109641032&#10;c 81.25,-32.69 50.0,114.415 61.18054822558878,196.89251557025636 c -0.0,128.47450234868376 31.25,252.81194515881302 -9.708921106893095,214.67361182547967&#10;c -156.9588308799503,-32.69 -158.09150929738232,0 -158.09150929738232,57.74305484118702&#10;c 0,49.97599124169261 24.529354997045946,82.66599124169261 91.46471646746207,49.97599124169261&#10;c 81.25,-32.69 50.0,114.415 76.33571393681333,222.44067542497407 c -0.0,145.65509538374258 31.25,224.0386444467533 -20.608972671513452,185.90031111341995&#10;c -49.14580027181858,-32.69 -144.2892707935481,0 -144.2892707935481,86.51635555324674&#10;c 0,53.51328628573964 32.74045770247977,86.20328628573964 111.41229969826298,53.51328628573964&#10;c 81.25,-32.69 50.0,114.415 53.485943766798556,218.90338038092705 c 0.0,85.06687664133179 -31.25,270.65794500391473 117.28113134895854,232.51961167058138&#10;c 42.55023552765619,-32.69 58.82935057517197,0 58.82935057517197,39.8970549960853&#10;c 0,81.13709621875006 -185.98869208659428,113.82709621875006 -188.17632893306813,81.13709621875006&#10;c -81.25,-32.69 -50.0,114.415 12.065847008937624,191.27957044791663 c -0.0,138.43382430902633 31.25,268.3280831919401 -15.253137419490015,230.18974985860675&#10;c -61.968057732173975,-32.69 -159.50516463565447,0 -159.50516463565447,42.22691680805994&#10;c 0,46.426913190668756 35.17249699653318,79.11691319066875 50.30658270811078,46.426913190668756&#10;c 81.25,-32.69 50.0,114.415 124.45171934703369,225.98975347599793 c 0.0,41.051187450767536 -31.25,252.77626427295417 26.628580567394046,214.63793093962082&#10;c 120.68191872038187,-32.69 170.24183856747965,0 170.24183856747965,57.77873572704587&#10;c 0,57.13436922643331 -20.46147284403276,89.8243692264333 -68.8224925966783,57.13436922643331&#10;c -81.25,-32.69 -50.0,114.415 -128.04792653819538,215.28229744023338 L 0 3269 " fill="none" stroke="black" stroke-width="0.1" style="vector-effect:non-scaling-stroke;" /></g><g><path d="M 0 0  L 3125.000000 0  c 0.0,146.8500662317404 -31.25,260.840152942229 70.12280426129468,222.70181960889565&#10;c 33.861322453688956,-32.69 116.48320177539873,0 116.48320177539873,49.71484705777104&#10;c 0,84.29018288478659 -134.45734377207125,116.98018288478659 -168.6126305780688,84.29018288478659&#10;c -81.25,-32.69 -50.0,114.415 -17.993375458624598,188.1264837818801 c -0.0,152.32522826194577 31.25,228.64044189378774 -103.11569985414371,190.5021085604544&#10;c -85.38360271981776,-32.69 -88.78950105140345,0 -88.78950105140345,81.9145581062123&#10;c 0,80.91878827124145 43.34590515668508,113.60878827124145 125.0703578702555,80.91878827124145&#10;c 81.25,-32.69 50.0,114.415 66.83484303529166,191.49787839542523 c -0.0,149.37325939438605 31.25,241.1366602725637 -5.008301428170579,202.99832693923034&#10;c -64.16084557294012,-32.69 -146.83962716061328,0 -146.83962716061328,69.41833972743635&#10;c 0,64.07104122719375 101.69206604809337,96.76104122719374 138.71043986291093,64.07104122719375&#10;c 81.25,-32.69 50.0,114.415 13.137488725872913,208.34562543947294 c 0.0,39.886652203141274 -31.25,226.45868927674832 13.564473152636355,188.32035594341497&#10;c 106.40444873787492,-32.69 149.61292001624474,0 149.61292001624474,84.09631072325172&#10;c 0,67.95100432752355 -133.8097691172318,100.64100432752355 -163.24767542893008,67.95100432752355&#10;c -81.25,-32.69 -50.0,114.415 0.07028226004896965,204.46566233914314 c -0.0,47.07338642055578 31.25,242.9218485079853 9.485904439825998,204.78351517465194&#10;c -69.74091754990528,-32.69 -168.65555129578004,0 -168.65555129578004,67.63315149201475&#10;c 0,39.851344495700744 84.78327122642214,72.54134449570074 122.13730432190246,39.851344495700744&#10;c 81.25,-32.69 50.0,114.415 37.032342534051594,232.56532217096594 c -0.0,124.52244830234554 31.25,238.66095003969374 -98.78400776540954,200.5226167063604&#10;c -73.87948221119898,-32.69 -99.6254023065878,0 -99.6254023065878,71.89404996030629&#10;c 0,78.3382569519527 33.3437732444235,111.0282569519527 62.914519176897755,78.3382569519527&#10;c 81.25,-32.69 50.0,114.415 135.4948908950996,194.07840971471398 L 0 3269 " fill="none" stroke="black" stroke-width="0.1" style="vector-effect:non-scaling-stroke;" /></g><g><path d="M 0 0  L 3750.000000 0  c 0.0,99.371486759487 -31.25,261.04079428015297 40.174030841362345,222.90246094681962&#10;c 79.34843379828766,-32.69 148.78158215343169,0 148.78158215343169,49.51420571984707&#10;c 0,66.61336340026583 -143.35901260841308,99.30336340026582 -168.49725291539323,66.61336340026583&#10;c -81.25,-32.69 -50.0,114.415 -20.45836007940079,205.80330326640086 c 0.0,51.281785784578084 -31.25,261.8772330087758 60.44949494698987,223.73889967544247&#10;c 62.78282415274869,-32.69 106.32733708209172,0 106.32733708209172,48.67776699122422&#10;c 0,54.01170436201386 -52.692197316237284,86.70170436201386 -108.5451893214381,54.01170436201386&#10;c -81.25,-32.69 -50.0,114.415 -58.23164270764349,218.40496230465283 c -0.0,90.13870115849022 31.25,252.9266890704169 -11.429990232955737,214.78835573708355&#10;c -116.89592243304945,-32.69 -193.78431155255947,0 -193.78431155255947,57.62831092958314&#10;c 0,70.41179938624464 163.01066904808837,103.10179938624464 206.8924155394589,70.41179938624464&#10;c 81.25,-32.69 50.0,114.415 -1.6781137539437054,202.00486728042205 c -0.0,157.63148028424004 31.25,241.03501823493022 -109.28221058596483,202.89668490159687&#10;c -60.888830095272844,-32.69 -83.56228088151883,0 -83.56228088151883,69.51998176506982&#10;c 0,51.08846281738926 99.1626972721384,83.77846281738925 101.03693288106406,51.08846281738926&#10;c 81.25,-32.69 50.0,114.415 91.8075585864196,221.32820384927743 c 0.0,81.45225776436388 -31.25,269.3639282643497 42.87706659064485,231.22559493101636&#10;c 78.83092669419291,-32.69 152.35209354861604,0 152.35209354861604,41.191071735650326&#10;c 0,55.51851366771939 -42.23146475078471,88.20851366771939 -58.01526578405557,55.51851366771939&#10;c -81.25,-32.69 -50.0,114.415 -137.21389435520533,216.8981529989473 c 0.0,130.49145633492955 -31.25,251.98199994502795 71.72542782503126,213.8436666116946&#10;c 61.516066910229966,-32.69 115.70353635715998,0 115.70353635715998,58.573000054972084&#10;c 0,57.396693254057595 -90.48218757419758,90.0866932540576 -109.72679853808194,57.396693254057595&#10;c -81.25,-32.69 -50.0,114.415 -77.7021656441093,215.0199734126091 L 0 3269 " fill="none" stroke="black" stroke-width="0.1" style="vector-effect:non-scaling-stroke;" /></g><g><path d="M 0 0  L 4375.000000 0  c 0.0,124.89687598222902 -31.25,240.7685151133954 92.15076883882506,202.63018178006206&#10;c 76.46266326926855,-32.69 96.94179053999446,0 96.94179053999446,69.78648488660463&#10;c 0,74.8855172433245 -110.66625891251381,107.5755172433245 -182.8405711811159,74.8855172433245&#10;c -81.25,-32.69 -50.0,114.415 -6.251988197703611,197.53114942334219 c 0.0,76.03397929639266 -31.25,230.82671528471897 21.89373160338847,192.68838195138562&#10;c 62.27851127613037,-32.69 190.43963366634563,0 190.43963366634563,79.72828471528106&#10;c 0,53.45718365745171 -78.05853304830556,86.1471836574517 -103.84032219021299,53.45718365745171&#10;c -81.25,-32.69 -50.0,114.415 -108.4930430795211,218.95948300921498 c -0.0,157.0561107523602 31.25,237.15741459950786 -126.4112207799353,199.0190812661745&#10;c -9.722512565228072,-32.69 -43.43033984249958,0 -43.43033984249958,73.39758540049218&#10;c 0,54.930389232295 64.60985974669377,87.620389232295 84.06050729799927,54.930389232295&#10;c 81.25,-32.69 50.0,114.415 85.78105332443562,217.4862774343717 c 0.0,69.73979988063576 -31.25,230.78855075639098 37.045713756114765,192.65021742305763&#10;c 74.75424124131752,-32.69 154.80260808657366,0 154.80260808657366,79.76644924360906&#10;c 0,82.28693714841836 -81.09598286757974,114.97693714841836 -190.68180464162842,82.28693714841836&#10;c -81.25,-32.69 -50.0,114.415 -1.1665172010600031,190.12972951824833 c 0.0,68.29554713515326 -31.25,254.61526813725212 105.0928606156831,216.47693480391877&#10;c 86.3635343703996,-32.69 87.9848388820553,0 87.9848388820553,55.93973186274792&#10;c 0,50.108457644559394 -54.18245673979805,82.79845764455939 -145.1629914963865,50.108457644559394&#10;c -81.25,-32.69 -50.0,114.415 -47.9147080013519,222.3082090221073 c -0.0,33.826535970986384 31.25,259.9530196864447 -115.81575166358155,221.81468635311137&#10;c -29.999390843543264,-32.69 -71.35272386894309,0 -71.35272386894309,50.601980313555316&#10;c 0,51.236976943725324 109.68145623235355,83.92697694372532 112.77108236198052,51.236976943725324&#10;c 81.25,-32.69 50.0,114.415 74.39739317054412,221.17968972294136 L 0 3269 " fill="none" stroke="black" stroke-width="0.1" style="vector-effect:non-scaling-stroke;" /></g></g><g><g><path d="M 0 0  L 0 544.833333  c 41.88654996181337,-0.0 282.7984016030107,27.24166666666667 239.0484016030107,-2.3052235918267137&#10;c -37.5,-30.590209788383106 0,-142.78496772949075 73.45159839698931,-142.78496772949075&#10;c 58.22847578659571,0 95.72847578659571,41.88866549587866 58.22847578659571,139.57726933209008&#10;c -37.5,70.82833333333335 131.25,43.58666666666667 254.2715242134043,5.5129219892273795 c 99.5290320864677,0.0 279.50408762156667,-27.24166666666667 235.75408762156664,30.46903309068432&#10;c -37.5,45.83829214418644 0,153.951090170328 76.74591237843336,153.951090170328&#10;c 67.51401323443469,0 105.01401323443469,-66.71883960393647 67.51401323443469,-71.7232778406031&#10;c -37.5,-70.82833333333335 131.25,-43.58666666666667 244.98598676556531,-112.69684542040922 c 98.99143479713065,-0.0 279.11969977791455,27.24166666666667 235.36969977791452,-72.86314845565681&#10;c -37.5,-72.36921809876628 0,-108.54805657211227 77.13030022208548,-108.54805657211227&#10;c 72.38876993699182,0 109.88876993699182,48.68555290668126 72.38876993699182,182.84235399377522&#10;c -37.5,70.82833333333335 131.25,43.58666666666667 240.11123006300818,-1.431148966006134 c 179.6840208197947,0.0 280.8591788032188,-27.24166666666667 237.10917880321878,67.56667347219849&#10;c -37.5,70.77862922065633 0,87.3457971605279 75.39082119678122,87.3457971605279&#10;c 79.60259527917708,0 117.10259527917708,-49.64358218064731 79.60259527917708,-79.18795192127382&#10;c -37.5,-70.82833333333335 131.25,-43.58666666666667 232.89740472082292,-75.72451871145256 c 101.42696621068679,-0.0 263.46745063058034,27.24166666666667 219.71745063058032,-18.104100356111676&#10;c -37.5,-140.2811641647964 0,-158.55879825793278 92.78254936941968,-158.55879825793278&#10;c 61.543345565352695,0 99.0433455653527,17.601873540715665 61.543345565352695,58.02112481884167&#10;c -37.5,70.82833333333335 131.25,43.58666666666667 250.9566544346473,118.64177379520278 c 144.56563403284542,0.0 264.9941323364478,-27.24166666666667 221.24413233644782,115.78482476985506&#10;c -37.5,23.561806902284765 0,29.13738875967293 91.25586766355218,29.13738875967293&#10;c 48.94556368677041,0 86.44556368677041,-50.29318478640809 48.94556368677041,-125.44479720679833&#10;c -37.5,-70.82833333333335 131.25,-43.58666666666667 263.5544363132296,-19.477416322729667 c 49.72590290257878,0.0 294.4383531631862,-27.24166666666667 250.6883531631862,83.56459342392944&#10;c -37.5,56.9152654935386 0,95.24214080458424 61.81164683681379,95.24214080458424&#10;c 54.815493093287046,0 92.31549309328705,-21.288710680362936 54.815493093287046,-63.56411268530093&#10;c -37.5,-70.82833333333335 131.25,-43.58666666666667 257.68450690671295,-115.24262154321275 c 157.39248148203993,0.0 288.10063419600027,-27.24166666666667 244.35063419600027,32.77384346130527&#10;c -37.5,33.50705466439985 0,109.53335883776401 68.14936580399973,109.53335883776401&#10;c 84.93433600009536,0 122.43433600009536,-46.34337248271283 84.93433600009536,-87.27503446797749&#10;c -37.5,-70.82833333333335 131.25,-43.58666666666667 227.56566399990464,-55.03216783109178 L 5000 0 " fill="none" stroke="black" stroke-width="0.1" style="vector-effect:non-scaling-stroke;" /></g><g><path d="M 0 0  L 0 1089.666667  c 117.92227580982178,0.0 263.38883075539457,-27.24166666666667 219.63883075539454,119.45204569001925&#10;c -37.5,9.393392549672495 0,35.998540506556395 92.86116924460546,35.998540506556395&#10;c 65.93470876466927,0 103.43470876466927,-21.265921339996773 65.93470876466927,-80.94091567547997&#10;c -37.5,-70.82833333333335 131.25,-43.58666666666667 246.56529123533073,-74.50967052109567 c 172.3394846559754,-0.0 286.1919476399993,27.24166666666667 242.44194763999926,-21.685416943612193&#10;c -37.5,-108.03165868085027 0,-157.09406922549084 70.05805236000074,-157.09406922549084&#10;c 93.06636813709594,0 130.56636813709594,138.99245014837135 93.06636813709594,142.77429816835394&#10;c -37.5,70.82833333333335 131.25,43.58666666666667 219.43363186290406,36.00518800074909 c 138.2959938068135,-0.0 287.61820449638685,27.24166666666667 243.86820449638685,1.5395540087675428&#10;c -37.5,-136.10148246754963 0,-154.06826718883875 68.63179550361315,-154.06826718883875&#10;c 59.41794432354834,0 96.91794432354834,111.52118813631047 59.41794432354834,115.31516195823586&#10;c -37.5,70.82833333333335 131.25,43.58666666666667 253.08205567645166,37.213551221835345 c 173.94270972255754,0.0 272.78774357557904,-27.24166666666667 229.03774357557901,119.41046451539941&#10;c -37.5,33.38722691232125 0,47.62112775430987 83.46225642442099,47.62112775430987&#10;c 93.70442918712098,0 131.20442918712098,-26.555510038323412 93.70442918712098,-76.74367838961568&#10;c -37.5,-70.82833333333335 131.25,-43.58666666666667 218.79557081287902,-90.2879138800936 c 64.60270932545836,-0.0 278.14145790593284,27.24166666666667 234.39145790593284,-112.8609428610685&#10;c -37.5,-12.571778576257204 0,-21.716449316981183 78.10854209406716,-21.716449316981183&#10;c 68.55532956886128,0 106.05532956886128,56.68893887859416 68.55532956886128,93.55005839287057&#10;c -37.5,70.82833333333335 131.25,43.58666666666667 243.94467043113872,41.02733378517911 c 153.4054966169026,-0.0 307.37065953698993,27.24166666666667 263.62065953698993,-89.8099803467598&#10;c -37.5,-28.98421906037692 0,-64.50688103341247 48.87934046301007,-64.50688103341247&#10;c 62.98798906599973,0 100.48798906599973,28.396842825161535 62.98798906599973,66.84839447595508&#10;c -37.5,70.82833333333335 131.25,43.58666666666667 249.51201093400027,87.4684669042172 c 59.23990949236943,-0.0 264.0338066503418,27.24166666666667 220.28380665034177,-9.384112577742002&#10;c -37.5,-49.86316426617735 0,-139.53266234367229 92.21619334965823,-139.53266234367229&#10;c 68.04992685512906,0 105.54992685512906,15.59495642115845 68.04992685512906,44.930496545006434&#10;c -37.5,70.82833333333335 131.25,43.58666666666667 244.45007314487094,103.98627837640785 c 57.35931120480248,0.0 306.61768101235305,-27.24166666666667 262.86768101235305,48.368564923889025&#10;c -37.5,61.159347110676684 0,103.6348728625321 49.632318987646954,103.6348728625321&#10;c 98.75476055121584,0 136.25476055121584,-53.10146197194577 98.75476055121584,-83.52262459444995&#10;c -37.5,-70.82833333333335 131.25,-43.58666666666667 213.74523944878416,-68.48081319197118 L 5000 0 " fill="none" stroke="black" stroke-width="0.1" style="vector-effect:non-scaling-stroke;" /></g><g><path d="M 0 0  L 0 1634.500000  c 76.71706454748374,-0.0 293.7336282190347,27.24166666666667 249.9836282190347,2.9765134501872192&#10;c -37.5,-105.86850600370944 0,-172.16012608720416 62.5163717809653,-172.16012608720416&#10;c 49.59341934276392,0 87.09341934276392,150.4211212555494 49.59341934276392,170.8566027100471&#10;c -37.5,70.82833333333335 131.25,43.58666666666667 262.9065806572361,-1.6729900730301495 c 75.72796206848854,0.0 272.35455456924143,-27.24166666666667 228.6045545692414,11.624011707230473&#10;c -37.5,110.59548780201293 0,151.22062721364807 83.8954454307586,151.22062721364807&#10;c 83.07734081712323,0 120.57734081712323,-103.77685985863678 83.07734081712323,-108.17598150157326&#10;c -37.5,-70.82833333333335 131.25,-43.58666666666667 229.42265918287677,-54.668657419305276 c 116.08867324750145,0.0 309.3915359629679,-27.24166666666667 265.6415359629679,88.62491369776477&#10;c -37.5,44.02553834925921 0,69.08438375471236 46.85846403703209,69.08438375471236&#10;c 87.1260301141607,0 124.6260301141607,-75.89677070908219 87.1260301141607,-147.70930253296376&#10;c -37.5,-70.82833333333335 131.25,-43.58666666666667 225.3739698858393,-9.99999491951337 c 84.03711007216081,-0.0 283.44222520293744,27.24166666666667 239.6922252029374,-88.15475598751156&#10;c -37.5,-50.54571588112522 0,-85.9912299771501 72.80777479706259,-85.9912299771501&#10;c 52.865410322114315,0 90.36541032211431,175.00608224560727 52.865410322114315,178.485926064172&#10;c -37.5,70.82833333333335 131.25,43.58666666666667 259.6345896778857,-4.339940099510329 c 147.41301095001575,-0.0 267.6819931184497,27.24166666666667 223.9319931184497,-9.677643483312476&#10;c -37.5,-127.39793388339932 0,-157.1686288914915 88.5680068815503,-157.1686288914915&#10;c 68.63778159202911,0 106.13778159202911,22.283002476444114 68.63778159202911,100.17013285556713&#10;c -37.5,70.82833333333335 131.25,43.58666666666667 243.8622184079709,66.67613951923683 c 46.38507569586203,0.0 296.3541141834653,-27.24166666666667 252.6041141834653,77.58523620952415&#10;c -37.5,85.73742628622448 0,97.16815987113993 59.8958858165347,97.16815987113993&#10;c 58.93166331869139,0 96.43166331869139,-37.61104340015955 58.93166331869139,-102.67393992974742&#10;c -37.5,-70.82833333333335 131.25,-43.58666666666667 253.5683366813086,-72.07945615091667 c 89.30649478077629,0.0 288.9528939819351,-27.24166666666667 245.2028939819351,115.57331489837348&#10;c -37.5,50.92395584346252 0,56.61185867318635 67.29710601806491,56.61185867318635&#10;c 59.88305088107779,0 97.38305088107779,-96.59752658621397 59.88305088107779,-122.77052475681496&#10;c -37.5,-70.82833333333335 131.25,-43.58666666666667 252.6169491189222,-49.414648814744865 c 149.18438823458436,-0.0 277.543089014728,27.24166666666667 233.793089014728,-5.001080565384076&#10;c -37.5,-111.39954392255787 0,-173.6404545030073 78.706910985272,-173.6404545030073&#10;c 59.175963009610655,0 96.67596300961065,38.03756411418674 59.175963009610655,158.35293999261225&#10;c -37.5,70.82833333333335 131.25,43.58666666666667 253.32403699038935,20.288595075779142 L 5000 0 " fill="none" stroke="black" stroke-width="0.1" style="vector-effect:non-scaling-stroke;" /></g><g><path d="M 0 0  L 0 2179.333333  c 163.04639551736665,0.0 268.42040146256033,-27.24166666666667 224.67040146256033,51.80141496051634&#10;c -37.5,31.205327611002623 0,99.38207638016742 87.82959853743967,99.38207638016742&#10;c 56.990496033459806,0 94.4904960334598,-45.59420974311739 56.990496033459806,-73.78486839288016&#10;c -37.5,-70.82833333333335 131.25,-43.58666666666667 255.5095039665402,-77.3986229478036 c 89.92863491581352,0.0 276.4630881184817,-27.24166666666667 232.7130881184817,20.835410715424587&#10;c -37.5,101.1435792460697 0,117.44583991876974 79.78691188151831,117.44583991876974&#10;c 57.542937657085304,0 95.0429376570853,-115.82779097899147 57.542937657085304,-134.86465528081322&#10;c -37.5,-70.82833333333335 131.25,-43.58666666666667 254.9570623429147,-3.4165953533810978 c 149.61715584596232,-0.0 268.2834905759778,27.24166666666667 224.5334905759778,-19.941155040929488&#10;c -37.5,-25.46626242794584 0,-117.39395613460408 87.9665094240222,-117.39395613460408&#10;c 78.12226452396061,0 115.62226452396061,24.17265845521768 78.12226452396061,70.46125836875561&#10;c -37.5,70.82833333333335 131.25,43.58666666666667 234.3777354760394,66.87385280677796 c 158.57698406693746,0.0 285.3560480442948,-27.24166666666667 241.60604804429482,80.16525328217598&#10;c -37.5,52.220976254253834 0,84.4315079481188 70.89395195570518,84.4315079481188&#10;c 76.41612234605327,0 113.91612234605327,-68.60408519744492 76.41612234605327,-127.87257886035155&#10;c -37.5,-70.82833333333335 131.25,-43.58666666666667 236.08387765394673,-36.724182369943236 c 76.81980644250976,-0.0 268.1074489021655,27.24166666666667 224.35744890216552,-33.93966811164583&#10;c -37.5,-114.86429093501775 0,-120.900335091085 88.14255109783448,-120.900335091085&#10;c 67.09070915337412,0 104.59070915337412,45.720803099375345 67.09070915337412,79.81325074224438&#10;c -37.5,70.82833333333335 131.25,43.58666666666667 245.40929084662588,75.02675246048645 c 146.10408712963834,0.0 266.5263864662676,-27.24166666666667 222.77638646626755,75.56423235538749&#10;c -37.5,48.06657000516257 0,109.67149737618577 89.72361353373245,109.67149737618577&#10;c 85.3433670901859,0 122.8433670901859,-37.64596385088628 85.3433670901859,-70.24715184129384&#10;c -37.5,-70.82833333333335 131.25,-43.58666666666667 227.1566329098141,-114.98857789027942 c 167.50901522875557,-0.0 287.6567214635097,27.24166666666667 243.9067214635097,-119.82013785969842&#10;c -37.5,-30.857162065937736 0,-43.94184499397015 68.59327853649029,-43.94184499397015&#10;c 73.74299031589192,0 111.24299031589192,74.11562706632762 73.74299031589192,79.27489489052368&#10;c -37.5,70.82833333333335 131.25,43.58666666666667 238.75700968410808,84.48708796314489 c 114.5185837092088,0.0 258.40182865072217,-27.24166666666667 214.65182865072214,113.63522143298442&#10;c -37.5,52.390867242537986 0,71.32974601804096 97.84817134927786,71.32974601804096&#10;c 91.12444292727736,0 128.62444292727736,-131.64099673561273 91.12444292727736,-152.04290468507392&#10;c -37.5,-70.82833333333335 131.25,-43.58666666666667 221.37555707272264,-32.922062765951466 L 5000 0 " fill="none" stroke="black" stroke-width="0.1" style="vector-effect:non-scaling-stroke;" /></g><g><path d="M 0 0  L 0 2724.166667  c 102.46253603804796,0.0 269.9095730287664,-27.24166666666667 226.15957302876637,93.61881464433714&#10;c -37.5,23.75064908078936 0,60.85913811695784 86.34042697123363,60.85913811695784&#10;c 97.58469394255246,0 135.08469394255246,-39.97415878322278 97.58469394255246,-148.39966174775742&#10;c -37.5,-70.82833333333335 131.25,-43.58666666666667 214.91530605744754,-6.078291013537552 c 87.64505149379221,0.0 290.35872969485274,-27.24166666666667 246.6087296948527,10.759120226898448&#10;c -37.5,146.84988858023337 0,167.01076354968907 65.89127030514729,167.01076354968907&#10;c 58.29797320863065,0 95.79797320863065,-113.05947026894997 58.29797320863065,-151.59970543231913&#10;c -37.5,-70.82833333333335 131.25,-43.58666666666667 254.20202679136935,-26.170178344268407 c 140.44817197796917,-0.0 256.8836184455182,27.24166666666667 213.13361844551818,-57.50684115127001&#10;c -37.5,-69.94920624532675 0,-96.56229119131808 99.36638155448182,-96.56229119131808&#10;c 62.13209577981314,0 99.63209577981314,99.59683341893641 62.13209577981314,107.28715332124347&#10;c -37.5,70.82833333333335 131.25,43.58666666666667 250.36790422018686,46.781979021344625 c 69.95179151753666,0.0 304.5352523011768,-27.24166666666667 260.7852523011768,60.49361095447842&#10;c -37.5,86.6770163011004 0,102.67647584978764 51.7147476988232,102.67647584978764&#10;c 60.0495133959148,0 97.5495133959148,-30.237225995354382 60.0495133959148,-98.15507075002375&#10;c -37.5,-70.82833333333335 131.25,-43.58666666666667 252.4504866040852,-65.0150160542423 c 129.44742802362435,-0.0 267.8232317107564,27.24166666666667 224.07323171075637,0.10629645674294845&#10;c -37.5,-73.33691504643122 0,-171.7217669209857 88.42676828924363,-171.7217669209857&#10;c 59.32471997827804,0 96.82471997827804,60.96903770777641 59.32471997827804,159.03480809517183&#10;c -37.5,70.82833333333335 131.25,43.58666666666667 253.17528002172196,12.580662369070922 c 105.30493131286956,-0.0 306.184454348828,27.24166666666667 262.434454348828,-47.96781782177713&#10;c -37.5,-40.64606427811392 0,-91.06899514637492 50.06554565117199,-91.06899514637492&#10;c 94.27416197126246,0 131.77416197126246,25.854723928858682 94.27416197126246,115.07867188216497&#10;c -37.5,70.82833333333335 131.25,43.58666666666667 218.22583802873754,23.95814108598708 c 44.73633321517804,0.0 270.0912322172151,-27.24166666666667 226.3412322172151,79.32552787778971&#10;c -37.5,37.25234654744821 0,56.60601849791502 86.1587677827849,56.60601849791502&#10;c 93.00899099248795,0 130.50899099248795,-16.919802944006353 93.00899099248795,-46.48088700576726&#10;c -37.5,-70.82833333333335 131.25,-43.58666666666667 219.49100900751205,-89.45065936993747 c 39.32826922288361,0.0 266.13396059694094,-27.24166666666667 222.3839605969409,26.03070071816262&#10;c -37.5,41.75957712244525 0,112.89974361541726 90.11603940305909,112.89974361541726&#10;c 70.67950404520695,0 108.17950404520695,-86.29637578801433 70.67950404520695,-126.74829684857977&#10;c -37.5,-70.82833333333335 131.25,-43.58666666666667 241.82049595479305,-12.182147485000115 L 5000 0 " fill="none" stroke="black" stroke-width="0.1" style="vector-effect:non-scaling-stroke;" /></g></g></svg>