<svg baseProfile="full" height="3024" preserveAspectRatio="none" shape-rendering="geometricPrecision" version="1.1" viewBox="0,0,4032,3024" width="4032" xmlns="http://www.w3.org/2000/svg" xmlns:ev="http://www.w3.org/2001/xml-events" xmlns:xlink="http://www.w3.org/1999/xlink"><title>Jigsaw puzzle piece clips</title><desc>Created with the piecemaker. Piece count: 42</desc><defs/><g><g><rect fill="white" height="3024" width="4032" x="0" y="0"/></g></g><g><g><path d="M 0 0  L 576.000000 0  c 0.0,58.86260227597594 -28.8,230.330141381118 89.95520427283199,195.050141381118
c 25.813386179328372,-30.24 72.77845045338117,0 72.77845045338117,56.94985861888199
c 0,67.13099057820426 -52.83689683735773,97.37099057820426 -117.80602378341719,67.13099057820426
c -74.88,-30.24 -46.08,105.83999999999999 -44.92763094279597,184.86900942179574 c -0.0,33.209338142138 28.8,235.7706511585357 -44.589007945658,200.4906511585357
c -90.84591125429539,-30.24 -97.12567001818628,0 -97.12567001818628,51.50934884146429
c 0,51.19127530744851 38.868601295933,81.4312753074485 61.89417346678026,51.19127530744851
c 74.88,-30.24 46.08,105.83999999999999 79.82050449706402,200.8087246925515 c -0.0,116.71610192890833 28.8,241.70560200876935 -85.07248225037199,206.42560200876935
c -27.595094192129615,-30.24 -99.30271439284007,0 -99.30271439284007,45.574397991230654
c 0,42.24938409795493 138.01961933282092,72.48938409795493 152.60040572540473,42.24938409795493
c 74.88,-30.24 46.08,105.83999999999999 31.774790917807337,209.75061590204507 c -0.0,140.87060369011084 28.8,210.06665710205368 -10.260132912397319,174.78665710205368
c -78.12577545225535,-30.24 -154.81219271071404,0 -154.81219271071404,77.21334289794632
c 0,45.179362595180464 131.93646248763363,75.41936259518046 164.00496023097404,45.179362595180464
c 74.88,-30.24 46.08,105.83999999999999 1.067365392137333,206.82063740481954 c -0.0,133.10957095137346 28.8,234.25721574740317 -54.915450092105594,198.97721574740316
c -86.99568641948778,-30.24 -105.63973815274389,0 -105.63973815274389,53.022784252596836
c 0,62.91062387365997 32.1458457921357,93.15062387365997 39.786039550377936,62.91062387365997
c 74.88,-30.24 46.08,105.83999999999999 120.76914869447155,189.08937612634003 c -0.0,82.20349731938866 28.8,242.71556408541818 -113.35640368967739,207.43556408541818
c -22.46727849488661,-30.24 -51.12052954286932,0 -51.12052954286932,44.56443591458182
c 0,79.34775220602648 72.20958697887461,109.58775220602648 99.83994217171119,79.34775220602648
c 74.88,-30.24 46.08,105.83999999999999 64.63699106083553,172.65224779397352 L 0 3024 " fill="none" stroke="black" stroke-width="0.1" style="vector-effect:non-scaling-stroke;"/></g><g><path d="M 0 0  L 1152.000000 0  c 0.0,136.02149191827672 -28.8,220.18457708414692 92.4742757772648,184.90457708414692
c 34.46399969009757,-30.24 60.489875184971865,0 60.489875184971865,67.09542291585308
c 0,39.041634526094015 -80.016608366077,69.28163452609401 -156.18792772741804,39.041634526094015
c -74.88,-30.24 -46.08,105.83999999999999 3.223776765181384,212.95836547390599 c 0.0,28.132091144530058 -28.8,236.89844640554185 33.33515719484373,201.61844640554185
c 50.970381579234896,-30.24 147.4891447453497,0 147.4891447453497,50.381553594458154
c 0,63.5913801778276 -57.42822305345568,93.8313801778276 -76.64568119531761,63.5913801778276
c -74.88,-30.24 -46.08,105.83999999999999 -104.17862074487583,188.4086198221724 c 0.0,26.46542358552025 -28.8,228.7356380653355 80.79591183172502,193.4556380653355
c 20.674676368128665,-30.24 87.07556520221974,0 87.07556520221974,58.544361934664494
c 0,67.96360505942289 -114.47313917038122,98.20360505942288 -128.5328457877417,67.96360505942289
c -74.88,-30.24 -46.08,105.83999999999999 -39.33863124620305,184.0363949405771 c 0.0,32.1996303523206 -28.8,227.00514425925508 109.17821550715982,191.72514425925507
c 20.46157623066816,-30.24 74.99096604519457,0 74.99096604519457,60.274855740744925
c 0,38.64068607215421 -89.32795830332154,68.8806860721542 -119.34215799964686,38.64068607215421
c -74.88,-30.24 -46.08,105.83999999999999 -64.82702355270753,213.3593139278458 c -0.0,78.92310021706261 28.8,234.85500834731084 -34.980133038935335,199.57500834731084
c -39.72521731053726,-30.24 -118.84874882826578,0 -118.84874882826578,52.42499165268916
c 0,52.53577079742166 11.755340095549325,82.77577079742166 53.810162040795205,52.53577079742166
c 74.88,-30.24 46.08,105.83999999999999 100.01871982640591,199.46422920257834 c -0.0,59.80366253034924 28.8,226.20702485998928 -58.94742544570317,190.92702485998927
c -91.25176088595242,-30.24 -113.87426279331527,0 -113.87426279331527,61.072975140010726
c 0,69.36568801852911 74.28181900113097,99.60568801852911 92.18040536608511,69.36568801852911
c 74.88,-30.24 46.08,105.83999999999999 80.64128287293333,182.6343119814709 L 0 3024 " fill="none" stroke="black" stroke-width="0.1" style="vector-effect:non-scaling-stroke;"/></g><g><path d="M 0 0  L 1728.000000 0  c 0.0,76.73584969397486 -28.8,245.26573700205105 80.11250466138159,209.98573700205105
c 51.075867062967994,-30.24 105.31236698116552,0 105.31236698116552,42.01426299794895
c 0,60.61715988923487 -37.45519813310209,90.85715988923486 -133.96390004163908,60.61715988923487
c -74.88,-30.24 -46.08,105.83999999999999 -51.46097160090804,191.38284011076513 c -0.0,61.72808037200767 28.8,214.70388310998388 -115.59393287448728,179.42388310998388
c -63.58222928760652,-30.24 -79.85556728377628,0 -79.85556728377628,72.57611689001612
c 0,51.52567873407452 58.81047791289834,81.76567873407451 178.7531239535366,51.52567873407452
c 74.88,-30.24 46.08,105.83999999999999 16.69637620472696,200.47432126592548 c 0.0,51.981110524135815 -28.8,251.2004391079156 -5.6127549079324,215.9204391079156
c 144.44793908706043,-30.24 163.5664892285421,0 163.5664892285421,36.0795608920844
c 0,50.608065997447454 -44.62596341480866,80.84806599744745 -101.19111890689112,50.608065997447454
c -74.88,-30.24 -46.08,105.83999999999999 -56.76261541371858,201.39193400255255 c 0.0,91.09808955749966 -28.8,219.59641907416184 103.7574856960953,184.31641907416184
c 17.950169682212138,-30.24 49.433303261996855,0 49.433303261996855,67.68358092583816
c 0,39.962619558005656 -92.75347548771465,70.20261955800565 -124.6111644296889,39.962619558005656
c -74.88,-30.24 -46.08,105.83999999999999 -28.579624528403258,212.03738044199434 c -0.0,93.2604732417722 28.8,238.0180968777499 -28.386609112310772,202.7380968777499
c -64.19868652754124,-30.24 -115.78129147958504,0 -115.78129147958504,49.26190312225009
c 0,53.90988971249942 40.26569934113401,84.14988971249942 84.05316209249449,53.90988971249942
c 74.88,-30.24 46.08,105.83999999999999 60.11473849940131,198.09011028750058 c 0.0,125.48333542737454 -28.8,227.32551280983532 64.43081523444238,192.04551280983532
c 79.96144277062731,-30.24 82.76130061641757,0 82.76130061641757,59.954487190164684
c 0,60.53178737883013 -15.113208769796106,90.77178737883013 -35.01577609228218,60.53178737883013
c -74.88,-30.24 -46.08,105.83999999999999 -112.17633975857777,191.46821262116987 L 0 3024 " fill="none" stroke="black" stroke-width="0.1" style="vector-effect:non-scaling-stroke;"/></g><g><path d="M 0 0  L 2304.000000 0  c 0.0,25.98256846075094 -28.8,211.256230650169 106.73678442039649,175.976230650169
c 47.288124878222064,-30.24 55.86698798704872,0 55.86698798704872,76.02376934983101
c 0,69.50689037423615 -43.715470551792635,99.74689037423614 -82.13318847505003,69.50689037423615
c -74.88,-30.24 -46.08,105.83999999999999 -80.47058393239517,182.49310962576385 c -0.0,111.5269800155798 28.8,208.2651496046986 -35.92582754094611,172.9851496046986
c -107.52390915206443,-30.24 -149.44538196875837,0 -149.44538196875837,79.01485039530141
c 0,69.71328974950745 55.412584130212714,99.95328974950745 187.29790853527598,69.71328974950745
c 74.88,-30.24 46.08,105.83999999999999 -1.9266990255715086,182.28671025049255 c -0.0,129.4162793480036 28.8,226.9807357895727 -35.36427826361856,191.7007357895727
c -84.78447767349311,-30.24 -118.03982555546716,0 -118.03982555546716,60.29926421042731
c 0,60.60127427726411 14.580575936293883,90.8412742772641 44.75663034521625,60.60127427726411
c 74.88,-30.24 46.08,105.83999999999999 108.64747347386947,191.3987257227359 c 0.0,48.09414443869153 -28.8,215.98887391239373 29.18494562669606,180.70887391239373
c 63.72200367414005,-30.24 160.29218779946768,0 160.29218779946768,71.29112608760627
c 0,74.68003523507315 -87.6087210445051,104.92003523507314 -168.77518620705393,74.68003523507315
c -74.88,-30.24 -46.08,105.83999999999999 -20.701947219109798,177.31996476492685 c -0.0,105.44501038484574 28.8,240.81564980623173 -45.66265637759501,205.53564980623173
c -35.269703378535894,-30.24 -115.36951056599678,0 -115.36951056599678,46.46435019376827
c 0,43.77825099554656 85.4590943565948,74.01825099554655 101.13794994627713,43.77825099554656
c 74.88,-30.24 46.08,105.83999999999999 59.89421699731466,208.22174900445344 c -0.0,83.98460498596637 28.8,219.77881826101043 -44.7480223517323,184.49881826101043
c -46.02439810980506,-30.24 -135.81504024695215,0 -135.81504024695215,67.50118173898957
c 0,44.13166421376593 35.87792055460041,74.37166421376592 115.34752498878996,44.13166421376593
c 74.88,-30.24 46.08,105.83999999999999 65.21553760989448,207.86833578623407 L 0 3024 " fill="none" stroke="black" stroke-width="0.1" style="vector-effect:non-scaling-stroke;"/></g><g><path d="M 0 0  L 2880.000000 0  c 0.0,99.59522962288902 -28.8,242.87576225471557 74.606322589563,207.59576225471557
c 36.128387290420456,-30.24 83.80060452441063,0 83.80060452441063,44.40423774528443
c 0,79.98279257800232 -38.044444143246885,110.22279257800231 -48.80957475438383,79.98279257800232
c -74.88,-30.24 -46.08,105.83999999999999 -109.5973523595898,172.01720742199768 c 0.0,36.60376370335487 -28.8,234.98463235462907 64.07706784535048,199.70463235462907
c 43.2193642722067,-30.24 94.05043827471204,0 94.05043827471204,52.29536764537093
c 0,69.84105052179649 -48.676450872620165,100.08105052179648 -96.96697251897055,69.84105052179649
c -74.88,-30.24 -46.08,105.83999999999999 -61.16053360109197,182.1589494782035 c -0.0,133.43808604998372 28.8,221.46537243382997 -29.0414404353186,186.18537243382997
c -113.80436266454689,-30.24 -164.85007807214328,0 -164.85007807214328,65.81462756617003
c 0,73.97120904088172 58.3480259248732,104.21120904088171 113.83774824533593,73.97120904088172
c 74.88,-30.24 46.08,105.83999999999999 80.05377026212595,178.02879095911828 c 0.0,44.906714074962544 -28.8,234.50839239288328 51.35558402155269,199.22839239288328
c 85.09895241940188,-30.24 88.41856868143677,0 88.41856868143677,52.77160760711672
c 0,67.08969720788156 -90.44653429444683,97.32969720788155 -139.7791318319487,67.08969720788156
c -74.88,-30.24 -46.08,105.83999999999999 0.004979128959234913,184.91030279211844 c 0.0,144.9486753458382 -28.8,250.54163204382922 27.118952424034916,215.26163204382922
c 73.34370439993913,-30.24 141.26843047006204,0 141.26843047006204,36.73836795617078
c 0,39.95062445042976 -26.970782993831907,70.19062445042975 -58.75600774217186,39.95062445042976
c -74.88,-30.24 -46.08,105.83999999999999 -109.6313751519251,212.04937554957024 c -0.0,105.81318053753377 28.8,235.15149628965796 -38.701087517842126,199.87149628965796
c -121.56205809255796,-30.24 -128.28020799595757,0 -128.28020799595757,52.128503710342045
c 0,61.34023712691862 58.2572194352996,91.58023712691862 58.94759229394181,61.34023712691862
c 74.88,-30.24 46.08,105.83999999999999 108.03370321985788,190.65976287308138 L 0 3024 " fill="none" stroke="black" stroke-width="0.1" style="vector-effect:non-scaling-stroke;"/></g><g><path d="M 0 0  L 3456.000000 0  c -0.0,52.66509675473798 28.8,248.1219789197969 -30.11104649041932,212.8419789197969
c -134.93312381978387,-30.24 -157.6810484713367,0 -157.6810484713367,39.1580210802031
c 0,68.12309997961444 87.9171561099087,98.36309997961443 125.23961006536916,68.12309997961444
c 74.88,-30.24 46.08,105.83999999999999 62.55248489638686,183.87690002038556 c -0.0,31.888034250130225 28.8,242.61752385179244 -119.68290435157452,207.33752385179244
c -10.776925225795171,-30.24 -35.44584020372132,0 -35.44584020372132,44.66247614820756
c 0,54.90123955521966 70.22983363508145,85.14123955521966 111.18638989583815,54.90123955521966
c 74.88,-30.24 46.08,105.83999999999999 43.94235465945769,197.09876044478034 c 0.0,121.90295765837037 -28.8,245.84638844663894 -2.469485196793023,210.56638844663894
c 69.87253491987715,-30.24 175.8581333328972,0 175.8581333328972,41.43361155336106
c 0,63.091249827048784 -33.015988456412956,93.33124982704878 -154.6919043600315,63.091249827048784
c -74.88,-30.24 -46.08,105.83999999999999 -18.696743776072708,188.90875017295122 c -0.0,122.80084707539699 28.8,221.4432334435328 -80.07856178034186,186.1632334435328
c -78.55010377663373,-30.24 -109.66172826758086,0 -109.66172826758086,65.83676655646721
c 0,53.1301453484283 72.21624940427178,83.3701453484283 100.551591164312,53.1301453484283
c 74.88,-30.24 46.08,105.83999999999999 89.18869888361071,198.8698546515717 c -0.0,112.19077948783054 28.8,211.7224928566777 -81.54352607625815,176.4424928566777
c -67.08720861154818,-30.24 -101.390290602127,0 -101.390290602127,75.55750714332231
c 0,52.79127116348707 46.98439323011128,83.03127116348706 126.50789988277347,52.79127116348707
c 74.88,-30.24 46.08,105.83999999999999 56.42591679561167,199.20872883651293 c 0.0,110.31511624900206 -28.8,227.83757050314392 -9.933489393225624,192.55757050314392
c 39.272441691422756,-30.24 158.70930092692853,0 158.70930092692853,59.44242949685608
c 0,63.838829347925866 -91.33825467726679,94.07882934792586 -120.7874613846816,63.838829347925866
c -74.88,-30.24 -46.08,105.83999999999999 -27.988350149021315,188.16117065207413 L 0 3024 " fill="none" stroke="black" stroke-width="0.1" style="vector-effect:non-scaling-stroke;"/></g></g><g><g><path d="M 0 0  L 0 504.000000  c 143.39925564063634,0.0 257.02139504253694,-25.200000000000003 216.70139504253692,22.78787039765779
c -34.56,142.1341069811474 0,141.99620710870911 71.29860495746308,141.99620710870911
c 70.41878097864924,0 104.97878097864924,-160.24952457270948 70.41878097864924,-173.34012462728035
c -34.56,-65.52 120.96,-40.32 217.58121902135076,8.556047120913433 c 104.11204742218965,-0.0 238.0070867961224,25.200000000000003 197.6870867961224,-83.23198004943123
c -34.56,-12.50975015776787 0,-53.96981265805866 90.3129132038776,-53.96981265805866
c 59.829222214107745,0 94.38922221410775,8.957028525505466 59.829222214107745,28.367872405699003
c -34.56,65.52 120.96,40.32 228.17077778589226,108.83392030179088 c 145.413829606969,0.0 250.3476076132343,-25.200000000000003 210.02760761323427,105.09063266685118
c -34.56,65.704585474467 0,65.4546432112962 77.97239238676573,65.4546432112962
c 57.16089344773127,0 91.72089344773127,-96.72589463935142 57.16089344773127,-128.02030356396367
c -34.56,-65.52 120.96,-40.32 230.83910655226873,-42.524972314183714 c 156.47628251254372,-0.0 275.2613912765344,25.200000000000003 234.9413912765344,-84.61598966088134
c -34.56,-20.898259369956573 0,-53.9604254254851 53.058608723465596,-53.9604254254851
c 77.68072054101242,0 112.24072054101242,77.15751734494744 77.68072054101242,110.86511667484316
c -34.56,65.52 120.96,40.32 210.31927945898758,27.711298411523273 c 102.68971358883377,-0.0 260.2229365613199,25.200000000000003 219.90293656131988,-102.05051664791239
c -34.56,-26.295566372238795 0,-37.88136540573976 68.09706343868012,-37.88136540573976
c 57.980255804503486,0 92.54025580450349,82.78637023171324 57.980255804503486,82.9874698250872
c -34.56,65.52 120.96,40.32 230.01974419549651,56.94441222856494 c 126.40449630895131,0.0 264.0590113382801,-25.200000000000003 223.73901133828005,74.4208296908703
c -34.56,20.574391814189294 0,67.84790554590839 64.26098866171995,67.84790554590839
c 62.48237414661264,0 97.04237414661264,-68.51147490779583 62.48237414661264,-107.41227736893684
c -34.56,-65.52 120.96,-40.32 225.51762585338736,-34.856457867841854 c 65.42139477495786,0.0 262.34780189256554,-25.200000000000003 222.02780189256555,46.68219852558677
c -34.56,52.280259599274245 0,111.51496178440344 65.97219810743445,111.51496178440344
c 61.69139954805678,0 96.25139954805678,-87.9944925987728 61.69139954805678,-149.07260741055512
c -34.56,-65.52 120.96,-40.32 226.30860045194322,-9.124552899435088 L 4032 0 " fill="none" stroke="black" stroke-width="0.1" style="vector-effect:non-scaling-stroke;"/></g><g><path d="M 0 0  L 0 1008.000000  c 138.29751306322456,0.0 262.5503527436253,-25.200000000000003 222.23035274362528,2.182941420501018
c -34.56,159.19390646404244 0,160.78470545710346 65.76964725637472,160.78470545710346
c 76.37750663246669,0 110.9375066324667,-107.71524526748163 76.37750663246669,-113.02996121408549
c -34.56,-65.52 120.96,-40.32 211.6224933675333,-49.93768566351898 c 54.33119238084661,0.0 272.06647012200716,-25.200000000000003 231.74647012200717,12.633434053929284
c -34.56,40.95519145099267 0,139.13470404048144 56.25352987799283,139.13470404048144
c 71.82746185429033,0 106.38746185429034,-30.0728212343182 71.82746185429033,-63.552645370473684
c -34.56,-65.52 120.96,-40.32 216.17253814570967,-88.21549272393703 c 114.83394155719748,0.0 248.71564391905497,-25.200000000000003 208.39564391905495,-1.4993419648956559
c -34.56,76.03124621732223 0,145.06121768356297 79.60435608094505,145.06121768356297
c 76.62482052486303,0 111.18482052486303,-18.295593758391032 76.62482052486303,-77.65703701248358
c -34.56,-65.52 120.96,-40.32 211.37517947513697,-65.90483870618374 c 114.8682163786535,-0.0 266.8946113797668,25.200000000000003 226.57461137976676,-96.6623229709737
c -34.56,-23.69276742985855 0,-25.761618799739253 61.425388620233235,-25.761618799739253
c 88.33965861948712,0 122.89965861948713,26.394921418112027 88.33965861948712,77.43911772298574
c -34.56,65.52 120.96,40.32 199.66034138051288,44.984824047727216 c 118.61004874517988,0.0 259.4515168407904,-25.200000000000003 219.1315168407904,48.58462494129698
c -34.56,65.79830377564792 0,99.51799499570596 68.8684831592096,99.51799499570596
c 40.86299375918162,0 75.42299375918162,-47.545459865154044 40.86299375918162,-56.401213050729055
c -34.56,-65.52 120.96,-40.32 247.13700624081838,-91.70140688627389 c 141.66679234414926,-0.0 262.2028563154289,25.200000000000003 221.8828563154289,-47.962473477669306
c -34.56,-20.92656126178274 0,-73.77232472448992 66.11714368457109,-73.77232472448992
c 68.63690673059557,0 103.19690673059557,46.003150214752864 68.63690673059557,76.31927162766996
c -34.56,65.52 120.96,40.32 219.36309326940443,45.41552657448926 c 34.032945531842174,0.0 287.314397286631,-25.200000000000003 246.994397286631,22.145219136592573
c -34.56,106.33744987208824 0,138.93578066576197 41.005602713369,138.93578066576197
c 48.84774818596014,0 83.40774818596014,-52.4050383773579 48.84774818596014,-99.94350937174002
c -34.56,-65.52 120.96,-40.32 239.15225181403986,-61.13749043061452 L 4032 0 " fill="none" stroke="black" stroke-width="0.1" style="vector-effect:non-scaling-stroke;"/></g><g><path d="M 0 0  L 0 1512.000000  c 78.3879012163655,0.0 248.45403887289268,-25.200000000000003 208.13403887289266,-3.5024124756434
c -34.56,174.54619631236926 0,173.28520437047393 79.86596112710734,173.28520437047393
c 47.449315378084066,0 82.00931537808407,-40.70499692249278 47.449315378084066,-109.10830543022175
c -34.56,-65.52 120.96,-40.32 240.55068462191593,-60.674486464608776 c 92.40626233839845,-0.0 284.39091020620236,25.200000000000003 244.07091020620234,-1.104539673926361
c -34.56,-41.636807885370686 0,-164.5423217543423 43.92908979379766,-164.5423217543423
c 86.99941647146494,0 121.55941647146494,61.588665997081016 86.99941647146494,126.71864316471877
c -34.56,65.52 120.96,40.32 201.00058352853506,38.928218263549894 c 147.66860177614797,-0.0 237.69045311889886,25.200000000000003 197.37045311889884,-94.52400495823083
c -34.56,-34.70146161593065 0,-70.82595459585436 90.62954688110116,-70.82595459585436
c 53.07929973242551,0 87.63929973242551,72.89237133031142 53.07929973242551,159.57695806773216
c -34.56,65.52 120.96,40.32 234.9207002675745,5.773001486353024 c 161.70536562578306,-0.0 244.14168672360023,25.200000000000003 203.8216867236002,-105.54938175837572
c -34.56,-40.065417369942146 0,-51.352918498784135 84.17831327639979,-51.352918498784135
c 56.159525759876715,0 90.71952575987672,31.803002829512657 56.159525759876715,114.7304529597951
c -34.56,65.52 120.96,40.32 231.84047424012329,42.17184729736475 c 119.84752533299064,-0.0 286.01849298794474,25.200000000000003 245.69849298794475,0.3582749011948899
c -34.56,-103.80915056851569 0,-127.68139328966275 42.301507012055254,-127.68139328966275
c 59.81017678978856,0 94.37017678978856,58.03921057142444 59.81017678978856,68.89185669035675
c -34.56,65.52 120.96,40.32 228.18982321021144,58.431261698111115 c 102.17716747898497,-0.0 239.43206521398287,25.200000000000003 199.11206521398287,-48.79706592086369
c -34.56,-61.45107023917498 0,-90.99630910034061 88.88793478601713,-90.99630910034061
c 69.06768888940292,0 103.62768888940292,103.3398002162713 69.06768888940292,140.6996712702523
c -34.56,65.52 120.96,40.32 218.93231111059708,-0.9062962490480118 c 36.08551466796931,-0.0 274.529951530285,25.200000000000003 234.20995153028503,-12.934603256340417
c -34.56,-42.54697989213377 0,-117.56200229638651 53.790048469714975,-117.56200229638651
c 45.297815973730906,0 79.85781597373091,12.618371842731785 45.297815973730906,55.338851203413356
c -34.56,65.52 120.96,40.32 242.7021840262691,75.15775434931356 L 4032 0 " fill="none" stroke="black" stroke-width="0.1" style="vector-effect:non-scaling-stroke;"/></g><g><path d="M 0 0  L 0 2016.000000  c 70.83145339097061,-0.0 244.90575940709192,25.200000000000003 204.58575940709193,-36.07247723868558
c -34.56,-33.90706023283503 0,-87.39697761784345 83.41424059290807,-87.39697761784345
c 86.00694052696952,0 120.56694052696952,18.462745680613736 86.00694052696952,29.31927867249658
c -34.56,65.52 120.96,40.32 201.99305947303048,94.15017618403245 c 165.52716967436774,-0.0 251.88349104704793,25.200000000000003 211.56349104704793,-73.9936853903486
c -34.56,-78.89670399507587 0,-79.1408644315165 76.43650895295207,-79.1408644315165
c 86.24302369373066,0 120.80302369373067,36.716374636619385 86.24302369373066,44.895985123924916
c -34.56,65.52 120.96,40.32 201.75697630626934,108.23856469794019 c 34.06683290937907,0.0 244.13523801056834,-25.200000000000003 203.81523801056835,80.87439624128432
c -34.56,17.414016578539556 0,63.916195058250466 84.18476198943165,63.916195058250466
c 68.69421457847284,0 103.25421457847284,-44.894668749852045 68.69421457847284,-63.911686441035826
c -34.56,-65.52 120.96,-40.32 219.30578542152716,-80.87890485849896 c 58.40084830734832,-0.0 267.6354676189113,25.200000000000003 227.3154676189113,-90.09045777899108
c -34.56,-24.15166797902963 0,-71.27287195154433 60.6845323810887,-71.27287195154433
c 53.07464534298663,0 87.63464534298663,18.240689727545124 53.07464534298663,83.33827030924816
c -34.56,65.52 120.96,40.32 234.92535465701337,78.02505942128725 c 126.72586300152454,0.0 259.12487991907506,-25.200000000000003 218.80487991907506,19.617708981111345
c -34.56,35.67816370465353 0,102.40348317960265 69.19512008092494,102.40348317960265
c 59.681241370103805,0 94.24124137010381,-20.31710839096826 59.681241370103805,-70.967331700976
c -34.56,-65.52 120.96,-40.32 228.3187586298962,-51.05386045973799 c 72.53096281750857,0.0 244.8609493379509,-25.200000000000003 204.5409493379509,79.53244855277946
c -34.56,11.406383712866543 0,50.10158593625708 83.4590506620491,50.10158593625708
c 51.106477797067555,0 85.66647779706756,-97.36140586684708 51.106477797067555,-126.65512486776214
c -34.56,-65.52 120.96,-40.32 236.89352220293244,-2.978909621274397 c 49.21429100312799,-0.0 271.7429908060176,25.200000000000003 231.42299080601757,-14.236551792106615
c -34.56,-84.77051397345619 0,-124.70906650382753 56.577009193982434,-124.70906650382753
c 73.75709449621871,0 108.31709449621871,56.193264487035414 73.75709449621871,134.3959643679189
c -34.56,65.52 120.96,40.32 214.2429055037813,4.549653928015232 L 4032 0 " fill="none" stroke="black" stroke-width="0.1" style="vector-effect:non-scaling-stroke;"/></g><g><path d="M 0 0  L 0 2520.000000  c 97.00092074189314,-0.0 287.0488505668553,25.200000000000003 246.72885056685533,-34.17650917514424
c -34.56,-34.4857582386184 0,-122.6380379747402 41.27114943314467,-122.6380379747402
c 40.608785081989595,0 75.1687850819896,53.38739744772462 40.608785081989595,80.21006643622559
c -34.56,65.52 120.96,40.32 247.3912149180104,76.60448071365886 c 91.73784028739558,0.0 252.0086995329915,-25.200000000000003 211.68869953299148,40.26089541254747
c -34.56,24.110478909481905 0,83.30245675188556 76.31130046700852,83.30245675188556
c 55.56957112537145,0 90.12957112537146,-28.657553574108412 55.56957112537145,-131.49030865201414
c -34.56,-65.52 120.96,-40.32 232.43042887462855,7.9269564875811085 c 135.70537316489714,-0.0 274.81383642523264,25.200000000000003 234.49383642523262,-52.08667390751874
c -34.56,-41.19787212518551 0,-78.56680351311473 53.506163574767385,-78.56680351311473
c 81.8721701729001,0 116.4321701729001,52.29811771443941 81.8721701729001,76.14988744612282
c -34.56,65.52 120.96,40.32 206.1278298270999,54.503589974510646 c 64.60940797025792,0.0 266.9960428954879,-25.200000000000003 226.6760428954879,69.62407141195067
c -34.56,76.53780826719961 0,83.40875358509163 61.32395710451209,83.40875358509163
c 88.52146827812925,0 123.08146827812925,-40.16686583456467 88.52146827812925,-53.55119666972148
c -34.56,-65.52 120.96,-40.32 199.47853172187075,-99.48162832732082 c 41.740300594428895,-0.0 268.2141289602901,25.200000000000003 227.89412896029012,-88.61944299687774
c -34.56,-46.886868267894926 0,-64.45671369035155 60.10587103970988,-64.45671369035155
c 66.86963310293618,0 101.42963310293618,14.824149910408751 66.86963310293618,45.27445195679137
c -34.56,65.52 120.96,40.32 221.13036689706382,107.80170473043792 c 100.57997194041039,0.0 240.11298238669707,-25.200000000000003 199.79298238669705,31.522406118089293
c -34.56,93.62168596018877 0,98.88517496836198 88.20701761330295,98.88517496836198
c 65.33386796530345,0 99.89386796530346,-55.19349178448401 65.33386796530345,-125.22434489340372
c -34.56,-65.52 120.96,-40.32 222.66613203469655,-5.183236193047549 c 118.35679545591294,-0.0 260.7326888607299,25.200000000000003 220.4126888607299,-1.0409274471034953
c -34.56,-95.69353680377372 0,-143.206829623548 67.5873111392701,-143.206829623548
c 65.42419635968247,0 99.98419635968247,35.47913621847717 65.42419635968247,42.226045725363534
c -34.56,65.52 120.96,40.32 222.57580364031753,102.02171134528795 L 4032 0 " fill="none" stroke="black" stroke-width="0.1" style="vector-effect:non-scaling-stroke;"/></g></g></svg>