<svg baseProfile="full" height="2448" preserveAspectRatio="none" shape-rendering="geometricPrecision" version="1.1" viewBox="0,0,3264,2448" width="3264" xmlns="http://www.w3.org/2000/svg" xmlns:ev="http://www.w3.org/2001/xml-events" xmlns:xlink="http://www.w3.org/1999/xlink"><title>Jigsaw puzzle piece clips</title><desc>Created with the piecemaker. Piece count: 35</desc><defs /><g><g><rect fill="white" height="2448" width="3264" x="0" y="0" /></g></g><g><g><path d="M 0 0  L 466.285714 0  c 0.0,45.04181199076729 -23.314285714285717,206.60150866320595 84.6191269601708,172.32950866320593&#10;c 24.229362004845754,-29.376 72.98292845861238,0 72.98292845861238,72.47049133679408&#10;c 0,38.5721677454319 -66.82158084133017,67.9481677454319 -109.81683787268955,38.5721677454319&#10;c -60.61714285714286,-29.376 -37.30285714285714,102.816 -47.785217546093634,206.2278322545681 c 0.0,43.54630333868429 -23.314285714285717,202.93682546053492 57.34809499683697,168.6648254605349&#10;c 30.991747813477325,-29.376 59.28852831808931,0 59.28852831808931,76.13517453946511&#10;c 0,57.938943441040294 -77.90010596054105,87.3149434410403 -87.21185334299702,57.938943441040294&#10;c -60.61714285714286,-29.376 -37.30285714285714,102.816 -29.424769971929265,186.86105655895972 c -0.0,36.85510172974813 23.314285714285717,232.95856448341715 -94.42051317281134,198.68656448341716&#10;c -12.182525304792433,-29.376 -54.45908855415341,0 -54.45908855415341,46.113435516582854&#10;c 0,46.87585567785345 14.455539927814158,76.25185567785346 64.57708167622422,46.87585567785345&#10;c 60.61714285714286,-29.376 37.30285714285714,102.816 84.30252005074053,197.92414432214656 c 0.0,43.513990175141046 -23.314285714285717,241.42797847027504 63.75968364607863,207.15597847027502&#10;c 30.018756023285132,-29.376 74.645161458659,0 74.645161458659,37.644021529724995&#10;c 0,44.60523163574089 -37.23455378899396,73.9812316357409 -56.65531865684099,44.60523163574089&#10;c -60.61714285714286,-29.376 -37.30285714285714,102.816 -81.74952644789664,200.19476836425912 c -0.0,106.65455287456196 23.314285714285717,239.99195488501186 -75.8810357615869,205.71995488501184&#10;c -18.76004329965308,-29.376 -39.72544523418155,0 -39.72544523418155,39.08004511498817&#10;c 0,75.82011152141263 45.87811245239937,105.19611152141263 77.94423469923368,75.82011152141263&#10;c 60.61714285714286,-29.376 37.30285714285714,102.816 37.662246296534775,168.97988847858738 L 0 2448 " fill="none" stroke="black" stroke-width="0.1" style="vector-effect:non-scaling-stroke;" /></g><g><path d="M 0 0  L 932.571429 0  c -0.0,130.45378312057653 23.314285714285717,233.7878504726001 -41.94542908547913,199.51585047260008&#10;c -69.86440248193774,-29.376 -70.61343423306599,0 -70.61343423306599,45.28414952739993&#10;c 0,63.94088784928056 43.914370040026725,93.31688784928056 48.38777670587896,63.94088784928056&#10;c 60.61714285714286,-29.376 37.30285714285714,102.816 64.17108661266616,180.85911215071945 c 0.0,88.14515418493774 -23.314285714285717,223.96049536076004 92.28057855927321,189.68849536076004&#10;c 32.53475563640942,-29.376 50.46543262659026,0 50.46543262659026,55.11150463923997&#10;c 0,65.91719609927952 -46.27969138526288,95.29319609927953 -150.71745501729342,65.91719609927952&#10;c -60.61714285714286,-29.376 -37.30285714285714,102.816 7.971443831429951,178.8828039007205 c -0.0,113.48189828689101 23.314285714285717,226.13517882143128 -68.74910130800204,191.86317882143126&#10;c -44.86389881488023,-29.376 -85.2123438204943,0 -85.2123438204943,52.93682117856875&#10;c 0,35.35361402423928 26.435199046008556,64.72961402423928 56.57545709436715,35.35361402423928&#10;c 60.61714285714286,-29.376 37.30285714285714,102.816 97.38598803412918,209.44638597576073 c 0.0,44.55641025727514 -23.314285714285717,227.2724032252671 2.23851161147956,193.00040322526712&#10;c 126.77621960662782,-29.376 131.80010658872777,0 131.80010658872777,51.79959677473289&#10;c 0,60.9177065412818 -41.00615702110707,90.29370654128181 -138.5879011051958,60.9177065412818&#10;c -60.61714285714286,-29.376 -37.30285714285714,102.816 4.549282904988473,183.8822934587182 c -0.0,126.0374855495285 23.314285714285717,204.03153604268908 -7.405533341188869,169.7595360426891&#10;c -83.47973878908847,-29.376 -121.54525935415346,0 -121.54525935415346,75.04046395731092&#10;c 0,78.33079274830885 58.0673693627848,107.70679274830886 120.11277148296975,78.33079274830885&#10;c 60.61714285714286,-29.376 37.30285714285714,102.816 8.838021212372581,166.46920725169116 L 0 2448 " fill="none" stroke="black" stroke-width="0.1" style="vector-effect:non-scaling-stroke;" /></g><g><path d="M 0 0  L 1398.857143 0  c 0.0,39.469327177061125 -23.314285714285717,243.7935232460067 27.352973886069954,209.52152324600672&#10;c 24.977827777323704,-29.376 97.83022635445721,0 97.83022635445721,35.27847675399329&#10;c 0,62.369548289432316 -7.995103769141323,91.74554828943232 -37.18332488887387,62.369548289432316&#10;c -60.61714285714286,-29.376 -37.30285714285714,102.816 -87.99987535165329,182.4304517105677 c 0.0,97.48762285562316 -23.314285714285717,217.62156431306084 99.93285986793576,183.34956431306085&#10;c 3.757508337651408,-29.376 12.607172534371571,0 12.607172534371571,61.45043568693916&#10;c 0,56.49444501995754 -21.33365976273396,85.87044501995754 -77.24737055104058,56.49444501995754&#10;c -60.61714285714286,-29.376 -37.30285714285714,102.816 -35.29266185126676,188.30555498004247 c 0.0,118.08790880153182 -23.314285714285717,212.1400289851984 86.79063928949601,177.86802898519838&#10;c 33.94019114016111,-29.376 62.322296187077725,0 62.322296187077725,66.93197101480163&#10;c 0,75.13145408057159 -88.7778790656386,104.50745408057159 -96.66644004577998,75.13145408057159&#10;c -60.61714285714286,-29.376 -37.30285714285714,102.816 -52.44649543079376,169.66854591942842 c -0.0,31.82172938769121 23.314285714285717,230.59117082272257 -63.84653626502632,196.31917082272255&#10;c -61.410830701781926,-29.376 -65.2615121853232,0 -65.2615121853232,48.48082917727746&#10;c 0,51.472723319647116 70.29720741175943,80.84872331964712 74.3590215971951,51.472723319647116&#10;c 60.61714285714286,-29.376 37.30285714285714,102.816 54.74902685315442,193.3272766803529 c 0.0,115.51997896538538 -23.314285714285717,212.89378036628227 99.63408052981563,178.62178036628228&#10;c 12.108427518577756,-29.376 26.663588545391733,0 26.663588545391733,66.17821963371773&#10;c 0,47.722953717476 -95.38914862189436,77.09895371747601 -106.25594434427128,47.722953717476&#10;c -60.61714285714286,-29.376 -37.30285714285714,102.816 -20.04172473093608,197.077046282524 L 0 2448 " fill="none" stroke="black" stroke-width="0.1" style="vector-effect:non-scaling-stroke;" /></g><g><path d="M 0 0  L 1865.142857 0  c 0.0,79.15286649103423 -23.314285714285717,218.16119142395587 100.73315047034684,183.88919142395585&#10;c 11.010227456475025,-29.376 45.00161788431903,0 45.00161788431903,60.91080857604416&#10;c 0,67.17671832104537 -33.929519225986006,96.55271832104538 -46.325265162860035,67.17671832104537&#10;c -60.61714285714286,-29.376 -37.30285714285714,102.816 -99.40950319180584,177.62328167895464 c -0.0,127.27325727593417 23.314285714285717,222.29611574149527 -3.200523270762963,188.02411574149525&#10;c -90.43133081451782,-29.376 -148.32165699767623,0 -148.32165699767623,56.77588425850476&#10;c 0,69.69986098759637 92.57522801869129,99.07586098759637 110.8265284718776,69.69986098759637&#10;c 60.61714285714286,-29.376 37.30285714285714,102.816 40.695651796561606,175.10013901240364 c 0.0,97.74079298397496 -23.314285714285717,239.80220256049097 96.85677215487526,205.53020256049098&#10;c 13.046703884202977,-29.376 42.53592166104191,0 42.53592166104191,39.269797439509034&#10;c 0,45.056620423417144 -63.95762376498291,74.43262042341715 -123.58924625439758,45.056620423417144&#10;c -60.61714285714286,-29.376 -37.30285714285714,102.816 -15.80344756151959,199.74337957658287 c 0.0,100.65543715612924 -23.314285714285717,224.46194038287604 45.91967950643277,190.18994038287602&#10;c 70.14547333485035,-29.376 79.04777373937767,0 79.04777373937767,54.610059617123994&#10;c 0,76.91146663615388 -69.95419210329682,106.28746663615388 -123.34969239766626,76.91146663615388&#10;c -60.61714285714286,-29.376 -37.30285714285714,102.816 -1.6177608481441865,167.88853336384614 c 0.0,28.104508852480627 -23.314285714285717,220.04252719093535 31.538971431090733,185.77052719093535&#10;c 106.2589502715064,-29.376 114.88059000833205,0 114.88059000833205,59.02947280906466&#10;c 0,50.97309264383239 -141.729245246324,80.34909264383239 -149.31620042385248,50.97309264383239&#10;c -60.61714285714286,-29.376 -37.30285714285714,102.816 2.8966389844297,193.82690735616762 L 0 2448 " fill="none" stroke="black" stroke-width="0.1" style="vector-effect:non-scaling-stroke;" /></g><g><path d="M 0 0  L 2331.428571 0  c 0.0,38.674657273645124 -23.314285714285717,244.75081046115628 25.129344964264522,210.47881046115626&#10;c 44.57378177320448,-29.376 105.47442656570799,0 105.47442656570799,34.321189538843754&#10;c 0,76.26446729326204 -90.12290757676249,105.64046729326205 -122.59155593978349,76.26446729326204&#10;c -60.61714285714286,-29.376 -37.30285714285714,102.816 -8.012215590189015,168.53553270673797 c -0.0,57.34774001084635 23.314285714285717,239.2818288937366 -35.19588312531409,205.00982889373657&#10;c -67.360159045847,-29.376 -83.77403384493425,0 -83.77403384493425,39.79017110626344&#10;c 0,76.71106593537712 45.21880119682929,106.08706593537713 44.97525964839723,76.71106593537712&#10;c 60.61714285714286,-29.376 37.30285714285714,102.816 73.99465732185111,168.0889340646229 c 0.0,75.38004994685897 -23.314285714285717,231.1461735751497 58.02589195037656,196.87417357514968&#10;c 19.843858930587675,-29.376 57.19603528484545,0 57.19603528484545,47.92582642485033&#10;c 0,65.11245533713759 -32.63651551319594,94.4884553371376 -34.34606442647791,65.11245533713759&#10;c -60.61714285714286,-29.376 -37.30285714285714,102.816 -80.8758628087441,179.68754466286242 c 0.0,53.54148027726948 -23.314285714285717,205.9417080307195 16.690394429667712,171.66970803071948&#10;c 34.51288924275118,-29.376 101.94867575606199,0 101.94867575606199,73.13029196928053&#10;c 0,54.847885713219 -55.52585429663475,84.223885713219 -81.87643879762847,54.847885713219&#10;c -60.61714285714286,-29.376 -37.30285714285714,102.816 -36.76263138810124,189.952114286781 c 0.0,131.64069640081962 -23.314285714285717,231.2479226440313 58.68892835769713,196.97592264403127&#10;c 52.12388077609081,-29.376 60.04876462213358,0 60.04876462213358,47.82407735596874&#10;c 0,45.53423767696131 -41.90373126762988,74.91023767696132 -115.16156772084412,45.53423767696131&#10;c -60.61714285714286,-29.376 -37.30285714285714,102.816 -3.5761252589865933,199.2657623230387 L 0 2448 " fill="none" stroke="black" stroke-width="0.1" style="vector-effect:non-scaling-stroke;" /></g><g><path d="M 0 0  L 2797.714286 0  c 0.0,102.74048191651404 -23.314285714285717,226.5164591629598 82.18725981607317,192.24445916295977&#10;c 30.302452032355777,-29.376 63.693909267051325,0 63.693909267051325,52.55554083704024&#10;c 0,50.72189673833469 -128.3045017873054,80.0978967383347 -135.72148317256125,50.72189673833469&#10;c -60.61714285714286,-29.376 -37.30285714285714,102.816 -10.15968591056324,194.07810326166532 c -0.0,100.54147195375518 23.314285714285717,240.82820239980305 -14.062217217251716,206.55620239980303&#10;c -91.20962834364602,-29.376 -123.71443420374837,0 -123.71443420374837,38.243797600196984&#10;c 0,72.06537955784694 72.36494880637485,101.44137955784694 78.52665599535526,72.06537955784694&#10;c 60.61714285714286,-29.376 37.30285714285714,102.816 59.249995425644826,172.73462044215307 c 0.0,89.28497106559138 -23.314285714285717,201.18970056035 -4.925783341795825,166.91770056035&#10;c 61.21740374370945,-29.376 123.17157937235822,0 123.17157937235822,77.88229943965001&#10;c 0,38.65162244442894 -19.890718978700015,68.02762244442894 -38.603275413321086,38.65162244442894&#10;c -60.61714285714286,-29.376 -37.30285714285714,102.816 -79.64252061724132,206.14837755557107 c 0.0,116.94492899666989 -23.314285714285717,215.1961978338643 67.24849146891832,180.92419783386427&#10;c 66.86301411622799,-29.376 72.76792458512703,0 72.76792458512703,63.87580216613574&#10;c 0,76.64341903786413 -26.16552357352133,106.01941903786414 -103.43008814533988,76.64341903786413&#10;c -60.61714285714286,-29.376 -37.30285714285714,102.816 -36.58632790870547,168.15658096213588 c 0.0,59.18655969162149 -23.314285714285717,223.77865829381335 42.44125358532894,189.50665829381333&#10;c 47.08314754753662,-29.376 105.77526521586675,0 105.77526521586675,55.29334170618668&#10;c 0,50.71981513908207 -29.49101581179186,80.09581513908208 -82.06081389527995,50.71981513908207&#10;c -60.61714285714286,-29.376 -37.30285714285714,102.816 -66.15570490591574,194.08018486091794 L 0 2448 " fill="none" stroke="black" stroke-width="0.1" style="vector-effect:non-scaling-stroke;" /></g></g><g><g><path d="M 0 0  L 0 489.600000  c 94.54745522328203,0.0 220.33798690589276,-24.480000000000004 187.69798690589278,93.1488049323406&#10;c -27.977142857142855,32.341065755409225 0,50.59200469373738 45.44487023696436,50.59200469373738&#10;c 53.51863539826289,0 81.49577825540574,-57.46213750520444 53.51863539826289,-76.35580546756539&#10;c -27.977142857142855,-63.648 97.92,-39.168 179.62422174459425,-67.38500415851259 c 134.6062981740616,-0.0 225.43855503609626,24.480000000000004 192.79855503609625,-4.929162724520823&#10;c -27.977142857142855,-44.189021457006326 0,-158.81449806497258 40.34430210676089,-158.81449806497258&#10;c 53.69532860821832,0 81.67247146536117,57.24445232295542 53.69532860821832,151.89338967481638&#10;c -27.977142857142855,63.648 97.92,39.168 179.44752853463882,11.850271114677042 c 116.66455267621713,-0.0 221.95559800382892,24.480000000000004 189.31559800382894,-21.970021377993348&#10;c -27.977142857142855,-92.61314338969238 0,-128.82130442306908 43.8272591390282,-128.82130442306908&#10;c 57.89872070019041,0 85.87586355733326,105.33437135833661 57.89872070019041,131.12440243397916&#10;c -27.977142857142855,63.648 97.92,39.168 175.24413644266673,19.666923367083285 c 32.49572432433281,-0.0 205.22736214601747,24.480000000000004 172.58736214601745,-17.362638667818707&#10;c -27.977142857142855,-80.64006957284818 0,-116.23729372673077 60.555494996839684,-116.23729372673077&#10;c 63.75609138219389,0 91.73323423933674,59.09511295518422 63.75609138219389,117.20693320965734&#10;c -27.977142857142855,63.648 97.92,39.168 169.38676576066325,16.392999184892147 c 106.76077152562317,-0.0 211.21325350164767,24.480000000000004 178.57325350164766,-39.63091742567294&#10;c -27.977142857142855,-47.176222413112285 0,-96.91486598954384 54.56960364120948,-96.91486598954384&#10;c 52.73899587934707,0 80.71613873648992,55.41805174616628 52.73899587934707,65.42998340738913&#10;c -27.977142857142855,63.648 97.92,39.168 180.40386126351007,71.11580000782766 c 69.57604682751575,0.0 226.22455296942576,-24.480000000000004 193.58455296942577,81.77688420635626&#10;c -27.977142857142855,41.86892603954164 0,63.966488985042176 39.55830417343137,63.966488985042176&#10;c 50.360671424121136,0 78.33781428126399,-29.81540112455704 50.360671424121136,-49.67917769685704&#10;c -27.977142857142855,-63.648 97.92,-39.168 182.782185718736,-96.0641954945414 c 62.43340000943422,0.0 197.83194486760544,-24.480000000000004 165.19194486760543,44.58810674971426&#10;c -27.977142857142855,82.08679823999093 0,117.22713379055818 67.95091227525171,117.22713379055818&#10;c 50.15459889917403,0 78.13174175631688,-87.58523019298626 50.15459889917403,-142.37002853969452&#10;c -27.977142857142855,-63.648 97.92,-39.168 182.9882582436831,-19.445212000577925 L 3264 0 " fill="none" stroke="black" stroke-width="0.1" style="vector-effect:non-scaling-stroke;" /></g><g><path d="M 0 0  L 0 979.200000  c 65.51197458048807,0.0 221.20655063251866,-24.480000000000004 188.56655063251867,7.457136950985562&#10;c -27.977142857142855,133.32497382152152 0,132.61146106343517 44.57630651033847,132.61146106343517&#10;c 72.44612978145929,0 100.42327263860214,-51.27331119646264 72.44612978145929,-67.68538935667527&#10;c -27.977142857142855,-63.648 97.92,-39.168 160.69672736139785,-72.38320865774546 c 31.60796944612872,0.0 196.4662261154395,-24.480000000000004 163.8262261154395,70.97886336192475&#10;c -27.977142857142855,53.43079373275083 0,55.092758254439744 69.31663102741763,55.092758254439744&#10;c 67.03009525287936,0 95.00723811002221,-31.829672124848976 67.03009525287936,-112.78837497557183&#10;c -27.977142857142855,-63.648 97.92,-39.168 166.11276188997778,-13.283246640792669 c 85.79232748366509,-0.0 224.9123514580229,24.480000000000004 192.27235145802288,-39.09738179049951&#10;c -27.977142857142855,-100.84351415757628 0,-104.00103344326662 40.87050568483426,-104.00103344326662&#10;c 32.687665212816256,0 60.66480806995911,49.95384030684659 32.687665212816256,80.23600339415185&#10;c -27.977142857142855,63.648 97.92,39.168 200.45519193004088,62.86241183961428 c 89.80510298702222,0.0 193.99623527407482,-24.480000000000004 161.35623527407483,91.08786800576792&#10;c -27.977142857142855,36.181780852795164 0,53.28783309189055 71.7866218687823,53.28783309189055&#10;c 47.16575143774671,0 75.14289429488956,-12.523721902010967 47.16575143774671,-52.25308861866638&#10;c -27.977142857142855,-63.648 97.92,-39.168 185.97710570511043,-92.12261247899208 c 112.58722108803009,0.0 220.96502804575243,-24.480000000000004 188.32502804575245,27.27395683485308&#10;c -27.977142857142855,28.169971292488295 0,113.90137665223249 44.81782909710469,113.90137665223249&#10;c 64.25794746903713,0 92.23509032617999,-54.74103617101678 64.25794746903713,-140.16977416980166&#10;c -27.977142857142855,-63.648 97.92,-39.168 168.88490967382,-1.005559317283911 c 85.84401488858349,0.0 221.9663839524681,-24.480000000000004 189.3263839524681,-9.680000885159115&#10;c -27.977142857142855,150.92966228953418 0,171.1235883316774 43.81647319038905,171.1235883316774&#10;c 51.10489647725868,0 79.08203933440153,-55.13766915311365 51.10489647725868,-128.88917885188437&#10;c -27.977142857142855,-63.648 97.92,-39.168 182.03796066559846,-32.55440859463394 c 33.36037577556629,-0.0 230.41498192466025,24.480000000000004 197.77498192466024,-52.57185820991518&#10;c -27.977142857142855,-59.162033980606246 0,-88.58503852903294 35.3678752181969,-88.58503852903294&#10;c 35.89592678914508,0 63.87306964628793,17.333255783058604 35.89592678914508,63.71570350818466&#10;c -27.977142857142855,63.648 97.92,39.168 197.24693035371206,77.44119323076346 L 3264 0 " fill="none" stroke="black" stroke-width="0.1" style="vector-effect:non-scaling-stroke;" /></g><g><path d="M 0 0  L 0 1468.800000  c 43.78155947033043,0.0 193.40670302873258,-24.480000000000004 160.76670302873256,34.11880525402112&#10;c -27.977142857142855,27.567018806943594 0,107.7344935198627 72.37615411412457,107.7344935198627&#10;c 62.83217649889755,0 90.8093193560404,-100.75447486181223 62.83217649889755,-110.26643516777372&#10;c -27.977142857142855,-63.648 97.92,-39.168 170.31068064395959,-31.586863606110086 c 86.89369332810352,0.0 191.30113875659657,-24.480000000000004 158.66113875659659,39.31307685119967&#10;c -27.977142857142855,74.19262981193123 0,85.18998758392561 74.48171838626055,85.18998758392561&#10;c 48.0061654937862,0 75.98330835092905,-67.21960188544045 48.0061654937862,-69.6191554855892&#10;c -27.977142857142855,-63.648 97.92,-39.168 185.13669164907094,-54.88390894953608 c 119.6767129268197,0.0 195.21664436238217,-24.480000000000004 162.57664436238218,49.74772975851165&#10;c -27.977142857142855,96.98202593544548 0,100.95044659722514 70.56621278047496,100.95044659722514&#10;c 57.46390992539884,0 85.44105278254169,-126.33899014581739 57.46390992539884,-149.243022746664&#10;c -27.977142857142855,-63.648 97.92,-39.168 175.6789472174583,-1.455153609072795 c 36.92581763672092,0.0 228.1276468366405,-24.480000000000004 195.48764683664052,56.999911235700985&#10;c -27.977142857142855,84.63387532313216 0,105.2838907476004 37.65521030621662,105.2838907476004&#10;c 46.2960557856982,0 74.27319864284105,-106.17208357496287 46.2960557856982,-153.0527635735896&#10;c -27.977142857142855,-63.648 97.92,-39.168 186.84680135715894,-9.231038409711772 c 106.5133178427584,-0.0 232.54819684670446,24.480000000000004 199.90819684670444,-68.80324201567626&#10;c -27.977142857142855,-48.296799895028926 0,-72.51679071789749 33.2346602961527,-72.51679071789749&#10;c 57.2470874353169,0 85.22423029245975,69.24745990207191 57.2470874353169,73.78909179366177&#10;c -27.977142857142855,63.648 97.92,39.168 175.89576970754024,67.53094093991199 c 129.93050948718061,-0.0 196.2838541714283,24.480000000000004 163.64385417142827,6.66489121444813&#10;c -27.977142857142855,-68.33541399204151 0,-150.58119881392906 69.49900297142887,-150.58119881392906&#10;c 40.36222980734365,0 68.3393726644865,21.494277467139216 40.36222980734365,74.97675213268055&#10;c -27.977142857142855,63.648 97.92,39.168 192.7806273355135,68.9395554668004 c 106.45979582104815,0.0 232.08953260727674,-24.480000000000004 199.44953260727672,107.04230008717867&#10;c -27.977142857142855,21.014559403116287 0,55.15580928794874 33.693324535580416,55.15580928794874&#10;c 49.87178982685904,0 77.8489326840019,-120.31208224291998 49.87178982685904,-123.52174502603577&#10;c -27.977142857142855,-63.648 97.92,-39.168 183.2710673159981,-38.67636434909164 L 3264 0 " fill="none" stroke="black" stroke-width="0.1" style="vector-effect:non-scaling-stroke;" /></g><g><path d="M 0 0  L 0 1958.400000  c 95.4489024571445,0.0 221.31528368270392,-24.480000000000004 188.6752836827039,43.53586175306423&#10;c -27.977142857142855,29.012521606225445 0,79.66250620646994 44.46757346015323,79.66250620646994&#10;c 36.251647737967886,0 64.22879059511074,-42.61132200089738 36.251647737967886,-98.33148509309518&#10;c -27.977142857142855,-63.648 97.92,-39.168 196.89120940488925,-24.866882866439 c 41.149523942383176,-0.0 207.70341787378186,24.480000000000004 175.06341787378187,-24.95266116243975&#10;c -27.977142857142855,-109.8003028106454 0,-122.68700114905907 58.079439269075266,-122.68700114905907&#10;c 37.24348248614362,0 65.22062534328647,51.68528812051887 37.24348248614362,102.25911755501302&#10;c -27.977142857142855,63.648 97.92,39.168 195.89937465671352,45.380544756485804 c 70.07224657490843,0.0 214.83860434630776,-24.480000000000004 182.19860434630775,82.89095957658976&#10;c -27.977142857142855,16.644087943727428 0,36.26326138469042 50.94425279654939,36.26326138469042&#10;c 36.62220096630941,0 64.59934382345226,-21.794890729972348 36.62220096630941,-52.76438620607402&#10;c -27.977142857142855,-63.648 97.92,-39.168 196.52065617654773,-66.38983475520617 c 35.27197010065735,0.0 210.32180587851735,-24.480000000000004 177.68180587851734,43.37078701080612&#10;c -27.977142857142855,39.592913756053704 0,105.4280000346927 55.4610512643398,105.4280000346927&#10;c 54.88545198568997,0 82.86259484283282,-33.085713469755746 54.88545198568997,-44.609819713679585&#10;c -27.977142857142855,-63.648 97.92,-39.168 178.25740515716717,-104.18896733181923 c 56.3611582248996,0.0 198.97503353183987,-24.480000000000004 166.33503353183985,19.29969500094482&#10;c -27.977142857142855,81.54997823323983 0,139.30268020267496 66.80782361101728,139.30268020267496&#10;c 62.76839912347603,0 90.74554198061888,-81.26586609120912 62.76839912347603,-157.38195759036694&#10;c -27.977142857142855,-63.648 97.92,-39.168 170.3744580193811,-1.2204176132528346 c 49.09231013571572,-0.0 220.1772196769689,24.480000000000004 187.5372196769689,-37.39765293468178&#10;c -27.977142857142855,-77.8724291253064 0,-92.02646093446344 45.605637465888236,-92.02646093446344&#10;c 44.513569270062334,0 72.49071212720519,61.33024433220648 44.513569270062334,77.68951003082759&#10;c -27.977142857142855,63.648 97.92,39.168 188.6292878727948,51.73460383831764 c 67.33117285568349,-0.0 214.38452682408956,24.480000000000004 181.74452682408958,-1.0591720482067202&#10;c -27.977142857142855,-38.46745191622113 0,-151.53593898928227 51.39833031876756,-151.53593898928227&#10;c 37.69269563670193,0 65.66983849384478,54.63650764023417 37.69269563670193,69.48118679224616&#10;c -27.977142857142855,63.648 97.92,39.168 195.4501615061552,83.11392424524284 L 3264 0 " fill="none" stroke="black" stroke-width="0.1" style="vector-effect:non-scaling-stroke;" /></g></g></svg>