<svg baseProfile="full" height="2000" preserveAspectRatio="none" shape-rendering="geometricPrecision" version="1.1" viewBox="0,0,3000,2000" width="3000" xmlns="http://www.w3.org/2000/svg" xmlns:ev="http://www.w3.org/2001/xml-events" xmlns:xlink="http://www.w3.org/1999/xlink"><title>Jigsaw puzzle piece clips</title><desc>Created with the piecemaker. Piece count: 48</desc><defs /><g><g><rect fill="white" height="2000" width="3000" x="0" y="0" /></g></g><g><g><path d="M 0 0  L 375.000000 0  c 0.0,17.75532389504845 -18.75,145.7487825827057 24.373674837580975,122.41544924937237&#10;c 41.34333471019573,-19.999999999999996 71.17761760139442,0 71.17761760139442,44.251217417294285&#10;c 0,47.950302296931454 -25.792989563198674,67.95030229693145 -88.13728838221213,47.950302296931454&#10;c -48.75,-19.999999999999996 -30.0,70.0 -7.414004056763261,118.7163643697352 c 0.0,72.40667177987564 -18.75,154.47938695104824 30.895187046317833,131.1460536177149&#10;c 53.97404165047512,-19.999999999999996 79.1355189545321,0 79.1355189545321,35.52061304895176&#10;c 0,51.75571270929092 -72.77992963237209,71.75571270929092 -97.36631038061947,51.75571270929092&#10;c -48.75,-19.999999999999996 -30.0,70.0 -12.664395620230465,114.91095395737574 c 0.0,49.60052705889679 -18.75,164.13653354773626 20.47442762849748,140.80320021440292&#10;c 48.523872274422885,-19.999999999999996 83.54792997022354,0 83.54792997022354,25.863466452263737&#10;c 0,49.63867440008488 -47.678577966622164,69.63867440008488 -54.496934157706974,49.63867440008488&#10;c -48.75,-19.999999999999996 -30.0,70.0 -49.52542344101404,117.02799226658178 c -0.0,58.498751981053495 18.75,145.73210343347415 -34.45623775177712,122.39877010014082&#10;c -35.70346420334074,-19.999999999999996 -91.73473986280587,0 -91.73473986280587,44.267896566525835&#10;c 0,35.60410747007148 110.5454308662268,55.60410747007148 118.82126245147815,35.60410747007148&#10;c 48.75,-19.999999999999996 30.0,70.0 7.3697151631048285,131.06255919659517 c 0.0,35.40461743627697 -18.75,149.86400353001034 18.391033385499483,126.530670196677&#10;c 53.10363631797121,-19.999999999999996 80.21893372418106,0 80.21893372418106,40.135996469989664&#10;c 0,44.355275571596565 -19.94521014708087,64.35527557159656 -28.58432135575977,44.355275571596565&#10;c -48.75,-19.999999999999996 -30.0,70.0 -70.02564575392077,122.31139109507009 c -0.0,78.77772737247479 18.75,158.8905710142053 0.5293124825636806,135.55723768087196&#10;c -73.10241525943344,-19.999999999999996 -98.56309113531367,0 -98.56309113531367,31.109428985794693&#10;c 0,50.97585700877062 39.68225087948401,70.97585700877062 63.82728660517987,50.97585700877062&#10;c 48.75,-19.999999999999996 30.0,70.0 34.206492047570116,115.69080965789604 L 0 2000 " fill="none" stroke="black" stroke-width="0.1" style="vector-effect:non-scaling-stroke;" /></g><g><path d="M 0 0  L 750.000000 0  c -0.0,34.03991265775961 18.75,166.51744484551378 -9.642871737889234,143.18411151218044&#10;c -53.21972561194392,-19.999999999999996 -89.45206634864768,0 -89.45206634864768,23.48255515448622&#10;c 0,34.951448141583796 23.380267644617764,54.951448141583796 36.13137772316532,34.951448141583796&#10;c 48.75,-19.999999999999996 30.0,70.0 62.96356036337159,131.71521852508286 c -0.0,81.08930632582326 18.75,154.25970558762663 -1.7984291325634552,130.92637225429328&#10;c -48.26240628722008,-19.999999999999996 -90.29314555493701,0 -90.29314555493701,35.74029441237337&#10;c 0,39.46343998351222 8.928930187817066,59.46343998351222 25.911247260660033,39.46343998351222&#10;c 48.75,-19.999999999999996 30.0,70.0 66.18032742684044,127.20322668315444 c 0.0,38.56969826460599 -18.75,156.66951644977632 37.891268282827,133.33618311644298&#10;c 17.551514278561537,-19.999999999999996 60.7485485792167,0 60.7485485792167,33.330483550223676&#10;c 0,26.547065239372557 -49.43894955361268,46.54706523937256 -60.18934166894158,26.547065239372557&#10;c -48.75,-19.999999999999996 -30.0,70.0 -38.45047519310212,140.1196014272941 c -0.0,92.27792264116104 18.75,156.5721434855559 -40.15976858837805,133.23881015222256&#10;c -21.544739961674154,-19.999999999999996 -74.83136845298515,0 -74.83136845298515,33.4278565144441&#10;c 0,36.63345855035871 73.20663685706346,56.63345855035871 77.3044351467544,36.63345855035871&#10;c 48.75,-19.999999999999996 30.0,70.0 37.6867018946088,130.03320811630795 c 0.0,93.24326253997664 -18.75,143.88402859610483 -1.4469957128995596,120.55069526277148&#10;c 59.15999556771596,-19.999999999999996 122.43397603577633,0 122.43397603577633,46.11597140389517&#10;c 0,44.34726028840356 -20.28224216548697,64.34726028840356 -80.89487087064197,44.34726028840356&#10;c -48.75,-19.999999999999996 -30.0,70.0 -40.092109452234794,122.3194063782631 c -0.0,69.30454508134089 18.75,159.91490765944005 -21.499751252137266,136.5815743261067&#10;c -25.852026901375776,-19.999999999999996 -100.31823090531017,0 -100.31823090531017,30.085092340559953&#10;c 0,44.63826722873057 86.73709587372646,64.63826722873057 125.57494588075868,44.63826722873057&#10;c 48.75,-19.999999999999996 30.0,70.0 -3.7569637233112445,122.02839943793609 L 0 2000 " fill="none" stroke="black" stroke-width="0.1" style="vector-effect:non-scaling-stroke;" /></g><g><path d="M 0 0  L 1125.000000 0  c 0.0,27.83925589344883 -18.75,142.14977826033405 31.636426453622807,118.81644492700072&#10;c 36.47992380851727,-19.999999999999996 68.78884128310335,0 68.78884128310335,47.85022173966594&#10;c 0,51.72351512311673 -52.26632558504161,71.72351512311673 -66.30150356504706,51.72351512311673&#10;c -48.75,-19.999999999999996 -30.0,70.0 -34.1237641716791,114.94315154354993 c -0.0,36.73127689199947 18.75,157.71284160330768 -7.213777225449945,134.37950826997434&#10;c -87.2050504989101,-19.999999999999996 -97.42088996315975,0 -97.42088996315975,32.28715839669232&#10;c 0,35.75081815533497 54.84281548400274,55.75081815533497 57.61871296321969,35.75081815533497&#10;c 48.75,-19.999999999999996 30.0,70.0 47.015954225390004,130.9158485113317 c -0.0,76.66224106845998 18.75,159.39375530199422 -26.91326078205005,136.06042196866088&#10;c -73.35107931599902,-19.999999999999996 -95.17639948883011,0 -95.17639948883011,30.60624469800578&#10;c 0,32.03435266427874 14.309511263764296,52.03435266427874 61.5618529499198,32.03435266427874&#10;c 48.75,-19.999999999999996 30.0,70.0 60.527807320960356,134.63231400238791 c 0.0,72.42516372012638 -18.75,142.00337254722032 21.974171768484805,118.670039213887&#10;c 73.51167038642966,-19.999999999999996 102.22047851081656,0 102.22047851081656,47.99662745277966&#10;c 0,29.897131690206976 -69.13225403532421,49.897131690206976 -114.71040765514631,29.897131690206976&#10;c -48.75,-19.999999999999996 -30.0,70.0 -9.484242624155058,136.76953497645968 c -0.0,65.89524002129343 18.75,166.26710537372503 -64.61721840752955,142.9337720403917&#10;c -28.397631066317288,-19.999999999999996 -35.4053339713476,0 -35.4053339713476,23.73289462627497&#10;c 0,28.154960693897124 20.00237117498793,48.154960693897124 86.37583402093772,28.154960693897124&#10;c 48.75,-19.999999999999996 30.0,70.0 13.646718357939434,138.51170597276953 c 0.0,23.091355281286404 -18.75,143.0062775390196 38.75808804906878,119.67294420568626&#10;c 43.108024930974146,-19.999999999999996 72.34024830339675,0 72.34024830339675,46.99372246098039&#10;c 0,40.223298556628805 -24.370194701093055,60.223298556628805 -52.46602930169576,40.223298556628805&#10;c -48.75,-19.999999999999996 -30.0,70.0 -58.632307050769775,126.44336811003785 L 0 2000 " fill="none" stroke="black" stroke-width="0.1" style="vector-effect:non-scaling-stroke;" /></g><g><path d="M 0 0  L 1500.000000 0  c 0.0,73.40772111800511 -18.75,155.9722143693457 -1.7344955111594698,132.63888103601235&#10;c 44.09493209889182,-19.999999999999996 112.47479029736476,0 112.47479029736476,34.02778563065431&#10;c 0,30.885985928361777 -32.74139531742521,50.88598592836178 -40.36699411204836,30.885985928361777&#10;c -48.75,-19.999999999999996 -30.0,70.0 -70.37330067415694,135.78068073830488 c 0.0,50.64294514444886 -18.75,154.61086237598587 19.40813016952097,131.27752904265253&#10;c 45.31224967747969,-19.999999999999996 72.0372086396836,0 72.0372086396836,35.389137624014126&#10;c 0,24.307666551374098 -46.538590435758046,44.3076665513741 -83.42143627184637,24.307666551374098&#10;c -48.75,-19.999999999999996 -30.0,70.0 -8.023902537358197,142.35900011529256 c -0.0,64.81258853685762 18.75,156.56271686781807 -24.588417282168948,133.22938353448473&#10;c -52.01357204564335,-19.999999999999996 -77.45882371184084,0 -77.45882371184084,33.43728313218193&#10;c 0,28.99799048990991 62.21218900134171,48.99799048990991 81.78821550072033,28.99799048990991&#10;c 48.75,-19.999999999999996 30.0,70.0 20.259025493289457,137.66867617675675 c -0.0,73.00442327062238 18.75,143.25128596671925 -80.85680720723457,119.91795263338591&#10;c -14.463323459657685,-19.999999999999996 -16.107013401470468,0 -16.107013401470468,46.74871403328075&#10;c 0,32.24778949206231 58.739515199323996,52.24778949206231 63.1419018269413,32.24778949206231&#10;c 48.75,-19.999999999999996 30.0,70.0 33.821918781763735,134.41887717460435 c 0.0,83.56001879312406 -18.75,165.89785206798786 76.84790696594794,142.5645187346545&#10;c 27.908889031245337,-19.999999999999996 46.701106429093755,0 46.701106429093755,24.102147932012144&#10;c 0,27.304594137006575 -63.60138728728849,47.304594137006575 -106.36599518200288,27.304594137006575&#10;c -48.75,-19.999999999999996 -30.0,70.0 -17.18301821303882,139.36207252966008 c 0.0,61.70647141633071 -18.75,137.3146415493906 -1.5326175286024553,113.98130821605724&#10;c 86.1690198908174,-19.999999999999996 122.73619856746309,0 122.73619856746309,52.685358450609414&#10;c 0,36.70242479374525 -25.697099754427903,56.70242479374525 -64.51419319265051,36.70242479374525&#10;c -48.75,-19.999999999999996 -30.0,70.0 -56.689387846210124,129.9642418729214 L 0 2000 " fill="none" stroke="black" stroke-width="0.1" style="vector-effect:non-scaling-stroke;" /></g><g><path d="M 0 0  L 1875.000000 0  c -0.0,24.91920224507641 18.75,158.23904950076337 -73.84397550101556,134.90571616743003&#10;c -14.573152616119886,-19.999999999999996 -24.956556450017658,0 -24.956556450017658,31.76095049923663&#10;c 0,52.38056596258252 7.824559994226781,72.38056596258252 29.883473998950265,52.38056596258252&#10;c 48.75,-19.999999999999996 30.0,70.0 68.91705795208296,114.28610070408413 c -0.0,55.249889226607 18.75,139.43951021822227 -18.04520453901536,116.10617688488892&#10;c -87.0899874499658,-19.999999999999996 -106.74586696419202,0 -106.74586696419202,50.56048978177773&#10;c 0,24.53951891555866 30.819870473513298,44.53951891555866 118.60912386454419,24.53951891555866&#10;c 48.75,-19.999999999999996 30.0,70.0 6.181947638663189,142.127147751108 c 0.0,52.027961135112655 -18.75,151.0090601518713 -2.149035992981872,127.67572681853797&#10;c 57.35747006231138,-19.999999999999996 101.24917595057681,0 101.24917595057681,38.99093984812869&#10;c 0,46.485351092281576 -21.979401230343182,66.48535109228158 -76.13240669732872,46.485351092281576&#10;c -48.75,-19.999999999999996 -30.0,70.0 -22.96773326026623,120.18131557438508 c -0.0,22.82724001271346 18.75,162.00027273609592 -43.82161273678222,138.66693940276258&#10;c -43.17057014556547,-19.999999999999996 -58.54518129361532,0 -58.54518129361532,27.999727263904077&#10;c 0,47.8966960965154 75.7469651251265,67.8966960965154 109.64219644887451,47.8966960965154&#10;c 48.75,-19.999999999999996 30.0,70.0 -7.275402418476972,118.76997057015126 c 0.0,92.89373700386979 -18.75,159.17600935496594 63.15198773337656,135.8426760216326&#10;c 35.52645677879913,-19.999999999999996 43.88044660614628,0 43.88044660614628,30.82399064503406&#10;c 0,48.77392314357175 -81.18930545434203,68.77392314357175 -108.86807532517645,48.77392314357175&#10;c -48.75,-19.999999999999996 -30.0,70.0 1.8356409856536118,117.89274352309491 c 0.0,43.37898644128787 -18.75,143.5917724477216 10.305575986007215,120.25843911438828&#10;c 71.42574517803742,-19.999999999999996 86.60887610628171,0 86.60887610628171,46.408227552278376&#10;c 0,41.73177238940943 -17.81746448060557,61.73177238940943 -73.61175808057135,41.73177238940943&#10;c -48.75,-19.999999999999996 -30.0,70.0 -23.302694011717577,124.93489427725723 L 0 2000 " fill="none" stroke="black" stroke-width="0.1" style="vector-effect:non-scaling-stroke;" /></g><g><path d="M 0 0  L 2250.000000 0  c -0.0,70.06653919847282 18.75,161.81116297689604 -45.643144996728054,138.4778296435627&#10;c -43.124586348962,-19.999999999999996 -46.320251081286585,0 -46.320251081286585,28.188837023103957&#10;c 0,32.76885929143603 33.47596824687303,52.76885929143603 57.73464927343222,32.76885929143603&#10;c 48.75,-19.999999999999996 30.0,70.0 34.22874680458242,133.89780737523063 c -0.0,21.830936630246857 18.75,149.22151632822403 -18.725062281439826,125.88818299489068&#10;c -38.003717873820385,-19.999999999999996 -81.79529568374497,0 -81.79529568374497,40.77848367177597&#10;c 0,52.90966751985718 104.3649121429686,72.90966751985718 106.80665420676415,52.90966751985718&#10;c 48.75,-19.999999999999996 30.0,70.0 -6.286296241579365,113.75699914680948 c 0.0,22.22125707097296 -18.75,154.70187195644255 6.649635775543327,131.3685386231092&#10;c 105.56099837438768,-19.999999999999996 112.64333054949493,0 112.64333054949493,35.298128043557455&#10;c 0,30.698180274957764 -30.615368306974673,50.698180274957764 -123.50722318786758,30.698180274957764&#10;c -48.75,-19.999999999999996 -30.0,70.0 4.214256862829316,135.9684863917089 c -0.0,46.362978230114884 18.75,160.33451615676424 -50.9174436069114,137.0011828234309&#10;c -20.81358781536391,-19.999999999999996 -52.23731908236167,0 -52.23731908236167,29.665483843235762&#10;c 0,34.31481911741656 37.733540621254406,54.31481911741656 54.292971912548374,34.31481911741656&#10;c 48.75,-19.999999999999996 30.0,70.0 48.861790776724696,132.3518475492501 c 0.0,57.08129205828478 -18.75,152.50641686606974 24.35823992461534,129.1730835327364&#10;c 76.39626223458426,-19.999999999999996 90.11764744954087,0 90.11764744954087,37.49358313393026&#10;c 0,44.476851418278585 -56.17887757854416,64.47685141827859 -89.04261364667221,44.476851418278585&#10;c -48.75,-19.999999999999996 -30.0,70.0 -25.433273727483993,122.18981524838807 c 0.0,24.64861205735367 -18.75,138.60850304913632 -6.835685379847586,115.27516971580297&#10;c 100.29225995418321,-19.999999999999996 111.170432587305,0 111.170432587305,51.39149695086368&#10;c 0,27.328933899035718 -28.454104085282246,47.32893389903572 -67.36021347138876,27.328933899035718&#10;c -48.75,-19.999999999999996 -30.0,70.0 -36.97453373606865,139.33773276763094 L 0 2000 " fill="none" stroke="black" stroke-width="0.1" style="vector-effect:non-scaling-stroke;" /></g><g><path d="M 0 0  L 2625.000000 0  c 0.0,37.689492787830694 -18.75,161.51150092806648 18.682764850444208,138.17816759473314&#10;c 47.67549318888992,-19.999999999999996 80.19461865229812,0 80.19461865229812,28.488499071933518&#10;c 0,40.95289959387671 -29.697139657967266,60.95289959387671 -51.582989082452215,40.95289959387671&#10;c -48.75,-19.999999999999996 -30.0,70.0 -47.29439442029012,125.71376707278995 c 0.0,23.320362043636862 -18.75,156.1715359851424 52.0534323002456,132.83820265180907&#10;c 49.011173144947165,-19.999999999999996 51.4820320989284,0 51.4820320989284,33.82846401485759&#10;c 0,47.740993856844085 -19.440638995656823,67.74099385684409 -62.30592477154724,47.740993856844085&#10;c -48.75,-19.999999999999996 -30.0,70.0 -41.229539627626764,118.92567280982257 c -0.0,55.02708695769539 18.75,151.741390852388 -8.0224636200626,128.40805751905467&#10;c -49.30077564167108,-19.999999999999996 -86.38123971134897,0 -86.38123971134897,38.25860914761199&#10;c 0,41.22233546228901 31.31722964185598,61.22233546228901 52.25401135947561,41.22233546228901&#10;c 48.75,-19.999999999999996 30.0,70.0 42.14969197193595,125.44433120437765 c -0.0,32.17763308896414 18.75,143.95921406841637 -17.84221369791327,120.62588073508304&#10;c -35.988621112572794,-19.999999999999996 -78.89878465372902,0 -78.89878465372902,46.04078593158361&#10;c 0,41.31772101387725 30.522968303597004,61.31772101387725 47.76842442761588,41.31772101387725&#10;c 48.75,-19.999999999999996 30.0,70.0 48.97257392402641,125.34894565278941 c -0.0,30.136451474717504 18.75,149.78729763073156 -76.13156232762064,126.45396429739822&#10;c -24.694541290471236,-19.999999999999996 -29.989486289687818,0 -29.989486289687818,40.21270236926844&#10;c 0,44.79771545486304 29.020152317697946,64.79771545486304 106.91190169140772,44.79771545486304&#10;c 48.75,-19.999999999999996 30.0,70.0 -0.7908530740992603,121.86895121180362 c 0.0,40.85380285904314 -18.75,165.36996333454783 53.285787129944104,142.0366300012145&#10;c 14.817745821811297,-19.999999999999996 47.17387089398485,0 47.17387089398485,24.630036665452167&#10;c 0,31.596809019978423 -14.883472340278118,51.59680901997842 -39.36015065151009,31.596809019978423&#10;c -48.75,-19.999999999999996 -30.0,70.0 -61.09950737241886,135.06985764668823 L 0 2000 " fill="none" stroke="black" stroke-width="0.1" style="vector-effect:non-scaling-stroke;" /></g></g><g><g><path d="M 0 0  L 0 333.333333  c 103.01068867072043,0.0 184.2469334714299,-16.666666666666668 157.9969334714299,65.12948359327605&#10;c -22.5,34.5215859102955 0,37.03585387255258 29.503066528570088,37.03585387255258&#10;c 50.32374505380545,0 72.82374505380545,-14.131577813513394 50.32374505380545,-65.48159702430513&#10;c -22.5,-43.333333333333336 78.75,-26.666666666666664 137.17625494619455,-36.6837404415235 c 28.759472384006184,-0.0 170.74965412284203,16.666666666666668 144.49965412284203,-1.7782083852667199&#10;c -22.5,-26.702595601346875 0,-81.23828732757907 43.00034587715797,-81.23828732757907&#10;c 27.665987466648204,0 50.165987466648204,47.93085999918629 27.665987466648204,78.69182570649537&#10;c -22.5,43.333333333333336 78.75,26.666666666666664 159.8340125333518,4.324670006350431 c 68.56635956806878,0.0 181.01408169415473,-16.666666666666668 154.76408169415473,36.150409894866726&#10;c -22.5,26.271153267765985 0,63.99688218924052 32.735918305845274,63.99688218924052&#10;c 39.782280932771755,0 62.282280932771755,-30.201332553117723 39.782280932771755,-46.84418261153104&#10;c -22.5,-43.333333333333336 78.75,-26.666666666666664 147.71771906722824,-53.30310947257621 c 97.62420940129078,-0.0 177.91229082393193,16.666666666666668 151.66229082393193,-39.18403139133974&#10;c -22.5,-23.204770300237058 0,-57.371895354104886 35.837709176068074,-57.371895354104886&#10;c 55.98853035148716,0 78.48853035148716,24.40326320796326 55.98853035148716,24.603381919775373&#10;c -22.5,43.333333333333336 78.75,26.666666666666664 131.51146964851284,71.95254482566925 c 64.31306286522579,0.0 154.52840035375263,-16.666666666666668 128.27840035375263,12.077954933095107&#10;c -22.5,86.37426289044505 0,85.78433850670245 59.22159964624737,85.78433850670245&#10;c 49.95529246322201,0 72.45529246322201,-72.60326103349445 49.95529246322201,-80.79727605262484&#10;c -22.5,-43.333333333333336 78.75,-26.666666666666664 137.544707536778,-17.065017387172716 c 96.57675302638793,0.0 183.250632508057,-16.666666666666668 157.000632508057,-6.2634810095344005&#10;c -22.5,90.60751325794976 0,119.46694727143742 30.49936749194299,119.46694727143742&#10;c 50.06887138338328,0 72.56887138338328,-20.196225871742104 50.06887138338328,-84.89612121704062&#10;c -22.5,-43.333333333333336 78.75,-26.666666666666664 137.43112861661672,-28.3073450448624 c 74.0584591663034,0.0 158.71968642261734,-16.666666666666668 132.46968642261734,24.015558830343654&#10;c -22.5,67.71006921696099 0,88.24173935008187 55.03031357738266,88.24173935008187&#10;c 55.45470048006948,0 77.95470048006948,-20.186521470736132 55.45470048006948,-57.13068585196573&#10;c -22.5,-43.333333333333336 78.75,-26.666666666666664 132.04529951993052,-55.12661232845979 c 52.03409347225095,0.0 178.08176420159418,-16.666666666666668 151.83176420159418,39.75767326921343&#10;c -22.5,10.06309998615059 0,46.56562039551753 35.66823579840582,46.56562039551753&#10;c 39.66908867828792,0 62.16908867828792,-62.53394682643615 39.66908867828792,-71.22692884796858&#10;c -22.5,-43.333333333333336 78.75,-26.666666666666664 147.83091132171208,-15.096364816762375 L 3000 0 " fill="none" stroke="black" stroke-width="0.1" style="vector-effect:non-scaling-stroke;" /></g><g><path d="M 0 0  L 0 666.666667  c 89.442646262871,0.0 155.27525871414906,-16.666666666666668 129.02525871414906,63.777840066072905&#10;c -22.5,29.63672873403826 0,34.12095055768352 58.47474128585094,34.12095055768352&#10;c 37.55273352293054,0 60.05273352293054,-51.60168116242616 37.55273352293054,-61.037315882822746&#10;c -22.5,-43.333333333333336 78.75,-26.666666666666664 149.94726647706946,-36.86147474093368 c 49.74180068279828,0.0 168.5588839857498,-16.666666666666668 142.3088839857498,31.27093699280664&#10;c -22.5,46.83669406884262 0,56.00652276294987 45.19111601425021,56.00652276294987&#10;c 42.7917593704085,0 65.2917593704085,-39.401075264347156 42.7917593704085,-45.00317388265598&#10;c -22.5,-43.333333333333336 78.75,-26.666666666666664 144.7082406295915,-42.27428587310053 c 58.55680275229942,-0.0 159.81485167398975,16.666666666666668 133.56485167398975,-30.584329445351337&#10;c -22.5,-45.60663995380239 0,-81.37765235512157 53.93514832601025,-81.37765235512157&#10;c 47.27826426711445,0 69.77826426711445,49.52068676725706 47.27826426711445,69.54908080720338&#10;c -22.5,43.333333333333336 78.75,26.666666666666664 140.22173573288555,42.41290099326952 c 78.48013909722619,-0.0 174.39545366534594,16.666666666666668 148.14545366534594,-24.28088762627814&#10;c -22.5,-29.479168772535164 0,-67.80002690643722 39.35454633465406,-67.80002690643722&#10;c 42.97087414782345,0 65.47087414782345,95.71517582544928 42.97087414782345,96.09217436321694&#10;c -22.5,43.333333333333336 78.75,26.666666666666664 144.52912585217655,-4.011259830501572 c 47.33188923134041,-0.0 160.84953319094575,16.666666666666668 134.59953319094575,-23.067047985873952&#10;c -22.5,-14.774607795973761 0,-69.07963742920674 52.90046680905425,-69.07963742920674&#10;c 39.90464818102552,0 62.40464818102552,18.544663134986507 39.90464818102552,22.00821134315565&#10;c -22.5,43.333333333333336 78.75,26.666666666666664 147.59535181897448,70.13847407192505 c 27.321965588418177,0.0 165.13929053728373,-16.666666666666668 138.88929053728373,48.33233090564087&#10;c -22.5,36.54288676936773 0,56.81377056531316 48.61070946271627,56.81377056531316&#10;c 51.835560688819186,0 74.33556068881919,-37.83453102970877 51.835560688819186,-86.61833876800105&#10;c -22.5,-43.333333333333336 78.75,-26.666666666666664 135.66443931118081,-18.527762702952984 c 39.326450972786866,-0.0 186.74070875654425,16.666666666666668 160.49070875654425,-1.8248473576076956&#10;c -22.5,-39.31614872164726 0,-100.09640595089732 27.00929124345575,-100.09640595089732&#10;c 28.36139854678987,0 50.86139854678987,33.04243978309653 28.36139854678987,34.828829316634796&#10;c -22.5,43.333333333333336 78.75,26.666666666666664 159.13860145321013,67.09242399187022 c 83.70552230791002,0.0 169.21131135098022,-16.666666666666668 142.96131135098022,32.43471065537687&#10;c -22.5,25.379338847382275 0,62.77565563308665 44.538688649019775,62.77565563308665&#10;c 35.37992171927024,0 57.87992171927024,-17.107501943281946 35.37992171927024,-52.80201014226919&#10;c -22.5,-43.333333333333336 78.75,-26.666666666666664 152.12007828072976,-42.40835614619433 L 3000 0 " fill="none" stroke="black" stroke-width="0.1" style="vector-effect:non-scaling-stroke;" /></g><g><path d="M 0 0  L 0 1000.000000  c 100.58199958522297,-0.0 158.67687001937503,16.666666666666668 132.42687001937503,-63.37537391338537&#10;c -22.5,-17.08180091132697 0,-19.965931818716776 55.07312998062497,-19.965931818716776&#10;c 38.57781390399515,0 61.07781390399515,13.672208992153347 38.57781390399515,25.467293930196895&#10;c -22.5,43.333333333333336 78.75,26.666666666666664 148.92218609600485,57.87401180190525 c 24.275351556311048,-0.0 160.38736327453958,16.666666666666668 134.13736327453958,-0.6286007132201137&#10;c -22.5,-46.59781734244057 0,-103.85817475480383 53.36263672546042,-103.85817475480383&#10;c 53.35806010466462,0 75.85806010466462,34.85742172658844 53.35806010466462,61.54367057834198&#10;c -22.5,43.333333333333336 78.75,26.666666666666664 134.14193989533538,42.943104889681955 c 104.67060991822781,0.0 164.99027689121843,-16.666666666666668 138.74027689121843,71.92118265001346&#10;c -22.5,19.656652973549193 0,30.389844866180397 48.75972310878157,30.389844866180397&#10;c 53.21559764732524,0 75.71559764732524,-34.07827972670911 53.21559764732524,-54.745679388909416&#10;c -22.5,-43.333333333333336 78.75,-26.666666666666664 134.28440235267476,-47.565348127284445 c 107.7850808588333,0.0 154.78865964359653,-16.666666666666668 128.53865964359653,34.6841876570848&#10;c -22.5,67.80089440882186 0,72.75237934487114 58.96134035640347,72.75237934487114&#10;c 54.62733794783813,0 77.12733794783813,-23.785110915085337 54.62733794783813,-93.84773573155178&#10;c -22.5,-43.333333333333336 78.75,-26.666666666666664 132.87266205216187,-13.588831270404171 c 97.81242946730401,-0.0 178.3822557494657,16.666666666666668 152.1322557494657,-21.706894179100782&#10;c -22.5,-61.14520206739106 0,-73.8585228998723 35.36774425053429,-73.8585228998723&#10;c 37.5446675197756,0 60.0446675197756,81.502392539268 37.5446675197756,83.12651771066885&#10;c -22.5,43.333333333333336 78.75,26.666666666666664 149.9553324802244,12.438899368304234 c 106.9965875869196,-0.0 154.12202611897382,16.666666666666668 127.8720261189738,-54.91521637411985&#10;c -22.5,-11.190647872574596 0,-25.891152981596676 59.62797388102619,-25.891152981596676&#10;c 49.861384354151056,0 72.36138435415106,33.98724381884218 49.861384354151056,52.43196921192934&#10;c -22.5,43.333333333333336 78.75,26.666666666666664 137.63861564584894,28.374400143787184 c 98.83205914673826,-0.0 186.2337858487385,16.666666666666668 159.9837858487385,-46.47132464547015&#10;c -22.5,-51.82497927502379 0,-59.119104133224525 27.516214151261494,-59.119104133224525&#10;c 53.67407540821017,0 76.17407540821017,31.727695677560877 53.67407540821017,72.37257394040478&#10;c -22.5,43.333333333333336 78.75,26.666666666666664 133.82592459178983,33.217854838289895 c 24.072809705425353,0.0 186.38496098296434,-16.666666666666668 160.13496098296434,8.590450587840358&#10;c -22.5,96.53047017559942 0,95.6046323264832 27.365039017035656,95.6046323264832&#10;c 30.59795268810737,0 53.09795268810737,-28.4629190996098 30.59795268810737,-107.77116133805039&#10;c -22.5,-43.333333333333336 78.75,-26.666666666666664 156.90204731189263,3.576078423726827 L 3000 0 " fill="none" stroke="black" stroke-width="0.1" style="vector-effect:non-scaling-stroke;" /></g><g><path d="M 0 0  L 0 1333.333333  c 20.597176313306264,-0.0 164.33031356032575,16.666666666666668 138.08031356032575,-32.28747985567185&#10;c -22.5,-47.5786036398472 0,-76.65606543738247 49.41968643967425,-76.65606543738247&#10;c 28.67569026579133,0 51.17569026579133,85.98977973655933 28.67569026579133,105.14658819268753&#10;c -22.5,43.333333333333336 78.75,26.666666666666664 158.82430973420867,3.7969571003667824 c 26.08234389671771,0.0 171.2287555637741,-16.666666666666668 144.9787555637741,48.972743732549326&#10;c -22.5,24.735476168789667 0,63.06800849052008 42.52124443622591,63.06800849052008&#10;c 36.558319660038194,0 59.058319660038194,-49.19552722086351 36.558319660038194,-58.76717725526842&#10;c -22.5,-43.333333333333336 78.75,-26.666666666666664 150.9416803399618,-53.27357496780098 c 73.10218626413105,0.0 184.08489884082812,-16.666666666666668 157.83489884082812,29.087813406889445&#10;c -22.5,50.180022751331336 0,52.28479826170639 29.665101159171883,52.28479826170639&#10;c 38.47238997807858,0 60.97238997807858,-20.81165609085567 38.47238997807858,-26.50152181020323&#10;c -22.5,-43.333333333333336 78.75,-26.666666666666664 149.02761002192142,-54.87108985839261 c 24.047031455086085,-0.0 157.9710432916889,16.666666666666668 131.7210432916889,-55.04784865457649&#10;c -22.5,-21.13361554667852 0,-51.73422897339251 55.778956708311114,-51.73422897339251&#10;c 29.373138929821636,0 51.873138929821636,26.257312397833957 29.373138929821636,91.8728157093604&#10;c -22.5,43.333333333333336 78.75,26.666666666666664 158.12686107017836,14.909261918608607 c 31.399415080799834,-0.0 178.05616785286114,16.666666666666668 151.80616785286114,-12.62055057771826&#10;c -22.5,-20.07534406124347 0,-88.75551600561715 35.69383214713886,-88.75551600561715&#10;c 35.85129271610356,0 58.35129271610356,22.960881582047282 35.85129271610356,82.83497710392282&#10;c -22.5,43.333333333333336 78.75,26.666666666666664 151.64870728389644,18.54108947941259 c 77.4593150154115,-0.0 161.69299474382265,16.666666666666668 135.44299474382265,-61.75018370519976&#10;c -22.5,-19.473544048364317 0,-37.474705159891485 52.05700525617735,-37.474705159891485&#10;c 28.78405844214484,0 51.28405844214484,46.37863645791772 28.78405844214484,79.43703722019953&#10;c -22.5,43.333333333333336 78.75,26.666666666666664 158.71594155785516,19.787851644891717 c 20.918096169552165,-0.0 157.22163498822687,16.666666666666668 130.97163498822687,-38.8950715756923&#10;c -22.5,-18.049078135763395 0,-55.95625959869464 56.52836501177313,-55.95625959869464&#10;c 51.58302034629742,0 74.08302034629742,31.50891804569656 51.58302034629742,53.619364328513406&#10;c -22.5,43.333333333333336 78.75,26.666666666666664 135.91697965370258,41.231966845873536 c 72.94739851285546,0.0 170.64450704575367,-16.666666666666668 144.39450704575367,50.41594921897788&#10;c -22.5,49.03958819794152 0,55.91588941438308 43.10549295424633,55.91588941438308&#10;c 31.271782293254745,0 53.771782293254745,-69.01793505848178 31.271782293254745,-81.46603211072645&#10;c -22.5,-43.333333333333336 78.75,-26.666666666666664 156.22821770674526,-24.865806522634514 L 3000 0 " fill="none" stroke="black" stroke-width="0.1" style="vector-effect:non-scaling-stroke;" /></g><g><path d="M 0 0  L 0 1666.666667  c 39.241913398172905,0.0 170.54793511789907,-16.666666666666668 144.29793511789907,13.31389150259904&#10;c -22.5,43.2358146197558 0,68.61240568944764 43.20206488210093,68.61240568944764&#10;c 48.236691423259316,0 70.73669142325932,-7.038537641812716 48.236691423259316,-13.269223081921467&#10;c -22.5,-43.333333333333336 78.75,-26.666666666666664 139.26330857674068,-68.65707411012521 c 105.34518734709707,-0.0 166.4900153832071,16.666666666666668 140.2400153832071,-55.41768165666277&#10;c -22.5,-18.841875966568193 0,-37.04101952158525 47.259984616792906,-37.04101952158525&#10;c 45.58431658988934,0 68.08431658988934,52.4457549342416 45.58431658988934,78.35894641360419&#10;c -22.5,43.333333333333336 78.75,26.666666666666664 141.91568341011066,14.099754764643833 c 92.65913547052476,-0.0 158.14338541390612,16.666666666666668 131.89338541390612,-3.591339771013547&#10;c -22.5,-47.32842665035023 0,-88.95016205031216 55.60661458609388,-88.95016205031216&#10;c 58.66691730788935,0 81.16691730788935,22.782772270755228 58.66691730788935,65.1671988435842&#10;c -22.5,43.333333333333336 78.75,26.666666666666664 128.83308269211065,27.374302977741507 c 30.661494344970723,-0.0 173.7680254663128,16.666666666666668 147.5180254663128,-36.94360243250228&#10;c -22.5,-31.517004034699102 0,-58.66738853566262 39.98197453368721,-58.66738853566262&#10;c 30.92487861619753,0 53.42487861619753,27.196483738190725 30.92487861619753,75.51492234128045&#10;c -22.5,43.333333333333336 78.75,26.666666666666664 156.57512138380247,20.096068626884446 c 81.61280277203393,-0.0 160.15740331563254,16.666666666666668 133.90740331563254,-46.51180704452158&#10;c -22.5,-35.38219450838395 0,-43.22658208826174 53.592596684367464,-43.22658208826174&#10;c 32.74505158394436,0 55.24505158394436,15.443917929224682 32.74505158394436,40.039102760045395&#10;c -22.5,43.333333333333336 78.75,26.666666666666664 154.75494841605564,49.69928637273793 c 50.393017502676834,-0.0 159.9598260770613,16.666666666666668 133.7098260770613,-48.927345213448184&#10;c -22.5,-20.611129226914624 0,-49.74512176010588 53.79017392293869,-49.74512176010588&#10;c 33.114434876846644,0 55.614434876846644,45.52936183931352 33.114434876846644,53.671776239096474&#10;c -22.5,43.333333333333336 78.75,26.666666666666664 154.38556512315336,45.00069073445759 c 99.95207214691489,-0.0 185.52898880146557,16.666666666666668 159.27898880146557,-9.60587974913982&#10;c -22.5,-56.566889970326216 0,-71.74492117784611 28.221011198534427,-71.74492117784611&#10;c 59.979359741566725,0 82.47935974156673,52.51816629456372 59.979359741566725,76.89972786145239&#10;c -22.5,43.333333333333336 78.75,26.666666666666664 127.52064025843327,4.451073065533535 c 98.33955056999808,-0.0 184.30041697063942,16.666666666666668 158.05041697063942,-29.32909913013988&#10;c -22.5,-24.248912505767343 0,-56.90667246233589 29.449583029360582,-56.90667246233589&#10;c 49.63374586234454,0 72.13374586234454,22.51641155591731 49.63374586234454,83.84866994285211&#10;c -22.5,43.333333333333336 78.75,26.666666666666664 137.86625413765546,2.3871016496236592 L 3000 0 " fill="none" stroke="black" stroke-width="0.1" style="vector-effect:non-scaling-stroke;" /></g></g></svg>