<svg baseProfile="full" height="805" preserveAspectRatio="none" shape-rendering="geometricPrecision" version="1.1" viewBox="0,0,1280,805" width="1280" xmlns="http://www.w3.org/2000/svg" xmlns:ev="http://www.w3.org/2001/xml-events" xmlns:xlink="http://www.w3.org/1999/xlink"><title>Jigsaw puzzle piece clips</title><desc>Created with the piecemaker. Piece count: 54</desc><defs /><g><g><rect fill="white" height="805" width="1280" x="0" y="0" /></g></g><g><g><path d="M 0 0  L 142.222222 0  c 0.0,24.36225202077938 -7.111111111111112,60.99302464535787 7.572275602595736,51.601357978691205&#10;c 22.876508451548908,-8.049999999999999 39.31902728870069,0 39.31902728870069,15.481975354642124&#10;c 0,11.294294720236763 -10.92253498943203,19.34429472023676 -48.572374910643006,11.294294720236763&#10;c -18.48888888888889,-8.049999999999999 -11.377777777777778,28.174999999999997 1.6810720193465798,55.789038613096565 c -0.0,24.236013360805888 7.111111111111112,56.611945827810565 -5.259252948268019,47.2202791611439&#10;c -37.36612196466099,-8.049999999999999 -41.581867078592666,0 -41.581867078592666,19.86305417218943&#10;c 0,16.324300768017693 22.83259951965624,24.37430076801769 32.47849391370417,16.324300768017693&#10;c 18.48888888888889,-8.049999999999999 11.377777777777778,28.174999999999997 14.362626113156516,50.759032565315636 c -0.0,13.91961575215242 7.111111111111112,55.3211990698253 -15.962393450836162,45.92953240315863&#10;c -31.436291453737738,-8.049999999999999 -31.24078480179486,0 -31.24078480179486,21.153800930174697&#10;c 0,9.481383305657602 12.032094576599636,17.5313833056576 34.17724307855099,9.481383305657602&#10;c 18.48888888888889,-8.049999999999999 11.377777777777778,28.174999999999997 13.025935174080033,57.60195002767573 c 0.0,15.359538157443806 -7.111111111111112,59.22959718160412 28.126921049893365,49.837930514937455&#10;c 8.48742050688135,-8.049999999999999 12.250767063981652,0 12.250767063981652,17.245402818395874&#10;c 0,15.914814826586294 -10.075578087092493,23.96481482658629 -10.042725753988417,15.914814826586294&#10;c -18.48888888888889,-8.049999999999999 -11.377777777777778,28.174999999999997 -30.3349623598866,51.168518506747034 c 0.0,37.847715304359575 -7.111111111111112,61.00926410136033 11.013691977764807,51.617597434693664&#10;c 20.718220112899953,-8.049999999999999 27.08805932867756,0 27.08805932867756,15.465735898639664&#10;c 0,20.537329323697136 -11.496562731199067,28.587329323697134 -11.810959463491152,20.537329323697136&#10;c -18.48888888888889,-8.049999999999999 -11.377777777777778,28.174999999999997 -26.290791842951215,46.54600400963619 c -0.0,33.841068243185184 7.111111111111112,57.08705265544289 -1.2117370150854385,47.69538598877622&#10;c -25.544936398865897,-8.049999999999999 -43.56631982071114,0 -43.56631982071114,19.387947344557105&#10;c 0,13.256221257808988 15.45003596021748,21.306221257808986 24.498303193169285,13.256221257808988&#10;c 18.48888888888889,-8.049999999999999 11.377777777777778,28.174999999999997 20.2797536426273,53.82711207552434 L 0 805 " fill="none" stroke="black" stroke-width="0.1" style="vector-effect:non-scaling-stroke;" /></g><g><path d="M 0 0  L 284.444444 0  c 0.0,20.340905503875828 -7.111111111111112,64.09949724423578 20.998518927048558,54.707830577569105&#10;c 3.7549481408846357,-8.049999999999999 17.723068857791638,0 17.723068857791638,12.375502755764224&#10;c 0,17.01532616983596 -4.27842677830437,25.065326169835956 -16.50976475998163,17.01532616983596&#10;c -18.48888888888889,-8.049999999999999 -11.377777777777778,28.174999999999997 -22.211823024858568,50.06800716349737 c -0.0,26.417656744048095 7.111111111111112,59.70751830113699 -30.664771282608122,50.31585163447033&#10;c -12.490675423327415,-8.049999999999999 -15.400396481556548,0 -15.400396481556548,16.767481698863&#10;c 0,14.263545602673034 3.7000875647515663,22.31354560267303 16.974170403852373,14.263545602673034&#10;c 18.48888888888889,-8.049999999999999 11.377777777777778,28.174999999999997 29.090997360312297,52.819787730660295 c -0.0,6.708358167285767 7.111111111111112,56.942477171766974 -23.04454109177975,47.55081050510031&#10;c -14.681976341258407,-8.049999999999999 -19.028734930216793,0 -19.028734930216793,19.53252282823302&#10;c 0,14.213976193712938 20.292251431299885,22.263976193712935 23.967976041112127,14.213976193712938&#10;c 18.48888888888889,-8.049999999999999 11.377777777777778,28.174999999999997 18.105299980884414,52.86935713962039 c -0.0,36.760415156833545 7.111111111111112,62.94019368767047 -15.600363703046337,53.54852702100381&#10;c -5.444640483308425,-8.049999999999999 -20.252239490682076,0 -20.252239490682076,13.534806312329522&#10;c 0,17.325715870867256 17.047243755029633,25.375715870867253 36.180988144279134,17.325715870867256&#10;c 18.48888888888889,-8.049999999999999 11.377777777777778,28.174999999999997 -0.3283849505507206,49.75761746246607 c 0.0,33.747318873716445 -7.111111111111112,56.766181365169956 6.787255389873676,47.37451469850329&#10;c 35.39072562485401,-8.049999999999999 41.130442421915845,0 41.130442421915845,19.70881863483004&#10;c 0,9.728142705510024 -8.725726945852731,17.77814270551002 -17.82031887376767,9.728142705510024&#10;c -18.48888888888889,-8.049999999999999 -11.377777777777778,28.174999999999997 -30.097378938021855,57.355190627823305 c 0.0,27.187771352455922 -7.111111111111112,66.53047365427778 25.7132657596313,57.13880698761112&#10;c 8.462948621998454,-8.049999999999999 13.596975145704373,0 13.596975145704373,9.94452634572221&#10;c 0,13.536968879578282 -6.855934556055285,21.58696887957828 -9.385879632365292,13.536968879578282&#10;c -18.48888888888889,-8.049999999999999 -11.377777777777778,28.174999999999997 -29.924361272970383,53.54636445375505 L 0 805 " fill="none" stroke="black" stroke-width="0.1" style="vector-effect:non-scaling-stroke;" /></g><g><path d="M 0 0  L 426.666667 0  c -0.0,22.38146816663563 7.111111111111112,57.4746237087995 -19.123839276314605,48.08295704213283&#10;c -4.737786069823625,-8.049999999999999 -21.10081802966055,0 -21.10081802966055,19.000376291200496&#10;c 0,18.181474773006173 26.61226931291225,26.23147477300617 32.92109743809611,18.181474773006173&#10;c 18.48888888888889,-8.049999999999999 11.377777777777778,28.174999999999997 7.303559867879045,48.901858560327156 c 0.0,36.169923355872896 -7.111111111111112,55.10716589930825 30.549311563734022,45.715499232641584&#10;c 6.926450779837829,-8.049999999999999 15.24538809974532,0 15.24538809974532,21.367834100691745&#10;c 0,18.944890145681995 -15.104298441195523,26.994890145681993 -48.267217240190334,18.944890145681995&#10;c -18.48888888888889,-8.049999999999999 -11.377777777777778,28.174999999999997 2.4725175767109917,48.13844318765133 c -0.0,15.133283678248512 7.111111111111112,62.628728154431414 -22.262884433484253,53.23706148776475&#10;c -16.39014901374182,-8.049999999999999 -21.82991798618636,0 -21.82991798618636,13.84627184556858&#10;c 0,19.119030985002354 4.900639185150406,27.16903098500235 20.32550785775914,19.119030985002354&#10;c 18.48888888888889,-8.049999999999999 11.377777777777778,28.174999999999997 23.767294561911473,47.964302348330975 c 0.0,31.13261665921396 -7.111111111111112,56.94053854996851 -2.813405794071248,47.54887188330184&#10;c 35.758882454133534,-8.049999999999999 42.595227458375184,0 42.595227458375184,19.534461450031486&#10;c 0,14.10027518847292 -6.972313850822071,22.150275188472918 -18.377864601814224,14.10027518847292&#10;c -18.48888888888889,-8.049999999999999 -11.377777777777778,28.174999999999997 -21.40395706248971,52.98305814486041 c -0.0,32.04159648639861 7.111111111111112,55.72841900644893 2.628803130011832,46.336752339782265&#10;c -23.76265630285483,-8.049999999999999 -46.77367526221756,0 -46.77367526221756,20.746580993551063&#10;c 0,16.74148514998052 29.602023703972655,24.791485149980517 42.84075656129812,16.74148514998052&#10;c 18.48888888888889,-8.049999999999999 11.377777777777778,28.174999999999997 1.304115570907605,50.34184818335281 c -0.0,7.289749864535973 7.111111111111112,62.334239749238264 -15.541309026507708,52.9425730825716&#10;c -14.178054535667446,-8.049999999999999 -25.217671400346102,0 -25.217671400346102,14.14076025076173&#10;c 0,17.379689369859804 12.913190680399866,25.4296893698598 13.382716215702075,17.379689369859804&#10;c 18.48888888888889,-8.049999999999999 11.377777777777778,28.174999999999997 27.376264211151735,49.703643963473525 L 0 805 " fill="none" stroke="black" stroke-width="0.1" style="vector-effect:non-scaling-stroke;" /></g><g><path d="M 0 0  L 568.888889 0  c -0.0,10.55358891063184 7.111111111111112,58.133554445942636 -4.126326998897511,48.74188777927597&#10;c -44.235181131451235,-8.049999999999999 -43.98948594686181,0 -43.98948594686181,18.34144555405736&#10;c 0,15.990528220876854 44.974008558273894,24.04052822087685 48.88372489278366,15.990528220876854&#10;c 18.48888888888889,-8.049999999999999 11.377777777777778,28.174999999999997 -0.7679119470243378,51.092805112456475 c 0.0,37.84286908538287 -7.111111111111112,58.37611265162935 -1.0320614626863809,48.98444598496268&#10;c 45.540012017791994,-8.049999999999999 48.412665377449336,0 48.412665377449336,18.098887348370646&#10;c 0,9.688579741039703 -16.07505470533498,17.7385797410397 -32.02797882120602,9.688579741039703&#10;c -18.48888888888889,-8.049999999999999 -11.377777777777778,28.174999999999997 -15.352625093556938,57.394753592293625 c -0.0,32.9646062599455 7.111111111111112,66.51507839501217 -23.39844556225191,57.1234117283455&#10;c -7.279740015508526,-8.049999999999999 -14.950117436118202,0 -14.950117436118202,9.959921604987827&#10;c 0,13.013764288429627 23.119505437382617,21.063764288429624 30.602922868011106,13.013764288429627&#10;c 18.48888888888889,-8.049999999999999 11.377777777777778,28.174999999999997 7.745640130359007,54.0695690449037 c -0.0,10.365865183021358 7.111111111111112,63.9878272192319 -6.898939047440198,54.59616055256524&#10;c -10.313535316309215,-8.049999999999999 -33.522050205320454,0 -33.522050205320454,12.487172780768091&#10;c 0,11.828870064701675 6.9965059771878275,19.878870064701673 26.654791933424306,11.828870064701675&#10;c 18.48888888888889,-8.049999999999999 11.377777777777778,28.174999999999997 13.766197319336342,55.25446326863165 c -0.0,17.431877628747873 7.111111111111112,55.02961273563159 -24.884282472257922,45.63794606896492&#10;c -7.649207351183334,-8.049999999999999 -19.30607226261659,0 -19.30607226261659,21.445387264368406&#10;c 0,9.809841329699765 9.986965856741243,17.859841329699762 19.003097108743628,9.809841329699765&#10;c 18.48888888888889,-8.049999999999999 11.377777777777778,28.174999999999997 25.187257626130883,57.273492003633564 c 0.0,23.126814818125627 -7.111111111111112,60.758626373180185 18.456117411638363,51.36695970651352&#10;c 19.456602086405326,-8.049999999999999 27.765944858797223,0 27.765944858797223,15.71637362681981&#10;c 0,12.245627270505636 -12.663291110002133,20.295627270505634 -16.609958182336435,12.245627270505636&#10;c -18.48888888888889,-8.049999999999999 -11.377777777777778,28.174999999999997 -29.61210408809915,54.83770606282769 L 0 805 " fill="none" stroke="black" stroke-width="0.1" style="vector-effect:non-scaling-stroke;" /></g><g><path d="M 0 0  L 711.111111 0  c 0.0,9.260379797262658 -7.111111111111112,58.4036136533611 7.030626058215622,49.01194698669443&#10;c 13.850234121420629,-8.049999999999999 37.866136832258206,0 37.866136832258206,18.071386346638896&#10;c 0,17.80996205532864 -10.426958211224175,25.859962055328637 -16.474794913289152,17.80996205532864&#10;c -18.48888888888889,-8.049999999999999 -11.377777777777778,28.174999999999997 -28.42196797718468,49.27337127800469 c 0.0,33.502104588084954 -7.111111111111112,65.70170563909322 4.508295165872309,56.310038972426554&#10;c 27.16110658161143,-8.049999999999999 39.80820636917062,0 39.80820636917062,10.773294360906775&#10;c 0,13.86833626526753 -12.823880438375426,21.918336265267527 -36.96088253320289,13.86833626526753&#10;c -18.48888888888889,-8.049999999999999 -11.377777777777778,28.174999999999997 -7.35561900184004,53.2149970680658 c 0.0,24.586688854481228 -7.111111111111112,61.66527183270019 4.574948169285299,52.273605166033526&#10;c 6.425809213667252,-8.049999999999999 29.578849460504337,0 29.578849460504337,14.809728167299802&#10;c 0,10.692658119252371 -7.970546375477697,18.74265811925237 -8.128745106941988,10.692658119252371&#10;c -18.48888888888889,-8.049999999999999 -11.377777777777778,28.174999999999997 -26.02505252284765,56.39067521408096 c -0.0,26.15833039808797 7.111111111111112,66.00908336161078 -23.017704328344653,56.617416694944104&#10;c -15.92034565448686,-8.049999999999999 -23.154489332185197,0 -23.154489332185197,10.465916638389224&#10;c 0,18.513364894129325 6.708543983657078,26.56336489412932 18.361728508742033,18.513364894129325&#10;c 18.48888888888889,-8.049999999999999 11.377777777777778,28.174999999999997 27.810465151787817,48.569968439204004 c -0.0,25.38415198733005 7.111111111111112,64.34527340647749 -29.847982206088858,54.953606739810816&#10;c -5.390159671535159,-8.049999999999999 -12.193746796003552,0 -12.193746796003552,12.129726593522513&#10;c 0,13.246303016671305 42.45947290303667,21.296303016671303 42.52198245172368,13.246303016671305&#10;c 18.48888888888889,-8.049999999999999 11.377777777777778,28.174999999999997 -0.48025344963127026,53.83703031666202 c 0.0,27.501863222456343 -7.111111111111112,55.580065391603924 4.132344013762055,46.18839872493726&#10;c 9.645340507727507,-8.049999999999999 38.44666543563918,0 38.44666543563918,20.89493460839607&#10;c 0,9.628264253342564 -11.537212489003318,17.67826425334256 -22.405429224091392,9.628264253342564&#10;c -18.48888888888889,-8.049999999999999 -11.377777777777778,28.174999999999997 -20.17358022530985,57.455069079990764 L 0 805 " fill="none" stroke="black" stroke-width="0.1" style="vector-effect:non-scaling-stroke;" /></g><g><path d="M 0 0  L 853.333333 0  c -0.0,8.292318919807979 7.111111111111112,64.95625174225376 -22.14247904357046,55.56458507558708&#10;c -6.34033962799726,-8.049999999999999 -19.151039649638236,0 -19.151039649638236,11.518748257746246&#10;c 0,18.611736212661782 31.603481532182833,26.66173621266178 42.362923915644686,18.611736212661782&#10;c 18.48888888888889,-8.049999999999999 11.377777777777778,28.174999999999997 -1.0694052224359893,48.47159712067155 c 0.0,13.812671180943186 -7.111111111111112,65.01940195835132 24.92822257093176,55.62773529168466&#10;c 5.156306232498762,-8.049999999999999 16.42353351692946,0 16.42353351692946,11.45559804164867&#10;c 0,10.93247942649866 -26.709910791858164,18.982479426498656 -35.06128294955366,10.93247942649866&#10;c -18.48888888888889,-8.049999999999999 -11.377777777777778,28.174999999999997 -6.290473138307561,56.15085390683467 c -0.0,19.015974854335425 7.111111111111112,63.90088784698856 -30.342979353209348,54.509221180321894&#10;c -1.9195466379688289,-8.049999999999999 -5.0228296236204635,0 -5.0228296236204635,12.574112153011434&#10;c 0,13.060623686523897 17.860717972224027,21.110623686523894 37.54032722648769,13.060623686523897&#10;c 18.48888888888889,-8.049999999999999 11.377777777777778,28.174999999999997 -2.174518249657879,54.02270964680943 c 0.0,20.828598459478563 -7.111111111111112,62.3009641727712 24.493889069171736,52.90929750610454&#10;c 13.473856542063471,-8.049999999999999 17.046561088310753,0 17.046561088310753,14.174035827228792&#10;c 0,17.501709278867935 -17.241289802084378,25.551709278867932 -42.8645707642685,17.501709278867935&#10;c -18.48888888888889,-8.049999999999999 -11.377777777777778,28.174999999999997 1.3241206067860105,49.581624054465394 c 0.0,20.820636257418037 -7.111111111111112,61.57004659367715 24.34171164488706,52.17837992701048&#10;c 7.712144567090982,-8.049999999999999 13.533804676212352,0 13.533804676212352,14.904953406322846&#10;c 0,17.796110679610962 -12.505289579868966,25.84611067961096 -16.446318736945983,17.796110679610962&#10;c -18.48888888888889,-8.049999999999999 -11.377777777777778,28.174999999999997 -21.429197584153428,49.28722265372237 c -0.0,32.89104569844887 7.111111111111112,65.29407294297839 -6.8471676191336925,55.90240627631172&#10;c -22.39400174923334,-8.049999999999999 -36.36391577577798,0 -36.36391577577798,11.180927057021606&#10;c 0,15.236706093305912 5.28033549512348,23.28670609330591 20.005203669735568,15.236706093305912&#10;c 18.48888888888889,-8.049999999999999 11.377777777777778,28.174999999999997 23.205879725176107,51.846627240027416 L 0 805 " fill="none" stroke="black" stroke-width="0.1" style="vector-effect:non-scaling-stroke;" /></g><g><path d="M 0 0  L 995.555556 0  c -0.0,9.923242945093918 7.111111111111112,56.916732397364 -6.9560585747091785,47.525065730697335&#10;c -13.950381056461708,-8.049999999999999 -37.197072512431944,0 -37.197072512431944,19.558267602635993&#10;c 0,9.963209183970037 6.77316201851272,18.013209183970034 15.50617038320948,9.963209183970037&#10;c 18.48888888888889,-8.049999999999999 11.377777777777778,28.174999999999997 28.64696070393164,57.12012414936329 c -0.0,37.556777884094316 7.111111111111112,60.11070858099604 -27.853190011983646,50.719041914329374&#10;c -12.13228944109434,-8.049999999999999 -14.914450646656643,0 -14.914450646656643,16.364291419003955&#10;c 0,19.960493495786523 9.132836144377583,28.01049349578652 19.1566849574264,19.960493495786523&#10;c 18.48888888888889,-8.049999999999999 11.377777777777778,28.174999999999997 23.61095570121389,47.122839837546806 c 0.0,10.647578445829195 -7.111111111111112,55.71817265364912 11.932176366632932,46.326505986982454&#10;c 22.0959624579392,-8.049999999999999 22.57983796951295,0 22.57983796951295,20.756827346350875&#10;c 0,14.78136552675447 -7.691255373101997,22.831365526754468 -35.503992129397986,14.78136552675447&#10;c -18.48888888888889,-8.049999999999999 -11.377777777777778,28.174999999999997 0.9919777932521043,52.30196780657886 c 0.0,16.507421435420767 -7.111111111111112,60.26009818659209 0.08840814762219701,50.86843151992542&#10;c 27.171819750961667,-8.049999999999999 38.55708661179052,0 38.55708661179052,16.214901813407906&#10;c 0,21.038507865237776 -7.990878617569055,29.088507865237773 -11.117024649333345,21.038507865237776&#10;c -18.48888888888889,-8.049999999999999 -11.377777777777778,28.174999999999997 -27.52847011007937,46.04482546809555 c 0.0,19.58238410872098 -7.111111111111112,63.11471315249603 22.67819497344798,53.723046485829364&#10;c 17.037846465012265,-8.049999999999999 17.88751435720844,0 17.88751435720844,13.360286847503964&#10;c 0,20.000120125549202 -7.611858360872801,28.0501201255492 -13.389753265554088,20.000120125549202&#10;c -18.48888888888889,-8.049999999999999 -11.377777777777778,28.174999999999997 -27.17595606510233,47.08321320778413 c 0.0,8.014306185608518 -7.111111111111112,66.33430104419861 1.5897405854110438,56.94263437753194&#10;c 23.785945540463903,-8.049999999999999 41.10869628023875,0 41.10869628023875,10.14069895580139&#10;c 0,10.442689782922443 -25.554730557649286,18.49268978292244 -35.01194972475537,10.442689782922443&#10;c -18.48888888888889,-8.049999999999999 -11.377777777777778,28.174999999999997 -7.686487140894428,56.640643550410886 L 0 805 " fill="none" stroke="black" stroke-width="0.1" style="vector-effect:non-scaling-stroke;" /></g><g><path d="M 0 0  L 1137.777778 0  c 0.0,11.116510815410683 -7.111111111111112,55.6496999540406 -2.6616219570135424,46.258033287373934&#10;c 39.23057111949423,-8.049999999999999 49.33725826467952,0 49.33725826467952,20.825300045959395&#10;c 0,12.620644059192642 -8.471239098258271,20.67064405919264 -27.036106522278367,12.620644059192642&#10;c -18.48888888888889,-8.049999999999999 -11.377777777777778,28.174999999999997 -19.63952978538761,54.462689274140686 c 0.0,21.158835823663807 -7.111111111111112,55.81774451852536 23.916002250050685,46.42607785185869&#10;c 15.501967329073645,-8.049999999999999 18.316340736314732,0 18.316340736314732,20.657255481474635&#10;c 0,19.472404407880816 -35.07600842428393,27.522404407880813 -43.01162228696073,19.472404407880816&#10;c -18.48888888888889,-8.049999999999999 -11.377777777777778,28.174999999999997 0.7792793005953129,47.61092892545251 c -0.0,23.475074762242567 7.111111111111112,61.20122549942071 -15.590429805548803,51.80955883275404&#10;c -8.5231347082643,-8.049999999999999 -23.64669097792332,0 -23.64669097792332,15.273774500579286&#10;c 0,20.559663540724372 16.28922543105639,28.60966354072437 39.26265469023904,20.559663540724372&#10;c 18.48888888888889,-8.049999999999999 11.377777777777778,28.174999999999997 -0.025533906766916914,46.523669792608956 c -0.0,27.246727312861196 7.111111111111112,57.23787740218121 -2.8928172241619388,47.846210735514546&#10;c -12.850890086678392,-8.049999999999999 -34.693670553973604,0 -34.693670553973604,19.237122597818782&#10;c 0,12.62411517023942 12.11155971583983,20.674115170239418 12.9886337531184,12.62411517023942&#10;c 18.48888888888889,-8.049999999999999 11.377777777777778,28.174999999999997 24.597854025017142,54.45921816309391 c 0.0,32.76316813253003 -7.111111111111112,59.193975693268676 28.734128191943952,49.80230902660201&#10;c 6.00332736213025,-8.049999999999999 6.765486859841637,0 6.765486859841637,17.281024306731318&#10;c 0,19.82340419189717 -3.029952507609243,27.873404191897166 -6.617739010014649,19.82340419189717&#10;c -18.48888888888889,-8.049999999999999 -11.377777777777778,28.174999999999997 -28.88187604177094,47.25992914143616 c -0.0,30.714850353086575 7.111111111111112,56.75980480516581 -11.06160992367616,47.36813813849914&#10;c -25.72647848669798,-8.049999999999999 -27.328476590133647,0 -27.328476590133647,19.715195194834187&#10;c 0,12.927601773893713 8.942117485413702,20.97760177389371 20.80308611410961,12.927601773893713&#10;c 18.48888888888889,-8.049999999999999 11.377777777777778,28.174999999999997 17.587000399700194,54.155731559439616 L 0 805 " fill="none" stroke="black" stroke-width="0.1" style="vector-effect:non-scaling-stroke;" /></g></g><g><g><path d="M 0 0  L 0 134.166667  c 24.051315171487172,0.0 70.96453207656312,-6.708333333333333 61.008976521007554,19.421836446205955&#10;c -8.533333333333333,19.419663436424038 0,23.451604931361185 10.10213459010356,23.451604931361185&#10;c 19.720195277033895,0 28.253528610367226,-39.08999463055784 19.720195277033895,-43.19991378728327&#10;c -8.533333333333333,-17.441666666666666 29.866666666666667,-10.733333333333333 51.39091583407722,0.326472409716132 c 10.219623745919028,-0.0 67.64036855641221,6.708333333333333 57.68481300085666,-24.101781825764466&#10;c -8.533333333333333,-14.481962344781262 0,-17.978272614277895 13.426298110254457,-17.978272614277895&#10;c 17.677880653112325,0 26.211213986445657,6.946123067418318 17.677880653112325,14.833964600720538&#10;c -8.533333333333333,17.441666666666666 29.866666666666667,10.733333333333333 53.43323045799879,27.246089839321822 c 27.48262153912017,-0.0 70.7484747287332,6.708333333333333 60.792919173177644,-28.32502308642553&#10;c -8.533333333333333,-9.478025088035562 0,-10.562880876682982 10.31819193793347,-10.562880876682982&#10;c 18.85184693016059,0 27.385180263493922,5.406001511609981 18.85184693016059,24.805774057238793&#10;c -8.533333333333333,17.441666666666666 29.866666666666667,10.733333333333333 52.259264180950524,14.08212990586972 c 20.893953282531882,0.0 67.45070228440369,-6.708333333333333 57.495146728848134,19.405654870151437&#10;c -8.533333333333333,6.684476810278309 0,16.33203674935836 13.61596438226298,16.33203674935836&#10;c 18.468711796218827,0 27.002045129552158,-17.504045446991732 18.468711796218827,-19.478482186088783&#10;c -8.533333333333333,-17.441666666666666 29.866666666666667,-10.733333333333333 52.64239931489229,-16.259209433421013 c 10.320762977272322,-0.0 62.7382867066477,6.708333333333333 52.78273115109214,-4.117191666842121&#10;c -8.533333333333333,-28.258175571112478 0,-29.085875075371167 18.32837996001897,-29.085875075371167&#10;c 13.913492049057808,0 22.44682538239114,4.981271738953822 13.913492049057808,7.2663467387201415&#10;c -8.533333333333333,17.441666666666666 29.866666666666667,10.733333333333333 57.197619062053306,25.936720003493146 c 11.965055432205645,-0.0 68.69643204711792,6.708333333333333 58.74087649156237,1.8812959407656085&#10;c -8.533333333333333,-18.530555945985398 0,-43.38659102605215 12.370234619548746,-43.38659102605215&#10;c 14.196874431170784,0 22.730207764504115,25.69348437617659 14.196874431170784,30.12226638941012&#10;c -8.533333333333333,17.441666666666666 29.866666666666667,10.733333333333333 56.91423667994033,11.383028695876419 c 9.978476434569805,0.0 58.7571149360589,-6.708333333333333 48.80155938050334,13.640623290369172&#10;c -8.533333333333333,25.96621735101577 0,29.47722112181026 22.309551730607772,29.47722112181026&#10;c 16.84329870130651,0 25.37663203463984,-25.130265536860726 16.84329870130651,-33.13984535937453&#10;c -8.533333333333333,-17.441666666666666 29.866666666666667,-10.733333333333333 54.267812409804606,-9.977999052804897 c 33.24051942558595,0.0 61.26860657854658,-6.708333333333333 51.313051022991026,12.627287419867896&#10;c -8.533333333333333,12.678888732178832 0,20.060828452443594 19.79806008812009,20.060828452443594&#10;c 16.20212549920737,0 24.7354588325407,-13.639049090381011 16.20212549920737,-18.27041429415749&#10;c -8.533333333333333,-17.441666666666666 29.866666666666667,-10.733333333333333 54.908985611903745,-14.417701578154002 c 21.751323998535035,0.0 63.24288272239797,-6.708333333333333 53.28732716684242,5.9702356004744965&#10;c -8.533333333333333,18.42517846099049 0,28.494439179213558 17.823783944268698,28.494439179213558&#10;c 13.907473742070465,0 22.440807075403796,-16.930409000477567 13.907473742070465,-33.13984392702616&#10;c -8.533333333333333,-17.441666666666666 29.866666666666667,-10.733333333333333 57.20363736904065,-1.32483085266189 L 1280 0 " fill="none" stroke="black" stroke-width="0.1" style="vector-effect:non-scaling-stroke;" /></g><g><path d="M 0 0  L 0 268.333333  c 31.528256488039176,0.0 58.51021053543108,-6.708333333333333 48.55465497987552,9.717045447234728&#10;c -8.533333333333333,11.957444710491979 0,29.550792906983954 22.556456131235592,29.550792906983954&#10;c 22.340625821414278,0 30.87395915474761,-4.659525437844272 22.340625821414278,-9.843130694796866&#10;c -8.533333333333333,-17.441666666666666 29.866666666666667,-10.733333333333333 48.770485289696836,-29.424707659421816 c 36.83032316732356,-0.0 66.21587858049168,6.708333333333333 56.26032302493611,-6.402915330545814&#10;c -8.533333333333333,-17.94001763440447 0,-26.61641673353721 14.850788086175001,-26.61641673353721&#10;c 12.204255687918106,0 20.737589021251438,20.21011200328218 12.204255687918106,22.55636923462918&#10;c -8.533333333333333,17.441666666666666 29.866666666666667,10.733333333333333 58.90685542319301,10.462962829453843 c 30.594739741321764,-0.0 68.16047445704388,6.708333333333333 58.20491890148832,-26.293018033023746&#10;c -8.533333333333333,-5.590561372238343 0,-11.189080494719828 12.906192209622795,-11.189080494719828&#10;c 14.576326812974926,0 23.109660146308258,12.92020556265105 14.576326812974926,28.31502368007579&#10;c -8.533333333333333,17.441666666666666 29.866666666666667,10.733333333333333 56.53478429813619,9.167074847667784 c 20.066916257148655,-0.0 60.31587383760451,6.708333333333333 50.36031828204895,-8.755109406580976&#10;c -8.533333333333333,-24.897910417896263 0,-30.197343818494105 20.750792829062163,-30.197343818494105&#10;c 13.646955207069709,0 22.18028854040304,14.386724282365455 13.646955207069709,19.87705564805273&#10;c -8.533333333333333,17.441666666666666 29.866666666666667,10.733333333333333 57.464155904041405,19.075397577022354 c 7.611611471697877,-0.0 64.28555323676854,6.708333333333333 54.32999768121298,-23.054648653446506&#10;c -8.533333333333333,-14.237740312311802 0,-16.978869887245544 16.781113429898134,-16.978869887245544&#10;c 20.201191516079447,0 28.73452484941278,13.47221224973062 20.201191516079447,30.118857927115386&#10;c -8.533333333333333,17.441666666666666 29.866666666666667,10.733333333333333 50.90991959503167,9.914660613576665 c 35.967443831046026,-0.0 62.63567774624732,6.708333333333333 52.68012219069176,-12.869921907989447&#10;c -8.533333333333333,-23.089487869080614 0,-25.799428922389627 18.430988920419352,-25.799428922389627&#10;c 10.951983122719483,0 19.485316456052814,13.346589754526406 10.951983122719483,14.704888107162013&#10;c -8.533333333333333,17.441666666666666 29.866666666666667,10.733333333333333 60.15912798839163,23.96446272321706 c 23.212358666523695,-0.0 66.4487686992673,6.708333333333333 56.49321314371175,-28.163293591505393&#10;c -8.533333333333333,-2.3328383467372316 0,-4.626396639173457 14.617897967399365,-4.626396639173457&#10;c 12.656171677145252,0 21.189505010478584,19.985199318052615 12.656171677145252,31.17335900052002&#10;c -8.533333333333333,17.441666666666666 29.866666666666667,10.733333333333333 58.45493943396586,1.6163312301588313 c 37.51047830996143,0.0 59.948373157235416,-6.708333333333333 49.99281760167986,13.15051350348834&#10;c -8.533333333333333,10.187246450278415 0,26.833116327676734 21.118293509431254,26.833116327676734&#10;c 15.770928578003335,0 24.304261911336667,-18.86509675525806 15.770928578003335,-32.13124577756792&#10;c -8.533333333333333,-17.441666666666666 29.866666666666667,-10.733333333333333 55.34018253310778,-7.852384053597156 c 7.2577822932411395,-0.0 63.876424009567955,6.708333333333333 53.9208684540124,-19.76423718213801&#10;c -8.533333333333333,-7.999258211249258 0,-15.286389384781181 17.190242657098715,-15.286389384781181&#10;c 15.896734410167454,0 24.430067743500786,8.431371982368669 15.896734410167454,18.67702726872066&#10;c -8.533333333333333,17.441666666666666 29.866666666666667,10.733333333333333 55.21437670094366,16.37359929819853 L 1280 0 " fill="none" stroke="black" stroke-width="0.1" style="vector-effect:non-scaling-stroke;" /></g><g><path d="M 0 0  L 0 402.500000  c 18.03193101966693,0.0 65.28771083035976,-6.708333333333333 55.332155274804194,21.87627219519839&#10;c -8.533333333333333,11.452023344371865 0,16.04354276606822 15.77895583630692,16.04354276606822&#10;c 15.65780851904681,0 24.19114185238014,-3.5707132790823644 15.65780851904681,-9.876952748064902&#10;c -8.533333333333333,-17.441666666666666 29.866666666666667,-10.733333333333333 55.453302592064304,-28.04286221320171 c 38.342832300879174,0.0 66.29745663219073,-6.708333333333333 56.34190107663517,-0.38753091767764003&#10;c -8.533333333333333,27.82153210660373 0,37.341929924546825 14.769210034475947,37.341929924546825&#10;c 18.651835522179255,0 27.185168855512586,-25.704932592609598 18.651835522179255,-31.74593017215997&#10;c -8.533333333333333,-17.441666666666666 29.866666666666667,-10.733333333333333 52.45927558893186,-5.208468834709219 c 9.518187746494846,-0.0 68.50434204287397,6.708333333333333 58.54878648731842,-14.70804337480578&#10;c -8.533333333333333,-21.891978687648756 0,-28.381269106607245 12.562324623792698,-28.381269106607245&#10;c 15.084253209517755,0 23.617586542851086,16.99617723777647 15.084253209517755,40.16327578412823&#10;c -8.533333333333333,17.441666666666666 29.866666666666667,10.733333333333333 56.02685790159336,2.9260366972847933 c 28.37295269605157,-0.0 65.65086655035022,6.708333333333333 55.69531099479466,-5.261851840203011&#10;c -8.533333333333333,-32.36677915010782 0,-34.49999802874875 15.415800116316454,-34.49999802874875&#10;c 18.815847987175104,0 27.349181320508436,34.3783389741071 18.815847987175104,34.632069587438814&#10;c -8.533333333333333,17.441666666666666 29.866666666666667,10.733333333333333 52.29526312393601,5.129780281512943 c 29.791399554938067,-0.0 66.70506637640078,6.708333333333333 56.74951082084522,-24.535675764583203&#10;c -8.533333333333333,-10.809203104086153 0,-13.99278640515685 14.361600290265898,-13.99278640515685&#10;c 13.767273338323093,0 22.300606671656425,18.93359300088358 13.767273338323093,40.77371337996411&#10;c -8.533333333333333,17.441666666666666 29.866666666666667,10.733333333333333 57.34383777278802,-2.2452512102240547 c 30.83792674614967,0.0 64.26381352581359,-6.708333333333333 54.30825797025803,21.165487511200407&#10;c -8.533333333333333,9.1493743005749 0,17.06236144478304 16.80285314085308,17.06236144478304&#10;c 20.84521068611666,0 29.37854401944999,-18.720928412338377 20.84521068611666,-39.46267113265431&#10;c -8.533333333333333,-17.441666666666666 29.866666666666667,-10.733333333333333 50.265900424994456,1.2348221766708605 c 33.702487624104435,0.0 59.662168814146305,-6.708333333333333 49.70661325859075,24.464959765779966&#10;c -8.533333333333333,14.602033355359946 0,14.560431206044818 21.404497852520365,14.560431206044818&#10;c 14.045643152112305,0 22.578976485445637,-19.974568065878728 14.045643152112305,-41.65262590607678&#10;c -8.533333333333333,-17.441666666666666 29.866666666666667,-10.733333333333333 57.06546795899881,2.6272349342519945 c 23.28919266969246,-0.0 66.47628030763508,6.708333333333333 56.52072475207952,-0.5198016410390994&#10;c -8.533333333333333,-14.130191337966632 0,-33.77919599372136 14.59038635903159,-33.77919599372136&#10;c 14.070684879959742,0 22.604018213293074,34.86618806263904 14.070684879959742,34.66840918467229&#10;c -8.533333333333333,17.441666666666666 29.866666666666667,10.733333333333333 57.04042623115137,-0.3694115499118311 c 9.624931615028569,0.0 61.13312018756989,-6.708333333333333 51.17756463201433,10.439044223929052&#10;c -8.533333333333333,32.16439353823369 0,32.12495694679316 19.933546479096783,32.12495694679316&#10;c 10.01331405519511,0 18.54664738852844,-16.45748962780526 10.01331405519511,-23.390322872145692&#10;c -8.533333333333333,-17.441666666666666 29.866666666666667,-10.733333333333333 61.097797055916004,-19.173678298576522 L 1280 0 " fill="none" stroke="black" stroke-width="0.1" style="vector-effect:non-scaling-stroke;" /></g><g><path d="M 0 0  L 0 536.666667  c 24.652382488518946,0.0 65.98383070726068,-6.708333333333333 56.028275151705124,25.577481374736465&#10;c -8.533333333333333,13.128204368668774 0,18.229640511471466 15.08283595940599,18.229640511471466&#10;c 16.789726584207884,0 25.323059917541215,-10.970001483843324 16.789726584207884,-27.369603934170833&#10;c -8.533333333333333,-17.441666666666666 29.866666666666667,-10.733333333333333 54.32138452690323,-16.437517952037098 c 10.167550637283185,0.0 66.2837477377706,-6.708333333333333 56.328192182215034,27.702922431818145&#10;c -8.533333333333333,2.793545761431822 0,6.65657169685484 14.78291892889608,6.65657169685484&#10;c 20.345809351706748,0 28.87914268504008,-12.245380139696906 20.345809351706748,-15.222400039290221&#10;c -8.533333333333333,-17.441666666666666 29.866666666666667,-10.733333333333333 50.765301759404366,-19.137094089382764 c 23.068596265657067,0.0 68.47553803708765,-6.708333333333333 58.51998248153209,-2.1487590104556378&#10;c -8.533333333333333,19.867326700509725 0,45.55441694365777 12.591128629579025,45.55441694365777&#10;c 12.29928170954706,0 20.83261504288039,-4.933337834031065 12.29928170954706,-22.339541317426928&#10;c -8.533333333333333,-17.441666666666666 29.866666666666667,-10.733333333333333 58.811829401564054,-21.066116615775208 c 14.074071113357379,-0.0 69.41963222586185,6.708333333333333 59.46407667030629,-5.698945843692688&#10;c -8.533333333333333,-26.266316877994335 0,-32.973585153180046 11.647034440804823,-32.973585153180046&#10;c 21.47912377089054,0 30.01245710422387,14.451102482942455 21.47912377089054,25.41138360788549&#10;c -8.533333333333333,17.441666666666666 29.866666666666667,10.733333333333333 49.631987340220576,13.261147388987247 c 19.893179526321507,-0.0 67.14526929595655,6.708333333333333 57.18971374040099,-8.650002550853264&#10;c -8.533333333333333,-10.125445770292691 0,-24.73660622149992 13.921397370710125,-24.73660622149992&#10;c 10.547174315207144,0 19.080507648540475,8.32981288044235 10.547174315207144,29.57090907649067&#10;c -8.533333333333333,17.441666666666666 29.866666666666667,10.733333333333333 60.56393679590397,3.8156996958625164 c 19.830267458875987,0.0 61.59753125216162,-6.708333333333333 51.64197569660607,9.94479659448101&#10;c -8.533333333333333,10.587185464144055 0,22.67749082503108 19.469135414505047,22.67749082503108&#10;c 16.16306130911444,0 24.69639464244777,-9.674014778280503 16.16306130911444,-25.364012420956644&#10;c -8.533333333333333,-17.441666666666666 29.866666666666667,-10.733333333333333 54.948049801996675,-7.2582749985554464 c 41.171871172746606,-0.0 62.5215938813889,6.708333333333333 52.56603832583335,-19.856670537532302&#10;c -8.533333333333333,-9.386114323653022 0,-19.050258612877116 18.545072785277767,-19.050258612877116&#10;c 14.935900473240864,0 23.469233806574195,11.475578220025898 14.935900473240864,38.70121330522974&#10;c -8.533333333333333,17.441666666666666 29.866666666666667,10.733333333333333 56.17521063787025,0.20571584517967523 c 13.731697717079767,-0.0 64.40014618229937,6.708333333333333 54.44459062674381,-9.204357717151769&#10;c -8.533333333333333,-8.959239692039676 0,-35.01693290701657 16.666520484367304,-35.01693290701657&#10;c 20.92437313761576,0 29.45770647094909,20.03452888763684 20.92437313761576,22.19760380415599&#10;c -8.533333333333333,17.441666666666666 29.866666666666667,10.733333333333333 50.186737973495354,22.023686820012344 c 31.02875889649758,0.0 58.95270535289566,-6.708333333333333 48.99714979734011,24.7798000229095&#10;c -8.533333333333333,7.630183873018423 0,9.283966005505047 22.113961313771007,9.283966005505047&#10;c 20.316759959425212,0 28.850093292758544,-9.901391742517578 20.316759959425212,-35.51036659723977&#10;c -8.533333333333333,-17.441666666666666 29.866666666666667,-10.733333333333333 50.7943511516859,1.4466005688252253 L 1280 0 " fill="none" stroke="black" stroke-width="0.1" style="vector-effect:non-scaling-stroke;" /></g><g><path d="M 0 0  L 0 670.833333  c 7.86788236963758,0.0 58.60264372741865,-6.708333333333333 48.647088171863096,2.665787467444198&#10;c -8.533333333333333,10.144614560656688 0,37.89883446229164 22.464022939248018,37.89883446229164&#10;c 12.721586623345644,0 21.254919956678975,-9.679148551120315 12.721586623345644,-17.947999512756436&#10;c -8.533333333333333,-17.441666666666666 29.866666666666667,-10.733333333333333 58.38952448776547,-22.6166224169794 c 35.914547788323674,-0.0 61.14693180392343,6.708333333333333 51.191376248367874,-24.75305386749227&#10;c -8.533333333333333,-5.644953946322042 0,-13.039918790199089 19.91973486274324,-13.039918790199089&#10;c 19.762688989327145,0 28.296022322660477,4.186780009535205 19.762688989327145,14.747052526672494&#10;c -8.533333333333333,17.441666666666666 29.866666666666667,10.733333333333333 51.34842212178397,23.045920131018864 c 26.495698637464738,0.0 69.04234837457085,-6.708333333333333 59.086792819015294,22.879311199067114&#10;c -8.533333333333333,10.53687840098078 0,19.15054788605647 12.02431829209582,19.15054788605647&#10;c 21.64032566789197,0 30.173659001225303,-25.474756359871996 21.64032566789197,-38.705903660440946&#10;c -8.533333333333333,-17.441666666666666 29.866666666666667,-10.733333333333333 49.47078544321914,-3.3239554246826373 c 13.465193943062213,0.0 62.05188878030731,-6.708333333333333 52.09633322475175,-0.9082328457234112&#10;c -8.533333333333333,27.344119760103965 0,33.87196000531583 19.01477788635936,33.87196000531583&#10;c 14.969753973165211,0 23.503087306498543,-5.833110518428272 14.969753973165211,-8.352384983701622&#10;c -8.533333333333333,-17.441666666666666 29.866666666666667,-10.733333333333333 56.1413571379459,-24.611342175890794 c 40.683530668645346,-0.0 70.56008884156705,6.708333333333333 60.60453328601149,2.5677318961743256&#10;c -8.533333333333333,-35.13089234343734 0,-35.46902147478366 10.506577825099626,-35.46902147478366&#10;c 18.34205139095961,0 26.875384724292942,22.185887331316405 18.34205139095961,26.109123097242446&#10;c -8.533333333333333,17.441666666666666 29.866666666666667,10.733333333333333 52.7690597201515,6.792166481366891 c 15.518676022106632,-0.0 67.42365810865388,6.708333333333333 57.46810255309832,-11.650076326709542&#10;c -8.533333333333333,-19.80665055326021 0,-31.137180317439086 13.643008558012795,-31.137180317439086&#10;c 10.171369192578254,0 18.704702525911586,20.424675535017006 10.171369192578254,40.20103083880244&#10;c -8.533333333333333,17.441666666666666 29.866666666666667,10.733333333333333 60.93974191853286,2.5862258053461886 c 29.879122535570733,-0.0 63.167132962315094,6.708333333333333 53.21157740675954,-2.0393886614061385&#10;c -8.533333333333333,-25.58344326568001 0,-32.944371244306396 17.899533704351576,-32.944371244306396&#10;c 16.082798970515114,0 24.616132303848445,18.034282565702505 16.082798970515114,25.792346466359113&#10;c -8.533333333333333,17.441666666666666 29.866666666666667,10.733333333333333 55.028312140596,9.191413439353418 c 27.926635924355082,-0.0 64.75378545300207,6.708333333333333 54.798229897446504,-8.619448547288393&#10;c -8.533333333333333,-13.424127179842483 0,-30.649586358589012 16.31288121366461,-30.649586358589012&#10;c 21.728822126747644,0 30.262155460080976,13.287718326543867 21.728822126747644,41.147119615190086&#10;c -8.533333333333333,17.441666666666666 29.866666666666667,10.733333333333333 49.38228898436347,-1.878084709312681 c 14.247774318052507,-0.0 60.957725528137196,6.708333333333333 51.00216997258164,-11.550353102157368&#10;c -8.533333333333333,-28.58630799311915 0,-32.632104919261835 20.108941138529474,-32.632104919261835&#10;c 10.972368493817413,0 19.505701827150745,25.986546471342248 10.972368493817413,43.68016202972658&#10;c -8.533333333333333,17.441666666666666 29.866666666666667,10.733333333333333 60.1387426172937,0.5022959916926197 L 1280 0 " fill="none" stroke="black" stroke-width="0.1" style="vector-effect:non-scaling-stroke;" /></g></g></svg>