<svg baseProfile="full" height="2592" preserveAspectRatio="none" shape-rendering="geometricPrecision" version="1.1" viewBox="0,0,3872,2592" width="3872" xmlns="http://www.w3.org/2000/svg" xmlns:ev="http://www.w3.org/2001/xml-events" xmlns:xlink="http://www.w3.org/1999/xlink"><title>Jigsaw puzzle piece clips</title><desc>Created with the piecemaker. Piece count: 35</desc><defs /><g><g><rect fill="white" height="2592" width="3872" x="0" y="0" /></g></g><g><g><path d="M 0 0  L 553.142857 0  c -0.0,126.62782503671284 27.65714285714286,252.7761236771763 -82.32995873336068,216.48812367717628&#10;c -73.50362783653291,-31.104 -89.45213445554344,0 -89.45213445554344,42.71187632282371&#10;c 0,75.85314157153931 39.595945082982766,106.95714157153931 87.76143642416262,75.85314157153931&#10;c 71.90857142857142,-31.104 44.25142857142857,108.86399999999999 84.0206567647415,183.34685842846068 c 0.0,96.4901328864493 -27.65714285714286,233.28807823638274 89.37597910124808,197.00007823638273&#10;c 59.36940011899605,-31.104 58.917661300855286,0 58.917661300855286,62.199921763617255&#10;c 0,38.51931512641562 -30.610238832865495,69.62331512641562 -54.67651535891943,38.51931512641562&#10;c -71.90857142857142,-31.104 -44.25142857142857,108.86399999999999 -93.61712504318393,220.68068487358437 c 0.0,112.25377362919761 -27.65714285714286,244.77869227886595 117.20363753699942,208.49069227886594&#10;c 53.555400192783836,-31.104 54.68432069439987,0 54.68432069439987,50.70930772113405&#10;c 0,64.93789593078895 -14.696052356783685,96.04189593078895 -58.62106214655485,64.93789593078895&#10;c -71.90857142857142,-31.104 -44.25142857142857,108.86399999999999 -113.26689608484445,194.26210406921103 c -0.0,130.26172621701073 27.65714285714286,230.56331385997788 -45.75739167874826,194.27531385997787&#10;c -76.11494646980945,-31.104 -133.09541697095594,0 -133.09541697095594,64.92468614002212&#10;c 0,62.454037179205045 35.12347358733854,93.55803717920504 125.49623035607263,62.454037179205045&#10;c 71.90857142857142,-31.104 44.25142857142857,108.86399999999999 53.35657829363157,196.74596282079494 c -0.0,58.5285844417789 27.65714285714286,232.2544117477326 -97.01492067617802,195.9664117477326&#10;c -43.99307857570747,-31.104 -45.022931115118965,0 -45.022931115118965,63.233588252267396&#10;c 0,70.08598800409851 28.43276969106921,101.18998800409851 90.72145524727405,70.08598800409851&#10;c 71.90857142857142,-31.104 44.25142857142857,108.86399999999999 51.316396544022936,189.11401199590148 L 0 2592 " fill="none" stroke="black" stroke-width="0.1" style="vector-effect:non-scaling-stroke;" /></g><g><path d="M 0 0  L 1106.285714 0  c 0.0,46.04535654025652 -27.65714285714286,250.44999659264758 35.250524754007,214.16199659264757&#10;c 55.390957467316596,-31.104 125.15607896590622,0 125.15607896590622,45.03800340735242&#10;c 0,47.531946143688856 -61.037955176843006,78.63594614368886 -73.35017810099993,47.531946143688856&#10;c -71.90857142857142,-31.104 -44.25142857142857,108.86399999999999 -87.0564256189133,211.66805385631113 c 0.0,26.82750281141093 -27.65714285714286,240.52814203831207 30.66664001552975,204.24014203831206&#10;c 92.88194812828638,-31.104 139.8633874940429,0 139.8633874940429,54.95985796168793&#10;c 0,36.57414737871869 -125.96258630552353,67.67814737871869 -179.91918612136547,36.57414737871869&#10;c -71.90857142857142,-31.104 -44.25142857142857,108.86399999999999 9.389158611792794,222.6258526212813 c 0.0,144.04251593473006 -27.65714285714286,216.8435110185852 50.49731775212932,180.55551101858518&#10;c 40.64569158806228,-31.104 93.23087471225476,0 93.23087471225476,78.64448898141481&#10;c 0,75.75142495651738 -47.373766565125834,106.85542495651738 -81.17507679114215,75.75142495651738&#10;c -71.90857142857142,-31.104 -44.25142857142857,108.86399999999999 -62.55311567324193,183.4485750434826 c -0.0,66.02034085211235 27.65714285714286,244.1655851008607 -87.96534861800582,207.8775851008607&#10;c -29.383452678269485,-31.104 -75.3295354246968,0 -75.3295354246968,51.32241489913929&#10;c 0,64.02793131347033 110.30502108812297,95.13193131347033 158.6079320690298,64.02793131347033&#10;c 71.90857142857142,-31.104 44.25142857142857,108.86399999999999 4.686951973672819,195.17206868652966 c -0.0,113.72367040577689 27.65714285714286,246.5716031774354 0.5076480101866305,210.2836031774354&#10;c -89.54524654469505,-31.104 -136.59704565823148,0 -136.59704565823148,48.91639682256459&#10;c 0,42.08985100853903 43.39204131269993,73.19385100853903 143.4332071699388,42.08985100853903&#10;c 71.90857142857142,-31.104 44.25142857142857,108.86399999999999 -7.343809521893974,217.11014899146096 L 0 2592 " fill="none" stroke="black" stroke-width="0.1" style="vector-effect:non-scaling-stroke;" /></g><g><path d="M 0 0  L 1659.428571 0  c 0.0,74.1849001324931 -27.65714285714286,234.97266105062047 49.89950901120793,198.68466105062046&#10;c 36.971259352718405,-31.104 86.46224649923931,0 86.46224649923931,60.515338949379526&#10;c 0,53.36524137524361 -38.86721276572092,84.46924137524361 -51.85889289167423,53.36524137524361&#10;c -71.90857142857142,-31.104 -44.25142857142857,108.86399999999999 -84.50286261877301,205.83475862475638 c -0.0,38.84601824203808 27.65714285714286,226.5960156066969 -35.127480580016645,190.3080156066969&#10;c -67.44669900791962,-31.104 -105.96258900176755,0 -105.96258900176755,68.89198439330309&#10;c 0,67.67335844765574 137.49923388974076,98.77735844765574 141.8475371727391,67.67335844765574&#10;c 71.90857142857142,-31.104 44.25142857142857,108.86399999999999 -0.7574675909548887,191.52664155234424 c 0.0,79.1093386913868 -27.65714285714286,234.88564242231166 42.625739539927885,198.59764242231165&#10;c 66.37035430853872,-31.104 126.08520417886328,0 126.08520417886328,60.60235757768834&#10;c 0,55.691050352689956 -141.4542770372328,86.79505035268996 -168.04575672280336,55.691050352689956&#10;c -71.90857142857142,-31.104 -44.25142857142857,108.86399999999999 -0.6651869959877956,203.50894964731003 c -0.0,78.72771441463351 27.65714285714286,213.12172962480577 -95.80219252887727,176.83372962480576&#10;c -32.59980903313715,-31.104 -41.82746790452805,0 -41.82746790452805,82.36627037519423&#10;c 0,77.6997036447691 127.57429611111408,108.8037036447691 141.2964639809022,77.6997036447691&#10;c 71.90857142857142,-31.104 44.25142857142857,108.86399999999999 -3.666803547496869,181.5002963552309 c 0.0,74.27451172617033 -27.65714285714286,230.15035455127682 13.133284341797982,193.8623545512768&#10;c 157.88074276149936,-31.104 166.35679227294543,0 166.35679227294543,65.33764544872318&#10;c 0,60.847226056792124 -118.82543081280764,91.95122605679212 -118.90779654113841,60.847226056792124&#10;c -71.90857142857142,-31.104 -44.25142857142857,108.86399999999999 -60.58228007360499,198.35277394320786 L 0 2592 " fill="none" stroke="black" stroke-width="0.1" style="vector-effect:non-scaling-stroke;" /></g><g><path d="M 0 0  L 2212.571429 0  c 0.0,77.56682983601381 -27.65714285714286,227.82318121626275 75.0761709683352,191.53518121626274&#10;c 56.49811987569496,-31.104 100.4780589553042,0 100.4780589553042,67.66481878373725&#10;c 0,46.659853268048096 -46.591162116759655,77.7638532680481 -103.14556571569578,46.659853268048096&#10;c -71.90857142857142,-31.104 -44.25142857142857,108.86399999999999 -72.40866420794363,212.5401467319519 c 0.0,82.33728727540003 -27.65714285714286,216.05484978681793 74.50883188587748,179.76684978681791&#10;c 21.950538119536297,-31.104 65.19622995404104,0 65.19622995404104,79.43315021318207&#10;c 0,43.87633082609574 -120.18525049119596,74.98033082609574 -134.8523827416334,43.87633082609574&#10;c -71.90857142857142,-31.104 -44.25142857142857,108.86399999999999 -4.852679098285137,215.32366917390425 c -0.0,92.65403346610135 27.65714285714286,226.87499385340882 1.0448333847895628,190.5869938534088&#10;c -130.8371529123074,-31.104 -149.59844244527397,0 -149.59844244527397,68.61300614659118&#10;c 0,59.191148218486035 50.72473499517364,90.29514821848603 113.58601739945092,59.191148218486035&#10;c 71.90857142857142,-31.104 44.25142857142857,108.86399999999999 34.96759166103348,200.00885178151395 c -0.0,40.75788726012275 27.65714285714286,240.8796317949013 -58.823951116328956,204.59163179490128&#10;c -63.10660808299996,-31.104 -82.03731273662511,0 -82.03731273662511,54.608368205098714&#10;c 0,65.7032841887862 31.104639851366173,96.8072841887862 106.86345889443439,65.7032841887862&#10;c 71.90857142857142,-31.104 44.25142857142857,108.86399999999999 33.99780495851968,193.4967158112138 c 0.0,58.463639876791746 -27.65714285714286,233.38817179012676 69.68481270765893,197.10017179012675&#10;c 28.43716587879056,-31.104 98.91007058751369,0 98.91007058751369,62.09982820987324&#10;c 0,51.74416428740108 -23.52625110396057,82.84816428740108 -73.9757861106161,51.74416428740108&#10;c -71.90857142857142,-31.104 -44.25142857142857,108.86399999999999 -94.61909718455652,207.4558357125989 L 0 2592 " fill="none" stroke="black" stroke-width="0.1" style="vector-effect:non-scaling-stroke;" /></g><g><path d="M 0 0  L 2765.714286 0  c -0.0,118.57648884561337 27.65714285714286,244.29790287368544 -107.62981704487193,208.00990287368543&#10;c -13.867761171761806,-31.104 -41.62800066565562,0 -41.62800066565562,51.190097126314555&#10;c 0,65.5496181159034 41.789495135182115,96.6536181159034 41.73268542231649,65.5496181159034&#10;c 71.90857142857142,-31.104 44.25142857142857,108.86399999999999 107.52513228821105,193.6503818840966 c 0.0,37.157032402213176 -27.65714285714286,241.66907611080748 30.075623517049895,205.38107611080747&#10;c 87.22701820715322,-31.104 132.2952741705505,0 132.2952741705505,53.81892388919252&#10;c 0,43.06743339164706 -17.655541544856092,74.17143339164706 -79.10393208691288,43.06743339164706&#10;c -71.90857142857142,-31.104 -44.25142857142857,108.86399999999999 -83.26696560068753,216.13256660835293 c 0.0,99.90394677344312 -27.65714285714286,255.30821376197898 43.47045674205492,219.02021376197897&#10;c 127.10718834936552,-31.104 140.14914151038988,0 140.14914151038988,40.17978623802102&#10;c 0,77.82499362129408 -130.29602434183175,108.92899362129408 -152.37966533005408,77.82499362129408&#10;c -71.90857142857142,-31.104 -44.25142857142857,108.86399999999999 -31.23993292239072,181.3750063787059 c -0.0,105.52181716711723 27.65714285714286,228.2853842297824 -69.14914205222149,191.9973842297824&#10;c -114.45385253345125,-31.104 -114.54798609567533,0 -114.54798609567533,67.20261577021759&#10;c 0,39.61751393654259 27.38577925840582,70.72151393654259 87.56551660482236,39.61751393654259&#10;c 71.90857142857142,-31.104 44.25142857142857,108.86399999999999 96.13161154307446,219.5824860634574 c 0.0,87.13148409070521 -27.65714285714286,216.71941697771152 99.22548848390075,180.4314169777115&#10;c 47.8585769470843,-31.104 60.30948385557146,0 60.30948385557146,78.76858302228848&#10;c 0,46.24693827893623 -113.22633401936622,77.35093827893623 -112.35798964897805,46.24693827893623&#10;c -71.90857142857142,-31.104 -44.25142857142857,108.86399999999999 -47.17698269049416,212.95306172106376 L 0 2592 " fill="none" stroke="black" stroke-width="0.1" style="vector-effect:non-scaling-stroke;" /></g><g><path d="M 0 0  L 3318.857143 0  c -0.0,41.0550506818381 27.65714285714286,215.59131370010962 -105.36006689233953,179.3033137001096&#10;c -42.16882800064946,-31.104 -44.70143948841188,0 -44.70143948841188,79.89668629989038&#10;c 0,50.18999941459913 69.34706064432983,81.29399941459913 93.85055051188203,50.18999941459913&#10;c 71.90857142857142,-31.104 44.25142857142857,108.86399999999999 56.21095586886938,209.01000058540086 c -0.0,115.95818836442457 27.65714285714286,227.97874476981153 -114.11333583352183,191.69074476981152&#10;c -34.67906777802114,-31.104 -41.78524384868169,0 -41.78524384868169,67.50925523018847&#10;c 0,60.5665799158607 60.28032831829591,91.6705799158607 71.67209779355875,60.5665799158607&#10;c 71.90857142857142,-31.104 44.25142857142857,108.86399999999999 84.22648188864477,198.6334200841393 c -0.0,88.12145367559172 27.65714285714286,257.01817878799994 -94.03679629469502,220.73017878799993&#10;c -29.461686486892987,-31.104 -55.013637123973865,0 -55.013637123973865,38.469821212000056&#10;c 0,42.35625674505275 72.07507362293127,73.46025674505275 80.91187877317915,42.35625674505275&#10;c 71.90857142857142,-31.104 44.25142857142857,108.86399999999999 68.13855464548973,216.84374325494724 c -0.0,66.04354491434673 27.65714285714286,231.74153533906332 -113.78325188998016,195.4535353390633&#10;c -25.482088297217498,-31.104 -50.45129215235002,0 -50.45129215235002,63.74646466093668&#10;c 0,70.45818744614138 34.208436327647874,101.56218744614138 109.2550639590703,70.45818744614138&#10;c 71.90857142857142,-31.104 44.25142857142857,108.86399999999999 54.97948008325989,188.7418125538586 c -0.0,90.94376958502043 27.65714285714286,215.28265613493627 -102.88705220732885,178.99465613493626&#10;c -72.4555424033247,-31.104 -83.82443259868762,0 -83.82443259868762,80.20534386506372&#10;c 0,53.16650173229465 78.4578557675716,84.27050173229465 127.53262711022761,53.16650173229465&#10;c 71.90857142857142,-31.104 44.25142857142857,108.86399999999999 59.178857695788864,206.03349826770534 L 0 2592 " fill="none" stroke="black" stroke-width="0.1" style="vector-effect:non-scaling-stroke;" /></g></g><g><g><path d="M 0 0  L 0 518.400000  c 31.971440229975116,0.0 244.672510598177,-25.92 205.952510598177,110.32434907365663&#10;c -33.18857142857143,17.589848689134627 0,24.635985040784618 70.61891797325154,24.635985040784618&#10;c 52.34523114975207,0 85.5338025783235,-37.63680759570759 52.34523114975207,-125.21415502550524&#10;c -33.18857142857143,-67.392 116.15999999999998,-41.472 224.2261974216765,-9.746179088936017 c 122.45896029168529,0.0 273.7552899160865,-25.92 235.0352899160865,98.37704907951662&#10;c -33.18857142857143,60.106073852894376 0,70.36657608171508 41.53613865534206,70.36657608171508&#10;c 87.95001356179756,0 121.138584990369,-73.69244595876827 87.95001356179756,-132.5169413308181&#10;c -33.18857142857143,-67.392 116.15999999999998,-41.472 188.621415009631,-36.226683830413606 c 34.16493659529058,-0.0 230.76779796756523,25.92 192.04779796756523,-113.03886701447918&#10;c -33.18857142857143,-42.90908913851991 0,-55.87693930803654 84.52363060386332,-55.87693930803654&#10;c 77.99771806463735,0 111.18628949320879,118.685689304883 77.99771806463735,165.28690053533668&#10;c -33.18857142857143,67.392 116.15999999999998,41.472 198.5737105067912,3.6289057871790362 c 84.30622271935279,0.0 257.92496657438096,-25.92 219.204966574381,72.5513534031554&#10;c -33.18857142857143,31.663781957938713 0,56.47590430234176 57.366461997047566,56.47590430234176&#10;c 75.2723093647142,0 108.46088079328564,-113.04454384217176 75.2723093647142,-136.06289546801648&#10;c -33.18857142857143,-67.392 116.15999999999998,-41.472 201.29911920671435,7.035637762519315 c 93.26750168834269,-0.0 275.29611394897915,25.92 236.57611394897913,-99.04915701884904&#10;c -33.18857142857143,-20.836076728825763 0,-25.61607760580158 39.99531462244943,-25.61607760580158&#10;c 53.99668398635936,0 87.1852554149308,26.810789158407268 53.99668398635936,88.00103101560671&#10;c -33.18857142857143,67.392 116.15999999999998,41.472 222.5747445850692,36.66420360904391 c 65.74004862277302,0.0 273.9291947943723,-25.92 235.20919479437225,110.90224968504293&#10;c -33.18857142857143,12.273395512513497 0,41.50135019755368 41.3622337770563,41.50135019755368&#10;c 83.9246411089062,0 117.11321253747764,-54.3805068326225 83.9246411089062,-136.29103839823142&#10;c -33.18857142857143,-67.392 116.15999999999998,-41.472 192.64678746252235,-16.112561484365187 c 28.480857947761006,-0.0 255.54867625408485,25.92 216.82867625408485,-11.671937014399608&#10;c -33.18857142857143,-136.0665839873492 0,-148.86802683930603 59.7427523173437,-148.86802683930603&#10;c 49.26188952739369,0 82.45046095596513,45.33682630328822 49.26188952739369,78.11622181191429&#10;c -33.18857142857143,67.392 116.15999999999998,41.472 227.30953904403486,82.42374204179136 L 3872 0 " fill="none" stroke="black" stroke-width="0.1" style="vector-effect:non-scaling-stroke;" /></g><g><path d="M 0 0  L 0 1036.800000  c 158.06849779937465,0.0 260.9659180251703,-25.92 222.2459180251703,12.66634652931747&#10;c -33.18857142857143,28.18831837933889 0,128.6022999986689 54.32551054625824,128.6022999986689&#10;c 77.48682617506796,0 110.6753976036394,-50.97434690837812 77.48682617506796,-97.48555557458549&#10;c -33.18857142857143,-67.392 116.15999999999998,-41.472 199.0846023963606,-43.7830909534009 c 96.38633827190104,-0.0 262.8824038926831,25.92 224.16240389268313,-37.17214418653719&#10;c -33.18857142857143,-72.23146145664097 0,-93.44281798032122 52.409024678745425,-93.44281798032122&#10;c 59.48195916371304,0 92.67053059228448,32.519286853239244 59.48195916371304,67.22715641148511&#10;c -33.18857142857143,67.392 116.15999999999998,41.472 217.0894694077155,63.38780575537331 c 137.48974433793214,0.0 226.9787133349266,-25.92 188.2587133349266,-7.201992973631897&#10;c -33.18857142857143,57.34801021877928 0,141.9080730805706 88.31271523650196,141.9080730805706&#10;c 71.09945716076567,0 104.2880285893371,-28.913516692203537 71.09945716076567,-56.25250180643863&#10;c -33.18857142857143,-67.392 116.15999999999998,-41.472 205.4719714106629,-78.45357830050008 c 146.42422915215965,0.0 246.2794252105595,-25.92 207.5594252105595,80.504558169929&#10;c -33.18857142857143,23.473711390192026 0,51.51495793037327 69.01200336086904,51.51495793037327&#10;c 77.33574440786845,0 110.52431583643988,-77.22337335442577 77.33574440786845,-124.4423691174292&#10;c -33.18857142857143,-67.392 116.15999999999998,-41.472 199.2356841635601,-7.577146982873074 c 70.47921486411097,0.0 257.269176019426,-25.92 218.549176019426,16.240756403437754&#10;c -33.18857142857143,53.12209524691947 0,133.41113445757284 58.022252552002556,133.41113445757284&#10;c 63.7047376484245,0 96.89330907699593,-95.07114054862325 63.7047376484245,-129.34310244107047&#10;c -33.18857142857143,-67.392 116.15999999999998,-41.472 212.86669092300406,-20.30878841994013 c 62.121460884693924,-0.0 241.73018702793857,25.92 203.01018702793857,-88.22199506007873&#10;c -33.18857142857143,-41.55438242504056 0,-79.69133191297776 73.56124154348998,-79.69133191297776&#10;c 73.57584523486116,0 106.7644166634326,58.87785719286919 73.57584523486116,127.55158257237487&#10;c -33.18857142857143,67.392 116.15999999999998,41.472 202.9955833365674,40.361744400681616 c 101.42211691679928,-0.0 250.61585676988088,25.92 211.89585676988088,-79.99979684241279&#10;c -33.18857142857143,-18.493871421207018 0,-68.12569382030219 64.67557180154768,-68.12569382030219&#10;c 40.48441322421991,0 73.67298465279134,121.79243651850494 40.48441322421991,134.80433850402724&#10;c -33.18857142857143,67.392 116.15999999999998,41.472 236.08701534720865,13.321152158687738 L 3872 0 " fill="none" stroke="black" stroke-width="0.1" style="vector-effect:non-scaling-stroke;" /></g><g><path d="M 0 0  L 0 1555.200000  c 48.75639262050395,0.0 269.9139207730632,-25.92 231.19392077306316,33.47657646447658&#10;c -33.18857142857143,47.69873346404334 0,98.96582770202664 45.3775077983654,98.96582770202664&#10;c 58.04273008075819,0 91.23130150932963,-87.28522192518618 58.04273008075819,-87.57182649685753&#10;c -33.18857142857143,-67.392 116.15999999999998,-41.472 218.52869849067037,-44.8705776696457 c 138.26972727017233,-0.0 261.5779738241675,25.92 222.8579738241675,-102.83987625076887&#10;c -33.18857142857143,-8.380558090705577 0,-29.844348103597184 53.71345474726107,-29.844348103597184&#10;c 77.65679185391832,0 110.84536328248976,51.014084608540294 77.65679185391832,99.43470216809378&#10;c -33.18857142857143,67.392 116.15999999999998,41.472 198.91463671751023,33.24952218627227 c 150.32483404157182,-0.0 250.33141218443288,25.92 211.61141218443288,-43.59431729891208&#10;c -33.18857142857143,-60.245480203759875 0,-132.55745795666115 64.96001638699568,-132.55745795666115&#10;c 55.90138061983254,0 89.08995204840397,120.88530501080317 55.90138061983254,155.95031988112592&#10;c -33.18857142857143,67.392 116.15999999999998,41.472 220.67004795159602,20.201455374447306 c 49.20395678196445,0.0 261.4879077095402,-25.92 222.76790770954022,26.672341545594826&#10;c -33.18857142857143,95.96818619513648 0,138.66965973749603 53.80352086188833,138.66965973749603&#10;c 63.23223469927268,0 96.42080612784412,-60.77297795849308 63.23223469927268,-74.91697773337638&#10;c -33.18857142857143,-67.392 116.15999999999998,-41.472 213.33919387215587,-90.42502354971448 c 84.3561134532695,-0.0 259.6266575358635,25.92 220.90665753586353,-13.335471472749854&#10;c -33.18857142857143,-75.95997241413106 0,-131.55414144493372 55.664771035565025,-131.55414144493372&#10;c 76.82719588858504,0 110.01576731715647,132.0593831429893 76.82719588858504,140.59134617554076&#10;c -33.18857142857143,67.392 116.15999999999998,41.472 199.74423268284352,4.2982667421428005 c 85.47032228416921,0.0 273.3754201212497,-25.92 234.6554201212497,39.366097624227436&#10;c -33.18857142857143,134.08030546908594 0,133.70422530210095 41.91600845017885,133.70422530210095&#10;c 61.82851446462655,0 95.01708589319799,-30.482967072199227 61.82851446462655,-87.5082334113631&#10;c -33.18857142857143,-67.392 116.15999999999998,-41.472 214.742914106802,-85.56208951496531 c 34.71155600441926,-0.0 241.273428180943,25.92 202.553428180943,-28.35308911648337&#10;c -33.18857142857143,-87.80420779247981 0,-137.34359104260088 74.01800039048555,-137.34359104260088&#10;c 39.82095839607621,0 73.00952982464764,141.5651382151668 39.82095839607621,158.98713325613951&#10;c -33.18857142857143,67.392 116.15999999999998,41.472 236.75047017535235,6.709546902944737 L 3872 0 " fill="none" stroke="black" stroke-width="0.1" style="vector-effect:non-scaling-stroke;" /></g><g><path d="M 0 0  L 0 2073.600000  c 91.50886072752085,0.0 243.59311596825285,-25.92 204.87311596825285,25.435060164074795&#10;c -33.18857142857143,87.24222947065604 0,110.9431868726875 71.69831260317571,110.9431868726875&#10;c 66.88972351961092,0 100.07829494818236,-40.36070908312064 66.88972351961092,-65.38360689562344&#10;c -33.18857142857143,-67.392 116.15999999999998,-41.472 209.68170505181763,-70.99464014113886 c 105.77897815446165,-0.0 243.07328566129362,25.92 204.35328566129363,-56.58190360565155&#10;c -33.18857142857143,-47.10164628220508 0,-102.94897522969674 72.21814291013493,-102.94897522969674&#10;c 47.591109053287084,0 80.77968048185852,81.43199500588481 47.591109053287084,132.9661816884028&#10;c -33.18857142857143,67.392 116.15999999999998,41.472 228.98031951814147,26.56469714694549 c 111.01457353480939,-0.0 260.641788675841,25.92 221.92178867584101,-107.96751647996423&#10;c -33.18857142857143,-22.247439606162327 0,-25.190745971600805 54.64963989558754,-25.190745971600805&#10;c 53.03345301871576,0 86.2220244472872,18.77918847701251 53.03345301871576,64.62105336252307&#10;c -33.18857142857143,67.392 116.15999999999998,41.472 223.5379755527128,68.53720908904197 c 61.426298744611564,-0.0 256.5244550588814,25.92 217.80445505888142,-51.08395224852584&#10;c -33.18857142857143,-33.86252846935355 0,-115.33609109459911 58.76697351254714,-115.33609109459911&#10;c 39.259582473524915,0 72.44815390209635,46.13531760093284 39.259582473524915,121.31667212491848&#10;c -33.18857142857143,67.392 116.15999999999998,41.472 237.31184609790364,45.10337121820646 c 139.69343448230774,-0.0 261.19187954361354,25.92 222.47187954361354,-100.01643669239539&#10;c -33.18857142857143,-59.03843776915056 0,-75.14891976323176 54.099549027815016,-75.14891976323176&#10;c 75.00110014563955,0 108.18967157421099,39.34224242185375 75.00110014563955,76.82813004731926&#10;c -33.18857142857143,67.392 116.15999999999998,41.472 201.570328425789,98.33722640830788 c 96.42289817369121,0.0 238.4536827465533,-25.92 199.7336827465533,93.88998179907459&#10;c -33.18857142857143,19.776229715458236 0,62.45396071821567 76.83774582487524,62.45396071821567&#10;c 59.754195342570085,0 92.94276677114152,-37.07573765941879 59.754195342570085,-99.6466033187801&#10;c -33.18857142857143,-67.392 116.15999999999998,-41.472 216.81723322885847,-56.697339198510164 c 54.31596791512939,0.0 274.62084505377845,-25.92 235.90084505377845,7.859631968700438&#10;c -33.18857142857143,101.17878895038204 0,129.02705046081866 40.6705835176501,129.02705046081866&#10;c 45.60163453051052,0 78.79020595908196,-55.610613099537275 45.60163453051052,-57.02482857635678&#10;c -33.18857142857143,-67.392 116.15999999999998,-41.472 230.96979404091803,-79.8618538531623 L 3872 0 " fill="none" stroke="black" stroke-width="0.1" style="vector-effect:non-scaling-stroke;" /></g></g></svg>