<svg baseProfile="full" height="3333" preserveAspectRatio="none" shape-rendering="geometricPrecision" version="1.1" viewBox="0,0,5000,3333" width="5000" xmlns="http://www.w3.org/2000/svg" xmlns:ev="http://www.w3.org/2001/xml-events" xmlns:xlink="http://www.w3.org/1999/xlink"><title>Jigsaw puzzle piece clips</title><desc>Created with the piecemaker. Piece count: 40</desc><defs /><g><g><rect fill="white" height="3333" width="5000" x="0" y="0" /></g></g><g><g><path d="M 0 0  L 625.000000 0  c 0.0,185.10532204567434 -31.25,326.68781718772664 19.883257910547954,280.02581718772666&#10;c 123.4386277423393,-39.996 157.32616626159495,0 157.32616626159495,53.27418281227335&#10;c 0,49.3806206824716 -106.08079437106026,89.37662068247161 -147.82318507921948,49.3806206824716&#10;c -81.25,-39.996 -50.0,139.986 -29.386239092923432,283.9193793175284 c 0.0,134.75492547820642 -31.25,299.5236588163717 44.12832972031176,252.8616588163717&#10;c 39.25453947488284,-39.996 112.83653711960147,0 112.83653711960147,80.43834118362832&#10;c 0,100.27454933406403 -23.392864959735654,140.27054933406404 -101.45489461082457,100.27454933406403&#10;c -81.25,-39.996 -50.0,139.986 -55.509972229088675,233.02545066593598 c 0.0,166.26728525811794 -31.25,295.6900954846625 78.40823990016096,249.02809548466251&#10;c 37.481338669827224,-39.996 117.36385476108072,0 117.36385476108072,84.2719045153375&#10;c 0,73.56598449911593 -40.10993634513902,113.56198449911594 -123.05484216182401,73.56598449911593&#10;c -81.25,-39.996 -50.0,139.986 -72.71725249941767,259.7340155008841 c -0.0,168.0466994553416 31.25,302.6181886447968 -109.45858271209407,255.9561886447968&#10;c -51.365939112873214,-39.996 -85.38340101577309,0 -85.38340101577309,77.3438113552032&#10;c 0,51.19784732321739 68.87884949935876,91.1938473232174 78.02030810246835,51.19784732321739&#10;c 81.25,-39.996 50.0,139.986 116.82167562539881,282.1021526767826 c 0.0,89.05901874232958 -31.25,315.2816319192019 132.71372007205477,268.61963191920194&#10;c 54.28373299965207,-39.996 55.66443460205343,0 55.66443460205343,64.68036808079808&#10;c 0,78.61099631269684 -71.41448958978741,118.60699631269685 -137.4943836638,78.61099631269684&#10;c -81.25,-39.996 -50.0,139.986 -50.88377101030821,254.68900368730317 L 0 3333 " fill="none" stroke="black" stroke-width="0.1" style="vector-effect:non-scaling-stroke;" /></g><g><path d="M 0 0  L 1250.000000 0  c -0.0,126.64852268848459 31.25,296.1016438472273 -47.41322562046054,249.4396438472273&#10;c -109.86576233872928,-39.996 -120.5442838226391,0 -120.5442838226391,83.86035615277271&#10;c 0,75.0360643778717 41.59246563890539,115.0320643778717 172.39237431771488,75.0360643778717&#10;c 81.25,-39.996 50.0,139.986 -4.4348648746152435,258.2639356221283 c 0.0,70.79495656265601 -31.25,276.39291108182505 18.536103489610397,229.73091108182504&#10;c 59.27654097028626,-39.996 143.6998275679711,0 143.6998275679711,103.56908891817497&#10;c 0,59.375919159283626 -139.2503928224058,99.37191915928364 -163.74938568479513,59.375919159283626&#10;c -81.25,-39.996 -50.0,139.986 1.513454627213605,273.9240808407164 c -0.0,132.49378342878742 31.25,308.38519216630255 5.904594408068453,261.7231921663025&#10;c -108.6258977321483,-39.996 -182.1350033070842,0 -182.1350033070842,71.5768078336975&#10;c 0,98.83605101912349 60.97594805001771,138.8320510191235 99.99871003381911,98.83605101912349&#10;c 81.25,-39.996 50.0,139.986 76.23169886519663,234.46394898087652 c -0.0,46.630983427421185 31.25,290.9892314647358 -90.14821374413545,244.32723146473575&#10;c -49.95727895599708,-39.996 -114.3509853627822,0 -114.3509853627822,88.97276853526427&#10;c 0,105.8291760659668 69.30598111840553,145.82517606596682 112.76198928466121,105.8291760659668&#10;c 81.25,-39.996 50.0,139.986 91.73720982225643,227.4708239340332 c -0.0,53.692167063215656 31.25,274.8763657778484 7.804700676273346,228.21436577784837&#10;c -125.08909556357166,-39.996 -208.11101145441714,0 -208.11101145441714,105.08563422215164&#10;c 0,54.206686965732786 83.45638203897637,94.2026869657328 184.00524024579718,54.206686965732786&#10;c 81.25,-39.996 50.0,139.986 16.301070532346614,279.0933130342672 L 0 3333 " fill="none" stroke="black" stroke-width="0.1" style="vector-effect:non-scaling-stroke;" /></g><g><path d="M 0 0  L 1875.000000 0  c -0.0,175.78533813302468 31.25,302.51252654652023 -39.50285152620845,255.8505265465202&#10;c -118.75181717463333,-39.996 -127.56853261557072,0 -127.56853261557072,77.44947345347981&#10;c 0,56.006409250112085 45.104591598492604,96.0024092501121 79.8741765354849,56.006409250112085&#10;c 81.25,-39.996 50.0,139.986 87.19720760629426,277.2935907498879 c 0.0,67.45615594228805 -31.25,275.45157433958514 119.0755500909823,228.78957433958516&#10;c 40.45050695694787,-39.996 55.92708128265296,0 55.92708128265296,104.51042566041485&#10;c 0,93.19235089878157 -50.9955771916743,133.18835089878158 -155.79889522446172,93.19235089878157&#10;c -81.25,-39.996 -50.0,139.986 -19.20373614917355,240.10764910121844 c 0.0,83.71560810549207 -31.25,309.59193460174527 -6.165840890031388,262.9299346017453&#10;c 61.36971121223571,-39.996 170.76322532875542,0 170.76322532875542,70.37006539825472&#10;c 0,102.18539399229206 -26.90691975390216,142.18139399229207 -65.4377781238539,102.18539399229206&#10;c -81.25,-39.996 -50.0,139.986 -99.15960631487015,231.11460600770795 c -0.0,64.39862848650803 31.25,293.36631018273516 -54.600075714153235,246.70431018273516&#10;c -52.269084678700395,-39.996 -130.95845666271273,0 -130.95845666271273,86.59568981726486&#10;c 0,106.65520002350684 65.00652075001227,146.65120002350685 96.13793043223222,106.65520002350684&#10;c 81.25,-39.996 50.0,139.986 89.42060194463375,226.64479997649318 c -0.0,112.50074427141811 31.25,290.25917780193936 -122.8361399726426,243.59717780193932&#10;c -31.771812155149032,-39.996 -34.56028887966468,0 -34.56028887966468,89.70282219806069&#10;c 0,103.77042302834064 34.89237362053824,143.76642302834065 115.2669516545077,103.77042302834064&#10;c 81.25,-39.996 50.0,139.986 42.12947719779959,229.52957697165937 L 0 3333 " fill="none" stroke="black" stroke-width="0.1" style="vector-effect:non-scaling-stroke;" /></g><g><path d="M 0 0  L 2500.000000 0  c -0.0,97.45630014679232 31.25,305.36214287908456 -133.17293335871176,258.7001428790845&#10;c -53.34211078511642,-39.996 -53.17328348026501,0 -53.17328348026501,74.59985712091549&#10;c 0,55.131230021713634 124.37750596863692,95.12723002171364 144.9084106770083,55.131230021713634&#10;c 81.25,-39.996 50.0,139.986 41.43780616196847,278.1687699782864 c 0.0,129.34767480760738 -31.25,313.77329120451816 74.7439349355495,267.1112912045181&#10;c 129.74400079882068,-39.996 129.6407383934928,0 129.6407383934928,66.18870879548189&#10;c 0,49.550309399661955 -65.54309210991279,89.54630939966196 -69.24717363282102,49.550309399661955&#10;c -81.25,-39.996 -50.0,139.986 -135.13749969622128,283.74969060033806 c -0.0,71.48972593625325 31.25,313.5441376009362 -25.179036185103474,266.88213760093623&#10;c -108.2300446604128,-39.996 -163.4699932592279,0 -163.4699932592279,66.41786239906378&#10;c 0,68.20571454300676 81.28376359960589,108.20171454300677 185.4384999368469,68.20571454300676&#10;c 81.25,-39.996 50.0,139.986 3.210529507484466,265.09428545699325 c 0.0,152.90331682722737 -31.25,311.03523686565984 4.88667537627248,264.3732368656598&#10;c 120.24915019364353,-39.996 201.8085588797414,0 201.8085588797414,68.9267631343402&#10;c 0,90.87181846980138 -138.59983601798214,130.8678184698014 -147.39202525574456,90.87181846980138&#10;c -81.25,-39.996 -50.0,139.986 -59.303209000269334,242.42818153019863 c -0.0,65.26406552668908 31.25,284.8776246691823 -113.3720536765334,238.21562466918232&#10;c -29.21481883635945,-39.996 -63.669969238917815,0 -63.669969238917815,95.08437533081769&#10;c 0,81.75870500266473 67.9911527675025,121.75470500266474 106.34999224855072,81.75870500266473&#10;c 81.25,-39.996 50.0,139.986 70.6920306669005,251.54129499733529 L 0 3333 " fill="none" stroke="black" stroke-width="0.1" style="vector-effect:non-scaling-stroke;" /></g><g><path d="M 0 0  L 3125.000000 0  c -0.0,140.7294671311364 31.25,275.7475326801059 -99.17739496597635,229.0855326801059&#10;c -39.99038844692112,-39.996 -92.21401890952536,0 -92.21401890952536,104.21446731989411&#10;c 0,72.29812374052244 53.315723774157085,112.29412374052245 202.94274567491377,72.29812374052244&#10;c 81.25,-39.996 50.0,139.986 -11.551331799412054,261.00187625947757 c -0.0,53.230824126301236 31.25,307.2344933901245 -83.67822059779623,260.57249339012446&#10;c -68.22514682561336,-39.996 -83.73054278936105,0 -83.73054278936105,72.72750660987555&#10;c 0,91.14182501959692 31.50238741489539,131.13782501959693 75.32341376602328,91.14182501959692&#10;c 81.25,-39.996 50.0,139.986 92.085349621134,242.1581749804031 c 0.0,70.45484130895547 -31.25,278.46506104611854 20.987661152523547,231.80306104611853&#10;c 96.19684082090853,-39.996 169.67258289328063,0 169.67258289328063,101.49693895388148&#10;c 0,90.63677498563584 -53.05238189093178,130.63277498563585 -171.90552510769274,90.63677498563584&#10;c -81.25,-39.996 -50.0,139.986 -18.754718938111438,242.66322501436417 c 0.0,88.32653026392076 -31.25,281.10053597250237 64.43991304759317,234.4385359725024&#10;c 45.82605270087627,-39.996 93.44431780666949,0 93.44431780666949,98.86146402749762&#10;c 0,64.73799904316616 -39.342674824599094,104.73399904316616 -66.0912211741708,64.73799904316616&#10;c -81.25,-39.996 -50.0,139.986 -91.79300968009186,268.56200095683386 c -0.0,47.6611018069638 31.25,294.15029099312824 -115.56416207192306,247.48829099312823&#10;c -23.903662995800477,-39.996 -90.02264079594526,0 -90.02264079594526,85.81170900687178&#10;c 0,74.82892750007431 131.36245939160165,114.82492750007432 132.0941447612166,74.82892750007431&#10;c 81.25,-39.996 50.0,139.986 73.49265810665173,258.4710724999257 L 0 3333 " fill="none" stroke="black" stroke-width="0.1" style="vector-effect:non-scaling-stroke;" /></g><g><path d="M 0 0  L 3750.000000 0  c -0.0,65.29833581952512 31.25,273.4825853275974 -112.34192425002142,226.8205853275974&#10;c -36.552528472399196,-39.996 -99.70659080238555,0 -99.70659080238555,106.47941467240261&#10;c 0,104.77780722892703 76.66668425297968,144.77380722892704 118.1101484670953,104.77780722892703&#10;c 81.25,-39.996 50.0,139.986 93.93836658531167,228.52219277107298 c 0.0,153.39959100367668 -31.25,303.70369114568973 121.08162229470996,257.04169114568975&#10;c 37.79188019004582,-39.996 61.62719693897198,0 61.62719693897198,76.25830885431026&#10;c 0,91.79094351718834 -71.76282309438366,131.78694351718835 -109.93849394438523,91.79094351718834&#10;c -81.25,-39.996 -50.0,139.986 -72.77032528929671,241.50905648281167 c 0.0,166.6246198679615 -31.25,304.31854816759255 88.96829938468944,257.6565481675925&#10;c 81.80778705945144,-39.996 105.83508448440814,0 105.83508448440814,75.6434518324075&#10;c 0,61.689864784118924 -20.62171925450174,101.68586478411893 -59.775706911854684,61.689864784118924&#10;c -81.25,-39.996 -50.0,139.986 -135.0276769572429,271.6101352158811 c 0.0,63.42695542578479 -31.25,298.9259820276045 100.81733647724111,252.26398202760453&#10;c 51.517282354054764,-39.996 93.71748751044076,0 93.71748751044076,81.03601797239548&#10;c 0,104.77428390850088 -76.10782611337983,144.7702839085009 -117.9736165016693,104.77428390850088&#10;c -81.25,-39.996 -50.0,139.986 -76.56120748601258,228.52571609149913 c 0.0,155.69109444712134 -31.25,309.41192742663816 89.15067761944137,262.7499274266381&#10;c 60.68774451614173,-39.996 63.7082862132191,0 63.7082862132191,70.55007257336189&#10;c 0,50.80959614063596 -47.46814953010501,90.80559614063597 -95.88962258358838,50.80959614063596&#10;c -81.25,-39.996 -50.0,139.986 -56.96934124907209,282.49040385936405 L 0 3333 " fill="none" stroke="black" stroke-width="0.1" style="vector-effect:non-scaling-stroke;" /></g><g><path d="M 0 0  L 4375.000000 0  c -0.0,60.74864312606167 31.25,318.16453512604016 -86.02891103572397,271.50253512604013&#10;c -54.065396947842714,-39.996 -76.42834389591796,0 -76.42834389591796,61.79746487395988&#10;c 0,62.445536223485306 36.766439537831054,102.44153622348531 83.3396182173188,62.445536223485306&#10;c 81.25,-39.996 50.0,139.986 79.11763671432313,270.8544637765147 c -0.0,109.61585178437726 31.25,331.1087895765297 -125.0198677553924,284.4467895765297&#10;c -24.52284930773214,-39.996 -59.08116111643662,0 -59.08116111643662,48.85321042347033&#10;c 0,84.38284747513882 17.04254162810467,124.37884747513883 54.89281584672045,84.38284747513882&#10;c 81.25,-39.996 50.0,139.986 129.20821302510856,248.9171525248612 c 0.0,137.57103261753488 -31.25,299.8209416037346 123.42394259342875,253.15894160373455&#10;c 52.50016507062363,-39.996 72.54009672024746,0 72.54009672024746,80.14105839626546&#10;c 0,80.40341822846665 -23.630049917350775,120.39941822846666 -58.61779618361095,80.40341822846665&#10;c -81.25,-39.996 -50.0,139.986 -137.34624313006526,252.89658177153336 c 0.0,81.23272915731836 -31.25,293.7688431344938 70.98981122330704,247.1068431344938&#10;c 52.559004246094105,-39.996 136.65482352538905,0 136.65482352538905,86.19315686550621&#10;c 0,78.94450372990872 -174.0170641494809,118.94050372990873 -198.18834205454027,78.94450372990872&#10;c -81.25,-39.996 -50.0,139.986 -9.45629269415582,254.3554962700913 c -0.0,71.70510299344276 31.25,318.0248225457216 3.1382997351743502,271.3628225457216&#10;c -70.52979973738896,-39.996 -210.0751369094539,0 -210.0751369094539,61.93717745427841&#10;c 0,60.401229859321006 31.65639484924668,100.39722985932102 71.97314834456168,60.401229859321006&#10;c 81.25,-39.996 50.0,139.986 134.96368882971788,272.898770140679 L 0 3333 " fill="none" stroke="black" stroke-width="0.1" style="vector-effect:non-scaling-stroke;" /></g></g><g><g><path d="M 0 0  L 0 666.600000  c 127.92365183274771,-0.0 283.856023438126,33.330000000000005 240.106023438126,-94.0170123886643&#10;c -37.5,-32.416938222080844 0,-107.03868341408817 72.39397656187401,-107.03868341408817&#10;c 73.02171384387822,0 110.52171384387822,161.41283448587546 73.02171384387822,186.7535144167823&#10;c -37.5,86.658 131.25,53.328 239.47828615612178,14.302181385970158 c 140.8453409444052,-0.0 300.4640211711447,33.330000000000005 256.7140211711447,-143.99792255813347&#10;c -37.5,-4.4311089948813125 0,-16.529154348565044 55.78597882885532,-16.529154348565044&#10;c 60.41184542370098,0 97.91184542370098,125.47266889029815 60.41184542370098,124.26510670169817&#10;c -37.5,86.658 131.25,53.328 252.08815457629902,36.26197020500034 c 42.57714769121336,0.0 277.8791028649278,-33.330000000000005 234.12910286492777,109.84735390360399&#10;c -37.5,33.80363379368531 0,105.06029459894174 78.37089713507223,105.06029459894174&#10;c 55.178553021981145,0 92.67855302198114,-85.06852455380503 55.178553021981145,-173.9576032592043&#10;c -37.5,-86.658 131.25,-53.328 257.32144697801886,-40.950045243341435 c 104.76812475452707,-0.0 296.0819529408306,33.330000000000005 252.33195294083058,-5.081939181486821&#10;c -37.5,-188.89665010453248 0,-194.67955867570544 60.168047059169425,-194.67955867570544&#10;c 89.58393185764152,0 127.08393185764152,146.16077293080986 89.58393185764152,174.1168301839881&#10;c -37.5,86.658 131.25,53.328 222.91606814235848,25.644667673204168 c 161.99097737315523,0.0 287.1728121332192,-33.330000000000005 243.42281213321922,116.96775760083338&#10;c -37.5,39.11232881530621 0,51.708690428101136 69.07718786678078,51.708690428101136&#10;c 94.29807405791308,0 131.79807405791308,-47.707008335732176 94.29807405791308,-165.60155406763278&#10;c -37.5,-86.658 131.25,-53.328 218.20192594208692,-3.07489396130174 c 77.34677345467045,-0.0 305.2999047928986,33.330000000000005 261.5499047928986,-35.3632427683997&#10;c -37.5,-147.0427285537581 0,-157.4009861051843 50.95009520710141,-157.4009861051843&#10;c 57.16633798678714,0 94.66633798678714,33.12023942419269 57.16633798678714,122.06351127263396&#10;c -37.5,86.658 131.25,53.328 255.33366201321286,70.70071760095003 c 115.74449068301871,-0.0 267.0199724478307,33.330000000000005 223.2699724478307,-62.625451178538846&#10;c -37.5,-50.462606154692374 0,-149.49543175367987 89.2300275521693,-149.49543175367987&#10;c 58.39274405320947,0 95.89274405320947,152.05963530804235 58.39274405320947,165.42485189678501&#10;c -37.5,86.658 131.25,53.328 254.10725594679053,46.69603103543369 c 122.52510328377357,0.0 296.56461305783125,-33.330000000000005 252.81461305783125,37.885246254989625&#10;c -37.5,85.0434472831644 0,187.5037648993884 59.68538694216875,187.5037648993884&#10;c 45.58950884648175,0 83.08950884648175,-57.1449880546774 45.58950884648175,-122.51518248655499&#10;c -37.5,-86.658 131.25,-53.328 266.91049115351825,-102.87382866782302 L 5000 0 " fill="none" stroke="black" stroke-width="0.1" style="vector-effect:non-scaling-stroke;" /></g><g><path d="M 0 0  L 0 1333.200000  c 160.61963281384317,0.0 285.853144583391,-33.330000000000005 242.10314458339096,-0.769101259268866&#10;c -37.5,51.30107635098116 0,202.74421205924102 70.39685541660904,202.74421205924102&#10;c 94.36705142324143,0 131.86705142324143,-32.71570752873704 94.36705142324143,-110.44656145391083&#10;c -37.5,-86.658 131.25,-53.328 218.13294857675857,-91.52854934606133 c 100.53042912738037,0.0 286.52209625290504,-33.330000000000005 242.77209625290502,59.322344471474416&#10;c -37.5,76.91744889777908 0,161.9864996518809 69.72790374709498,161.9864996518809&#10;c 91.44854682406668,0 128.94854682406668,-66.89547464253948 91.44854682406668,-156.06681134150975&#10;c -37.5,-86.658 131.25,-53.328 221.05145317593332,-65.24203278184558 c 156.91944362680246,-0.0 289.7795524784218,33.330000000000005 246.0295524784218,-96.25737105654659&#10;c -37.5,-61.18451263342323 0,-112.59199138945911 66.4704475215782,-112.59199138945911&#10;c 63.828735845633275,0 101.32873584563328,47.9322636225815 63.828735845633275,165.13314433347097&#10;c -37.5,86.658 131.25,53.328 248.67126415436672,43.71621811253473 c 107.06595861155677,0.0 284.4330223261369,-33.330000000000005 240.6830223261369,11.8887598671743&#10;c -37.5,169.9407206967274 0,209.92498619103247 71.81697767386311,209.92498619103247&#10;c 73.30663062470745,0 110.80663062470745,-226.17805282368442 73.30663062470745,-228.86051315634626&#10;c -37.5,-86.658 131.25,-53.328 239.19336937529255,7.046767098139469 c 35.81752403682889,0.0 259.36935005817867,-33.330000000000005 215.61935005817867,22.30485683374321&#10;c -37.5,90.64506412572759 0,200.867215497214 96.88064994182133,200.867215497214&#10;c 80.68698936212712,0 118.18698936212712,-68.59062368726791 80.68698936212712,-78.96743152706057&#10;c -37.5,-86.658 131.25,-53.328 231.81301063787288,-144.20464080389664 c 145.3497684360659,0.0 291.51918398584695,-33.330000000000005 247.76918398584695,106.49471476012805&#10;c -37.5,26.572667486259498 0,81.65314098559567 64.73081601415305,81.65314098559567&#10;c 45.88712114087434,0 83.38712114087434,-56.51208595959487 45.88712114087434,-176.16744985253203&#10;c -37.5,-86.658 131.25,-53.328 266.61287885912566,-11.980405893191687 c 126.43910821625178,0.0 273.99533012005713,-33.330000000000005 230.24533012005713,91.64064621378814&#10;c -37.5,118.84414392070173 0,119.25833184303407 82.25466987994287,119.25833184303407&#10;c 47.528589593186325,0 85.02858959318633,-90.94831955547382 47.528589593186325,-156.22262258959483&#10;c -37.5,-86.658 131.25,-53.328 264.9714104068137,-54.67635546722738 c 155.93341262251178,0.0 257.05941682009967,-33.330000000000005 213.30941682009967,85.2657223208825&#10;c -37.5,105.98571132660592 0,113.20320319442078 99.19058317990033,113.20320319442078&#10;c 45.87443360103515,0 83.37443360103515,-67.89782984288654 45.87443360103515,-210.95332680329622&#10;c -37.5,-86.658 131.25,-53.328 266.62556639896485,12.484401287992938 L 5000 0 " fill="none" stroke="black" stroke-width="0.1" style="vector-effect:non-scaling-stroke;" /></g><g><path d="M 0 0  L 0 1999.800000  c 123.7399736364634,0.0 273.9128402154556,-33.330000000000005 230.1628402154556,137.34537714848415&#10;c -37.5,18.088491686173846 0,24.788537470495697 82.33715978454441,24.788537470495697&#10;c 50.82616978875467,0 88.32616978875467,-28.605774147887132 50.82616978875467,-102.4978417526359&#10;c -37.5,-86.658 131.25,-53.328 261.67383021124533,-59.63607286634394 c 57.20572227699424,-0.0 256.2774973076657,33.330000000000005 212.52749730766573,-130.4891001871341&#10;c -37.5,-22.790981674738635 0,-42.692059267155116 99.97250269233427,-42.692059267155116&#10;c 74.14511313508979,0 111.64511313508979,137.89430641168835 74.14511313508979,178.75782678403993&#10;c -37.5,86.658 131.25,53.328 238.3548868649102,-5.5766673297507054 c 179.2075335709797,-0.0 274.1921882225185,33.330000000000005 230.4421882225185,5.257774621506232&#10;c -37.5,-158.66560689822094 0,-194.70780989448787 82.0578117774815,-194.70780989448787&#10;c 79.41958575408773,0 116.91958575408773,170.43249148747248 79.41958575408773,200.81701780326145&#10;c -37.5,86.658 131.25,53.328 233.08041424591227,-11.366982530279813 c 54.98273574131137,-0.0 294.08337036380703,33.330000000000005 250.333370363807,-28.644739843781384&#10;c -37.5,-144.9813448585362 0,-179.90549197567557 62.166629636192994,-179.90549197567557&#10;c 86.06878361306502,0 123.56878361306502,68.92920493610728 86.06878361306502,103.12197594992884&#10;c -37.5,86.658 131.25,53.328 226.43121638693498,105.42825586952813 c 47.40005304917167,-0.0 290.5669777148895,33.330000000000005 246.8169777148895,1.9238378754233363&#10;c -37.5,-110.89979245563171 0,-181.25059702039383 65.6830222851105,-181.25059702039383&#10;c 99.80662098810564,0 137.30662098810564,82.01498021974807 99.80662098810564,98.27089301787817&#10;c -37.5,86.658 131.25,53.328 212.69337901189436,81.05586612709232 c 87.78070830395387,0.0 260.10683418828273,-33.330000000000005 216.35683418828273,31.86096238275638&#10;c -37.5,148.10641788987144 0,186.98465319496555 96.14316581171727,186.98465319496555&#10;c 43.8999111856204,0 81.3999111856204,-95.13481653923256 43.8999111856204,-129.35280197015334&#10;c -37.5,-86.658 131.25,-53.328 268.6000888143796,-89.49281360756859 c 97.28672585747778,0.0 260.5178282255646,-33.330000000000005 216.76782822556456,85.22173093312003&#10;c -37.5,121.6140087402107 0,126.05137728791851 95.73217177443544,126.05137728791851&#10;c 66.67192441773636,0 104.17192441773636,-100.67236491224563 66.67192441773636,-154.10711400864471&#10;c -37.5,-86.658 131.25,-53.328 245.82807558226364,-57.16599421239383 c 101.0201091790439,0.0 280.37711947397446,-33.330000000000005 236.62711947397446,94.19732456450409&#10;c -37.5,58.39650288437626 0,74.85875319142274 75.87288052602554,74.85875319142274&#10;c 95.28645764829986,0 132.78645764829986,-27.604462955667366 95.28645764829986,-81.88414947204494&#10;c -37.5,-86.658 131.25,-53.328 217.21354235170014,-87.17192828388188 L 5000 0 " fill="none" stroke="black" stroke-width="0.1" style="vector-effect:non-scaling-stroke;" /></g><g><path d="M 0 0  L 0 2666.400000  c 181.01966876066064,-0.0 275.95064653558705,33.330000000000005 232.20064653558705,-57.07222333806156&#10;c -37.5,-146.2025334182481 0,-160.58286032041394 80.29935346441295,-160.58286032041394&#10;c 64.01435679735488,0 101.51435679735488,89.48953434909899 64.01435679735488,123.36554686982477&#10;c -37.5,86.658 131.25,53.328 248.48564320264512,94.28953678865075 c 175.01663637986584,-0.0 268.3097462313575,33.330000000000005 224.5597462313575,-69.53224411306897&#10;c -37.5,-117.0501948558986 0,-142.3853280814126 87.94025376864249,-142.3853280814126&#10;c 92.40569869159424,0 129.90569869159424,73.22811169726647 92.40569869159424,220.16673637126016&#10;c -37.5,86.658 131.25,53.328 220.09430130840576,-8.249164176778578 c 118.13763847276265,-0.0 262.90267159900685,33.330000000000005 219.15267159900682,-123.90693041074881&#10;c -37.5,-40.02968967907833 0,-58.62004851852778 93.34732840099318,-58.62004851852778&#10;c 98.77096723203778,0 136.27096723203778,134.58801856118936 98.77096723203778,190.5582211797615&#10;c -37.5,86.658 131.25,53.328 213.72903276796222,-8.031242250484894 c 32.453081285044114,0.0 312.0431961143145,-33.330000000000005 268.2931961143145,131.04451163595473&#10;c -37.5,12.61926449547053 0,30.658788965574388 44.206803885685474,30.658788965574388&#10;c 75.43466938153773,0 112.93466938153773,-28.925902833945532 75.43466938153773,-66.42948771991422&#10;c -37.5,-86.658 131.25,-53.328 237.06533061846227,-95.2738128816149 c 43.50177395560718,-0.0 308.7436902854268,33.330000000000005 264.9936902854268,8.346841010592026&#10;c -37.5,-82.73837455504382 0,-171.30319843332805 47.506309714573206,-171.30319843332805&#10;c 67.48554789435912,0 104.98554789435912,44.53144283037527 67.48554789435912,45.363263779626024&#10;c -37.5,86.658 131.25,53.328 245.01445210564088,117.59309364311001 c 102.28015296464982,-0.0 271.5546011704754,33.330000000000005 227.8046011704754,-93.84436720538434&#10;c -37.5,-71.38728203234255 0,-117.9435248835203 84.6953988295246,-117.9435248835203&#10;c 50.218026092339414,0 87.71802609233941,50.61534921375549 50.218026092339414,139.67213010535573&#10;c -37.5,86.658 131.25,53.328 262.2819739076606,72.11576198354891 c 97.03161521670556,-0.0 310.2081910195567,33.330000000000005 266.4581910195567,-18.2465911750253&#10;c -37.5,-79.252963803365 0,-200.732937795405 46.04180898044331,-200.732937795405&#10;c 52.13822094935915,0 89.63822094935915,75.54711410361597 52.13822094935915,94.7242200089741&#10;c -37.5,86.658 131.25,53.328 260.36177905064085,124.2553089614562 c 58.20960445998817,-0.0 263.8105122210437,33.330000000000005 220.06051222104372,-40.960826934350386&#10;c -37.5,-134.19875277147722 0,-147.40914130146118 92.43948777895628,-147.40914130146118&#10;c 96.23522988624899,0 133.735229886249,42.59481700894276 96.23522988624899,110.630213889754&#10;c -37.5,86.658 131.25,53.328 216.264770113751,77.73975434605757 L 5000 0 " fill="none" stroke="black" stroke-width="0.1" style="vector-effect:non-scaling-stroke;" /></g></g></svg>