<svg baseProfile="full" height="2448" preserveAspectRatio="none" shape-rendering="geometricPrecision" version="1.1" viewBox="0,0,3264,2448" width="3264" xmlns="http://www.w3.org/2000/svg" xmlns:ev="http://www.w3.org/2001/xml-events" xmlns:xlink="http://www.w3.org/1999/xlink"><title>Jigsaw puzzle piece clips</title><desc>Created with the piecemaker. Piece count: 35</desc><defs/><g><g><rect fill="white" height="2448" width="3264" x="0" y="0"/></g></g><g><g><path d="M 0 0  L 466.285714 0  c -0.0,59.4419121902398 23.314285714285717,208.83227101250895 -77.13605855283362,174.56027101250896
c -24.827194824509288,-29.376 -69.26469375123233,0 -69.26469375123233,70.23972898749105
c 0,63.78025738883713 91.31600531588852,93.15625738883713 103.04384861997377,63.78025738883713
c 60.61714285714286,-29.376 37.30285714285714,102.816 43.356903684092174,181.01974261116288 c 0.0,56.56419865165121 -23.314285714285717,222.860812375077 43.273074060360265,188.58881237507697
c 89.89282854256255,-29.376 102.55749873788864,0 102.55749873788864,56.21118762492304
c 0,45.03174605310278 -69.18723165030438,74.40774605310278 -87.59479123961556,45.03174605310278
c -60.61714285714286,-29.376 -37.30285714285714,102.816 -58.23578155863335,199.76825394689723 c -0.0,133.33451684575508 23.314285714285717,214.746034448655 -92.36837768758109,180.47403444865498
c -7.031196330952433,-29.376 -22.469922747113785,0 -22.469922747113785,64.32596555134504
c 0,41.08516123147626 18.446044145448802,70.46116123147627 21.33958524798193,41.08516123147626
c 60.61714285714286,-29.376 37.30285714285714,102.816 93.49871518671294,203.71483876852375 c -0.0,105.04300940822937 23.314285714285717,223.40510436960642 3.2115354211151663,189.1331043696064
c -115.7119898315401,-29.376 -145.6435745396333,0 -145.6435745396333,55.66689563039361
c 0,54.78857905833161 27.864609012646646,84.16457905833161 59.43671598111577,54.78857905833161
c 60.61714285714286,-29.376 37.30285714285714,102.816 82.99532313740237,190.0114209416684 c -0.0,69.56512248028795 23.314285714285717,242.5016642791897 -81.11950083130985,208.22966427918968
c -21.817297555876515,-29.376 -53.192848505173075,0 -53.192848505173075,36.570335720810334
c 0,45.309217714719296 54.42444656690641,74.6852177147193 113.40182397828985,45.309217714719296
c 60.61714285714286,-29.376 37.30285714285714,102.816 20.91052535819307,199.49078228528072 L 0 2448 " fill="none" stroke="black" stroke-width="0.1" style="vector-effect:non-scaling-stroke;"/></g><g><path d="M 0 0  L 932.571429 0  c 0.0,104.1432390473596 -23.314285714285717,203.34453212888752 -6.740869537941971,169.07253212888753
c 40.45207008637322,-29.376 155.45827790504174,0 155.45827790504174,75.72746787111248
c 0,40.33966461924274 -10.409218400785544,69.71566461924274 -49.50413238509424,40.33966461924274
c -60.61714285714286,-29.376 -37.30285714285714,102.816 -99.21327598200554,204.46033538075727 c -0.0,121.84470159491734 23.314285714285717,225.05693310107722 -21.062233748614894,190.7849331010772
c -117.71051049566171,-29.376 -130.75363512360673,0 -130.75363512360673,54.01506689892281
c 0,69.56277695203073 56.524186210208626,98.93877695203074 100.97726717326779,69.56277695203073
c 60.61714285714286,-29.376 37.30285714285714,102.816 50.83860169895382,175.23722304796928 c 0.0,104.62789435165794 -23.314285714285717,214.7170602157177 41.7502269976036,180.4450602157177
c 72.41330958721414,-29.376 104.6955274807392,0 104.6955274807392,64.35493978428232
c 0,74.5793596714359 -53.29459188027941,103.9553596714359 -154.01792994475838,74.5793596714359
c -60.61714285714286,-29.376 -37.30285714285714,102.816 7.572175466415587,170.22064032856412 c 0.0,40.70092748993426 -23.314285714285717,216.49128269524567 -1.8093212395525184,182.21928269524565
c 37.10281731336722,-29.376 146.41241489680266,0 146.41241489680266,62.58071730475436
c 0,51.12939590094203 -14.18657701116696,80.50539590094203 -60.64012128038924,51.12939590094203
c -60.61714285714286,-29.376 -37.30285714285714,102.816 -83.96297237686089,193.67060409905798 c 0.0,42.150191103275304 -23.314285714285717,231.3921635408463 79.91780327282798,197.12016354084628
c 64.46480548160356,-29.376 70.59876870049463,0 70.59876870049463,47.679836459153734
c 0,55.926845335669384 -125.84998121062797,85.30284533566939 -137.57501171192885,55.926845335669384
c -60.61714285714286,-29.376 -37.30285714285714,102.816 -12.94156026139376,188.87315466433063 L 0 2448 " fill="none" stroke="black" stroke-width="0.1" style="vector-effect:non-scaling-stroke;"/></g><g><path d="M 0 0  L 1398.857143 0  c 0.0,70.83547509541779 -23.314285714285717,202.2304830610189 95.87342732258556,167.95848306101888
c 17.013487549200413,-29.376 58.336343907740215,0 58.336343907740215,76.84151693898113
c 0,53.563896677249204 -30.65764547027313,82.93989667724921 -66.37182370174703,53.563896677249204
c -60.61714285714286,-29.376 -37.30285714285714,102.816 -87.83794752857874,191.2361033227508 c -0.0,32.87179933967963 23.314285714285717,210.6859577704791 2.433313751456212,176.41395777047907
c -63.06762381792801,-29.376 -146.790862082732,0 -146.790862082732,68.38604222952094
c 0,73.7326413379343 53.78772365118876,103.1086413379343 120.24612285523787,73.7326413379343
c 60.61714285714286,-29.376 37.30285714285714,102.816 24.11142547603791,171.06735866206571 c 0.0,58.07643758062399 -23.314285714285717,206.90478278271536 39.96498553151508,172.63278278271537
c 50.06041747669872,-29.376 92.10568056863576,0 92.10568056863576,72.16721721728464
c 0,63.257542711614235 -30.240123991284385,92.63354271161424 -57.77414675319321,63.257542711614235
c -60.61714285714286,-29.376 -37.30285714285714,102.816 -74.29651934695764,181.54245728838578 c 0.0,129.4754093087232 -23.314285714285717,239.43207975053815 67.90628237813884,205.16007975053816
c 72.08982605365657,-29.376 80.14793341256772,0 80.14793341256772,39.63992024946185
c 0,45.094947849989126 -102.0121124030965,74.47094784998913 -107.8965437059499,45.094947849989126
c -60.61714285714286,-29.376 -37.30285714285714,102.816 -40.15767208475667,199.70505215001089 c -0.0,96.26418671412853 23.314285714285717,230.0891938308531 -83.86783163867851,195.81719383085309
c -41.962644906974546,-29.376 -62.84700922024125,0 -62.84700922024125,48.982806169146926
c 0,50.40686884142394 133.38262300313085,79.78286884142395 145.06472577754516,50.40686884142394
c 60.61714285714286,-29.376 37.30285714285714,102.816 1.6501150813745937,194.39313115857607 L 0 2448 " fill="none" stroke="black" stroke-width="0.1" style="vector-effect:non-scaling-stroke;"/></g><g><path d="M 0 0  L 1865.142857 0  c 0.0,78.00859576001706 -23.314285714285717,244.10635926735 22.503878809098353,209.83435926735
c 134.25006577032843,-29.376 134.0166803160435,0 134.0166803160435,34.96564073265
c 0,50.26111361790373 -39.12914318301897,79.63711361790374 -58.01684489773403,50.26111361790373
c -60.61714285714286,-29.376 -37.30285714285714,102.816 -98.50371422740783,194.53888638209628 c -0.0,80.83106243567946 23.314285714285717,216.22163618147164 -59.02153217886283,181.94963618147162
c -55.954943953466525,-29.376 -58.4901563285067,0 -58.4901563285067,62.85036381852839
c 0,36.566140268200684 62.16209025983614,65.94214026820069 73.077222440157,36.566140268200684
c 60.61714285714286,-29.376 37.30285714285714,102.816 44.434466067212526,208.23385973179933 c 0.0,115.41257136354758 -23.314285714285717,206.52881874239512 7.449697108309454,172.2568187423951
c 93.95814456883711,-29.376 143.4384858300581,0 143.4384858300581,72.54318125760491
c 0,39.985460676047126 -106.0752866761304,69.36146067604713 -123.65757379231016,39.985460676047126
c -60.61714285714286,-29.376 -37.30285714285714,102.816 -27.230609146057418,204.81453932395289 c 0.0,134.9519722050791 -23.314285714285717,212.93681664295735 35.79494606247965,178.66481664295733
c 53.949974467342244,-29.376 95.17854222321938,0 95.17854222321938,66.13518335704268
c 0,74.36064143910255 -87.4198136071989,103.73664143910256 -99.37592859125449,74.36064143910255
c -60.61714285714286,-29.376 -37.30285714285714,102.816 -31.59755969444454,170.43935856089746 c -0.0,94.76157662706588 23.314285714285717,236.680753049781 -41.416693025243404,202.408753049781
c -25.57999738631389,-29.376 -86.06442447795358,0 -86.06442447795358,42.391246950219
c 0,69.78456733392227 17.204828760535175,99.16056733392227 26.484415277967685,69.78456733392227
c 60.61714285714286,-29.376 37.30285714285714,102.816 100.9967022252293,175.01543266607774 L 0 2448 " fill="none" stroke="black" stroke-width="0.1" style="vector-effect:non-scaling-stroke;"/></g><g><path d="M 0 0  L 2331.428571 0  c 0.0,69.83172349550152 -23.314285714285717,223.62712977438582 50.43022763132319,189.3551297743858
c 33.95025271932973,-29.376 79.54033873718836,0 79.54033873718836,55.44487022561421
c 0,75.21025230229702 -109.19632463270251,104.58625230229703 -122.49330409134441,75.21025230229702
c -60.61714285714286,-29.376 -37.30285714285714,102.816 -7.477262277167142,169.589747697703 c -0.0,97.53842583495496 23.314285714285717,212.27488669943932 -102.33269896620683,178.0028866994393
c -17.9592542799715,-29.376 -18.93168447528842,0 -18.93168447528842,66.79711330056071
c 0,68.27450907136819 87.19529613373996,97.65050907136819 125.15772172165822,68.27450907136819
c 60.61714285714286,-29.376 37.30285714285714,102.816 -3.893338280162965,176.52549092863183 c -0.0,54.961682802261315 23.314285714285717,242.60482550486535 -64.74642690285033,208.33282550486535
c -48.202723424997686,-29.376 -51.33226120461656,0 -51.33226120461656,36.46717449513466
c 0,71.13755878901014 49.583526282366115,100.51355878901015 97.68596968070918,71.13755878901014
c 60.61714285714286,-29.376 37.30285714285714,102.816 18.39271842675771,173.66244121098987 c -0.0,120.80396338655571 23.314285714285717,204.2247547627661 -73.01586340639118,169.9527547627661
c -29.02307657886686,-29.376 -72.9372336293659,0 -72.9372336293659,74.84724523723392
c 0,35.122706052602325 71.48690452871477,64.49870605260233 90.07644734061523,35.122706052602325
c 60.61714285714286,-29.376 37.30285714285714,102.816 55.87664969514185,209.6772939473977 c -0.0,85.65301498693933 23.314285714285717,221.41830635776176 -40.68009443159628,187.14630635776177
c -29.10001078796291,-29.376 -112.86237057844437,0 -112.86237057844437,57.65369364223824
c 0,74.97164387979439 29.25950805788643,104.34764387979439 97.36345747060736,74.97164387979439
c 60.61714285714286,-29.376 37.30285714285714,102.816 56.179007539433286,169.82835612020563 L 0 2448 " fill="none" stroke="black" stroke-width="0.1" style="vector-effect:non-scaling-stroke;"/></g><g><path d="M 0 0  L 2797.714286 0  c 0.0,36.39856583732356 -23.314285714285717,219.42209742907903 13.723250889966218,185.15009742907904
c 76.90493883093305,-29.376 123.82597463418263,0 123.82597463418263,59.64990257092097
c 0,57.91772648167097 -36.31267281956858,87.29372648167097 -38.69288703021246,57.91772648167097
c -60.61714285714286,-29.376 -37.30285714285714,102.816 -98.85633849393639,186.88227351832904 c 0.0,47.27876291424289 -23.314285714285717,237.14534764755803 8.172145535015968,202.873347647558
c 38.691164824165895,-29.376 146.3837051674097,0 146.3837051674097,41.926652352442005
c 0,46.71065139973774 -72.7918804864919,76.08665139973775 -118.17205680232877,46.71065139973774
c -60.61714285714286,-29.376 -37.30285714285714,102.816 -36.38379390009689,198.08934860026227 c -0.0,30.845668979907135 23.314285714285717,223.31467770126318 8.910197640823727,189.04267770126316
c -95.77712137170501,-29.376 -148.3891408973928,0 -148.3891408973928,55.75732229873685
c 0,78.28604865668609 71.37286137780873,107.6620486566861 135.35044462685548,78.28604865668609
c 60.61714285714286,-29.376 37.30285714285714,102.816 4.12849862971359,166.51395134331392 c 0.0,37.067962870489744 -23.314285714285717,208.54178575170891 -0.5391417112081253,174.2697857517089
c 86.81699673855869,-29.376 125.96761103403148,0 125.96761103403148,70.53021424829112
c 0,59.367221135205966 -27.49976639225,88.74322113520597 -85.8706576364218,59.367221135205966
c -60.61714285714286,-29.376 -37.30285714285714,102.816 -39.55781168640155,185.43277886479405 c 0.0,109.19820473882787 -23.314285714285717,228.8310612034703 35.65385251741286,194.55906120347032
c 73.043225762957,-29.376 76.74473230290883,0 76.74473230290883,50.24093879652969
c 0,60.40373007761207 -66.8002894919132,89.77973007761207 -112.52748711666493,60.40373007761207
c -60.61714285714286,-29.376 -37.30285714285714,102.816 0.12890229634324157,184.39626992238794 L 0 2448 " fill="none" stroke="black" stroke-width="0.1" style="vector-effect:non-scaling-stroke;"/></g></g><g><g><path d="M 0 0  L 0 489.600000  c 69.22722189614485,-0.0 192.5794750711995,24.480000000000004 159.9394750711995,-89.04729603522306
c -27.977142857142855,-13.272479562312725 0,-28.480318594742485 73.20338207165764,-28.480318594742485
c 57.35773945379438,0 85.33488231093723,7.345959331276059 57.35773945379438,28.258240287106773
c -27.977142857142855,63.648 97.92,39.168 175.78511768906276,89.26937434285877 c 102.41356395188835,0.0 207.22978907441382,-24.480000000000004 174.5897890744138,51.81142398277856
c -27.977142857142855,91.46956456558594 0,95.33307190020392 58.55306806844334,95.33307190020392
c 40.41314397258495,0 68.3902868297278,-38.6300955119079 40.41314397258495,-111.60604317674849
c -27.977142857142855,-63.648 97.92,-39.168 192.7297131702722,-35.538452706234 c 27.37643433002669,0.0 195.75304726205007,-24.480000000000004 163.1130472620501,81.46622970608357
c -27.977142857142855,25.114295029961824 0,64.45591196393289 70.02980988080705,64.45591196393289
c 46.21869522502263,0 74.19583808216548,-83.99053754931234 46.21869522502263,-107.65155009248399
c -27.977142857142855,-63.648 97.92,-39.168 186.9241619178345,-38.27059157753247 c 114.84958211273997,-0.0 221.1989192135029,24.480000000000004 188.55891921350292,-64.28874460629791
c -27.977142857142855,-83.80789309226434 0,-102.10123775283975 44.58393792935422,-102.10123775283975
c 34.14346670450303,0 62.12060956164588,113.91936915937008 34.14346670450303,121.24927805273092
c -27.977142857142855,63.648 97.92,39.168 198.9993904383541,45.14070430640675 c 118.09352726948188,-0.0 213.35761003576602,24.480000000000004 180.717610035766,-47.576126578984095
c -27.977142857142855,-36.2565019382031 0,-92.6626747037291 52.42524710709114,-92.6626747037291
c 39.56606444589792,0 67.54320730304077,31.404261201469932 39.56606444589792,51.13406377541261
c -27.977142857142855,63.648 97.92,39.168 193.57679269695922,89.10473750730057 c 35.162245688754616,-0.0 232.28263533979862,24.480000000000004 199.6426353397986,-22.225467424046972
c -27.977142857142855,-133.64553799615868 0,-136.20920725563565 33.50022180305854,-136.20920725563565
c 43.37774210488848,0 71.35488496203133,69.74148230688246 43.37774210488848,70.94599663851648
c -27.977142857142855,63.648 97.92,39.168 189.76511503796866,87.48867804116614 c 82.97731415672747,-0.0 206.68979489466352,24.480000000000004 174.0497948946635,-83.6181848595156
c -27.977142857142855,-33.260289669608 0,-47.10823950051082 59.09306224819363,-47.10823950051082
c 56.90050337407891,0 84.87764623122176,51.240644878359944 56.90050337407891,103.96277435564438
c -27.977142857142855,63.648 97.92,39.168 176.24235376877823,26.76365000438203 L 3264 0 " fill="none" stroke="black" stroke-width="0.1" style="vector-effect:non-scaling-stroke;"/></g><g><path d="M 0 0  L 0 979.200000  c 85.67605931591652,0.0 215.435821074528,-24.480000000000004 182.79582107452802,70.15034872632637
c -27.977142857142855,15.207789103155022 0,53.10363201695738 50.34703606832912,53.10363201695738
c 71.8752117612913,0 99.85235461843415,-28.82314155457132 71.8752117612913,-76.87446008145238
c -27.977142857142855,-63.648 97.92,-39.168 161.26764538156584,-46.379520661831364 c 94.23400756599337,-0.0 192.30130202414563,24.480000000000004 159.6613020241456,8.689100292600195
c -27.977142857142855,-38.904688635699905 0,-164.35105440323753 73.48155511871153,-164.35105440323753
c 59.407125870653346,0 87.3842687277962,69.5443592292338 59.407125870653346,113.50513095664127
c -27.977142857142855,63.648 97.92,39.168 173.7357312722038,42.15682315399607 c 69.7656392286668,0.0 227.3230426837951,-24.480000000000004 194.68304268379512,106.24945057919335
c -27.977142857142855,16.571879818478024 0,18.594092283331875 38.45981445906202,18.594092283331875
c 38.426252162870554,0 66.4033950200134,-127.3786356992707 38.426252162870554,-132.77931788210205
c -27.977142857142855,-63.648 97.92,-39.168 194.71660497998658,7.935775019576823 c 39.09584318482913,-0.0 207.166639961533,24.480000000000004 174.526639961533,-0.4918729709124783
c -27.977142857142855,-143.75298867647948 0,-152.38266715126025 58.616217181324146,-152.38266715126025
c 47.82082406670591,0 75.79796692384876,105.13474451389993 47.82082406670591,108.63442744293286
c -27.977142857142855,63.648 97.92,39.168 185.32203307615123,44.24011267923987 c 63.750744453326234,-0.0 210.48464819009416,24.480000000000004 177.84464819009418,-6.637011898466352
c -27.977142857142855,-42.251055335345 0,-151.76420825359767 55.29820895276296,-151.76420825359767
c 46.541072827342106,0 74.51821568448496,120.26806890139851 46.541072827342106,136.31392637564304
c -27.977142857142855,63.648 97.92,39.168 186.60178431551503,22.087293776420978 c 130.88991096489568,0.0 210.6097645153299,-24.480000000000004 177.9697645153299,45.02365564132392
c -27.977142857142855,47.94928045955798 0,116.37859901394583 55.17309262752724,116.37859901394583
c 52.13201373062097,0 80.10915658776382,-48.38205194006187 52.13201373062097,-79.7460583711474
c -27.977142857142855,-63.648 97.92,-39.168 181.01084341223617,-81.65619628412236 c 29.41938052933512,0.0 197.68095324310713,-24.480000000000004 165.0409532431071,22.26800575920675
c -27.977142857142855,106.50915781880424 0,127.9361815435378 68.10190389975003,127.9361815435378
c 52.31421181695228,0 80.29135467409513,-14.992814681336947 52.31421181695228,-56.460750544662645
c -27.977142857142855,-63.648 97.92,-39.168 180.82864532590486,-93.7434367580819 L 3264 0 " fill="none" stroke="black" stroke-width="0.1" style="vector-effect:non-scaling-stroke;"/></g><g><path d="M 0 0  L 0 1468.800000  c 24.136620766091347,-0.0 194.047034073919,24.480000000000004 161.407034073919,-1.3497072749075523
c -27.977142857142855,-39.18797143548252 0,-133.37296510555456 71.73582306893815,-133.37296510555456
c 62.057978940768606,0 90.03512179791146,103.50269139431241 62.057978940768606,127.0998869865618
c -27.977142857142855,63.648 97.92,39.168 171.08487820208853,7.622785393900315 c 23.837192809268025,-0.0 221.19141599922165,24.480000000000004 188.55141599922163,-7.407645498428452
c -27.977142857142855,-46.230385882489216 0,-152.81441705557987 44.59144114363551,-152.81441705557987
c 36.993551368167545,0 64.9706942253104,67.78116502677399 36.993551368167545,99.88103397728327
c -27.977142857142855,63.648 97.92,39.168 196.1493057746896,60.34102857672505 c 125.91376783060882,0.0 215.30318468971052,-24.480000000000004 182.6631846897105,38.96012760688676
c -27.977142857142855,69.42878835150503 0,100.9329736020456 50.479672453146634,100.9329736020456
c 38.45096916183715,0 66.42811201898,-51.75399298917379 38.45096916183715,-100.70032782157654
c -27.977142857142855,-63.648 97.92,-39.168 194.69188798102,-39.19277338735583 c 38.02573928009658,-0.0 228.19879116040312,24.480000000000004 195.55879116040313,-89.8241371783641
c -27.977142857142855,-57.31511634176802 0,-65.3905933197304 37.58406598245401,-65.3905933197304
c 53.359276396633874,0 81.33641925377673,29.50266332629425 53.359276396633874,84.41566000348637
c -27.977142857142855,63.648 97.92,39.168 179.78358074622327,70.79907049460813 c 28.635457188051834,-0.0 227.91597728758308,24.480000000000004 195.27597728758306,-91.98952822064149
c -27.977142857142855,-21.978923664266556 0,-36.862214130564894 37.86687985527408,-36.862214130564894
c 53.14873171416619,0 81.12587457130904,63.26750988328348 53.14873171416619,85.0328144762113
c -27.977142857142855,63.648 97.92,39.168 179.99412542869095,43.81892787499508 c 126.63419049604683,-0.0 209.02054635661688,24.480000000000004 176.3805463566169,-0.9883051229255649
c -27.977142857142855,-75.63061619319205 0,-140.20727835602116 56.76231078624025,-140.20727835602116
c 41.0866621808091,0 69.06380503795195,68.83129396539613 41.0866621808091,88.77889638119001
c -27.977142857142855,63.648 97.92,39.168 192.05619496204804,52.41668709775672 c 55.80296096018123,0.0 207.4676767555954,-24.480000000000004 174.8276767555954,95.34258537953836
c -27.977142857142855,40.422316284425875 0,61.808730181301186 58.315180387261734,61.808730181301186
c 51.08503024147976,0 79.06217309862261,-72.20624709433743 51.08503024147976,-110.21034688873527
c -27.977142857142855,-63.648 97.92,-39.168 182.05782690137738,-46.940968672104276 L 3264 0 " fill="none" stroke="black" stroke-width="0.1" style="vector-effect:non-scaling-stroke;"/></g><g><path d="M 0 0  L 0 1958.400000  c 66.25824898947745,0.0 195.83716007575077,-24.480000000000004 163.19716007575076,75.66244807908635
c -27.977142857142855,26.751278578606744 0,67.24180603390204 69.94569706710638,67.24180603390204
c 71.83720264051081,0 99.81434549765366,-60.078739303480965 71.83720264051081,-71.51738191722598
c -27.977142857142855,-63.648 97.92,-39.168 161.30565450234633,-71.38687219576241 c 80.54922224089134,-0.0 205.7109321157409,24.480000000000004 173.07093211574087,-0.8287239133761055
c -27.977142857142855,-50.5118389102101 0,-143.92388864544714 60.071925027116265,-143.92388864544714
c 38.74478925816291,0 66.72193211530576,24.340844121247066 38.74478925816291,86.81068543847967
c -27.977142857142855,63.648 97.92,39.168 194.39806788469423,57.94192712034358 c 84.72325067216354,-0.0 192.42843663593032,24.480000000000004 159.7884366359303,5.672122530943565
c -27.977142857142855,-153.22359525437207 0,-152.26724424529195 73.35442050692683,-152.26724424529195
c 54.96405181610109,0 82.94119467324394,28.168786344999496 54.96405181610109,47.606533171695915
c -27.977142857142855,63.648 97.92,39.168 178.17880532675605,98.98858854265247 c 87.5755040912743,-0.0 202.21849522270253,24.480000000000004 169.57849522270251,-96.17762581650129
c -27.977142857142855,-19.455807994281425 0,-43.7054221996967 63.564361920154624,-43.7054221996967
c 39.807951373612724,0 67.78509423075558,65.65730517401185 39.807951373612724,92.93502995628151
c -27.977142857142855,63.648 97.92,39.168 193.33490576924441,46.94801805991648 c 82.19598908407936,0.0 207.292143260047,-24.480000000000004 174.65214326004698,63.88316914434521
c -27.977142857142855,42.58293188452263 0,75.52426644965468 58.490713882810155,75.52426644965468
c 66.46195324570621,0 94.43909610284906,-46.071662080694125 66.46195324570621,-65.11502289716209
c -27.977142857142855,-63.648 97.92,-39.168 166.68090389715093,-74.29241269683779 c 46.87611233841095,0.0 226.43764380881566,-24.480000000000004 193.79764380881565,21.677284158063415
c -27.977142857142855,133.585440494696 0,132.4584668773104 39.34521333404149,132.4584668773104
c 53.97410013943508,0 81.95124299657793,-35.058092329635194 53.97410013943508,-79.19003936339975
c -27.977142857142855,-63.648 97.92,-39.168 179.16875700342206,-74.94571167197405 c 26.248160426065656,-0.0 206.45324414493984,24.480000000000004 173.81324414493986,-49.3359363877294
c -27.977142857142855,-104.29034674089391 0,-105.88803531777529 59.32961299791728,-105.88803531777529
c 35.786133497513305,0 63.763276354656156,86.60778129750189 35.786133497513305,145.46375909994813
c -27.977142857142855,63.648 97.92,39.168 197.35672364534383,9.760212605556546 L 3264 0 " fill="none" stroke="black" stroke-width="0.1" style="vector-effect:non-scaling-stroke;"/></g></g></svg>