<svg baseProfile="full" height="1102" preserveAspectRatio="none" shape-rendering="geometricPrecision" version="1.1" viewBox="0,0,1631,1102" width="1631" xmlns="http://www.w3.org/2000/svg" xmlns:ev="http://www.w3.org/2001/xml-events" xmlns:xlink="http://www.w3.org/1999/xlink"><title>Jigsaw puzzle piece clips</title><desc>Created with the piecemaker. Piece count: 35</desc><defs /><g><g><rect fill="white" height="1102" width="1631" x="0" y="0" /></g></g><g><g><path d="M 0 0  L 233.000000 0  c 0.0,25.831596108116862 -11.65,94.77638950403646 40.31543252581582,79.34838950403646&#10;c 26.50136210660029,-13.224 26.88595294289705,0 26.88595294289705,30.85161049596354&#10;c 0,34.127558690524566 -9.18473522176683,47.35155869052457 -18.4691976181046,34.127558690524566&#10;c -30.290000000000003,-13.224 -18.64,46.284 -48.73218785060827,76.07244130947544 c 0.0,43.027087060440536 -11.65,93.41974109473918 44.74516270771697,77.99174109473918&#10;c 20.916031303040878,-13.224 22.312297499289045,0 22.312297499289045,32.20825890526082&#10;c 0,32.427667324578195 -63.00168582151826,45.6516673245782 -69.95622686671629,32.427667324578195&#10;c -30.290000000000003,-13.224 -18.64,46.284 2.898766659710276,77.77233267542181 c -0.0,28.301916126145933 11.65,109.80769883290246 -45.105198401635846,94.37969883290246&#10;c -3.051817424057695,-13.224 -11.260616426474165,0 -11.260616426474165,15.82030116709754&#10;c 0,32.4441729959684 5.90464225805284,45.668172995968405 9.184949599054214,32.4441729959684&#10;c 30.290000000000003,-13.224 18.64,46.284 47.1808652290558,77.7558270040316 c -0.0,11.722104666847246 11.65,105.19702194868232 -36.445418239473014,89.76902194868232&#10;c -19.4744694585723,-13.224 -25.53464756881241,0 -25.53464756881241,20.43097805131768&#10;c 0,28.293493345239156 48.37166025191938,41.51749334523916 59.82866472870387,28.293493345239156&#10;c 30.290000000000003,-13.224 18.64,46.284 2.1514010795815537,81.90650665476085 c -0.0,21.698227464917725 11.65,90.51403515022156 -2.2373956408481956,75.08603515022156&#10;c -43.586869896365144,-13.224 -75.15039047778025,0 -75.15039047778025,35.11396484977844&#10;c 0,33.50724869398691 52.94086672427061,46.73124869398691 61.90610362254965,33.50724869398691&#10;c 30.290000000000003,-13.224 18.64,46.284 15.48168249607879,76.6927513060131 L 0 1102 " fill="none" stroke="black" stroke-width="0.1" style="vector-effect:non-scaling-stroke;" /></g><g><path d="M 0 0  L 466.000000 0  c 0.0,12.172747320896182 -11.65,93.72306953407647 22.716716999899106,78.29506953407648&#10;c 25.296474626026804,-13.224 39.35119725461218,0 39.35119725461218,31.904930465923528&#10;c 0,24.564866956751715 -13.472935151002043,37.78886695675172 -35.24824342063911,24.564866956751715&#10;c -30.290000000000003,-13.224 -18.64,46.284 -26.819670833872173,85.63513304324829 c 0.0,17.960175700249174 -11.65,100.7676101559937 32.97065824987482,85.3396101559937&#10;c 21.659222940407187,-13.224 36.03623753708985,0 36.03623753708985,24.860389844006306&#10;c 0,21.16971409373609 -13.861581198674891,34.393714093736094 -25.804645558360576,21.16971409373609&#10;c -30.290000000000003,-13.224 -18.64,46.284 -43.2022502286041,89.03028590626391 c -0.0,40.28479801443968 11.65,107.81018977551929 -1.5757409392349786,92.3821897755193&#10;c -51.84191760783572,-13.224 -57.86595787032266,0 -57.86595787032266,17.81781022448071&#10;c 0,27.935760609686568 36.184393035230585,41.15976060968657 47.44270472153238,27.935760609686568&#10;c 30.290000000000003,-13.224 18.64,46.284 11.998994088025256,82.26423939031343 c 0.0,47.06478711947953 -11.65,105.72395887494142 -3.201612789955313,90.29595887494142&#10;c 56.702576750897826,-13.224 74.89452269665705,0 74.89452269665705,19.904041125058583&#10;c 0,18.75021326573291 -11.989258892354014,31.97421326573291 -45.862580265203874,18.75021326573291&#10;c -30.290000000000003,-13.224 -18.64,46.284 -25.830329641497855,91.4497867342671 c 0.0,57.9455004226134 -11.65,108.99393723086108 18.966241241048486,93.56593723086108&#10;c 28.01022115972842,-13.224 59.30131305732298,0 59.30131305732298,16.63406276913892&#10;c 0,15.490749744787024 -17.843291784909894,28.714749744787024 -33.89734000303344,15.490749744787024&#10;c -30.290000000000003,-13.224 -18.64,46.284 -44.37021429533802,94.70925025521298 L 0 1102 " fill="none" stroke="black" stroke-width="0.1" style="vector-effect:non-scaling-stroke;" /></g><g><path d="M 0 0  L 699.000000 0  c -0.0,58.157523143233064 11.65,90.81923223628229 -1.7589456639447052,75.39123223628229&#10;c -22.91642983200384,-13.224 -61.52431793043683,0 -61.52431793043683,34.80876776371771&#10;c 0,17.88901038556206 24.42050734191299,31.11301038556206 27.196277426723327,17.88901038556206&#10;c 30.290000000000003,-13.224 18.64,46.284 36.08698616765821,92.31098961443794 c 0.0,46.99247361547856 -11.65,95.63175794449147 4.962668050569111,80.20375794449147&#10;c 57.88141930122541,-13.224 62.40811250940744,0 62.40811250940744,29.99624205550853&#10;c 0,27.12765584863034 -27.569632049025735,40.351655848630344 -42.859984049766304,27.12765584863034&#10;c -30.290000000000003,-13.224 -18.64,46.284 -24.51079651021025,83.07234415136966 c -0.0,39.302820672614025 11.65,96.2751270507103 -5.047424959338218,80.8471270507103&#10;c -52.535748926486605,-13.224 -69.41912649651735,0 -69.41912649651735,29.352872949289704&#10;c 0,22.232325224550422 36.10726917849215,35.456325224550426 63.025034550593176,22.232325224550422&#10;c 30.290000000000003,-13.224 18.64,46.284 11.44151690526239,87.96767477544958 c 0.0,46.28050105384332 -11.65,105.58097534445541 22.786500916745965,90.15297534445541&#10;c 33.87799183518859,-13.224 47.66247017997928,0 47.66247017997928,20.04702465554459&#10;c 0,30.930603123798008 -21.261804024210935,44.15460312379801 -27.31548395979005,30.930603123798008&#10;c -30.290000000000003,-13.224 -18.64,46.284 -43.133487136935194,79.269396876202 c 0.0,60.12713070833392 -11.65,107.14134152525114 41.764640087837385,91.71334152525114&#10;c 19.404155818489215,-13.224 22.507876055127305,0 22.507876055127305,18.486658474748864&#10;c 0,31.91596626045863 -38.041706890216616,45.139966260458635 -62.05953886993144,31.91596626045863&#10;c -30.290000000000003,-13.224 -18.64,46.284 -2.2129772730332533,78.28403373954137 L 0 1102 " fill="none" stroke="black" stroke-width="0.1" style="vector-effect:non-scaling-stroke;" /></g><g><path d="M 0 0  L 932.000000 0  c 0.0,54.77028432785019 -11.65,99.59203373037641 26.792479939265416,84.16403373037642&#10;c 47.590978063613754,-13.224 51.86739699014403,0 51.86739699014403,26.035966269623586&#10;c 0,27.678807278453675 -21.306356263346427,40.90280727845368 -51.696759443561874,27.678807278453675&#10;c -30.290000000000003,-13.224 -18.64,46.284 -26.963117485847576,82.52119272154633 c 0.0,51.11423153411055 -11.65,104.83443196916053 31.570479399467917,89.40643196916054&#10;c 27.535576480386872,-13.224 28.187453739127985,0 28.187453739127985,20.793568030839467&#10;c 0,32.51107558820375 -21.621344764271758,45.735075588203756 -50.214831034218115,32.51107558820375&#10;c -30.290000000000003,-13.224 -18.64,46.284 -9.543102104377787,77.68892441179625 c 0.0,56.17076522113847 -11.65,90.4017943579936 1.6517448744773877,74.9737943579936&#10;c 39.81173817512834,-13.224 58.77083619577441,0 58.77083619577441,35.226205642006406&#10;c 0,23.82852314197818 -19.922638983664946,37.052523141978185 -32.24672604867638,23.82852314197818&#10;c -30.290000000000003,-13.224 -18.64,46.284 -28.175855021575416,86.37147685802182 c -0.0,33.1762084718103 11.65,93.01612901865158 -41.91561059875439,77.58812901865159&#10;c -11.265753893520538,-13.224 -23.712116433109507,0 -23.712116433109507,32.61187098134842&#10;c 0,17.35516359084052 23.591477208017547,30.57916359084052 68.76790132415377,17.35516359084052&#10;c 30.290000000000003,-13.224 18.64,46.284 -3.1401742922898706,92.84483640915948 c 0.0,48.963878023621334 -11.65,101.11928030094593 1.5662375969051638,85.69128030094593&#10;c 33.03008049136608,-13.224 68.85419348729164,0 68.85419348729164,24.50871969905407&#10;c 0,34.473910792084226 -9.012555887090137,47.69791079208423 -35.02448973084871,34.473910792084226&#10;c -30.290000000000003,-13.224 -18.64,46.284 -35.3959413533481,75.72608920791578 L 0 1102 " fill="none" stroke="black" stroke-width="0.1" style="vector-effect:non-scaling-stroke;" /></g><g><path d="M 0 0  L 1165.000000 0  c 0.0,38.89293109779136 -11.65,104.08949738734985 38.187498367507786,88.66149738734985&#10;c 20.20579505593335,-13.224 37.15701525824552,0 37.15701525824552,21.53850261265015&#10;c 0,32.07567271547772 -60.231064590092245,45.299672715477726 -62.262569792411625,32.07567271547772&#10;c -30.290000000000003,-13.224 -18.64,46.284 -13.081943833341683,78.12432728452228 c -0.0,58.04244859046588 11.65,96.87467149663321 -41.25104375171369,81.44667149663321&#10;c -16.666725048583817,-13.224 -17.241902142553535,0 -17.241902142553535,28.753328503366788&#10;c 0,27.926987325624324 7.951011189632112,41.15098732562433 10.704382323299228,27.926987325624324&#10;c 30.290000000000003,-13.224 18.64,46.284 47.788563570967995,82.27301267437568 c -0.0,40.79111517953166 11.65,94.40018637215341 -22.72100433019759,78.97218637215342&#10;c -37.79048791577523,-13.224 -55.53512924004772,0 -55.53512924004772,31.227813627846587&#10;c 0,28.931532390660195 47.72643224139547,42.1555323906602 81.75198696836699,28.931532390660195&#10;c 30.290000000000003,-13.224 18.64,46.284 -3.4958533981216817,81.26846760933981 c 0.0,15.910593231783729 -11.65,103.93302936657373 31.666854934178037,88.50502936657374&#10;c 20.700845848103068,-13.224 33.7820487218784,0 33.7820487218784,21.694970633426266&#10;c 0,21.764517872941028 -39.7621949661475,34.98851787294103 -61.89638795602665,21.764517872941028&#10;c -30.290000000000003,-13.224 -18.64,46.284 -3.5525157000297796,88.43548212705898 c -0.0,49.32222770217449 11.65,106.60708641820374 -50.78004626901591,91.17908641820374&#10;c -17.275235238111993,-13.224 -25.807647762738796,0 -25.807647762738796,19.020913581796265&#10;c 0,17.924856786481698 40.750862129217744,31.148856786481698 45.16547571541551,17.924856786481698&#10;c 30.290000000000003,-13.224 18.64,46.284 31.422218316339197,92.2751432135183 L 0 1102 " fill="none" stroke="black" stroke-width="0.1" style="vector-effect:non-scaling-stroke;" /></g><g><path d="M 0 0  L 1398.000000 0  c -0.0,54.21946552574412 11.65,99.95374696809819 -16.456421584472345,84.52574696809819&#10;c -10.114200357463357,-13.224 -43.190250763279224,0 -43.190250763279224,25.674253031901813&#10;c 0,20.84536752823668 9.31508206487587,34.06936752823668 42.840103844846915,20.84536752823668&#10;c 30.290000000000003,-13.224 18.64,46.284 16.806568502904653,89.35463247176332 c -0.0,40.84546025142485 11.65,93.2493559390999 -40.34344343414758,77.8213559390999&#10;c -13.739191602655085,-13.224 -17.9463888248682,0 -17.9463888248682,32.3786440609001&#10;c 0,19.309312458904643 6.2384546363836675,32.533312458904646 8.064127983181379,19.309312458904643&#10;c 30.290000000000003,-13.224 18.64,46.284 50.2257042758344,90.89068754109536 c -0.0,34.512745606352915 11.65,109.84012544297637 -29.095339965509755,94.41212544297638&#10;c -24.5555600267719,-13.224 -32.37720290517029,0 -32.37720290517029,15.787874557023628&#10;c 0,19.2281535705704 25.20868797736712,32.4521535705704 32.62849924894052,19.2281535705704&#10;c 30.290000000000003,-13.224 18.64,46.284 28.844043621739523,90.9718464294296 c -0.0,58.7010038096346 11.65,98.8942646781273 -46.8314398218143,83.4662646781273&#10;c -4.048341634600513,-13.224 -15.31579472441667,0 -15.31579472441667,26.7337353218727&#10;c 0,21.230617357250864 10.595778095244393,34.45461735725087 25.724270084394817,21.230617357250864&#10;c 30.290000000000003,-13.224 18.64,46.284 36.42296446183615,88.96938264274914 c -0.0,57.75748735334632 11.65,93.4276437723041 -47.64825578464044,77.9996437723041&#10;c -4.6769172278630755,-13.224 -14.13982763346835,0 -14.13982763346835,32.200356227695906&#10;c 0,32.59076414635622 59.55507456718868,45.814764146356225 59.25752452898236,32.59076414635622&#10;c 30.290000000000003,-13.224 18.64,46.284 2.530558889126432,77.60923585364378 L 0 1102 " fill="none" stroke="black" stroke-width="0.1" style="vector-effect:non-scaling-stroke;" /></g></g><g><g><path d="M 0 0  L 0 220.400000  c 66.39581235142673,0.0 97.30383898560079,-11.020000000000001 80.99383898560079,34.799755271015435&#10;c -13.979999999999999,33.19596936249274 0,34.46603479657353 35.50616101439921,34.46603479657353&#10;c 27.193830359559485,0 41.17383035955948,-13.023479395211941 27.193830359559485,-39.38535098768695&#10;c -13.979999999999999,-28.652 48.93,-17.632 89.30616964044052,-29.88043907990202 c 21.232552471908644,-0.0 99.7811872082781,11.020000000000001 83.4711872082781,-2.3232630342692904&#10;c -13.979999999999999,-39.42552200467114 0,-55.703200830411774 33.028812791721904,-55.703200830411774&#10;c 36.44492116177764,0 50.42492116177764,18.26594256698432 36.44492116177764,39.65980533863579&#10;c -13.979999999999999,28.652 48.93,17.632 80.05507883822236,18.36665852604527 c 22.4433944522478,0.0 106.99033220783329,-11.020000000000001 90.68033220783329,36.80058719023356&#10;c -13.979999999999999,21.94810590962903 0,26.52802746366629 25.81966779216671,26.52802746366629&#10;c 31.78296972343719,0 45.76296972343719,-40.78883795371188 31.78296972343719,-65.95272398558632&#10;c -13.979999999999999,-28.652 48.93,-17.632 84.71703027656281,2.624109331686469 c 44.26502856044219,-0.0 113.86264313338053,11.020000000000001 97.55264313338053,-47.86548653425847&#10;c -13.979999999999999,-9.807674445668692 0,-16.014757815399584 18.947356866619472,-16.014757815399584&#10;c 36.36837333605595,0 50.34837333605595,7.651240115745107 36.36837333605595,27.813306245273623&#10;c -13.979999999999999,28.652 48.93,17.632 80.13162666394405,36.066938104384434 c 21.18745347812966,-0.0 101.5303258741923,11.020000000000001 85.2203258741923,-35.463721189256525&#10;c -13.979999999999999,-5.5938465384351215 0,-19.916230343985653 31.279674125807702,-19.916230343985653&#10;c 31.178488327311612,0 45.15848832731161,43.40736500647866 31.178488327311612,57.12565076433947&#10;c -13.979999999999999,28.652 48.93,17.632 85.32151167268839,-1.7456992310972907 c 56.25748251302658,-0.0 112.93982295067855,11.020000000000001 96.62982295067854,-42.18033162493401&#10;c -13.979999999999999,-6.353026481191269 0,-28.70650351009992 19.870177049321455,-28.70650351009992&#10;c 25.2786938287596,0 39.2586938287596,49.89370223729552 25.2786938287596,56.21407906816766&#10;c -13.979999999999999,28.652 48.93,17.632 91.2213061712404,14.67275606686627 c 54.011802601927734,0.0 102.73351426202925,-11.020000000000001 86.42351426202924,-4.356902757938648&#10;c -13.979999999999999,23.475616324364655 0,59.80107790912702 30.076485737970756,59.80107790912702&#10;c 26.46691565014524,0 40.446915650145236,-11.148210088932963 26.46691565014524,-27.495381808674825&#10;c -13.979999999999999,-28.652 48.93,-17.632 90.03308434985476,-27.948793342513543 L 1631 0 " fill="none" stroke="black" stroke-width="0.1" style="vector-effect:non-scaling-stroke;" /></g><g><path d="M 0 0  L 0 440.800000  c 51.16351601974141,0.0 114.3299002760817,-11.020000000000001 98.0199002760817,46.458682422182655&#10;c -13.979999999999999,8.731292533296003 0,10.747714357711438 18.4800997239183,10.747714357711438&#10;c 19.031007487033776,0 33.01100748703377,-12.116504403731762 19.031007487033776,-15.550307347504678&#10;c -13.979999999999999,-28.652 48.93,-17.632 97.46899251296622,-41.656089432389415 c 33.505785676582896,0.0 115.58730898610045,-11.020000000000001 99.27730898610045,2.4821569446139993&#10;c -13.979999999999999,13.60882592103129 0,58.86278311801165 17.22269101389955,58.86278311801165&#10;c 20.27066429034292,0 34.25066429034292,-16.571576607316985 20.27066429034292,-40.19552685536088&#10;c -13.979999999999999,-28.652 48.93,-17.632 96.22933570965708,-21.149413207264764 c 42.718030389783145,-0.0 108.9509232717731,11.020000000000001 92.6409232717731,2.0067444063459585&#10;c -13.979999999999999,-59.35648903193146 0,-72.32879889124958 23.859076728226896,-72.32879889124958&#10;c 23.45709679261131,0 37.43709679261131,23.56939236724789 23.45709679261131,48.70605298444667&#10;c -13.979999999999999,28.652 48.93,17.632 93.04290320738869,21.616001500456946 c 54.73954686486784,-0.0 97.01039368161567,11.020000000000001 80.70039368161567,-16.515336761260926&#10;c -13.979999999999999,-28.052685099193173 0,-53.62643788371989 35.799606318384335,-53.62643788371989&#10;c 36.763417065865866,0 50.74341706586586,31.798524374657475 36.763417065865866,43.07833472545639&#10;c -13.979999999999999,28.652 48.93,17.632 79.73658293413413,27.06343991952442 c 43.97408398427676,0.0 114.01992332905786,-11.020000000000001 97.70992332905786,27.920580346787464&#10;c -13.979999999999999,18.47809836075306 0,34.91339807458486 18.790076670942142,34.91339807458486&#10;c 27.526293915934332,0 41.50629391593433,-9.0460268138775 27.526293915934332,-27.021870636692938&#10;c -13.979999999999999,-28.652 48.93,-17.632 88.97370608406567,-35.812107784679384 c 33.726750415609345,0.0 112.94858581370968,-11.020000000000001 96.63858581370968,40.79478948785199&#10;c -13.979999999999999,12.082329303987795 0,18.229976311131956 19.861414186290318,18.229976311131956&#10;c 32.433199802494414,0 46.41319980249441,-28.155312782866773 32.433199802494414,-58.42722278157214&#10;c -13.979999999999999,-28.652 48.93,-17.632 84.06680019750559,-0.5975430174118088 c 11.927669119794835,-0.0 96.422956534748,11.020000000000001 80.112956534748,-32.42630241649926&#10;c -13.979999999999999,-12.283266445231185 0,-31.778010802556615 36.387043465252006,-31.778010802556615&#10;c 27.87628543642839,0 41.85628543642839,13.31248488981832 27.87628543642839,20.555410367572193&#10;c -13.979999999999999,28.652 48.93,17.632 88.62371456357161,43.64890285148368 L 1631 0 " fill="none" stroke="black" stroke-width="0.1" style="vector-effect:non-scaling-stroke;" /></g><g><path d="M 0 0  L 0 661.200000  c 24.681922938036998,0.0 103.84829705404121,-11.020000000000001 87.53829705404121,12.059089287884591&#10;c -13.979999999999999,19.678518824392054 0,45.52224226051117 28.96170294595879,45.52224226051117&#10;c 27.27455309794024,0 41.25455309794024,-15.288835247782671 27.27455309794024,-32.477155747284996&#10;c -13.979999999999999,-28.652 48.93,-17.632 89.22544690205976,-25.104175801110763 c 55.1649419811676,-0.0 96.87363014189346,11.020000000000001 80.56363014189346,-6.025702631749671&#10;c -13.979999999999999,-22.288532151624043 0,-64.52140403562596 35.936369858106545,-64.52140403562596&#10;c 29.57899107599613,0 43.558991075996126,13.669734687221924 29.57899107599613,33.32728877835931&#10;c -13.979999999999999,28.652 48.93,17.632 86.92100892400387,37.21981788901632 c 35.609460594010024,0.0 114.69708753401903,-11.020000000000001 98.38708753401903,36.40049719343554&#10;c -13.979999999999999,21.184492499352498 0,23.04696036496783 18.11291246598097,23.04696036496783&#10;c 20.821849122998742,0 34.80184912299874,-21.88080016135498 20.821849122998742,-41.969333147247745&#10;c -13.979999999999999,-28.652 48.93,-17.632 95.67815087700126,-17.478124411155626 c 27.60693378760132,-0.0 108.67942201121203,11.020000000000001 92.36942201121202,-29.95876839590626&#10;c -13.979999999999999,-39.07006530715186 0,-42.28787190360282 24.130577988787977,-42.28787190360282&#10;c 27.436596167338394,0 41.41659616733839,33.37853606560046 27.436596167338394,39.056712476202925&#10;c -13.979999999999999,28.652 48.93,17.632 89.0634038326616,33.18992782330616 c 50.43221508417683,0.0 115.90577052422172,-11.020000000000001 99.59577052422172,23.925564466644108&#10;c -13.979999999999999,18.997735897924265 0,40.769980170798846 16.90422947577828,40.769980170798846&#10;c 21.8016315871445,0 35.781631587144496,-7.053987453191708 21.8016315871445,-19.2815869532171&#10;c -13.979999999999999,-28.652 48.93,-17.632 94.6983684128555,-45.41395768422585 c 42.12832225712261,-0.0 105.95814978558668,11.020000000000001 89.64814978558668,-6.57754747643515&#10;c -13.979999999999999,-19.43079994473262 0,-51.76107989894594 26.851850214413318,-51.76107989894594&#10;c 29.007016218957574,0 42.98701621895757,3.9447810763936015 29.007016218957574,15.400604212438004&#10;c -13.979999999999999,28.652 48.93,17.632 87.49298378104243,42.93802316294308 c 19.74402803998905,0.0 97.1829587722055,-11.020000000000001 80.8729587722055,8.477071083078929&#10;c -13.979999999999999,43.305584506512076 0,60.50112747320979 35.62704122779451,60.50112747320979&#10;c 21.89054587418113,0 35.870545874181126,-14.82567356183129 21.89054587418113,-24.61916230731231&#10;c -13.979999999999999,-28.652 48.93,-17.632 94.60945412581887,-44.35903624897641 L 1631 0 " fill="none" stroke="black" stroke-width="0.1" style="vector-effect:non-scaling-stroke;" /></g><g><path d="M 0 0  L 0 881.600000  c 19.582523818869777,0.0 112.77868882879109,-11.020000000000001 96.46868882879109,4.581837980323798&#10;c -13.979999999999999,23.12350065242046 0,63.816445599036115 20.031311171208912,63.816445599036115&#10;c 25.295776266529117,0 39.275776266529114,-9.45759897059815 25.295776266529117,-39.29856778940225&#10;c -13.979999999999999,-28.652 48.93,-17.632 91.20422373347088,-29.099715789957664 c 47.825035245168614,-0.0 102.74249206872952,11.020000000000001 86.43249206872952,-43.29707538397274&#10;c -13.979999999999999,-9.026930359973827 0,-11.611001829886042 30.067507931270484,-11.611001829886042&#10;c 33.80002148493412,0 47.78002148493412,27.73699333324783 33.80002148493412,33.11941150028951&#10;c -13.979999999999999,28.652 48.93,17.632 82.69997851506588,21.788665713569273 c 50.88187460608096,0.0 107.96690634954948,-11.020000000000001 91.65690634954947,9.0105201846773&#10;c -13.979999999999999,45.631774939337724 0,49.824095599588006 24.843093650450527,49.824095599588006&#10;c 33.89592019683673,0 47.875920196836724,-12.49536546357961 33.89592019683673,-27.206756378434036&#10;c -13.979999999999999,-28.652 48.93,-17.632 82.60407980316327,-31.627859405831273 c 48.19947801647356,0.0 111.88637119477822,-11.020000000000001 95.57637119477822,47.38284089287583&#10;c -13.979999999999999,17.926573622783167 0,21.67384599893277 20.92362880522178,21.67384599893277&#10;c 24.924788971899176,0 38.90478897189917,-43.02400024188149 24.924788971899176,-61.74359700428295&#10;c -13.979999999999999,-28.652 48.93,-17.632 91.57521102810082,-7.313089887525649 c 60.78274578462126,-0.0 105.18694725733978,11.020000000000001 88.87694725733978,-10.597741689530016&#10;c -13.979999999999999,-45.194923001446575 0,-52.15709664627174 27.62305274266022,-52.15709664627174&#10;c 29.893220999130307,0 43.873220999130304,9.913508280295083 29.893220999130307,15.571882946465564&#10;c -13.979999999999999,28.652 48.93,17.632 86.6067790008697,47.18295538933619 c 64.58337646438972,-0.0 104.38686224276226,11.020000000000001 88.07686224276226,-39.431356004739754&#10;c -13.979999999999999,-16.246116468121365 0,-21.37994065834497 28.42313775723774,-21.37994065834497&#10;c 22.56741356454029,0 36.547413564540285,14.31370575930973 22.56741356454029,49.16228778704624&#10;c -13.979999999999999,28.652 48.93,17.632 93.93258643545971,11.649008876038486 c 63.663909519910696,-0.0 103.6169879012556,11.020000000000001 87.3069879012556,-29.65798230534125&#10;c -13.979999999999999,-15.192329326774049 0,-44.105453068357676 29.193012098744404,-44.105453068357676&#10;c 17.381278742649556,0 31.361278742649553,18.288056824912154 17.381278742649556,45.04836851540265&#10;c -13.979999999999999,28.652 48.93,17.632 99.11872125735044,28.715066858296275 L 1631 0 " fill="none" stroke="black" stroke-width="0.1" style="vector-effect:non-scaling-stroke;" /></g></g></svg>