<svg baseProfile="full" height="2790" preserveAspectRatio="none" shape-rendering="geometricPrecision" version="1.1" viewBox="0,0,4179,2790" width="4179" xmlns="http://www.w3.org/2000/svg" xmlns:ev="http://www.w3.org/2001/xml-events" xmlns:xlink="http://www.w3.org/1999/xlink"><title>Jigsaw puzzle piece clips</title><desc>Created with the piecemaker. Piece count: 35</desc><defs /><g><g><rect fill="white" height="2790" width="4179" x="0" y="0" /></g></g><g><g><path d="M 0 0  L 597.000000 0  c -0.0,48.42309129198841 29.85,266.28316946490895 -74.26935575455131,227.22316946490892&#10;c -115.87345957510682,-33.48 -122.81695188278617,0 -122.81695188278617,51.77683053509108&#10;c 0,61.74874699134756 48.90356169235007,95.22874699134755 100.35759652458385,61.74874699134756&#10;c 77.61,-33.48 47.76,117.17999999999999 96.72871111275363,217.25125300865244 c -0.0,109.95527632568455 29.85,264.21524592791513 -26.513783266001063,225.15524592791516&#10;c -80.74801358646579,-33.48 -117.02938226993467,0 -117.02938226993467,53.84475407208484&#10;c 0,56.58742304588054 90.50558278429368,90.06742304588053 133.05685367850577,56.58742304588054&#10;c 77.61,-33.48 47.76,117.17999999999999 10.486311857429968,222.41257695411946 c -0.0,69.19775955355591 29.85,240.8650514037997 -13.545271838589061,201.8050514037997&#10;c -107.25204125172715,-33.48 -143.2624475702742,0 -143.2624475702742,77.1949485962003&#10;c 0,87.7064631336761 52.589331656210184,121.18646313367609 102.62418576975564,87.7064631336761&#10;c 77.61,-33.48 47.76,117.17999999999999 54.18353363910761,191.2935368663239 c -0.0,126.42073057794556 29.85,228.9485724005025 -78.78433796181493,189.8885724005025&#10;c -64.46272104032984,-33.48 -84.69826416312297,0 -84.69826416312297,89.11142759949749&#10;c 0,40.653134067550695 78.24961265491596,74.13313406755069 142.81385972809352,40.653134067550695&#10;c 77.61,-33.48 47.76,117.17999999999999 20.66874239684438,238.3468659324493 c 0.0,75.95468225057733 -29.85,242.71041386067586 50.40550526863098,203.65041386067585&#10;c 78.45664270741196,-33.48 140.25295036186844,0 140.25295036186844,75.34958613932415&#10;c 0,54.71866470572297 -59.237109848635995,88.19866470572296 -90.58517261838358,54.71866470572297&#10;c -77.61,-33.48 -47.76,117.17999999999999 -100.07328301211584,224.28133529427703 L 0 2790 " fill="none" stroke="black" stroke-width="0.1" style="vector-effect:non-scaling-stroke;" /></g><g><path d="M 0 0  L 1194.000000 0  c 0.0,57.75588182888458 -29.85,239.75918645194483 87.89426836190793,200.69918645194483&#10;c 40.33212061344346,-33.48 69.73446453592092,0 69.73446453592092,78.30081354805517&#10;c 0,58.53739188148728 -19.998449630089638,92.01739188148727 -38.465110145363965,58.53739188148728&#10;c -77.61,-33.48 -47.76,117.17999999999999 -119.16362275246489,220.46260811851272 c -0.0,97.66189037931959 29.85,259.6490679455551 -56.37806156681529,220.58906794555512&#10;c -129.0333023788951,-33.48 -138.0488504343756,0 -138.0488504343756,58.410932054444885&#10;c 0,83.47955607000614 49.05510413051046,116.95955607000613 81.34497849787869,83.47955607000614&#10;c 77.61,-33.48 47.76,117.17999999999999 113.0819335033122,195.52044392999386 c 0.0,94.51624787756283 -29.85,257.57331639969703 131.05370143119197,218.51331639969703&#10;c 18.502984496999776,-33.48 19.110265225092604,0 19.110265225092604,60.48668360030297&#10;c 0,56.92579061715162 -44.78647302114655,90.40579061715161 -144.27177035792354,56.92579061715162&#10;c -77.61,-33.48 -47.76,117.17999999999999 -5.8921962983610285,222.07420938284838 c -0.0,130.97343936541355 29.85,238.71858626317942 -53.94747212535321,199.65858626317942&#10;c -74.95818525857564,-33.48 -118.38601544846381,0 -118.38601544846381,79.34141373682058&#10;c 0,77.83713774394289 28.13727609591417,111.31713774394288 59.363711123212425,77.83713774394289&#10;c 77.61,-33.48 47.76,117.17999999999999 112.9697764506046,201.1628622560571 c -0.0,143.1106150094602 29.85,243.8903732835435 -4.510639494909019,204.8303732835435&#10;c -61.27989293166724,-33.48 -186.86648913885233,0 -186.86648913885233,74.16962671645649&#10;c 0,67.1983410746671 53.70660080873716,100.67834107466709 109.10809218025355,67.1983410746671&#10;c 77.61,-33.48 47.76,117.17999999999999 82.2690364535078,211.8016589253329 L 0 2790 " fill="none" stroke="black" stroke-width="0.1" style="vector-effect:non-scaling-stroke;" /></g><g><path d="M 0 0  L 1791.000000 0  c 0.0,126.14804702577155 -29.85,253.22891712711004 128.56519781533123,214.16891712711003&#10;c 38.74527012260111,-33.48 47.280595811683355,0 47.280595811683355,64.83108287288997&#10;c 0,65.7228725386779 -54.83399752474355,99.2028725386779 -154.46420221628912,65.7228725386779&#10;c -77.61,-33.48 -47.76,117.17999999999999 -21.381591410725463,213.2771274613221 c 0.0,106.49974949930424 -29.85,266.7800023333115 -2.7234900861973443,227.72000233331144&#10;c 56.32684300159651,-33.48 154.55391576188055,0 154.55391576188055,51.27999766668856&#10;c 0,66.37026882852979 -13.582314852853639,99.85026882852978 -27.64638533540088,66.37026882852979&#10;c -77.61,-33.48 -47.76,117.17999999999999 -124.18404034028234,212.6297311714702 c -0.0,76.18427876561897 29.85,252.5509925958949 -97.63362268237341,213.4909925958949&#10;c -22.866077331383366,-33.48 -62.72734192299447,0 -62.72734192299447,65.50900740410509&#10;c 0,43.66819233536182 28.20108720737666,77.14819233536181 80.87388122028688,43.66819233536182&#10;c 77.61,-33.48 47.76,117.17999999999999 79.48708338508101,235.33180766463818 c 0.0,141.70675378741313 -29.85,264.9297619608664 67.81815271751579,225.8697619608664&#10;c 59.176018908533166,-33.48 121.03955822925077,0 121.03955822925077,53.13023803913359&#10;c 0,70.40974368298629 -59.43844853270908,103.88974368298628 -145.80629523718662,70.40974368298629&#10;c -77.61,-33.48 -47.76,117.17999999999999 -43.05141570957994,208.5902563170137 c -0.0,42.090429949135455 29.85,267.8271061716257 -38.5937865628546,228.76710617162573&#10;c -53.976208423509526,-33.48 -110.90902288385115,0 -110.90902288385115,50.23289382837427&#10;c 0,67.78725594550582 44.69223174069212,101.26725594550581 131.10314279004777,67.78725594550582&#10;c 77.61,-33.48 47.76,117.17999999999999 18.399666656657985,211.21274405449418 L 0 2790 " fill="none" stroke="black" stroke-width="0.1" style="vector-effect:non-scaling-stroke;" /></g><g><path d="M 0 0  L 2388.000000 0  c -0.0,74.66110579218562 29.85,268.09535358603375 -17.926045209853484,229.03535358603375&#10;c -96.39224409733325,-33.48 -183.38351707165225,0 -183.38351707165225,49.96464641396625&#10;c 0,69.6992805847496 98.63767211283117,103.17928058474959 167.52540216309166,69.6992805847496&#10;c 77.61,-33.48 47.76,117.17999999999999 33.78416011841409,209.3007194152504 c -0.0,86.06910863914786 29.85,245.9472272892888 -49.216050722527854,206.8872272892888&#10;c -136.69705109340708,-33.48 -142.40867499627447,0 -142.40867499627447,72.1127727107112&#10;c 0,42.706000675438645 75.01192901206907,76.18600067543863 115.04684270379053,42.706000675438645&#10;c 77.61,-33.48 47.76,117.17999999999999 76.57788301501179,236.29399932456136 c 0.0,158.34710780637175 -29.85,278.9491368050759 20.109984266575182,239.88913680507594&#10;c 128.69224568459188,-33.48 161.9685367887064,0 161.9685367887064,39.110863194924065&#10;c 0,84.89002520252365 -116.42074550236397,118.37002520252364 -122.8958295822391,84.89002520252365&#10;c -77.61,-33.48 -47.76,117.17999999999999 -59.18269147304245,194.10997479747635 c -0.0,64.67930943975684 29.85,240.5671638124869 -64.65161472664906,201.5071638124869&#10;c -104.53159749924629,-33.48 -132.1734414353236,0 -132.1734414353236,77.49283618751309&#10;c 0,89.04236287440648 75.15812936885332,122.52236287440647 90.00914515400723,89.04236287440648&#10;c 77.61,-33.48 47.76,117.17999999999999 106.81591100796544,189.95763712559352 c -0.0,85.96100098715296 29.85,241.28137564972516 -42.26040063193905,202.22137564972516&#10;c -52.43312112914469,-33.48 -120.63374106498132,0 -120.63374106498132,76.77862435027484&#10;c 0,48.80308961630709 53.92508348019504,82.28308961630708 87.4176387965478,48.80308961630709&#10;c 77.61,-33.48 47.76,117.17999999999999 75.47650290037257,230.1969103836929 L 0 2790 " fill="none" stroke="black" stroke-width="0.1" style="vector-effect:non-scaling-stroke;" /></g><g><path d="M 0 0  L 2985.000000 0  c -0.0,88.62494833995783 29.85,244.03602134173545 -31.05615301770929,204.97602134173545&#10;c -89.0864881293796,-33.48 -141.70640257170035,0 -141.70640257170035,74.02397865826455&#10;c 0,77.02563720925377 35.44121568507305,110.50563720925376 113.36474935880034,77.02563720925377&#10;c 77.61,-33.48 47.76,117.17999999999999 59.39780623060929,201.97436279074623 c -0.0,157.01874903236435 29.85,240.08387934580963 -126.80929038469334,201.02387934580963&#10;c -28.045952924422412,-33.48 -47.876698161438426,0 -47.876698161438426,77.97612065419037&#10;c 0,72.09735645404174 65.08617176965916,105.57735645404173 130.4217046836745,72.09735645404174&#10;c 77.61,-33.48 47.76,117.17999999999999 44.26428386245726,206.90264354595826 c 0.0,59.6860669535839 -29.85,236.09525602852605 38.60063469551001,197.03525602852605&#10;c 37.736658568523225,-33.48 107.75382848069374,0 107.75382848069374,81.96474397147395&#10;c 0,83.25742981033494 -5.396922220756788,116.73742981033493 -19.176567044386616,83.25742981033494&#10;c -77.61,-33.48 -47.76,117.17999999999999 -127.17789613181714,195.74257018966506 c -0.0,140.89498564000507 29.85,244.1406936704989 -69.7659466517349,205.0806936704989&#10;c -41.9240009820639,-33.48 -85.1905895984754,0 -85.1905895984754,73.9193063295011&#10;c 0,82.69802949330773 99.84606082298698,116.17802949330772 117.46859465180071,82.69802949330773&#10;c 77.61,-33.48 47.76,117.17999999999999 37.48794159840958,196.30197050669227 c 0.0,99.70628339332777 -29.85,260.7486648704023 71.2693671659806,221.68866487040233&#10;c 36.20020984378845,-33.48 87.64332457198601,0 87.64332457198601,57.311335129597666&#10;c 0,47.91504061310155 -61.093809827235205,81.39504061310154 -90.32236127664004,47.91504061310155&#10;c -77.61,-33.48 -47.76,117.17999999999999 -68.59033046132657,231.08495938689845 L 0 2790 " fill="none" stroke="black" stroke-width="0.1" style="vector-effect:non-scaling-stroke;" /></g><g><path d="M 0 0  L 3582.000000 0  c 0.0,66.51861687681124 -29.85,276.7845942800037 84.09778072870945,237.7245942800037&#10;c 84.65255114519294,-33.48 95.9626622357976,0 95.9626622357976,41.275405719996286&#10;c 0,73.65984592817347 -110.13837600184985,107.13984592817346 -151.8739474073353,73.65984592817347&#10;c -77.61,-33.48 -47.76,117.17999999999999 -28.186495557171753,205.34015407182653 c 0.0,105.04830777301554 -29.85,239.51411227642484 2.069243484859751,200.45411227642484&#10;c 136.34979772481077,-33.48 199.49801142415743,0 199.49801142415743,78.54588772357516&#10;c 0,48.50283569892247 -113.23356803601544,81.98283569892246 -202.2946329432338,48.50283569892247&#10;c -77.61,-33.48 -47.76,117.17999999999999 0.7273780342166276,230.49716430107753 c -0.0,150.77572096791576 29.85,277.5561863357733 -10.046079225430212,238.49618633577333&#10;c -46.16104795678178,-33.48 -155.25978458239123,0 -155.25978458239123,40.50381366422667&#10;c 0,51.1468637170417 128.20002882774352,84.62686371704169 160.22261524295294,51.1468637170417&#10;c 77.61,-33.48 47.76,117.17999999999999 5.083248564868512,227.8531362829583 c -0.0,94.85368830018638 29.85,259.1232617533043 -27.248936702446052,220.06326175330426&#10;c -68.84854918725976,-33.48 -134.6984178338989,0 -134.6984178338989,58.93673824669574&#10;c 0,76.98196486274827 32.025381608282714,110.46196486274826 76.85299751201669,76.98196486274827&#10;c 77.61,-33.48 47.76,117.17999999999999 85.09435702432827,202.01803513725173 c 0.0,71.81237523433262 -29.85,247.9665920821448 112.8776937816292,208.9065920821448&#10;c 25.55153068360209,-33.48 61.93674216812016,0 61.93674216812016,70.09340791785519&#10;c 0,69.3595806500702 -38.49784680574239,102.83958065007019 -63.869982160811716,69.3595806500702&#10;c -77.61,-33.48 -47.76,117.17999999999999 -110.94445378893765,209.6404193499298 L 0 2790 " fill="none" stroke="black" stroke-width="0.1" style="vector-effect:non-scaling-stroke;" /></g></g><g><g><path d="M 0 0  L 0 558.000000  c 47.16957273749453,0.0 246.9819061827517,-27.900000000000002 205.19190618275167,40.465149341111704&#10;c -35.82,31.553519340018163 0,96.00771718244641 93.30809381724833,96.00771718244641&#10;c 90.25178487900496,0 126.07178487900495,-29.094295996250825 90.25178487900496,-80.72984727669657&#10;c -35.82,-72.54 125.36999999999999,-44.64 208.24821512099504,-55.743019246861536 c 48.25086200180495,0.0 294.45719511270335,-27.900000000000002 252.66719511270333,10.492563698009233&#10;c -35.82,138.38468623847857 0,175.22857482605502 45.832804887296675,175.22857482605502&#10;c 94.63126370595944,0 130.45126370595943,-106.37447066176247 94.63126370595944,-137.91803231675044&#10;c -35.82,-72.54 125.36999999999999,-44.64 203.86873629404056,-47.80310620731382 c 108.87263324783892,0.0 267.5197358427477,-27.900000000000002 225.7297358427477,97.85376479934456&#10;c -35.82,16.752478808437974 0,37.19310864002071 72.77026415725231,37.19310864002071&#10;c 56.94989857778313,0 92.76989857778312,-6.860348679459984 56.94989857778313,-25.153184072940263&#10;c -35.82,-72.54 125.36999999999999,-44.64 241.55010142221687,-109.89368936642501 c 163.7038120250584,-0.0 276.15016467420224,27.900000000000002 234.36016467420225,-74.54947798925438&#10;c -35.82,-35.750096585676815 0,-61.37426422440113 64.13983532579775,-61.37426422440113&#10;c 87.96634301027427,0 123.78634301027427,69.6353649010919 87.96634301027427,121.24927744059175&#10;c -35.82,72.54 125.36999999999999,44.64 210.53365698972573,14.674464773063761 c 124.930835906502,-0.0 279.2627268695184,27.900000000000002 237.47272686951843,-10.822741642234115&#10;c -35.82,-68.26091181020827 0,-171.2115043178022 61.027273130481575,-171.2115043178022&#10;c 50.77719905069978,0 86.59719905069977,31.551394911539106 50.77719905069978,76.99015565757895&#10;c -35.82,72.54 125.36999999999999,44.64 247.72280094930022,105.04409030245736 c 164.94793311897192,-0.0 256.70309856591547,27.900000000000002 214.91309856591545,-19.682283589670362&#10;c -35.82,-109.9556005975987 0,-131.8457800507659 83.58690143408455,-131.8457800507659&#10;c 70.60953730585373,0 106.42953730585373,13.404604275018922 70.60953730585373,62.77144529877987&#10;c -35.82,72.54 125.36999999999999,44.64 227.89046269414627,88.7566183416564 c 80.32990387268313,-0.0 273.04311467759163,27.900000000000002 231.25311467759164,10.258416852547674&#10;c -35.82,-75.62508346297929 0,-178.1761964857618 67.24688532240836,-178.1761964857618&#10;c 45.852427837309165,0 81.67242783730916,117.04255671216691 45.852427837309165,172.89997435313046&#10;c -35.82,72.54 125.36999999999999,44.64 252.64757216269084,-4.982194719916322 L 4179 0 " fill="none" stroke="black" stroke-width="0.1" style="vector-effect:non-scaling-stroke;" /></g><g><path d="M 0 0  L 0 1116.000000  c 87.90436534501373,0.0 269.7172161529446,-27.900000000000002 227.92721615294462,25.561210268259703&#10;c -35.82,72.68245260505716 0,133.85948826133767 70.57278384705538,133.85948826133767&#10;c 70.92799714046544,0 106.74799714046543,-68.11376124407222 70.92799714046544,-125.84444679524279&#10;c -35.82,-72.54 125.36999999999999,-44.64 227.57200285953456,-33.5762517343546 c 36.754622119194465,0.0 272.725317749695,-27.900000000000002 230.93531774969503,45.07215735751306&#10;c -35.82,95.9946279021005 0,108.29641915392328 67.56468225030497,108.29641915392328&#10;c 47.176948204428356,0 82.99694820442835,-57.14433247153549 47.176948204428356,-57.362101782178016&#10;c -35.82,-72.54 125.36999999999999,-44.64 251.32305179557164,-96.00647472925833 c 75.79962115177078,0.0 258.9084810165038,-27.900000000000002 217.1184810165038,57.758142743941036&#10;c -35.82,76.79109879819059 0,93.89155742739574 81.38151898349619,93.89155742739574&#10;c 89.73683442385357,0 125.55683442385356,-46.23588202832568 89.73683442385357,-157.62608336061706&#10;c -35.82,-72.54 125.36999999999999,-44.64 208.76316557614643,5.976383189280284 c 154.37314532512318,0.0 296.04729383949876,-27.900000000000002 254.25729383949877,39.393435888248675&#10;c -35.82,81.64247867622733 0,119.473957314576 44.24270616050123,119.473957314576&#10;c 46.587551219532656,0 82.40755121953265,-81.70966772294558 46.587551219532656,-96.86906905165787&#10;c -35.82,-72.54 125.36999999999999,-44.64 251.91244878046734,-61.9983241511668 c 132.36277038440818,0.0 267.8867496401906,-27.900000000000002 226.0967496401906,83.38430308157183&#10;c -35.82,66.14000821002202 0,85.39593698087822 72.40325035980939,85.39593698087822&#10;c 76.64761415039084,0 112.46761415039083,-130.0600685985947 76.64761415039084,-156.20599343291465&#10;c -35.82,-72.54 125.36999999999999,-44.64 221.85238584960916,-12.574246629535395 c 140.3366996723458,-0.0 250.13591378221008,27.900000000000002 208.3459137822101,-118.06974172408314&#10;c -35.82,-13.43413594195726 0,-58.71546151838652 90.15408621778991,-58.71546151838652&#10;c 52.727119497695696,0 88.54711949769569,45.40761296297388 52.727119497695696,112.77655072122663&#10;c -35.82,72.54 125.36999999999999,44.64 245.7728805023043,64.00865252124304 c 137.80619861920994,-0.0 290.50269686396103,27.900000000000002 248.712696863961,-118.33153198500493&#10;c -35.82,-35.42238400549643 0,-49.07227904157047 49.787303136038986,-49.07227904157047&#10;c 94.00312336319155,0 129.82312336319154,46.5708181150993 94.00312336319155,78.49071334468077&#10;c -35.82,72.54 125.36999999999999,44.64 204.49687663680845,88.91309768189463 L 4179 0 " fill="none" stroke="black" stroke-width="0.1" style="vector-effect:non-scaling-stroke;" /></g><g><path d="M 0 0  L 0 1674.000000  c 144.69500003804194,0.0 291.6088274045957,-27.900000000000002 249.81882740459568,26.8211246057998&#10;c -35.82,36.606031014727186 0,156.6019948410076 48.68117259540432,156.6019948410076&#10;c 92.19793950026195,0 128.01793950026195,-53.063004150060166 92.19793950026195,-114.23255347707071&#10;c -35.82,-72.54 125.36999999999999,-44.64 206.30206049973805,-69.19056596973671 c 67.18525005630326,0.0 287.2863278474736,-27.900000000000002 245.49632784747362,3.038867483392515&#10;c -35.82,55.32116391210171 0,141.19966118954244 53.00367215252638,141.19966118954244&#10;c 72.30504727992076,0 108.12504727992075,-71.28088328106718 72.30504727992076,-72.8626176807998&#10;c -35.82,-72.54 125.36999999999999,-44.64 226.19495272007924,-71.37591099213516 c 134.85821735578077,0.0 295.26260320180836,-27.900000000000002 253.47260320180834,106.33013784401363&#10;c -35.82,12.862120175077095 0,43.909478121616516 45.02739679819166,43.909478121616516&#10;c 81.98064215808444,0 117.80064215808443,-59.912433138673826 81.98064215808444,-128.33281872974104&#10;c -35.82,-72.54 125.36999999999999,-44.64 216.51935784191556,-21.906797235889115 c 127.81591142335434,0.0 248.8360813589013,-27.900000000000002 207.04608135890132,26.535690802223094&#10;c -35.82,116.83826596673997 0,161.714861518756 91.45391864109868,161.714861518756&#10;c 61.79165072770883,0 97.61165072770882,-30.29418458949802 61.79165072770883,-71.03438110827925&#10;c -35.82,-72.54 125.36999999999999,-44.64 236.70834927229117,-117.21617121269985 c 162.1464844469924,-0.0 268.75825755583713,27.900000000000002 226.96825755583714,-31.089603567402374&#10;c -35.82,-58.52511366270709 0,-125.95829945605854 71.53174244416286,-125.95829945605854&#10;c 56.34857450788479,0 92.16857450788478,91.94113135059953 56.34857450788479,104.16029932188124&#10;c -35.82,72.54 125.36999999999999,44.64 242.1514254921152,52.88760370157968 c 72.60137813130021,0.0 261.1739901616477,-27.900000000000002 219.3839901616477,41.80587184189595&#10;c -35.82,89.97898455339325 0,105.91201863970339 79.11600983835231,105.91201863970339&#10;c 77.52299194838298,0 113.34299194838297,-69.82555786432769 77.52299194838298,-71.83841813188045&#10;c -35.82,-72.54 125.36999999999999,-44.64 220.97700805161702,-75.8794723497189 c 74.98383419537647,-0.0 278.22403131371203,27.900000000000002 236.43403131371204,-2.3049065908023105&#10;c -35.82,-51.94683316203366 0,-163.39848130456315 62.06596868628796,-163.39848130456315&#10;c 65.64151600167855,0 101.46151600167855,10.585806114961267 65.64151600167855,47.96836073489453&#10;c -35.82,72.54 125.36999999999999,44.64 232.85848399832145,117.73502716047093 L 4179 0 " fill="none" stroke="black" stroke-width="0.1" style="vector-effect:non-scaling-stroke;" /></g><g><path d="M 0 0  L 0 2232.000000  c 78.90122497845518,0.0 291.44847809414705,-27.900000000000002 249.65847809414706,22.293195244294786&#10;c -35.82,91.77620205512905 0,137.193033535151 48.84152190585294,137.193033535151&#10;c 94.90634403615451,0 130.7263440361545,-59.50415696441097 94.90634403615451,-131.47291580927106&#10;c -35.82,-72.54 125.36999999999999,-44.64 203.5936559638455,-28.013312970174724 c 172.79579958180116,0.0 276.00617055257266,-27.900000000000002 234.21617055257266,51.73038783417853&#10;c -35.82,59.87183123317744 0,118.74330532113653 64.28382944742734,118.74330532113653&#10;c 47.518276177967095,0 83.33827617796709,-95.31022737254237 47.518276177967095,-127.35253565109355&#10;c -35.82,-72.54 125.36999999999999,-44.64 250.9817238220329,-43.121157504221515 c 49.9825806599286,0.0 275.2921926881271,-27.900000000000002 233.50219268812708,59.22439812139573&#10;c -35.82,28.877608544239525 0,78.02088839390424 64.99780731187292,78.02088839390424&#10;c 74.92860164589013,0 110.74860164589012,-126.95548851246517 74.92860164589013,-141.59650612379582&#10;c -35.82,-72.54 125.36999999999999,-44.64 223.57139835410987,4.351219608495853 c 33.156505951416854,-0.0 271.0287524532306,27.900000000000002 229.23875245323057,-17.537762743004365&#10;c -35.82,-88.31855183032731 0,-149.6358028616511 69.26124754676943,-149.6358028616511&#10;c 67.30967390645009,0 103.12967390645008,53.30067995401536 67.30967390645009,87.56116601821576&#10;c -35.82,72.54 125.36999999999999,44.64 231.1903260935499,79.61239958643968 c 43.84664403534159,-0.0 272.51012048699675,27.900000000000002 230.72012048699676,-122.5367190850178&#10;c -35.82,-28.891090130106566 0,-55.71946617872065 67.77987951300324,-55.71946617872065&#10;c 90.9169580034532,0 126.7369580034532,65.45831896563327 90.9169580034532,152.6239655582884&#10;c -35.82,72.54 125.36999999999999,44.64 207.5830419965468,25.63221970545004 c 91.25235488574144,0.0 271.60733137584054,-27.900000000000002 229.81733137584052,-11.043648590774465&#10;c -35.82,43.22601538158701 0,170.4166934837648 68.68266862415948,170.4166934837648&#10;c 82.74678178791055,0 118.56678178791054,-27.016525671638977 82.74678178791055,-36.617149964246465&#10;c -35.82,-72.54 125.36999999999999,-44.64 215.75321821208945,-122.75589492874386 c 61.52496574090504,0.0 281.442333992138,-27.900000000000002 239.652333992138,15.957068638017558&#10;c -35.82,91.51577237958 0,159.1064729987027 58.84766600786199,159.1064729987027&#10;c 64.97559854609125,0 100.79559854609124,-45.681864427740614 64.97559854609125,-160.11609951172403&#10;c -35.82,-72.54 125.36999999999999,-44.64 233.52440145390875,-14.947442124996229 L 4179 0 " fill="none" stroke="black" stroke-width="0.1" style="vector-effect:non-scaling-stroke;" /></g></g></svg>