<svg baseProfile="full" height="1803" preserveAspectRatio="none" shape-rendering="geometricPrecision" version="1.1" viewBox="0,0,4855,1803" width="4855" xmlns="http://www.w3.org/2000/svg" xmlns:ev="http://www.w3.org/2001/xml-events" xmlns:xlink="http://www.w3.org/1999/xlink"><title>Jigsaw puzzle piece clips</title><desc>Created with the piecemaker. Piece count: 44</desc><defs /><g><g><rect fill="white" height="1803" width="4855" x="0" y="0" /></g></g><g><g><path d="M 0 0  L 441.363636 0  c 0.0,70.22434036718842 -22.06818181818182,211.31367534891206 56.373724584212574,179.76117534891205&#10;c 74.02402478503126,-27.044999999999998 81.2984948908742,0 81.2984948908742,45.61382465108795&#10;c 0,56.521728353213234 -70.15338290137873,83.56672835321324 -100.47589105691978,56.521728353213234&#10;c -57.37727272727273,-27.044999999999998 -35.30909090909091,94.6575 -37.196328418166985,168.85327164678677 c 0.0,89.50171154184123 -22.06818181818182,206.74363168305302 64.00192361341324,175.19113168305302&#10;c 48.590261650504786,-27.044999999999998 64.23523125886943,0 64.23523125886943,50.183868316946985&#10;c 0,71.81483512936535 -13.83830787242594,98.85983512936535 -55.320850597785295,71.81483512936535&#10;c -57.37727272727273,-27.044999999999998 -35.30909090909091,94.6575 -72.91630427449738,153.56016487063465 c 0.0,75.28992156389297 -22.06818181818182,205.69228812370937 10.785629592101719,174.13978812370937&#10;c 105.3434308383793,-27.044999999999998 125.53159849822268,0 125.53159849822268,51.235211876290634&#10;c 0,63.73819062010733 -90.63136951145604,90.78319062010733 -91.79572210533998,63.73819062010733&#10;c -57.37727272727273,-27.044999999999998 -35.30909090909091,94.6575 -44.521505984984415,161.63680937989267 c 0.0,81.93804428253767 -22.06818181818182,209.25485490903083 38.02492340260047,177.70235490903082&#10;c 30.787248493455074,-27.044999999999998 76.80825083246066,0 76.80825083246066,47.67264509096918&#10;c 0,44.414274241187 -50.24098784587866,71.459274241187 -106.19691948218846,44.414274241187&#10;c -57.37727272727273,-27.044999999999998 -35.30909090909091,94.6575 -8.636254752872674,180.960725758813 L 0 1803 " fill="none" stroke="black" stroke-width="0.1" style="vector-effect:non-scaling-stroke;" /></g><g><path d="M 0 0  L 882.727273 0  c 0.0,41.25605877725304 -22.06818181818182,219.88184384340468 -7.008323679663104,188.32934384340467&#10;c 103.01448090627964,-27.044999999999998 129.1522265836834,0 129.1522265836834,37.04565615659533&#10;c 0,43.67578485992624 -19.4912064799903,70.72078485992624 -54.98626659829341,43.67578485992624&#10;c -57.37727272727273,-27.044999999999998 -35.30909090909091,94.6575 -67.15763630572687,181.69921514007376 c -0.0,89.9107157606642 22.06818181818182,217.32888608769363 -50.82635834112613,185.77638608769362&#10;c -56.81256463216632,-27.044999999999998 -83.28591830280138,0 -83.28591830280138,39.59861391230638&#10;c 0,32.91037851400671 102.38092925399685,59.95537851400671 117.57386541194,32.91037851400671&#10;c 57.37727272727273,-27.044999999999998 35.30909090909091,94.6575 16.53841123198751,192.4646214859933 c -0.0,27.83919514456509 22.06818181818182,196.9441650802202 -32.27677755659114,165.39166508022018&#10;c -49.79352670526687,-27.044999999999998 -100.73344981522267,0 -100.73344981522267,59.98333491977982&#10;c 0,36.45692021316199 12.787146177025038,63.501920213161995 51.0165345234025,36.45692021316199&#10;c 57.37727272727273,-27.044999999999998 35.30909090909091,94.6575 81.99369284841131,188.918079786838 c -0.0,49.72123262141733 22.06818181818182,187.23766814243888 -67.67090773676617,155.68516814243887&#10;c -38.79515473492795,-27.044999999999998 -40.296978982787934,0 -40.296978982787934,69.68983185756113&#10;c 0,51.036262146458796 44.892554187856064,78.0812621464588 74.21884644108711,51.036262146458796&#10;c 57.37727272727273,-27.044999999999998 35.30909090909091,94.6575 33.74904027846699,174.3387378535412 L 0 1803 " fill="none" stroke="black" stroke-width="0.1" style="vector-effect:non-scaling-stroke;" /></g><g><path d="M 0 0  L 1324.090909 0  c -0.0,50.14068872577182 22.06818181818182,223.5711774602249 -72.32826003329318,192.0186774602249&#10;c -40.05351795487241,-27.044999999999998 -73.45215628198254,0 -73.45215628198254,33.35632253977511&#10;c 0,41.220915428484886 66.57465557400914,68.26591542848489 112.63460653512416,41.220915428484886&#10;c 57.37727272727273,-27.044999999999998 35.30909090909091,94.6575 33.14580978015155,184.1540845715151 c 0.0,95.29020952396033 -22.06818181818182,202.98709428546584 31.064888269694702,171.43459428546583&#10;c 96.62702909647228,-27.044999999999998 111.28845905947978,0 111.28845905947978,53.940405714534165&#10;c 0,59.414311853953336 -12.355731871833136,86.45931185395334 -50.40330342181102,59.414311853953336&#10;c -57.37727272727273,-27.044999999999998 -35.30909090909091,94.6575 -91.95004390736347,165.96068814604666 c 0.0,85.16230053169981 -22.06818181818182,204.70925742987657 48.90635563632522,173.15675742987656&#10;c 24.302959145570192,-27.044999999999998 74.21547400344238,0 74.21547400344238,52.21824257012344&#10;c 0,39.099079214181245 -93.30187380685328,66.14407921418125 -118.6549676536291,39.099079214181245&#10;c -57.37727272727273,-27.044999999999998 -35.30909090909091,94.6575 -4.466861986138511,186.27592078581876 c -0.0,63.25112272706083 22.06818181818182,207.77383908830606 -67.02383343190856,176.22133908830605&#10;c -25.99294815742456,-27.044999999999998 -52.02805921606172,0 -52.02805921606172,49.15366091169395&#10;c 0,67.16142942177726 23.474260658517846,94.20642942177726 34.97496606396574,67.16142942177726&#10;c 57.37727272727273,-27.044999999999998 35.30909090909091,94.6575 84.07692658400454,158.21357057822274 L 0 1803 " fill="none" stroke="black" stroke-width="0.1" style="vector-effect:non-scaling-stroke;" /></g><g><path d="M 0 0  L 1765.454545 0  c -0.0,62.536830559815996 22.06818181818182,214.3561428889421 6.658041670217382,182.80364288894208&#10;c -151.11673322064598,-27.044999999999998 -151.0721642822757,0 -151.0721642822757,42.57135711105792&#10;c 0,34.322104670656756 24.656178515122882,61.36710467065676 92.85815627667485,34.322104670656756&#10;c 57.37727272727273,-27.044999999999998 35.30909090909091,94.6575 51.555966335383474,191.05289532934324 c 0.0,45.54133612441657 -22.06818181818182,206.23150942968778 13.057506640398719,174.67900942968777&#10;c 24.897222740497277,-27.044999999999998 93.37288642825119,0 93.37288642825119,50.69599057031223&#10;c 0,65.53444510239763 -62.64519791541542,92.57944510239763 -94.24761346854515,65.53444510239763&#10;c -57.37727272727273,-27.044999999999998 -35.30909090909091,94.6575 -12.182779600104752,159.84055489760237 c 0.0,98.1037480058128 -22.06818181818182,210.23374182287284 57.713570097497694,178.68124182287283&#10;c 65.66853216388768,-27.044999999999998 89.14142609773816,0 89.14142609773816,46.693758177127165&#10;c 0,45.42274945392029 -74.04821587937256,72.46774945392029 -97.70966503813574,45.42274945392029&#10;c -57.37727272727273,-27.044999999999998 -35.30909090909091,94.6575 -49.14533115710012,179.9522505460797 c -0.0,23.487229457892674 22.06818181818182,198.03120809262077 -9.663289437050379,166.47870809262076&#10;c -36.7054909977339,-27.044999999999998 -127.49504848000215,0 -127.49504848000215,58.896291907379236&#10;c 0,53.71217907245523 67.65795510492039,80.75717907245523 69.28955360012554,53.71217907245523&#10;c 57.37727272727273,-27.044999999999998 35.30909090909091,94.6575 67.86878431692699,171.66282092754477 L 0 1803 " fill="none" stroke="black" stroke-width="0.1" style="vector-effect:non-scaling-stroke;" /></g><g><path d="M 0 0  L 2206.818182 0  c 0.0,30.619293362475258 -22.06818181818182,219.33703958881037 -5.767583881031236,187.78453958881036&#10;c 108.69111101930702,-27.044999999999998 150.25267476596045,0 150.25267476596045,37.59046041118964&#10;c 0,61.10410774005942 -128.60233044639546,88.14910774005942 -139.1878850529585,61.10410774005942&#10;c -57.37727272727273,-27.044999999999998 -35.30909090909091,94.6575 -5.2972058319707,164.27089225994058 c 0.0,81.02674191861087 -22.06818181818182,221.63856429090944 93.28706277629918,190.08606429090943&#10;c 16.701428446700334,-27.044999999999998 22.947677931782863,0 22.947677931782863,35.288935709090566&#10;c 0,58.63710025508772 -27.524117029832542,85.68210025508772 -35.83745976217743,58.63710025508772&#10;c -57.37727272727273,-27.044999999999998 -35.30909090909091,94.6575 -80.39728094590461,166.73789974491228 c -0.0,105.56450628030814 22.06818181818182,224.13889719407956 -69.9391154950543,192.58639719407955&#10;c -28.165432438834657,-27.044999999999998 -76.91394346729726,0 -76.91394346729726,32.78860280592045&#10;c 0,46.37227989668304 52.83628180722152,73.41727989668304 82.97816089846707,46.37227989668304&#10;c 57.37727272727273,-27.044999999999998 35.30909090909091,94.6575 63.87489806388449,179.00272010331696 c -0.0,81.37248269075377 22.06818181818182,215.28003851606854 -42.448439553996266,183.72753851606853&#10;c -91.86758471396415,-27.044999999999998 -102.74343639183805,0 -102.74343639183805,41.647461483931465&#10;c 0,58.21027639664203 52.236658214063,85.25527639664203 110.92495982042276,58.21027639664203&#10;c 57.37727272727273,-27.044999999999998 35.30909090909091,94.6575 34.266916125411555,167.16472360335797 L 0 1803 " fill="none" stroke="black" stroke-width="0.1" style="vector-effect:non-scaling-stroke;" /></g><g><path d="M 0 0  L 2648.181818 0  c 0.0,113.37741895076745 -22.06818181818182,203.95741314925166 67.05910946628802,172.40491314925166&#10;c 19.040150680054342,-27.044999999999998 50.24795034633493,0 50.24795034633493,52.970086850748345&#10;c 0,39.77530822825304 -92.46147128799821,66.82030822825304 -121.79568081076715,39.77530822825304&#10;c -57.37727272727273,-27.044999999999998 -35.30909090909091,94.6575 4.488620998144199,185.59969177174696 c 0.0,106.77089730979846 -22.06818181818182,205.1721500651067 69.8918834183871,173.6196500651067&#10;c 34.41178123705656,-27.044999999999998 53.702858250432016,0 53.702858250432016,51.7553499348933&#10;c 0,66.292122753927 -24.36773854795691,93.337122753927 -56.53059500518103,66.292122753927&#10;c -57.37727272727273,-27.044999999999998 -35.30909090909091,94.6575 -67.06414666363808,159.082877246073 c -0.0,27.814327838524445 22.06818181818182,217.2902921994611 0.6306971392024334,185.7377921994611&#10;c -101.02725250103377,-27.044999999999998 -137.2006373676682,0 -137.2006373676682,39.6372078005389&#10;c 0,65.65984826952081 42.794708568139285,92.70484826952081 67.6289886014847,65.65984826952081&#10;c 57.37727272727273,-27.044999999999998 35.30909090909091,94.6575 68.94095162698108,159.7151517304792 c -0.0,107.43453669299872 22.06818181818182,219.4159604336684 -28.353056526718596,187.8634604336684&#10;c -58.82632051552014,-27.044999999999998 -120.06943738931525,0 -120.06943738931525,37.51153956633161&#10;c 0,70.30000071851731 88.6465516357785,97.34500071851731 144.55158676073725,70.30000071851731&#10;c 57.37727272727273,-27.044999999999998 35.30909090909091,94.6575 3.8709071552966066,155.0749992814827 L 0 1803 " fill="none" stroke="black" stroke-width="0.1" style="vector-effect:non-scaling-stroke;" /></g><g><path d="M 0 0  L 3089.545455 0  c 0.0,116.56713702409269 -22.06818181818182,190.2605933808843 76.35029765706847,158.7080933808843&#10;c 26.653140824765078,-27.044999999999998 46.58931169619535,0 46.58931169619535,66.66690661911571&#10;c 0,68.0994575032338 -82.76379714049318,95.1444575032338 -97.78353324152391,68.0994575032338&#10;c -57.37727272727273,-27.044999999999998 -35.30909090909091,94.6575 -25.156076111739907,157.2755424967662 c -0.0,130.5659376965214 22.06818181818182,224.7886549601228 -13.121976787542772,193.2361549601228&#10;c -70.2302838050159,-27.044999999999998 -127.96132527109278,0 -127.96132527109278,32.1388450398772&#10;c 0,51.860173185212716 31.406142096073673,78.90517318521272 97.09717652024455,51.860173185212716&#10;c 57.37727272727273,-27.044999999999998 35.30909090909091,94.6575 43.98612553839101,173.51482681478728 c -0.0,47.600055733395486 22.06818181818182,217.59475397647498 -19.76955644913118,186.04225397647497&#10;c -37.37485620165613,-27.044999999999998 -119.17295437105258,0 -119.17295437105258,39.33274602352503&#10;c 0,62.40720804579496 42.260585454623886,89.45220804579496 56.573064932701286,62.40720804579496&#10;c 57.37727272727273,-27.044999999999998 35.30909090909091,94.6575 82.36944588748248,162.96779195420504 c 0.0,68.6829758348719 -22.06818181818182,212.94925215718737 67.26290313651364,181.39675215718736&#10;c 59.38354252654419,-27.044999999999998 76.21696441359518,0 76.21696441359518,43.978247842812635&#10;c 0,54.37197621292279 -134.43941571233006,81.41697621292279 -142.22164317737023,54.37197621292279&#10;c -57.37727272727273,-27.044999999999998 -35.30909090909091,94.6575 -1.2582243727385958,171.0030237870772 L 0 1803 " fill="none" stroke="black" stroke-width="0.1" style="vector-effect:non-scaling-stroke;" /></g><g><path d="M 0 0  L 3530.909091 0  c -0.0,62.91780439857439 22.06818181818182,190.48629387678037 -23.070456815217145,158.93379387678036&#10;c -88.15154408851213,-27.044999999999998 -99.27750284869431,0 -99.27750284869431,66.44120612321964&#10;c 0,64.1352449897933 29.427987147088576,91.18024498979331 77.38680913427837,64.1352449897933&#10;c 57.37727272727273,-27.044999999999998 35.30909090909091,94.6575 44.96115052963309,161.2397550102067 c -0.0,61.56032832275839 22.06818181818182,215.66557491797565 -81.86218674874908,184.11307491797564&#10;c -45.449706809956844,-27.044999999999998 -54.78607931764469,0 -54.78607931764469,41.26192508202436&#10;c 0,57.69339577376786 39.39471652028615,84.73839577376786 94.31322583881428,57.69339577376786&#10;c 57.37727272727273,-27.044999999999998 35.30909090909091,94.6575 42.3350402275795,167.68160422623214 c -0.0,112.74501635902064 22.06818181818182,221.34920962083032 -72.12236943116088,189.7967096208303&#10;c -50.51638908697927,-27.044999999999998 -57.47582144642854,0 -57.47582144642854,35.57829037916969&#10;c 0,46.637024467809056 31.66870388839705,73.68202446780906 102.24280402184687,46.637024467809056&#10;c 57.37727272727273,-27.044999999999998 35.30909090909091,94.6575 27.35538685574255,178.73797553219094 c 0.0,57.63170704995057 -22.06818181818182,186.31460528083892 75.68161938993983,154.7621052808389&#10;c 33.72376891989346,-27.044999999999998 46.34230570416335,0 46.34230570416335,70.61289471916109&#10;c 0,41.71826604533874 -72.34453626961609,68.76326604533874 -122.26791973156088,41.71826604533874&#10;c -57.37727272727273,-27.044999999999998 -35.30909090909091,94.6575 0.24399463745770333,183.65673395466126 L 0 1803 " fill="none" stroke="black" stroke-width="0.1" style="vector-effect:non-scaling-stroke;" /></g><g><path d="M 0 0  L 3972.272727 0  c -0.0,96.06881642949028 22.06818181818182,209.5580935411744 -59.33436287980825,178.0055935411744&#10;c -61.57494417885361,-27.044999999999998 -61.94383884311031,0 -61.94383884311031,47.36940645882561&#10;c 0,36.56132727099981 20.841589013864763,63.60632727099981 75.28169378653394,36.56132727099981&#10;c 57.37727272727273,-27.044999999999998 35.30909090909091,94.6575 45.99650793638463,188.8136727290002 c -0.0,115.08561079674004 22.06818181818182,195.41422812840395 -3.197114037817036,163.86172812840394&#10;c -65.5427727660311,-27.044999999999998 -138.52774056742257,0 -138.52774056742257,61.51327187159606&#10;c 0,59.94104749485291 26.654878086961446,86.98604749485291 68.46774222122373,59.94104749485291&#10;c 57.37727272727273,-27.044999999999998 35.30909090909091,94.6575 73.25711238401588,165.4339525051471 c 0.0,68.6815532869577 -22.06818181818182,201.61219931806238 53.37620152056463,170.05969931806237&#10;c 30.62110081715564,-27.044999999999998 58.02198078805758,0 58.02198078805758,55.31530068193763&#10;c 0,68.7002472988516 -61.071576948768346,95.7452472988516 -77.35700675121565,68.7002472988516&#10;c -57.37727272727273,-27.044999999999998 -35.30909090909091,94.6575 -34.04117555740656,156.6747527011484 c -0.0,59.21291163972857 22.06818181818182,215.69454113925704 -70.35590380039268,184.14204113925703&#10;c -34.48785453775165,-27.044999999999998 -63.763054744122414,0 -63.763054744122414,41.23295886074297&#10;c 0,59.23475306942407 25.705916981966713,86.27975306942407 38.49034290510238,59.23475306942407&#10;c 57.37727272727273,-27.044999999999998 35.30909090909091,94.6575 95.62861563941271,166.14024693057593 L 0 1803 " fill="none" stroke="black" stroke-width="0.1" style="vector-effect:non-scaling-stroke;" /></g><g><path d="M 0 0  L 4413.636364 0  c 0.0,110.18531266195504 -22.06818181818182,197.27733218151747 17.80434230230459,165.72483218151746&#10;c 82.36265473402077,-27.044999999999998 92.76823588686344,0 92.76823588686344,59.650167818482544&#10;c 0,53.55959171609982 -46.35970622964809,80.60459171609982 -61.96869556978682,53.55959171609982&#10;c -57.37727272727273,-27.044999999999998 -35.30909090909091,94.6575 -48.60388261938121,171.81540828390018 c 0.0,103.58238666103193 -22.06818181818182,214.12991528053885 -4.973364500845019,182.57741528053884&#10;c 88.25093987613002,-27.044999999999998 121.47742544928501,0 121.47742544928501,42.797584719461156&#10;c 0,54.86984423216512 -16.42023931819407,81.91484423216512 -45.94864202209911,54.86984423216512&#10;c -57.37727272727273,-27.044999999999998 -35.30909090909091,94.6575 -70.55541892634088,170.50515576783488 c 0.0,33.8876488781186 -22.06818181818182,188.6320817426741 45.8578150205001,157.0795817426741&#10;c 30.52695724624822,-27.044999999999998 61.9539795389243,0 61.9539795389243,68.2954182573259&#10;c 0,45.27718679482484 -40.58082859009254,72.32218679482484 -61.60774501688445,45.27718679482484&#10;c -57.37727272727273,-27.044999999999998 -35.30909090909091,94.6575 -46.20404954253995,180.09781320517516 c -0.0,28.072464644050566 22.06818181818182,203.4654359693256 -40.5361337579132,171.9129359693256&#10;c -27.50726583786691,-27.044999999999998 -83.74738360487686,0 -83.74738360487686,53.46206403067441&#10;c 0,43.841033557434116 88.22197994662677,70.88603355743412 123.90458111853445,43.841033557434116&#10;c 57.37727272727273,-27.044999999999998 35.30909090909091,94.6575 0.37893624425561256,181.53396644256588 L 0 1803 " fill="none" stroke="black" stroke-width="0.1" style="vector-effect:non-scaling-stroke;" /></g></g><g><g><path d="M 0 0  L 0 450.750000  c 49.67890983232403,-0.0 206.3579401695362,22.5375 175.46248562408164,-50.335620720149336&#10;c -26.48181818181818,-19.06887941444217 0,-83.2268815786228 45.21933255773655,-83.2268815786228&#10;c 56.98871230217043,0 83.47053048398861,102.460109286029 56.98871230217043,134.69838505580546&#10;c -26.48181818181818,58.597500000000004 92.68636363636364,36.06 163.69310587964776,-1.135882757033329 c 111.38481280815952,-0.0 193.67783432365337,22.5375 162.78237977819882,-47.117129938986295&#10;c -26.48181818181818,-30.701069971799534 0,-77.5905248537619 57.89943840361937,-77.5905248537619&#10;c 43.694513063239015,0 70.1763312450572,38.95153104377326 43.694513063239015,40.599055182836594&#10;c -26.48181818181818,58.597500000000004 92.68636363636364,36.06 176.98730511857917,84.10859960991161 c 67.58854399527053,0.0 200.01296174653814,-22.5375 169.11750720108358,63.16364056862533&#10;c -26.48181818181818,15.133472365441026 0,55.598895451589065 51.564310980734604,55.598895451589065&#10;c 43.312269614407796,0 69.79408779622598,-12.871872711338057 43.312269614407796,-34.4376874029314&#10;c -26.48181818181818,-58.597500000000004 92.68636363636364,-36.06 177.3695485674104,-84.324848617283 c 27.209340757519904,0.0 186.16392628539788,-22.5375 155.26847173994332,61.00929330902238&#10;c -26.48181818181818,27.665776590575838 0,56.70640396133534 65.41334644187486,56.70640396133534&#10;c 62.097451918467414,0 88.5792701002856,-54.54263316436339 62.097451918467414,-102.62626837039413&#10;c -26.48181818181818,-58.597500000000004 92.68636363636364,-36.06 158.58436626335077,-15.089428899963593 c 68.4912281004687,-0.0 195.73212612278436,22.5375 164.8366715773298,-87.80434029312097&#10;c -26.48181818181818,-31.950893808880128 0,-56.56220900202386 55.84514660448838,-56.56220900202386&#10;c 61.878306831138616,0 88.3601250129568,25.851817536410056 61.878306831138616,115.28560215381637&#10;c -26.48181818181818,58.597500000000004 92.68636363636364,36.06 158.80351135067957,29.080947141328465 c 28.058427261710225,-0.0 214.1976284415719,22.5375 183.30217389611735,-46.86720606056678&#10;c -26.48181818181818,-46.22049008975061 0,-90.28155716474691 37.379644285700834,-90.28155716474691&#10;c 41.21188439434786,0 67.69370257616605,43.656420157763215 41.21188439434786,82.17301047968726&#10;c -26.48181818181818,58.597500000000004 92.68636363636364,36.06 179.46993378747032,54.97575274562644 c 49.589244650923796,-0.0 198.52633160532636,22.5375 167.6308770598718,-63.65277420605704&#10;c -26.48181818181818,-44.17925181826955 0,-60.81507942681794 53.05094112194638,-60.81507942681794&#10;c 31.89916524339924,0 58.38098342521742,51.213064534524385 31.89916524339924,75.82292894220697&#10;c -26.48181818181818,58.597500000000004 92.68636363636364,36.06 188.78265293841895,48.644924690668006 c 57.604203943281966,0.0 183.1113573507508,-22.5375 152.21590280529625,1.4995881764349106&#10;c -26.48181818181818,68.710609023943 0,106.94358215518012 68.46591537652193,106.94358215518012&#10;c 38.07508092835036,0 64.55689911016854,-70.70735954654964 38.07508092835036,-107.21869645922934&#10;c -26.48181818181818,-58.597500000000004 92.68636363636364,-36.06 182.60673725346783,-1.2244738723857012 c 92.66189599247657,-0.0 215.56541677123784,22.5375 184.66996222578328,-43.257326552298&#10;c -26.48181818181818,-58.56415648601243 0,-106.11837690748615 36.01185595603491,-106.11837690748615&#10;c 58.253245891979134,0 84.73506407379732,82.82583227302392 58.253245891979134,111.24964643108049&#10;c -26.48181818181818,58.597500000000004 92.68636363636364,36.06 162.42857228983905,38.126057028703656 c 94.77217968168608,0.0 185.2457000014764,-22.5375 154.35024545602184,0.7237549711627689&#10;c -26.48181818181818,88.2195290567328 0,113.89714657422476 66.33157272579635,113.89714657422476&#10;c 58.250798953240064,0 84.73261713505825,-7.564908286584593 58.250798953240064,-24.022462490514144&#10;c -26.48181818181818,-58.597500000000004 92.68636363636364,-36.06 162.43101922857812,-90.59843905487338 c 104.86739211295252,-0.0 220.4685202523632,22.5375 189.57306570690864,-98.3769814967594&#10;c -26.48181818181818,-9.489306175090483 0,-37.25223115574711 31.10875247490955,-37.25223115574711&#10;c 59.57614245741627,0 86.05796063923445,102.95676271481648 59.57614245741627,103.80904250914388&#10;c -26.48181818181818,58.597500000000004 92.68636363636364,36.06 161.10567572440192,31.82017014336263 L 4855 0 " fill="none" stroke="black" stroke-width="0.1" style="vector-effect:non-scaling-stroke;" /></g><g><path d="M 0 0  L 0 901.500000  c 112.28763939353547,-0.0 193.67534832802636,22.5375 162.7798937825718,-97.6482865976647&#10;c -26.48181818181818,-12.687580682801089 0,-32.37555477052372 57.90192439924638,-32.37555477052372&#10;c 37.76464393479455,0 64.24646211661273,36.9613288255891 37.76464393479455,36.69157193844694&#10;c -26.48181818181818,58.597500000000004 92.68636363636364,36.06 182.91717424702364,93.33226942974147 c 58.996791363006764,-0.0 204.2011620580833,22.5375 173.30570751262874,-40.025477428704484&#10;c -26.48181818181818,-54.65523485544186 0,-74.11955794251654 47.376110669189444,-74.11955794251654&#10;c 50.83917761371117,0 77.32099579552936,9.527138322200269 50.83917761371117,28.740562637345775&#10;c -26.48181818181818,58.597500000000004 92.68636363636364,36.06 169.84264056810702,85.40447273387524 c 33.863850624164826,0.0 195.79296608304992,-22.5375 164.89751153759536,-3.4992108250050733&#10;c -26.48181818181818,111.78674777753811 0,152.60087924050964 55.78430664422282,152.60087924050964&#10;c 64.21227745654869,0 90.69409563836687,-48.396622129124026 64.21227745654869,-90.97573401494147&#10;c -26.48181818181818,-58.597500000000004 92.68636363636364,-36.06 156.4695407252695,-58.12593440056311 c 98.4574854216331,-0.0 215.54474310788555,22.5375 184.649288562431,-28.063507602167263&#10;c -26.48181818181818,-85.67518629550564 0,-106.57474492697106 36.03252961938719,-106.57474492697106&#10;c 63.048878770265674,0 89.53069695208386,38.30801148772125 63.048878770265674,70.28220192652681&#10;c -26.48181818181818,58.597500000000004 92.68636363636364,36.06 157.6329394115525,64.35605060261152 c 120.26215935169323,0.0 213.5099841237,-22.5375 182.61452957824545,56.4012120801068&#10;c -26.48181818181818,68.23792968913025 0,86.4939740501276 38.067288603572734,86.4939740501276&#10;c 58.02336638290467,0 84.50518456472285,-58.14205911977077 58.02336638290467,-82.50356554111438&#10;c -26.48181818181818,-58.597500000000004 92.68636363636364,-36.06 162.65845179891352,-60.39162058912002 c 116.37964622810021,-0.0 197.948304116926,22.5375 167.05284957147146,-34.6423776150213&#10;c -26.48181818181818,-54.62077521700534 0,-91.82861676774284 53.62896861034673,-91.82861676774284&#10;c 66.9027369427518,0 93.38455512456999,51.15911199869501 66.9027369427518,59.78004807033223&#10;c -26.48181818181818,58.597500000000004 92.68636363636364,36.06 153.7790812390664,66.69094631243192 c 36.63550584325251,-0.0 212.10953268598038,22.5375 181.21407814052583,-13.18626227188396&#10;c -26.48181818181818,-85.02652245016832 0,-137.87445722722956 39.46774004129236,-137.87445722722956&#10;c 61.06866444098216,0 87.55048262280035,151.1506541716099 61.06866444098216,154.35472825380793&#10;c -26.48181818181818,58.597500000000004 92.68636363636364,36.06 159.61315374083603,-3.294008754694431 c 70.70587526009976,0.0 200.77628057255248,-22.5375 169.88082602709792,-4.4295310411151965&#10;c -26.48181818181818,128.82427455302607 0,152.52150080428032 50.80099215472026,152.52150080428032&#10;c 69.82069723617792,0 96.3025154179961,-75.54048054548066 69.82069723617792,-132.06800690151326&#10;c -26.48181818181818,-58.597500000000004 92.68636363636364,-36.06 150.86112094564027,-16.02396286165188 c 69.61021761457035,0.0 191.8360751234039,-22.5375 160.94062057794935,77.72739279932058&#10;c -26.48181818181818,32.34683399209894 0,75.1236239591248 59.74119760386884,75.1236239591248&#10;c 55.48377391395553,0 81.96559209577372,-96.20815611592269 55.48377391395553,-154.81453601163832&#10;c -26.48181818181818,-58.597500000000004 92.68636363636364,-36.06 165.19804426786266,1.963519253192942 c 57.415731963394634,0.0 181.00704449829547,-22.5375 150.11158995284092,91.66452434000479&#10;c -26.48181818181818,37.24942894511312 0,41.93018887343902 70.57022822897727,41.93018887343902&#10;c 65.8617536194439,0 92.34357180126209,-22.24737843473304 65.8617536194439,-84.54135951313887&#10;c -26.48181818181818,-58.597500000000004 92.68636363636364,-36.06 154.82006456237428,-49.05335370030494 c 38.28724058008169,-0.0 193.08492526407912,22.5375 162.18947071862456,-3.7890723246602094&#10;c -26.48181818181818,-45.591010958225596 0,-115.35008821484303 58.492347463193624,-115.35008821484303&#10;c 65.01548009381747,0 91.49729827563566,37.48164267360871 65.01548009381747,107.28934306714476&#10;c -26.48181818181818,58.597500000000004 92.68636363636364,36.06 155.6663380880007,11.849817472358481 L 4855 0 " fill="none" stroke="black" stroke-width="0.1" style="vector-effect:non-scaling-stroke;" /></g><g><path d="M 0 0  L 0 1352.250000  c 57.001017693939225,-0.0 193.1862156758327,22.5375 162.29076113037814,-22.61606775855843&#10;c -26.48181818181818,-72.30377248818981 0,-121.25203629576286 58.39105705144004,-121.25203629576286&#10;c 40.255133125927955,0 66.73695130774614,45.59244415491022 40.255133125927955,105.48528076498116&#10;c -26.48181818181818,58.597500000000004 92.68636363636364,36.06 180.42668505589023,38.38282328934014 c 61.0052951105423,0.0 190.1178114647107,-22.5375 159.22235691925616,36.597645910373714&#10;c -26.48181818181818,106.18748847644898 0,109.97902327918818 61.45946126256203,109.97902327918818&#10;c 64.66018002528165,0 91.14199820709983,-103.12409419699607 64.66018002528165,-150.2186948997755&#10;c -26.48181818181818,-58.597500000000004 92.68636363636364,-36.06 156.02163815653654,3.642025710213602 c 67.71731546451885,0.0 219.48106619459838,-22.5375 188.58561164914383,11.331819988739142&#10;c -26.48181818181818,120.49083296252752 0,132.53112292823465 32.09620653267436,132.53112292823465&#10;c 54.135080895751116,0 80.6168990775693,-34.53392190507017 54.135080895751116,-120.03801708523662&#10;c -26.48181818181818,-58.597500000000004 92.68636363636364,-36.06 166.54673728606707,-23.824925831737175 c 71.91811284573096,0.0 192.87563507118966,-22.5375 161.9801805257351,-1.238395523955863&#10;c -26.48181818181818,88.59471809114089 0,118.12789396074369 58.70163765608308,118.12789396074369&#10;c 53.8956786438452,0 80.37749682566339,-22.2506840266048 53.8956786438452,-43.74092525380132&#10;c -26.48181818181818,-58.597500000000004 92.68636363636364,-36.06 166.78613953797299,-73.14857318298651 c 33.790944835598694,-0.0 184.86327486988338,22.5375 153.96782032442883,-63.02428502525323&#10;c -26.48181818181818,-25.992630083491548 0,-59.25971214273671 66.71399785738936,-59.25971214273671&#10;c 69.33674683496918,0 95.81856501678736,30.080087480967837 69.33674683496918,128.663252895261&#10;c -26.48181818181818,58.597500000000004 92.68636363636364,36.06 151.345071346849,-6.379255727271058 c 87.80690698825094,-0.0 202.33934689110365,22.5375 171.4438923456491,-51.405016705038136&#10;c -26.48181818181818,-24.268903718317702 0,-86.3905252752728 49.2379258361691,-86.3905252752728&#10;c 37.44017229694646,0 63.92199047876464,21.5358004927327 37.44017229694646,54.970421063376904&#10;c -26.48181818181818,58.597500000000004 92.68636363636364,36.06 183.24164588487173,82.82512091693403 c 57.99046146384391,-0.0 185.03698395416444,22.5375 154.14152940870989,-75.66572970479832&#10;c -26.48181818181818,-12.338259320153254 0,-38.60723166840235 66.5402887731083,-38.60723166840235&#10;c 63.66792694904848,0 90.14974513086666,36.618910307098595 63.66792694904848,39.47157730819913&#10;c -26.48181818181818,58.597500000000004 92.68636363636364,36.06 157.0138912327697,74.80138406500154 c 34.05938396878855,0.0 219.57035598233782,-22.5375 188.67490143688326,77.39653282937805&#10;c -26.48181818181818,9.534079527043218 0,41.27273051597459 32.00691674493493,41.27273051597459&#10;c 52.44834786974553,0 78.93016605156372,-18.067363415133244 52.44834786974553,-76.60715426067125&#10;c -26.48181818181818,-58.597500000000004 92.68636363636364,-36.06 168.23347031207265,-42.06210908468138 c 64.49265785551343,-0.0 181.09506433080844,22.5375 150.19960978535389,-27.058866695560393&#10;c -26.48181818181818,-36.110196097114304 0,-124.11556495870465 70.4822083964643,-124.11556495870465&#10;c 61.122612515791104,0 87.60443069760929,114.11329954590306 61.122612515791104,124.95848702524877&#10;c -26.48181818181818,58.597500000000004 92.68636363636364,36.06 159.55920566602708,26.215944629016278 c 65.36046931189676,0.0 191.87023835525542,-22.5375 160.97478380980087,43.28327198803006&#10;c -26.48181818181818,45.299685539802795 0,97.2891819843228 59.70703437201732,97.2891819843228&#10;c 40.9930300203327,0 67.47484820215088,-43.94053228062173 40.9930300203327,-77.51942438829056&#10;c -26.48181818181818,-58.597500000000004 92.68636363636364,-36.06 179.6887881614855,-63.0530295840623 c 29.933005951066885,0.0 184.1966218080279,-22.5375 153.30116726257336,48.482736652380204&#10;c -26.48181818181818,91.28892376323414 0,93.20216442628444 67.38065091924483,93.20216442628444&#10;c 63.235422579409146,0 89.71724076122733,-36.28256593475619 63.235422579409146,-69.90831207484594&#10;c -26.48181818181818,-58.597500000000004 92.68636363636364,-36.06 157.44639560240904,-71.7765890038187 L 4855 0 " fill="none" stroke="black" stroke-width="0.1" style="vector-effect:non-scaling-stroke;" /></g></g></svg>