<svg baseProfile="full" height="2304" preserveAspectRatio="none" shape-rendering="geometricPrecision" version="1.1" viewBox="0,0,3456,2304" width="3456" xmlns="http://www.w3.org/2000/svg" xmlns:ev="http://www.w3.org/2001/xml-events" xmlns:xlink="http://www.w3.org/1999/xlink"><title>Jigsaw puzzle piece clips</title><desc>Created with the piecemaker. Piece count: 40</desc><defs /><g><g><rect fill="white" height="2304" width="3456" x="0" y="0" /></g></g><g><g><path d="M 0 0  L 432.000000 0  c -0.0,29.525247448976742 21.6,201.61481260334875 -23.52774373698182,169.35881260334875&#10;c -111.13529001832437,-27.648 -118.89035554025708,0 -118.89035554025708,61.04118739665125&#10;c 0,34.49165606280789 33.203270290801136,62.13965606280789 49.61869849251943,34.49165606280789&#10;c 56.160000000000004,-27.648 34.56,96.768 92.79940078471947,195.90834393719211 c 0.0,96.00260992247868 -21.6,215.11177238227882 84.97670586410803,182.85577238227881&#10;c 35.40441179167146,-27.648 39.687004665577234,0 39.687004665577234,47.54422761772119&#10;c 0,49.45377011090372 -25.30245067299613,77.10177011090371 -111.47105764948978,49.45377011090372&#10;c -56.160000000000004,-27.648 -34.56,96.768 -13.192652880195482,180.9462298890963 c 0.0,115.00088604332134 -21.6,206.4704656205685 62.54795059774233,174.2144656205685&#10;c 49.7242649163947,-27.648 51.40454641214609,0 51.40454641214609,56.185534379431516&#10;c 0,62.80889112769384 -24.127008110835554,90.45689112769384 -36.18240200034647,62.80889112769384&#10;c -56.160000000000004,-27.648 -34.56,96.768 -77.77009500954195,167.59110887230617 c 0.0,41.68917577195365 -21.6,218.78915445412395 62.505625797562494,186.53315445412395&#10;c 70.41945104785268,-27.648 73.36691497670245,0 73.36691497670245,43.86684554587606&#10;c 0,72.3810639775148 -72.6488446458601,100.0290639775148 -80.195506643453,72.3810639775148&#10;c -56.160000000000004,-27.648 -34.56,96.768 -55.67703413081193,158.0189360224852 c 0.0,87.6833561659035 -21.6,227.07349035706815 2.368895786609484,194.81749035706815&#10;c 91.88164195322396,-27.648 106.89021152333882,0 106.89021152333882,35.58250964293185&#10;c 0,58.96626443725185 -59.526414057346024,86.61426443725185 -68.79704581228305,58.96626443725185&#10;c -56.160000000000004,-27.648 -34.56,96.768 -40.46206149766526,171.43373556274815 L 0 2304 " fill="none" stroke="black" stroke-width="0.1" style="vector-effect:non-scaling-stroke;" /></g><g><path d="M 0 0  L 864.000000 0  c -0.0,98.346695824932 21.6,222.07411098461608 -14.249029156872517,189.81811098461608&#10;c -34.16551614744582,-27.648 -127.95540280777442,0 -127.95540280777442,40.58188901538392&#10;c 0,54.2120665361559 44.67670083964198,81.8600665361559 126.12577111281774,54.2120665361559&#10;c 56.160000000000004,-27.648 34.56,96.768 16.0786608518292,176.1879334638441 c -0.0,89.38553695436917 21.6,211.12874373372355 -42.07884557157678,178.87274373372355&#10;c -49.87875774132373,-27.648 -87.855496259295,0 -87.855496259295,51.52725626627645&#10;c 0,47.85689778788608 73.61642964961909,75.50489778788608 133.10356176503782,47.85689778788608&#10;c 56.160000000000004,-27.648 34.56,96.768 -3.169219934166051,182.54310221211392 c 0.0,92.6999986090811 -21.6,217.70251153772588 61.066258248833854,185.44651153772588&#10;c 15.456790625573259,-27.648 61.38827646616124,0 61.38827646616124,44.95348846227412&#10;c 0,68.36534966264819 -39.52941830744249,96.01334966264818 -96.25382495961978,68.36534966264819&#10;c -56.160000000000004,-27.648 -34.56,96.768 -26.200709755375314,162.03465033735182 c 0.0,100.53454689352535 -21.6,210.99550173525063 88.02494928668429,178.73950173525063&#10;c 17.274125554262227,-27.648 18.786405229713765,0 18.786405229713765,51.66049826474938&#10;c 0,63.161059588294876 -11.167523725086228,90.80905958829487 -35.73664495081765,63.161059588294876&#10;c -56.160000000000004,-27.648 -34.56,96.768 -71.0747095655804,167.23894041170513 c -0.0,51.93728496278672 21.6,191.25641912987362 -49.38848379252186,159.00041912987362&#10;c -60.08497163307456,-27.648 -77.00046263743835,0 -77.00046263743835,71.39958087012639&#10;c 0,47.75552009859612 47.75418784885143,75.40352009859612 113.03527217705539,47.75552009859612&#10;c 56.160000000000004,-27.648 34.56,96.768 13.353674252904824,182.64447990140388 L 0 2304 " fill="none" stroke="black" stroke-width="0.1" style="vector-effect:non-scaling-stroke;" /></g><g><path d="M 0 0  L 1296.000000 0  c 0.0,133.1057438662013 -21.6,190.07597706827832 34.28498019318256,157.81997706827832&#10;c 68.9633282189802,-27.648 96.12919798285206,0 96.12919798285206,72.58002293172169&#10;c 0,52.4918690822291 -28.964225828036536,80.1398690822291 -124.523251756709,52.4918690822291&#10;c -56.160000000000004,-27.648 -34.56,96.768 -5.890926419325623,177.9081309177709 c 0.0,83.74392032598385 -21.6,201.60155118179136 90.18438086788387,169.34555118179136&#10;c 13.186745858790916,-27.648 20.281310455861558,0 20.281310455861558,61.05444881820864&#10;c 0,56.460022029773285 -87.4836281453698,84.10802202977328 -93.75636704372762,56.460022029773285&#10;c -56.160000000000004,-27.648 -34.56,96.768 -16.70932428001781,173.93997797022672 c -0.0,131.8061185825953 21.6,213.37072935892132 -46.399245357162094,181.11472935892132&#10;c -71.57503818039054,-27.648 -83.96513860747686,0 -83.96513860747686,49.28527064107868&#10;c 0,40.04921122965308 77.76021844228157,67.69721122965308 82.1637061225936,40.04921122965308&#10;c 56.160000000000004,-27.648 34.56,96.768 48.200677842045366,190.35078877034692 c 0.0,63.45782077038595 -21.6,226.7381527130638 52.14351856742201,194.4821527130638&#10;c 21.932440744371178,-27.648 76.09634099620169,0 76.09634099620169,35.917847286936194&#10;c 0,54.276157300502604 -66.00701363286677,81.9241573005026 -71.27900525630523,54.276157300502604&#10;c -56.160000000000004,-27.648 -34.56,96.768 -56.96085430731847,176.1238426994974 c 0.0,86.59320238559536 -21.6,199.3677967028538 30.93776627245456,167.1117967028538&#10;c 93.50008738235024,-27.648 104.63080954112169,0 104.63080954112169,63.2882032971462&#10;c 0,71.12732561942912 -59.61130551405028,98.77532561942911 -59.44431994797398,71.12732561942912&#10;c -56.160000000000004,-27.648 -34.56,96.768 -76.12425586560227,159.2726743805709 L 0 2304 " fill="none" stroke="black" stroke-width="0.1" style="vector-effect:non-scaling-stroke;" /></g><g><path d="M 0 0  L 1728.000000 0  c 0.0,95.77004528502833 -21.6,217.77121351418413 72.05723816209516,185.51521351418413&#10;c 9.688806103449123,-27.648 39.15395928265315,0 39.15395928265315,44.88478648581588&#10;c 0,51.43874394206446 -29.378639087934047,79.08674394206446 -87.25805732904142,51.43874394206446&#10;c -56.160000000000004,-27.648 -34.56,96.768 -23.953140115706887,178.96125605793554 c 0.0,80.8823491030619 -21.6,222.52321323872718 -8.311563885910786,190.26721323872718&#10;c 103.36164362177625,-27.648 143.68633431337616,0 143.68633431337616,40.132786761272826&#10;c 0,34.6736544992593 -26.42856814581595,62.321654499259296 -59.76663319881452,34.6736544992593&#10;c -56.160000000000004,-27.648 -34.56,96.768 -75.60813722865085,195.7263455007407 c 0.0,24.20212431880641 -21.6,211.62956568788002 22.643255450333022,179.37356568788002&#10;c 25.257325481484877,-27.648 116.63750899140078,0 116.63750899140078,51.02643431211999&#10;c 0,55.69950835369909 -55.459698782878554,83.34750835369908 -60.76827463733159,55.69950835369909&#10;c -56.160000000000004,-27.648 -34.56,96.768 -78.51248980440221,174.70049164630092 c 0.0,36.73605935407352 -21.6,219.65908055157186 79.70503891104667,187.40308055157186&#10;c 30.053918097246697,-27.648 35.61151026414775,0 35.61151026414775,42.996919448428145&#10;c 0,59.34566425402508 -121.75693785193859,86.99366425402508 -120.83820139979998,59.34566425402508&#10;c -56.160000000000004,-27.648 -34.56,96.768 5.52165222460556,171.05433574597492 c 0.0,88.49492276173845 -21.6,219.29419699023782 50.42419279043233,187.03819699023782&#10;c 59.969113336288224,-27.648 69.43866888721512,0 69.43866888721512,43.361803009762184&#10;c 0,52.2030120196944 -42.61046227332654,79.8510120196944 -51.751755638954165,52.2030120196944&#10;c -56.160000000000004,-27.648 -34.56,96.768 -68.11110603869328,178.1969879803056 L 0 2304 " fill="none" stroke="black" stroke-width="0.1" style="vector-effect:non-scaling-stroke;" /></g><g><path d="M 0 0  L 2160.000000 0  c 0.0,93.00741647942326 -21.6,219.4867576030924 77.78736443891779,187.2307576030924&#10;c 26.3415398210759,-27.648 35.011763698599964,0 35.011763698599964,43.169242396907606&#10;c 0,47.117931221754276 -13.886047411918037,74.76593122175427 -48.36441797312685,47.117931221754276&#10;c -56.160000000000004,-27.648 -34.56,96.768 -64.4347101643909,183.28206877824573 c -0.0,24.695718703731867 21.6,218.26970024489916 -13.695440665726995,186.01370024489916&#10;c -49.36090258418744,-27.648 -109.24200341627072,0 -109.24200341627072,44.38629975510085&#10;c 0,64.19342867580016 16.970379237046348,91.84142867580016 70.97005321199853,64.19342867580016&#10;c 56.160000000000004,-27.648 34.56,96.768 51.96739086999918,166.20657132419984 c -0.0,128.2033733441943 21.6,200.1218518506183 -35.0642809802315,167.8658518506183&#10;c -14.833035605296288,-27.648 -69.52476888262899,0 -69.52476888262899,62.53414814938171&#10;c 0,46.41497125533354 80.45119440099475,74.06297125533354 93.89621635026091,46.41497125533354&#10;c 56.160000000000004,-27.648 34.56,96.768 10.692833512599577,183.98502874466647 c -0.0,123.24719739606492 21.6,212.3226689521897 -46.93382899265676,180.0666689521897&#10;c -60.38713361487211,-27.648 -79.41056803358471,0 -79.41056803358471,50.333331047810304&#10;c 0,64.12550609672601 71.37394693052131,91.77350609672601 77.25989455177421,64.12550609672601&#10;c 56.160000000000004,-27.648 34.56,96.768 49.08450247446726,166.274493903274 c 0.0,68.74698679205406 -21.6,189.8426647567262 68.01562679396567,157.5866647567262&#10;c 37.516662405956545,-27.648 40.69152387236397,0 40.69152387236397,72.8133352432738&#10;c 0,34.961329584453864 -34.9830235008141,62.60932958445386 -94.48918114272284,34.961329584453864&#10;c -56.160000000000004,-27.648 -34.56,96.768 -14.217969523606797,195.43867041554614 L 0 2304 " fill="none" stroke="black" stroke-width="0.1" style="vector-effect:non-scaling-stroke;" /></g><g><path d="M 0 0  L 2592.000000 0  c -0.0,92.57627561516189 21.6,212.18145658156845 -5.819098856900619,179.92545658156845&#10;c -82.73081438505609,-27.648 -107.57356367492955,0 -107.57356367492955,50.47454341843155&#10;c 0,69.31642740610184 29.64092061928394,96.96442740610183 61.58367372883574,69.31642740610184&#10;c 56.160000000000004,-27.648 34.56,96.768 51.80898880299443,161.08357259389817 c 0.0,105.90759116141565 -21.6,205.4341420503013 68.20957951880926,173.1781420503013&#10;c 36.34570688825244,-27.648 63.83520057957607,0 63.83520057957607,57.221857949698716&#10;c 0,32.8919716782373 -43.838283993274764,60.53997167823729 -54.76529962215038,32.8919716782373&#10;c -56.160000000000004,-27.648 -34.56,96.768 -77.27948047623495,197.5080283217627 c 0.0,127.3594565936742 -21.6,220.43774699022728 5.629233778137378,188.18174699022728&#10;c 31.335401702504395,-27.648 99.99588842597603,0 99.99588842597603,42.218253009772724&#10;c 0,54.41914482873452 -106.46554577644147,82.06714482873451 -108.24329329685382,54.41914482873452&#10;c -56.160000000000004,-27.648 -34.56,96.768 2.618171092740411,175.9808551712655 c -0.0,58.07316838903846 21.6,198.46539091125317 -32.30948276735604,166.20939091125317&#10;c -25.922942706773235,-27.648 -80.55131848202669,0 -80.55131848202669,64.19060908874684&#10;c 0,36.14387990999015 23.90979336811233,63.79187990999014 106.50930761645192,36.14387990999015&#10;c 56.160000000000004,-27.648 34.56,96.768 6.351493632930797,194.25612009000986 c -0.0,124.35440745339197 21.6,217.00781157833381 -45.16274758473547,184.75181157833381&#10;c -43.036838872253114,-27.648 -68.3393977797667,0 -68.3393977797667,45.64818842166619&#10;c 0,59.356452960825635 75.602550312731,87.00445296082563 99.58660303381704,59.356452960825635&#10;c 56.160000000000004,-27.648 34.56,96.768 13.915542330685128,171.04354703917437 L 0 2304 " fill="none" stroke="black" stroke-width="0.1" style="vector-effect:non-scaling-stroke;" /></g><g><path d="M 0 0  L 3024.000000 0  c -0.0,26.585185110799753 21.6,204.87990294741022 -5.094900528040869,172.62390294741022&#10;c -45.81813644449571,-27.648 -140.27411898455466,0 -140.27411898455466,57.77609705258979&#10;c 0,61.63426040562453 88.04923296345237,89.28226040562453 103.49876285007883,61.63426040562453&#10;c 56.160000000000004,-27.648 34.56,96.768 41.87025666251671,168.76573959437548 c -0.0,104.85391508324257 21.6,215.9871855514034 -89.62195168705728,183.7311855514034&#10;c -41.328896815355485,-27.648 -42.87625945191584,0 -42.87625945191584,46.668814448596606&#10;c 0,37.81086232062276 38.88105436737768,65.45886232062276 88.335775235234,37.81086232062276&#10;c 56.160000000000004,-27.648 34.56,96.768 44.16243590373912,192.58913767937725 c -0.0,66.22245192764801 21.6,227.39134896576923 -86.53172558831872,195.13534896576923&#10;c -11.731018651313052,-27.648 -23.651427635267964,0 -23.651427635267964,35.26465103423078&#10;c 0,67.90519914336429 30.457817027126353,95.55319914336428 53.89405724977153,67.90519914336429&#10;c 56.160000000000004,-27.648 34.56,96.768 56.28909597381516,162.49480085663572 c 0.0,127.39668038246019 -21.6,206.8370370635974 60.44235798021741,174.5810370635974&#10;c 43.52939148849143,-27.648 58.72184952227941,0 58.72184952227941,55.81896293640261&#10;c 0,49.35180279029069 -35.291984296601086,76.99980279029069 -57.46581460798119,49.35180279029069&#10;c -56.160000000000004,-27.648 -34.56,96.768 -61.698392894515635,181.04819720970931 c 0.0,90.5947551038029 -21.6,200.1438731607442 45.64364525274029,167.8878731607442&#10;c 72.93519718829046,-27.648 91.07532809621847,0 91.07532809621847,62.512126839255814&#10;c 0,47.96752109208907 -88.95322679486621,75.61552109208907 -127.5483012052076,47.96752109208907&#10;c -56.160000000000004,-27.648 -34.56,96.768 -9.170672143751176,182.43247890791093 L 0 2304 " fill="none" stroke="black" stroke-width="0.1" style="vector-effect:non-scaling-stroke;" /></g></g><g><g><path d="M 0 0  L 0 460.800000  c 37.56431535564957,0.0 214.11977019913596,-23.040000000000003 183.87977019913595,74.29331234793699&#10;c -25.919999999999998,55.89082042473819 0,74.79214232130968 32.12022980086405,74.79214232130968&#10;c 52.46716871816608,0 78.38716871816608,-93.1679600717965 52.46716871816608,-143.59281370852483&#10;c -25.919999999999998,-59.904 90.72,-36.864000000000004 163.53283128183392,-5.492640960721843 c 54.33335694960431,0.0 184.35747306116986,-23.040000000000003 154.11747306116985,16.625149931687584&#10;c -25.919999999999998,41.87492538287829 0,119.97828054364328 61.88252693883015,119.97828054364328&#10;c 33.65608011643465,0 59.57608011643465,-140.39929882908166 33.65608011643465,-140.88037822855907&#10;c -25.919999999999998,-59.904 90.72,-36.864000000000004 182.34391988356535,4.2769477532282 c 110.83277778419375,-0.0 191.29376439811216,23.040000000000003 161.05376439811215,-29.124694349482546&#10;c -25.919999999999998,-103.63542657647062 0,-124.90082485087129 54.94623560188785,-124.90082485087129&#10;c 67.13518874461761,0 93.05518874461761,43.30068321866076 67.13518874461761,137.8162930883991&#10;c -25.919999999999998,59.904 90.72,36.864000000000004 148.8648112553824,16.209226111954735 c 76.78438029354466,0.0 188.8706236393632,-23.040000000000003 158.6306236393632,-4.204775219334756&#10;c -25.919999999999998,54.20199275866828 0,127.79540144442609 57.36937636063681,127.79540144442609&#10;c 60.044119717689284,0 85.96411971768929,-31.602257179918272 60.044119717689284,-115.30908831474957&#10;c -25.919999999999998,-59.904 90.72,-36.864000000000004 155.95588028231072,-8.281537910341768 c 48.20683699242826,-0.0 212.84776084622104,23.040000000000003 182.60776084622103,-50.94847081746383&#10;c -25.919999999999998,-60.130808985426526 0,-84.32328826393226 33.392239153778974,-84.32328826393226&#10;c 42.50038741566897,0 68.42038741566897,99.04192593008077 42.50038741566897,101.52980044445276&#10;c -25.919999999999998,59.904 90.72,36.864000000000004 173.49961258433103,33.74195863694332 c 32.90137231471527,0.0 214.60852565363336,-23.040000000000003 184.36852565363336,72.1187817645579&#10;c -25.919999999999998,29.137270871989454 0,46.103159735517906 31.631474346366645,46.103159735517906&#10;c 30.989982467914132,0 56.90998246791413,-25.679453738285748 30.989982467914132,-120.1680306656706&#10;c -25.919999999999998,-59.904 90.72,-36.864000000000004 185.01001753208587,1.946089165594799 c 123.38751400832405,0.0 178.69803673281646,-23.040000000000003 148.45803673281645,30.709561752306566&#10;c -25.919999999999998,73.25500729641784 0,97.5902510709845 67.54196326718355,97.5902510709845&#10;c 60.84697198418809,0 86.76697198418809,-64.63604873525865 60.84697198418809,-72.22059529600692&#10;c -25.919999999999998,-59.904 90.72,-36.864000000000004 155.1530280158119,-56.07921752728414 c 86.20004627502902,-0.0 184.56116637858295,23.040000000000003 154.32116637858294,-88.02089903894132&#10;c -25.919999999999998,-14.39727307875468 0,-25.459432845788314 61.678833621417056,-25.459432845788314&#10;c 55.97081951987508,0 81.89081951987508,17.02966256891003 55.97081951987508,80.94612316217604&#10;c -25.919999999999998,59.904 90.72,36.864000000000004 160.02918048012492,32.5342087225536 L 3456 0 " fill="none" stroke="black" stroke-width="0.1" style="vector-effect:non-scaling-stroke;" /></g><g><path d="M 0 0  L 0 921.600000  c 50.5100438021966,0.0 180.47864935699513,-23.040000000000003 150.23864935699513,97.63722711996843&#10;c -25.919999999999998,28.42867585007986 0,28.866444891825836 65.76135064300487,28.866444891825836&#10;c 30.265932210971073,0 56.185932210971075,-17.16026261419514 30.265932210971073,-32.74591422642327&#10;c -25.919999999999998,-59.904 90.72,-36.864000000000004 185.73406778902893,-93.757757785371 c 86.34509919227001,0.0 205.5147774440188,-23.040000000000003 175.27477744401878,15.172553927506097&#10;c -25.919999999999998,47.73157200147858 0,115.90946995547262 40.72522255598122,115.90946995547262&#10;c 51.149336461877056,0 77.06933646187706,-26.01415415114607 51.149336461877056,-113.75269868875662&#10;c -25.919999999999998,-59.904 90.72,-36.864000000000004 164.85066353812294,-17.329325194222093 c 118.42029179686375,-0.0 191.23046074284503,23.040000000000003 160.99046074284502,-50.97953713920961&#10;c -25.919999999999998,-38.09682834490165 0,-72.02981251726534 55.009539257154984,-72.02981251726534&#10;c 30.46947930717846,0 56.38947930717846,56.075550749949954 30.46947930717846,84.7876297217895&#10;c -25.919999999999998,59.904 90.72,36.864000000000004 185.53052069282154,38.22171993468545 c 24.13780372958434,-0.0 208.19614110992003,23.040000000000003 177.95614110992003,-63.6320736382749&#10;c -25.919999999999998,-19.65270316414331 0,-72.97871638279946 38.043858890079974,-72.97871638279946&#10;c 33.02967040519118,0 58.949670405191185,45.446646572896945 33.02967040519118,49.25627247781901&#10;c -25.919999999999998,59.904 90.72,36.864000000000004 182.97032959480882,87.35451754325535 c 22.08796252256166,-0.0 202.3640117404825,23.040000000000003 172.1240117404825,-40.171392769595116&#10;c -25.919999999999998,-95.25431824947957 0,-116.03590174157506 43.8759882595175,-116.03590174157506&#10;c 37.23197914609642,0 63.15197914609642,141.58423421581364 37.23197914609642,140.26862832412496&#10;c -25.919999999999998,59.904 90.72,36.864000000000004 178.76802085390358,15.938666187045214 c 38.952912603391894,0.0 184.9349655127498,-23.040000000000003 154.6949655127498,101.0392645800581&#10;c -25.919999999999998,7.173305561039105 0,15.490508609154361 61.3050344872502,15.490508609154361&#10;c 31.410290878985705,0 57.33029087898571,-47.91304097385721 31.410290878985705,-108.40288386137429&#10;c -25.919999999999998,-59.904 90.72,-36.864000000000004 184.5897091210143,-8.126889327838171 c 72.05935887521338,0.0 215.7477924540486,-23.040000000000003 185.5077924540486,41.62167198898596&#10;c -25.919999999999998,83.03214591664177 0,105.43068110667915 30.492207545951402,105.43068110667915&#10;c 48.91778052090143,0 74.83778052090143,-89.51818379061628 48.91778052090143,-150.11471380845978&#10;c -25.919999999999998,-59.904 90.72,-36.864000000000004 167.08221947909857,3.0623607127946855 c 47.71813609564282,0.0 209.88007314929442,-23.040000000000003 179.6400731492944,95.42317945082371&#10;c -25.919999999999998,10.60275464050317 0,27.718504917604506 36.35992685070559,27.718504917604506&#10;c 52.57457611603371,0 78.49457611603371,-57.67302508316958 52.57457611603371,-65.23322989329832&#10;c -25.919999999999998,-59.904 90.72,-36.864000000000004 163.4254238839663,-57.9084544751299 L 3456 0 " fill="none" stroke="black" stroke-width="0.1" style="vector-effect:non-scaling-stroke;" /></g><g><path d="M 0 0  L 0 1382.400000  c 26.074321054596858,-0.0 191.71634341222588,23.040000000000003 161.47634341222587,-18.686629503008866&#10;c -25.919999999999998,-81.63814552594964 0,-94.44702440151349 54.52365658777413,-94.44702440151349&#10;c 53.0330780872672,0 78.9530780872672,21.621300664406164 53.0330780872672,92.98265571811542&#10;c -25.919999999999998,59.904 90.72,36.864000000000004 162.9669219127328,20.150998186406937 c 32.8187659620502,0.0 201.47484151171557,-23.040000000000003 171.23484151171556,-5.332251421304358&#10;c -25.919999999999998,95.73412032141354 0,122.08912078539004 44.76515848828444,122.08912078539004&#10;c 50.19799436649254,0 76.11799436649254,-5.651886186956296 50.19799436649254,-22.486672568492395&#10;c -25.919999999999998,-59.904 90.72,-36.864000000000004 165.80200563350746,-94.27019679559328 c 55.878435973876456,-0.0 199.52669147460256,23.040000000000003 169.28669147460255,-58.0198899519292&#10;c -25.919999999999998,-49.60496375258982 0,-53.11052726347886 46.71330852539745,-53.11052726347886&#10;c 30.950564227851373,0 56.870564227851375,44.135481767623496 30.950564227851373,59.6295520749269&#10;c -25.919999999999998,59.904 90.72,36.864000000000004 185.04943577214863,51.50086514048116 c 55.622313437017866,-0.0 194.96630976934355,23.040000000000003 164.72630976934354,-94.54497385286713&#10;c -25.919999999999998,-21.54876488938125 0,-44.9750958364822 51.273690230656456,-44.9750958364822&#10;c 60.26711115128279,0 86.18711115128279,120.3724329982948 60.26711115128279,124.41287833359951&#10;c -25.919999999999998,59.904 90.72,36.864000000000004 155.7328888487172,15.10719135574982 c 73.26568667733036,-0.0 215.44703518108557,23.040000000000003 185.20703518108556,-32.8517589632384&#10;c -25.919999999999998,-95.63063199418305 0,-99.78612244951651 30.79296481891444,-99.78612244951651&#10;c 37.482220474954346,0 63.40222047495435,57.630033892561045 37.482220474954346,90.10934659497889&#10;c -25.919999999999998,59.904 90.72,36.864000000000004 178.51777952504565,42.528534817776034 c 32.459701979665795,0.0 187.61006597842356,-23.040000000000003 157.37006597842355,34.92172474142505&#10;c -25.919999999999998,110.99080532149028 0,115.31001120435268 58.629934021576446,115.31001120435268&#10;c 47.81316762951201,0 73.73316762951201,-77.92326034808617 47.81316762951201,-107.80720239910741&#10;c -25.919999999999998,-59.904 90.72,-36.864000000000004 168.186832370488,-42.42453354667032 c 26.683231876136084,-0.0 199.64206609440396,23.040000000000003 169.40206609440395,-30.53285340626571&#10;c -25.919999999999998,-69.9331803392525 0,-109.62001787062036 46.59793390559605,-109.62001787062036&#10;c 41.331251973763585,0 67.25125197376359,53.370650569998595 41.331251973763585,63.687513476307274&#10;c -25.919999999999998,59.904 90.72,36.864000000000004 174.66874802623641,76.46535780057879 c 121.1740387580934,-0.0 185.44808732580262,23.040000000000003 155.2080873258026,-33.66328378316566&#10;c -25.919999999999998,-94.59416106061906 0,-116.3116192301847 60.79191267419739,-116.3116192301847&#10;c 57.545023526846876,0 83.46502352684688,89.3067892421466 57.545023526846876,146.75392250416638&#10;c -25.919999999999998,59.904 90.72,36.864000000000004 158.45497647315312,3.2209805091839883 L 3456 0 " fill="none" stroke="black" stroke-width="0.1" style="vector-effect:non-scaling-stroke;" /></g><g><path d="M 0 0  L 0 1843.200000  c 64.74327876536238,0.0 205.91748442230735,-23.040000000000003 175.67748442230734,46.78457332262907&#10;c -25.919999999999998,26.422886608600454 0,88.13471274472137 40.322515577692656,88.13471274472137&#10;c 41.29404506847794,0 67.21404506847794,-42.45745506852442 41.29404506847794,-63.68900202806367&#10;c -25.919999999999998,-59.904 90.72,-36.864000000000004 174.70595493152206,-71.23028403928677 c 55.94638388188424,0.0 188.5573576578789,-23.040000000000003 158.3173576578789,61.16652494807187&#10;c -25.919999999999998,51.03610070430634 0,89.04616583247045 57.68264234212111,89.04616583247045&#10;c 39.06585063030718,0 64.98585063030718,-54.0912916726659 39.06585063030718,-55.86727413994163&#10;c -25.919999999999998,-59.904 90.72,-36.864000000000004 176.93414936969282,-94.34541664060069 c 84.94693144888419,0.0 200.23011065642328,-23.040000000000003 169.99011065642327,-2.9515452057488916&#10;c -25.919999999999998,115.20449883226979 0,126.1227083568357 46.00988934357673,126.1227083568357&#10;c 62.97473544662466,0 88.89473544662467,-52.411544861991025 62.97473544662466,-60.93392628171858&#10;c -25.919999999999998,-59.904 90.72,-36.864000000000004 153.02526455337534,-62.23723686936824 c 114.63230709204674,-0.0 188.34766812579196,23.040000000000003 158.10766812579195,-49.172347492816876&#10;c -25.919999999999998,-79.37027673936709 0,-85.84466576310749 57.892331874208054,-85.84466576310749&#10;c 59.37031919955848,0 85.29031919955848,57.86259955667523 59.37031919955848,63.44712623033351&#10;c -25.919999999999998,59.904 90.72,36.864000000000004 156.62968080044152,71.56988702559084 c 55.33052698422701,-0.0 194.7603097429842,23.040000000000003 164.52030974298418,-72.64255787479705&#10;c -25.919999999999998,-75.13574806923351 0,-81.38607118408693 51.47969025701582,-81.38607118408693&#10;c 30.287193323545097,0 56.2071933235451,151.02089456510248 30.287193323545097,158.58704900229822&#10;c -25.919999999999998,59.904 90.72,36.864000000000004 185.7128066764549,-4.558419943414236 c 43.36775258171523,-0.0 201.24675604240977,23.040000000000003 171.00675604240976,-80.96200933214797&#10;c -25.919999999999998,-49.39363611629773 0,-59.91165845538683 44.99324395759024,-59.91165845538683&#10;c 49.35415734194265,0 75.27415734194265,30.53354533171229 49.35415734194265,82.0503165527856&#10;c -25.919999999999998,59.904 90.72,36.864000000000004 166.64584265805735,58.8233512347492 c 97.18026362299663,-0.0 179.171294047784,23.040000000000003 148.93129404778398,-83.69732194737513&#10;c -25.919999999999998,-43.831803314430026 0,-48.291730145610316 67.06870595221602,-48.291730145610316&#10;c 38.37086059070455,0 64.29086059070455,45.508375869421855 38.37086059070455,53.987087021645195&#10;c -25.919999999999998,59.904 90.72,36.864000000000004 177.62913940929545,78.00196507134025 c 83.07369527805545,0.0 209.77859537475754,-23.040000000000003 179.53859537475753,71.85728952573285&#10;c -25.919999999999998,53.43110167737637 0,62.95550669871963 36.461404625242466,62.95550669871963&#10;c 66.62962337874717,0 92.54962337874717,-67.47952901166998 66.62962337874717,-143.00704868870747&#10;c -25.919999999999998,-59.904 90.72,-36.864000000000004 149.37037662125283,8.194252464254987 L 3456 0 " fill="none" stroke="black" stroke-width="0.1" style="vector-effect:non-scaling-stroke;" /></g></g></svg>