<svg baseProfile="full" height="3168" preserveAspectRatio="none" shape-rendering="geometricPrecision" version="1.1" viewBox="0,0,4752,3168" width="4752" xmlns="http://www.w3.org/2000/svg" xmlns:ev="http://www.w3.org/2001/xml-events" xmlns:xlink="http://www.w3.org/1999/xlink"><title>Jigsaw puzzle piece clips</title><desc>Created with the piecemaker. Piece count: 48</desc><defs/><g><g><rect fill="white" height="3168" width="4752" x="0" y="0"/></g></g><g><g><path d="M 0 0  L 594.000000 0  c -0.0,124.30326956767657 29.700000000000003,245.54299099799715 -10.996648352817601,208.58299099799714
c -83.90971601511984,-31.68 -175.61881474365927,0 -175.61881474365927,55.41700900200286
c 0,71.01063301572623 84.01309581216994,102.69063301572623 85.21518248851778,71.01063301572623
c 77.22,-31.68 47.52,110.88 101.40028060795909,192.98936698427377 c -0.0,55.413631394219955 29.700000000000003,241.57559826846818 -51.278605304847346,204.61559826846818
c -70.38138625114877,-31.68 -97.9478520993202,0 -97.9478520993202,59.384401731531824
c 0,37.01411828062584 122.63611268659507,68.69411828062584 141.85332902758543,37.01411828062584
c 77.22,-31.68 47.52,110.88 7.373128376582116,226.98588171937416 c 0.0,135.69052357085405 -29.700000000000003,230.5883485075984 125.63434531613126,193.6283485075984
c 19.9265558530948,-31.68 68.12834533621341,0 68.12834533621341,70.37165149240161
c 0,62.96709508894247 -60.92283966037174,94.64709508894248 -180.57224751959717,62.96709508894247
c -77.22,-31.68 -47.52,110.88 -13.190443132747504,201.03290491105753 c 0.0,142.29614334675205 -29.700000000000003,257.3274568009288 60.00668602667252,220.36745680092884
c 96.48156672843992,-31.68 106.88961557221819,0 106.88961557221819,43.632543199071165
c 0,81.32406934098003 -32.0065663330321,113.00406934098004 -116.85176765802117,81.32406934098003
c -77.22,-31.68 -47.52,110.88 -50.04453394086954,182.67593065901997 c 0.0,128.7715366042611 -29.700000000000003,262.021321432062 80.55809098609548,225.06132143206202
c 43.58911531503066,-31.68 69.51495488517689,0 69.51495488517689,38.938678567937984
c 0,76.22096432442532 -103.91690866338502,107.90096432442533 -107.10723024893032,76.22096432442532
c -77.22,-31.68 -47.52,110.88 -42.96581562234205,187.77903567557468 c -0.0,31.521145378411465 29.700000000000003,234.94055816441843 -73.14119625916214,197.98055816441843
c -36.250034502113714,-31.68 -125.56761137047016,0 -125.56761137047016,66.01944183558157
c 0,55.167906432008465 123.2010843290102,86.84790643200847 149.55941251006223,55.167906432008465
c 77.22,-31.68 47.52,110.88 49.14939511957007,208.83209356799154 L 0 3168 " fill="none" stroke="black" stroke-width="0.1" style="vector-effect:non-scaling-stroke;"/></g><g><path d="M 0 0  L 1188.000000 0  c 0.0,74.30266293012527 -29.700000000000003,243.76578678133012 130.48966961981532,206.8057867813301
c 10.855857925339352,-31.68 23.890455010578194,0 23.890455010578194,57.19421321866989
c 0,57.0651140820998 -18.749756816171722,88.7451140820998 -69.71835431247035,57.0651140820998
c -77.22,-31.68 -47.52,110.88 -84.66177031792316,206.9348859179002 c 0.0,88.70000370350242 -29.700000000000003,239.39592357414696 6.367190756289545,202.43592357414695
c 96.2962131587749,-31.68 150.06209191752973,0 150.06209191752973,61.564076425853045
c 0,67.20178313684465 -37.473233696911855,98.88178313684466 -78.06314821615427,67.20178313684465
c -77.22,-31.68 -47.52,110.88 -78.366134457665,196.79821686315535 c 0.0,95.00688315609942 -29.700000000000003,234.11279863687275 5.633872618609067,197.15279863687275
c 107.4408050022864,-31.68 153.88590836730975,0 153.88590836730975,66.84720136312725
c 0,69.55208767498863 -70.20359323373143,101.23208767498863 -125.40098306524897,69.55208767498863
c -77.22,-31.68 -47.52,110.88 -34.11879792066986,194.44791232501137 c 0.0,130.44265778616386 -29.700000000000003,230.87598320054508 92.12738406608048,193.91598320054507
c 15.52145378980408,-31.68 66.1626309669374,0 66.1626309669374,70.08401679945493
c 0,73.41832149691527 -62.06784171550212,105.09832149691528 -83.5676475340082,73.41832149691527
c -77.22,-31.68 -47.52,110.88 -74.72236749900968,190.58167850308473 c -0.0,48.90702872798981 29.700000000000003,249.41540305099792 -8.818718213120022,212.45540305099792
c -50.15433234982969,-31.68 -151.36243666192735,0 -151.36243666192735,51.544596949002084
c 0,60.99031438262921 49.14681689258236,92.67031438262921 96.72539847212906,60.99031438262921
c 77.22,-31.68 47.52,110.88 63.4557564029183,203.0096856173708 c -0.0,101.60036610926284 29.700000000000003,226.6315650394115 -61.1211531443198,189.6715650394115
c -80.91068581084225,-31.68 -101.05198629042408,0 -101.05198629042408,74.32843496058851
c 0,73.85290120762255 97.41308140711318,105.53290120762256 145.91677382119073,73.85290120762255
c 77.22,-31.68 47.52,110.88 16.256365613553157,190.14709879237745 L 0 3168 " fill="none" stroke="black" stroke-width="0.1" style="vector-effect:non-scaling-stroke;"/></g><g><path d="M 0 0  L 1782.000000 0  c 0.0,44.618405465368525 -29.700000000000003,245.08797036897633 -9.389792930208698,208.12797036897632
c 122.79293709187974,-31.68 208.39114258981272,0 208.39114258981272,55.87202963102368
c 0,53.019520546479555 -73.75788033287297,84.69952054647956 -91.06304053529811,53.019520546479555
c -77.22,-31.68 -47.52,110.88 -107.9383091243059,210.98047945352045 c 0.0,63.01630639601527 -29.700000000000003,224.50575700109533 13.420889290088759,187.54575700109532
c 57.972151874025755,-31.68 185.41664252400435,0 185.41664252400435,76.45424299890468
c 0,51.79770061138703 -28.88769684448086,83.47770061138704 -108.02094401957699,51.79770061138703
c -77.22,-31.68 -47.52,110.88 -90.81658779451611,212.20229938861297 c -0.0,89.65913441337005 29.700000000000003,226.2608297264911 -112.41920370582261,189.3008297264911
c -13.77195765457009,-31.68 -46.32672089197854,0 -46.32672089197854,74.69917027350891
c 0,71.318732913659 47.486454175202574,102.99873291365901 132.65076150301783,71.318732913659
c 77.22,-31.68 47.52,110.88 26.095163094783317,192.681267086341 c 0.0,42.56100030034449 -29.700000000000003,261.6670806638402 84.06567909490319,224.7070806638402
c 73.06897720441268,-31.68 81.02974938085823,0 81.02974938085823,39.2929193361598
c 0,54.70008961506352 -100.67907923645075,86.38008961506353 -108.30130559101408,54.70008961506352
c -77.22,-31.68 -47.52,110.88 -56.79412288474734,209.29991038493648 c 0.0,125.86791362255862 -29.700000000000003,237.63698657162928 61.97207139536035,200.67698657162927
c 55.61866923039661,-31.68 91.13813172442528,0 91.13813172442528,63.32301342837073
c 0,46.8517553310225 -33.08004602232484,78.53175533102251 -79.19854027620121,46.8517553310225
c -77.22,-31.68 -47.52,110.88 -73.91166284358442,217.1482446689775 c 0.0,142.55813771540286 -29.700000000000003,259.47090410288234 129.2888409712189,222.51090410288234
c 16.415467332951277,-31.68 51.711477134944374,0 51.711477134944374,41.489095897117664
c 0,50.41105784506715 -43.99786005330602,82.09105784506716 -144.2782240581492,50.41105784506715
c -77.22,-31.68 -47.52,110.88 -36.72209404801407,213.58894215493285 L 0 3168 " fill="none" stroke="black" stroke-width="0.1" style="vector-effect:non-scaling-stroke;"/></g><g><path d="M 0 0  L 2376.000000 0  c 0.0,59.3416318428805 -29.700000000000003,263.17417901974056 30.543359678355433,226.21417901974056
c 38.17317798743708,-31.68 123.65295586838538,0 123.65295586838538,37.785820980259444
c 0,83.93393466641709 -58.835340157962804,115.6139346664171 -79.98827268656244,83.93393466641709
c -77.22,-31.68 -47.52,110.88 -74.20804286017837,180.0660653335829 c 0.0,138.45998320688935 -29.700000000000003,259.1884792625002 88.92453301754499,222.22847926250023
c 104.90572422160777,-31.68 108.13182006871291,0 108.13182006871291,41.77152073749977
c 0,53.04718463068241 -50.01007768130512,84.72718463068242 -84.11564558228035,53.04718463068241
c -77.22,-31.68 -47.52,110.88 -112.94070750397755,210.9528153693176 c 0.0,104.74667163392655 -29.700000000000003,225.02624966537815 30.623732977947004,188.06624966537814
c 53.760176380575764,-31.68 155.2243852423599,0 155.2243852423599,75.93375033462186
c 0,60.25330207882661 -99.33245486783436,91.93330207882661 -130.87140363405342,60.25330207882661
c -77.22,-31.68 -47.52,110.88 -54.97671458625348,203.7466979211734 c 0.0,131.26550043196008 -29.700000000000003,223.96332025397808 24.433436350942234,187.00332025397807
c 56.315069728623556,-31.68 139.6340397605717,0 139.6340397605717,76.99667974602193
c 0,62.38208521584892 -101.05539209695247,94.06208521584892 -124.24505134624984,62.38208521584892
c -77.22,-31.68 -47.52,110.88 -39.8224247652641,201.61791478415108 c 0.0,151.6718887156016 -29.700000000000003,263.30070490942234 54.77789453879703,226.34070490942233
c 49.94622122855027,-31.68 131.17966385644593,0 131.17966385644593,37.65929509057767
c 0,61.547927780778195 -125.64210451403083,93.2279277807782 -174.2722848191071,61.547927780778195
c -77.22,-31.68 -47.52,110.88 -11.685273576135842,202.4520722192218 c 0.0,31.24158363439889 -29.700000000000003,231.66749012569713 79.4215518061986,194.70749012569712
c 65.83586427453822,-31.68 85.26728540139406,0 85.26728540139406,69.29250987430288
c 0,41.05229399532681 -79.77205315670308,72.73229399532681 -83.1636843056384,41.05229399532681
c -77.22,-31.68 -47.52,110.88 -81.52515290195426,222.9477060046732 L 0 3168 " fill="none" stroke="black" stroke-width="0.1" style="vector-effect:non-scaling-stroke;"/></g><g><path d="M 0 0  L 2970.000000 0  c -0.0,97.47060061346218 29.700000000000003,236.45072985901692 10.003586728446203,199.4907298590169
c -180.1511991596586,-31.68 -186.33946401221235,0 -186.33946401221235,64.50927014098309
c 0,72.346741141515 51.1854756789259,104.026741141515 89.91160310280894,72.346741141515
c 77.22,-31.68 47.52,110.88 86.4242741809572,191.653258858485 c -0.0,68.41538184816007 29.700000000000003,219.08298983897532 11.299699851441009,182.12298983897531
c -155.8622504251864,-31.68 -172.81441572437882,0 -172.81441572437882,81.87701016102469
c 0,47.143225993906185 19.054073664253945,78.82322599390619 44.94445510674025,47.143225993906185
c 77.22,-31.68 47.52,110.88 116.57026076619756,216.85677400609381 c -0.0,123.45327179671575 29.700000000000003,219.7506874124604 -31.36779546592912,182.7906874124604
c -89.47688655782852,-31.68 -124.50901573491986,0 -124.50901573491986,81.20931258753961
c 0,56.081336415193505 64.25832559029296,87.76133641519351 127.69875375198727,56.081336415193505
c 77.22,-31.68 47.52,110.88 28.178057448861708,207.9186635848065 c -0.0,71.58104240439143 29.700000000000003,218.31812908708943 -80.4470703036153,181.35812908708942
c -115.43156583204248,-31.68 -114.29875942840016,0 -114.29875942840016,82.64187091291058
c 0,64.4303519296542 132.75063083421085,96.1103519296542 156.64391397700768,64.4303519296542
c 77.22,-31.68 47.52,110.88 38.10191575500778,199.5696480703458 c 0.0,69.88174834804536 -29.700000000000003,236.28236476829974 94.15575861449403,199.32236476829974
c 63.79285119542261,-31.68 104.4862479274172,0 104.4862479274172,64.67763523170026
c 0,67.14464156955461 -36.65839972556386,98.82464156955461 -71.44640043725244,67.14464156955461
c -77.22,-31.68 -47.52,110.88 -127.1956061046588,196.8553584304454 c -0.0,103.28580489893645 29.700000000000003,227.9159752298818 -75.07484200865156,190.9559752298818
c -71.78917800796258,-31.68 -78.65893598877696,0 -78.65893598877696,73.0440247701182
c 0,75.00968394127187 25.460943116962795,106.68968394127188 98.17317578724683,75.00968394127187
c 77.22,-31.68 47.52,110.88 55.560602210181685,188.99031605872813 L 0 3168 " fill="none" stroke="black" stroke-width="0.1" style="vector-effect:non-scaling-stroke;"/></g><g><path d="M 0 0  L 3564.000000 0  c 0.0,80.22698096012529 -29.700000000000003,232.370232432208 -3.2593403612877117,195.410232432208
c 139.4652923747858,-31.68 201.6469660848926,0 201.6469660848926,68.589767567792
c 0,55.159763952980086 -68.47802164553295,86.83976395298009 -83.68845758287353,55.159763952980086
c -77.22,-31.68 -47.52,110.88 -114.69916814073136,208.8402360470199 c 0.0,111.48589719458747 -29.700000000000003,250.12051562714166 22.45583852368721,213.16051562714165
c 145.46742449036026,-31.68 160.50532657965545,0 160.50532657965545,50.83948437285835
c 0,58.40054806164028 -21.663769826213343,90.08054806164029 -103.07042049596497,58.40054806164028
c -77.22,-31.68 -47.52,110.88 -79.8907446073777,205.59945193835972 c -0.0,47.088254021405305 29.700000000000003,222.8635983216751 -28.285887527623768,185.9035983216751
c -88.86516867315545,-31.68 -151.48813669032117,0 -151.48813669032117,78.0964016783249
c 0,51.89181704303229 145.82028998009508,83.5718170430323 175.07330250280697,51.89181704303229
c 77.22,-31.68 47.52,110.88 4.700721715137973,212.1081829569677 c -0.0,113.44946704213024 29.700000000000003,228.19607428078592 -105.40723478556404,191.2360742807859
c -38.60696528924858,-31.68 -95.92935230419889,0 -95.92935230419889,72.76392571921409
c 0,76.15614847188203 97.68471416918287,107.83614847188204 181.1770702751866,76.15614847188203
c 77.22,-31.68 47.52,110.88 20.159516814576335,187.84385152811797 c -0.0,113.42820287326835 29.700000000000003,231.12717722079583 -24.071610218739707,194.16717722079582
c -146.82531972538075,-31.68 -149.15481133774932,0 -149.15481133774932,69.83282277920418
c 0,76.53771101013314 68.81013626418226,108.21771101013314 78.04235581877937,76.53771101013314
c 77.22,-31.68 47.52,110.88 95.18406573770964,187.46228898986686 c 0.0,70.58277662757776 -29.700000000000003,252.6773679748063 96.91365333011859,215.71736797480628
c 42.961563455287695,-31.68 104.52213184411661,0 104.52213184411661,48.28263202519372
c 0,61.92552957371646 -46.352266548171826,93.60552957371647 -109.5172944292145,61.92552957371646
c -77.22,-31.68 -47.52,110.88 -91.9184907450207,202.07447042628354 L 0 3168 " fill="none" stroke="black" stroke-width="0.1" style="vector-effect:non-scaling-stroke;"/></g><g><path d="M 0 0  L 4158.000000 0  c -0.0,74.53918885465018 29.700000000000003,248.64508587149982 -119.91969703090166,211.6850858714998
c -16.579977936103074,-31.68 -46.219251746449714,0 -46.219251746449714,52.31491412850019
c 0,75.00823675135467 27.552151237310866,106.68823675135468 129.3007325414785,75.00823675135467
c 77.22,-31.68 47.52,110.88 36.83821623587286,188.99176324864533 c -0.0,52.83733786216606 29.700000000000003,218.41781507637168 -120.4701443833624,181.45781507637167
c -15.485022947254345,-31.68 -72.90982546520272,0 -72.90982546520272,82.54218492362833
c 0,43.966549463040906 143.5024017485993,75.64654946304091 169.73404523443622,43.966549463040906
c 77.22,-31.68 47.52,110.88 23.645924614128887,220.0334505369591 c 0.0,51.33682248145317 -29.700000000000003,258.6672483588263 54.681490899393395,221.70724835882635
c 46.26302940244479,-31.68 108.00118721663296,0 108.00118721663296,42.29275164117365
c 0,65.45719369645764 -51.77087566806525,97.13719369645764 -98.42534426325638,65.45719369645764
c -77.22,-31.68 -47.52,110.88 -64.25733385276997,198.54280630354236 c -0.0,114.26481282869459 29.700000000000003,254.5356188720023 -102.62469789878683,217.57561887200228
c -36.865311715050716,-31.68 -76.59025139188616,0 -76.59025139188616,46.42438112799772
c 0,63.758424243301306 163.01082503296118,95.43842424330131 178.0471152856487,63.758424243301306
c 77.22,-31.68 47.52,110.88 1.1678340050243037,200.2415757566987 c 0.0,119.10371235812435 -29.700000000000003,263.28050219007554 40.41795371776661,226.32050219007556
c 68.7657116638502,-31.68 132.30994747549354,0 132.30994747549354,37.67949780992444
c 0,43.1296142956258 -41.3288110150326,74.8096142956258 -72.18471004869875,43.1296142956258
c -77.22,-31.68 -47.52,110.88 -100.5431911445614,220.8703857043742 c 0.0,134.66779472775826 -29.700000000000003,232.964225294863 46.332124965873824,196.004225294863
c 30.84184234611373,-31.68 96.33412816389111,0 96.33412816389111,67.995774705137
c 0,37.78246248534822 -24.695513898748377,69.46246248534823 -104.12611897493497,37.78246248534822
c -77.22,-31.68 -47.52,110.88 -38.54013415482996,226.21753751465178 L 0 3168 " fill="none" stroke="black" stroke-width="0.1" style="vector-effect:non-scaling-stroke;"/></g></g><g><g><path d="M 0 0  L 0 528.000000  c 103.30732859794337,0.0 256.4606328164693,-26.400000000000002 214.8806328164693,60.20446678699113
c -35.64,19.019946114159477 0,83.63256535801932 82.1193671835307,83.63256535801932
c 90.24908149019171,0 125.88908149019171,-57.3320851483773 90.24908149019171,-58.21063784197901
c -35.64,-68.64 124.74,-42.24 206.7509185098083,-85.62639430303145 c 157.8993616500914,0.0 261.010274658501,-26.400000000000002 219.430274658501,42.035432351367525
c -35.64,21.909997701883817 0,93.69675495019905 77.56972534149901,93.69675495019905
c 81.2812377645584,0 116.9212377645584,-61.13364339288983 81.2812377645584,-88.64990057308387
c -35.64,-68.64 124.74,-42.24 215.7187622354416,-47.0822867284827 c 139.1262224920436,0.0 260.21280322748714,-26.400000000000002 218.63280322748713,84.65836892948226
c -35.64,63.977705592592805 0,73.90169888158476 78.36719677251287,73.90169888158476
c 43.907678633224066,0 79.54767863322407,-54.90360627313228 43.907678633224066,-130.1314863016494
c -35.64,-68.64 124.74,-42.24 253.09232136677593,-28.428581509417626 c 56.13783126147479,-0.0 278.2898520669312,26.400000000000002 236.7098520669312,-22.63548052328463
c -35.64,-28.36042811632697 0,-131.56202998110493 60.290147933068795,-131.56202998110493
c 75.81683064579829,0 111.45683064579829,22.093717830297194 75.81683064579829,57.20571232065069
c -35.64,68.64 124.74,42.24 221.1831693542017,96.99179818373887 c 38.6586572737162,-0.0 262.74836618969505,26.400000000000002 221.16836618969504,-63.60332269924621
c -35.64,-44.17242536999396 0,-102.79209567945713 75.83163381030496,-102.79209567945713
c 86.12529676990135,0 121.76529676990135,45.94802808170637 86.12529676990135,74.01505213752058
c -35.64,68.64 124.74,42.24 210.87470323009865,92.38036624118276 c 129.92801188361275,0.0 257.13657539811595,-26.400000000000002 215.55657539811597,12.054287386779864
c -35.64,35.89304108840276 0,145.74040816589832 81.44342460188403,145.74040816589832
c 70.50329380004848,0 106.14329380004848,-85.56318542864561 70.50329380004848,-88.91312650742891
c -35.64,-68.64 124.74,-42.24 226.49670619995152,-68.88156904524926 c 113.32661380894176,0.0 272.67836005672075,-26.400000000000002 231.09836005672076,101.1371778241615
c -35.64,35.317430126304124 0,49.39424311080033 65.90163994327924,49.39424311080033
c 47.52654115167388,0 83.16654115167388,-22.41863994836821 47.52654115167388,-56.74509909021417
c -35.64,-68.64 124.74,-42.24 249.47345884832612,-93.78632184474766 c 117.28620097008803,-0.0 255.7985432302337,26.400000000000002 214.21854323023368,-15.636888023588323
c -35.64,-58.283147980915494 0,-160.25824800178836 82.78145676976632,-160.25824800178836
c 44.28634481651221,0 79.92634481651221,58.57005281086115 44.28634481651221,73.74980543574986
c -35.64,68.64 124.74,42.24 252.7136551834878,102.14533058962681 L 4752 0 " fill="none" stroke="black" stroke-width="0.1" style="vector-effect:non-scaling-stroke;"/></g><g><path d="M 0 0  L 0 1056.000000  c 107.88699734240387,0.0 256.72625800216036,-26.400000000000002 215.14625800216035,95.7089161997776
c -35.64,27.03456800726479 0,64.61967780675221 81.85374199783965,64.61967780675221
c 56.22069430421783,0 91.86069430421783,-126.22475691784305 56.22069430421783,-166.67947609299043
c -35.64,-68.64 124.74,-42.24 240.77930569578217,6.350882086460615 c 59.42771249006367,0.0 264.81458744882264,-26.400000000000002 223.23458744882265,96.76403830093948
c -35.64,14.228235960249163 0,66.28529340844248 73.76541255117735,66.28529340844248
c 61.35683277212945,0 96.99683277212945,-78.70226461012723 61.35683277212945,-146.31468539166562
c -35.64,-68.64 124.74,-42.24 235.64316722787055,-16.73464631771634 c 53.09568927520273,-0.0 285.624468123874,26.400000000000002 244.04446812387403,-63.88805219952797
c -35.64,-78.10482467609273 0,-100.06225162708785 52.955531876125974,-100.06225162708785
c 49.040115391479105,0 84.6801153914791,94.09993818945664 49.040115391479105,156.5465467415571
c -35.64,68.64 124.74,42.24 247.9598846085209,7.403757085058714 c 155.86027302427917,-0.0 243.9636880585393,26.400000000000002 202.3836880585393,-8.98900186330298
c -35.64,-76.72491098039734 0,-125.824126451886 94.61631194146071,-125.824126451886
c 81.35795160206607,0 116.99795160206607,58.56383863118919 81.35795160206607,84.61447233213914
c -35.64,68.64 124.74,42.24 215.64204839793393,50.19865598304983 c 135.78889829860117,-0.0 290.8124499566183,26.400000000000002 249.23244995661832,-76.83151284340757
c -35.64,-43.787242028069805 0,-79.5129638596316 47.767550043381675,-79.5129638596316
c 80.33792139731389,0 115.97792139731389,49.25805396867813 80.33792139731389,161.96162620891533
c -35.64,68.64 124.74,42.24 216.6620786026861,-5.617149505876171 c 139.2265640860567,-0.0 249.2646735895137,26.400000000000002 207.6846735895137,-93.18347054796669
c -35.64,-24.324136756888333 0,-53.896294616077626 89.3153264104863,-53.896294616077626
c 71.57692538727986,0 107.21692538727986,17.47154855344386 71.57692538727986,30.920644143301658
c -35.64,68.64 124.74,42.24 225.42307461272014,116.15912102074266 c 168.05200546899778,0.0 247.50387127704946,-26.400000000000002 205.92387127704944,10.125820299972196
c -35.64,72.21795157762352 0,164.17328487856219 91.07612872295056,164.17328487856219
c 84.06332187117869,0 119.70332187117869,-96.47932830161143 84.06332187117869,-156.23006583478517
c -35.64,-68.64 124.74,-42.24 212.9366781288213,-18.06903934374921 c 29.8509838656189,-0.0 261.7804314915169,26.400000000000002 220.2004314915169,-37.49737014787909
c -35.64,-29.58696493158371 0,-114.79223913418008 76.7995685084831,-114.79223913418008
c 48.89018080693796,0 84.53018080693796,39.24212275291668 48.89018080693796,93.3536517392648
c -35.64,68.64 124.74,42.24 248.10981919306204,58.935957542794355 L 4752 0 " fill="none" stroke="black" stroke-width="0.1" style="vector-effect:non-scaling-stroke;"/></g><g><path d="M 0 0  L 0 1584.000000  c 32.89462326581896,-0.0 267.9678096746273,26.400000000000002 226.3878096746273,-84.17759039210047
c -35.64,-51.04943081754489 0,-92.69979596543867 70.6121903253727,-92.69979596543867
c 72.400175690678,0 108.040175690678,39.74031376684098 72.400175690678,95.26032057170401
c -35.64,68.64 124.74,42.24 224.599824309322,81.61706578583512 c 153.2283666878208,0.0 254.04022747478342,-26.400000000000002 212.4602274747834,8.175709903565114
c -35.64,63.810750112797614 0,150.73607664629714 84.53977252521659,150.73607664629714
c 80.84519015758366,0 116.48519015758366,-73.5136413770523 80.84519015758366,-76.63058972775012
c -35.64,-68.64 124.74,-42.24 216.15480984241634,-82.28119682211214 c 122.11535137652596,0.0 254.8620770059299,-26.400000000000002 213.2820770059299,81.23227809196482
c -35.64,31.293403119457476 0,71.74508596464818 83.71792299407011,71.74508596464818
c 67.49493806874642,0 103.13493806874642,-83.909579811197 67.49493806874642,-87.02819222712854
c -35.64,-68.64 124.74,-42.24 229.50506193125358,-65.94917182948446 c 102.40141983493405,0.0 275.57438706838184,-26.400000000000002 233.99438706838185,-10.014532252966049
c -35.64,109.46926159099579 0,188.38725455792672 63.005612931618145,188.38725455792672
c 67.67515367604466,0 103.31515367604466,-95.0290305592845 67.67515367604466,-178.167647573977
c -35.64,-68.64 124.74,-42.24 229.32484632395534,-0.20507473098368223 c 126.81301733102734,0.0 260.0953214842882,-26.400000000000002 218.5153214842882,52.598918721285834
c -35.64,49.45300464293645 0,101.50849232995498 78.4846785157118,101.50849232995498
c 59.63439286133456,0 95.27439286133456,-36.36554822110783 59.63439286133456,-50.32838207343731
c -35.64,-68.64 124.74,-42.24 237.36560713866544,-103.77902897780349 c 56.53604561659863,0.0 260.843202059952,-26.400000000000002 219.263202059952,-3.209804581478775
c -35.64,131.10757469734423 0,139.61311337695315 77.736797940048,139.61311337695315
c 90.27052134615894,0 125.91052134615894,-45.48353134975182 90.27052134615894,-52.530247295966234
c -35.64,-68.64 124.74,-42.24 206.72947865384106,-83.87306149950814 c 158.76351054879416,-0.0 245.06065672408974,26.400000000000002 203.48065672408973,9.485068357926234
c -35.64,-64.71347706265853 0,-159.47999061100484 93.51934327591027,-159.47999061100484
c 68.75608374089916,0 104.39608374089916,50.35990515632395 68.75608374089916,148.27305990314403
c -35.64,68.64 124.74,42.24 228.24391625910084,1.7218623499345824 c 83.45856331173512,-0.0 263.645641695773,26.400000000000002 222.065641695773,-11.452577485003165
c -35.64,-100.73342559976582 0,-157.63012065454512 74.934358304227,-157.63012065454512
c 87.99462790730661,0 123.63462790730661,17.138698522294213 87.99462790730661,63.40506652628039
c -35.64,68.64 124.74,42.24 209.0053720926934,105.67763161326789 L 4752 0 " fill="none" stroke="black" stroke-width="0.1" style="vector-effect:non-scaling-stroke;"/></g><g><path d="M 0 0  L 0 2112.000000  c 156.56767701075375,-0.0 263.1473052221997,26.400000000000002 221.5673052221997,-104.88357778095953
c -35.64,-54.04604173913511 0,-68.62584660453358 75.4326947778003,-68.62584660453358
c 73.29026998664176,0 108.93026998664176,81.18192975550086 73.29026998664176,125.08176278938154
c -35.64,68.64 124.74,42.24 223.70973001335824,48.42766159611156 c 143.45140226159307,0.0 256.0745946624832,-26.400000000000002 214.49459466248322,9.206013015708148
c -35.64,83.96933319948037 0,169.2684835255677 82.50540533751678,169.2684835255677
c 68.67663918338138,0 104.31663918338138,-81.98596964907385 68.67663918338138,-149.95251055695542
c -35.64,-68.64 124.74,-42.24 228.32336081661862,-28.521985984320423 c 124.77110472688317,-0.0 274.27858495415245,26.400000000000002 232.69858495415247,0.9005428029612337
c -35.64,-79.24079485696384 0,-170.10084025898462 64.30141504584753,-170.10084025898462
c 70.59438451673702,0 106.23438451673702,88.78884725682688 70.59438451673702,174.22698263133492
c -35.64,68.64 124.74,42.24 226.40561548326298,-5.026685175311542 c 35.59770298160503,0.0 248.1164400580467,-26.400000000000002 206.53644005804668,45.15287615997961
c -35.64,94.38220589994495 0,106.81465546641077 90.46355994195332,106.81465546641077
c 50.971122032861274,0 86.61112203286127,-42.02755861760275 50.971122032861274,-95.43500422350161
c -35.64,-68.64 124.74,-42.24 246.02887796713873,-56.532527402888775 c 124.55485831423962,-0.0 243.71234899707756,26.400000000000002 202.13234899707754,-34.24163533404951
c -35.64,-49.076904411666746 0,-128.1797614224799 94.86765100292246,-128.1797614224799
c 48.603893137796035,0 84.24389313779604,29.158875855222337 48.603893137796035,92.7269495765805
c -35.64,68.64 124.74,42.24 248.39610686220396,69.69444717994892 c 118.69785260906912,-0.0 263.6686652372814,26.400000000000002 222.08866523728142,-6.793223871950134
c -35.64,-91.8120098795067 0,-145.85297048696307 74.91133476271858,-145.85297048696307
c 67.32452691853695,0 102.96452691853695,82.68747636533305 67.32452691853695,135.01948258460214
c -35.64,68.64 124.74,42.24 229.67547308146305,17.626711774311076 c 118.52092950830209,-0.0 276.6060943536531,26.400000000000002 235.0260943536531,-0.4166841787317794
c -35.64,-109.53422827598928 0,-131.21768916734192 61.97390564634691,-131.21768916734192
c 50.94422804871243,0 86.58422804871243,82.20524679859307 50.94422804871243,125.50066592367519
c -35.64,68.64 124.74,42.24 246.05577195128757,6.133707422398501 c 99.23259137742215,0.0 277.11432166922975,-26.400000000000002 235.53432166922974,60.05127112260129
c -35.64,71.098932135617 0,112.15077287686591 61.46567833077026,112.15077287686591
c 81.31584105610852,0 116.95584105610853,-22.151659911102268 81.31584105610852,-77.32842301575087
c -35.64,-68.64 124.74,-42.24 215.68415894389148,-94.87362098371634 L 4752 0 " fill="none" stroke="black" stroke-width="0.1" style="vector-effect:non-scaling-stroke;"/></g><g><path d="M 0 0  L 0 2640.000000  c 167.56791824126466,-0.0 270.0905377032536,26.400000000000002 228.5105377032536,-77.31206701741759
c -35.64,-30.342325131040855 0,-66.71769686399837 68.48946229674641,-66.71769686399837
c 52.351944066116175,0 87.99194406611618,33.3274097541468 52.351944066116175,55.30434946743465
c -35.64,68.64 124.74,42.24 244.64805593388382,88.72541441398131 c 30.079265071132074,0.0 269.31097551678727,-26.400000000000002 227.73097551678728,73.39495535438698
c -35.64,44.83409640852214 0,72.48029727898529 69.26902448321272,72.48029727898529
c 42.46808406966994,0 78.10808406966994,-52.59004654892685 42.46808406966994,-57.9941259957304
c -35.64,-68.64 124.74,-42.24 254.53191593033006,-87.88112663764187 c 89.45000921308154,-0.0 246.98432443583863,26.400000000000002 205.40432443583862,8.417587710310936
c -35.64,-121.66783082877153 0,-174.56920801165109 91.59567556416138,-174.56920801165109
c 86.13165914904187,0 121.77165914904187,47.60033865053731 86.13165914904187,116.13475016741815
c -35.64,68.64 124.74,42.24 210.86834085095813,50.01687013392201 c 75.23228579855237,0.0 249.15640530474738,-26.400000000000002 207.57640530474737,109.7239586439405
c -35.64,13.394658734284116 0,57.36840427581271 89.42359469525263,57.36840427581271
c 90.15900941518561,0 125.79900941518561,-91.67424870447176 90.15900941518561,-176.48049549497497
c -35.64,-68.64 124.74,-42.24 206.8409905848144,9.38813257522176 c 106.54018780851598,0.0 255.78051544516293,-26.400000000000002 214.20051544516292,30.477803815227798
c -35.64,89.43139186137404 0,143.5223607786767 82.79948455483708,143.5223607786767
c 77.96632486202083,0 113.60632486202083,-86.76431689934095 77.96632486202083,-136.34358973367972
c -35.64,-68.64 124.74,-42.24 219.03367513797917,-37.656574860224765 c 138.20887838562882,0.0 285.8494099742598,-26.400000000000002 244.26940997425982,0.5715093418410189
c -35.64,108.81633734148913 0,127.11678481120632 52.730590025740185,127.11678481120632
c 90.78454745983987,0 126.42454745983987,-95.22868508301802 90.78454745983987,-107.26063978311943
c -35.64,-68.64 124.74,-42.24 206.21545254016013,-20.427654369927907 c 42.07738041908005,0.0 251.8241504859209,-26.400000000000002 210.2441504859209,31.846010320236168
c -35.64,30.680940177925144 0,118.47987630297865 86.7558495140791,118.47987630297865
c 45.48978171694296,0 81.12978171694296,-128.37809355323165 45.48978171694296,-134.01630757267543
c -35.64,-68.64 124.74,-42.24 251.51021828305704,-16.309579050539384 c 82.4605434421151,0.0 254.59708232889741,-26.400000000000002 213.0170823288974,88.51976195688655
c -35.64,31.116825680232047 0,52.22273387773967 83.9829176711026,52.22273387773967
c 53.94188066571974,0 89.58188066571974,-104.7450551763086 53.94188066571974,-133.29045897146727
c -35.64,-68.64 124.74,-42.24 243.05811933428026,-7.452036863158952 L 4752 0 " fill="none" stroke="black" stroke-width="0.1" style="vector-effect:non-scaling-stroke;"/></g></g></svg>