<svg baseProfile="full" height="1667" preserveAspectRatio="none" shape-rendering="geometricPrecision" version="1.1" viewBox="0,0,2500,1667" width="2500" xmlns="http://www.w3.org/2000/svg" xmlns:ev="http://www.w3.org/2001/xml-events" xmlns:xlink="http://www.w3.org/1999/xlink"><title>Jigsaw puzzle piece clips</title><desc>Created with the piecemaker. Piece count: 30</desc><defs/><g><g><rect fill="white" height="1667" width="2500" x="0" y="0"/></g></g><g><g><path d="M 0 0  L 416.666667 0  c 0.0,87.99650652234357 -20.833333333333336,152.21568947599235 15.354257685210033,128.87768947599236
c 56.213951242926186,-20.003999999999998 123.81377754210916,0 123.81377754210916,37.822310524007634
c 0,47.87997238694007 -60.01276065544423,67.88397238694006 -72.82554073068236,47.87997238694007
c -54.16666666666667,-20.003999999999998 -33.333333333333336,70.014 -66.34249449663683,118.82002761305992 c -0.0,89.66542209906406 20.833333333333336,163.7492813207428 -81.57537178155725,140.4112813207428
c -34.46511215842282,-20.003999999999998 -46.275695426724056,0 -46.275695426724056,26.288718679257187
c 0,38.87228172478882 52.807210866105116,58.87628172478882 82.23651478781179,38.87228172478882
c 54.16666666666667,-20.003999999999998 33.333333333333336,70.014 45.61455242046952,127.82771827521117 c 0.0,33.154697962954145 -20.833333333333336,155.33113170462494 23.385267610494747,131.99313170462494
c 58.03423177134299,-20.003999999999998 83.07475350949053,0 83.07475350949053,34.706868295375045
c 0,26.619625595019755 -45.89149439217569,46.62362559501975 -63.29630719976842,26.619625595019755
c -54.16666666666667,-20.003999999999998 -33.333333333333336,70.014 -43.163713920216864,140.08037440498023 c 0.0,56.841879907359015 -20.833333333333336,162.71983702423537 67.0652104320606,139.38183702423538
c 47.71657993385576,-20.003999999999998 72.81444820444061,0 72.81444820444061,27.318162975764608
c 0,36.4304850780799 -33.12336410700912,56.434485078079895 -98.6697217340872,36.4304850780799
c -54.16666666666667,-20.003999999999998 -33.333333333333336,70.014 -41.209936902414,130.2695149219201 c 0.0,20.950005252748646 -20.833333333333336,164.01289035820608 36.493811394106885,140.67489035820608
c 24.034398795164435,-20.003999999999998 68.94779645062346,0 68.94779645062346,26.025109641793904
c 0,25.905138357791373 -15.574952321245918,45.90913835779137 -58.32749047177976,25.905138357791373
c -54.16666666666667,-20.003999999999998 -33.333333333333336,70.014 -47.11411737295058,140.79486164220862 L 0 1667 " fill="none" stroke="black" stroke-width="0.1" style="vector-effect:non-scaling-stroke;"/></g><g><path d="M 0 0  L 833.333333 0  c -0.0,95.19130127290855 20.833333333333336,153.84610220350555 -72.57232409674513,130.50810220350556
c -55.64760702576164,-20.003999999999998 -66.27367909980752,0 -66.27367909980752,36.19189779649443
c 0,47.695419388059946 26.38276645808969,67.69941938805994 78.69121905934864,47.695419388059946
c 54.16666666666667,-20.003999999999998 33.333333333333336,70.014 60.15478413720402,119.00458061194004 c -0.0,88.53669054990236 20.833333333333336,143.12538271772416 -66.39877363995582,119.78738271772416
c -30.928515855660578,-20.003999999999998 -52.20397559807286,0 -52.20397559807286,46.91261728227583
c 0,43.84493937499454 26.960261187225047,63.848939374994536 107.35407362933827,43.84493937499454
c 54.16666666666667,-20.003999999999998 33.333333333333336,70.014 11.248675608690405,122.85506062500545 c 0.0,53.670592199391386 -20.833333333333336,144.61331537293688 34.870669512016406,121.27531537293689
c 51.27566122855705,-20.003999999999998 67.0069423084477,0 67.0069423084477,45.4246846270631
c 0,26.41071857076264 -53.737227955105716,46.41471857076264 -78.53570743102233,26.41071857076264
c -54.16666666666667,-20.003999999999998 -33.333333333333336,70.014 -23.34190438944178,140.28928142923735 c -0.0,20.41511499540107 20.833333333333336,145.73949037732393 -59.227341686793395,122.40149037732394
c -38.146859963901996,-20.003999999999998 -47.43653353828975,0 -47.43653353828975,44.29850962267605
c 0,33.298280975453224 20.506613390620895,53.30228097545322 90.93044210453002,33.298280975453224
c 54.16666666666667,-20.003999999999998 33.333333333333336,70.014 15.73343312055313,133.40171902454676 c 0.0,81.39415175687772 -20.833333333333336,158.14623195308832 47.43333130458547,134.80823195308832
c 15.056798395468547,-20.003999999999998 61.98427701449335,0 61.98427701449335,31.891768046911665
c 0,40.52344378610411 -17.39941956128568,60.52744378610411 -37.0186081325694,40.52344378610411
c -54.16666666666667,-20.003999999999998 -33.333333333333336,70.014 -72.39900018650943,126.17655621389588 L 0 1667 " fill="none" stroke="black" stroke-width="0.1" style="vector-effect:non-scaling-stroke;"/></g><g><path d="M 0 0  L 1250.000000 0  c -0.0,82.67672795591308 20.833333333333336,161.06848428561156 2.385124916157718,137.73048428561157
c -54.59037240441502,-20.003999999999998 -110.32479422602822,0 -110.32479422602822,28.96951571438842
c 0,53.233684861314174 102.1192613871511,73.23768486131416 112.44813779933585,53.233684861314174
c 54.16666666666667,-20.003999999999998 33.333333333333336,70.014 -4.508468489465358,113.46631513868581 c -0.0,35.422370760824656 20.833333333333336,154.03166925581465 -2.3516104541182052,130.69366925581465
c -30.337900265043096,-20.003999999999998 -128.13815309771564,0 -128.13815309771564,36.006330744185334
c 0,48.08340773207149 34.14374763506894,68.08740773207148 80.58906740013727,48.08340773207149
c 54.16666666666667,-20.003999999999998 33.333333333333336,70.014 49.90069615169658,118.6165922679285 c -0.0,35.47031741501306 20.833333333333336,153.73288835658028 -1.5207002779710688,130.39488835658028
c -89.70303523192747,-20.003999999999998 -128.00147908170638,0 -128.00147908170638,36.30511164341971
c 0,50.5047797529096 119.89376112855248,70.50877975290959 127.73414048648138,50.5047797529096
c 54.16666666666667,-20.003999999999998 33.333333333333336,70.014 1.788038873196058,116.19522024709039 c -0.0,34.81811089879114 20.833333333333336,148.18121736036818 -69.42222546428576,124.84321736036817
c -35.97267534867922,-20.003999999999998 -36.7352861474436,0 -36.7352861474436,41.85678263963182
c 0,36.30434915084942 6.17461108045671,56.308349150849416 16.82542857987383,36.30434915084942
c 54.16666666666667,-20.003999999999998 33.333333333333336,70.014 89.33208303185553,130.39565084915057 c -0.0,94.04362446281048 20.833333333333336,146.5868632976138 -41.69537583717655,123.2488632976138
c -69.74733522554554,-20.003999999999998 -82.4581331616846,0 -82.4581331616846,43.451136702386194
c 0,49.91133758783536 58.06237996165122,69.91533758783535 60.64593643248881,49.91133758783536
c 54.16666666666667,-20.003999999999998 33.333333333333336,70.014 63.507572566372346,116.78866241216463 L 0 1667 " fill="none" stroke="black" stroke-width="0.1" style="vector-effect:non-scaling-stroke;"/></g><g><path d="M 0 0  L 1666.666667 0  c 0.0,67.55666466086213 -20.833333333333336,139.85830968274902 88.38917484800979,116.52030968274902
c 50.237760877117154,-20.003999999999998 52.75885948737175,0 52.75885948737175,50.17969031725097
c 0,39.850418779929356 -41.606987191747436,59.854418779929354 -104.29171241573601,39.850418779929356
c -54.16666666666667,-20.003999999999998 -33.333333333333336,70.014 -36.856321919645524,126.84958122007063 c 0.0,39.58009277011834 -20.833333333333336,139.12400152922552 23.406689488047594,115.78600152922552
c 90.89573847708922,-20.003999999999998 116.43285574654044,0 116.43285574654044,50.91399847077447
c 0,45.6321966592958 -87.69237843411288,65.63619665929579 -94.90457795903299,45.6321966592958
c -54.16666666666667,-20.003999999999998 -33.333333333333336,70.014 -44.93496727555504,121.06780334070419 c -0.0,71.58552895269906 20.833333333333336,157.7196436676023 -43.058648914676375,134.3816436676023
c -28.040989722263166,-20.003999999999998 -90.40835355956133,0 -90.40835355956133,32.318356332397684
c 0,32.88518127805651 52.602109528188194,52.889181278056505 78.90722841493334,32.88518127805651
c 54.16666666666667,-20.003999999999998 33.333333333333336,70.014 54.559774059304374,133.81481872194348 c -0.0,96.34787700682755 20.833333333333336,161.47428285412462 -85.60673802744023,138.13628285412463
c -17.830848164529534,-20.003999999999998 -22.376926833835128,0 -22.376926833835128,28.56371714587536
c 0,43.53560388295321 96.29236401053694,63.53960388295321 104.17786985781075,43.53560388295321
c 54.16666666666667,-20.003999999999998 33.333333333333336,70.014 3.8057950034646097,123.16439611704678 c 0.0,71.24566957230464 -20.833333333333336,145.57618644950801 87.35674108629263,122.238186449508
c 20.76767362171833,-20.003999999999998 50.6079521252901,0 50.6079521252901,44.46181355049198
c 0,29.678751447718213 -54.19883029523225,49.68275144771821 -76.8428026885404,29.678751447718213
c -54.16666666666667,-20.003999999999998 -33.333333333333336,70.014 -61.121890523042325,137.02124855228178 L 0 1667 " fill="none" stroke="black" stroke-width="0.1" style="vector-effect:non-scaling-stroke;"/></g><g><path d="M 0 0  L 2083.333333 0  c 0.0,96.01802809205074 -20.833333333333336,153.99059081621886 13.441111649030447,130.65259081621886
c 33.3112759807971,-20.003999999999998 105.50796430189509,0 105.50796430189509,36.04740918378113
c 0,42.11209402445991 -8.676068838094471,62.116094024459905 -27.472103380704255,42.11209402445991
c -54.16666666666667,-20.003999999999998 -33.333333333333336,70.014 -91.47697257022128,124.58790597554008 c 0.0,33.19121355601351 -20.833333333333336,154.28244388506397 5.295614240398643,130.94444388506398
c 33.67265756331565,-20.003999999999998 100.53085317885686,0 100.53085317885686,35.75555611493601
c 0,41.12913843048821 -9.752841077495626,61.13313843048821 -20.728835195197178,41.12913843048821
c -54.16666666666667,-20.003999999999998 -33.333333333333336,70.014 -85.09763222405833,125.57086156951178 c -0.0,54.28590951647391 20.833333333333336,139.43691199222894 5.4915070549894835,116.09891199222895
c -123.00262197055704,-20.003999999999998 -133.99199583099804,0 -133.99199583099804,50.60108800777104
c 0,45.3498160515357 11.086163056573406,65.35381605153569 38.8876446857017,45.3498160515357
c 54.16666666666667,-20.003999999999998 33.333333333333336,70.014 89.61284409030685,121.35018394846429 c -0.0,22.92187627072015 20.833333333333336,158.47019105493763 -41.92121856112142,135.13219105493764
c -16.57971801177886,-20.003999999999998 -72.5475619034546,0 -72.5475619034546,31.567808945062353
c 0,32.86446587645037 110.0046398514847,52.868465876450365 109.26852795330275,32.86446587645037
c 54.16666666666667,-20.003999999999998 33.333333333333336,70.014 5.200252511273277,133.83553412354962 c -0.0,41.53175802476426 20.833333333333336,148.23483704985978 -86.69815395298959,124.89683704985978
c -29.133225087368732,-20.003999999999998 -35.43714965686813,0 -35.43714965686813,41.803162950140205
c 0,39.71850857938941 50.437493130409415,59.722508579389405 117.39990076270557,39.71850857938941
c 54.16666666666667,-20.003999999999998 33.333333333333336,70.014 4.7354028471521445,126.98149142061058 L 0 1667 " fill="none" stroke="black" stroke-width="0.1" style="vector-effect:non-scaling-stroke;"/></g></g><g><g><path d="M 0 0  L 0 333.400000  c 59.39354626301047,0.0 184.00905403860878,-16.669999999999998 154.84238737194212,49.99101032694345
c -25.0,15.699731320142503 0,39.43016416943372 53.49094596139122,39.43016416943372
c 58.014300438617994,0 83.014300438618,-7.308087383185084 58.014300438617994,-29.288516416629136
c -25.0,-43.342 87.5,-26.671999999999997 150.31903289471535,-60.13265807974804 c 83.84665583093926,-0.0 192.50223461937958,16.669999999999998 163.33556795271292,-41.402774376278835
c -25.0,-29.883871630798872 0,-40.298791926824485 44.99776538062042,-40.298791926824485
c 53.69360505472363,0 78.69360505472363,28.55845452203155 53.69360505472363,78.04968838780232
c -25.0,43.342 87.5,26.671999999999997 154.6397282786097,3.651877915301 c 88.90556951989838,-0.0 172.0983941046598,16.669999999999998 142.93172743799315,-68.88433176427881
c -25.0,-12.1274523167645 0,-42.460025637006595 65.4016058953402,-42.460025637006595
c 39.481633932001074,0 64.48163393200107,54.08287594888985 39.481633932001074,80.08368410777848
c -25.0,43.342 87.5,26.671999999999997 168.85169940133227,31.260673293506926 c 60.31581306559161,-0.0 205.96285457808636,16.669999999999998 176.79618791141968,-66.13419108587641
c -25.0,-10.996839668585745 0,-20.706202950149446 31.537145421913664,-20.706202950149446
c 59.74959380054494,0 84.74959380054494,18.73867511690061 59.74959380054494,74.6548131369513
c -25.0,43.342 87.5,26.671999999999997 148.5837395327884,12.185580899074552 c 94.55152595789023,0.0 191.48767810978637,-16.669999999999998 162.32101144311972,67.96291390800772
c -25.0,18.997818437432983 0,22.77537904756099 46.01232189021363,22.77537904756099
c 63.152843644960825,0 88.15284364496083,-49.678847929811674 63.152843644960825,-64.92519365128133
c -25.0,-43.342 87.5,-26.671999999999997 145.18048968837252,-25.813099304287377 c 94.99497151599893,-0.0 186.69587229432966,16.669999999999998 157.529205627663,-19.20733342936312
c -25.0,-37.88195640083862 0,-91.30547353678034 50.80412770567034,-91.30547353678034
c 33.56592379922668,0 58.56592379922668,78.94968013108738 33.56592379922668,116.49895044448756
c -25.0,43.342 87.5,26.671999999999997 174.76740953410666,-5.986143478344104 L 2500 0 " fill="none" stroke="black" stroke-width="0.1" style="vector-effect:non-scaling-stroke;"/></g><g><path d="M 0 0  L 0 666.800000  c 21.235609825081237,0.0 178.48947604776833,-16.669999999999998 149.32280938110165,26.27051300061458
c -25.0,16.90493666148686 0,61.66700894622829 59.010523952231694,61.66700894622829
c 57.612720095476874,0 82.61272009547687,-65.10811320952044 57.612720095476874,-65.18831588270083
c -25.0,-43.342 87.5,-26.671999999999997 150.72061323785647,-22.749206064142044 c 29.193912126927412,-0.0 186.17229046906715,16.669999999999998 157.0056238024005,-47.01600643652261
c -25.0,-40.5210721942145 0,-58.83004968963454 51.32770953093285,-58.83004968963454
c 39.061871629361235,0 64.06187162936124,82.96198578991839 39.061871629361235,101.5434703248956
c -25.0,43.342 87.5,26.671999999999997 169.2714617039721,4.302585801261557 c 27.047559148186217,-0.0 175.27058279480667,16.669999999999998 146.10391612813999,-48.47034158075628
c -25.0,-42.685877831471224 0,-50.62842368581832 62.22941720519336,-50.62842368581832
c 49.64772287319303,0 74.64772287319303,24.357957411265257 49.64772287319303,44.36080998652962
c -25.0,43.342 87.5,26.671999999999997 158.6856104601403,54.737955280044986 c 45.184750892332,-0.0 173.58773183575073,16.669999999999998 144.42106516908407,-23.839283226005428
c -25.0,-78.98733366302903 0,-89.37372420571074 63.91226816424927,-89.37372420571074
c 38.19481011962435,0 63.19481011962435,33.870466283887765 38.19481011962435,41.87857294063896
c -25.0,43.342 87.5,26.671999999999997 170.138523213709,71.3344344910772 c 34.45525126528318,0.0 171.97917621098526,-16.669999999999998 142.81250954431857,45.14126261411447
c -25.0,45.778761781104635 0,61.01509307827426 65.52082378901477,61.01509307827426
c 31.219949617523383,0 56.21994961752338,-33.89634044259094 31.219949617523383,-48.6111781141984
c -25.0,-43.342 87.5,-26.671999999999997 177.11338371580996,-57.54517757819033 c 101.07767975006665,-0.0 198.47175990015512,16.669999999999998 169.30509323348844,-55.83356123827356
c -25.0,-16.573376991512543 0,-26.498975757101917 39.02824009984491,-26.498975757101917
c 51.87365666098211,0 76.8736566609821,4.841106767948454 51.87365666098211,15.991479739715317
c -25.0,43.342 87.5,26.671999999999997 156.45967667235124,66.34105725566016 L 2500 0 " fill="none" stroke="black" stroke-width="0.1" style="vector-effect:non-scaling-stroke;"/></g><g><path d="M 0 0  L 0 1000.200000  c 102.14664304631148,0.0 173.32244613989423,-16.669999999999998 144.15577947322754,29.170655383682394
c -25.0,21.578454089069687 0,79.40759405062477 64.1775538601058,79.40759405062477
c 64.31814865781834,0 89.31814865781834,-68.43192345100452 64.31814865781834,-83.30036717433643
c -25.0,-43.342 87.5,-26.671999999999997 144.015184675515,-25.27788225997074 c 40.47792176559826,0.0 198.12819205086544,-16.669999999999998 168.96152538419878,68.97941163273572
c -25.0,11.462006776432572 0,17.70873997492984 39.37180794913456,17.70873997492984
c 37.43444365559873,0 62.43444365559873,-12.839730198983968 37.43444365559873,-40.66527257765759
c -25.0,-43.342 87.5,-26.671999999999997 170.89888967773462,-46.02287903000797 c 103.2342187079908,0.0 208.1919527452609,-16.669999999999998 179.0252860785942,53.67001779048078
c -25.0,20.068949323072367 0,39.05208227351783 29.308047254739137,39.05208227351783
c 34.158802628073744,0 59.158802628073744,-14.110077621809765 34.158802628073744,-36.345703551026645
c -25.0,-43.342 87.5,-26.671999999999997 174.1745307052596,-56.376396512971965 c 63.296014173340815,0.0 175.59915940511428,-16.669999999999998 146.4324927384476,6.023186565836394
c -25.0,78.39343671790265 0,101.61074782375812 61.90084059488575,101.61074782375812
c 57.55304761000323,0 82.55304761000323,-52.340255139234735 57.55304761000323,-71.06548381998087
c -25.0,-43.342 87.5,-26.671999999999997 150.7802857233301,-36.568450569613645 c 29.810083227910418,0.0 194.19135229045304,-16.669999999999998 165.02468562378635,50.48371167254186
c -25.0,40.55618250498924 0,61.30606860488079 43.30864770954699,61.30606860488079
c 30.480105791126732,0 55.48010579112673,-22.505285827046926 30.480105791126732,-64.71851400549996
c -25.0,-43.342 87.5,-26.671999999999997 177.8532275422066,-47.071266271922696 c 115.74581299353191,0.0 176.17692685066663,-16.669999999999998 147.01026018399995,60.02778902376189
c -25.0,25.538194257811348 0,36.437326456853874 61.323073149333396,36.437326456853874
c 37.81328532818074,0 62.81328532818074,-34.280721566406754 37.81328532818074,-44.05652069217051
c -25.0,-43.342 87.5,-26.671999999999997 170.5200480051526,-52.40859478844526 L 2500 0 " fill="none" stroke="black" stroke-width="0.1" style="vector-effect:non-scaling-stroke;"/></g><g><path d="M 0 0  L 0 1333.600000  c 113.12522489059215,0.0 190.45214265868248,-16.669999999999998 161.2854759920158,-6.1778049039026515
c -25.0,54.12390969339059 0,95.34900013272991 47.04785734131755,95.34900013272991
c 46.90650582847658,0 71.90650582847658,-54.12337880699709 46.90650582847658,-60.84191810525762
c -25.0,-43.342 87.5,-26.671999999999997 161.42682750485676,-28.32927712356964 c 57.54764388748965,0.0 183.7933696571419,-16.669999999999998 154.62670299047522,45.15074308124159
c -25.0,14.125742999298009 0,55.71983673133868 53.70663034285812,55.71983673133868
c 40.35777766259625,0 65.35777766259625,-30.364194964205073 40.35777766259625,-69.11737580312092
c -25.0,-43.342 87.5,-26.671999999999997 167.9755556707371,-31.753204009459353 c 45.2053589060969,0.0 203.81904770158332,-16.669999999999998 174.65238103491666,7.688351317775969
c -25.0,75.61665442248453 0,103.53232585608778 33.680952298416685,103.53232585608778
c 34.06342350636328,0 59.06342350636328,-18.60783453810016 34.06342350636328,-69.73813970429742
c -25.0,-43.342 87.5,-26.671999999999997 174.26990982697006,-41.482537469566324 c 109.62533122372635,0.0 200.12902715487513,-16.669999999999998 170.96236048820845,72.45139817953692
c -25.0,8.607488984680339 0,30.38015749886617 37.370972845124896,30.38015749886617
c 41.8550129898974,0 66.8550129898974,-35.34055348146248 41.8550129898974,-69.05918508214955
c -25.0,-43.342 87.5,-26.671999999999997 166.47832034343594,-33.77237059625354 c 98.24912040242468,0.0 179.6289293750579,-16.669999999999998 150.46226270839122,52.49659339604364
c -25.0,20.588857717993477 0,60.141271971047594 57.87107062494212,60.141271971047594
c 64.70459952416749,0 89.70459952416749,-37.694975493706785 64.70459952416749,-50.55198941246668
c -25.0,-43.342 87.5,-26.671999999999997 143.62873380916585,-62.085875954624555 c 92.98733255412573,0.0 197.156123375157,-16.669999999999998 167.9894567084903,30.86197553877128
c -25.0,49.75942502261903 0,69.80990963416612 40.343876624843034,69.80990963416612
c 31.65586526716362,0 56.65586526716362,-45.95487839878409 31.65586526716362,-73.30615495080872
c -25.0,-43.342 87.5,-26.671999999999997 176.67746806616972,-27.365730222128676 L 2500 0 " fill="none" stroke="black" stroke-width="0.1" style="vector-effect:non-scaling-stroke;"/></g></g></svg>