<svg baseProfile="full" height="3264" preserveAspectRatio="none" shape-rendering="geometricPrecision" version="1.1" viewBox="0,0,4928,3264" width="4928" xmlns="http://www.w3.org/2000/svg" xmlns:ev="http://www.w3.org/2001/xml-events" xmlns:xlink="http://www.w3.org/1999/xlink"><title>Jigsaw puzzle piece clips</title><desc>Created with the piecemaker. Piece count: 20</desc><defs /><g><g><rect fill="white" height="3264" width="4928" x="0" y="0" /></g></g><g><g><path d="M 0 0  L 985.600000 0  c -0.0,221.85729551624587 49.28,374.35658429139636 -100.91691021946602,317.23658429139635&#10;c -76.98477328699988,-48.96 -155.44656597097375,0 -155.44656597097375,90.76341570860365&#10;c 0,68.85144626404622 152.0071717028746,117.81144626404622 227.66517843287411,68.85144626404622&#10;c 128.12800000000001,-48.96 78.848,171.35999999999999 28.698297757565655,339.1485537359538 c 0.0,125.08716511795363 -49.28,363.35171274958634 59.80785646248689,306.23171274958634&#10;c 194.2932518132123,-48.96 246.05622391915796,0 246.05622391915796,101.76828725041366&#10;c 0,118.54139549819718 -118.2142282688759,167.50139549819718 -122.00178901777505,118.54139549819718&#10;c -128.12800000000001,-48.96 -78.848,171.35999999999999 -183.8622913638698,289.4586045018028 c -0.0,208.74992448632648 49.28,380.67238815923616 -4.475812396416443,323.55238815923616&#10;c -230.9248818120866,-48.96 -253.60766927142996,0 -253.60766927142996,84.44761184076384&#10;c 0,126.7544717951065 75.94757781451767,175.7144717951065 159.65426527436844,126.7544717951065&#10;c 128.12800000000001,-48.96 78.848,171.35999999999999 98.42921639347796,281.2455282048935 c 0.0,175.97937132178492 -49.28,371.15065755924365 190.2365886569534,314.03065755924365&#10;c 71.92895433927814,-48.96 72.1648135395047,0 72.1648135395047,93.96934244075635&#10;c 0,67.73116016224844 -92.62153860815643,116.69116016224845 -183.4966268824475,67.73116016224844&#10;c -128.12800000000001,-48.96 -78.848,171.35999999999999 -78.9047753140106,340.26883983775156 L 0 3264 " fill="none" stroke="black" stroke-width="0.1" style="vector-effect:non-scaling-stroke;" /></g><g><path d="M 0 0  L 1971.200000 0  c 0.0,180.9322547269011 -49.28,358.4821754398841 101.82799953610917,301.3621754398841&#10;c 106.06598678224005,-48.96 155.25047203180515,0 155.25047203180515,106.63782456011592&#10;c 0,118.7623127015662 -46.15775361516206,167.7223127015662 -125.1317902787624,118.7623127015662&#10;c -128.12800000000001,-48.96 -78.848,171.35999999999999 -131.94668128915194,289.2376872984338 c -0.0,149.03209075871231 49.28,352.9719443459268 -117.93988695939224,295.85194434592677&#10;c -53.737898556515425,-48.96 -167.5850255058661,0 -167.5850255058661,112.14805565407323&#10;c 0,73.99435733797742 235.230360749338,122.95435733797743 239.5211798813749,73.99435733797742&#10;c 128.12800000000001,-48.96 78.848,171.35999999999999 46.00373258388345,334.0056426620226 c 0.0,90.67655538338559 -49.28,399.00864998690906 3.465901216250014,341.88864998690906&#10;c 238.52097437484116,-48.96 258.4229031607859,0 258.4229031607859,66.11135001309094&#10;c 0,61.20879337383474 -44.64958165557392,110.16879337383475 -64.08718505781289,61.20879337383474&#10;c -128.12800000000001,-48.96 -78.848,171.35999999999999 -197.80161931922302,346.79120662616526 c -0.0,175.48943126049383 49.28,401.84468590179824 -212.17020583188793,344.72468590179824&#10;c -63.026844559607454,-48.96 -76.40338737080413,0 -76.40338737080413,63.27531409820176&#10;c 0,83.4081702184061 66.53521258583716,132.3681702184061 126.57505206996115,83.4081702184061&#10;c 128.12800000000001,-48.96 78.848,171.35999999999999 161.9985411327309,324.5918297815939 L 0 3264 " fill="none" stroke="black" stroke-width="0.1" style="vector-effect:non-scaling-stroke;" /></g><g><path d="M 0 0  L 2956.800000 0  c 0.0,221.41719460059318 -49.28,403.1361296200879 110.0339993082593,346.0161296200879&#10;c 106.37362580019253,-48.96 151.9193494351607,0 151.9193494351607,61.983870379912105&#10;c 0,81.2782047920918 -24.483715685130512,130.2382047920918 -60.86880803459826,81.2782047920918&#10;c -128.12800000000001,-48.96 -78.848,171.35999999999999 -201.08454070882175,326.7217952079082 c 0.0,86.97328106007318 -49.28,384.7440735382646 178.93744750298754,327.6240735382646&#10;c 22.599279039670737,-48.96 62.3332119608564,0 62.3332119608564,80.37592646173539&#10;c 0,78.57756409222412 -147.54756089650965,127.53756409222413 -207.96160970513918,78.57756409222412&#10;c -128.12800000000001,-48.96 -78.848,171.35999999999999 -33.30904975870476,329.4224359077759 c 0.0,68.2905912300243 -49.28,367.62504447805605 70.80872393762756,310.50504447805605&#10;c 72.75531703964639,-48.96 216.09404719319656,0 216.09404719319656,97.49495552194395&#10;c 0,101.45047773204749 -109.14778771818841,150.4104777320475 -129.3684910248934,101.45047773204749&#10;c -128.12800000000001,-48.96 -78.848,171.35999999999999 -157.53428010593075,306.5495222679525 c -0.0,194.53832939279968 49.28,345.0604132187467 -125.29386916481413,287.9404132187467&#10;c -29.54604258918688,-48.96 -132.46916037852958,0 -132.46916037852958,120.0595867812533&#10;c 0,63.471147225452455 54.741992423826616,112.43114722545246 162.70171383741746,63.471147225452455&#10;c 128.12800000000001,-48.96 78.848,171.35999999999999 95.06131570592623,344.52885277454754 L 0 3264 " fill="none" stroke="black" stroke-width="0.1" style="vector-effect:non-scaling-stroke;" /></g><g><path d="M 0 0  L 3942.400000 0  c 0.0,157.14570093804633 -49.28,386.3961804684479 13.845967195126738,329.2761804684479&#10;c 219.97894725611653,-48.96 307.8422199569209,0 307.8422199569209,78.72381953155212&#10;c 0,77.73359110950275 -182.75201190086585,126.69359110950276 -222.3507559857022,77.73359110950275&#10;c -128.12800000000001,-48.96 -78.848,171.35999999999999 -99.33743116634545,330.26640889049725 c -0.0,67.22180658240455 49.28,386.98424789249566 -68.87054988128178,329.86424789249565&#10;c -173.41596439474114,-48.96 -244.6530506054301,0 -244.6530506054301,78.13575210750435&#10;c 0,121.93430765207586 72.42572530913885,170.89430765207587 99.60763216618801,121.93430765207586&#10;c 128.12800000000001,-48.96 78.848,171.35999999999999 213.91596832052386,286.06569234792414 c -0.0,149.44503222440687 49.28,380.2803600092863 -163.52541265324564,323.1603600092863&#10;c -133.33487475462525,-48.96 -156.87612873988215,0 -156.87612873988215,84.83963999071369&#10;c 0,69.7119354196144 163.6323501356989,118.67193541961441 299.5977136545268,69.7119354196144&#10;c 128.12800000000001,-48.96 78.848,171.35999999999999 20.803827738601,338.2880645803856 c 0.0,190.07259316482097 -49.28,345.91629921332066 58.177404276662315,288.79629921332065&#10;c 130.93298045968166,-48.96 230.23618748327053,0 230.23618748327053,119.20370078667935&#10;c 0,111.60126522763426 -84.0762534138154,160.56126522763427 -100.90161605441745,111.60126522763426&#10;c -128.12800000000001,-48.96 -78.848,171.35999999999999 -187.5119757055154,296.39873477236574 L 0 3264 " fill="none" stroke="black" stroke-width="0.1" style="vector-effect:non-scaling-stroke;" /></g></g><g><g><path d="M 0 0  L 0 816.000000  c 221.82055110087788,-0.0 429.4580687503222,40.800000000000004 360.46606875032217,-49.658345251309534&#10;c -59.135999999999996,-69.1458867984282 0,-201.98516383008914 132.33393124967785,-201.98516383008914&#10;c 110.58495759127976,0 169.72095759127976,50.29388592662331 110.58495759127976,206.11327551533526&#10;c -59.135999999999996,106.08 206.976,65.28 382.21504240872025,45.5302335660634 c 83.41631604451169,-0.0 446.36062021349943,40.800000000000004 377.3686202134994,-124.79519765670656&#10;c -59.135999999999996,-100.97814092779437 0,-101.55406511953245 115.4313797865006,-101.55406511953245&#10;c 79.101294452638,0 138.237294452638,46.93909717545602 79.101294452638,213.6128102642593&#10;c -59.135999999999996,106.08 206.976,65.28 413.698705547362,12.736452511979707 c 124.76839006300575,0.0 408.7079995857456,-40.800000000000004 339.7159995857456,5.046254775617845&#10;c -59.135999999999996,89.40203837854874 0,236.9102502985401 153.08400041425443,236.9102502985401&#10;c 71.1892618000083,0 130.3252618000083,-60.812286147345375 71.1892618000083,-88.1923164273937&#10;c -59.135999999999996,-106.08 206.976,-65.28 421.6107381999917,-153.76418864676424 c 160.17172685460966,-0.0 467.32473598243286,40.800000000000004 398.33273598243284,-82.66365165729273&#10;c -59.135999999999996,-138.89209647134336 0,-169.66612196766897 94.46726401756717,-169.66612196766897&#10;c 133.64600104042648,0 192.78200104042648,21.213391360968895 133.64600104042648,81.81209001235257&#10;c -59.135999999999996,106.08 206.976,65.28 359.1539989595735,170.51768361260915 c 183.3583901070625,-0.0 478.41866302481856,40.800000000000004 409.42666302481854,-125.07816786833965&#10;c -59.135999999999996,-75.90973243288781 0,-126.53133153508662 83.37333697518147,-126.53133153508662&#10;c 156.222859125992,0 215.35885912599198,76.08384736821513 156.222859125992,87.90859691084543&#10;c -59.135999999999996,106.08 206.976,65.28 336.577140874008,163.70090249258084 L 4928 0 " fill="none" stroke="black" stroke-width="0.1" style="vector-effect:non-scaling-stroke;" /></g><g><path d="M 0 0  L 0 1632.000000  c 285.69583038180775,-0.0 446.8919506582988,40.800000000000004 377.8999506582988,-49.20311249809106&#10;c -59.135999999999996,-54.374306522766474 0,-188.96216548432182 114.90004934170122,-188.96216548432182&#10;c 123.38876801577482,0 182.5247680157748,45.97737086632264 123.38876801577482,107.79392950914715&#10;c -59.135999999999996,106.08 206.976,65.28 369.4112319842252,130.37134847326573 c 107.8993629704855,-0.0 473.253277572181,40.800000000000004 404.261277572181,-6.778893335873283&#10;c -59.135999999999996,-149.11016611997476 0,-262.229663585045 88.53872242781904,-262.229663585045&#10;c 120.91956623276741,0 180.0555662327674,43.466075739679226 120.91956623276741,127.6514649283395&#10;c -59.135999999999996,106.08 206.976,65.28 371.8804337672326,141.3570919925788 c 54.48263913356913,0.0 424.42983602628453,-40.800000000000004 355.4378360262845,130.3371866081785&#10;c -59.135999999999996,46.74097739336526 0,134.1980636850455 137.3621639737155,134.1980636850455&#10;c 112.7318319110613,0 171.8678319110613,-69.89225806859481 112.7318319110613,-210.74858464764625&#10;c -59.135999999999996,-106.08 206.976,-65.28 380.0681680889387,-53.786665645577756 c 253.67053967669958,-0.0 457.55670225068377,40.800000000000004 388.56470225068375,-33.66623225770659&#10;c -59.135999999999996,-232.27492222829338 0,-234.43969413436955 104.23529774931626,-234.43969413436955&#10;c 108.65435128867267,0 167.79035128867267,62.429956509361524 108.65435128867267,98.93896292947821&#10;c -59.135999999999996,106.08 206.976,65.28 384.14564871132734,169.16696346259792 c 104.94335215986396,-0.0 457.7535077213678,40.800000000000004 388.76150772136776,-111.9643960036723&#10;c -59.135999999999996,-25.91726854917787 0,-88.10927024075744 104.03849227863225,-88.10927024075744&#10;c 118.14245872107637,0 177.27845872107636,63.386622353648676 118.14245872107637,135.63416282632767&#10;c -59.135999999999996,106.08 206.976,65.28 374.65754127892365,64.43950341810208 L 4928 0 " fill="none" stroke="black" stroke-width="0.1" style="vector-effect:non-scaling-stroke;" /></g><g><path d="M 0 0  L 0 2448.000000  c 229.98171497268308,0.0 491.0430949035318,-40.800000000000004 422.0510949035318,162.60193803860935&#10;c -59.135999999999996,58.85008787815912 0,77.46084709767965 70.7489050964682,77.46084709767965&#10;c 97.417780073806,0 156.553780073806,-148.88807851777023 97.417780073806,-184.12336997115122&#10;c -59.135999999999996,-106.08 206.976,-65.28 395.382219926194,-55.939415165137774 c 268.20203532182836,-0.0 476.8806406156356,40.800000000000004 407.8886406156356,-112.19968763231012&#10;c -59.135999999999996,-76.48527012069802 0,-96.65112962060584 84.9113593843644,-96.65112962060584&#10;c 116.331176069685,0 175.467176069685,72.80497298114723 116.331176069685,144.23783108630272&#10;c -59.135999999999996,106.08 206.976,65.28 376.468823930315,64.61298616661324 c 266.95640183806773,-0.0 408.07099778354984,40.800000000000004 339.0789977835498,-28.082926407200176&#10;c -59.135999999999996,-191.6012713113667 0,-248.9605179458362 153.7210022164502,-248.9605179458362&#10;c 97.10785379870987,0 156.24385379870986,135.47576083592614 97.10785379870987,186.0808373403732&#10;c -59.135999999999996,106.08 206.976,65.28 395.69214620129014,90.96260701266317 c 209.89453543331967,0.0 478.75763131216786,-40.800000000000004 409.76563131216784,67.14442534018823&#10;c -59.135999999999996,132.2917011837837 0,182.02093963640564 83.03436868783217,182.02093963640564&#10;c 82.67824880189863,0 141.81424880189863,-101.1748946075857 82.67824880189863,-137.73104058508395&#10;c -59.135999999999996,-106.08 206.976,-65.28 410.1217511981014,-111.43432439150993 c 100.84515872868175,-0.0 488.4241210796449,40.800000000000004 419.4321210796449,-78.45623880421859&#10;c -59.135999999999996,-90.30017967566755 0,-150.28561353000185 73.36787892035511,-150.28561353000185&#10;c 128.11576318471288,0 187.25176318471287,42.16950242255333 128.11576318471288,149.82751149904618&#10;c -59.135999999999996,106.08 206.976,65.28 364.68423681528714,78.91434083517424 L 4928 0 " fill="none" stroke="black" stroke-width="0.1" style="vector-effect:non-scaling-stroke;" /></g></g></svg>