<svg baseProfile="full" height="2592" preserveAspectRatio="none" shape-rendering="geometricPrecision" version="1.1" viewBox="0,0,3888,2592" width="3888" xmlns="http://www.w3.org/2000/svg" xmlns:ev="http://www.w3.org/2001/xml-events" xmlns:xlink="http://www.w3.org/1999/xlink"><title>Jigsaw puzzle piece clips</title><desc>Created with the piecemaker. Piece count: 35</desc><defs/><g><g><rect fill="white" height="2592" width="3888" x="0" y="0"/></g></g><g><g><path d="M 0 0  L 555.428571 0  c -0.0,40.327305256265745 27.771428571428572,246.2356104907986 -23.93928732394527,209.94761049079858
c -63.10093414158206,-31.104 -133.4360271265301,0 -133.4360271265301,49.25238950920141
c 0,66.62508326814446 150.60434342043018,97.72908326814446 161.3874780156294,66.62508326814446
c 72.2057142857143,-31.104 44.434285714285714,108.86399999999999 -4.012163565154026,192.57491673185552 c -0.0,85.5576513616135 27.771428571428572,252.8037164683442 9.223334856362241,216.51571646834418
c -97.60080579135558,-31.104 -168.15021523748806,0 -168.15021523748806,42.68428353165581
c 0,74.32241874246239 27.660268668986657,105.42641874246239 42.90317123344005,74.32241874246239
c 72.2057142857143,-31.104 44.434285714285714,108.86399999999999 116.02370914768576,184.8775812575376 c 0.0,77.51229144851787 -27.771428571428572,233.54470129556208 63.9586411747553,197.25670129556207
c 69.31461853376382,-31.104 83.87504218775858,0 83.87504218775858,61.94329870443792
c 0,78.66883162071997 -52.93944151394995,109.77283162071997 -66.96302906028286,78.66883162071997
c -72.2057142857143,-31.104 -44.434285714285714,108.86399999999999 -80.87065430223102,180.53116837928002 c -0.0,46.15931919770493 27.771428571428572,229.68137865542846 -20.808140119917017,193.39337865542845
c -117.57692511278863,-31.104 -124.32329188452486,0 -124.32329188452486,65.80662134457154
c 0,59.65342516273853 40.93688478621003,90.75742516273853 138.56690327964455,59.65342516273853
c 72.2057142857143,-31.104 44.434285714285714,108.86399999999999 6.564528724797327,199.54657483726146 c 0.0,97.23816936762945 -27.771428571428572,227.8169816296444 19.315235953440133,191.5289816296444
c 119.6708924807585,-31.104 168.92836734540595,0 168.92836734540595,67.6710183703556
c 0,36.411925309137814 -50.57239124794178,67.51592530913781 -115.87751823932334,36.411925309137814
c -72.2057142857143,-31.104 -44.434285714285714,108.86399999999999 -72.36608505952273,222.78807469086217 L 0 2592 " fill="none" stroke="black" stroke-width="0.1" style="vector-effect:non-scaling-stroke;"/></g><g><path d="M 0 0  L 1110.857143 0  c -0.0,115.43534130732709 27.771428571428572,215.22662022089474 -61.27063327345025,178.93862022089473
c -87.79636739971146,-31.104 -119.40693141174685,0 -119.40693141174685,80.26137977910525
c 0,51.132341387404495 130.0628461761468,82.2363413874045 163.73902118521497,51.132341387404495
c 72.2057142857143,-31.104 44.434285714285714,108.86399999999999 16.93854349998213,208.0676586125955 c 0.0,78.32691254389313 -27.771428571428572,239.67149624430158 38.059761609376565,203.38349624430157
c 29.05962660168496,-31.104 117.56719012678927,0 117.56719012678927,55.81650375569842
c 0,55.19984124848264 -71.76352437572382,86.30384124848264 -104.5038447249473,55.19984124848264
c -72.2057142857143,-31.104 -44.434285714285714,108.86399999999999 -51.123107011218536,204.00015875151735 c 0.0,54.722457143792084 -27.771428571428572,234.87992856356618 61.413979164342315,198.59192856356617
c 57.215499525757934,-31.104 98.08250543684429,0 98.08250543684429,60.60807143643382
c 0,76.72166993523552 -56.603192479430355,107.82566993523552 -85.07309714162687,76.72166993523552
c -72.2057142857143,-31.104 -44.434285714285714,108.86399999999999 -74.42338745955973,182.47833006476446 c -0.0,51.475654789803755 27.771428571428572,237.3339803946462 1.6209572998479358,201.0459803946462
c -32.927726843660594,-31.104 -138.8654554355877,0 -138.8654554355877,58.154019605353795
c 0,56.66167403640276 27.48542018224602,87.76567403640276 50.36766199880597,56.66167403640276
c 72.2057142857143,-31.104 44.434285714285714,108.86399999999999 86.8768361369338,202.53832596359723 c -0.0,100.74087460348579 27.771428571428572,224.25191788857546 -98.29150486650575,187.96391788857545
c -11.648551051266931,-31.104 -41.484834055287095,0 -41.484834055287095,71.23608211142454
c 0,73.92343404983131 103.7442642627811,105.02743404983131 117.19857506412792,73.92343404983131
c 72.2057142857143,-31.104 44.434285714285714,108.86399999999999 22.57776385766492,185.27656595016867 L 0 2592 " fill="none" stroke="black" stroke-width="0.1" style="vector-effect:non-scaling-stroke;"/></g><g><path d="M 0 0  L 1666.285714 0  c 0.0,85.9491584640695 -27.771428571428572,253.47365488878648 75.43247607656768,217.18565488878647
c 26.886476860465187,-31.104 60.295523863043414,0 60.295523863043414,42.014345111213515
c 0,47.70217711115441 -42.883722877511254,78.80617711115441 -122.52728316515699,47.70217711115441
c -72.2057142857143,-31.104 -44.434285714285714,108.86399999999999 -13.200716774454108,211.49782288884558 c -0.0,59.06592684758246 27.771428571428572,215.92914412542913 -93.16845247241511,179.64114412542912
c -22.73264608307181,-31.104 -69.2253117332738,0 -69.2253117332738,79.55885587457087
c 0,61.59836565828289 68.91342193104657,92.70236565828289 94.53031258647142,61.59836565828289
c 72.2057142857143,-31.104 44.434285714285714,108.86399999999999 67.86345161921749,197.6016343417171 c 0.0,145.1937346862217 -27.771428571428572,226.52877005515512 72.13769968748612,190.2407700551551
c 14.38233656687361,-31.104 62.60213833201807,0 62.60213833201807,68.95922994484488
c 0,55.452847678016724 -25.42981167336003,86.55684767801672 -116.85267186979223,55.452847678016724
c -72.2057142857143,-31.104 -44.434285714285714,108.86399999999999 -17.88716614971196,203.74715232198326 c -0.0,87.67732339639196 27.771428571428572,213.33590287996046 -11.061152026799503,177.04790287996045
c -54.042234858302486,-31.104 -169.15161441977995,0 -169.15161441977995,82.15209712003954
c 0,61.945653000562515 132.31173000983162,93.04965300056251 187.98941123666614,61.945653000562515
c 72.2057142857143,-31.104 44.434285714285714,108.86399999999999 -7.776644790086692,197.25434699943747 c 0.0,44.7683852502479 -27.771428571428572,237.54484603939838 116.37750155892358,201.25684603939837
c 44.24424154522401,-31.104 59.84173164329967,0 59.84173164329967,57.94315396060162
c 0,41.07459311155179 -18.855870811398564,72.17859311155179 -81.87341464106517,41.07459311155179
c -72.2057142857143,-31.104 -44.434285714285714,108.86399999999999 -94.34581856115808,218.1254068884482 L 0 2592 " fill="none" stroke="black" stroke-width="0.1" style="vector-effect:non-scaling-stroke;"/></g><g><path d="M 0 0  L 2221.714286 0  c -0.0,38.45686984884906 27.771428571428572,249.7951521149127 -52.934003798315956,213.50715211491269
c -67.92963361562897,-31.104 -124.51528943813315,0 -124.51528943813315,45.6928478850873
c 0,66.8533377939284 64.87509266279203,97.9573377939284 74.61675728103285,66.8533377939284
c 72.2057142857143,-31.104 44.434285714285714,108.86399999999999 102.83253595541626,192.34666220607158 c -0.0,105.40155133247109 27.771428571428572,220.02364912931063 -104.39837053529658,183.73564912931062
c -28.717282667067092,-31.104 -50.29500165028719,0 -50.29500165028719,75.46435087068937
c 0,79.05875955187975 62.59185214588326,110.16275955187974 121.00335841233006,79.05875955187975
c 72.2057142857143,-31.104 44.434285714285714,108.86399999999999 33.69001377325371,180.14124044812024 c 0.0,77.20514183753845 -27.771428571428572,236.55233117442063 83.93700512991849,200.26433117442062
c 17.262224474085286,-31.104 81.14634332246827,0 81.14634332246827,58.93566882557937
c 0,62.3246846927226 -13.389412811603703,93.4286846927226 -49.40062844073752,62.3246846927226
c -72.2057142857143,-31.104 -44.434285714285714,108.86399999999999 -115.68272001164924,196.8753153072774 c -0.0,125.15061148763246 27.771428571428572,249.53159418876848 -23.536062140605214,213.24359418876847
c -111.9910735462796,-31.104 -129.95916172827327,0 -129.95916172827327,45.95640581123152
c 0,52.477242898767486 43.409390047597114,83.58124289876748 54.10945185865803,52.477242898767486
c 72.2057142857143,-31.104 44.434285714285714,108.86399999999999 99.38577201022046,206.7227571012325 c -0.0,111.61281156920438 27.771428571428572,242.6740634135187 -21.6105984714343,206.38606341351868
c -58.29945771940041,-31.104 -127.91337378486828,0 -127.91337378486828,52.813936586481304
c 0,80.95161508783201 20.461599916975164,112.05561508783201 56.85105851726124,80.95161508783201
c 72.2057142857143,-31.104 44.434285714285714,108.86399999999999 92.67291373904135,178.24838491216798 L 0 2592 " fill="none" stroke="black" stroke-width="0.1" style="vector-effect:non-scaling-stroke;"/></g><g><path d="M 0 0  L 2777.142857 0  c 0.0,83.38196266435004 -27.771428571428572,212.54858337772598 0.345363521095368,176.26058337772596
c 121.44107835419338,-31.104 134.66329754168936,0 134.66329754168936,82.93941662227402
c 0,76.91755294874383 -15.170439866375983,108.02155294874383 -18.824913479755537,76.91755294874383
c -72.2057142857143,-31.104 -44.434285714285714,108.86399999999999 -116.1837475830292,182.28244705125616 c -0.0,91.24334247203589 27.771428571428572,235.3378844194617 -112.58007240903717,199.04988441946168
c -17.012933991556785,-31.104 -40.453796291361385,0 -40.453796291361385,60.15011558053831
c 0,46.58877969013645 73.83568097450974,77.69277969013645 135.28035533242436,46.58877969013645
c 72.2057142857143,-31.104 44.434285714285714,108.86399999999999 17.753513367974193,212.61122030986354 c -0.0,107.74283938468942 27.771428571428572,256.83166865547827 -117.4746662806115,220.54366865547826
c -53.2915593375287,-31.104 -61.75048147023557,0 -61.75048147023557,38.65633134452173
c 0,70.31774421144127 121.66607042390999,101.42174421144126 142.49809974575055,70.31774421144127
c 72.2057142857143,-31.104 44.434285714285714,108.86399999999999 36.72704800509652,188.88225578855872 c -0.0,93.18567532455455 27.771428571428572,247.90377778575555 -25.996638246971955,211.61577778575554
c -130.67358569210225,-31.104 -161.17833376239355,0 -161.17833376239355,47.58422221424445
c 0,37.9851253503129 56.78031152351904,69.0891253503129 101.64489112084154,37.9851253503129
c 72.2057142857143,-31.104 44.434285714285714,108.86399999999999 85.53008088852395,221.2148746496871 c -0.0,69.63597507299333 27.771428571428572,237.5553612683239 -74.46330677855345,201.2673612683239
c -50.36065412724187,-31.104 -98.9487502782189,0 -98.9487502782189,57.93263873167609
c 0,38.06416982420177 64.16586375788611,69.16816982420177 73.6179098446365,38.06416982420177
c 72.2057142857143,-31.104 44.434285714285714,108.86399999999999 99.79414721213584,221.13583017579822 L 0 2592 " fill="none" stroke="black" stroke-width="0.1" style="vector-effect:non-scaling-stroke;"/></g><g><path d="M 0 0  L 3332.571429 0  c 0.0,37.42833155810528 -27.771428571428572,232.06301695906814 68.08040827676113,195.77501695906813
c 40.39621576089606,-31.104 70.11699059323074,0 70.11699059323074,63.42498304093186
c 0,42.77102780296758 -17.48057904231308,73.87502780296758 -21.29337183151715,42.77102780296758
c -72.2057142857143,-31.104 -44.434285714285714,108.86399999999999 -116.90402703847472,216.4289721970324 c -0.0,146.7303102095023 27.771428571428572,229.04402630311998 1.9048582613915395,192.75602630311997
c -109.92908648265465,-31.104 -136.71482536186156,0 -136.71482536186156,66.44397369688002
c 0,40.3550191720193 52.70724314759178,71.4590191720193 69.78929425027512,40.3550191720193
c 72.2057142857143,-31.104 44.434285714285714,108.86399999999999 65.02067285019488,218.8449808279807 c 0.0,44.34006633207214 -27.771428571428572,237.4218022973475 42.12589795201922,201.1338022973475
c 39.498605761446754,-31.104 110.17729989936771,0 110.17729989936771,58.06619770265249
c 0,40.66847067749785 -34.50446416164713,71.77247067749785 -45.74733609821975,40.66847067749785
c -72.2057142857143,-31.104 -44.434285714285714,108.86399999999999 -106.55586175316718,218.53152932250214 c 0.0,43.1228155936644 -27.771428571428572,250.53645141357921 36.35395901533414,214.2484514135792
c 61.17380761767558,-31.104 118.37727833827697,0 118.37727833827697,44.951548586420785
c 0,50.341009135443926 -78.16083614568346,81.44500913544393 -115.51910732489937,50.341009135443926
c -72.2057142857143,-31.104 -44.434285714285714,108.86399999999999 -39.21213002871174,208.85899086455606 c 0.0,110.2957195414248 -27.771428571428572,239.15038781379837 114.5051165692708,202.86238781379836
c 57.380545056469174,-31.104 65.34179405773446,0 65.34179405773446,56.337612186201625
c 0,62.923827737977035 -103.9133839750183,94.02782773797703 -119.66056824185037,62.923827737977035
c -72.2057142857143,-31.104 -44.434285714285714,108.86399999999999 -60.18634238515489,196.27617226202295 L 0 2592 " fill="none" stroke="black" stroke-width="0.1" style="vector-effect:non-scaling-stroke;"/></g></g><g><g><path d="M 0 0  L 0 518.400000  c 69.50178700976039,-0.0 266.34394920991053,25.92 227.46394920991054,-68.48982452511943
c -33.325714285714284,-66.43602823590685 0,-82.0378539876862 50.250336504375184,-82.0378539876862
c 42.13488053695335,0 75.46059482266763,33.8093780019672 42.13488053695335,68.17854052431662
c -33.325714285714284,67.392 116.64,41.472 235.57940517733238,82.34913798848902 c 124.27227802203352,0.0 273.69263448946657,-25.92 234.81263448946655,6.831304931781731
c -33.325714285714284,70.3258541584203 0,133.7134382225113 42.901651224819176,133.7134382225113
c 59.81537540269778,0 93.14108968841207,-60.187235608886716 59.81537540269778,-125.52176145388644
c -33.325714285714284,-67.392 116.64,-41.472 217.89891031158794,-15.02298170040659 c 68.002503274717,0.0 242.02743262200397,-25.92 203.14743262200398,57.81911163625962
c -33.325714285714284,67.28891213880101 0,114.25031434728324 74.56685309228175,114.25031434728324
c 77.62204732324017,0 110.94776160895445,-125.17200131533153 77.62204732324017,-127.56411507848449
c -33.325714285714284,-67.392 116.64,-41.472 200.09223839104556,-44.505310905058366 c 124.04353713357008,-0.0 246.07636482823054,25.92 207.19636482823054,-82.12738048965525
c -33.325714285714284,-38.75595746292668 0,-93.33769773395986 70.51792088605518,-93.33769773395986
c 41.0326185565915,0 74.35833284230578,42.13704823814149 41.0326185565915,143.90709334635935
c -33.325714285714284,67.392 116.64,41.472 236.68166715769422,31.557984877255763 c 144.60049323795718,-0.0 251.18203353768948,25.92 212.30203353768948,-88.7801004463028
c -33.325714285714284,-48.17204271875481 0,-56.215452403455444 65.41225217659624,-56.215452403455444
c 63.30743689990754,0 96.63315118562183,97.40790601429023 63.30743689990754,155.02857457918785
c -33.325714285714284,67.392 116.64,41.472 214.40684881437818,-10.033021729429606 c 63.39555764609529,-0.0 277.54748125729606,25.92 238.66748125729603,-88.98014073137996
c -33.325714285714284,-75.16966800810307 0,-86.86302366080342 39.04680445698969,-86.86302366080342
c 54.435598743758305,0 87.76131302947259,57.98710433748242 54.435598743758305,114.79520579208764
c -33.325714285714284,67.392 116.64,41.472 223.27868697052742,61.04795860009574 c 146.41495357581516,-0.0 242.6401903877984,25.92 203.76019038779842,-78.76280690802284
c -33.325714285714284,-29.21331576073918 0,-46.0856271110228 73.9540953264873,-46.0856271110228
c 53.224057811835905,0 86.54977209755019,69.40437869523963 53.224057811835905,94.90324990232457
c -33.325714285714284,67.392 116.64,41.472 224.49022790244982,29.945184116721066 L 3888 0 " fill="none" stroke="black" stroke-width="0.1" style="vector-effect:non-scaling-stroke;"/></g><g><path d="M 0 0  L 0 1036.800000  c 87.7882525850384,-0.0 241.76062755842258,25.92 202.8806275584226,2.6740199943585776
c -33.325714285714284,-128.81807094957452 0,-178.7824861096859 74.83365815586313,-178.7824861096859
c 47.73176511114235,0 81.05747939685664,80.20159454435546 47.73176511114235,82.40494826572917
c -33.325714285714284,67.392 116.64,41.472 229.98252060314337,93.70351784959813 c 99.05639487589752,0.0 267.89666557989864,-25.92 229.0166655798986,43.720077508326106
c -33.325714285714284,79.25276271265663 0,85.9123740352847 48.69762013438711,85.9123740352847
c 68.54874012022816,0 101.87445440594244,-43.84255477232876 68.54874012022816,-74.01605124831049
c -33.325714285714284,-67.392 116.64,-41.472 209.16554559405756,-55.61640029530032 c 119.29991240339656,-0.0 232.61955180818742,25.92 193.73955180818743,-66.37219290937722
c -33.325714285714284,-36.06319180409425 0,-80.32538254387984 83.9747339060983,-80.32538254387984
c 80.22500134868142,0 113.5507156343957,65.65477673280493 80.22500134868142,67.12502851672406
c -33.325714285714284,67.392 116.64,41.472 197.4892843656043,79.572546936533 c 110.04963921435494,0.0 247.37854341047478,-25.92 208.49854341047478,50.24699491302183
c -33.325714285714284,70.4882353733535 0,124.34900712074653 69.21574230381094,124.34900712074653
c 76.07908171378227,0 109.40479599949656,-32.10927422939316 76.07908171378227,-121.57668653145149
c -33.325714285714284,-67.392 116.64,-41.472 201.63520400050345,-53.019315502316886 c 119.39273570043511,0.0 260.9952861652726,-25.92 222.11528616527258,24.943991336775134
c -33.325714285714284,89.39199275081131 0,107.02033531115015 55.59899954901314,107.02033531115015
c 42.65001781585926,0 75.97573210157354,-97.70784293647768 42.65001781585926,-129.36454942649263
c -33.325714285714284,-67.392 116.64,-41.472 235.06426789842646,-2.599777221432646 c 126.97791344405839,0.0 232.90756619497893,-25.92 194.02756619497893,55.734596831118566
c -33.325714285714284,26.283896539064063 0,68.89533094561467 83.68671951930679,68.89533094561467
c 74.36216858119667,0 107.68788286691095,-15.84354048666591 74.36216858119667,-33.98158442227391
c -33.325714285714284,-67.392 116.64,-41.472 203.35211713308905,-90.64834335445933 c 99.30028726113434,0.0 265.30355776260694,-25.92 226.42355776260692,105.13450327022186
c -33.325714285714284,28.612786136451913 0,29.05009920176711 51.290727951678804,29.05009920176711
c 87.08178330854685,0 120.40749759426113,-35.75548270398247 87.08178330854685,-60.17524482531542
c -33.325714285714284,-67.392 116.64,-41.472 190.63250240573888,-74.00935764667355 L 3888 0 " fill="none" stroke="black" stroke-width="0.1" style="vector-effect:non-scaling-stroke;"/></g><g><path d="M 0 0  L 0 1555.200000  c 131.89950885616264,0.0 265.2803126052344,-25.92 226.4003126052344,55.23286721228152
c -33.325714285714284,59.39648004490927 0,88.26360561153908 51.31397310905132,88.26360561153908
c 53.61697584926378,0 86.94269013497806,-112.58094896153058 53.61697584926378,-127.1496036973054
c -33.325714285714284,-67.392 116.64,-41.472 224.09730986502194,-16.3468691265152 c 158.87547902010317,0.0 232.51707199224177,-25.92 193.63707199224177,111.04064234140121
c -33.325714285714284,39.57623276964495 0,41.720392108578565 84.07721372204395,41.720392108578565
c 73.7599995524402,0 107.08571383815449,-58.11521133811378 73.7599995524402,-131.72272532539807
c -33.325714285714284,-67.392 116.64,-41.472 203.95428616184552,-21.0383091245817 c 59.961848101870544,0.0 233.93781535532028,-25.92 195.0578153553203,81.50400823725222
c -33.325714285714284,15.090200179634977 0,64.34439354457528 82.65647035896544,64.34439354457528
c 72.0907422021013,0 105.41645648781558,-51.54888901150679 72.0907422021013,-55.372474889293386
c -33.325714285714284,-67.392 116.64,-41.472 205.62354351218443,-90.47592689253412 c 140.8225517823478,0.0 236.42406296337663,-25.92 197.54406296337663,52.27149393689604
c -33.325714285714284,112.85343628409218 0,116.5214443848327 80.17022275090909,116.5214443848327
c 54.109809268006074,0 87.43552355372036,-56.806592276304805 54.109809268006074,-155.14378403993877
c -33.325714285714284,-67.392 116.64,-41.472 223.60447644627965,-13.649154281789976 c 155.05754340576743,0.0 238.64583055645303,-25.92 199.76583055645304,92.6142201859463
c -33.325714285714284,43.35600213836462 0,49.82722911532835 77.94845515783268,49.82722911532835
c 42.13943622673287,0 75.46515051244715,-31.132680549901803 42.13943622673287,-43.153855506182694
c -33.325714285714284,-67.392 116.64,-41.472 235.57484948755285,-99.28759379509195 c 95.65470655010216,0.0 228.4728063517716,-25.92 189.5928063517716,93.41677056067277
c -33.325714285714284,26.013498279436224 0,33.22914917263007 88.12147936251412,33.22914917263007
c 70.5624675475791,0 103.88818183329339,-48.62758037139698 70.5624675475791,-95.4904779063651
c -33.325714285714284,-67.392 116.64,-41.472 207.15181816670662,-31.155441826937746 c 29.74745735967708,0.0 237.1131621157486,-25.92 198.2331621157486,38.69095585274462
c -33.325714285714284,70.19255684492127 0,100.44422897622024 79.48112359853712,100.44422897622024
c 78.5430684281568,0 111.86878271387108,-39.35059864982285 78.5430684281568,-122.61927534110082
c -33.325714285714284,-67.392 116.64,-41.472 199.17121728612892,-16.51590948786405 L 3888 0 " fill="none" stroke="black" stroke-width="0.1" style="vector-effect:non-scaling-stroke;"/></g><g><path d="M 0 0  L 0 2073.600000  c 57.59268676495737,-0.0 245.1851309332923,25.92 206.3051309332923,-92.44108193515339
c -33.325714285714284,-34.71651265981026 0,-35.88475291686049 71.40915478099342,-35.88475291686049
c 81.59129877937818,0 114.91701306509246,45.93220903721207 81.59129877937818,91.64692034718297
c -33.325714285714284,67.392 116.64,41.472 196.12298693490754,36.678914504830914 c 64.1714334873446,0.0 249.76113645813598,-25.92 210.88113645813598,-8.640051260725231
c -33.325714285714284,97.00973780478257 0,145.2189105835233 66.83314925614974,145.2189105835233
c 54.57701883060673,0 87.90273311632102,-26.371976202261582 54.57701883060673,-58.83663569754323
c -33.325714285714284,-67.392 116.64,-41.472 223.137266883679,-77.74222362525482 c 147.9117323065707,0.0 262.10786309026076,-25.92 223.22786309026074,112.38789553930692
c -33.325714285714284,13.140471001171335 0,57.12170069990526 54.48642262402498,57.12170069990526
c 58.4514775861698,0 91.77719187188409,-61.927948006127714 58.4514775861698,-65.89221849800306
c -33.325714285714284,-67.392 116.64,-41.472 219.26280812811592,-103.61737774120913 c 138.28724216188317,-0.0 244.83642793030543,25.92 205.95642793030544,-66.265333125983
c -33.325714285714284,-47.66149243492235 0,-79.23999579474597 71.75785778398028,-79.23999579474597
c 47.87001394183534,0 81.19572822754962,69.74756018122685 47.87001394183534,121.82438497625037
c -33.325714285714284,67.392 116.64,41.472 229.84427177245038,23.6809439444786 c 71.93723087300441,0.0 259.27700209620264,-25.92 220.39700209620264,24.305485599567074
c -33.325714285714284,73.41408474844133 0,102.2399000586449 57.31728361808308,102.2399000586449
c 71.03737059238051,0 104.3630848780948,-58.523997077747794 71.03737059238051,-103.35647579592974
c -33.325714285714284,-67.392 116.64,-41.472 206.6769151219052,-23.188909862282244 c 95.1207876258751,0.0 265.4008890145635,-25.92 226.52088901456352,107.21681890937285
c -33.325714285714284,12.796040516067945 0,23.57336168754469 51.1933966997222,23.57336168754469
c 43.08309131215208,0 76.40880559786636,-27.736430507281295 43.08309131215208,-70.66897696611056
c -33.325714285714284,-67.392 116.64,-41.472 234.63119440213364,-60.121203630806974 c 94.25800591346794,-0.0 242.35010911085965,25.92 203.47010911085965,-57.27824626329326
c -33.325714285714284,-45.68808278293177 0,-98.11057482364532 74.24417660342607,-98.11057482364532
c 77.92709676997492,0 111.25281105568921,72.06958583823686 77.92709676997492,93.68219606973726
c -33.325714285714284,67.392 116.64,41.472 199.7871889443108,61.70662501720132 L 3888 0 " fill="none" stroke="black" stroke-width="0.1" style="vector-effect:non-scaling-stroke;"/></g></g></svg>