<svg baseProfile="full" height="3334" preserveAspectRatio="none" shape-rendering="geometricPrecision" version="1.1" viewBox="0,0,5000,3334" width="5000" xmlns="http://www.w3.org/2000/svg" xmlns:ev="http://www.w3.org/2001/xml-events" xmlns:xlink="http://www.w3.org/1999/xlink"><title>Jigsaw puzzle piece clips</title><desc>Created with the piecemaker. Piece count: 24</desc><defs/><g><g><rect fill="white" height="3334" width="5000" x="0" y="0"/></g></g><g><g><path d="M 0 0  L 833.333333 0  c 0.0,60.179475942467235 -41.66666666666667,343.5212699541691 135.00605474403903,285.1762699541691
c 49.7697265331615,-50.01 89.70564501748487,0 89.70564501748487,131.57373004583093
c 0,115.38484766593808 -64.60985138841511,165.39484766593807 -152.84010827228423,115.38484766593808
c -108.33333333333334,-50.01 -66.66666666666667,175.035 -71.87159148923968,301.3651523340619 c -0.0,207.48592295310806 41.66666666666667,346.1501709286449 -169.74334241030064,287.8051709286449
c -39.00001803733286,-50.01 -56.23926585613788,0 -56.23926585613788,128.94482907135512
c 0,62.78277149226511 37.35381498534755,112.7927714922651 120.12753750222006,62.78277149226511
c 108.33333333333334,-50.01 66.66666666666667,175.035 105.85507076421845,353.9672285077349 c 0.0,159.12183417095036 -41.66666666666667,350.6737034909793 41.824110042397066,292.32870349097925
c 171.65845852386926,-50.01 178.20375916454975,0 178.20375916454975,124.42129650902075
c 0,117.70907657748069 -85.37399606211552,167.71907657748068 -214.61780494983662,117.70907657748069
c -108.33333333333334,-50.01 -66.66666666666667,175.035 -5.410064257110207,299.0409234225193 c 0.0,235.1953438320489 -41.66666666666667,386.264919075058 118.03842299269346,327.919919075058
c 52.23955069933302,-50.01 99.09291197643006,0 99.09291197643006,88.83008092494202
c 0,71.1107870617015 -64.01312040760183,121.12078706170149 -73.72770378198291,71.1107870617015
c -108.33333333333334,-50.01 -66.66666666666667,175.035 -143.4036311871406,345.6392129382985 L 0 3334 " fill="none" stroke="black" stroke-width="0.1" style="vector-effect:non-scaling-stroke;"/></g><g><path d="M 0 0  L 1666.666667 0  c -0.0,179.64317202681386 41.66666666666667,371.83136701835923 -50.38927364581747,313.4863670183592
c -94.076823275109,-50.01 -191.93055644940512,0 -191.93055644940512,103.2636329816408
c 0,115.80796429153031 26.166638092032876,165.8179642915303 70.31117414971186,115.80796429153031
c 108.33333333333334,-50.01 66.66666666666667,175.035 172.00865594551072,300.9420357084697 c -0.0,169.39361266299107 41.66666666666667,364.0550308075816 -126.41937624233442,305.7100308075816
c -60.440132688401114,-50.01 -89.96890494164062,0 -89.96890494164062,111.03996919241843
c 0,73.54116325110812 80.13655272356681,123.55116325110811 97.63161573290432,73.54116325110812
c 108.33333333333334,-50.01 66.66666666666667,175.035 118.75666545107072,343.2088367488919 c -0.0,103.15810690264004 41.66666666666667,355.8204964288722 -20.315892010326248,297.4754964288722
c -96.7649979320094,-50.01 -243.52312722314258,0 -243.52312722314258,119.27450357112781
c 0,82.64079311430379 49.944745573442944,132.65079311430378 235.0027281129227,82.64079311430379
c 108.33333333333334,-50.01 66.66666666666667,175.035 28.83629112054612,334.1092068856962 c -0.0,192.65918660481066 41.66666666666667,403.26632290556154 -180.03686662033743,344.9213229055615
c -52.68902559449847,-50.01 -83.6993446319753,0 -83.6993446319753,71.82867709443849
c 0,113.92175849181649 55.40633809476656,163.93175849181648 209.39164515786945,113.92175849181649
c 108.33333333333334,-50.01 66.66666666666667,175.035 54.34456609444328,302.8282415081835 L 0 3334 " fill="none" stroke="black" stroke-width="0.1" style="vector-effect:non-scaling-stroke;"/></g><g><path d="M 0 0  L 2500.000000 0  c -0.0,197.61778907567765 41.66666666666667,356.8930879962339 -51.249677276149974,298.54808799623385
c -52.913384282090924,-50.01 -154.98892889824376,0 -154.98892889824376,118.20191200376615
c 0,78.03770211315367 71.12642415478733,128.04770211315366 99.06302934417486,78.03770211315367
c 108.33333333333334,-50.01 66.66666666666667,175.035 107.17557683021887,338.71229788684633 c 0.0,141.6803894278701 -41.66666666666667,344.975701627826 49.662961448344014,286.630701627826
c 111.88054476093369,-50.01 161.4296897949022,0 161.4296897949022,130.119298372174
c 0,73.34318198425359 -118.03191081841385,123.35318198425358 -187.96359903887335,73.34318198425359
c -108.33333333333334,-50.01 -66.66666666666667,175.035 -23.12905220437287,343.4068180157464 c -0.0,151.6623988347508 41.66666666666667,390.89502635464515 -112.69484040449154,332.5500263546451
c -30.17216847041975,-50.01 -98.99095553328468,0 -98.99095553328468,84.19997364535487
c 0,101.9648685122072 163.4300464852331,151.9748685122072 187.2727116223309,101.9648685122072
c 108.33333333333334,-50.01 66.66666666666667,175.035 24.41308431544533,314.7851314877928 c -0.0,139.65403261467063 41.66666666666667,400.9586970267035 -19.455188566336286,342.61369702670345
c -212.70455793348015,-50.01 -223.12750417314348,0 -223.12750417314348,74.13630297329655
c 0,89.3370163633536 116.68186301706005,139.3470163633536 171.68660594390207,89.3370163633536
c 108.33333333333334,-50.01 66.66666666666667,175.035 70.8960867955777,327.4129836366464 L 0 3334 " fill="none" stroke="black" stroke-width="0.1" style="vector-effect:non-scaling-stroke;"/></g><g><path d="M 0 0  L 3333.333333 0  c 0.0,213.18573856341936 -41.66666666666667,388.41891018323145 3.4989447110093623,330.0739101832314
c 158.60723029411648,-50.01 226.5442683649484,0 226.5442683649484,86.67608981676858
c 0,116.47868569133846 -103.61296054454155,166.48868569133845 -174.5758516492832,116.47868569133846
c -108.33333333333334,-50.01 -66.66666666666667,175.035 -55.46736142667456,300.27131430866154 c -0.0,123.6998788748275 41.66666666666667,380.9002288298333 -60.43498557102529,322.55522882983325
c -163.96671642150716,-50.01 -181.8228418879217,0 -181.8228418879217,94.19477117016675
c 0,98.98536197992212 101.22542564681788,148.9953619799221 155.16351598696642,98.98536197992212
c 108.33333333333334,-50.01 66.66666666666667,175.035 87.09431147198057,317.7646380200779 c 0.0,48.251693569038046 -41.66666666666667,408.1317044810789 127.79699103750605,349.78670448107886
c 89.04431936085211,-50.01 103.13958110644421,0 103.13958110644421,66.96329551892114
c 0,93.48870558004177 -211.06654411319047,143.49870558004176 -240.31753346186764,93.48870558004177
c -108.33333333333334,-50.01 -66.66666666666667,175.035 9.380961317917382,323.26129441995823 c -0.0,189.20564277734059 41.66666666666667,397.01070601759204 -0.241761078986465,338.665706017592
c -103.40117349390606,-50.01 -270.2018322709606,0 -270.2018322709606,78.08429398240798
c 0,96.67942238558192 63.83550245703799,146.6894223855819 171.1524543964967,96.67942238558192
c 108.33333333333334,-50.01 66.66666666666667,175.035 99.2911389534504,320.0705776144181 L 0 3334 " fill="none" stroke="black" stroke-width="0.1" style="vector-effect:non-scaling-stroke;"/></g><g><path d="M 0 0  L 4166.666667 0  c -0.0,119.40561142846887 41.66666666666667,375.5400052987447 -117.07162639663649,317.19500529874466
c -86.2411455883806,-50.01 -118.53208076155845,0 -118.53208076155845,99.55499470125534
c 0,114.0564602759506 54.1334474335155,164.0664602759506 214.8937532088393,114.0564602759506
c 108.33333333333334,-50.01 66.66666666666667,175.035 20.709953949355622,302.6935397240494 c 0.0,198.5023182192879 -41.66666666666667,401.4345339595882 161.58403294983512,343.08953395958815
c 15.687413355193275,-50.01 72.32002144135214,0 72.32002144135214,73.66046604041185
c 0,119.56174080019514 -190.29871078624907,169.57174080019513 -246.23482355552764,119.56174080019514
c -108.33333333333334,-50.01 -66.66666666666667,175.035 12.330769164340381,297.18825919980486 c 0.0,159.0742112470036 -41.66666666666667,375.47344404032043 11.06174644909144,317.1284440403204
c 229.06175786686362,-50.01 233.97193338605982,0 233.97193338605982,99.6215559596796
c 0,80.28285029502808 -131.30013043972872,130.29285029502807 -192.51363224965428,80.28285029502808
c -108.33333333333334,-50.01 -66.66666666666667,175.035 -52.52004758549697,336.4671497049719 c -0.0,226.16084745099 41.66666666666667,371.40398246253113 -42.65373261960115,313.0589824625311
c -36.34391189541584,-50.01 -162.35120926006937,0 -162.35120926006937,103.6910175374689
c 0,129.31933923489532 54.73127303659419,179.32933923489531 148.24207095398884,129.31933923489532
c 108.33333333333334,-50.01 66.66666666666667,175.035 56.76287092568168,287.4306607651047 L 0 3334 " fill="none" stroke="black" stroke-width="0.1" style="vector-effect:non-scaling-stroke;"/></g></g><g><g><path d="M 0 0  L 0 833.500000  c 119.56429820587337,-0.0 349.7123429703589,41.675000000000004 291.3790096370256,-57.51689057843125
c -50.0,-75.64341842267122 0,-158.77027203928745 125.28765702964108,-158.77027203928745
c 64.90453032536453,0 114.90453032536453,56.04278730105238 64.90453032536453,98.7997264173295
c -50.0,108.355 175.0,66.68 351.76213634130215,117.48743620038921 c 222.89658704738258,0.0 376.79028800164076,-41.675000000000004 318.45695466830745,160.6310862942403
c -50.0,76.82070549401986 0,88.6668924396524 98.20971199835924,88.6668924396524
c 104.83493501452205,0 154.83493501452205,-186.27442750633227 104.83493501452205,-195.5110736058399
c -50.0,-108.355 175.0,-66.68 311.83173165214464,-53.78690512805281 c 113.19578920139044,0.0 396.04942865757437,-41.675000000000004 337.71609532424105,5.58711926787799
c -50.0,57.204229261596026 0,240.02004876421407 78.95057134242563,240.02004876421407
c 79.13724060540767,0 129.13724060540767,-71.47818160098052 79.13724060540767,-192.28447506139753
c -50.0,-108.355 175.0,-66.68 337.529426061259,-53.32269297069453 c 89.38230812764604,0.0 368.18820387826395,-41.675000000000004 309.85487054493063,-13.357184499148843
c -50.0,162.06242390237873 0,245.93055205605353 106.81179612173605,245.93055205605353
c 87.22168557496968,0 137.22168557496968,-162.07158641996992 87.22168557496968,-199.9904194027794
c -50.0,-108.355 175.0,-66.68 329.444981091697,-32.58294815412529 c 161.9944542279895,0.0 379.8593779719572,-41.675000000000004 321.52604463862383,130.31593936780305
c -50.0,62.95926352940136 0,147.35447944646737 95.14062202804286,147.35447944646737
c 109.80489172704887,0 159.80489172704887,-239.3151423285518 109.80489172704887,-292.811021166491
c -50.0,-108.355 175.0,-66.68 306.8617749396178,15.140602352220583 c 79.18573563347968,0.0 366.0924146864281,-41.675000000000004 307.7590813530948,47.07977745489163
c -50.0,110.11820598504507 0,223.80161629171917 108.90758531357187,223.80161629171917
c 62.576237523023224,0 112.57623752302322,-166.0819729076069 62.576237523023224,-193.4025637571683
c -50.0,-108.355 175.0,-66.68 354.09042914364346,-77.47882998944249 L 5000 0 " fill="none" stroke="black" stroke-width="0.1" style="vector-effect:non-scaling-stroke;"/></g><g><path d="M 0 0  L 0 1667.000000  c 211.3122693252165,-0.0 389.96713828847317,41.675000000000004 331.6338049551398,-142.7107379691681
c -50.0,-74.1568036479597 0,-93.20120123907458 85.03286171152689,-93.20120123907458
c 106.8579224682149,0 156.8579224682149,20.751788893822724 106.8579224682149,71.25917955665025
c -50.0,108.355 175.0,66.68 309.8087441984518,164.65275965159242 c 196.25654504097628,0.0 352.742258092666,-41.675000000000004 294.4089247593327,-6.207921539672207
c -50.0,163.23415809975356 0,265.0503028000872 122.25774190733398,265.0503028000872
c 88.09078392277098,0 138.09078392277098,-77.97785627976313 88.09078392277098,-122.39261949680608
c -50.0,-108.355 175.0,-66.68 328.5758827438957,-136.4497617636089 c 181.70579189166565,-0.0 381.9488116577693,41.675000000000004 323.61547832443597,-40.65466853091084
c -50.0,-133.39610928996618 0,-173.68196273787393 93.05118834223072,-173.68196273787393
c 132.6398328439695,0 182.6398328439695,170.45516338992434 132.6398328439695,198.37054926770185
c -50.0,108.355 175.0,66.68 284.0268338226972,15.966082001082924 c 221.67490924410782,-0.0 401.4299503273302,41.675000000000004 343.0966169939968,2.7923179900433697
c -50.0,-121.78774751695408 0,-259.7304147728048 73.57004967266988,-259.7304147728048
c 71.81150955100253,0 121.81150955100253,112.68353767531283 71.81150955100253,270.7344759893242
c -50.0,108.355 175.0,66.68 344.85515711566416,-13.79637920656279 c 95.34693993089778,0.0 409.5959348826583,-41.675000000000004 351.2626015493249,57.781492460645566
c -50.0,121.96285644352064 0,200.6555581072314 65.40406511734176,200.6555581072314
c 129.70099084351347,0 179.70099084351347,-87.84042881551623 129.70099084351347,-128.9954826132994
c -50.0,-108.355 175.0,-66.68 286.9656758231532,-129.44156795457755 c 60.90375482552017,0.0 368.19401514670494,-41.675000000000004 309.8606818133716,106.03778300791429
c -50.0,111.14204957598488 0,149.43414336681536 106.80598485329506,149.43414336681536
c 104.56832091643338,0 154.56832091643338,-141.49490490451274 104.56832091643338,-228.59364297374165
c -50.0,-108.355 175.0,-66.68 312.0983457502333,-26.87828340098801 L 5000 0 " fill="none" stroke="black" stroke-width="0.1" style="vector-effect:non-scaling-stroke;"/></g><g><path d="M 0 0  L 0 2500.500000  c 204.8179514693549,0.0 351.96298473476736,-41.675000000000004 293.62965140143405,29.457737877339436
c -50.0,77.3791418361445 0,246.881464625699 123.03701526523264,246.881464625699
c 63.34134445838703,0 113.34134445838703,-153.78507196373312 63.34134445838703,-291.59691588015374
c -50.0,-108.355 175.0,-66.68 353.32532220827966,15.257713377115294 c 170.57404150485883,0.0 380.9327771410725,-41.675000000000004 322.5994438077392,31.966246923887486
c -50.0,53.39968007196026 0,187.01622875441296 94.0672228589275,187.01622875441296
c 60.796029109017354,0 110.79602910901735,-228.85887401434593 60.796029109017354,-233.50740651049637
c -50.0,-108.355 175.0,-66.68 355.87063755764933,14.524930832195906 c 66.5397569225815,0.0 361.2729769838927,-41.675000000000004 302.9396436505594,-4.593543499053373
c -50.0,88.94926401603155 0,262.4365620577513 113.7270230161073,262.4365620577513
c 86.33146350310142,0 136.33146350310142,-222.4108904149627 86.33146350310142,-230.23441557038493
c -50.0,-108.355 175.0,-66.68 330.33520316356527,-27.60860298831298 c 43.37599080738845,-0.0 370.2465700792362,41.675000000000004 311.9132367459029,-4.325528008426666
c -50.0,-157.48129852063877 0,-217.62080921222568 104.75342992076378,-217.62080921222568
c 92.22257479693212,0 142.22257479693212,99.3685207086915 92.22257479693212,109.99755160142449
c -50.0,108.355 175.0,66.68 324.44409186973456,111.94878561922785 c 132.29338634100728,0.0 400.4742477969447,-41.675000000000004 342.1409144636114,23.020153298460293
c -50.0,118.53395163775997 0,243.62576593405095 74.52575220305528,243.62576593405095
c 81.60239208151324,0 131.60239208151324,-136.07003983289601 81.60239208151324,-251.89705953189144
c -50.0,-108.355 175.0,-66.68 335.06427458515344,-14.74885970061979 c 80.97809654639724,-0.0 372.7920187876249,41.675000000000004 314.4586854542916,-25.58172324974514
c -50.0,-128.447935060741 0,-186.4990976596299 102.2079812123751,-186.4990976596299
c 67.48811536567746,0 117.48811536567746,83.18217141763364 67.48811536567746,192.35827818543106
c -50.0,108.355 175.0,66.68 349.1785513009892,19.722542723944002 L 5000 0 " fill="none" stroke="black" stroke-width="0.1" style="vector-effect:non-scaling-stroke;"/></g></g></svg>