<svg baseProfile="full" height="2848" preserveAspectRatio="none" shape-rendering="geometricPrecision" version="1.1" viewBox="0,0,4272,2848" width="4272" xmlns="http://www.w3.org/2000/svg" xmlns:ev="http://www.w3.org/2001/xml-events" xmlns:xlink="http://www.w3.org/1999/xlink"><title>Jigsaw puzzle piece clips</title><desc>Created with the piecemaker. Piece count: 12</desc><defs /><g><g><rect fill="white" height="2848" width="4272" x="0" y="0" /></g></g><g><g><path d="M 0 0  L 1068.000000 0  c 0.0,185.40511417971365 -53.400000000000006,441.70174225036806 155.6225412224317,375.24840891703474&#10;c 122.65787028573348,-56.96 187.95846115978438,0 187.95846115978438,99.41825774963195&#10;c 0,111.13559406985934 -171.93754854575056,168.09559406985935 -254.4296362876455,111.13559406985934&#10;c -138.84,-56.96 -85.44,199.36 -89.15136609457056,363.53107259680735 c -0.0,232.17787628509302 53.400000000000006,422.1636211682619 0.9655937232064281,355.7102878349285&#10;c -215.96522175282854,-56.96 -338.2595426833445,0 -338.2595426833445,118.95637883173816&#10;c 0,80.62277735342622 164.61266803444704,137.58277735342622 194.02381430072742,80.62277735342622&#10;c 138.84,-56.96 85.44,199.36 143.27013465941062,394.04388931324047 c 0.0,134.39156297646315 -53.400000000000006,466.78116816325974 -10.051543573235424,400.3278348299264&#10;c 227.24100434198223,-56.96 277.8795309834972,0 277.8795309834972,74.33883183674027&#10;c 0,89.6595355793907 -91.08899804707252,146.6195355793907 -204.33586689156397,89.6595355793907&#10;c -138.84,-56.96 -85.44,199.36 -63.49212051869779,385.007131087276 L 0 2848 " fill="none" stroke="black" stroke-width="0.1" style="vector-effect:non-scaling-stroke;" /></g><g><path d="M 0 0  L 2136.000000 0  c -0.0,160.60110339263815 53.400000000000006,432.61077176677793 -128.6112487423357,366.1574384334446&#10;c -168.47531362879357,-56.96 -204.50723468065183,0 -204.50723468065183,108.50922823322207&#10;c 0,111.2717457870537 318.52614043804857,168.2317457870537 324.59110449219907,111.2717457870537&#10;c 138.84,-56.96 85.44,199.36 8.527378930788473,363.394920879613 c -0.0,231.34855434527736 53.400000000000006,402.1786149143604 16.276050741933684,335.7252815810271&#10;c -162.71915641680053,-56.96 -327.0247209336854,0 -327.0247209336854,138.94138508563958&#10;c 0,150.24882995650836 221.23330112814625,207.20882995650837 287.9631880275057,150.24882995650836&#10;c 138.84,-56.96 85.44,199.36 22.785482164246048,324.4178367101583 c 0.0,215.54341858344236 -53.400000000000006,474.3555686342246 86.33364701744372,407.9022353008912&#10;c 120.26785662746559,-56.96 268.9108077958043,0 268.9108077958043,66.76443136577547&#10;c 0,99.69454207377754 -114.93323008164703,156.65454207377755 -176.9850498541428,99.69454207377754&#10;c -138.84,-56.96 -85.44,199.36 -178.2594049591052,374.97212459288914 L 0 2848 " fill="none" stroke="black" stroke-width="0.1" style="vector-effect:non-scaling-stroke;" /></g><g><path d="M 0 0  L 3204.000000 0  c 0.0,231.00717092069493 -53.400000000000006,439.3449429630758 233.19490529362483,372.89160962974245&#10;c 30.37199431308992,-56.96 57.94018230965102,0 57.94018230965102,101.77505703692424&#10;c 0,74.16603985797377 -45.93559628668797,131.12603985797378 -93.041834487566,74.16603985797377&#10;c -138.84,-56.96 -85.44,199.36 -198.09325311570984,400.5006268086929 c -0.0,97.78407072032098 53.400000000000006,433.9023558317764 -72.21621149852935,367.449022498443&#10;c -172.7091945678757,-56.96 -280.3605833717795,0 -280.3605833717795,107.21764416822367&#10;c 0,131.89600074751814 157.13928312708728,188.85600074751815 175.00506947430517,131.89600074751814&#10;c 138.84,-56.96 85.44,199.36 177.57172539600367,342.77066591914854 c 0.0,269.67391294295004 -53.400000000000006,426.55411212336946 127.9961513260803,360.1007787900361&#10;c 88.38236384035858,-56.96 184.39553939270405,0 184.39553939270405,114.5658878766306&#10;c 0,144.01906594219298 -164.30669273586963,200.979065942193 -315.5999694897751,144.01906594219298&#10;c -138.84,-56.96 -85.44,199.36 3.2082787709907734,330.6476007244737 L 0 2848 " fill="none" stroke="black" stroke-width="0.1" style="vector-effect:non-scaling-stroke;" /></g></g><g><g><path d="M 0 0  L 0 949.333333  c 305.0940759369394,0.0 514.6959406462323,-47.46666666666667 439.9359406462323,3.373892845954903&#10;c -64.08,174.21013383707327 0,242.8245334572452 94.06405935376768,242.8245334572452&#10;c 115.99390258301946,0 180.07390258301945,-31.48025046315773 115.99390258301946,-129.34576451813547&#10;c -64.08,-123.41333333333334 224.28,-75.94666666666667 418.00609741698054,-116.85266178506464 c 117.29737029407882,-0.0 515.1409672763644,47.46666666666667 440.3809672763644,-81.51188416525429&#10;c -64.08,-75.439927495815 0,-172.3403212920295 93.6190327236356,-172.3403212920295&#10;c 83.23227609373032,0 147.3122760937303,103.35511310854278 83.23227609373032,122.84744109823316&#10;c -64.08,123.41333333333334 224.28,75.94666666666667 450.7677239062697,131.00476435905063 c 95.33909951474412,0.0 466.3528746825113,-47.46666666666667 391.5928746825113,167.53213539534187&#10;c -64.08,51.56887099517733 0,111.27160341650898 142.4071253174887,111.27160341650898&#10;c 131.04469474157872,0 195.1246947415787,-167.39778678094717 131.04469474157872,-181.45226755711263&#10;c -64.08,-123.41333333333334 224.28,-75.94666666666667 402.9553052584213,-97.35147125473821 c 240.69033950436332,0.0 514.9290818320786,-47.46666666666667 440.16908183207863,3.5079407101003848&#10;c -64.08,108.43042756495991 0,311.96449431326994 93.83091816792137,311.96449431326994&#10;c 117.35129428420646,0 181.43129428420644,-62.39523839403582 117.35129428420646,-197.88125896954986&#10;c -64.08,-123.41333333333334 224.28,-75.94666666666667 416.64870571579354,-117.59117605382048 L 4272 0 " fill="none" stroke="black" stroke-width="0.1" style="vector-effect:non-scaling-stroke;" /></g><g><path d="M 0 0  L 0 1898.666667  c 287.6925771097769,-0.0 452.0883535034125,47.46666666666667 377.32835350341253,13.468026673596484&#10;c -64.08,-102.89631264213307 0,-335.85658081587655 156.67164649658747,-335.85658081587655&#10;c 163.9186620324847,0 227.99866203248467,140.78369460920024 163.9186620324847,284.36253949932853&#10;c -64.08,123.41333333333334 224.28,75.94666666666667 370.0813379675153,38.026014642951566 c 84.06154155223237,0.0 471.8663847173952,-47.46666666666667 397.1063847173952,-11.012752000416867&#10;c -64.08,172.48319604353293 0,323.746876443996 136.8936152826048,323.746876443996&#10;c 136.25324168178747,0 200.33324168178746,-283.4796435692936 136.25324168178747,-287.4133320114858&#10;c -64.08,-123.41333333333334 224.28,-75.94666666666667 397.7467583182125,-25.3207924320933 c 91.0258244208551,0.0 526.4526648263379,-47.46666666666667 451.69266482633793,14.479368061485392&#10;c -64.08,80.63610048527539 0,296.97315941122156 82.30733517366207,296.97315941122156&#10;c 122.17869742923347,0 186.25869742923345,-208.28686053479663 122.17869742923347,-280.0596019486989&#10;c -64.08,-123.41333333333334 224.28,-75.94666666666667 411.82130257076653,-31.392925524008035 c 90.4043276180592,0.0 479.31583440052066,-47.46666666666667 404.55583440052067,-12.96923541645987&#10;c -64.08,108.11154895481629 0,307.9045527455994 129.44416559947933,307.9045527455994&#10;c 141.70486686711877,0 205.78486686711875,-199.80153754509618 141.70486686711877,-272.6933207839731&#10;c -64.08,-123.41333333333334 224.28,-75.94666666666667 392.29513313288123,-22.241996545166444 L 4272 0 " fill="none" stroke="black" stroke-width="0.1" style="vector-effect:non-scaling-stroke;" /></g></g></svg>