<svg baseProfile="full" height="1667" preserveAspectRatio="none" shape-rendering="geometricPrecision" version="1.1" viewBox="0,0,2500,1667" width="2500" xmlns="http://www.w3.org/2000/svg" xmlns:ev="http://www.w3.org/2001/xml-events" xmlns:xlink="http://www.w3.org/1999/xlink"><title>Jigsaw puzzle piece clips</title><desc>Created with the piecemaker. Piece count: 54</desc><defs/><g><g><rect fill="white" height="1667" width="2500" x="0" y="0"/></g></g><g><g><path d="M 0 0  L 277.777778 0  c 0.0,35.60019323281865 -13.88888888888889,133.30454104848778 30.30919438568068,113.85620771515445
c 48.85825800588343,-16.669999999999998 59.760795288721624,0 59.760795288721624,25.060458951512203
c 0,32.60046175696465 -27.626037715610337,49.27046175696465 -31.23133162481294,32.60046175696465
c -36.111111111111114,-16.669999999999998 -22.22222222222222,58.34499999999999 -58.83865804958937,106.31620490970201 c 0.0,25.867251908183345 -13.88888888888889,114.4560045976252 20.480146591276654,95.00767126429186
c 30.171671236003455,-16.669999999999998 50.65024692464331,0 50.65024692464331,43.9089954023748
c 0,36.710490128867235 -7.5795802650547675,53.38049012886724 -30.792562333415148,36.710490128867235
c -36.111111111111114,-16.669999999999998 -22.22222222222222,58.34499999999999 -40.337831182504814,102.20617653779942 c 0.0,29.763508205359816 -13.88888888888889,117.07817349854744 60.746929698731165,97.6298401652141
c 19.780634555167776,-16.669999999999998 20.357855117978318,0 20.357855117978318,41.28682650145255
c 0,20.44624523212036 -67.40264389761482,37.11624523212036 -70.42248840649454,20.44624523212036
c -36.111111111111114,-16.669999999999998 -22.22222222222222,58.34499999999999 -10.682296410214946,118.4704214345463 c -0.0,73.67595165216382 13.88888888888889,122.41578379258718 -8.419537095747788,102.96745045925384
c -38.226790982800466,-16.669999999999998 -61.78717430699956,0 -61.78717430699956,35.94921620741282
c 0,43.91824821162419 8.03264825739907,60.58824821162419 22.359370580095913,43.91824821162419
c 36.111111111111114,-16.669999999999998 22.22222222222222,58.34499999999999 47.84734082265143,94.99841845504247 c 0.0,66.47929703184451 -13.88888888888889,134.37929952711235 -2.932614913425148,114.93096619377903
c 68.60751217490973,-16.669999999999998 74.10181892753693,0 74.10181892753693,23.98570047288763
c 0,35.18185948371641 -52.23063361692748,51.85185948371641 -72.8489739268559,35.18185948371641
c -36.111111111111114,-16.669999999999998 -22.22222222222222,58.34499999999999 1.6797699127441206,103.73480718295025 c 0.0,43.94505023971044 -13.88888888888889,116.31807233070019 7.055483882378637,96.86973899736685
c 17.547239903042527,-16.669999999999998 68.52745166611238,0 68.52745166611238,42.046927669299805
c 0,21.181245986728328 -33.314817826984,37.85124598672833 -38.55532910567674,21.181245986728328
c -36.111111111111114,-16.669999999999998 -22.22222222222222,58.34499999999999 -37.02760644281428,117.73542067993833 L 0 1667 " fill="none" stroke="black" stroke-width="0.1" style="vector-effect:non-scaling-stroke;"/></g><g><path d="M 0 0  L 555.555556 0  c 0.0,39.858348626011 -13.88888888888889,114.04738272118048 52.42083095160548,94.59904938784715
c 16.02388246399309,-16.669999999999998 32.13998853782137,0 32.13998853782137,44.31761727881951
c 0,21.260766634796312 -77.25341099485745,37.93076663479631 -89.29609777653766,21.260766634796312
c -36.111111111111114,-16.669999999999998 -22.22222222222222,58.34499999999999 4.735278287110816,117.65590003187035 c 0.0,62.54735122211961 -13.88888888888889,124.10487898398029 41.32602300089231,104.65654565064695
c 6.708454847724475,-16.669999999999998 25.873690777586823,0 25.873690777586823,34.26012101601971
c 0,34.03389334778504 -7.076796423551172,50.70389334778504 -8.444180725520162,34.03389334778504
c -36.111111111111114,-16.669999999999998 -22.22222222222222,58.34499999999999 -58.755533052958974,104.88277331888162 c 0.0,15.263337371445578 -13.88888888888889,132.15785210468846 11.864195680471886,112.70951877135514
c 30.469375251143557,-16.669999999999998 67.67747082506617,0 67.67747082506617,26.207147895311522
c 0,22.168840281809366 -14.912223788580219,38.83884028180937 -24.28647014707093,22.168840281809366
c -36.111111111111114,-16.669999999999998 -22.22222222222222,58.34499999999999 -55.25519635846712,116.74782638485729 c -0.0,57.77435989312875 13.88888888888889,129.25658323766643 -29.787146499767214,109.80824990433311
c -9.96200884100578,-16.669999999999998 -40.54105200633934,0 -40.54105200633934,29.108416762333547
c 0,43.209993023570064 24.11328471970336,59.879993023570066 71.77189622847774,43.209993023570064
c 36.111111111111114,-16.669999999999998 22.22222222222222,58.34499999999999 -1.4436977223711835,95.7066736430966 c 0.0,79.61996622834097 -13.88888888888889,120.48703628439232 12.175401284274338,101.03870295105898
c 22.32821548793474,-16.669999999999998 61.975531146823165,0 61.975531146823165,37.87796371560768
c 0,35.93288088480736 -38.55608933270832,52.60288088480736 -45.986071478031164,35.93288088480736
c -36.111111111111114,-16.669999999999998 -22.22222222222222,58.34499999999999 -28.164860953066338,102.9837857818593 c 0.0,57.0787370377656 -13.88888888888889,135.759173751543 40.225994779283674,116.31084041820966
c 21.72434379450136,-16.669999999999998 42.46387232136885,0 42.46387232136885,22.605826248456992
c 0,20.479113383251132 -12.356003535270935,37.149113383251134 -35.88645042080419,20.479113383251132
c -36.111111111111114,-16.669999999999998 -22.22222222222222,58.34499999999999 -46.80341667984833,118.43755328341553 L 0 1667 " fill="none" stroke="black" stroke-width="0.1" style="vector-effect:non-scaling-stroke;"/></g><g><path d="M 0 0  L 833.333333 0  c 0.0,29.38285594642472 -13.88888888888889,135.5064707783717 6.124808397211339,116.05813744503835
c 39.905265852044494,-16.669999999999998 68.64159311774209,0 68.64159311774209,22.858529221628302
c 0,30.390794950361 -15.585048527113631,47.060794950361 -37.159401399688,30.390794950361
c -36.111111111111114,-16.669999999999998 -22.22222222222222,58.34499999999999 -37.60700011526543,108.52587171630566 c -0.0,45.32173587595074 13.88888888888889,135.85500208078363 -38.54008249141148,116.4066687474503
c -35.86245609648739,-16.669999999999998 -39.77871938627622,0 -39.77871938627622,22.50999791921636
c 0,34.16416315535403 14.365366478273717,50.834163155354034 28.15439634594565,34.16416315535403
c 36.111111111111114,-16.669999999999998 22.22222222222222,58.34499999999999 50.164405531742055,104.75250351131263 c 0.0,36.56395454367533 -13.88888888888889,134.4697349392762 12.780867203262458,115.02140160594287
c 34.52402261003774,-16.669999999999998 59.15623771759117,0 59.15623771759117,23.895265060723787
c 0,42.49779759223131 -17.587873518956116,59.16779759223131 -61.646679966846335,42.49779759223131
c -36.111111111111114,-16.669999999999998 -22.22222222222222,58.34499999999999 -10.290424954007293,96.41886907443535 c 0.0,58.09437571665578 -13.88888888888889,114.60741027863952 46.3502356717658,95.15907694530618
c 21.245938956482675,-16.669999999999998 21.079789555822714,0 21.079789555822714,43.757589721360475
c 0,22.43877524755365 -4.02354634444893,39.10877524755365 -17.887597471427902,22.43877524755365
c -36.111111111111114,-16.669999999999998 -22.22222222222222,58.34499999999999 -49.54242775616061,116.477891419113 c -0.0,17.367463277735585 13.88888888888889,135.775849531745 -35.993963375194916,116.32751619841167
c -41.55903652621229,-16.669999999999998 -50.125520376564104,0 -50.125520376564104,22.589150468254985
c 0,25.615024675487433 9.64902627865669,42.285024675487435 30.340561562341883,25.615024675487433
c 36.111111111111114,-16.669999999999998 22.22222222222222,58.34499999999999 55.77892218941714,113.30164199117922 c -0.0,32.768866043808785 13.88888888888889,119.17848467100781 -42.52515453922186,99.73015133767447
c -17.74870089015561,-16.669999999999998 -30.69027716729552,0 -30.69027716729552,39.186515328992186
c 0,40.02918688931311 52.82157959860201,56.69918688931311 57.08081192019863,40.02918688931311
c 36.111111111111114,-16.669999999999998 22.22222222222222,58.34499999999999 16.13461978631875,98.88747977735355 L 0 1667 " fill="none" stroke="black" stroke-width="0.1" style="vector-effect:non-scaling-stroke;"/></g><g><path d="M 0 0  L 1111.111111 0  c 0.0,43.04980069624427 -13.88888888888889,124.80520135326012 54.908552704074154,105.35686801992678
c 6.961465913519018,-16.669999999999998 25.570403734231903,0 25.570403734231903,33.55979864673988
c 0,33.20744173311735 -51.45399906320766,49.87744173311735 -77.83815422488826,33.20744173311735
c -36.111111111111114,-16.669999999999998 -22.22222222222222,58.34499999999999 -2.6408022134177997,105.70922493354931 c -0.0,28.98927618545223 13.88888888888889,120.05120845934049 -18.73516069624769,100.60287512600715
c -23.096041425658726,-16.669999999999998 -59.08845593785462,0 -59.08845593785462,38.31379154065951
c 0,32.47713274200109 13.539668465316886,49.14713274200109 18.13739693835781,32.47713274200109
c 36.111111111111114,-16.669999999999998 22.22222222222222,58.34499999999999 59.6862196957445,106.43953392466557 c -0.0,45.436013185420784 13.88888888888889,121.8482300297624 -41.37312192572851,102.39989669642907
c -23.856335336541346,-16.669999999999998 -35.37582343883601,0 -35.37582343883601,36.51676997023759
c 0,42.41435384144364 9.562192288003734,59.084353841443644 32.51392140725845,42.41435384144364
c 36.111111111111114,-16.669999999999998 22.22222222222222,58.34499999999999 44.23502395730607,96.50231282522302 c -0.0,45.02923118417933 13.88888888888889,129.66799467122357 -25.784945072439083,110.21966133789024
c -44.65460730054612,-16.669999999999998 -56.07470237033996,0 -56.07470237033996,28.697005328776413
c 0,42.15336645108954 12.460660221295417,58.82336645108954 24.700049745907933,42.15336645108954
c 36.111111111111114,-16.669999999999998 22.22222222222222,58.34499999999999 57.15959769687112,96.76330021557712 c -0.0,29.939062947712998 13.88888888888889,136.05016907686547 -58.287697092077416,116.60183574353213
c -32.835631959716146,-16.669999999999998 -32.72631930970041,0 -32.72631930970041,22.314830923134522
c 0,28.632387315993014 53.67935961600138,45.302387315993016 80.05212857176657,28.632387315993014
c 36.111111111111114,-16.669999999999998 22.22222222222222,58.34499999999999 10.96188783001125,110.28427935067364 c -0.0,73.02472616321317 13.88888888888889,130.13944755996775 -48.44818988503639,110.69111422663443
c -18.27865677992744,-16.669999999999998 -33.23740638955967,0 -33.23740638955967,28.22555244003223
c 0,23.59177754033712 70.53838943562883,40.26177754033712 76.92416216203212,23.59177754033712
c 36.111111111111114,-16.669999999999998 22.22222222222222,58.34499999999999 4.761434112563947,115.32488912632954 L 0 1667 " fill="none" stroke="black" stroke-width="0.1" style="vector-effect:non-scaling-stroke;"/></g><g><path d="M 0 0  L 1388.888889 0  c -0.0,57.9972772250858 13.88888888888889,114.69915937546149 -12.283644198414878,95.25082604212815
c -73.12694652883708,-16.669999999999998 -74.91710146457106,0 -74.91710146457106,43.665840624538504
c 0,37.89299947119636 28.03416649261256,54.56299947119636 54.38287857295972,37.89299947119636
c 36.111111111111114,-16.669999999999998 22.22222222222222,58.34499999999999 32.81786709002622,101.0236671954703 c -0.0,54.999309403474975 13.88888888888889,120.35904276052837 -0.6343267151766491,100.91070942719503
c -17.457905200320493,-16.669999999999998 -67.94502023824268,0 -67.94502023824268,38.00595723947163
c 0,41.36555332338003 5.8670042311316575,58.03555332338003 22.023304026517003,41.36555332338003
c 36.111111111111114,-16.669999999999998 22.22222222222222,58.34499999999999 46.55604292690233,97.55111334328663 c -0.0,71.85910242087697 13.88888888888889,120.55436457177643 -2.0720852335435658,101.1060312384431
c -27.447090427657013,-16.669999999999998 -67.85904671025412,0 -67.85904671025412,37.81063542822356
c 0,25.06664970243466 9.734671677814719,41.73664970243466 44.85580954026234,25.06664970243466
c 36.111111111111114,-16.669999999999998 22.22222222222222,58.34499999999999 25.07532240353534,113.850016964232 c -0.0,16.13774821883816 13.88888888888889,120.84026634277325 -4.013750510363599,101.39193300943991
c -74.46658138492569,-16.669999999999998 -88.18311406383377,0 -88.18311406383377,37.52473365722675
c 0,25.82284893736056 29.943559120271612,42.49284893736056 32.354154521004226,25.82284893736056
c 36.111111111111114,-16.669999999999998 22.22222222222222,58.34499999999999 59.84271005319314,113.0938177293061 c 0.0,34.846630585236795 -13.88888888888889,129.9704338472026 49.55603782234943,110.52210051386926
c 16.14833541286569,-16.669999999999998 39.37194078792589,0 39.37194078792589,28.394566152797395
c 0,32.902095782769635 -43.535387541626015,49.57209578276964 -85.30630388143855,32.902095782769635
c -36.111111111111114,-16.669999999999998 -22.22222222222222,58.34499999999999 -3.6216747288367657,106.01457088389702 c 0.0,56.816867568973294 -13.88888888888889,135.81606464355477 46.5332510612057,116.36773131022143
c 20.467166374515553,-16.669999999999998 36.36326932457149,0 36.36326932457149,22.548935356445227
c 0,42.918519632087566 -19.671719715670857,59.58851963208757 -39.43729335897713,42.918519632087566
c -36.111111111111114,-16.669999999999998 -22.22222222222222,58.34499999999999 -43.459227026800065,95.99814703457909 L 0 1667 " fill="none" stroke="black" stroke-width="0.1" style="vector-effect:non-scaling-stroke;"/></g><g><path d="M 0 0  L 1666.666667 0  c 0.0,36.72275690704013 -13.88888888888889,121.5709093092731 59.878636524768545,102.12257597593977
c 5.388745029624,-16.669999999999998 20.149406472092828,0 20.149406472092828,36.79409069072689
c 0,38.0613481083127 -35.580503889312396,54.7313481083127 -35.98056181996766,38.0613481083127
c -36.111111111111114,-16.669999999999998 -22.22222222222222,58.34499999999999 -44.04748117689371,100.85531855835396 c -0.0,30.873400421062822 13.88888888888889,134.77290759246216 -38.87907019815072,115.32457425912884
c -47.65584916848201,-16.669999999999998 -50.53499497685552,0 -50.53499497685552,23.59209240753782
c 0,29.774591960499407 14.499885708603177,46.44459196049941 41.59510328301746,29.774591960499407
c 36.111111111111114,-16.669999999999998 22.22222222222222,58.34499999999999 47.818961891988785,109.14207470616725 c -0.0,31.08445106193711 13.88888888888889,133.18226594063728 -20.132552907149798,113.73393260730396
c -13.529712537109585,-16.669999999999998 -53.87139504137504,0 -53.87139504137504,25.1827340593627
c 0,28.946116210738694 16.207516480588694,45.616116210738696 17.943973619204407,28.946116210738694
c 36.111111111111114,-16.669999999999998 22.22222222222222,58.34499999999999 56.05997432932043,109.97055045592796 c 0.0,75.71576794121407 -13.88888888888889,118.10055641683986 39.44124293222942,98.65222308350653
c 47.622124716866736,-16.669999999999998 51.610086589976014,0 51.610086589976014,40.26444358316013
c 0,25.99184085162142 -20.086583716171525,42.66184085162142 -87.829400872429,25.99184085162142
c -36.111111111111114,-16.669999999999998 -22.22222222222222,58.34499999999999 -3.22192864977643,112.92482581504524 c -0.0,37.97147782378757 13.88888888888889,123.91786581218852 3.1786893865779833,104.46953247885519
c -21.909058424990622,-16.669999999999998 -77.6879674479647,0 -77.6879674479647,34.44713418781147
c 0,20.468956374451267 12.985068132508282,37.13895637445127 19.815620838671435,20.468956374451267
c 36.111111111111114,-16.669999999999998 22.22222222222222,58.34499999999999 54.693657222715274,118.44771029221539 c -0.0,25.8305815383767 13.88888888888889,134.29395410622857 -13.2429926032894,114.84562077289523
c -38.650395794456216,-16.669999999999998 -77.86123632452775,0 -77.86123632452775,24.071045893771426
c 0,29.131565685866462 76.77504584243492,45.801565685866464 91.98640085947063,29.131565685866462
c 36.111111111111114,-16.669999999999998 22.22222222222222,58.34499999999999 -0.8821719316534882,109.7851009808002 L 0 1667 " fill="none" stroke="black" stroke-width="0.1" style="vector-effect:non-scaling-stroke;"/></g><g><path d="M 0 0  L 1944.444444 0  c -0.0,22.675701794874815 13.88888888888889,125.96679466635733 -31.47123108935157,106.51846133302399
c -21.0188791111993,-16.669999999999998 -39.06535615859642,0 -39.06535615859642,32.398205333642665
c 0,30.391966519755613 24.95991578314487,47.061966519755615 38.71621318024799,30.391966519755613
c 36.111111111111114,-16.669999999999998 22.22222222222222,58.34499999999999 31.8203740677,108.52470014691104 c 0.0,15.968283785145111 -13.88888888888889,131.63558898511266 9.06667634775481,112.18725565177934
c 68.22771197331029,-16.669999999999998 71.26019893092489,0 71.26019893092489,26.72941101488732
c 0,24.739437734123698 -43.51511751643903,41.4094377341237 -76.953443106794,24.739437734123698
c -36.111111111111114,-16.669999999999998 -22.22222222222222,58.34499999999999 -3.373432171885696,114.17722893254296 c -0.0,28.301339898047914 13.88888888888889,126.78742244550963 3.632909900767846,107.3390891121763
c -73.73927864693363,-16.669999999999998 -85.00876707390513,0 -85.00876707390513,31.57757755449036
c 0,37.235025825294116 15.690199012705339,53.90502582529412 61.11305418699585,37.235025825294116
c 36.111111111111114,-16.669999999999998 22.22222222222222,58.34499999999999 20.262802986141438,101.68164084137254 c 0.0,21.70465251742494 -13.88888888888889,125.55875837006782 54.07297080353664,106.11042503673448
c 12.721527455419492,-16.669999999999998 18.236242852873467,0 18.236242852873467,32.806241629932174
c 0,35.907417015071445 -18.876482425863315,52.57741701507145 -23.04961473315967,35.907417015071445
c -36.111111111111114,-16.669999999999998 -22.22222222222222,58.34499999999999 -49.25959892325044,103.00924965159521 c -0.0,67.46395014521725 13.88888888888889,135.74722744726708 -39.97748862670116,116.29889411393376
c -28.22449882081179,-16.669999999999998 -37.22531675330339,0 -37.22531675330339,22.6177725527329
c 0,27.675688736145105 14.253611013642967,44.34568873614511 45.794088948116624,27.675688736145105
c 36.111111111111114,-16.669999999999998 22.22222222222222,58.34499999999999 31.408716431887925,111.24097793052155 c 0.0,42.90048571787335 -13.88888888888889,114.4439618518685 55.11577079816766,94.99562851853516
c 8.238100170607385,-16.669999999999998 17.457558705164942,0 17.457558705164942,43.9210381481315
c 0,43.69765470420262 -48.64854673444009,60.36765470420262 -58.48398866252194,43.69765470420262
c -36.111111111111114,-16.669999999999998 -22.22222222222222,58.34499999999999 -14.089340840810664,95.21901196246404 L 0 1667 " fill="none" stroke="black" stroke-width="0.1" style="vector-effect:non-scaling-stroke;"/></g><g><path d="M 0 0  L 2222.222222 0  c 0.0,37.483189109046215 -13.88888888888889,120.4363075904502 36.896950345347584,100.98797425711686
c 27.065341677824637,-16.669999999999998 53.68652672869164,0 53.68652672869164,37.9286924095498
c 0,19.897666714224073 -50.0321519391048,36.567666714224075 -73.12354810841114,19.897666714224073
c -36.111111111111114,-16.669999999999998 -22.22222222222222,58.34499999999999 -17.45992896562808,119.01899995244258 c -0.0,49.51891413785349 13.88888888888889,130.9462325952932 -27.92104439833373,111.49789926195987
c -34.162657614627285,-16.669999999999998 -51.7692253246062,0 -51.7692253246062,27.418767404706784
c 0,29.91030464768781 43.29650595207956,46.58030464768781 51.336397817058,29.91030464768781
c 36.111111111111114,-16.669999999999998 22.22222222222222,58.34499999999999 28.35387190588193,109.00636201897885 c 0.0,14.942399669443331 -13.88888888888889,137.36979097184494 10.106842462694097,117.92145763851161
c 27.1020024011729,-16.669999999999998 83.73849755247483,0 83.73849755247483,20.995209028155045
c 0,36.758942687503065 -11.749439825343725,53.42894268750307 -39.752494718405266,36.758942687503065
c -36.111111111111114,-16.669999999999998 -22.22222222222222,58.34499999999999 -54.09284529676365,102.15772397916359 c 0.0,59.65504433660893 -13.88888888888889,124.18507733875394 49.249761304675516,104.7367440054206
c 20.73127050669955,-16.669999999999998 34.83953302420177,0 34.83953302420177,34.17992266124605
c 0,29.95103321317822 -46.49698754571232,46.62103321317822 -82.02049738973041,29.95103321317822
c -36.111111111111114,-16.669999999999998 -22.22222222222222,58.34499999999999 -2.0687969391468783,108.96563345348844 c 0.0,46.02328260568202 -13.88888888888889,138.86239259498495 16.72905793480566,119.41405926165162
c 47.70300157567332,-16.669999999999998 55.16927271380242,0 55.16927271380242,19.50260740501504
c 0,29.519084292384093 -37.83474749935048,46.189084292384095 -55.98981726005198,29.519084292384093
c -36.111111111111114,-16.669999999999998 -22.22222222222222,58.34499999999999 -15.908513388556102,109.39758237428256 c -0.0,19.265692185280535 13.88888888888889,129.90710864002844 -1.396015390599964,110.45877530669512
c -49.875693511014084,-16.669999999999998 -70.44374721008629,0 -70.44374721008629,28.45789135997154
c 0,20.801728147847314 24.41171770748535,37.471728147847315 59.40005191739371,20.801728147847314
c 36.111111111111114,-16.669999999999998 22.22222222222222,58.34499999999999 12.439710683292546,118.11493851881934 L 0 1667 " fill="none" stroke="black" stroke-width="0.1" style="vector-effect:non-scaling-stroke;"/></g></g><g><g><path d="M 0 0  L 0 277.833333  c 79.34238983270151,0.0 131.15991634463583,-13.891666666666666 111.71547190019139,14.903190324602289
c -16.666666666666664,64.75529035923704 0,71.09510413849623 27.173416988697497,71.09510413849623
c 23.602703257598193,0 40.26936992426486,-37.638627730896296 23.602703257598193,-59.51639224988329
c -16.666666666666664,-36.11833333333333 58.33333333333333,-22.226666666666667 115.28618563129069,-26.48190221321523 c 50.244527995270325,-0.0 125.81064389882008,13.891666666666666 106.36619945437563,-0.6536512995115792
c -16.666666666666664,-33.22992725410181 0,-84.86698635765003 32.522689434513254,-84.86698635765003
c 37.907336963563864,0 54.57400363023053,25.823172267287518 37.907336963563864,81.42826108608729
c -16.666666666666664,36.11833333333333 58.33333333333333,22.226666666666667 100.98155192532502,4.092376571074325 c 72.73906742797206,-0.0 114.20010464121563,13.891666666666666 94.75566019677119,-5.655090184674306
c -16.666666666666664,-27.66541759711485 0,-74.46560951483914 44.1332286921177,-74.46560951483914
c 27.388148872433817,0 44.05481553910048,45.07668544179923 27.388148872433817,58.6870485124549
c -16.666666666666664,36.11833333333333 58.33333333333333,22.226666666666667 111.50074001645507,21.43365118705855 c 45.51438926968818,0.0 126.02555687108239,-13.891666666666666 106.58111242663794,26.127192946742117
c -16.666666666666664,16.284015631879168 0,42.34361651666285 32.30777646225094,42.34361651666285
c 37.43121683114583,0 54.0978834978125,-14.824695039031017 37.43121683114583,-46.40366217993186
c -16.666666666666664,-36.11833333333333 58.33333333333333,-22.226666666666667 101.45767205774305,-22.067147283473105 c 28.432488198699136,-0.0 137.676224737231,13.891666666666666 118.23178029278654,-55.45454470493074
c -16.666666666666664,-5.770739804885168 0,-24.314967635591046 20.657108596102347,-24.314967635591046
c 19.52667295707579,0 36.19333962374245,42.5375981901842 19.52667295707579,63.594998654599294
c -16.666666666666664,36.11833333333333 58.33333333333333,22.226666666666667 119.3622159318131,16.17451368592249 c 21.547925422268715,-0.0 131.2002927157248,13.891666666666666 111.75584827128036,-18.82778522775807
c -16.666666666666664,-42.747712902032845 0,-50.7587279556018 27.13304061760853,-50.7587279556018
c 43.44464783853164,0 60.1113145051983,10.62191201516261 43.44464783853164,36.33648769050368
c -16.666666666666664,36.11833333333333 58.33333333333333,22.226666666666667 95.44424105035725,33.25002549285619 c 77.2703578916929,-0.0 137.79715936241251,13.891666666666666 118.35271491796806,-38.04976961776278
c -16.666666666666664,-19.84390649674959 0,-46.8649186854485 20.536173970920828,-46.8649186854485
c 27.202639708257493,0 43.86930637492416,8.383534481279593 27.202639708257493,28.068664166857843
c -16.666666666666664,36.11833333333333 58.33333333333333,22.226666666666667 111.68624918063139,56.846024136353435 c 41.58264395898369,-0.0 137.9698945404528,13.891666666666666 118.52545009600834,-58.59252577363961
c -16.666666666666664,-6.8694143335462705 0,-9.37922744298686 20.363438792880544,-9.37922744298686
c 43.742053644659535,0 60.4087203113262,9.689424720212983 43.742053644659535,10.036216734151083
c -16.666666666666664,36.11833333333333 58.33333333333333,22.226666666666667 95.14683524422935,57.935536482475385 c 57.60843384593354,-0.0 118.21052402251894,13.891666666666666 98.7660795780745,-11.706254548046642
c -16.666666666666664,-59.754343649803566 0,-81.38320414677948 40.12280931081439,-81.38320414677948
c 34.570262356591456,0 51.23692902325812,17.983781521954988 34.570262356591456,60.478047306931586
c -16.666666666666664,36.11833333333333 58.33333333333333,22.226666666666667 104.31862653229743,32.611411387894535 L 2500 0 " fill="none" stroke="black" stroke-width="0.1" style="vector-effect:non-scaling-stroke;"/></g><g><path d="M 0 0  L 0 555.666667  c 77.83142473605719,-0.0 125.50370712705349,13.891666666666666 106.05926268260905,-48.25369755099187
c -16.666666666666664,-12.885810593623221 0,-26.475577458474447 32.82962620627984,-26.475577458474447
c 36.29498691083515,0 52.961653577501814,53.51714621947241 36.29498691083515,80.1535864590916
c -16.666666666666664,36.11833333333333 58.33333333333333,22.226666666666667 102.59390197805374,-5.424311449625279 c 47.29810344083845,-0.0 138.47335652799612,13.891666666666666 119.02891208355166,-46.40724912733536
c -16.666666666666664,-23.170456309326553 0,-26.41714596139701 19.859976805337226,-26.41714596139701
c 30.698841578286732,0 47.365508244953396,26.845671927063233 30.698841578286732,39.735706946058876
c -16.666666666666664,36.11833333333333 58.33333333333333,22.226666666666667 108.19004731060215,33.0886881426735 c 38.501449619011,0.0 123.47754194411183,-13.891666666666666 104.03309749966739,30.844258503700317
c -16.666666666666664,46.236206751846595 0,63.32082784991806 34.855791389221494,63.32082784991806
c 25.84061851012413,0 42.507285176790795,-12.7878573640067 25.84061851012413,-46.72611999894739
c -16.666666666666664,-36.11833333333333 58.33333333333333,-22.226666666666667 113.04827037876476,-47.43896635467099 c 64.35124973168976,-0.0 129.04861317256047,13.891666666666666 109.60416872811602,-37.79414701704119
c -16.666666666666664,-31.74223775439678 0,-41.9017701345526 29.284720160772864,-41.9017701345526
c 19.582773594515317,0 36.24944026118198,63.04016619035747 19.582773594515317,74.7851458449045
c -16.666666666666664,36.11833333333333 58.33333333333333,22.226666666666667 119.30611529437357,4.910771306689284 c 39.585939805910385,-0.0 127.12540923540973,13.891666666666666 107.68096479096529,-50.97656332656471
c -16.666666666666664,-37.212833129155364 0,-39.28783902555063 31.207924097923595,-39.28783902555063
c 32.359861471603324,0 49.02652813826999,47.66325824103828 32.359861471603324,49.74781895227738
c -16.666666666666664,36.11833333333333 58.33333333333333,22.226666666666667 106.52902741728556,40.51658339983796 c 54.75620076860596,0.0 138.21498663225682,-13.891666666666666 118.77054218781237,39.41866714506652
c -16.666666666666664,14.702647812596119 0,40.766961784684085 20.11834670107652,40.766961784684085
c 38.553568533138275,0 55.22023519980494,-40.507453452012676 38.553568533138275,-60.29566466032078
c -16.666666666666664,-36.11833333333333 58.33333333333333,-22.226666666666667 100.33532035575061,-19.889964269429825 c 51.3334319065444,-0.0 129.77174413736466,13.891666666666666 110.32729969292022,-52.79258902720835
c -16.666666666666664,-19.16669590028145 0,-26.940314664345294 28.561589195968665,-26.940314664345294
c 30.84308073058199,0 47.50974739724865,4.786818281663039 30.84308073058199,20.272729808473265
c -16.666666666666664,36.11833333333333 58.33333333333333,22.226666666666667 108.0458081583069,59.46017388308038 c 53.15237358489322,-0.0 127.937894152212,13.891666666666666 108.49344970776755,-18.76355229750994
c -16.666666666666664,-52.736254931456024 0,-72.5647218750805 30.395439181121333,-72.5647218750805
c 20.00221760180409,0 36.668884268470755,31.4725745907093 20.00221760180409,62.61589272063998
c -16.666666666666664,36.11833333333333 58.33333333333333,22.226666666666667 118.8866712870848,28.71238145195045 c 65.74198949074976,0.0 130.01590291874828,-13.891666666666666 110.57145847430382,21.643759975195714
c -16.666666666666664,25.773292331901136 0,58.008638692197714 28.31743041458506,58.008638692197714
c 24.68918811906994,0 41.355854785736604,-29.639391106743368 24.68918811906994,-33.40764371158527
c -16.666666666666664,-36.11833333333333 58.33333333333333,-22.226666666666667 114.19970076981895,-46.244754955808155 L 2500 0 " fill="none" stroke="black" stroke-width="0.1" style="vector-effect:non-scaling-stroke;"/></g><g><path d="M 0 0  L 0 833.500000  c 70.6529651853432,0.0 135.09825997639678,-13.891666666666666 115.65381553195232,30.37293360653081
c -16.666666666666664,12.672797583731773 0,36.84241114590827 23.235073356936567,36.84241114590827
c 36.287519074692796,0 52.95418574135946,-1.4428524605587414 36.287519074692796,-6.6621563901459595
c -16.666666666666664,-36.11833333333333 58.33333333333333,-22.226666666666667 102.60136981419609,-60.55318836229312 c 35.96264803592182,-0.0 115.98564786590273,13.891666666666666 96.54120342145829,-11.619470930844729
c -16.666666666666664,-78.01243828494196 0,-78.55092369574474 42.347685467430594,-78.55092369574474
c 27.594202715446272,0 44.260869382112936,24.085984621717618 27.594202715446272,79.11857917748995
c -16.666666666666664,36.11833333333333 58.33333333333333,22.226666666666667 111.29468617344261,11.051815449099522 c 30.91556859897968,0.0 118.05697855124635,-13.891666666666666 98.6125341068019,0.9885772382123225
c -16.666666666666664,42.587515369705145 0,86.62145106598744 40.27635478208698,86.62145106598744
c 41.46571785958264,0 58.132384526249304,-36.644603896444146 41.46571785958264,-37.86815619628605
c -16.666666666666664,-36.11833333333333 58.33333333333333,-22.226666666666667 97.42317102930625,-49.74187210791372 c 66.80306832831009,0.0 135.04728674027706,-13.891666666666666 115.60284229583262,25.61490486942889
c -16.666666666666664,34.115643765973395 0,52.051690453497976 23.28604659305627,52.051690453497976
c 37.10538271943835,0 53.77204938610502,-34.89341154706788 37.10538271943835,-57.31758323063789
c -16.666666666666664,-36.11833333333333 58.33333333333333,-22.226666666666667 101.78350616945053,-20.34901209228898 c 36.03694524309884,0.0 138.5184593899481,-13.891666666666666 119.07401494550365,19.262770475477307
c -16.666666666666664,20.755883782012567 0,59.90201531785924 19.814873943385237,59.90201531785924
c 38.62056962567203,0 55.2872362923387,-64.83605999537262 38.62056962567203,-69.0922929314442
c -16.666666666666664,-36.11833333333333 58.33333333333333,-22.226666666666667 100.26831926321685,-10.072492861892343 c 23.144118204965295,-0.0 122.98334376493013,13.891666666666666 103.53889932048568,-51.01664657635051
c -16.666666666666664,-11.163337838420086 0,-32.823730041134596 35.3499895684032,-32.823730041134596
c 32.2473907538062,0 48.914057420472865,14.727871029966115 32.2473907538062,55.92335651876509
c -16.666666666666664,36.11833333333333 58.33333333333333,22.226666666666667 106.64149813508268,27.917020098720016 c 45.65806855701505,0.0 120.00486980093136,-13.891666666666666 100.56042535648692,3.772175740529986
c -16.666666666666664,56.69649914416563 0,86.37059806331311 38.32846353240197,86.37059806331311
c 22.360372125067443,0 39.02703879173411,-23.392652092842276 22.360372125067443,-33.103844315974975
c -16.666666666666664,-36.11833333333333 58.33333333333333,-22.226666666666667 116.52851676382144,-57.038929487868124 c 75.75330660240581,-0.0 127.84832925781187,13.891666666666666 108.40388481336743,-33.38440234745112
c -16.666666666666664,-32.29491041262076 0,-46.054398271072436 30.48500407552146,-46.054398271072436
c 35.48617406282571,0 52.152840729492375,32.44080223881159 35.48617406282571,42.54838427722093
c -16.666666666666664,36.11833333333333 58.33333333333333,22.226666666666667 103.40271482606317,36.890416341302625 c 31.408458161644912,0.0 136.04653233955847,-13.891666666666666 116.60208789511402,42.51065197027857
c -16.666666666666664,18.391584012323307 0,38.237920750953435 22.28680099377486,38.237920750953435
c 41.29616281810749,0 57.962829484774154,-31.33370735342518 41.29616281810749,-42.52645442865362
c -16.666666666666664,-36.11833333333333 58.33333333333333,-22.226666666666667 97.5927260707814,-38.222118292578386 L 2500 0 " fill="none" stroke="black" stroke-width="0.1" style="vector-effect:non-scaling-stroke;"/></g><g><path d="M 0 0  L 0 1111.333333  c 23.740605841576716,0.0 125.20475632711293,-13.891666666666666 105.76031188266849,37.92527947584656
c -16.666666666666664,27.495696657083446 0,49.888710722139486 33.1285770062204,49.888710722139486
c 21.84706539769482,0 38.513732064361484,-20.307754217295198 21.84706539769482,-34.5066369960515
c -16.666666666666664,-36.11833333333333 58.33333333333333,-22.226666666666667 117.04182349119407,-53.307353201934546 c 28.079793812364404,-0.0 120.05357913394035,13.891666666666666 100.6091346894959,-54.115127337257825
c -16.666666666666664,-16.456292096927257 0,-26.326067777916812 38.27975419939298,-26.326067777916812
c 44.09709057316252,0 60.76375723982918,16.11196875917341 44.09709057316252,29.84735575169757
c -16.666666666666664,36.11833333333333 58.33333333333333,22.226666666666667 94.79179831572637,50.593839363477066 c 60.390826218986234,-0.0 121.25510648638598,13.891666666666666 101.81066204194154,-41.70212347693474
c -16.666666666666664,-16.03536151616691 0,-29.76256955736489 37.078226846947345,-29.76256955736489
c 41.88552487685098,0 58.552191543517644,20.990672194108665 41.88552487685098,21.85687772725194
c -16.666666666666664,36.11833333333333 58.33333333333333,22.226666666666667 97.0033640120379,49.60781530704769 c 56.459366673126105,-0.0 121.08196296759559,13.891666666666666 101.63751852315114,-21.259060531470364
c -16.666666666666664,-40.98481042892454 0,-50.71194931174965 37.25137036573774,-50.71194931174965
c 37.41542994890531,0 54.08209661557198,58.40023977761554 37.41542994890531,62.68292472339466
c -16.666666666666664,36.11833333333333 58.33333333333333,22.226666666666667 101.47345893998357,9.288085119825354 c 38.15571829992433,0.0 137.67426887806923,-13.891666666666666 118.22982443362477,21.057725862019414
c -16.666666666666664,13.086837585891814 0,61.34934779358892 20.659064455264115,61.34934779358892
c 28.75584852537861,0 45.422515192045275,-78.58822798893955 28.75584852537861,-80.31148330019583
c -16.666666666666664,-36.11833333333333 58.33333333333333,-22.226666666666667 110.13304036351028,-2.0955903554124973 c 37.68137042340463,-0.0 136.51126053019266,13.891666666666666 117.0668160857482,-11.55764730017962
c -16.666666666666664,-19.41942533671952 0,-59.016862972943876 21.822072803140685,-59.016862972943876
c 32.63619715257201,0 49.302863819238674,36.98874731050391 32.63619715257201,43.333760356051066
c -16.666666666666664,36.11833333333333 58.33333333333333,22.226666666666667 106.25269173631688,27.240749917072428 c 61.15621040381169,-0.0 129.21407437605643,13.891666666666666 109.76962993161197,2.7020230184876537
c -16.666666666666664,-65.53235527117785 0,-82.40246260446789 29.119258957276912,-82.40246260446789
c 30.73418246436782,0 47.400849131034484,45.55570575535564 30.73418246436782,70.18884265407942
c -16.666666666666664,36.11833333333333 58.33333333333333,22.226666666666667 108.15470642452107,9.511596931900812 c 19.534061388274118,-0.0 128.30739505546256,13.891666666666666 108.8629506110181,-59.36408508581936
c -16.666666666666664,-4.323518668294049 0,-18.855124160696853 30.02593827787078,-18.855124160696853
c 36.158124673624656,0 52.82479134029132,14.356813959267377 36.158124673624656,62.60615676937673
c -16.666666666666664,36.11833333333333 58.33333333333333,22.226666666666667 102.73076421526423,15.613052477139483 c 41.2540730219147,0.0 125.91767363765727,-13.891666666666666 106.47322919321283,-0.373216323494543
c -16.666666666666664,36.41732378339348 0,72.57673899186459 32.415659695676055,72.57673899186459
c 30.772161411280877,0 47.43882807794754,-40.79518885725414 30.772161411280877,-66.37750287435661
c -16.666666666666664,-36.11833333333333 58.33333333333333,-22.226666666666667 108.11672747760801,-5.826019794013433 L 2500 0 " fill="none" stroke="black" stroke-width="0.1" style="vector-effect:non-scaling-stroke;"/></g><g><path d="M 0 0  L 0 1389.166667  c 58.8750648960898,0.0 124.22455000281637,-13.891666666666666 104.78010555837193,-1.642255554058691
c -16.666666666666664,79.37438506365156 0,94.47213168824452 34.10878333051696,94.47213168824452
c 29.277487944663278,0 45.94415461132994,-32.45022515782305 29.277487944663278,-69.12715465947333
c -16.666666666666664,-36.11833333333333 58.33333333333333,-22.226666666666667 109.61140094422561,-23.70272147471249 c 16.011767562539656,-0.0 122.91324037869863,13.891666666666666 103.46879593425419,-4.825849804065373
c -16.666666666666664,-56.796634816765064 0,-77.3029072413099 35.4200929546347,-77.3029072413099
c 32.603913942031426,0 49.27058060869809,35.433914493904695 32.603913942031426,44.811764429210356
c -16.666666666666664,36.11833333333333 58.33333333333333,22.226666666666667 106.28497494685746,37.31699261616491 c 31.9375064189401,0.0 121.45383132005458,-13.891666666666666 102.00938687561013,53.412845840691546
c -16.666666666666664,15.370832998321307 0,36.362415886506696 36.87950201327875,36.362415886506696
c 32.7147511933606,0 49.38141786002726,-21.38240623705573 32.7147511933606,-73.50679006109523
c -16.666666666666664,-36.11833333333333 58.33333333333333,-22.226666666666667 106.17413769552829,-16.26847166610301 c 63.022189479225965,-0.0 134.1851114969422,13.891666666666666 114.74066705249774,-60.81536445355391
c -16.666666666666664,-11.43272976373962 0,-14.970435979121305 24.148221836391144,-14.970435979121305
c 41.149265241930436,0 57.8159319085971,20.09637400367562 41.149265241930436,38.27750997416669
c -16.666666666666664,36.11833333333333 58.33333333333333,22.226666666666667 97.73962364695845,37.508290458508526 c 18.00161107304694,-0.0 121.25662077260016,13.891666666666666 101.81217632815572,-16.204718072702015
c -16.666666666666664,-44.94363896917088 0,-66.50757242366339 37.07671256073317,-66.50757242366339
c 21.89593750093408,0 38.562604167600746,40.85877406262694 21.89593750093408,51.96488415990281
c -16.666666666666664,36.11833333333333 58.33333333333333,22.226666666666667 116.9929513879548,30.74740633646259 c 14.721564817984868,-0.0 130.8957247829528,13.891666666666666 111.45128033850835,-44.899493207450504
c -16.666666666666664,-10.788419312363988 0,-25.781216827906206 27.43760855038053,-25.781216827906206
c 24.6238039849201,0 41.290470651586766,50.74959294354117 24.6238039849201,64.59120019109685
c -16.666666666666664,36.11833333333333 58.33333333333333,22.226666666666667 114.26508490396878,6.089509844259865 c 25.870006373746506,-0.0 121.52432986295103,13.891666666666666 102.07988541850659,-53.76344781859557
c -16.666666666666664,-18.50777828395535 0,-38.43751333928906 36.809003470382294,-38.43751333928906
c 41.92020767632158,0 58.586874342988246,28.11218812403119 41.92020767632158,72.38272961141332
c -16.666666666666664,36.11833333333333 58.33333333333333,22.226666666666667 96.9686812125673,19.81823154647131 c 64.39077317771672,0.0 136.49884200022038,-13.891666666666666 117.05439755577594,57.430469141915715
c -16.666666666666664,8.353817497495482 0,22.17732963706697 21.83449133311295,22.17732963706697
c 24.250782062652434,0 40.9174487293191,-17.84024903392415 24.250782062652434,-60.09832008884841
c -16.666666666666664,-36.11833333333333 58.33333333333333,-22.226666666666667 114.63810682623645,-19.509478690134273 c 18.615529398573898,-0.0 132.18747798071695,13.891666666666666 112.74303353627249,-29.69471938466347
c -16.666666666666664,-51.85884823294178 0,-54.36487322328304 26.145855352616394,-54.36487322328304
c 44.151944643849106,0 60.81861131051577,41.17108993968061 44.151944643849106,77.26997136832517
c -16.666666666666664,36.11833333333333 58.33333333333333,22.226666666666667 94.73694424503978,6.78962123962134 L 2500 0 " fill="none" stroke="black" stroke-width="0.1" style="vector-effect:non-scaling-stroke;"/></g></g></svg>