<svg baseProfile="full" height="3168" preserveAspectRatio="none" shape-rendering="geometricPrecision" version="1.1" viewBox="0,0,4728,3168" width="4728" xmlns="http://www.w3.org/2000/svg" xmlns:ev="http://www.w3.org/2001/xml-events" xmlns:xlink="http://www.w3.org/1999/xlink"><title>Jigsaw puzzle piece clips</title><desc>Created with the piecemaker. Piece count: 12</desc><defs/><g><g><rect fill="white" height="3168" width="4728" x="0" y="0"/></g></g><g><g><path d="M 0 0  L 1182.000000 0  c -0.0,55.261416578422306 59.1,469.09087698198476 -94.96604906621923,395.17087698198475
c -262.20745487961136,-63.36 -274.35633520412836,0 -274.35633520412836,132.82912301801525
c 0,99.0757416484796 341.7272183225191,162.43574164847962 344.180302892226,99.0757416484796
c 153.66,-63.36 94.56,221.76 25.14208137812159,428.9242583515204 c 0.0,57.70155380693875 -59.1,458.0717610892497 0.8255349920141181,384.1517610892497
c 338.93264384410764,-63.36 348.14678360007434,0 348.14678360007434,143.8482389107503
c 0,106.25065219169608 -214.371064135633,169.6106521916961 -234.72536248895366,106.25065219169608
c -153.66,-63.36 -94.56,221.76 -114.2469561031348,421.7493478083039 c 0.0,132.03746011927657 -59.1,526.1987693813563 84.05130101350383,452.2787693813563
c 230.27930629883298,-63.36 279.53449438895484,0 279.53449438895484,75.72123061864369
c 0,144.27839931394817 -182.40443686291215,207.63839931394818 -302.0551243483744,144.27839931394817
c -153.66,-63.36 -94.56,221.76 -61.53067105408422,383.72160068605183 L 0 3168 " fill="none" stroke="black" stroke-width="0.1" style="vector-effect:non-scaling-stroke;"/></g><g><path d="M 0 0  L 2364.000000 0  c 0.0,284.5767385622828 -59.1,448.80787787718907 48.49819645398115,374.88787787718906
c 175.02941792604818,-63.36 245.44745814212507,0 245.44745814212507,153.11212212281094
c 0,96.52399849762037 -279.9801928107029,159.88399849762038 -282.6944889043492,96.52399849762037
c -153.66,-63.36 -94.56,221.76 -11.251165691757024,431.47600150237963 c 0.0,166.78273273987608 -59.1,495.23577195841693 252.5480879553437,421.3157719584169
c 134.29638007727507,-63.36 133.42895621522558,0 133.42895621522558,106.68422804158308
c 0,108.13400015001912 -109.57013730189621,171.49400015001913 -258.19013649492,108.13400015001912
c -153.66,-63.36 -94.56,221.76 -127.78690767564927,419.8659998499809 c -0.0,233.50474867449887 59.1,469.8802281071675 -105.42983624950826,395.9602281071675
c -114.45365513598924,-63.36 -189.35687979459988,0 -189.35687979459988,132.0397718928325
c 0,128.9935870295733 50.30679164706132,192.3535870295733 62.64207946700003,128.9935870295733
c 153.66,-63.36 94.56,221.76 232.1446365771081,399.0064129704267 L 0 3168 " fill="none" stroke="black" stroke-width="0.1" style="vector-effect:non-scaling-stroke;"/></g><g><path d="M 0 0  L 3546.000000 0  c -0.0,95.66549802841155 59.1,497.43734001475735 -1.7496827753030497,423.51734001475734
c -279.19490616169725,-63.36 -285.89815899486814,0 -285.89815899486814,104.48265998524266
c 0,95.10672951405627 137.10399018962642,158.46672951405628 177.70391422224105,95.10672951405627
c 153.66,-63.36 94.56,221.76 109.94392754793012,432.89327048594373 c 0.0,129.35653753259655 -59.1,500.5827319260425 91.38732667901523,426.6627319260425
c 135.55515213083876,-63.36 210.43013377821035,0 210.43013377821035,101.33726807395749
c 0,156.5599246131735 -197.48796628202663,219.91992461317352 -274.5310097604102,156.5599246131735
c -153.66,-63.36 -94.56,221.76 -27.286450696815393,371.4400753868265 c -0.0,284.36554575952016 59.1,513.0178466927391 -53.368370408931,439.09784669273915
c -89.04351873485315,-63.36 -236.54770719102982,0 -236.54770719102982,88.90215330726085
c 0,159.0012059635551 40.72066872553902,222.3612059635551 51.151757242260345,159.0012059635551
c 153.66,-63.36 94.56,221.76 238.76432035770048,368.9987940364449 L 0 3168 " fill="none" stroke="black" stroke-width="0.1" style="vector-effect:non-scaling-stroke;"/></g></g><g><g><path d="M 0 0  L 0 1056.000000  c 97.62748451467948,-0.0 486.29359363663775,52.800000000000004 403.55359363663774,-36.32184607068514
c -70.92,-67.30317982543293 0,-243.01388061114466 187.44640636336226,-243.01388061114466
c 85.61944890823065,0 156.53944890823067,130.2489751531622 85.61944890823065,263.5625942497359
c -70.92,137.28 248.22,84.48 505.38055109176935,15.77313243209386 c 152.048561594135,-0.0 529.4978760673941,52.800000000000004 446.7578760673942,-22.689387736193353
c -70.92,-124.75232331587311 0,-275.0418090330501 144.2421239326058,-275.0418090330501
c 153.47696717061308,0 224.3969671706131,128.3111713527786 153.47696717061308,169.16857818432507
c -70.92,137.28 248.22,84.48 437.5230328293869,128.56261858491834 c 339.31292717332394,0.0 489.3647924960771,-52.800000000000004 406.6247924960771,182.07231833506086
c -70.92,71.76799904225405 0,151.2679135244436 184.37520750392292,151.2679135244436
c 106.28947804716188,0 177.2094780471619,-56.964835022119125 106.28947804716188,-187.89244342418766
c -70.92,-137.28 248.22,-84.48 484.7105219528381,-145.4477884353168 c 186.20724942167945,0.0 553.1367903216435,-52.800000000000004 470.3967903216435,129.26529671109944
c -70.92,40.04937033900717 0,128.25333881719104 120.6032096783565,128.25333881719104
c 156.2894524414105,0 227.20945244141052,-36.66637412734427 156.2894524414105,-152.45201243717992
c -70.92,-137.28 248.22,-84.48 434.7105475585895,-105.06662309111056 L 4728 0 " fill="none" stroke="black" stroke-width="0.1" style="vector-effect:non-scaling-stroke;"/></g><g><path d="M 0 0  L 0 2112.000000  c 182.71615581324576,-0.0 546.4531925877061,52.800000000000004 463.71319258770603,-190.79222347963994
c -70.92,-47.725290629504904 0,-166.92808879931485 127.28680741229397,-166.92808879931485
c 118.76627947658221,0 189.68627947658223,283.93917766944344 118.76627947658221,317.38720602804756
c -70.92,137.28 248.22,84.48 472.2337205234178,40.333106250907235 c 194.67237110147153,0.0 495.1845833561886,-52.800000000000004 412.4445833561886,229.33302694542593
c -70.92,36.386983767790625 0,83.37180697745637 178.55541664381138,83.37180697745637
c 136.529325837648,0 207.44932583764802,-260.29036254724286 136.529325837648,-268.81452178660055
c -70.92,-137.28 248.22,-84.48 454.470674162352,-43.89031213628175 c 64.29930315858896,0.0 553.6362278702322,-52.800000000000004 470.89622787023217,116.20799521478514
c -70.92,64.653997391189 0,189.91282188689993 120.10377212976783,189.91282188689993
c 127.45184701687515,0 198.37184701687517,-30.325637899768207 127.45184701687515,-115.67311511908878
c -70.92,-137.28 248.22,-84.48 463.54815298312485,-190.4477019825963 c 312.5377526073377,-0.0 512.0921923333569,52.800000000000004 429.35219233335687,-189.9454489498672
c -70.92,-28.390635725941806 0,-106.83318936411987 161.64780766664313,-106.83318936411987
c 140.2254590675127,0 211.14545906751272,85.29183805190434 140.2254590675127,245.94190519281491
c -70.92,137.28 248.22,84.48 450.7745409324873,50.83673312117216 L 4728 0 " fill="none" stroke="black" stroke-width="0.1" style="vector-effect:non-scaling-stroke;"/></g></g></svg>