<svg baseProfile="full" height="1667" preserveAspectRatio="none" shape-rendering="geometricPrecision" version="1.1" viewBox="0,0,2500,1667" width="2500" xmlns="http://www.w3.org/2000/svg" xmlns:ev="http://www.w3.org/2001/xml-events" xmlns:xlink="http://www.w3.org/1999/xlink"><title>Jigsaw puzzle piece clips</title><desc>Created with the piecemaker. Piece count: 35</desc><defs /><g><g><rect fill="white" height="1667" width="2500" x="0" y="0" /></g></g><g><g><path d="M 0 0  L 357.142857 0  c 0.0,25.936003276460163 -17.857142857142858,150.30361479762524 -1.4263772594865403,126.96561479762524&#10;c 50.43207815338187,-20.003999999999998 106.28320730476669,0 106.28320730476669,39.73438520237475&#10;c 0,48.4172816636291 -20.3029914148254,68.42128166362909 -28.97875215407005,48.4172816636291&#10;c -46.42857142857143,-20.003999999999998 -28.571428571428573,70.014 -75.8780778912101,118.28271833637089 c -0.0,55.87846962369278 17.857142857142858,163.94179578298562 -26.886660583783375,140.60379578298563&#10;c -44.46697877186066,-20.003999999999998 -63.58131121311455,0 -63.58131121311455,26.09620421701436&#10;c 0,29.119917836236937 29.711620621025443,49.123917836236934 44.16268444954752,29.119917836236937&#10;c 46.42857142857143,-20.003999999999998 28.571428571428573,70.014 46.30528734735041,137.58008216376305 c 0.0,33.14269993479978 -17.857142857142858,146.61843909465716 67.9178596265328,123.28043909465715&#10;c 25.80292896043565,-20.003999999999998 27.54488626542124,0 27.54488626542124,43.419560905342834&#10;c 0,49.81438673681771 -24.22859934250245,69.8183867368177 -56.160470758597036,49.81438673681771&#10;c -46.42857142857143,-20.003999999999998 -28.571428571428573,70.014 -39.30227513335701,116.88561326318228 c -0.0,72.4550717916444 17.857142857142858,158.86377336431406 -34.47489463320283,135.52577336431406&#10;c -22.183541602349557,-20.003999999999998 -74.19933710378751,0 -74.19933710378751,31.174226635685926&#10;c 0,39.83583337983271 40.64863996593979,59.839833379832704 82.55774163938699,39.83583337983271&#10;c 46.42857142857143,-20.003999999999998 28.571428571428573,70.014 26.11649009760336,126.86416662016728 c 0.0,70.78966249642664 -17.857142857142858,164.94983392499353 38.05956248713115,141.61183392499353&#10;c 36.878691443081756,-20.003999999999998 52.21800995181116,0 52.21800995181116,25.088166075006455&#10;c 0,29.5054625052272 -34.507830129767044,49.5094625052272 -84.68923669212083,29.5054625052272&#10;c -46.42857142857143,-20.003999999999998 -28.571428571428573,70.014 -5.588335746821485,137.1945374947728 L 0 1667 " fill="none" stroke="black" stroke-width="0.1" style="vector-effect:non-scaling-stroke;" /></g><g><path d="M 0 0  L 714.285714 0  c -0.0,49.14620607765338 17.857142857142858,157.41260775979563 -72.78983761638072,134.07460775979564&#10;c -9.82978812123294,-20.003999999999998 -15.197329967270349,0 -15.197329967270349,32.62539224020435&#10;c 0,50.59036083753426 69.75012478587287,70.59436083753425 70.77765947444257,50.59036083753426&#10;c 46.42857142857143,-20.003999999999998 28.571428571428573,70.014 17.2095081092085,116.10963916246573 c 0.0,32.647497765280505 -17.857142857142858,158.06422151069359 54.85192752101604,134.7262215106936&#10;c 40.35907810504679,-20.003999999999998 54.59010599642197,0 54.59010599642197,31.973778489306397&#10;c 0,37.585301538127396 -55.24018603688234,57.589301538127394 -102.6347987738422,37.585301538127396&#10;c -46.42857142857143,-20.003999999999998 -28.571428571428573,70.014 -6.807234743595799,129.1146984618726 c -0.0,16.91587546140756 17.857142857142858,150.24999009452702 -23.718552678047846,126.91199009452703&#10;c -73.69887162141026,-20.003999999999998 -89.32738937181117,0 -89.32738937181117,39.78800990547296&#10;c 0,41.24388499721775 75.74051005402912,61.247884997217746 119.31932430926484,41.24388499721775&#10;c 46.42857142857143,-20.003999999999998 28.571428571428573,70.014 -6.273382259405835,125.45611500278224 c 0.0,23.842811680151723 -17.857142857142858,147.8358226419823 -0.3023222084972599,124.49782264198231&#10;c 28.243164811458755,-20.003999999999998 97.464597319709,0 97.464597319709,42.20217735801768&#10;c 0,29.412898101963606 -22.941998778997984,49.4168981019636 -60.546319005917006,29.412898101963606&#10;c -46.42857142857143,-20.003999999999998 -28.571428571428573,70.014 -36.615956105294735,137.28710189803638 c -0.0,86.27832983721433 17.857142857142858,164.30272224483625 -40.94433964475367,140.96472224483625&#10;c -16.507273738298263,-20.003999999999998 -48.95990699480588,0 -48.95990699480588,25.735277755163736&#10;c 0,49.23048469115474 58.62088963582099,69.23448469115473 76.02123182332919,49.23048469115474&#10;c 46.42857142857143,-20.003999999999998 28.571428571428573,70.014 13.883014816230357,117.46951530884525 L 0 1667 " fill="none" stroke="black" stroke-width="0.1" style="vector-effect:non-scaling-stroke;" /></g><g><path d="M 0 0  L 1071.428571 0  c 0.0,24.59973717028132 -17.857142857142858,162.5069700753559 74.17697344098396,139.1689700753559&#10;c 38.355294340966736,-20.003999999999998 44.89057647133066,0 44.89057647133066,27.531029924644088&#10;c 0,52.096618519430336 -49.740409283017485,72.10061851943033 -110.60329038218231,52.096618519430336&#10;c -46.42857142857143,-20.003999999999998 -28.571428571428573,70.014 -8.46425953013231,114.60338148056965 c 0.0,27.424906443763714 -17.857142857142858,146.36265324444994 -5.016381376511066,123.02465324444995&#10;c 105.66888995429773,-20.003999999999998 113.08122752290134,0 113.08122752290134,43.67534675555004&#10;c 0,24.51921195947523 -53.87791235039094,44.523211959475226 -55.205856705910605,24.51921195947523&#10;c -46.42857142857143,-20.003999999999998 -28.571428571428573,70.014 -52.858989440479675,142.18078804052476 c -0.0,31.786315768759504 17.857142857142858,143.46225096922018 -63.57450947009645,120.12425096922017&#10;c -36.53289392321136,-20.003999999999998 -40.07918099490407,0 -40.07918099490407,46.57574903077982&#10;c 0,30.192549507669327 26.144642201619746,50.196549507669324 28.28112647585519,30.192549507669327&#10;c 46.42857142857143,-20.003999999999998 28.571428571428573,70.014 75.37256398914533,136.50745049233066 c -0.0,86.10388924906162 17.857142857142858,157.15975525200545 -65.46452097206462,133.82175525200546&#10;c -18.453943436385927,-20.003999999999998 -31.14446266714596,0 -31.14446266714596,32.87824474799453&#10;c 0,36.5000222433755 72.65063393170696,56.504022243375495 81.43242538473541,36.5000222433755&#10;c 46.42857142857143,-20.003999999999998 28.571428571428573,70.014 15.176558254475168,130.1999777566245 c 0.0,64.12566377427285 -17.857142857142858,143.39898087602106 25.339652193483538,120.06098087602106&#10;c 19.004272364835426,-20.003999999999998 64.74062861987454,0 64.74062861987454,46.639019123978926&#10;c 0,50.85878689147518 -22.20585215526557,70.86278689147517 -69.72325137484567,50.85878689147518&#10;c -46.42857142857143,-20.003999999999998 -28.571428571428573,70.014 -20.357029438512413,115.84121310852481 L 0 1667 " fill="none" stroke="black" stroke-width="0.1" style="vector-effect:non-scaling-stroke;" /></g><g><path d="M 0 0  L 1428.571429 0  c -0.0,23.4900997995747 17.857142857142858,155.09203479259213 -12.218683218085694,131.75403479259214&#10;c -93.7689484529695,-20.003999999999998 -107.6696502709988,0 -107.6696502709988,34.94596520740785&#10;c 0,52.637646551303675 60.782824594722925,72.64164655130367 96.77863839789846,52.637646551303675&#10;c 46.42857142857143,-20.003999999999998 28.571428571428573,70.014 23.109695091186026,114.06235344869631 c -0.0,23.31754918990198 17.857142857142858,137.75032916337952 -53.08687194677881,114.41232916337952&#10;c -16.245340249439963,-20.003999999999998 -39.3479034904227,0 -39.3479034904227,52.287670836620464&#10;c 0,41.8719658758435 33.269912645424455,61.8759658758435 36.76414926587602,41.8719658758435&#10;c 46.42857142857143,-20.003999999999998 28.571428571428573,70.014 55.67062617132549,124.82803412415649 c 0.0,43.40173198440558 -17.857142857142858,148.87439552012486 50.68380618076126,125.53639552012486&#10;c 18.994339553320263,-20.003999999999998 60.310038701435,0 60.310038701435,41.16360447987513&#10;c 0,24.95699044827765 -24.40922405675866,44.96099044827765 -57.25225654103992,24.95699044827765&#10;c -46.42857142857143,-20.003999999999998 -28.571428571428573,70.014 -53.74158834115634,141.74300955172234 c 0.0,51.63123037554049 -17.857142857142858,163.78491557963767 5.7936934704511724,140.44691557963768&#10;c 97.26614296163152,-20.003999999999998 99.01311354472638,0 99.01311354472638,26.253084420362313&#10;c 0,44.75804785840032 -37.53703965906058,64.76204785840031 -43.07145978709033,44.75804785840032&#10;c -46.42857142857143,-20.003999999999998 -28.571428571428573,70.014 -61.73534722808722,121.94195214159967 c -0.0,72.42404470256102 17.857142857142858,157.91665935887133 -68.81079105003127,134.57865935887133&#10;c -7.925598097378855,-20.003999999999998 -16.923853940353183,0 -16.923853940353183,32.121340641128654&#10;c 0,34.53260449154834 5.286601065766306,54.53660449154834 13.149310081885929,34.53260449154834&#10;c 46.42857142857143,-20.003999999999998 28.571428571428573,70.014 72.58533490849852,132.16739550845165 L 0 1667 " fill="none" stroke="black" stroke-width="0.1" style="vector-effect:non-scaling-stroke;" /></g><g><path d="M 0 0  L 1785.714286 0  c -0.0,86.70718087719568 17.857142857142858,149.66565288547102 -0.6876813086735285,126.32765288547103&#10;c -77.19452478350757,-20.003999999999998 -94.51262035980804,0 -94.51262035980804,40.372347114528964&#10;c 0,25.300082080397686 44.22227820725026,45.304082080397684 87.05071012739491,25.300082080397686&#10;c 46.42857142857143,-20.003999999999998 28.571428571428573,70.014 8.149591541086664,141.3999179196023 c 0.0,80.46991209925417 -17.857142857142858,166.21157908713363 52.723455175209985,142.87357908713363&#10;c 18.795226926091985,-20.003999999999998 62.55688489106357,0 62.55688489106357,23.826420912866354&#10;c 0,40.876878193151754 -19.55617875069701,60.88087819315175 -53.41812111738916,40.876878193151754&#10;c -46.42857142857143,-20.003999999999998 -28.571428571428573,70.014 -61.86221894888439,125.82312180684823 c -0.0,88.22852013012344 17.857142857142858,154.14701379411602 -14.528609621169474,130.80901379411603&#10;c -32.06024326689597,-20.003999999999998 -99.41992216521196,0 -99.41992216521196,35.89098620588396&#10;c 0,51.61185821722276 38.710089721917484,71.61585821722275 61.73018866405652,51.61185821722276&#10;c 46.42857142857143,-20.003999999999998 28.571428571428573,70.014 52.21834312232492,115.08814178277723 c 0.0,51.838381030060035 -17.857142857142858,146.86246741639306 23.770790913327858,123.52446741639307&#10;c 59.55557045723661,-20.003999999999998 88.9299933464941,0 88.9299933464941,43.17553258360692&#10;c 0,46.09146604023019 -37.21824596067445,66.09546604023018 -37.1599998912789,46.09146604023019&#10;c -46.42857142857143,-20.003999999999998 -28.571428571428573,70.014 -75.54078436854306,120.6085339597698 c -0.0,21.403948203217833 17.857142857142858,138.67165768188488 -11.067411811622842,115.33365768188489&#10;c -40.325936335802865,-20.003999999999998 -76.82267990560223,0 -76.82267990560223,51.3663423181151&#10;c 0,28.8440349587716 41.673836014150744,48.8480349587716 41.39156189570383,28.8440349587716&#10;c 46.42857142857143,-20.003999999999998 28.571428571428573,70.014 46.498529821521245,137.8559650412284 L 0 1667 " fill="none" stroke="black" stroke-width="0.1" style="vector-effect:non-scaling-stroke;" /></g><g><path d="M 0 0  L 2142.857143 0  c 0.0,38.87925410228029 -17.857142857142858,137.82619950830414 -4.00521305153722,114.48819950830415&#10;c 40.6308633356866,-20.003999999999998 98.07374890328735,0 98.07374890328735,52.21180049169584&#10;c 0,38.33903150320657 -50.39998713650703,58.34303150320657 -58.876172525452155,38.33903150320657&#10;c -46.42857142857143,-20.003999999999998 -28.571428571428573,70.014 -35.19236332629797,128.36096849679342 c 0.0,41.430342100352945 -17.857142857142858,165.34693221481552 37.65768463438032,142.00893221481553&#10;c 69.77031650963352,-20.003999999999998 71.4629836602278,0 71.4629836602278,24.691067785184458&#10;c 0,33.93717727945463 -15.788271428964393,53.94117727945463 -33.27581738631552,33.93717727945463&#10;c -46.42857142857143,-20.003999999999998 -28.571428571428573,70.014 -75.8448509082926,132.76282272054536 c 0.0,51.521680637624925 -17.857142857142858,149.99650578270467 29.151545680657666,126.65850578270467&#10;c 19.894960056880205,-20.003999999999998 62.49066827446241,0 62.49066827446241,40.04149421729532&#10;c 0,32.65983371372661 -45.87317583386433,52.66383371372661 -73.29514263696231,32.65983371372661&#10;c -46.42857142857143,-20.003999999999998 -28.571428571428573,70.014 -18.34707131815776,134.04016628627338 c 0.0,42.4410898151731 -17.857142857142858,148.71205871311213 1.728325763576589,125.37405871311212&#10;c 50.79667766918644,-20.003999999999998 102.74469398599223,0 102.74469398599223,41.32594128688787&#10;c 0,43.887706148412235 -58.43583814814742,63.89170614841223 -74.88477688124884,43.887706148412235&#10;c -46.42857142857143,-20.003999999999998 -28.571428571428573,70.014 -29.58824286831998,122.81229385158775 c -0.0,68.8001724394656 17.857142857142858,156.75936311484725 -45.591836019843036,133.42136311484725&#10;c -45.81854954050257,-20.003999999999998 -57.21886109568246,0 -57.21886109568246,33.278636885152736&#10;c 0,49.58377024814641 40.66193800391553,69.5877702481464 45.876267864935166,49.58377024814641&#10;c 46.42857142857143,-20.003999999999998 28.571428571428573,70.014 56.934429250590334,117.11622975185358 L 0 1667 " fill="none" stroke="black" stroke-width="0.1" style="vector-effect:non-scaling-stroke;" /></g></g><g><g><path d="M 0 0  L 0 333.400000  c 88.3951706482473,0.0 165.1454701727273,-16.669999999999998 140.1454701727273,17.867984238008553&#10;c -21.42857142857143,69.19647424978858 0,87.88356865707928 38.42595839870128,87.88356865707928&#10;c 45.81369134617799,0 67.24226277474942,-84.1612888430446 45.81369134617799,-98.30736893119933&#10;c -21.42857142857143,-43.342 75.0,-26.671999999999997 132.7577372252506,-7.4441839638884915 c 74.04770439291946,-0.0 164.42380219914457,16.669999999999998 139.42380219914457,-56.78728358514796&#10;c -21.42857142857143,-32.400603589475516 0,-50.78458748655501 39.14762637228401,-50.78458748655501&#10;c 31.55082377767681,0 52.97939520624824,20.799566463063943 31.55082377767681,52.24343284406886&#10;c -21.42857142857143,43.342 75.0,26.671999999999997 147.02060479375177,55.32843822763411 c 82.88003253593479,-0.0 160.28581635235227,16.669999999999998 135.28581635235227,-41.958898204121226&#10;c -21.42857142857143,-33.267586581473424 0,-69.43100829399506 43.28561221907631,-69.43100829399506&#10;c 28.24257532667673,0 49.67114675524816,63.630442777863564 28.24257532667673,90.19157531503002&#10;c -21.42857142857143,43.342 75.0,26.671999999999997 150.32885324475185,21.198331183086268 c 28.13128146921834,-0.0 146.88906061674317,16.669999999999998 121.88906061674317,-20.52725149011126&#10;c -21.42857142857143,-54.99382279199204 0,-60.882737931619424 56.68236795468542,-60.882737931619424&#10;c 27.606172382793943,0 49.034743811365374,12.601732137614103 27.606172382793943,16.831220739284674&#10;c -21.42857142857143,43.342 75.0,26.671999999999997 150.96525618863464,64.57876868244601 c 58.06633536179754,-0.0 163.4781718511514,16.669999999999998 138.4781718511514,-64.17996653513178&#10;c -21.42857142857143,-24.698323252348185 0,-37.5236672624611 40.093256720277196,-37.5236672624611&#10;c 36.917455124242395,0 58.346026552813825,57.88282709375835 36.917455124242395,79.29050063809927&#10;c -21.42857142857143,43.342 75.0,26.671999999999997 141.6539734471862,22.41313315949361 c 97.88603756875445,0.0 154.4152707034784,-16.669999999999998 129.4152707034784,21.865890908481614&#10;c -21.42857142857143,51.64210314948503 0,84.42711404840355 49.156157867950185,84.42711404840355&#10;c 52.516185300275765,0 73.9447567288472,-47.81134197240188 52.516185300275765,-100.61463291678574&#10;c -21.42857142857143,-43.342 75.0,-26.671999999999997 126.05524327115282,-5.678372040099433 c 81.04157858895624,0.0 160.49430920036758,-16.669999999999998 135.49430920036758,25.20622433930148&#10;c -21.42857142857143,19.519731815335888 0,63.78520997555731 43.077119371061,63.78520997555731&#10;c 27.405698997194037,0 48.83427042576547,-13.443563380879484 27.405698997194037,-58.812877897303366&#10;c -21.42857142857143,-43.342 75.0,-26.671999999999997 151.16572957423455,-30.178556417555427 L 2500 0 " fill="none" stroke="black" stroke-width="0.1" style="vector-effect:non-scaling-stroke;" /></g><g><path d="M 0 0  L 0 666.800000  c 95.66857842995607,0.0 158.30582457050897,-16.669999999999998 133.30582457050897,24.53881832527894&#10;c -21.42857142857143,24.54901661484246 0,59.57300741482844 45.26560400091961,59.57300741482844&#10;c 44.631326239525094,0 66.05989766809653,-35.647542452991786 44.631326239525094,-43.26913722208379&#10;c -21.42857142857143,-43.342 75.0,-26.671999999999997 133.9401023319035,-40.842688518023586 c 63.937854431537296,-0.0 173.8437705802877,16.669999999999998 148.8437705802877,-64.01884731577861&#10;c -21.42857142857143,-34.979297563912375 0,-43.305505633513135 29.727657991140887,-43.305505633513135&#10;c 39.19696682985102,0 60.62553825842245,45.419332260352945 39.19696682985102,63.45092482430529&#10;c -21.42857142857143,43.342 75.0,26.671999999999997 139.37446174157756,43.87342812498646 c 53.931433494564295,0.0 168.06050960567623,-16.669999999999998 143.06050960567623,67.30465851340635&#10;c -21.42857142857143,32.06282459699985 0,43.267468942893714 35.51091896575235,43.267468942893714&#10;c 28.185595240868196,0 49.614166669439626,-44.72882661265829 28.185595240868196,-58.88674874670956&#10;c -21.42857142857143,-43.342 75.0,-26.671999999999997 150.3858333305604,-51.68537870959051 c 83.829044524403,0.0 153.96118502381518,-16.669999999999998 128.96118502381518,15.510770589221398&#10;c -21.42857142857143,35.15372326015409 0,84.82730223830175 49.61024354761341,84.82730223830175&#10;c 34.299419687708934,0 55.727991116280364,-37.99002868822808 34.299419687708934,-45.689524890912175&#10;c -21.42857142857143,-43.342 75.0,-26.671999999999997 144.27200888371965,-54.648547936610974 c 32.20331578826589,-0.0 153.30119320508962,16.669999999999998 128.30119320508962,-48.583848162382125&#10;c -21.42857142857143,-22.888684771927668 0,-43.58315696866866 50.270235366338966,-43.58315696866866&#10;c 41.30135647614796,0 62.72992790471939,19.2724074741743 41.30135647614796,40.394393579489076&#10;c -21.42857142857143,43.342 75.0,26.671999999999997 137.27007209528063,51.77261155156171 c 51.41828102633544,-0.0 171.42974636795225,16.669999999999998 146.42974636795225,-25.458398187989626&#10;c -21.42857142857143,-20.970894476556875 0,-65.962601448703 32.141682203476336,-65.962601448703&#10;c 38.855054013323354,0 60.283625441894785,9.58197878180565 38.855054013323354,19.204135947580752&#10;c -21.42857142857143,43.342 75.0,26.671999999999997 139.71637455810523,72.21686368911188 c 70.0470082389702,-0.0 173.78869160379213,16.669999999999998 148.78869160379213,-61.620879545184806&#10;c -21.42857142857143,-5.177408011824678 0,-22.2049726289589 29.782736967636453,-22.2049726289589&#10;c 33.853645476204036,0 55.28221690477547,8.937810479589373 33.853645476204036,29.611277437051243&#10;c -21.42857142857143,43.342 75.0,26.671999999999997 144.71778309522455,54.21457473709246 L 2500 0 " fill="none" stroke="black" stroke-width="0.1" style="vector-effect:non-scaling-stroke;" /></g><g><path d="M 0 0  L 0 1000.200000  c 61.8447984072395,0.0 147.5488080548465,-16.669999999999998 122.54880805484648,3.429937775479701&#10;c -21.42857142857143,81.22215740861445 0,81.10246463324881 56.02262051658211,81.10246463324881&#10;c 27.680300062530137,0 49.10887149110157,-34.5589863149358 27.680300062530137,-57.08735651730352&#10;c -21.42857142857143,-43.342 75.0,-26.671999999999997 150.89112850889845,-27.445045891424996 c 36.412666328396085,0.0 148.1641468144979,-16.669999999999998 123.1641468144979,71.04415412153803&#10;c -21.42857142857143,9.508992602668819 0,12.47961393279455 55.407281756930686,12.47961393279455&#10;c 48.95682756657936,0 70.3853989951508,-44.45517417564261 48.95682756657936,-45.88299681009359&#10;c -21.42857142857143,-43.342 75.0,-26.671999999999997 129.61460100484922,-37.64077124423899 c 48.688599642188905,-0.0 173.94976703480262,16.669999999999998 148.94976703480262,-33.8427696483972&#10;c -21.42857142857143,-59.435862679931205 0,-73.60536831557238 29.621661536625965,-73.60536831557238&#10;c 27.6274829814447,0 49.05605441001613,87.77166502421751 27.6274829814447,109.03367951180734&#10;c -21.42857142857143,43.342 75.0,26.671999999999997 150.94394558998388,-1.5855415478377637 c 87.9967864042987,0.0 173.89695849820583,-16.669999999999998 148.89695849820583,8.950754069262095&#10;c -21.42857142857143,50.83407311267057 0,95.40942244316695 29.67447007322275,95.40942244316695&#10;c 54.82708511218388,0 76.25565654075531,-62.09236875696322 54.82708511218388,-90.09539355674221&#10;c -21.42857142857143,-43.342 75.0,-26.671999999999997 123.7443434592447,-14.264782955686826 c 55.91599969840489,-0.0 166.67113859958866,16.669999999999998 141.67113859958866,-53.49307760605635&#10;c -21.42857142857143,-27.74322891756734 0,-50.89718944669121 36.900289971839925,-50.89718944669121&#10;c 45.59462162147369,0 67.02319305004512,59.60788722264611 45.59462162147369,71.84441259988554&#10;c -21.42857142857143,43.342 75.0,26.671999999999997 132.9768069499549,32.54585445286202 c 54.00431595457001,-0.0 152.90850158636272,16.669999999999998 127.90850158636272,-26.325895692497536&#10;c -21.42857142857143,-38.228453792245276 0,-60.803567733055914 50.662926985065866,-60.803567733055914&#10;c 32.84002160318545,0 54.26859303175688,17.432114066001304 32.84002160318545,71.5071670474127&#10;c -21.42857142857143,43.342 75.0,26.671999999999997 145.73140696824314,15.62229637814076 c 76.31436479930177,0.0 154.5722073836321,-16.669999999999998 129.5722073836321,55.715177138392434&#10;c -21.42857142857143,19.42466167200455 0,25.028332302542566 48.99922118779648,25.028332302542566&#10;c 33.78894774433272,0 55.21751917290415,-10.618652455702088 33.78894774433272,-38.22390554498754&#10;c -21.42857142857143,-43.342 75.0,-26.671999999999997 144.78248082709587,-42.51960389594746 L 2500 0 " fill="none" stroke="black" stroke-width="0.1" style="vector-effect:non-scaling-stroke;" /></g><g><path d="M 0 0  L 0 1333.600000  c 37.16272327359101,0.0 161.75646761815162,-16.669999999999998 136.75646761815162,61.86888823569108&#10;c -21.42857142857143,21.11697034742428 0,24.462353684808967 41.814960953276966,24.462353684808967&#10;c 42.2392858510602,0 63.66785727963163,-66.61094362865217 42.2392858510602,-79.09282606916571&#10;c -21.42857142857143,-43.342 75.0,-26.671999999999997 136.33214272036838,-7.238415851334338 c 68.38490222964973,-0.0 148.52241392003603,16.669999999999998 123.52241392003603,6.288175298535057&#10;c -21.42857142857143,-65.13174818857598 0,-118.10523773081363 55.049014651392554,-118.10523773081363&#10;c 50.7226799154121,0 72.15125134398353,70.33562207808389 50.7226799154121,90.62653206744167&#10;c -21.42857142857143,43.342 75.0,26.671999999999997 127.84874865601648,21.190530364836903 c 66.09763496950322,0.0 159.42514235834793,-16.669999999999998 134.42514235834793,22.362236018364857&#10;c -21.42857142857143,59.36424009833932 0,60.92408420904546 44.14628621308066,60.92408420904546&#10;c 40.14817703265098,0 61.57674846122241,-15.226421485393159 40.14817703265098,-30.92224080071903&#10;c -21.42857142857143,-43.342 75.0,-26.671999999999997 138.4232515387776,-52.36407942669128 c 93.34741484417562,0.0 158.6949456852182,-16.669999999999998 133.6949456852182,39.92690048891414&#10;c -21.42857142857143,17.031956984240562 0,71.83135783736346 44.8764828862104,71.83135783736346&#10;c 44.98202650414413,0 66.41059793271556,-111.10031709950557 44.98202650414413,-111.17473968419151&#10;c -21.42857142857143,-43.342 75.0,-26.671999999999997 133.58940206728445,-0.5835186420860907 c 85.28523784792422,-0.0 175.77226981508636,16.669999999999998 150.77226981508636,-22.215834758936676&#10;c -21.42857142857143,-42.01130909624677 0,-83.43680509014928 27.799158756342223,-83.43680509014928&#10;c 28.797900150229594,0 50.226471578801025,34.665110417058564 28.797900150229594,40.053012992607265&#10;c -21.42857142857143,43.342 75.0,26.671999999999997 149.773528421199,65.5996268564787 c 92.31950143522867,0.0 165.91200564982822,-16.669999999999998 140.91200564982822,-3.0993634766381275&#10;c -21.42857142857143,74.91707862128936 0,86.49042210011737 37.65942292160037,86.49042210011737&#10;c 54.922622868120754,0 76.35119429669219,-8.923156526626794 54.922622868120754,-15.766085806827206&#10;c -21.42857142857143,-43.342 75.0,-26.671999999999997 123.64880570330783,-67.62497281665203 c 31.111499238882722,-0.0 158.85491972271743,16.669999999999998 133.85491972271743,-52.148419121347&#10;c -21.42857142857143,-21.766323127879986 0,-29.72274685040761 44.71650884871116,-29.72274685040761&#10;c 37.94421196074828,0 59.37278338931971,3.238542987444076 37.94421196074828,9.1570452191756&#10;c -21.42857142857143,43.342 75.0,26.671999999999997 140.6272166106803,72.714120752579 L 2500 0 " fill="none" stroke="black" stroke-width="0.1" style="vector-effect:non-scaling-stroke;" /></g></g></svg>