<svg baseProfile="full" height="3333" preserveAspectRatio="none" shape-rendering="geometricPrecision" version="1.1" viewBox="0,0,5000,3333" width="5000" xmlns="http://www.w3.org/2000/svg" xmlns:ev="http://www.w3.org/2001/xml-events" xmlns:xlink="http://www.w3.org/1999/xlink"><title>Jigsaw puzzle piece clips</title><desc>Created with the piecemaker. Piece count: 24</desc><defs/><g><g><rect fill="white" height="3333" width="5000" x="0" y="0"/></g></g><g><g><path d="M 0 0  L 833.333333 0  c 0.0,164.51955846997734 -41.66666666666667,379.4868910504701 72.2982544035969,321.1593910504701
c 101.69552863342159,-49.995 201.66564714717987,0 201.66564714717987,95.4656089495299
c 0,111.05245589540641 -210.60321471780023,161.04745589540642 -214.9732222597413,111.05245589540641
c -108.33333333333334,-49.995 -66.66666666666667,174.9825 -58.99067929103546,305.5725441045936 c 0.0,92.00683960844775 -41.66666666666667,413.79225609957655 180.19962690521797,355.46475609957656
c 22.083450769687186,-49.995 24.62880955895716,0 24.62880955895716,61.16024390042344
c 0,67.68671164773781 -66.64150579969501,117.68171164773781 -159.28480012390546,67.68671164773781
c -108.33333333333334,-49.995 -66.66666666666667,174.9825 -45.54363634026967,348.9382883522622 c -0.0,113.49253239208377 41.66666666666667,390.3698735116632 -63.35173694054395,332.0423735116632
c -88.30404603912474,-49.995 -161.89175785026748,0 -161.89175785026748,84.58262648833681
c 0,88.62681130988545 69.94125384687894,138.62181130988546 209.68599657127595,88.62681130988545
c 108.33333333333334,-49.995 66.66666666666667,174.9825 15.55749821953549,327.99818869011455 c -0.0,80.67954217942179 41.66666666666667,378.01190224171205 -152.16250137358048,319.68440224171206
c -65.9280654462126,-49.995 -68.59582155229947,0 -68.59582155229947,96.94059775828794
c 0,92.44406312141678 44.41639397532762,142.43906312141678 49.4394125128714,92.44406312141678
c 108.33333333333334,-49.995 66.66666666666667,174.9825 171.31891041300855,324.1809368785832 L 0 3333 " fill="none" stroke="black" stroke-width="0.1" style="vector-effect:non-scaling-stroke;"/></g><g><path d="M 0 0  L 1666.666667 0  c -0.0,135.49051359981598 41.66666666666667,400.0022883340852 16.44149838879098,341.67478833408524
c -199.23396033797164,-49.995 -227.35808522610657,0 -227.35808522610657,74.95021166591476
c 0,101.4912472406304 18.55620938681796,151.4862472406304 34.916449398471144,101.4912472406304
c 108.33333333333334,-49.995 66.66666666666667,174.9825 176.00013743884443,315.1337527593696 c -0.0,210.1275817383017 41.66666666666667,341.93867777891876 -73.41319782914398,283.6111777789188
c -51.12567390421473,-49.995 -186.54027816472308,0 -186.54027816472308,133.01382222108123
c 0,91.32108966283789 51.30269085398891,141.3160896628379 243.04223111390596,91.32108966283789
c 108.33333333333334,-49.995 66.66666666666667,174.9825 16.911244879961117,325.3039103371621 c 0.0,219.11879704841343 -41.66666666666667,380.53578853044024 22.737593735468224,322.20828853044026
c 152.8596704180181,-49.995 237.9821160678893,0 237.9821160678893,94.41671146955974
c 0,78.17121599565024 -172.98248912802367,128.16621599565025 -212.41948956108536,78.17121599565024
c -108.33333333333334,-49.995 -66.66666666666667,174.9825 -48.30022024227219,338.45378400434976 c 0.0,156.72784470478888 -41.66666666666667,344.4462399693703 95.65063920018505,286.1187399693703
c 137.09163968039837,-49.995 185.0780401774417,0 185.0780401774417,130.50626003062968
c 0,64.26892552503477 -169.61168352877266,114.26392552503478 -182.4679084288527,64.26892552503477
c -108.33333333333334,-49.995 -66.66666666666667,174.9825 -98.26077094877405,352.3560744749652 L 0 3333 " fill="none" stroke="black" stroke-width="0.1" style="vector-effect:non-scaling-stroke;"/></g><g><path d="M 0 0  L 2500.000000 0  c -0.0,104.28910080436995 41.66666666666667,385.39140010011863 -88.57870011453981,327.06390010011864
c -122.65692431550939,-49.995 -139.6759088321835,0 -139.6759088321835,89.56109989988136
c 0,105.35432513679302 99.04493430689439,155.34932513679303 191.35561769123413,105.35432513679302
c 108.33333333333334,-49.995 66.66666666666667,174.9825 36.898991255489165,311.270674863207 c 0.0,214.53112529502067 -41.66666666666667,414.0062681950807 82.97204625241221,355.6787681950807
c 53.67507791884574,-49.995 187.48751312964555,0 187.48751312964555,60.94623180491931
c 0,107.42445770409324 -248.63041067691995,157.41945770409325 -246.61054051075857,107.42445770409324
c -108.33333333333334,-49.995 -66.66666666666667,174.9825 -23.849018871299194,309.20054229590676 c -0.0,193.75766928453447 41.66666666666667,401.4409714510495 -31.246562268513156,343.1134714510495
c -114.18489325610503,-49.995 -234.38867435195348,0 -234.38867435195348,73.51152854895048
c 0,124.67928843150344 66.08629592775026,174.67428843150344 170.18726412989895,124.67928843150344
c 108.33333333333334,-49.995 66.66666666666667,174.9825 95.44797249056768,291.94571156849656 c -0.0,98.68809755910182 41.66666666666667,408.34142644347014 -32.88126517065427,350.01392644347015
c -100.21447583739238,-49.995 -189.48579918074998,0 -189.48579918074998,66.61107355652985
c 0,72.73583136541379 42.9287743986467,122.73083136541379 151.38447181602464,72.73583136541379
c 108.33333333333334,-49.995 66.66666666666667,174.9825 70.98259253537961,343.8891686345862 L 0 3333 " fill="none" stroke="black" stroke-width="0.1" style="vector-effect:non-scaling-stroke;"/></g><g><path d="M 0 0  L 3333.333333 0  c 0.0,192.0042624386053 -41.66666666666667,369.9829580718498 80.55244912943316,311.6554580718498
c 137.30436791569534,-49.995 185.99757749346333,0 185.99757749346333,104.96954192815019
c 0,87.47264293958028 -62.04280840910026,137.4676429395803 -108.57707405336956,87.47264293958028
c -108.33333333333334,-49.995 -66.66666666666667,174.9825 -157.97295256952694,329.1523570604197 c 0.0,127.33523039130418 -41.66666666666667,371.530927586608 47.46683418124636,313.20342758660803
c 109.21859668126386,-49.995 209.44541289833492,0 209.44541289833492,103.42157241339197
c 0,66.74908906271077 -205.31018008761214,116.74408906271077 -256.6787312695023,66.74908906271077
c -108.33333333333334,-49.995 -66.66666666666667,174.9825 -0.23351581007898403,349.87591093728923 c -0.0,142.34298219304014 41.66666666666667,370.9248285372468 -69.0232447247158,312.5973285372468
c -90.19856958581394,-49.995 -137.3833777760712,0 -137.3833777760712,104.02767146275318
c 0,77.03835013489817 62.8032980096447,127.03335013489817 137.99857807445278,77.03835013489817
c 108.33333333333334,-49.995 66.66666666666667,174.9825 68.40804442633421,339.58664986510183 c -0.0,214.07782012246932 41.66666666666667,361.9136621364467 -86.37091890678235,303.5861621364467
c -60.416702908564034,-49.995 -124.37537297400894,0 -124.37537297400894,113.03883786355328
c 0,111.34724364411261 125.14402787696471,161.3422436441126 189.13577846043557,111.34724364411261
c 108.33333333333334,-49.995 66.66666666666667,174.9825 21.610513420355716,305.2777563558874 L 0 3333 " fill="none" stroke="black" stroke-width="0.1" style="vector-effect:non-scaling-stroke;"/></g><g><path d="M 0 0  L 4166.666667 0  c -0.0,145.62127898890117 41.66666666666667,358.7978105878267 10.671167166068589,300.4703105878267
c -188.73633292165397,-49.995 -245.27166728748958,0 -245.27166728748958,116.1546894121733
c 0,119.47130249360293 70.39828213235968,169.46630249360294 204.54680347679857,119.47130249360293
c 108.33333333333334,-49.995 66.66666666666667,174.9825 30.05369664462242,297.15369750639707 c 0.0,73.49413863049902 -41.66666666666667,385.6075287532632 20.282203506501727,327.2800287532632
c 76.15115119092702,-49.995 259.2816025653292,0 259.2816025653292,89.3449712467368
c 0,111.9649153774111 -63.51707004359692,161.9599153774111 -150.42163851198032,111.9649153774111
c -108.33333333333334,-49.995 -66.66666666666667,174.9825 -129.1421675598506,304.6600846225889 c -0.0,84.72371005119939 41.66666666666667,363.19418868815575 -26.147222785377668,304.86668868815576
c -218.3173946631389,-49.995 -231.85309566615598,0 -231.85309566615598,111.75831131184424
c 0,109.66845160630646 135.0152138371242,159.66345160630647 186.61920753981843,109.66845160630646
c 108.33333333333334,-49.995 66.66666666666667,174.9825 71.38111091171521,306.95654839369354 c 0.0,114.44506758066417 -41.66666666666667,347.14520977879937 124.07705505317007,288.8177097787994
c 42.686090447588576,-49.995 121.15388191203682,0 121.15388191203682,127.80729022120062
c 0,73.45849711596844 -60.77810266089695,123.45349711596845 -153.43069671757289,73.45849711596844
c -108.33333333333334,-49.995 -66.66666666666667,174.9825 -91.80024024763401,343.16650288403156 L 0 3333 " fill="none" stroke="black" stroke-width="0.1" style="vector-effect:non-scaling-stroke;"/></g></g><g><g><path d="M 0 0  L 0 833.250000  c 81.81395704311088,-0.0 412.4336386777437,41.6625 354.1003053444104,-11.17241200215114
c -50.0,-112.41600606622453 0,-267.11117429484216 62.566361322256284,-267.11117429484216
c 129.09127472552115,0 179.09127472552115,124.30374429560472 129.09127472552115,275.7630591552587
c -50.0,108.3225 175.0,66.66 287.57539194114554,2.52052714173459 c 84.9029242189008,-0.0 407.7599911557903,41.6625 349.426657822457,-4.848541682297184
c -50.0,-209.30620056435887 0,-219.44817894764276 67.24000884420968,-219.44817894764276
c 127.52344149156391,0 177.52344149156391,40.774791955842105 127.52344149156391,53.45298755479615
c -50.0,108.3225 175.0,66.66 289.14322517510277,170.8437330751438 c 98.92492644786981,0.0 416.46321273499393,-41.6625 358.1298794016606,13.384323940599305
c -50.0,81.64308737066415 0,245.32367389874065 58.53678726500607,245.32367389874065
c 100.77265309162436,0 150.77265309162436,-58.9629044426731 100.77265309162436,-91.57658792439904
c -50.0,-108.3225 175.0,-66.66 315.8940135750423,-167.13140991494092 c 50.40640875459883,0.0 415.0001050739876,-41.6625 356.66677174065427,8.94250906036925
c -50.0,211.58363524437388 0,222.24680522045722 59.999894926012416,222.24680522045722
c 89.3404112294869,0 139.3404112294869,-179.81580292856407 89.3404112294869,-226.34991923069043
c -50.0,-108.3225 175.0,-66.66 327.3262554371798,-4.839395050136034 c 199.01827436661904,-0.0 357.8566340848199,41.6625 299.52330075148654,-29.306829627706225
c -50.0,-190.01224585627037 0,-188.81051510988084 117.14336591518014,-188.81051510988084
c 132.96462736690927,0 182.96462736690927,38.89752154317633 132.96462736690927,63.22407345623242
c -50.0,108.3225 175.0,66.66 283.7020392997574,154.89327128135466 c 113.40099751916587,0.0 396.5272755661226,-41.6625 338.1939422327893,98.89762100657798
c -50.0,69.23423069430517 0,114.6282907036218 78.47272443387737,114.6282907036218
c 92.36536813550373,0 142.36536813550373,-66.93132639571942 92.36536813550373,-144.61953074660906
c -50.0,-108.3225 175.0,-66.66 324.30129853116296,-68.90638096359072 L 5000 0 " fill="none" stroke="black" stroke-width="0.1" style="vector-effect:non-scaling-stroke;"/></g><g><path d="M 0 0  L 0 1666.500000  c 198.0162533088177,-0.0 411.05601370936563,41.6625 352.7226803760323,-63.42382725944835
c -50.0,-44.921953439777326 0,-152.74868264604717 63.94398629063437,-152.74868264604717
c 90.05302576392722,0 140.05302576392722,39.62691835223458 90.05302576392722,45.226558025170874
c -50.0,108.3225 175.0,66.66 326.61364090273946,170.94595188032466 c 97.15283317015458,-0.0 346.8579978838085,41.6625 288.5246645504751,-148.3896390419034
c -50.0,-54.480438948001925 0,-92.06097719092688 128.14200211619158,-92.06097719092688
c 64.53031851961981,0 114.53031851961981,95.37818659820724 64.53031851961981,176.76521085122545
c -50.0,108.3225 175.0,66.66 352.1363481470469,63.685405381604824 c 218.58778779420868,-0.0 399.1978203642643,41.6625 340.86448703093095,-130.85111235986483
c -50.0,-55.76514373054108 0,-106.84343870300742 75.80217963573574,-106.84343870300742
c 66.15966645577049,0 116.15966645577049,168.23781818094469 66.15966645577049,222.5704286539538
c -50.0,108.3225 175.0,66.66 350.5070002108962,15.124122408918453 c 128.52688816875707,-0.0 394.58271802964066,41.6625 336.24938469630735,-124.21679422737138
c -50.0,-127.77600622497665 0,-132.40439600777148 80.41728197035934,-132.40439600777148
c 109.62176218898054,0 159.62176218898054,210.77750901181318 109.62176218898054,229.75071948802682
c -50.0,108.3225 175.0,66.66 307.04490447768615,26.87047074711606 c 110.77529195281271,-0.0 403.50392737865116,41.6625 345.17059404531784,7.9747491662335825
c -50.0,-177.52565845734884 0,-232.9624996771033 71.49607262134884,-232.9624996771033
c 58.86910790287607,0 108.86910790287607,194.59488715339722 58.86910790287607,221.35198735517207
c -50.0,108.3225 175.0,66.66 357.7975587637906,3.6357631556976457 c 192.84343587186373,-0.0 391.119519321883,41.6625 332.7861859885497,-46.16810776272422
c -50.0,-35.90060416288134 0,-155.702410120356 83.88048067811701,-155.702410120356
c 100.12148434513819,0 150.12148434513819,46.75606488109377 100.12148434513819,94.26248267552437
c -50.0,108.3225 175.0,66.66 316.5451823215285,107.60803520755586 L 5000 0 " fill="none" stroke="black" stroke-width="0.1" style="vector-effect:non-scaling-stroke;"/></g><g><path d="M 0 0  L 0 2499.750000  c 180.64163034058444,-0.0 362.4781634994547,41.6625 304.1448301661214,-69.76481212223898
c -50.0,-95.34032841468787 0,-167.12229501659095 112.5218365005453,-167.12229501659095
c 96.55876001386827,0 146.55876001386827,156.18113272213563 96.55876001386827,200.1813297066933
c -50.0,108.3225 175.0,66.66 320.1079066527984,36.70577743213664 c 115.14951223963682,-0.0 356.467963277589,41.6625 298.13462994425566,-59.625743626893815
c -50.0,-151.78247864074547 0,-170.15044703721233 118.53203672241102,-170.15044703721233
c 59.59635720996181,0 109.59635720996181,19.864098242394732 59.59635720996181,77.56441081291871
c -50.0,108.3225 175.0,66.66 357.0703094567049,152.21177985118743 c 127.14603560448957,-0.0 396.81472534284364,41.6625 338.48139200951033,-21.599342195804972
c -50.0,-85.27009407676614 0,-237.55792775340274 78.18527465715636,-237.55792775340274
c 84.85317677747673,0 134.85317677747673,172.73687409306885 84.85317677747673,253.67974781209267
c -50.0,108.3225 175.0,66.66 331.81348988918995,5.477522137115045 c 89.18107767058657,-0.0 410.19530188330987,41.6625 351.86196854997655,-169.93173911478772
c -50.0,-82.02538791591952 0,-81.8767639079665 64.80469811669013,-81.8767639079665
c 93.63789475145256,0 143.63789475145256,126.5477240263334 93.63789475145256,140.38287616153679
c -50.0,108.3225 175.0,66.66 323.0287719152141,111.42562686121744 c 153.21471453115007,-0.0 376.12119422308933,41.6625 317.78786088975596,-20.042713604842653
c -50.0,-139.77273083897254 0,-250.0336066144312 98.87880577691072,-250.0336066144312
c 127.04768558818961,0 177.0476855881896,121.20558674464456 127.04768558818961,137.80173252345622
c -50.0,108.3225 175.0,66.66 289.6189810784771,132.27458769581762 c 142.72430959375245,0.0 393.55627706793996,-41.6625 335.2229437346066,34.74435653500978
c -50.0,60.50944738552762 0,184.9280714021194 81.4437229320601,184.9280714021194
c 99.94696691568225,0 149.94696691568225,-19.06231097002096 99.94696691568225,-37.29112376399354
c -50.0,-108.3225 175.0,-66.66 316.71969975098443,-182.38130417313565 L 5000 0 " fill="none" stroke="black" stroke-width="0.1" style="vector-effect:non-scaling-stroke;"/></g></g></svg>