<svg baseProfile="full" height="3333" preserveAspectRatio="none" shape-rendering="geometricPrecision" version="1.1" viewBox="0,0,5000,3333" width="5000" xmlns="http://www.w3.org/2000/svg" xmlns:ev="http://www.w3.org/2001/xml-events" xmlns:xlink="http://www.w3.org/1999/xlink"><title>Jigsaw puzzle piece clips</title><desc>Created with the piecemaker. Piece count: 28</desc><defs /><g><g><rect fill="white" height="3333" width="5000" x="0" y="0" /></g></g><g><g><path d="M 0 0  L 714.285714 0  c 0.0,128.17915443708867 -35.714285714285715,355.0890963765585 59.383360569014776,296.7615963765585&#10;c 135.6505465968656,-49.995 157.48792351651812,0 157.48792351651812,119.86340362344151&#10;c 0,128.20806589872882 -58.56913345018913,178.20306589872882 -171.0849759135608,128.20806589872882&#10;c -92.85714285714286,-49.995 -57.142857142857146,174.9825 -45.78630817197208,288.4169341012712 c -0.0,93.47566480329372 35.714285714285715,384.07384913524606 -90.82055368877442,325.7463491352461&#10;c -77.83640679315154,-49.995 -92.22675524056254,0 -92.22675524056254,90.87865086475392&#10;c 0,82.312055553015 72.35452742418273,132.307055553015 180.13449442316934,82.312055553015&#10;c 92.85714285714286,-49.995 57.142857142857146,174.9825 2.9128145061676207,334.312944446985 c -0.0,50.27692195134939 35.714285714285715,344.89600264835207 2.995656268738335,286.5685026483521&#10;c -177.0544796034594,-49.995 -176.4537566410325,0 -176.4537566410325,130.05649735164792&#10;c 0,113.14381911235375 134.24642698744523,163.13881911235376 169.81039465449572,113.14381911235375&#10;c 92.85714285714286,-49.995 57.142857142857146,174.9825 3.6477057177984307,303.48118088764625 c -0.0,44.98279345478332 35.714285714285715,369.4647523845124 8.491184881913274,311.1372523845124&#10;c -140.80501394628436,-49.995 -199.41210111866312,0 -199.41210111866312,105.48774761548759&#10;c 0,81.60313652338522 93.7211199138976,131.59813652338522 107.40689946604613,81.60313652338522&#10;c 92.85714285714286,-49.995 57.142857142857146,174.9825 83.5140167707037,335.0218634766148 L 0 3333 " fill="none" stroke="black" stroke-width="0.1" style="vector-effect:non-scaling-stroke;" /></g><g><path d="M 0 0  L 1428.571429 0  c -0.0,220.75866211270395 35.714285714285715,398.2262267478353 -96.15442460982695,339.8987267478353&#10;c -22.58617961518624,-49.995 -94.85049773797812,0 -94.85049773797812,76.72627325216467&#10;c 0,89.2613991538289 36.59084928002469,139.2563991538289 115.18385335872262,89.2613991538289&#10;c 92.85714285714286,-49.995 57.142857142857146,174.9825 75.82106898908245,327.3636008461711 c -0.0,234.27247026090058 35.714285714285715,405.05321258633563 -35.011556651792326,346.72571258633565&#10;c -102.23937617740776,-49.995 -163.45929366990376,0 -163.45929366990376,69.89928741366435&#10;c 0,81.9466695978162 28.376690329190716,131.9416695978162 64.1341178014631,81.9466695978162&#10;c 92.85714285714286,-49.995 57.142857142857146,174.9825 134.33673252023297,334.6783304021838 c -0.0,68.23015066011354 35.714285714285715,367.7753909659562 -153.48682547564363,309.4478909659562&#10;c -28.328149796777865,-49.995 -28.66548063237002,0 -28.66548063237002,107.17710903404378&#10;c 0,86.82745489134237 103.86370789896502,136.82245489134237 152.50253620507237,86.82745489134237&#10;c 92.85714285714286,-49.995 57.142857142857146,174.9825 29.649769902941273,329.79754510865763 c 0.0,123.86220960858992 -35.714285714285715,405.34114802119336 151.48650182502155,347.0136480211934&#10;c 23.976804783149582,-49.995 66.98250057469932,0 66.98250057469932,69.61135197880662&#10;c 0,77.83303859515411 -106.79676025074063,127.82803859515411 -143.91358602487776,77.83303859515411&#10;c -92.85714285714286,-49.995 -57.142857142857146,174.9825 -74.5554163748431,338.7919614048459 L 0 3333 " fill="none" stroke="black" stroke-width="0.1" style="vector-effect:non-scaling-stroke;" /></g><g><path d="M 0 0  L 2142.857143 0  c 0.0,153.10018650935453 -35.714285714285715,365.82495967015586 152.17621465909323,307.4974596701559&#10;c 19.76518942037623,-49.995 41.09926612465881,0 41.09926612465881,109.12754032984412&#10;c 0,118.02418436011203 -95.20575282304894,168.01918436011204 -130.90666372823796,118.02418436011203&#10;c -92.85714285714286,-49.995 -57.142857142857146,174.9825 -62.368817055514086,298.60081563988797 c 0.0,130.23285819968223 -35.714285714285715,394.74897204929044 99.10519104712576,336.42147204929046&#10;c 31.834744271548928,-49.995 87.72641710270265,0 87.72641710270265,80.20352795070954&#10;c 0,106.09346674061067 -34.98663541364468,156.08846674061067 -38.11854200897392,106.09346674061067&#10;c -92.85714285714286,-49.995 -57.142857142857146,174.9825 -148.7130661408545,310.53153325938933 c -0.0,204.1496985705473 35.714285714285715,381.93133534551254 -36.67878665910944,323.60383534551255&#10;c -147.99644524281612,-49.995 -148.52262727491447,0 -148.52262727491447,93.02116465448745&#10;c 0,95.14019516233753 98.98241384417592,145.13519516233754 161.4000186666201,95.14019516233753&#10;c 92.85714285714286,-49.995 57.142857142857146,174.9825 23.80139526740382,321.48480483766247 c -0.0,74.96012666406688 35.714285714285715,396.14406631897054 -73.45217778823995,337.81656631897056&#10;c -85.86502048695209,-49.995 -110.5476651729761,0 -110.5476651729761,78.80843368102944&#10;c 0,61.74922635957387 141.44066000888338,111.74422635957387 182.18239926080383,61.74922635957387&#10;c 92.85714285714286,-49.995 57.142857142857146,174.9825 1.8174437004122126,354.87577364042613 L 0 3333 " fill="none" stroke="black" stroke-width="0.1" style="vector-effect:non-scaling-stroke;" /></g><g><path d="M 0 0  L 2857.142857 0  c 0.0,191.69198300746362 -35.714285714285715,414.48288534583503 64.6519769267448,356.15538534583504&#10;c 81.65437946299804,-49.995 110.13012269549591,0 110.13012269549591,60.46961465416496&#10;c 0,65.61364314478072 -46.690393460081495,115.60864314478073 -53.59083660807815,65.61364314478072&#10;c -92.85714285714286,-49.995 -57.142857142857146,174.9825 -121.19126301416256,351.0113568552193 c 0.0,104.27694611974245 -35.714285714285715,383.23301780433786 69.87070119774128,324.9055178043379&#10;c 158.11956318920676,-49.995 166.8368987025603,0 166.8368987025603,91.71948219566212&#10;c 0,63.92055101379697 -75.92842051898482,113.91555101379697 -215.30261714748934,63.92055101379697&#10;c -92.85714285714286,-49.995 -57.142857142857146,174.9825 -21.40498275281223,352.70444898620303 c -0.0,158.78690042475296 35.714285714285715,377.43714677534814 3.151323688325388,319.10964677534815&#10;c -51.305910972370576,-49.995 -227.69986358696062,0 -227.69986358696062,97.51535322465185&#10;c 0,68.3487826454375 42.017790465450425,118.3437826454375 85.21677734498175,68.3487826454375&#10;c 92.85714285714286,-49.995 57.142857142857146,174.9825 139.33176255365348,348.2762173545625 c 0.0,194.4499030707945 -35.714285714285715,364.10432828609055 84.28658828685536,305.77682828609056&#10;c 50.60408662297758,-49.995 89.74507153190316,0 89.74507153190316,110.84817171390944&#10;c 0,104.50422306488883 -71.26281850957072,154.49922306488884 -157.1903595189307,104.50422306488883&#10;c -92.85714285714286,-49.995 -57.142857142857146,174.9825 -16.84130029982782,312.12077693511117 L 0 3333 " fill="none" stroke="black" stroke-width="0.1" style="vector-effect:non-scaling-stroke;" /></g><g><path d="M 0 0  L 3571.428571 0  c -0.0,240.185291297512 35.714285714285715,341.91377895482464 -35.147453538563965,283.58627895482465&#10;c -84.64761454909885,-49.995 -141.1440592260106,0 -141.1440592260106,133.03872104517535&#10;c 0,80.85626904310516 26.089414646270537,130.85126904310516 68.35743505055859,80.85626904310516&#10;c 92.85714285714286,-49.995 57.142857142857146,174.9825 107.93407771401598,335.76873095689484 c 0.0,127.47792495970879 -35.714285714285715,361.73489293517645 149.13399313387276,303.40739293517646&#10;c 50.44612278130105,-49.995 60.36337181905466,0 60.36337181905466,113.21760706482354&#10;c 0,97.38766299441875 -50.321885742249414,147.38266299441875 -65.2706413754893,97.38766299441875&#10;c -92.85714285714286,-49.995 -57.142857142857146,174.9825 -144.22672357743812,319.23733700558125 c 0.0,212.8944890806978 -35.714285714285715,359.4754531028443 76.38619922858211,301.1479531028443&#10;c 75.06661734477048,-49.995 96.52267809805119,0 96.52267809805119,115.47704689715567&#10;c 0,64.0336780469321 -37.61757740614512,114.0286780469321 -83.63975724894937,64.0336780469321&#10;c -92.85714285714286,-49.995 -57.142857142857146,174.9825 -89.26912007768394,352.5913219530679 c -0.0,135.6978639181679 35.714285714285715,398.82929556692807 -137.03765406933218,340.5017955669281&#10;c -49.787469404341415,-49.995 -102.65110235139875,0 -102.65110235139875,76.12320443307192&#10;c 0,124.29691857773093 178.55209988896766,174.29191857773094 213.04524420581293,124.29691857773093&#10;c 92.85714285714286,-49.995 57.142857142857146,174.9825 26.64351221491799,292.32808142226907 L 0 3333 " fill="none" stroke="black" stroke-width="0.1" style="vector-effect:non-scaling-stroke;" /></g><g><path d="M 0 0  L 4285.714286 0  c -0.0,141.4629617397216 35.714285714285715,366.1017597470771 -119.00379110538023,307.7742597470771&#10;c -44.89759958430301,-49.995 -91.45713214165684,0 -91.45713214165684,108.85074025292289&#10;c 0,103.33811240982845 104.02352100358357,153.33311240982846 196.89512261210632,103.33811240982845&#10;c 92.85714285714286,-49.995 57.142857142857146,174.9825 13.565800634930753,313.28688759017155 c -0.0,205.18590525207077 35.714285714285715,342.2242087767236 -88.16746970227561,283.8967087767236&#10;c -52.64028712739921,-49.995 -138.7658708107275,0 -138.7658708107275,132.72829122327641&#10;c 0,124.43911450603514 101.84080096312988,174.43411450603514 123.5606579359202,124.43911450603514&#10;c 92.85714285714286,-49.995 57.142857142857146,174.9825 103.37268257708291,292.18588549396486 c 0.0,90.9117194647256 -35.714285714285715,381.09558220693424 53.53866697337306,322.76808220693425&#10;c 159.8597891119891,-49.995 159.39055520345283,0 159.39055520345283,93.85691779306575&#10;c 0,82.86555416408714 -77.71719745353256,132.86055416408715 -147.01076723892442,82.86555416408714&#10;c -92.85714285714286,-49.995 -57.142857142857146,174.9825 -65.91845493790149,333.75944583591286 c -0.0,166.57145927770227 35.714285714285715,346.84860886825714 -110.68293441452988,288.52110886825716&#10;c -74.15877378840759,-49.995 -100.86710587011757,0 -100.86710587011757,128.10389113174284&#10;c 0,122.658128986679 50.63559820642049,172.653128986679 221.7479224413176,122.658128986679&#10;c 92.85714285714286,-49.995 57.142857142857146,174.9825 -10.197882156670147,293.966871013321 L 0 3333 " fill="none" stroke="black" stroke-width="0.1" style="vector-effect:non-scaling-stroke;" /></g></g><g><g><path d="M 0 0  L 0 833.250000  c 154.62286349105224,0.0 297.18431876181444,-41.6625 247.18431876181444,-13.320422351028867&#10;c -42.85714285714286,109.88365387385795 0,237.44005019157166 109.95853838104273,237.44005019157166&#10;c 53.52059808853767,0 96.37774094568053,-95.71588752819625 53.52059808853767,-134.71867253944782&#10;c -42.85714285714286,-108.3225 150.0,-66.66 303.6222590543195,-89.40095530109497 c 120.41257709253375,-0.0 325.29530635880155,41.6625 275.29530635880155,-147.23538972550134&#10;c -42.85714285714286,-92.79124680002528 0,-96.94567629090957 81.84755078405561,-96.94567629090957&#10;c 93.91635594517828,0 136.77349880232114,155.16298597131606 93.91635594517828,168.04909511079674&#10;c -42.85714285714286,108.3225 150.0,66.66 263.2265011976789,76.13197090561417 c 37.253114375250924,0.0 330.8324946348096,-41.6625 280.8324946348096,27.371419976919857&#10;c -42.85714285714286,176.55684493291506 0,251.26100882007626 76.31036250804755,251.26100882007626&#10;c 87.4710791796403,0 130.32822203678316,-106.25534742575199 87.4710791796403,-106.77842755458295&#10;c -42.85714285714286,-108.3225 150.0,-66.66 269.67177796321687,-171.85400124241318 c 198.4915179794266,0.0 299.1164448230574,-41.6625 249.1164448230574,28.335816374602334&#10;c -42.85714285714286,109.12592082165204 0,173.1844281572277 108.02641231979976,173.1844281572277&#10;c 113.24598137272926,0 156.10312422987212,-37.342565115487666 113.24598137272926,-66.14311957216685&#10;c -42.85714285714286,-108.3225 150.0,-66.66 243.8968757701279,-135.37712495966318 c 47.857950116781936,-0.0 343.25553870816145,41.6625 293.25553870816145,-4.369450275397434&#10;c -42.85714285714286,-59.23795282884059 0,-261.96560653029474 63.887318434695715,-261.96560653029474&#10;c 78.14047206397305,0 120.99761492111591,167.84006869998942 78.14047206397305,189.21602782833696&#10;c -42.85714285714286,108.3225 150.0,66.66 279.0023850788841,77.11902897735519 c 61.55356076685576,0.0 309.9559651737555,-41.6625 259.9559651737555,180.0133844568412&#10;c -42.85714285714286,49.46740759901855 0,92.81947297555814 97.18689196910168,92.81947297555814&#10;c 66.86388622862154,0 109.7210290857644,-227.27365711874546 66.86388622862154,-232.93167617821962&#10;c -42.85714285714286,-108.3225 150.0,-66.66 290.27897091423563,-39.90118125417973 c 164.49356551582193,0.0 300.4770034505463,-41.6625 250.47700345054628,1.1630451268900257&#10;c -42.85714285714286,155.70763405812554 0,266.9636657543426 106.66585369231089,266.9636657543426&#10;c 61.21264637327596,0 104.06978923041882,-97.291562150126 61.21264637327596,-146.11679322653058&#10;c -42.85714285714286,-108.3225 150.0,-66.66 295.9302107695812,-122.0099176547021 L 5000 0 " fill="none" stroke="black" stroke-width="0.1" style="vector-effect:non-scaling-stroke;" /></g><g><path d="M 0 0  L 0 1666.500000  c 102.12506339481698,-0.0 314.90047027712876,41.6625 264.90047027712876,-145.40263649248521&#10;c -42.85714285714286,-70.19086492774692 0,-118.78001750079346 92.2423868657284,-118.78001750079346&#10;c 102.88251234170764,0 145.7396551988505,138.52403299206193 102.88251234170764,147.6017637094222&#10;c -42.85714285714286,108.3225 150.0,66.66 254.26034480114953,116.58089028385649 c 77.56496169342256,-0.0 322.45756589268814,41.6625 272.45756589268814,-133.0481269570908&#10;c -42.85714285714286,-51.761976961337794 0,-116.55673713939086 84.68529125016903,-116.55673713939086&#10;c 64.1405295685712,0 106.99767242571406,73.57938513133597 64.1405295685712,248.1830102543839&#10;c -42.85714285714286,108.3225 150.0,66.66 293.00232757428597,1.421853842097761 c 40.540145332151766,0.0 303.00839244401385,-41.6625 253.00839244401385,-6.736433899099933&#10;c -42.85714285714286,251.65295741133994 0,258.94954871103823 104.13446469884332,258.94954871103823&#10;c 101.11121158191895,0 143.9683544390618,-44.96755430787445 101.11121158191895,-210.87165068041278&#10;c -42.85714285714286,-108.3225 150.0,-66.66 256.0316455609382,-41.34146413152553 c 146.13889257415082,-0.0 309.27425477654947,41.6625 259.27425477654947,-124.54502879143402&#10;c -42.85714285714286,-93.92496178056797 0,-141.91327089905596 97.8686023663077,-141.91327089905596&#10;c 83.99416519618688,0 126.85130805332975,53.18022676372047 83.99416519618688,178.3493146093655&#10;c -42.85714285714286,108.3225 150.0,66.66 273.1486919466703,88.10898508112447 c 93.52398624553369,0.0 324.47170425946643,-41.6625 274.47170425946643,135.3772588998838&#10;c -42.85714285714286,75.36608012850853 0,130.88292869792187 82.67115288339073,130.88292869792187&#10;c 54.54388734327932,0 97.40103020042218,-81.02335925138173 54.54388734327932,-253.60918837355328&#10;c -42.85714285714286,-108.3225 150.0,-66.66 302.59896979957784,-12.650999224252388 c 189.0721227778534,0.0 316.220422537209,-41.6625 266.220422537209,-8.367830991328747&#10;c -42.85714285714286,172.755599773133 0,237.29311655685453 90.92243460564816,237.29311655685453&#10;c 83.82647098555867,0 126.68361384270153,-79.45584249060315 83.82647098555867,-117.23492023114652&#10;c -42.85714285714286,-108.3225 150.0,-66.66 273.3163861572985,-111.69036533437925 c 88.60041411536066,0.0 337.06402284584385,-41.6625 287.06402284584385,153.2113407371567&#10;c -42.85714285714286,60.59516378371658 0,75.65754198875851 70.07883429701332,75.65754198875851&#10;c 104.7584360537806,0 147.61557891092346,-131.15270159581567 104.7584360537806,-239.42879654021024&#10;c -42.85714285714286,-108.3225 150.0,-66.66 252.38442108907657,10.559913814295044 L 5000 0 " fill="none" stroke="black" stroke-width="0.1" style="vector-effect:non-scaling-stroke;" /></g><g><path d="M 0 0  L 0 2499.750000  c 171.39925012917783,-0.0 293.299423527637,41.6625 243.29942352763695,-124.79416039705964&#10;c -42.85714285714286,-78.97652091403258 0,-117.53066294707381 113.84343361522022,-117.53066294707381&#10;c 66.27918599240178,0 109.13632884954464,123.87917633230563 66.27918599240178,187.53357449351137&#10;c -42.85714285714286,108.3225 150.0,66.66 290.8636711504554,54.79124885062208 c 186.54759086974425,-0.0 332.4306807870339,41.6625 282.4306807870339,-168.37892665367497&#10;c -42.85714285714286,-12.3529363941267 0,-40.32826524425687 74.71217635582326,-40.32826524425687&#10;c 101.05199493912471,0 143.90913779626757,45.16809115955548 101.05199493912471,146.16140846849189&#10;c -42.85714285714286,108.3225 150.0,66.66 256.09086220373246,62.54578342943995 c 191.4522852508166,-0.0 336.40138393704785,41.6625 286.40138393704785,-35.19521873308098&#10;c -42.85714285714286,-107.26626045010364 0,-192.20295468896933 70.74147320580931,-192.20295468896933&#10;c 105.19518532323832,0 148.05232818038118,184.21895516595737 105.19518532323832,221.10149947808978&#10;c -42.85714285714286,108.3225 150.0,66.66 251.94767181961885,6.296673943960542 c 77.58581940241717,-0.0 318.54649704152376,41.6625 268.54649704152376,-73.04207551710427&#10;c -42.85714285714286,-107.6527928586609 0,-150.25378286492122 88.5963601013334,-150.25378286492122&#10;c 61.19199724164224,0 104.0491400987851,111.55968604556756 61.19199724164224,174.08662967744922&#10;c -42.85714285714286,108.3225 150.0,66.66 295.9508599012149,49.20922870457625 c 39.37965996235834,-0.0 306.86425487609347,41.6625 256.86425487609347,0.8820028586889447&#10;c -42.85714285714286,-58.23990862636135 0,-232.71940470286683 100.2786022667637,-232.71940470286683&#10;c 97.64375613182949,0 140.50089898897235,162.13368113657455 97.64375613182949,224.55611946099904&#10;c -42.85714285714286,108.3225 150.0,66.66 259.4991010110277,7.281282383178848 c 135.28171762979954,-0.0 299.03718023969515,41.6625 249.03718023969515,-169.3299307210615&#10;c -42.85714285714286,-50.931208012773084 0,-81.13627472448204 108.10567690316202,-81.13627472448204&#10;c 103.15292493940564,0 146.0100677965485,181.79855254412595 103.15292493940564,220.78585788504265&#10;c -42.85714285714286,108.3225 150.0,66.66 253.98993220345153,29.680347560500877 c 166.40365898553355,-0.0 342.63034250521633,41.6625 292.63034250521633,-65.99034463715671&#10;c -42.85714285714286,-95.62839816568729 0,-182.02690350406857 64.51251463764083,-182.02690350406857&#10;c 52.75493885703071,0 95.61208171417357,101.96519377184377 52.75493885703071,136.85335267407137&#10;c -42.85714285714286,108.3225 150.0,66.66 304.38791828582646,111.1638954671539 L 5000 0 " fill="none" stroke="black" stroke-width="0.1" style="vector-effect:non-scaling-stroke;" /></g></g></svg>