<svg baseProfile="full" height="1667" preserveAspectRatio="none" shape-rendering="geometricPrecision" version="1.1" viewBox="0,0,2500,1667" width="2500" xmlns="http://www.w3.org/2000/svg" xmlns:ev="http://www.w3.org/2001/xml-events" xmlns:xlink="http://www.w3.org/1999/xlink"><title>Jigsaw puzzle piece clips</title><desc>Created with the piecemaker. Piece count: 12</desc><defs /><g><g><rect fill="white" height="1667" width="2500" x="0" y="0" /></g></g><g><g><path d="M 0 0  L 625.000000 0  c 0.0,158.61276560147337 -31.25,233.2063029946522 126.50855465295288,194.30963632798552&#10;c 61.254765866084064,-33.339999999999996 79.5679070607965,0 79.5679070607965,83.5236970053478&#10;c 0,62.735308444936834 -131.28530202564494,96.07530844493684 -148.3300537079865,62.735308444936834&#10;c -81.25,-33.339999999999996 -50.0,116.68999999999998 -57.74640800576287,215.09802488839648 c -0.0,159.07820777878416 31.25,247.30837560920418 -122.84552383302946,208.4117089425375&#10;c -16.56895955998308,-33.339999999999996 -32.78513957666985,0 -32.78513957666985,69.42162439079581&#10;c 0,65.98423832426533 61.21964763314397,99.32423832426534 69.26996482846954,65.98423832426533&#10;c 81.25,-33.339999999999996 50.0,116.68999999999998 86.36069858122977,211.84909500906798 c -0.0,128.8244720141651 31.25,272.32459307572896 9.276554833861217,233.4279264090623&#10;c -71.62794051483107,-33.339999999999996 -217.93162320569922,0 -217.93162320569922,44.405406924271006&#10;c 0,85.95558487058639 42.707484853714995,119.2955848705864 72.99394643131396,85.95558487058639&#10;c 81.25,-33.339999999999996 50.0,116.68999999999998 135.66112194052405,191.87774846274692 L 0 1667 " fill="none" stroke="black" stroke-width="0.1" style="vector-effect:non-scaling-stroke;" /></g><g><path d="M 0 0  L 1250.000000 0  c -0.0,130.15791853190382 31.25,258.9870811899898 -57.68107900552039,220.09041452332315&#10;c -64.16350472283374,-33.339999999999996 -121.24856027812567,0 -121.24856027812567,57.74291881001017&#10;c 0,70.55205608775918 124.0967661462136,103.89205608775919 137.85259889443878,70.55205608775918&#10;c 81.25,-33.339999999999996 50.0,116.68999999999998 41.07704038920727,207.28127724557413 c -0.0,96.914233421067 31.25,248.16389015888146 -53.895756052766835,209.26722349221478&#10;c -30.67281450707487,-33.339999999999996 -113.3121037636977,0 -113.3121037636977,68.56610984111853&#10;c 0,76.02377959246087 20.223880710481335,109.36377959246087 87.14812172546317,76.02377959246087&#10;c 81.25,-33.339999999999996 50.0,116.68999999999998 80.05973809100138,201.80955374087245 c -0.0,123.08140728111412 31.25,262.1457335816392 -125.81706721583447,223.24906691497253&#10;c -36.11517043882099,-33.339999999999996 -76.6291704746751,0 -76.6291704746751,54.584266418360784&#10;c 0,47.56743366275725 73.19784655865608,80.90743366275726 105.60715491859199,47.56743366275725&#10;c 81.25,-33.339999999999996 50.0,116.68999999999998 96.83908277191759,230.26589967057606 L 0 1667 " fill="none" stroke="black" stroke-width="0.1" style="vector-effect:non-scaling-stroke;" /></g><g><path d="M 0 0  L 1875.000000 0  c 0.0,118.21522429406967 -31.25,244.95734277055044 73.4247438464117,206.06067610388376&#10;c 56.962788362767874,-33.339999999999996 85.44229840233288,0 85.44229840233288,71.77265722944955&#10;c 0,44.71636135123197 -21.25999171227197,78.05636135123197 -63.64555992065098,44.71636135123197&#10;c -81.25,-33.339999999999996 -50.0,116.68999999999998 -95.2214823280936,233.11697198210135 c 0.0,78.83890449681154 -31.25,272.9459063119909 106.31846859003521,234.0492396453242&#10;c 18.50367518930317,-33.339999999999996 54.953104296221895,0 54.953104296221895,43.78409368800911&#10;c 0,60.475535725909026 -60.19224584179505,93.81553572590903 -124.52774938067608,60.475535725909026&#10;c -81.25,-33.339999999999996 -50.0,116.68999999999998 -36.74382350558102,217.3577976074243 c 0.0,85.15504180890755 -31.25,237.04447080738828 107.18127760058235,198.1478041407216&#10;c 46.58482953114908,-33.339999999999996 57.40325457537398,0 57.40325457537398,79.68552919261171&#10;c 0,48.37358484942371 -104.61899893773705,81.71358484942371 -106.01137645741221,48.37358484942371&#10;c -81.25,-33.339999999999996 -50.0,116.68999999999998 -58.573155718544115,229.4597484839096 L 0 1667 " fill="none" stroke="black" stroke-width="0.1" style="vector-effect:non-scaling-stroke;" /></g></g><g><g><path d="M 0 0  L 0 555.666667  c 88.84652238575191,0.0 276.05445732413546,-27.78333333333333 232.30445732413546,36.77813722981624&#10;c -37.5,57.79974379259821 0,148.61343484123864 80.19554267586454,148.61343484123864&#10;c 92.23784022633663,0 129.73784022633663,-45.69253308809068 92.23784022633663,-77.48828398002759&#10;c -37.5,-72.23666666666666 131.25,-44.45333333333333 220.26215977366337,-107.9032880910273 c 180.86788847267812,-0.0 264.62287353788855,27.78333333333333 220.87287353788855,-38.42809398489178&#10;c -37.5,-64.70762858565476 0,-124.78593762348106 91.62712646211145,-124.78593762348106&#10;c 64.57469216747745,0 102.07469216747745,57.50080097349292 64.57469216747745,67.72384917145426&#10;c -37.5,72.23666666666666 131.25,44.45333333333333 247.92530783252255,95.49018243691857 c 170.60847510255834,0.0 303.4658886645837,-27.78333333333333 259.7158886645837,115.36173885124532&#10;c -37.5,18.107616465442064 0,52.13169477262824 52.7841113354163,52.13169477262824&#10;c 63.57295466552574,0 101.07295466552574,-126.06927441275535 63.57295466552574,-150.4253283639345&#10;c -37.5,-72.23666666666666 131.25,-44.45333333333333 248.92704533447426,-17.068105259939045 c 67.32359591893746,-0.0 294.6772414667149,27.78333333333333 250.92724146671492,-25.153054769831&#10;c -37.5,-113.18408703605071 0,-146.8924621110898 61.57275853328508,-146.8924621110898&#10;c 54.276531453113535,0 91.77653145311353,155.44817123008156 54.276531453113535,155.6475185470882&#10;c -37.5,72.23666666666666 131.25,44.45333333333333 258.22346854688647,16.39799833383259 L 2500 0 " fill="none" stroke="black" stroke-width="0.1" style="vector-effect:non-scaling-stroke;" /></g><g><path d="M 0 0  L 0 1111.333333  c 72.91732881789217,-0.0 279.32086450614054,27.78333333333333 235.57086450614054,-68.99602753380368&#10;c -37.5,-98.7131859602569 0,-117.61738363141838 76.92913549385946,-117.61738363141838&#10;c 87.29243027732042,0 124.79243027732042,51.43434038359683 87.29243027732042,98.23306795079479&#10;c -37.5,72.23666666666666 131.25,44.45333333333333 225.20756972267958,88.38034321442727 c 117.65471957233576,-0.0 297.60381271292005,27.78333333333333 253.85381271292002,-87.25719010506425&#10;c -37.5,-29.635579729139746 0,-81.98917347788343 58.64618728707998,-81.98917347788343&#10;c 98.65704992581817,0 136.15704992581817,41.46699097760557 98.65704992581817,118.5901980775881&#10;c -37.5,72.23666666666666 131.25,44.45333333333333 213.84295007418183,50.65616550535958 c 143.1237262028702,-0.0 307.3192291553162,27.78333333333333 263.5692291553162,-103.18490486565948&#10;c -37.5,-27.05158980861141 0,-38.952893871118036 48.93077084468382,-38.952893871118036&#10;c 46.14168450333767,0 83.64168450333767,24.514075101915672 46.14168450333767,34.49330786677156&#10;c -37.5,72.23666666666666 131.25,44.45333333333333 266.3583154966623,107.64449087000595 c 110.48766859294145,-0.0 294.5098571629736,27.78333333333333 250.7598571629736,-58.858504468855315&#10;c -37.5,-53.232420001082964 0,-105.40514223894696 61.74014283702641,-105.40514223894696&#10;c 96.13172151468672,0 133.63172151468672,31.696050674310186 96.13172151468672,103.05795251551729&#10;c -37.5,72.23666666666666 131.25,44.45333333333333 216.36827848531328,61.205694192284994 L 2500 0 " fill="none" stroke="black" stroke-width="0.1" style="vector-effect:non-scaling-stroke;" /></g></g></svg>