<svg baseProfile="full" height="3333" preserveAspectRatio="none" shape-rendering="geometricPrecision" version="1.1" viewBox="0,0,5000,3333" width="5000" xmlns="http://www.w3.org/2000/svg" xmlns:ev="http://www.w3.org/2001/xml-events" xmlns:xlink="http://www.w3.org/1999/xlink"><title>Jigsaw puzzle piece clips</title><desc>Created with the piecemaker. Piece count: 24</desc><defs/><g><g><rect fill="white" height="3333" width="5000" x="0" y="0"/></g></g><g><g><path d="M 0 0  L 833.333333 0  c -0.0,62.00740888391888 41.66666666666667,361.66341483549127 -64.178044100123,303.3359148354913
c -179.27254449208598,-49.995 -214.31499253863095,0 -214.31499253863095,113.28908516450872
c 0,94.2228952602261 148.58704438185532,144.2178952602261 281.6713855560869,94.2228952602261
c 108.33333333333334,-49.995 66.66666666666667,174.9825 -3.178348917332926,322.4021047397739 c -0.0,129.84052588296032 41.66666666666667,390.91459859680714 -126.37610515357893,332.58709859680715
c -100.2828780379794,-49.995 -118.5524642793474,0 -118.5524642793474,84.03790140319285
c 0,80.73931045681286 240.28431586761536,130.73431045681286 245.88989647916887,80.73931045681286
c 108.33333333333334,-49.995 66.66666666666667,174.9825 -0.9613270462425305,335.88568954318714 c 0.0,66.4243483138749 -41.66666666666667,402.9130667729486 13.664430216047156,344.5855667729486
c 142.6614216135829,-49.995 192.66874597944715,0 192.66874597944715,72.0394332270514
c 0,82.96638305412176 -95.35052648179641,132.96138305412177 -129.13634585784376,82.96638305412176
c -108.33333333333334,-49.995 -66.66666666666667,174.9825 -77.19683033765054,333.65861694587824 c 0.0,147.98818120688344 -41.66666666666667,380.223921838592 132.74163703611455,321.896421838592
c 63.725316519908965,-49.995 73.05692841513033,0 73.05692841513033,94.728578161408
c 0,92.81742984907703 -97.05491111883941,142.81242984907703 -205.66782677710816,92.81742984907703
c -108.33333333333334,-49.995 -66.66666666666667,174.9825 -0.13073867413672247,323.80757015092297 L 0 3333 " fill="none" stroke="black" stroke-width="0.1" style="vector-effect:non-scaling-stroke;"/></g><g><path d="M 0 0  L 1666.666667 0  c 0.0,91.3431610452341 -41.66666666666667,385.56729362394975 158.23289130367536,327.23979362394977
c 55.33729445249494,-49.995 69.64330810865297,0 69.64330810865297,89.38520637605023
c 0,112.60078210939628 -66.06744432560215,162.59578210939628 -140.63090703734838,112.60078210939628
c -108.33333333333334,-49.995 -66.66666666666667,174.9825 -87.24529237497995,304.0242178906037 c 0.0,132.57159441894777 -41.66666666666667,395.43391847774825 116.95772405666911,337.10641847774826
c 120.97530376891044,-49.995 146.89515190055778,0 146.89515190055778,79.51858152225174
c 0,63.70995710269574 -113.41050470830469,113.70495710269574 -213.5471575913787,63.70995710269574
c -108.33333333333334,-49.995 -66.66666666666667,174.9825 -50.30571836584821,352.91504289730426 c -0.0,107.52756653155956 41.66666666666667,359.7316178969559 4.487314177491613,301.40411789695594
c -97.61150064063014,-49.995 -247.35787099885363,0 -247.35787099885363,115.22088210304406
c 0,106.20808622276684 28.55025490778658,156.20308622276684 127.2346692274896,106.20808622276684
c 108.33333333333334,-49.995 66.66666666666667,174.9825 115.63588759387241,310.41691377723316 c 0.0,99.30250144800756 -41.66666666666667,388.86989690275993 158.64539446432585,330.54239690275995
c 39.30558905152313,-49.995 112.12818023960281,0 112.12818023960281,86.08260309724005
c 0,86.72345778582667 -51.53802259552576,136.71845778582667 -149.17333160405664,86.72345778582667
c -108.33333333333334,-49.995 -66.66666666666667,174.9825 -121.60024309987202,329.90154221417333 L 0 3333 " fill="none" stroke="black" stroke-width="0.1" style="vector-effect:non-scaling-stroke;"/></g><g><path d="M 0 0  L 2500.000000 0  c 0.0,62.559862243519134 -41.66666666666667,390.3632828196643 71.9150222280673,332.0357828196643
c 169.1958392926201,-49.995 170.680680417126,0 170.680680417126,84.58921718033571
c 0,102.29737915299302 -115.54306532401938,152.29237915299302 -183.82500923659012,102.29737915299302
c -108.33333333333334,-49.995 -66.66666666666667,174.9825 -58.770693408603194,314.327620847007 c 0.0,218.82387571886687 -41.66666666666667,386.6698944517894 141.3968534031047,328.3423944517894
c 61.80780758113412,-49.995 108.61128261891997,0 108.61128261891997,88.2826055482106
c 0,116.03119389734366 -113.76654315768624,166.02619389734366 -194.40295610121632,116.03119389734366
c -108.33333333333334,-49.995 -66.66666666666667,174.9825 -55.605179920808354,300.59380610265634 c 0.0,163.27090414835317 -41.66666666666667,368.98593395128705 3.7611368940513827,310.65843395128707
c 82.04429737586422,-49.995 272.17792632740685,0 272.17792632740685,105.96656604871293
c 0,73.50097683568481 -58.21287843940092,123.49597683568481 -115.95750703204891,73.50097683568481
c -108.33333333333334,-49.995 -66.66666666666667,174.9825 -159.98155618940933,343.1240231643152 c 0.0,65.98344895095207 -41.66666666666667,390.16731371187524 125.22396713284921,331.83981371187525
c 105.31380660350263,-49.995 108.25600860107117,0 108.25600860107117,84.78518628812475
c 0,75.13341522163137 -151.32775435764145,125.12841522163137 -163.06985051591863,75.13341522163137
c -108.33333333333334,-49.995 -66.66666666666667,174.9825 -70.41012521800175,341.49158477836863 L 0 3333 " fill="none" stroke="black" stroke-width="0.1" style="vector-effect:non-scaling-stroke;"/></g><g><path d="M 0 0  L 3333.333333 0  c 0.0,131.9178991818089 -41.66666666666667,365.89186897704974 166.17049055982133,307.56436897704975
c 11.673188789086089,-49.995 36.9999925512418,0 36.9999925512418,109.06063102295025
c 0,118.37319912619012 -31.691407736071028,168.36819912619012 -102.52329934451676,118.37319912619012
c -108.33333333333334,-49.995 -66.66666666666667,174.9825 -100.64718376654638,298.2518008738099 c -0.0,152.10172818688946 41.66666666666667,390.44392354756224 -133.0354439454164,332.11642354756225
c -76.98796543459515,-49.995 -127.34871784668562,0 -127.34871784668562,84.50857645243775
c 0,125.23648242536433 105.30189939744939,175.23148242536433 226.20083671924283,125.23648242536433
c 108.33333333333334,-49.995 66.66666666666667,174.9825 34.18332507285919,291.38851757463567 c -0.0,208.0916280881916 41.66666666666667,403.458362633903 -138.99750093720812,345.130862633903
c -87.44400316018198,-49.995 -120.48611675849182,0 -120.48611675849182,71.494137366097
c 0,111.592760953631 51.35712932736297,161.587760953631 159.4879356926776,111.592760953631
c 108.33333333333334,-49.995 66.66666666666667,174.9825 99.99568200302232,305.032239046369 c -0.0,61.08821544066409 41.66666666666667,376.7405223676876 -87.77250302145546,318.41302236768763
c -127.03149989819723,-49.995 -158.8952005096874,0 -158.8952005096874,98.21197763231237
c 0,85.66437651782678 60.544761236409315,135.6593765178268 168.7539554654869,85.66437651782678
c 108.33333333333334,-49.995 66.66666666666667,174.9825 77.91374806565597,330.9606234821732 L 0 3333 " fill="none" stroke="black" stroke-width="0.1" style="vector-effect:non-scaling-stroke;"/></g><g><path d="M 0 0  L 4166.666667 0  c -0.0,225.0561142945358 41.66666666666667,391.4168717224184 -112.83593620883379,333.08937172241843
c -42.99563739883788,-49.995 -161.56800544405792,0 -161.56800544405792,83.53562827758157
c 0,80.88908678528611 28.237695393602934,130.88408678528612 106.873941073737,80.88908678528611
c 108.33333333333334,-49.995 66.66666666666667,174.9825 167.53000057915472,335.7359132147139 c 0.0,133.22191405912832 -41.66666666666667,393.8378796242287 139.95027120628697,335.51037962422873
c 127.90480414096864,-49.995 135.7738773120406,0 135.7738773120406,81.11462037577127
c 0,104.40099049314142 -55.338985643585744,154.39599049314143 -225.58791705955298,104.40099049314142
c -108.33333333333334,-49.995 -66.66666666666667,174.9825 -50.1362314587746,312.2240095068586 c 0.0,45.13498617269852 -41.66666666666667,413.13922204901553 -13.338534336407651,354.81172204901554
c 268.1988216641071,-49.995 271.67602534677786,0 271.67602534677786,61.81327795098446
c 0,110.99306144676996 -137.71290561432312,160.98806144676996 -260.29044265400864,110.99306144676996
c -108.33333333333334,-49.995 -66.66666666666667,174.9825 1.9529516436384142,305.63193855323004 c 0.0,69.02956432686425 -41.66666666666667,384.8730326259068 38.72173569802351,326.5455326259068
c 86.410867308376,-49.995 210.88377269345057,0 210.88377269345057,90.07946737409321
c 0,66.86277896098164 -88.34976959069432,116.85777896098165 -213.18538260851508,66.86277896098164
c -108.33333333333334,-49.995 -66.66666666666667,174.9825 -36.42012578295899,349.76222103901836 L 0 3333 " fill="none" stroke="black" stroke-width="0.1" style="vector-effect:non-scaling-stroke;"/></g></g><g><g><path d="M 0 0  L 0 833.250000  c 68.29035839759808,0.0 353.11491916186344,-41.6625 294.7815858285301,30.951946798189866
c -50.0,138.90784374953432 0,210.6474895596461 121.88508083813656,210.6474895596461
c 65.09378968229174,0 115.09378968229174,-84.82078254440357 65.09378968229174,-251.50169641762912
c -50.0,-108.3225 175.0,-66.66 351.57287698437494,9.902260059793178 c 98.63642268218824,0.0 359.2272210767726,-41.6625 300.8938877434392,35.45513728739626
c -50.0,85.60016365360896 0,167.87994039111013 115.77277892322746,167.87994039111013
c 115.24806342527046,0 165.24806342527046,-105.66681707855508 115.24806342527046,-144.00717455073126
c -50.0,-108.3225 175.0,-66.66 301.4186032413962,-59.32790312777513 c 139.54636697096453,0.0 383.974393013312,-41.6625 325.6410596799787,96.04547041499137
c -50.0,147.97753620434057 0,168.98159441015196 91.02560698668799,168.98159441015196
c 75.09518284770189,0 125.09518284770189,-42.251858671250275 75.09518284770189,-179.6838505779199
c -50.0,-108.3225 175.0,-66.66 341.5714838189648,-85.34321424722341 c 106.02958546812339,0.0 413.1473374571027,-41.6625 354.8140041237694,176.54997885105448
c -50.0,10.495160306058795 0,35.83624589626771 61.85266254289729,35.83624589626771
c 132.6363979268453,0 182.6363979268453,-30.831729969458586 132.6363979268453,-61.79044018230917
c -50.0,-108.3225 175.0,-66.66 284.0302687398214,-150.59578456501302 c 120.97063349153154,0.0 351.8557301017647,-41.6625 293.52239676843135,49.25047872219563
c -50.0,100.08686597475986 0,157.71901331296684 123.14426989823534,157.71901331296684
c 109.05662644301145,0 159.05662644301145,-14.802889663284471 109.05662644301145,-29.14643303883716
c -50.0,-108.3225 175.0,-66.66 307.61004022365523,-177.8230589963253 c 119.77539550329527,-0.0 346.91286831576156,41.6625 288.57953498242824,-29.814574586004603
c -50.0,-195.23993945509307 0,-253.47552823143786 128.08713168423844,-253.47552823143786
c 67.91611872157773,0 117.91611872157773,83.23118989834819 67.91611872157773,222.39375650866785
c -50.0,108.3225 175.0,66.66 348.75054794508895,60.89634630877461 L 5000 0 " fill="none" stroke="black" stroke-width="0.1" style="vector-effect:non-scaling-stroke;"/></g><g><path d="M 0 0  L 0 1666.500000  c 232.3794923260988,-0.0 388.1480171963682,41.6625 329.8146838630349,-53.7580421162828
c -50.0,-155.44164577249055 0,-186.39921772133496 86.85198280363181,-186.39921772133496
c 131.35745770829402,0 181.35745770829402,181.9588503770647 131.35745770829402,189.59207295301343
c -50.0,108.3225 175.0,66.66 285.30920895837266,50.565186884604344 c 160.79206249034158,-0.0 391.85561044049246,41.6625 333.52227710715914,-0.7159286922502952
c -50.0,-150.5060187835463 0,-250.24500679976433 83.14438955950754,-250.24500679976433
c 120.94989897162219,0 170.9498989716222,121.03958528520276 120.94989897162219,194.6780864317588
c -50.0,108.3225 175.0,66.66 295.7167676950445,56.28284906025581 c 135.8994114615468,0.0 384.8835441824024,-41.6625 326.55021084906906,133.09339968916072
c -50.0,141.264030975316 0,145.0035089083571 90.11645581759763,145.0035089083571
c 75.22147164752283,0 125.22147164752283,-45.79043575852319 75.22147164752283,-147.58417729518024
c -50.0,-108.3225 175.0,-66.66 341.44519501914385,-130.51273130233758 c 197.7673716851161,0.0 380.5503277464659,-41.6625 322.2169944131325,136.2963690599183
c -50.0,53.356951548064536 0,84.8630868648317 94.44967225353417,84.8630868648317
c 66.06516332174368,0 116.06516332174368,-48.58911898266768 66.06516332174368,-69.45252702737929
c -50.0,-108.3225 175.0,-66.66 350.601503344923,-151.70692889737072 c 77.85224779672224,-0.0 344.48016491439523,41.6625 286.14683158106186,-135.92524972977682
c -50.0,-42.31615603710703 0,-84.06826095565003 130.51983508560483,-84.06826095565003
c 59.66982023303376,0 109.66982023303376,60.75696222841759 59.66982023303376,198.96250710178654
c -50.0,108.3225 175.0,66.66 356.9968464336329,21.031003583640313 c 228.50036568540835,0.0 413.690710285273,-41.6625 355.35737695193967,73.29662640629955
c -50.0,61.62494162686842 0,153.01185724369492 61.309289714727015,153.01185724369492
c 93.01536004824004,0 143.01536004824004,-100.43631481156376 93.01536004824004,-103.46198578969171
c -50.0,-108.3225 175.0,-66.66 323.65130661842664,-122.84649786030275 L 5000 0 " fill="none" stroke="black" stroke-width="0.1" style="vector-effect:non-scaling-stroke;"/></g><g><path d="M 0 0  L 0 2499.750000  c 175.7979693179394,0.0 373.87858082572563,-41.6625 315.54524749239226,118.48724393744506
c -50.0,43.70637438511094 0,84.68839061095998 101.12141917427442,84.68839061095998
c 132.07680910939445,0 182.07680910939445,-115.92296856945583 132.07680910939445,-165.09726404579393
c -50.0,-108.3225 175.0,-66.66 284.58985755727224,-38.07837050261111 c 207.84487212665843,-0.0 356.9960618893907,41.6625 298.6627285560574,2.3011116713778024
c -50.0,-157.01790583135337 0,-232.98150547734903 118.00393811060928,-232.98150547734903
c 116.93591237376694,0 166.93591237376694,73.96649142460947 116.93591237376694,151.1130651181843
c -50.0,108.3225 175.0,66.66 299.73075429289975,79.56732868778693 c 189.02268759698975,0.0 343.8660431863516,-41.6625 285.5327098530182,68.06862986363151
c -50.0,104.69046946497339 0,139.54525301926768 131.13395681364847,139.54525301926768
c 85.69013366633277,0 135.69013366633277,-136.21610017548937 85.69013366633277,-219.90718357220803
c -50.0,-108.3225 175.0,-66.66 330.9765330003339,12.293300689308836 c 106.80270949336708,0.0 397.4138464356148,-41.6625 339.08051310228143,178.1985065588146
c -50.0,20.719200106496384 0,86.05818218047486 77.58615356438526,86.05818218047486
c 90.15919802633147,0 140.15919802633147,-126.60328665161978 90.15919802633147,-161.63223634514162
c -50.0,-108.3225 175.0,-66.66 326.5074686403352,-102.62445239414785 c 230.97390538168423,0.0 403.716576091251,-41.6625 345.3832427579177,142.8683071411445
c -50.0,45.98624569640222 0,88.25117571691729 71.283423908749,88.25117571691729
c 93.89772275912952,0 143.89772275912952,-86.20682248962667 93.89772275912952,-137.2422117782174
c -50.0,-108.3225 175.0,-66.66 322.76894390753716,-93.87727107984438 c 212.5714082984366,-0.0 398.0074176640428,41.6625 339.6740843307095,-17.74376198874371
c -50.0,-161.20047230418842 0,-199.28875990447716 76.9925823359572,-199.28875990447716
c 75.37813706495808,0 125.37813706495808,102.56762676185296 75.37813706495808,103.87155047150418
c -50.0,108.3225 175.0,66.66 341.2885296017086,113.16097142171668 L 5000 0 " fill="none" stroke="black" stroke-width="0.1" style="vector-effect:non-scaling-stroke;"/></g></g></svg>