<svg baseProfile="full" height="792" preserveAspectRatio="none" shape-rendering="geometricPrecision" version="1.1" viewBox="0,0,1280,792" width="1280" xmlns="http://www.w3.org/2000/svg" xmlns:ev="http://www.w3.org/2001/xml-events" xmlns:xlink="http://www.w3.org/1999/xlink"><title>Jigsaw puzzle piece clips</title><desc>Created with the piecemaker. Piece count: 35</desc><defs /><g><g><rect fill="white" height="792" width="1280" x="0" y="0" /></g></g><g><g><path d="M 0 0  L 182.857143 0  c 0.0,23.606049984821563 -9.142857142857144,71.49695142341051 10.008437645482886,60.4089514234105&#10;c 39.06879100789107,-9.504 44.03555029804706,0 44.03555029804706,18.791048576589503&#10;c 0,15.245996587186838 -9.818001494763287,24.749996587186835 -32.79702447782803,15.245996587186838&#10;c -23.771428571428572,-9.504 -14.62857142857143,33.264 -21.246963465701917,63.954003412813165 c -0.0,36.69161704657133 9.142857142857144,69.46105671758849 -23.988605595160557,58.37305671758849&#10;c -15.90316831904288,-9.504 -38.02201283173366,0 -38.02201283173366,20.826943282411513&#10;c 0,16.858418640475094 13.854368917374703,26.36241864047509 61.33554031088468,16.858418640475094&#10;c 23.771428571428572,-9.504 14.62857142857143,33.264 0.6750781160095372,62.34158135952491 c -0.0,32.976600235785554 9.142857142857144,75.01103884082336 3.4646109051139224,63.92303884082336&#10;c -47.468401009849295,-9.504 -60.503103661493036,0 -60.503103661493036,15.276961159176643&#10;c 0,20.163632704525128 13.49086053111476,29.667632704525126 36.919757887207965,20.163632704525128&#10;c 23.771428571428572,-9.504 14.62857142857143,33.264 20.11873486917115,59.036367295474875 c 0.0,15.707056264953737 -9.142857142857144,66.41762059294845 6.370822572684966,55.32962059294846&#10;c 33.50258834870785,-9.504 46.48818380039339,0 46.48818380039339,23.870379407051544&#10;c 0,18.625913689499043 -10.303928058960956,28.12991368949904 -42.80371758886511,18.625913689499043&#10;c -23.771428571428572,-9.504 -14.62857142857143,33.264 -10.05528878421324,60.57408631050096 c -0.0,12.789649029262703 9.142857142857144,67.85859681469441 -9.129381494142224,56.7705968146944&#10;c -12.16410055601173,-9.504 -42.52989463528686,0 -42.52989463528686,22.429403185305603&#10;c 0,23.7518590047505 36.68923390621733,33.2558590047505 52.1292627004336,23.7518590047505&#10;c 23.771428571428572,-9.504 14.62857142857143,33.264 -0.4699865710045188,55.4481409952495 L 0 792 " fill="none" stroke="black" stroke-width="0.1" style="vector-effect:non-scaling-stroke;" /></g><g><path d="M 0 0  L 365.714286 0  c -0.0,35.079437042767864 9.142857142857144,68.36178150155692 -21.406149164227042,57.27378150155692&#10;c -30.030771264632715,-9.504 -32.03348364713891,0 -32.03348364713891,21.926218498443085&#10;c 0,18.20973150737079 47.3427956802559,27.713731507370788 54.854276445453756,18.20973150737079&#10;c 23.771428571428572,-9.504 14.62857142857143,33.264 -1.4146436340878026,60.99026849262921 c 0.0,28.606168010549922 -9.142857142857144,72.42611979407913 28.044349223337793,61.33811979407913&#10;c 19.375133308690376,-9.504 19.79795510827738,0 19.79795510827738,17.861880205920876&#10;c 0,14.707713677802246 -11.6279099198108,24.211713677802244 -44.064044793533796,14.707713677802246&#10;c -23.771428571428572,-9.504 -14.62857142857143,33.264 -3.778259538081379,64.49228632219776 c 0.0,16.815218396938466 -9.142857142857144,75.22933534408602 5.421051456493452,64.14133534408602&#10;c 17.094308728165423,-9.504 43.72727203546777,0 43.72727203546777,15.058664655913987&#10;c 0,13.188130667689407 -9.431842930661684,22.692130667689405 -13.363491622660717,13.188130667689407&#10;c -23.771428571428572,-9.504 -14.62857142857143,33.264 -35.784831869300504,66.0118693323106 c -0.0,22.243247606138848 9.142857142857144,66.24415014208054 -16.20245198816142,55.156150142080534&#10;c -23.672366461014327,-9.504 -33.83881750623715,0 -33.83881750623715,24.04384985791947&#10;c 0,24.223108688775014 30.917949201215418,33.72710868877501 31.88884818217718,24.223108688775014&#10;c 23.771428571428572,-9.504 14.62857142857143,33.264 18.15242131222139,54.97689131122499 c 0.0,19.83837672724571 -9.142857142857144,74.20293596151191 34.45266956394882,63.11493596151191&#10;c 8.398656901665236,-9.504 16.59146408984863,0 16.59146408984863,16.085064038488092&#10;c 0,14.633452388602649 -13.252715826844687,24.137452388602647 -44.064370237141105,14.633452388602649&#10;c -23.771428571428572,-9.504 -14.62857142857143,33.264 -6.97976341665634,64.56654761139735 L 0 792 " fill="none" stroke="black" stroke-width="0.1" style="vector-effect:non-scaling-stroke;" /></g><g><path d="M 0 0  L 548.571429 0  c 0.0,18.5258683756556 -9.142857142857144,69.25147251219144 38.47556205643419,58.16347251219145&#10;c 7.970154532197886,-9.504 12.208799952285254,0 12.208799952285254,21.036527487808556&#10;c 0,12.722398383428171 -19.23307074330886,22.22639838342817 -40.006510944860736,12.722398383428171&#10;c -23.771428571428572,-9.504 -14.62857142857143,33.264 -10.67785106385871,66.47760161657183 c 0.0,12.091950776964271 -9.142857142857144,70.83688411314385 0.9330971238003613,59.74888411314385&#10;c 34.40184197159637,-9.504 43.37146742825701,0 43.37146742825701,19.45111588685615&#10;c 0,21.68223449068749 -41.67617266131935,31.18623449068749 -41.87382753159515,21.68223449068749&#10;c -23.771428571428572,-9.504 -14.62857142857143,33.264 -2.4307370204622245,57.51776550931251 c 0.0,38.293421898943556 -9.142857142857144,66.64759224054168 21.09046749139841,55.55959224054169&#10;c 35.076335294462034,-9.504 34.76860627321261,0 34.76860627321261,23.640407759458313&#10;c 0,19.375822910831303 -18.761608753922705,28.8798229108313 -42.38927144011755,19.375822910831303&#10;c -23.771428571428572,-9.504 -14.62857142857143,33.264 -13.469802324493479,59.8241770891687 c 0.0,19.5662164862467 -9.142857142857144,78.52561186417071 3.164873853641719,67.43761186417072&#10;c 42.540841537434936,-9.504 47.66055496431227,0 47.66055496431227,11.762388135829283&#10;c 0,15.733597284541759 -50.3466111508788,25.237597284541756 -50.958531335419536,15.733597284541759&#10;c -23.771428571428572,-9.504 -14.62857142857143,33.264 0.13310251746554513,63.466402715458244 c -0.0,33.77201258300729 9.142857142857144,66.29411126180949 -38.563687569590726,55.20611126180949&#10;c -5.214560790589837,-9.504 -5.750576812270012,0 -5.750576812270012,23.993888738190513&#10;c 0,21.390213441827854 9.129067401522438,30.89421344182785 14.060488253945511,21.390213441827854&#10;c 23.771428571428572,-9.504 14.62857142857143,33.264 30.253776127915227,57.80978655817215 L 0 792 " fill="none" stroke="black" stroke-width="0.1" style="vector-effect:non-scaling-stroke;" /></g><g><path d="M 0 0  L 731.428571 0  c 0.0,38.237908167372034 -9.142857142857144,66.64080494061943 8.898376641010408,55.55280494061944&#10;c 33.19023471350423,-9.504 49.60844508756143,0 49.60844508756143,23.647195059380564&#10;c 0,20.94374646005447 -8.96127434272284,30.447746460054468 -35.430704114940845,20.94374646005447&#10;c -23.771428571428572,-9.504 -14.62857142857143,33.264 -23.07611761363099,58.25625353994553 c -0.0,18.594161364913035 9.142857142857144,71.52582176474121 -33.39703429904935,60.437821764741216&#10;c -6.892194293691296,-9.504 -18.10150375523275,0 -18.10150375523275,18.762178235258787&#10;c 0,21.27599098531769 14.155647905838224,30.77999098531769 23.91865760055992,21.27599098531769&#10;c 23.771428571428572,-9.504 14.62857142857143,33.264 27.57988045372218,57.92400901468231 c 0.0,31.51387620304478 -9.142857142857144,68.7764359138231 20.89140882530345,57.6884359138231&#10;c 23.07162129911062,-9.504 26.655505376610677,0 26.655505376610677,21.511564086176904&#10;c 0,21.326988497324777 -16.111863676502832,30.830988497324775 -38.80631238037498,21.326988497324777&#10;c -23.771428571428572,-9.504 -14.62857142857143,33.264 -8.740601821539144,57.873011502675226 c -0.0,8.574114054856212 9.142857142857144,78.21237639340623 -10.213620057385858,67.12437639340622&#10;c -21.24523993588791,-9.504 -36.00891010930868,0 -36.00891010930868,12.07562360659378&#10;c 0,20.71305498174678 6.656343354558553,30.217054981746777 24.952308053423916,20.71305498174678&#10;c 23.771428571428572,-9.504 14.62857142857143,33.264 21.270222113270624,58.48694501825322 c 0.0,35.21983327555131 -9.142857142857144,65.35233931261058 -3.5408191105484534,54.26433931261057&#10;c 32.635329148222745,-9.504 64.64173411044052,0 64.64173411044052,24.93566068738943&#10;c 0,12.631461719031037 -12.862665283403192,22.135461719031035 -21.69467776796764,12.631461719031037&#10;c -23.771428571428572,-9.504 -14.62857142857143,33.264 -39.40623723192443,66.56853828096897 L 0 792 " fill="none" stroke="black" stroke-width="0.1" style="vector-effect:non-scaling-stroke;" /></g><g><path d="M 0 0  L 914.285714 0  c 0.0,40.3180366690471 -9.142857142857144,76.16207579607112 22.408737660067327,65.07407579607111&#10;c 27.244774520234355,-9.504 33.83907355218358,0 33.83907355218358,14.12592420392889&#10;c 0,19.52476401197957 -24.668362200150902,29.02876401197957 -34.92558416060674,19.52476401197957&#10;c -23.771428571428572,-9.504 -14.62857142857143,33.264 -21.32222705164417,59.67523598802043 c 0.0,25.074967410561634 -9.142857142857144,73.60754731576739 29.472951919142925,62.5195473157674&#10;c 25.006691858382556,-9.504 30.951108827691204,0 30.951108827691204,16.680452684232606&#10;c 0,17.11334988539872 -16.97029994352027,26.617349885398717 -63.64173785751139,17.11334988539872&#10;c -23.771428571428572,-9.504 -14.62857142857143,33.264 3.2176771106772577,62.086650114601284 c 0.0,35.8205283741128 -9.142857142857144,73.99672188596483 0.27812967621483076,62.90872188596484&#10;c 23.989350859344764,-9.504 43.825134738508325,0 43.825134738508325,16.291278114035165&#10;c 0,24.45613376250178 -11.038998053840333,33.960133762501776 -43.37776525050784,24.45613376250178&#10;c -23.771428571428572,-9.504 -14.62857142857143,33.264 -0.7254991642153144,54.743866237498224 c -0.0,45.85787460766338 9.142857142857144,66.70553425398683 -26.71294240983868,55.61753425398683&#10;c -14.161196132459677,-9.504 -31.681639851753484,0 -31.681639851753484,23.58246574601317&#10;c 0,13.667125059122057 17.930434783247332,23.171125059122055 24.687314342798977,13.667125059122057&#10;c 23.771428571428572,-9.504 14.62857142857143,33.264 33.707267918793185,65.53287494087795 c 0.0,40.57050813166752 -9.142857142857144,72.0636442230066 11.808373595082221,60.97564422300661&#10;c 31.607494605176072,-9.504 45.356233660480676,0 45.356233660480676,18.22435577699339&#10;c 0,16.126363388437028 -22.863605173903732,25.630363388437026 -44.19832418531787,16.126363388437028&#10;c -23.771428571428572,-9.504 -14.62857142857143,33.264 -12.966283070245026,63.073636611562975 L 0 792 " fill="none" stroke="black" stroke-width="0.1" style="vector-effect:non-scaling-stroke;" /></g><g><path d="M 0 0  L 1097.142857 0  c 0.0,39.03348612031834 -9.142857142857144,65.85564672058928 32.64626786849994,54.767646720589276&#10;c 15.56385174598768,-9.504 19.554157537510484,0 19.554157537510484,24.432353279410727&#10;c 0,24.493165058311206 -11.179383554748915,33.997165058311204 -31.995612972769063,24.493165058311206&#10;c -23.771428571428572,-9.504 -14.62857142857143,33.264 -20.20481243324136,54.7068349416888 c -0.0,14.826360446500981 9.142857142857144,67.43151198785148 -13.592616658952199,56.343511987851485&#10;c -18.25877472841779,-9.504 -30.57351985182029,0 -30.57351985182029,22.856488012148517&#10;c 0,14.103441197573176 4.30092565009514,23.607441197573173 8.608132736672957,14.103441197573176&#10;c 23.771428571428572,-9.504 14.62857142857143,33.264 35.55800377409953,65.09655880242683 c -0.0,36.230002142948145 9.142857142857144,76.14630613762719 -29.510001664494858,65.0583061376272&#10;c -9.57273802502713,-9.504 -30.57621757265955,0 -30.57621757265955,14.141693862372804&#10;c 0,16.867394422705104 8.666705706500109,26.3713944227051 25.383186102237985,16.867394422705104&#10;c 23.771428571428572,-9.504 14.62857142857143,33.264 34.703033134916424,62.3326055772949 c -0.0,28.095026716257575 9.142857142857144,69.3452406551134 -9.556211055915366,58.2572406551134&#10;c -22.746226864654655,-9.504 -41.79773099225669,0 -41.79773099225669,20.942759344886603&#10;c 0,16.413888589557956 10.233042916802887,25.917888589557954 14.056658169780825,16.413888589557956&#10;c 23.771428571428572,-9.504 14.62857142857143,33.264 37.297283878391234,62.78611141044205 c -0.0,18.802924617102832 9.142857142857144,66.49719477894277 -23.276977850261805,55.40919477894277&#10;c -17.652408551993826,-9.504 -30.607692275033717,0 -30.607692275033717,23.790805221057234&#10;c 0,12.74620007468505 16.064892889345266,22.250200074685047 23.398511025142046,12.74620007468505&#10;c 23.771428571428572,-9.504 14.62857142857143,33.264 30.486159100153476,66.45379992531495 L 0 792 " fill="none" stroke="black" stroke-width="0.1" style="vector-effect:non-scaling-stroke;" /></g></g><g><g><path d="M 0 0  L 0 158.400000  c 28.442171451561567,-0.0 88.6086930664328,7.920000000000001 75.80869306643281,-6.569952911720393&#10;c -10.971428571428572,-31.073339306810986 0,-39.86724429448449 15.619878362138621,-39.86724429448449&#10;c 19.006311115728735,0 29.977739687157307,10.895084450526618 19.006311115728735,14.366791765868925&#10;c -10.971428571428572,20.592000000000002 38.4,12.672 72.4222603128427,32.07040544033596 c 23.008599113854334,-0.0 80.78738227002759,7.920000000000001 67.9873822700276,-30.431929746185197&#10;c -10.971428571428572,-15.17887899408946 0,-18.333589168812395 23.441189158543835,-18.333589168812395&#10;c 16.627946843989022,0 27.599375415417594,36.27466189658414 16.627946843989022,48.466455115001466&#10;c -10.971428571428572,20.592000000000002 38.4,12.672 74.80062458458241,0.29906379999612653 c 35.28242424768452,0.0 87.24578958571901,-7.920000000000001 74.44578958571901,-1.0868575259402513&#10;c -10.971428571428572,29.166675434696025 0,52.08260812032285 16.982781842852418,52.08260812032285&#10;c 26.596218902629317,0 37.56764747405789,-26.880025057491252 26.596218902629317,-28.32527520256061&#10;c -10.971428571428572,-20.592000000000002 38.4,-12.672 64.83235252594211,-22.670475391821988 c 41.99837632776818,-0.0 85.5527045773163,7.920000000000001 72.75270457731631,-23.18595262869958&#10;c -10.971428571428572,-17.174924369603378 0,-20.369234309995598 18.675866851255122,-20.369234309995598&#10;c 15.109917818979298,0 26.08134639040787,21.54400019318475 15.109917818979298,29.159308689033544&#10;c -10.971428571428572,20.592000000000002 38.4,12.672 76.31865360959213,14.395878249661635 c 52.533517626339595,0.0 85.22098249858614,-7.920000000000001 72.42098249858614,6.726157461836999&#10;c -10.971428571428572,9.204102851894085 0,38.49503207528301 19.00758892998529,38.49503207528301&#10;c 16.770617244923613,0 27.742045816352185,-8.765725098941822 16.770617244923613,-31.905947048311567&#10;c -10.971428571428572,-20.592000000000002 38.4,-12.672 74.65795418364782,-13.315242488808437 c 38.28411838927376,-0.0 90.49847059747205,7.920000000000001 77.69847059747205,0.6834960250316786&#10;c -10.971428571428572,-15.297225280121266 0,-42.37510562708669 13.730100831099378,-42.37510562708669&#10;c 21.487823137527613,0 32.45925170895619,8.167009860626898 21.487823137527613,17.761086236283443&#10;c -10.971428571428572,20.592000000000002 38.4,12.672 69.94074829104382,23.930523365771567 c 29.760480706066478,-0.0 75.28669336275571,7.920000000000001 62.486693362755716,-34.10817174434592&#10;c -10.971428571428572,-10.564081614039232 0,-16.374676759450352 28.941878065815715,-16.374676759450352&#10;c 17.40322952455911,0 28.37465809598768,12.469290359584043 17.40322952455911,40.311373793636264&#10;c -10.971428571428572,20.592000000000002 38.4,12.672 74.02534190401232,10.171474710160005 L 1280 0 " fill="none" stroke="black" stroke-width="0.1" style="vector-effect:non-scaling-stroke;" /></g><g><path d="M 0 0  L 0 316.800000  c 45.86262713431564,0.0 81.82759595387975,-7.920000000000001 69.02759595387975,30.060847519541035&#10;c -10.971428571428572,5.612261221079987 0,15.77934339358822 22.400975474691677,15.77934339358822&#10;c 16.228537716453474,0 27.199966287882045,-4.925687554745268 16.228537716453474,-16.50255531653719&#10;c -10.971428571428572,-20.592000000000002 38.4,-12.672 75.20003371211796,-29.337635596592065 c 11.68253391838934,-0.0 86.60434254992596,7.920000000000001 73.80434254992596,-25.904986521157774&#10;c -10.971428571428572,-20.266532560161416 0,-25.719912629477655 17.624228878645468,-25.719912629477655&#10;c 27.597452965642916,0 38.56888153707149,32.976303713921055 27.597452965642916,33.94813133665731&#10;c -10.971428571428572,20.592000000000002 38.4,12.672 63.831118462928515,17.676767813978117 c 20.026835947574295,0.0 81.70644683037642,-7.920000000000001 68.90644683037642,9.128730855698668&#10;c -10.971428571428572,17.88620590123085 0,36.71890520678678 22.522124598195006,36.71890520678678&#10;c 18.822593412733582,0 29.794021984162153,-9.130178304563913 18.822593412733582,-35.084160358264974&#10;c -10.971428571428572,-20.592000000000002 38.4,-12.672 72.60597801583785,-10.763475704220475 c 13.655681667624723,-0.0 88.10156500545656,7.920000000000001 75.30156500545657,-29.821106894593353&#10;c -10.971428571428572,-2.16759394419717 0,-10.088347632465851 16.127006423114864,-10.088347632465851&#10;c 25.759835064917198,0 36.73126363634577,18.814485969261774 25.759835064917198,21.841945070681284&#10;c -10.971428571428572,20.592000000000002 38.4,12.672 65.66873636365423,18.06750945637792 c 16.497535900140885,-0.0 81.18866556437504,7.920000000000001 68.38866556437505,-14.937988506256836&#10;c -10.971428571428572,-7.31674596647785 0,-30.493846138889708 23.039905864196385,-30.493846138889708&#10;c 17.279652126898227,0 28.2510806983268,20.035514573184162 17.279652126898227,25.7501913585809&#10;c -10.971428571428572,20.592000000000002 38.4,12.672 74.1489193016732,19.681643286565645 c 37.112249236584866,-0.0 76.50554609409669,7.920000000000001 63.70554609409669,-16.532091034045923&#10;c -10.971428571428572,-13.880836321727054 0,-35.804662989258844 27.72302533447474,-35.804662989258844&#10;c 14.316234391420068,0 25.28766296284864,9.957174777302283 14.316234391420068,21.478504286220453&#10;c -10.971428571428572,20.592000000000002 38.4,12.672 77.11233703715136,30.85824973708431 c 10.568308702377992,-0.0 87.62892774676858,7.920000000000001 74.82892774676858,-6.455401345362215&#10;c -10.971428571428572,-26.02728015628113 0,-33.666725070698845 16.599643681802846,-33.666725070698845&#10;c 25.872299785174476,0 36.84372835660305,32.19691407872229 25.872299785174476,37.43637657103406&#10;c -10.971428571428572,20.592000000000002 38.4,12.672 65.55627164339695,2.6857498450270043 L 1280 0 " fill="none" stroke="black" stroke-width="0.1" style="vector-effect:non-scaling-stroke;" /></g><g><path d="M 0 0  L 0 475.200000  c 52.510298133271235,0.0 91.1308631173585,-7.920000000000001 78.3308631173585,19.923583001726374&#10;c -10.971428571428572,23.150356006004106 0,28.004133960698073 13.097708311212926,28.004133960698073&#10;c 23.709249157349277,0 34.68067772877785,-16.0761652348087 23.709249157349277,-45.392652573897195&#10;c -10.971428571428572,-20.592000000000002 38.4,-12.672 67.71932227122215,-2.5350643885272532 c 12.891474331681186,-0.0 90.83953474016737,7.920000000000001 78.03953474016737,-1.052253435134696&#10;c -10.971428571428572,-30.578350986578393 0,-47.932008219568615 13.389036688404062,-47.932008219568615&#10;c 21.298004459032512,0 32.26943303046109,36.57351489612239 21.298004459032512,37.455784019304694&#10;c -10.971428571428572,20.592000000000002 38.4,12.672 70.13056696953892,11.528477635398616 c 22.88738637526255,0.0 82.39262527873075,-7.920000000000001 69.59262527873075,3.6476027012564027&#10;c -10.971428571428572,29.314182786224407 0,35.059017656245416 21.83594614984068,35.059017656245416&#10;c 25.258140417242686,0 36.22956898867126,-18.81377911510968 25.258140417242686,-27.42816972546441&#10;c -10.971428571428572,-20.592000000000002 38.4,-12.672 66.17043101132874,-11.278450632037408 c 30.378568789061685,0.0 75.19489463890916,-7.920000000000001 62.394894638909165,3.363046828043616&#10;c -10.971428571428572,28.423248840533414 0,50.43949979315369 29.033676789662266,50.43949979315369&#10;c 24.191423660693985,0 35.16285223212256,-9.961266923612808 24.191423660693985,-25.595033877976903&#10;c -10.971428571428572,-20.592000000000002 38.4,-12.672 67.23714776787745,-28.207512743220406 c 46.436072209739166,-0.0 86.24176884344661,7.920000000000001 73.44176884344661,-3.9340205935279644&#10;c -10.971428571428572,-28.52570146316669 0,-48.293253833783496 17.98680258512482,-48.293253833783496&#10;c 17.603231207772012,0 28.574659779200584,8.945345089397058 17.603231207772012,20.98170210873697&#10;c -10.971428571428572,20.592000000000002 38.4,12.672 73.82534022079942,31.245572318574485 c 25.379899604002414,0.0 82.26576391896594,-7.920000000000001 69.46576391896595,-2.5983677611212936&#10;c -10.971428571428572,38.54043807001572 0,46.52778035364331 21.962807509605483,46.52778035364331&#10;c 21.136137229940985,0 32.10756580136956,-33.07752487624268 21.136137229940985,-37.49141760145535&#10;c -10.971428571428572,-20.592000000000002 38.4,-12.672 70.29243419863045,-6.43799499106666 c 37.32705153768535,0.0 82.24034896982084,-7.920000000000001 69.44034896982085,4.884375318511588&#10;c -10.971428571428572,17.182433838695125 0,41.80308420920577 21.988222458750585,41.80308420920577&#10;c 13.262540762661047,0 24.23396933408962,-11.073580179747134 13.262540762661047,-30.623088003906087&#10;c -10.971428571428572,-20.592000000000002 38.4,-12.672 78.16603066591038,-16.06437152381127 L 1280 0 " fill="none" stroke="black" stroke-width="0.1" style="vector-effect:non-scaling-stroke;" /></g><g><path d="M 0 0  L 0 633.600000  c 48.24168354364728,-0.0 77.4771853273767,7.920000000000001 64.6771853273767,-13.751750197017152&#10;c -10.971428571428572,-9.008449352258992 0,-35.51556798765096 26.751386101194726,-35.51556798765096&#10;c 13.08068611958818,0 24.05211469101675,28.84535222899599 13.08068611958818,38.281897518687&#10;c -10.971428571428572,20.592000000000002 38.4,12.672 78.34788530898325,10.98542066598111 c 49.01639664353709,-0.0 77.89177965683407,7.920000000000001 65.09177965683408,-7.365944298957463&#10;c -10.971428571428572,-7.724525464694332 0,-31.71575371344561 26.336791771737353,-31.71575371344561&#10;c 16.12698467279435,0 27.09841324422292,16.748999636605106 16.12698467279435,40.73939676831768&#10;c -10.971428571428572,20.592000000000002 38.4,12.672 75.30158675577708,-1.657698755914609 c 38.482637478473166,0.0 81.83730176342384,-7.920000000000001 69.03730176342384,23.438681255372654&#10;c -10.971428571428572,22.40383248589114 0,28.932973339337504 22.39126966514759,28.932973339337504&#10;c 17.654549061218646,0 28.625977632647217,-6.521544334485452 17.654549061218646,-25.175571223006543&#10;c -10.971428571428572,-20.592000000000002 38.4,-12.672 73.77402236735279,-27.196083371703615 c 27.560695549797064,0.0 76.20694779155417,-7.920000000000001 63.406947791554174,12.623755053605274&#10;c -10.971428571428572,16.71163569391784 0,33.13892995404474 28.021623637017257,33.13892995404474&#10;c 13.102731604451478,0 24.07416017588005,-30.936290872398274 13.102731604451478,-45.29499748811428&#10;c -10.971428571428572,-20.592000000000002 38.4,-12.672 78.32583982411995,-0.46768751953573684 c 37.5511170051648,-0.0 88.02052935082598,7.920000000000001 75.22052935082598,-6.3559759454022915&#10;c -10.971428571428572,-30.302402551706237 0,-40.10543846171462 16.208042077745446,-40.10543846171462&#10;c 25.83937009667494,0 36.810798668103516,20.38047217884959 25.83937009667494,45.3595498248391&#10;c -10.971428571428572,20.592000000000002 38.4,12.672 65.58920133189649,1.1018645822778126 c 20.439396716625374,-0.0 78.3163727377388,7.920000000000001 65.5163727377388,-9.541066490478823&#10;c -10.971428571428572,-23.5138551804623 0,-39.55636834714433 25.912198690832625,-39.55636834714433&#10;c 24.84351714276896,0 35.814945714197535,7.04788545905159 24.84351714276896,30.417264165000507&#10;c -10.971428571428572,20.592000000000002 38.4,12.672 66.58505428580247,18.680170672622648 c 32.38631783998126,0.0 82.56998186542876,-7.920000000000001 69.76998186542876,5.581159921546454&#10;c -10.971428571428572,17.356546093373716 0,46.494457746897346 21.65858956314267,46.494457746897346&#10;c 28.168070214954724,0 39.1394987863833,-38.541098303754836 28.168070214954724,-47.62343338249197&#10;c -10.971428571428572,-20.592000000000002 38.4,-12.672 63.260501213616706,-4.45218428595183 L 1280 0 " fill="none" stroke="black" stroke-width="0.1" style="vector-effect:non-scaling-stroke;" /></g></g></svg>