<svg baseProfile="full" height="848" preserveAspectRatio="none" shape-rendering="geometricPrecision" version="1.1" viewBox="0,0,1280,848" width="1280" xmlns="http://www.w3.org/2000/svg" xmlns:ev="http://www.w3.org/2001/xml-events" xmlns:xlink="http://www.w3.org/1999/xlink"><title>Jigsaw puzzle piece clips</title><desc>Created with the piecemaker. Piece count: 24</desc><defs/><g><g><rect fill="white" height="848" width="1280" x="0" y="0"/></g></g><g><g><path d="M 0 0  L 213.333333 0  c 0.0,41.72129746048609 -10.666666666666668,99.50058137680622 5.638104785296226,84.66058137680622
c 30.314523938618386,-12.719999999999999 50.27654166759879,0 50.27654166759879,21.33941862319378
c 0,17.221702563366676 -11.935230625644651,29.941702563366675 -52.20977928192042,17.221702563366676
c -27.733333333333334,-12.719999999999999 -17.066666666666666,44.519999999999996 -3.7048671709746017,88.77829743663332 c 0.0,57.959062815524035 -10.666666666666668,104.56249062151738 27.57408149234235,89.72249062151738
c 23.752939234695635,-12.719999999999999 38.17458882549894,0 38.17458882549894,16.27750937848262
c 0,16.800531862831832 -12.876451793564033,29.52053186283183 -37.43026475500573,16.800531862831832
c -27.733333333333334,-12.719999999999999 -17.066666666666666,44.519999999999996 -28.318405562835558,89.19946813716817 c 0.0,23.32489917003585 -10.666666666666668,95.01020493683454 35.085881768962736,80.17020493683454
c 22.84163864685103,-12.719999999999999 29.375872786756915,0 29.375872786756915,25.829795063165463
c 0,22.1563300077743 -8.418187386405718,34.8763300077743 -31.766766456323168,22.1563300077743
c -27.733333333333334,-12.719999999999999 -17.066666666666666,44.519999999999996 -32.69498809939648,83.8436699922257 c 0.0,58.326494845103234 -10.666666666666668,95.1611369405528 26.152089275588327,80.32113694055279
c 10.504675385234776,-12.719999999999999 28.8485122253667,0 28.8485122253667,25.67886305944721
c 0,31.340692838123857 -21.355552424449623,44.060692838123856 -34.449755052067395,31.340692838123857
c -27.733333333333334,-12.719999999999999 -17.066666666666666,44.519999999999996 -20.550846448887633,74.65930716187614 L 0 848 " fill="none" stroke="black" stroke-width="0.1" style="vector-effect:non-scaling-stroke;"/></g><g><path d="M 0 0  L 426.666667 0  c -0.0,55.61126660373874 10.666666666666668,97.26345423544086 -39.87832362929708,82.42345423544086
c -12.435836943290663,-12.719999999999999 -24.34219203016034,0 -24.34219203016034,23.576545764559143
c 0,25.500569836613323 9.956019404169611,38.22056983661332 31.030745774385323,25.500569836613323
c 27.733333333333334,-12.719999999999999 17.066666666666666,44.519999999999996 33.189769885072096,80.49943016338668 c 0.0,17.945331919201795 -10.666666666666668,87.2539872698148 23.950322773492154,72.4139872698148
c 20.53128172683788,-12.719999999999999 48.39684715296202,0 48.39684715296202,33.5860127301852
c 0,16.522847750280476 -18.013682812116805,29.242847750280475 -49.154273707400066,16.522847750280476
c -27.733333333333334,-12.719999999999999 -17.066666666666666,44.519999999999996 -23.192896219054106,89.47715224971952 c -0.0,37.51685130028604 10.666666666666668,105.90502049384112 -24.725309137109967,91.06502049384112
c -18.27924640696673,-12.719999999999999 -43.85270317238794,0 -43.85270317238794,14.934979506158882
c 0,25.814219367691123 18.955154739022404,38.53421936769112 56.283277436944466,25.814219367691123
c 27.733333333333334,-12.719999999999999 17.066666666666666,44.519999999999996 12.294734872553441,80.18578063230888 c 0.0,22.962816120357278 -10.666666666666668,93.54739415337642 22.85662731698362,78.70739415337641
c 31.550838858812053,-12.719999999999999 40.628596457923635,0 40.628596457923635,27.292605846623587
c 0,22.077314736491502 -35.73600496662183,34.7973147364915 -51.10887143999111,22.077314736491502
c -27.733333333333334,-12.719999999999999 -17.066666666666666,44.519999999999996 -12.376352334916142,83.9226852635085 L 0 848 " fill="none" stroke="black" stroke-width="0.1" style="vector-effect:non-scaling-stroke;"/></g><g><path d="M 0 0  L 640.000000 0  c 0.0,19.37105450903996 -10.666666666666668,92.61702208185046 12.86421209881292,77.77702208185046
c 20.440750173725025,-12.719999999999999 55.954940052570485,0 55.954940052570485,28.22297791814954
c 0,21.58873709961648 -37.5872325752829,34.30873709961648 -49.75793558551433,21.58873709961648
c -27.733333333333334,-12.719999999999999 -17.066666666666666,44.519999999999996 -19.061216565869074,84.41126290038352 c -0.0,29.715568209382067 10.666666666666668,93.88161074697958 -3.963498332857735,79.04161074697957
c -48.785802751838396,-12.719999999999999 -55.05420907063291,0 -55.05420907063291,26.958389253020428
c 0,24.41391079689248 10.115699311464391,37.13391079689248 27.07810607703799,24.41391079689248
c 27.733333333333334,-12.719999999999999 17.066666666666666,44.519999999999996 31.93960132645265,81.58608920310752 c -0.0,12.525457453026654 10.666666666666668,105.85601053235679 -19.133151191809805,91.01601053235679
c -27.62451080707488,-12.719999999999999 -33.25472846757228,0 -33.25472846757228,14.983989467643212
c 0,16.894166526463422 29.045575237571686,29.61416652646342 42.88698398841624,16.894166526463422
c 27.733333333333334,-12.719999999999999 17.066666666666666,44.519999999999996 9.50089567096584,89.10583347353658 c 0.0,21.559584269249587 -10.666666666666668,98.50640011834498 44.73049102085303,83.66640011834498
c 11.603421987947119,-12.719999999999999 18.44448659942607,0 18.44448659942607,22.33359988165502
c 0,22.779134283587723 -10.71755444703434,35.49913428358772 -20.763176586946678,22.779134283587723
c -27.733333333333334,-12.719999999999999 -17.066666666666666,44.519999999999996 -42.411801033332424,83.22086571641228 L 0 848 " fill="none" stroke="black" stroke-width="0.1" style="vector-effect:non-scaling-stroke;"/></g><g><path d="M 0 0  L 853.333333 0  c -0.0,47.38470340219234 10.666666666666668,100.22426465533074 -20.609891375814527,85.38426465533074
c -20.97073813566059,-12.719999999999999 -32.0675932330072,0 -32.0675932330072,20.61573534466926
c 0,32.8969320259514 16.397821220568243,45.6169320259514 50.68749468579725,32.8969320259514
c 27.733333333333334,-12.719999999999999 17.066666666666666,44.519999999999996 1.9899899230244813,73.1030679740486 c 0.0,18.43980475441495 -10.666666666666668,101.87214523100563 17.339551269258084,87.03214523100563
c 10.202433711964678,-12.719999999999999 45.19086121806967,0 45.19086121806967,18.96785476899437
c 0,16.203186104708934 -8.397970162580771,28.923186104708932 -18.97050011602517,16.203186104708934
c -27.733333333333334,-12.719999999999999 -17.066666666666666,44.519999999999996 -43.55991237130258,89.79681389529107 c -0.0,19.692604366322488 10.666666666666668,94.10360565865469 -1.091671299664525,79.26360565865468
c -48.67104561440007,-12.719999999999999 -68.05429837522081,0 -68.05429837522081,26.736394341345317
c 0,15.257725323928867 14.609511720016505,27.977725323928865 47.07335802823744,15.257725323928867
c 27.733333333333334,-12.719999999999999 17.066666666666666,44.519999999999996 22.072611646647893,90.74227467607113 c -0.0,56.427242653976826 10.666666666666668,90.68158998763613 -25.406193218568514,75.84158998763613
c -18.2391377403866,-12.719999999999999 -25.890472567349892,0 -25.890472567349892,30.158410012363873
c 0,31.527194209392803 7.887275446551903,44.2471942093928 19.877666721276558,31.527194209392803
c 27.733333333333334,-12.719999999999999 17.066666666666666,44.519999999999996 31.41899906464185,74.4728057906072 L 0 848 " fill="none" stroke="black" stroke-width="0.1" style="vector-effect:non-scaling-stroke;"/></g><g><path d="M 0 0  L 1066.666667 0  c -0.0,20.501972568509483 10.666666666666668,103.34070363155985 2.2810721333853374,88.50070363155984
c -60.372831833272414,-12.719999999999999 -68.09662133912049,0 -68.09662133912049,17.499296368440156
c 0,17.675414357743023 20.358329884854157,30.39541435774302 45.08106802296791,17.675414357743023
c 27.733333333333334,-12.719999999999999 17.066666666666666,44.519999999999996 20.73448118276724,88.32458564225698 c -0.0,44.900999427416444 10.666666666666668,87.42098848076404 -39.33909337518985,72.58098848076403
c -8.924705218800295,-12.719999999999999 -27.371163833148643,0 -27.371163833148643,33.419011519235966
c 0,16.527346217344117 26.4887982488035,29.247346217344116 32.2466583939358,16.527346217344117
c 27.733333333333334,-12.719999999999999 17.066666666666666,44.519999999999996 34.46359881440269,89.47265378265588 c 0.0,37.314042803641165 -10.666666666666668,92.68137569546292 30.3911752987383,77.84137569546292
c 19.42851229618281,-12.719999999999999 31.59422984855554,0 31.59422984855554,28.158624304537085
c 0,23.913998450069045 -17.223267944692306,36.63399845006904 -20.459599154489688,23.913998450069045
c -27.733333333333334,-12.719999999999999 -17.066666666666666,44.519999999999996 -41.52580599280415,82.08600154993096 c -0.0,47.109833635148455 10.666666666666668,95.66868814045853 -2.7838491412032247,80.82868814045852
c -35.35365961598434,-12.719999999999999 -53.9063796965403,0 -53.9063796965403,25.171311859541476
c 0,18.08441721321273 36.229667723064196,30.80441721321273 40.74029195989271,18.08441721321273
c 27.733333333333334,-12.719999999999999 17.066666666666666,44.519999999999996 15.949936877850817,87.91558278678727 L 0 848 " fill="none" stroke="black" stroke-width="0.1" style="vector-effect:non-scaling-stroke;"/></g></g><g><g><path d="M 0 0  L 0 212.000000  c 50.611344954350784,-0.0 92.38837610049018,10.600000000000001 77.45504276715684,-36.60258790758451
c -12.8,-12.420914259442656 0,-23.119988069878794 29.21162389950983,-23.119988069878794
c 26.811386402284498,0 39.611386402284495,3.6815110782738683 26.811386402284498,15.535067031737931
c -12.8,27.560000000000002 44.8,16.96 79.85528026438217,44.18750894572537 c 42.0624563810942,-0.0 88.689358205023,10.600000000000001 73.75602487168966,3.026738455903177
c -12.8,-26.717939574595103 0,-72.07079859170884 32.91064179497701,-72.07079859170884
c 21.043254873070225,0 33.84325487307022,23.18234542117912 21.043254873070225,31.487956629095606
c -12.8,27.560000000000002 44.8,16.96 85.62341179359645,37.55610350671006 c 26.39414346549293,0.0 100.2107506451483,-10.600000000000001 85.27741731181496,42.32782664648136
c -12.8,12.933105694988342 0,25.217189880684437 21.389249354851714,25.217189880684437
c 28.47823031391995,0 41.27823031391995,-38.16029018523749 28.47823031391995,-57.21067633785906
c -12.8,-27.560000000000002 44.8,-16.96 78.18843635274672,-10.334340189306737 c 54.00483709928629,-0.0 103.54351010366089,10.600000000000001 88.61017677032756,-18.34922379349241
c -12.8,-13.863788200099311 0,-35.277710865916234 18.056489896339116,-35.277710865916234
c 20.034919534568942,0 32.83491953456894,15.452604379165436 20.034919534568942,25.022157445290958
c -12.8,27.560000000000002 44.8,16.96 86.63174713209773,28.60477721411769 c 35.9688749684214,-0.0 87.8707511937871,10.600000000000001 72.93741786045376,-32.19292620717444
c -12.8,-28.390292694650576 0,-32.36685485855031 33.72924880621291,-32.36685485855031
c 20.337735882950838,0 33.137735882950835,15.201048916458104 20.337735882950838,25.43290382065412
c -12.8,27.560000000000002 44.8,16.96 86.32893078371583,39.12687724507063 c 53.97150969163181,-0.0 87.4766343284795,10.600000000000001 72.54330099514617,-42.56398284374315
c -12.8,-8.742398988006935 0,-11.83857244350311 34.1233656715205,-11.83857244350311
c 15.240950133162443,0 28.040950133162443,6.255454103047808 15.240950133162443,28.32129996142199
c -12.8,27.560000000000002 44.8,16.96 91.42571653350423,26.08125532582427 L 1280 0 " fill="none" stroke="black" stroke-width="0.1" style="vector-effect:non-scaling-stroke;"/></g><g><path d="M 0 0  L 0 424.000000  c 47.41022749522807,0.0 87.54782664742925,-10.600000000000001 72.61449331409591,24.829948885932765
c -12.8,27.63907631658121 0,47.12091211081791 34.05217335257076,47.12091211081791
c 31.252979706618234,0 44.05297970661823,-36.97855926938026 31.252979706618234,-48.33527344304245
c -12.8,-27.560000000000002 44.8,-16.96 75.41368696004844,-23.615587553708224 c 20.93604098137407,0.0 104.59945342344807,-10.600000000000001 89.66612009011473,34.13973959454487
c -12.8,14.881110512767956 0,17.431752883013537 17.00054657655194,17.431752883013537
c 30.65503343415382,0 43.45503343415382,-20.825915209084293 30.65503343415382,-20.97840807119601
c -12.8,-27.560000000000002 44.8,-16.96 76.01163323251285,-30.593084406362397 c 60.719370282310514,0.0 99.46261224876984,-10.600000000000001 84.5292789154365,28.554500028945494
c -12.8,11.463087081971178 0,38.713865785250476 22.137387751230165,38.713865785250476
c 33.90625316096792,0 46.70625316096792,-12.141472459547682 33.90625316096792,-54.382665158542764
c -12.8,-27.560000000000002 44.8,-16.96 72.76041350569875,-12.88570065565321 c 41.39085575423891,-0.0 100.6751649428581,10.600000000000001 85.74183160952477,-2.3808674201093956
c -12.8,-27.356467899137005 0,-50.07589026637314 20.924835057141905,-50.07589026637314
c 18.562859497705475,0 31.362859497705475,7.58051077369703 18.562859497705475,10.654131406300394
c -12.8,27.560000000000002 44.8,16.96 88.1038071689612,41.802626280182146 c 23.125127531464226,-0.0 100.07807855264889,10.600000000000001 85.14474521931555,-38.66358788558255
c -12.8,-15.980199869915609 0,-25.253523042658692 21.52192144735112,-25.253523042658692
c 30.9131688922176,0 43.713168892217595,6.74299782749358 30.9131688922176,17.736668704599737
c -12.8,27.560000000000002 44.8,16.96 75.75349777444907,46.180442223641506 c 49.0118689363209,-0.0 90.58642036753184,10.600000000000001 75.6530870341985,-10.770233112801986
c -12.8,-34.00704892028771 0,-47.534601326877834 31.013579632468165,-47.534601326877834
c 28.70555635654786,0 41.50555635654786,8.118120456452745 28.70555635654786,15.693260444201712
c -12.8,27.560000000000002 44.8,16.96 77.96111031011881,42.61157399547811 L 1280 0 " fill="none" stroke="black" stroke-width="0.1" style="vector-effect:non-scaling-stroke;"/></g><g><path d="M 0 0  L 0 636.000000  c 34.60049680218293,-0.0 98.41320032740455,10.600000000000001 83.47986699407122,-13.659734751066324
c -12.8,-18.017708432425596 0,-55.07336817774467 23.186799672595455,-55.07336817774467
c 19.00472831731146,0 31.80472831731146,17.62601824668548 19.00472831731146,28.009645688033025
c -12.8,27.560000000000002 44.8,16.96 87.66193834935521,40.72345724077797 c 11.858634890296639,0.0 95.0686159579923,-10.600000000000001 80.13528262465896,13.893390217429378
c -12.8,19.53627453561308 0,49.9780432496526 26.531384042007716,49.9780432496526
c 29.304529942915607,0 42.104529942915605,-20.177398596588706 29.304529942915607,-52.462887058875666
c -12.8,-27.560000000000002 44.8,-16.96 77.36213672375106,-11.408546408206313 c 15.361229668388876,0.0 105.53361716771467,-10.600000000000001 90.60028383438133,7.428584414494066
c -12.8,10.178052371365599 0,45.504590928866996 16.066382832285342,45.504590928866996
c 23.06385786177394,0 35.86385786177394,-8.479444317944193 23.06385786177394,-23.411598150172065
c -12.8,-27.560000000000002 44.8,-16.96 83.60280880489273,-29.521577193189 c 57.289669409486926,0.0 97.86052157028577,-10.600000000000001 82.92718823695243,17.055142440022994
c -12.8,32.090533332109445 0,42.72968923985407 23.73947842971424,42.72968923985407
c 28.307213883977923,0 41.10721388397792,-25.483596487713314 28.307213883977923,-44.37425270596849
c -12.8,-27.560000000000002 44.8,-16.96 78.35945278268875,-15.41057897390857 c 39.13686114593552,0.0 97.53528134041075,-10.600000000000001 82.60194800707741,18.635210422108166
c -12.8,49.49103807962159 0,52.41430337978009 24.06471865958926,52.41430337978009
c 32.14398830345634,0 44.94398830345634,-23.8378721606129 32.14398830345634,-34.03264636339878
c -12.8,-27.560000000000002 44.8,-16.96 74.52267836321033,-37.01686743848947 c 42.53419453643723,-0.0 105.0839771768606,10.600000000000001 90.15064384352726,-44.78627443995364
c -12.8,-3.3192671563816507 0,-7.732203001653332 16.51602282313941,-7.732203001653332
c 33.62404627500739,0 46.424046275007385,42.911478024599965 33.62404627500739,47.81938832500462
c -12.8,27.560000000000002 44.8,16.96 73.04262039165928,4.699089116602352 L 1280 0 " fill="none" stroke="black" stroke-width="0.1" style="vector-effect:non-scaling-stroke;"/></g></g></svg>