<svg baseProfile="full" height="1333" preserveAspectRatio="none" shape-rendering="geometricPrecision" version="1.1" viewBox="0,0,2000,1333" width="2000" xmlns="http://www.w3.org/2000/svg" xmlns:ev="http://www.w3.org/2001/xml-events" xmlns:xlink="http://www.w3.org/1999/xlink"><title>Jigsaw puzzle piece clips</title><desc>Created with the piecemaker. Piece count: 48</desc><defs /><g><g><rect fill="white" height="1333" width="2000" x="0" y="0" /></g></g><g><g><path d="M 0 0  L 250.000000 0  c -0.0,52.61890205164208 12.5,108.75986367825381 -23.739333234695927,93.20819701158715&#10;c -45.39576789754019,-13.329999999999998 -53.37846788762268,0 -53.37846788762268,17.875136321746183&#10;c 0,15.944491226560231 30.63361856412155,29.27449122656023 49.30652609290465,15.944491226560231&#10;c 32.5,-13.329999999999998 20.0,46.654999999999994 27.811275029413963,95.1388421067731 c -0.0,59.292390325608835 12.5,96.06767746661129 -5.28759024212718,80.51601079994462&#10;c -48.565093296946436,-13.329999999999998 -62.294780853824335,0 -62.294780853824335,30.567322533388705&#10;c 0,21.232645944635678 43.84931419532778,34.562645944635676 54.02351306086192,21.232645944635678&#10;c 32.5,-13.329999999999998 20.0,46.654999999999994 13.558858035089592,89.85068738869765 c -0.0,18.793955881595963 12.5,100.51507235422017 1.6185052710121095,84.9634056875535&#10;c -49.847113121795104,-13.329999999999998 -79.17877198561976,0 -79.17877198561976,26.119927645779825&#10;c 0,20.92647341853312 38.994204159936714,34.25647341853312 42.5023819367319,20.92647341853312&#10;c 32.5,-13.329999999999998 20.0,46.654999999999994 35.05788477787575,90.15685991480021 c 0.0,30.88800600867174 -12.5,99.33078152204837 0.8119783000838081,83.7791148553817&#10;c 38.836475259597634,-13.329999999999998 81.48978994896049,0 81.48978994896049,27.304218477951622&#10;c 0,27.314955800668898 -25.519311585184973,40.644955800668896 -43.21130909288586,27.314955800668898&#10;c -32.5,-13.329999999999998 -20.0,46.654999999999994 -39.09045915615844,83.76837753266443 c 0.0,11.855004159429756 -12.5,92.99786913865962 24.937621258446953,77.44620247199296&#10;c 27.62996015156859,-13.329999999999998 39.8195590817422,0 39.8195590817422,33.63713086134037&#10;c 0,26.628660658264877 -7.862319538960954,39.958660658264876 -13.262398250954767,26.628660658264877&#10;c -32.5,-13.329999999999998 -20.0,46.654999999999994 -51.494782089234384,84.45467267506845 c 0.0,36.34662902140136 -12.5,107.8453491138918 24.597394162115016,92.29368244722514&#10;c 24.20827393628838,-13.329999999999998 42.22627221013976,0 42.22627221013976,18.78965088610819&#10;c 0,19.616333466049966 -29.499434833716265,32.946333466049964 -35.90544061203718,19.616333466049966&#10;c -32.5,-13.329999999999998 -20.0,46.654999999999994 -30.918225760217595,91.46699986728336 L 0 1333 " fill="none" stroke="black" stroke-width="0.1" style="vector-effect:non-scaling-stroke;" /></g><g><path d="M 0 0  L 500.000000 0  c 0.0,52.73454735937549 -12.5,95.13369060448066 5.872282034772151,79.582023937814&#10;c 58.32473270966216,-13.329999999999998 60.824640911845485,0 60.824640911845485,31.50130939551933&#10;c 0,19.964986615366414 -19.029870091209187,33.29498661536641 -26.36623031537082,19.964986615366414&#10;c -32.5,-13.329999999999998 -20.0,46.654999999999994 -40.33069263124681,91.11834671796692 c 0.0,42.75723553578672 -12.5,101.37993202636225 20.453649684890586,85.82826535969559&#10;c 18.187996581998636,-13.329999999999998 59.94795952117811,0 59.94795952117811,25.255067973637736&#10;c 0,19.565719376567856 -43.0727077854034,32.895719376567854 -54.673480448082984,19.565719376567856&#10;c -32.5,-13.329999999999998 -20.0,46.654999999999994 -25.728128757985715,91.51761395676547 c 0.0,37.531693310278065 -12.5,106.58195676737049 20.85347158126444,91.03029010070382&#10;c 24.0165088948047,-13.329999999999998 56.87171045866698,0 56.87171045866698,20.053043232629506&#10;c 0,33.26358352202287 -27.9391954731592,46.59358352202287 -78.68484349560181,33.26358352202287&#10;c -32.5,-13.329999999999998 -20.0,46.654999999999994 0.9596614556703855,77.81974981131046 c 0.0,48.723549063708084 -12.5,97.35821439212354 7.601899366908956,81.80654772545688&#10;c 40.54199729063495,-13.329999999999998 67.13431535297202,0 67.13431535297202,29.276785607876448&#10;c 0,32.601418935980135 -9.223091039781677,45.93141893598013 -20.888246418628356,32.601418935980135&#10;c -32.5,-13.329999999999998 -20.0,46.654999999999994 -53.84796830125262,78.4819143973532 c 0.0,51.786579951323795 -12.5,108.0779286981793 12.373392681932014,92.52626203151264&#10;c 25.88731056976437,-13.329999999999998 49.769514199834944,0 49.769514199834944,18.557071301820685&#10;c 0,29.843173571323277 -55.26220048512519,43.173173571323275 -66.63171898443089,29.843173571323277&#10;c -32.5,-13.329999999999998 -20.0,46.654999999999994 4.488812102663928,81.24015976201005 c 0.0,20.08390789238187 -12.5,92.43392710631144 27.057901000665293,76.88226043964478&#10;c 28.19202201602482,-13.329999999999998 50.82030897704196,0 50.82030897704196,34.20107289368855&#10;c 0,19.482182244148916 -17.560542091586463,32.812182244148914 -67.68729779749836,19.482182244148916&#10;c -32.5,-13.329999999999998 -20.0,46.654999999999994 -10.190912180208898,91.60115108918441 L 0 1333 " fill="none" stroke="black" stroke-width="0.1" style="vector-effect:non-scaling-stroke;" /></g><g><path d="M 0 0  L 750.000000 0  c -0.0,11.89468607128006 12.5,91.81480829687557 -8.559164369299088,76.2631416302089&#10;c -57.553731692138236,-13.329999999999998 -72.59580111905002,0 -72.59580111905002,34.82019170312442&#10;c 0,18.004539058727815 38.1652645437171,31.334539058727813 39.195977951346215,18.004539058727815&#10;c 32.5,-13.329999999999998 20.0,46.654999999999994 41.95898753700289,93.07879427460551 c -0.0,16.447760544259804 12.5,96.22858913915542 -49.21018713232511,80.67692247248876&#10;c -23.734491163742064,-13.329999999999998 -30.815487497756827,0 -30.815487497756827,30.406410860844574&#10;c 0,31.33443948968001 39.36337435156661,44.66443948968001 43.96954251960953,31.33443948968001&#10;c 32.5,-13.329999999999998 20.0,46.654999999999994 36.056132110472404,79.74889384365332 c 0.0,33.69375158445603 -12.5,92.83134323594582 22.744405936487944,77.27967656927916&#10;c 24.814508070887396,-13.329999999999998 45.62559315492934,0 45.62559315492934,33.80365676405417&#10;c 0,20.646092065672477 -53.0155636770195,33.976092065672475 -56.99703283274657,20.646092065672477&#10;c -32.5,-13.329999999999998 -20.0,46.654999999999994 -11.372966258670715,90.43724126766085 c -0.0,20.84026669096836 12.5,98.07453996370367 2.4262842690929958,82.52287329703701&#10;c -34.02075528433202,-13.329999999999998 -80.24530944254678,0 -80.24530944254678,28.56046003629632&#10;c 0,22.9396311794372 24.572801629831847,36.2696311794372 71.82280529698586,22.9396311794372&#10;c 32.5,-13.329999999999998 20.0,46.654999999999994 5.996219876467919,88.14370215389613 c 0.0,39.318430896789415 -12.5,96.73564424132763 36.68904728809949,81.18397757466097&#10;c 29.640165236341964,-13.329999999999998 39.44954953445722,0 39.44954953445722,29.899355758672357&#10;c 0,31.688932214081277 -15.544870138115765,45.018932214081275 -28.829895140157944,31.688932214081277&#10;c -32.5,-13.329999999999998 -20.0,46.654999999999994 -47.30870168239876,79.39440111925205 c 0.0,57.227801165237096 -12.5,109.18905368716007 27.187282620150977,93.6373870204934&#10;c 42.670531308417075,-13.329999999999998 57.7996697046446,0 57.7996697046446,17.445946312839922&#10;c 0,30.872235362679262 -20.004907919925415,44.20223536267926 -32.61693254035567,30.872235362679262&#10;c -32.5,-13.329999999999998 -20.0,46.654999999999994 -52.37001978443991,80.21109797065407 L 0 1333 " fill="none" stroke="black" stroke-width="0.1" style="vector-effect:non-scaling-stroke;" /></g><g><path d="M 0 0  L 1000.000000 0  c 0.0,63.34717654539131 -12.5,99.37596049708715 17.23003313578255,83.82429383042049&#10;c 12.17508926580199,-13.329999999999998 43.728268252313846,0 43.728268252313846,27.25903950291284&#10;c 0,25.5469409782351 -17.572694347534732,38.8769409782351 -18.570030679241512,25.5469409782351&#10;c -32.5,-13.329999999999998 -20.0,46.654999999999994 -42.38827070885488,85.53639235509823 c -0.0,42.85380373060775 12.5,104.11169590694304 -12.823821486682,88.56002924027638&#10;c -20.980107341600448,-13.329999999999998 -49.03562823689883,0 -49.03562823689883,22.52330409305695&#10;c 0,33.040729619058894 31.82522868825469,46.37072961905889 45.06267992727865,33.040729619058894&#10;c 32.5,-13.329999999999998 20.0,46.654999999999994 16.79676979630218,78.04260371427443 c 0.0,45.05511056225773 -12.5,108.48586751799327 28.16610614333746,92.93420085132661&#10;c 23.926058687946117,-13.329999999999998 44.34355635893833,0 44.34355635893833,18.14913248200672&#10;c 0,33.32210890499063 -25.99294499251518,46.65210890499063 -34.9145639686934,33.32210890499063&#10;c -32.5,-13.329999999999998 -20.0,46.654999999999994 -37.59509853358239,77.7612244283427 c 0.0,48.395732807047125 -12.5,91.77201913551309 41.03918018074789,76.22035246884643&#10;c 20.153804858658848,-13.329999999999998 35.03993123366942,0 35.03993123366942,34.8629808644869&#10;c 0,23.87709868272897 -10.606985392668662,37.20709868272897 -25.270318021652834,23.87709868272897&#10;c -32.5,-13.329999999999998 -20.0,46.654999999999994 -50.80879339276448,87.20623465060436 c -0.0,54.52326924502363 12.5,103.48732230223368 -7.881681047392213,87.93565563556702&#10;c -24.774990228242398,-13.329999999999998 -64.54844083701266,0 -64.54844083701266,23.147677697766312&#10;c 0,17.297537818905354 15.691521998745515,30.627537818905353 25.80621184212388,17.297537818905354&#10;c 32.5,-13.329999999999998 20.0,46.654999999999994 46.623910042281004,93.78579551442797 c -0.0,19.353170990673156 12.5,100.50598941788839 -34.10359186521436,84.95432275122172&#10;c -35.44770369586208,-13.329999999999998 -37.72548820533641,0 -37.72548820533641,26.129010582111604&#10;c 0,22.941632752864408 18.254925107341997,36.271632752864406 24.092280945189373,22.941632752864408&#10;c 32.5,-13.329999999999998 20.0,46.654999999999994 47.7367991253614,88.14170058046892 L 0 1333 " fill="none" stroke="black" stroke-width="0.1" style="vector-effect:non-scaling-stroke;" /></g><g><path d="M 0 0  L 1250.000000 0  c 0.0,20.12840024631631 -12.5,105.50352063467534 48.531076457050425,89.95185396800868&#10;c 7.362214147397514,-13.329999999999998 19.067185736172426,0 19.067185736172426,21.13147936532465&#10;c 0,22.452292403155994 -10.690207975312703,35.78229240315599 -24.47612982938451,22.452292403155994&#10;c -32.5,-13.329999999999998 -20.0,46.654999999999994 -43.12213236383834,88.63104093017733 c 0.0,30.57333671811491 -12.5,101.06426500648169 8.286791894579434,85.51259833981503&#10;c 29.27199577621282,-13.329999999999998 62.13404955752294,0 62.13404955752294,25.5707349935183&#10;c 0,32.04084941113719 -18.269416130709775,45.370849411137186 -37.31827687249787,32.04084941113719&#10;c -32.5,-13.329999999999998 -20.0,46.654999999999994 -33.10256457960451,79.04248392219614 c -0.0,51.539263525099905 12.5,94.88372652764757 3.054660051881626,79.3320598609809&#10;c -30.449629055580573,-13.329999999999998 -78.86914638391315,0 -78.86914638391315,31.751273472352423&#10;c 0,26.062258478341064 19.522371269131813,39.39225847834106 60.34865514548969,26.062258478341064&#10;c 32.5,-13.329999999999998 20.0,46.654999999999994 15.465831186541834,85.02107485499226 c -0.0,37.935932288694396 12.5,98.76894347911954 -37.81555786195531,83.21727681245288&#10;c -30.66863313867896,-13.329999999999998 -31.153516677692878,0 -31.153516677692878,27.86605652088045&#10;c 0,15.881010949067559 30.439172156678975,29.211010949067557 32.27259787366627,15.881010949067559&#10;c 32.5,-13.329999999999998 20.0,46.654999999999994 36.69647666598192,95.20232238426577 c 0.0,34.514977069597585 -12.5,109.88112255842756 1.0495234636164457,94.3294558917609&#10;c 26.762382264471466,-13.329999999999998 67.5342113096027,0 67.5342113096027,16.753877441572428&#10;c 0,16.543670478701756 -14.748361446232165,29.873670478701754 -14.810393891883052,16.543670478701756&#10;c -32.5,-13.329999999999998 -20.0,46.654999999999994 -53.7733408813361,94.53966285463157 c 0.0,40.19869466310078 -12.5,98.60107327601455 40.8479216665546,83.04940660934788&#10;c 15.04261988664337,-13.329999999999998 24.24052259956828,0 24.24052259956828,28.033926723985445&#10;c 0,19.797055763671906 -24.757467335572876,33.127055763671905 -56.656924458454164,19.797055763671906&#10;c -32.5,-13.329999999999998 -20.0,46.654999999999994 -8.431519807668714,91.28627756966142 L 0 1333 " fill="none" stroke="black" stroke-width="0.1" style="vector-effect:non-scaling-stroke;" /></g><g><path d="M 0 0  L 1500.000000 0  c 0.0,23.422833514775384 -12.5,110.5325444242896 5.795395122044161,94.98087775762293&#10;c 40.95717854493172,-13.329999999999998 73.72385604250702,0 73.72385604250702,16.102455575710394&#10;c 0,32.004460704557985 -16.318143389697074,45.33446070455798 -61.18941201620332,32.004460704557985&#10;c -32.5,-13.329999999999998 -20.0,46.654999999999994 -18.329839148347858,79.07887262877534 c -0.0,24.707592325503033 12.5,109.71707737583226 -38.83286304406975,94.1654107091656&#10;c -19.242819701166212,-13.329999999999998 -32.20719947346485,0 -32.20719947346485,16.91792262416773&#10;c 0,32.67288843855606 58.93897217328397,46.002888438556056 63.861840121724406,32.67288843855606&#10;c 32.5,-13.329999999999998 20.0,46.654999999999994 7.178222395810188,78.41044489477727 c -0.0,25.881723695348295 12.5,93.82674599698267 -47.74010616995851,78.275079330316&#10;c -25.38528332338489,-13.329999999999998 -25.24019589225911,0 -25.24019589225911,32.808254003017325&#10;c 0,28.99368226801998 28.377338462985513,42.32368226801998 42.82014974317002,28.99368226801998&#10;c 32.5,-13.329999999999998 20.0,46.654999999999994 30.160152319047597,82.08965106531335 c 0.0,21.517269492633613 -12.5,96.12349946179039 33.30294886550046,80.57183279512373&#10;c 28.812757909882617,-13.329999999999998 40.15011591431419,0 40.15011591431419,30.511500538209603&#10;c 0,22.54694089889817 -20.994862859856834,35.87694089889817 -24.974510545612986,22.54694089889817&#10;c -32.5,-13.329999999999998 -20.0,46.654999999999994 -48.47855423420167,88.53639243443516 c 0.0,32.59432088441568 -12.5,103.44407986462751 34.678591439749425,87.89241319796085&#10;c 11.46249048100296,-13.329999999999998 31.16005842726807,0 31.16005842726807,23.19092013537248&#10;c 0,18.192461772369754 -52.95914553228822,31.522461772369752 -67.01492045519737,18.192461772369754&#10;c -32.5,-13.329999999999998 -20.0,46.654999999999994 1.1762705881798752,92.89087156096357 c 0.0,62.86108767534382 -12.5,96.6816107809937 41.24034484898582,81.12994411432703&#10;c 21.77853687337784,-13.329999999999998 32.91869688295555,0 32.91869688295555,29.953389219006297&#10;c 0,27.944942385960516 -28.99368943324875,41.274942385960514 -38.001924133616455,27.944942385960516&#10;c -32.5,-13.329999999999998 -20.0,46.654999999999994 -36.157117598324916,83.13839094737281 L 0 1333 " fill="none" stroke="black" stroke-width="0.1" style="vector-effect:non-scaling-stroke;" /></g><g><path d="M 0 0  L 1750.000000 0  c 0.0,32.35373840627283 -12.5,107.66727323304332 11.433862206491778,92.11560656637666&#10;c 69.43726838721413,-13.329999999999998 73.5380547323751,0 73.5380547323751,18.967726766956673&#10;c 0,23.57775713950157 -20.37945678665533,36.90775713950157 -68.70009913930377,23.57775713950157&#10;c -32.5,-13.329999999999998 -20.0,46.654999999999994 -16.27181779956311,87.50557619383176 c 0.0,32.28376041922112 -12.5,105.05633732624165 23.425612499070994,89.50467065957498&#10;c 32.65519068636982,-13.329999999999998 36.969825331175606,0 36.969825331175606,21.578662673758345&#10;c 0,25.022485871863253 -26.03343267908799,38.35248587186325 -39.22707804893663,25.022485871863253&#10;c -32.5,-13.329999999999998 -20.0,46.654999999999994 -21.168359781309967,86.06084746147008 c 0.0,40.062729108839 -12.5,91.10402247316166 40.30818197862176,75.552355806495&#10;c 6.722603046282032,-13.329999999999998 31.857081137134216,0 31.857081137134216,35.53097752683833&#10;c 0,35.21417592426933 -16.28802927928683,48.544175924269325 -45.65888454201257,35.21417592426933&#10;c -32.5,-13.329999999999998 -20.0,46.654999999999994 -26.506378573743405,75.869157409064 c -0.0,60.829442566115944 12.5,108.99784616116739 -2.3531698233866423,93.44617949450073&#10;c -42.575820257681066,-13.329999999999998 -63.6616101365369,0 -63.6616101365369,17.637153838832603&#10;c 0,25.22422809491637 64.07635221082246,38.55422809491637 68.9516792596247,25.22422809491637&#10;c 32.5,-13.329999999999998 20.0,46.654999999999994 -2.936899299701153,85.85910523841696 c -0.0,38.75386469243767 12.5,100.57454897454055 0.008363567640457155,85.02288230787389&#10;c -18.24297025396892,-13.329999999999998 -73.16197415764032,0 -73.16197415764032,26.060451025459443&#10;c 0,17.969924032435543 55.45939020322669,31.29992403243554 60.28698273897591,17.969924032435543&#10;c 32.5,-13.329999999999998 20.0,46.654999999999994 12.86662785102395,93.11340930089779 c 0.0,37.815916471551795 -12.5,93.35595380777359 49.952121497413685,77.80428714110693&#10;c 8.90879402369992,-13.329999999999998 19.11180783005844,0 19.11180783005844,33.2790461922264&#10;c 0,29.617121533515885 -14.047317441787866,42.94712153351588 -30.10616114978108,29.617121533515885&#10;c -32.5,-13.329999999999998 -20.0,46.654999999999994 -38.957768177691044,81.46621179981744 L 0 1333 " fill="none" stroke="black" stroke-width="0.1" style="vector-effect:non-scaling-stroke;" /></g></g><g><g><path d="M 0 0  L 0 222.166667  c 44.50613391420892,-0.0 114.3940103293639,11.108333333333334 96.8940103293639,-42.92363394836239&#10;c -15.0,-6.638477178125292 0,-11.358758946141123 28.105989670636106,-11.358758946141123&#10;c 28.09362084148509,0 43.09362084148509,5.474900987267181 28.09362084148509,19.74590416667764&#10;c -15.0,28.881666666666668 52.5,17.773333333333333 96.90637915851491,34.53648872782587 c 52.82326743095332,0.0 112.58521377540926,-11.108333333333334 95.08521377540926,19.377589088974304&#10;c -15.0,10.518135159429985 0,50.01925524885145 29.914786224590742,50.01925524885145&#10;c 30.568895584538268,0 45.56889558453827,-55.333807982945984 30.568895584538268,-61.86917604290934&#10;c -15.0,-28.881666666666668 52.5,-17.773333333333333 94.43110441546173,-7.527668294916417 c 14.271545640036273,-0.0 120.82550641633915,11.108333333333334 103.32550641633915,-25.421021338247407&#10;c -15.0,-27.315671573781913 0,-38.6031575269762 21.674493583660848,-38.6031575269762&#10;c 35.555682327708865,0 50.555682327708865,39.4455219585732 35.555682327708865,58.677875644033385&#10;c -15.0,28.881666666666668 52.5,17.773333333333333 89.44431767229113,5.346303221190219 c 35.24223523279298,0.0 112.06174739757775,-11.108333333333334 94.56174739757775,25.515440615936658&#10;c -15.0,13.920837524438506 0,31.155093700881682 30.438252602422253,31.155093700881682&#10;c 32.01867162904466,0 47.01867162904466,-33.558747867207046 32.01867162904466,-55.15164723342781&#10;c -15.0,-28.881666666666668 52.5,-17.773333333333333 92.98132837095534,-1.5188870833905312 c 20.4869699828988,-0.0 108.4108386532325,11.108333333333334 90.9108386532325,-30.24399822754929&#10;c -15.0,-28.003964731607578 0,-33.423244493233724 34.0891613467675,-33.423244493233724&#10;c 25.57240113752303,0 40.57240113752303,37.6609208179712 25.57240113752303,56.8057202149867&#10;c -15.0,28.881666666666668 52.5,17.773333333333333 99.42759886247697,6.861522505796316 c 60.88008654530616,0.0 117.941216281452,-11.108333333333334 100.441216281452,2.5807725430336603&#10;c -15.0,66.54954761606444 0,72.93573872292093 24.558783718548,72.93573872292093&#10;c 23.44463769457633,0 38.44463769457633,-20.26498320507122 23.44463769457633,-52.32346656592238&#10;c -15.0,-28.881666666666668 52.5,-17.773333333333333 101.55536230542367,-23.19304470003221 c 44.001485022481745,-0.0 105.40130268463402,11.108333333333334 87.90130268463402,-16.385271419167438&#10;c -15.0,-14.820261540657041 0,-47.81488012426044 37.09869731536598,-47.81488012426044&#10;c 27.981797814446224,0 42.981797814446224,10.383075493731376 27.981797814446224,25.722728163961605&#10;c -15.0,28.881666666666668 52.5,17.773333333333333 97.01820218555378,38.47742337946627 c 55.79996267917649,-0.0 107.2723746703133,11.108333333333334 89.7723746703133,-22.843841276472034&#10;c -15.0,-24.300539890620325 0,-44.53626336628932 35.2276253296867,-44.53626336628932&#10;c 36.04401555291909,0 51.04401555291909,25.444014540985272 36.04401555291909,42.186241739190265&#10;c -15.0,28.881666666666668 52.5,17.773333333333333 88.95598444708091,25.193862903571087 L 2000 0 " fill="none" stroke="black" stroke-width="0.1" style="vector-effect:non-scaling-stroke;" /></g><g><path d="M 0 0  L 0 444.333333  c 22.793229233041522,0.0 118.15982254511559,-11.108333333333334 100.65982254511559,13.016023242311233&#10;c -15.0,14.085208209120896 0,44.9109818542847 24.34017745488441,44.9109818542847&#10;c 19.263160366517752,0 34.26316036651775,-5.723295865840267 19.263160366517752,-24.382955674109333&#10;c -15.0,-28.881666666666668 52.5,-17.773333333333333 105.73683963348225,-33.5440494224866 c 54.194306382548035,-0.0 103.89229655259703,11.108333333333334 86.39229655259703,-1.394328508906221&#10;c -15.0,-33.7506227921067 0,-64.50356012315305 38.60770344740297,-64.50356012315305&#10;c 26.682680234567187,0 41.68268023456719,10.808267981392735 26.682680234567187,44.67835007258311&#10;c -15.0,28.881666666666668 52.5,17.773333333333333 98.31731976543281,21.21953855947617 c 17.70548284236571,-0.0 105.00758803842788,11.108333333333334 87.50758803842788,-33.905860184715095&#10;c -15.0,-12.145187004280276 0,-36.753410854396975 37.49241196157212,-36.753410854396975&#10;c 27.98530203140976,0 42.98530203140976,60.66840021896321 27.98530203140976,74.86466953631451&#10;c -15.0,28.881666666666668 52.5,17.773333333333333 97.01469796859024,-4.205398497202438 c 45.919496680135616,0.0 121.82489407696296,-11.108333333333334 104.32489407696296,47.72167975807847&#10;c -15.0,2.892665945322631 0,10.87444749550506 20.675105923037037,10.87444749550506&#10;c 31.605940734394977,0 46.60594073439498,-27.731856497387337 31.605940734394977,-50.543797290597546&#10;c -15.0,-28.881666666666668 52.5,-17.773333333333333 93.39405926560502,-8.052329962985986 c 43.795328818298394,0.0 120.96163450350346,-11.108333333333334 103.46163450350346,0.4692016244534446&#10;c -15.0,21.424437898859512 0,58.677419847377266 21.53836549649654,58.677419847377266&#10;c 37.77993278913908,0 52.77993278913908,-19.61797960621054 37.77993278913908,-33.659924988410545&#10;c -15.0,-28.881666666666668 52.5,-17.773333333333333 87.22006721086092,-25.486696483420168 c 68.53304410693622,-0.0 108.78621743031051,11.108333333333334 91.28621743031051,2.814457179736272&#10;c -15.0,-15.117325274658763 0,-59.15010718106419 33.713782569689485,-59.15010718106419&#10;c 22.78914180741782,0 37.78914180741782,7.336194210410457 22.78914180741782,11.640854789936299&#10;c -15.0,28.881666666666668 52.5,17.773333333333333 102.21085819258218,44.69479521139162 c 53.79503742959683,0.0 123.76969673652881,-11.108333333333334 106.26969673652881,44.092988842708&#10;c -15.0,10.838877965668003 0,11.488078411631413 18.730303263471185,11.488078411631413&#10;c 32.267111226034416,0 47.267111226034416,-19.922540305037177 32.267111226034416,-27.722989241022162&#10;c -15.0,-28.881666666666668 52.5,-17.773333333333333 92.73288877396558,-27.858078013317254 c 21.032463892791466,-0.0 113.43436538513782,11.108333333333334 95.93436538513782,-40.84375439671026&#10;c -15.0,-9.331293049648018 0,-16.25569253045321 29.065634614862176,-16.25569253045321&#10;c 33.56874427799045,0 48.56874427799045,42.708298245382466 33.56874427799045,45.75054783106671&#10;c -15.0,28.881666666666668 52.5,17.773333333333333 91.43125572200955,11.348899096096758 L 2000 0 " fill="none" stroke="black" stroke-width="0.1" style="vector-effect:non-scaling-stroke;" /></g><g><path d="M 0 0  L 0 666.500000  c 70.97296968992094,-0.0 107.0648437739689,11.108333333333334 89.5648437739689,-23.768047410571942&#10;c -15.0,-14.736045512077652 0,-39.86538072454836 35.4351562260311,-39.86538072454836&#10;c 18.26292887309299,0 33.26292887309299,33.55563115001164 18.26292887309299,62.169461725210766&#10;c -15.0,28.881666666666668 52.5,17.773333333333333 106.73707112690701,1.4639664099095313 c 72.22879921903686,0.0 114.12706987317345,-11.108333333333334 96.62706987317345,2.767492390378571&#10;c -15.0,43.71357201686866 0,60.79727761536293 28.372930126826546,60.79727761536293&#10;c 25.578765675300247,0 40.57876567530025,-27.493308184655596 25.578765675300247,-28.393502445958312&#10;c -15.0,-28.881666666666668 52.5,-17.773333333333333 99.42123432469975,-35.17126755978319 c 57.22701387015898,-0.0 124.36471879218357,11.108333333333334 106.86471879218357,3.1319184572077514&#10;c -15.0,-61.01662226954943 0,-72.9065413561549 18.135281207816433,-72.9065413561549&#10;c 25.679597254147183,0 40.67959725414718,39.45471433803899 25.679597254147183,58.98018707757009&#10;c -15.0,28.881666666666668 52.5,17.773333333333333 99.32040274585282,10.794435821377064 c 19.768121734789982,-0.0 104.53511959890052,11.108333333333334 87.03511959890052,-27.47535265519427&#10;c -15.0,-34.68939385042119 0,-43.03772162385391 37.96488040109948,-43.03772162385391&#10;c 38.465920149312495,0 53.465920149312495,24.04243518685175 38.465920149312495,39.69410735521572&#10;c -15.0,28.881666666666668 52.5,17.773333333333333 86.5340798506875,30.818966923832463 c 42.988973332535636,0.0 123.71937837844392,-11.108333333333334 106.21937837844392,6.701583204190139&#10;c -15.0,18.94999132910917 0,59.67291721154768 18.78062162155608,59.67291721154768&#10;c 33.267154887297266,0 48.267154887297266,-26.899486821289212 33.267154887297266,-31.41667465589032&#10;c -15.0,-28.881666666666668 52.5,-17.773333333333333 91.73284511270273,-34.957825759847495 c 34.565095185516455,0.0 119.7059191356586,-11.108333333333334 102.2059191356586,19.33576411251326&#10;c -15.0,50.22663560173729 0,53.839078543699216 22.794080864341396,53.839078543699216&#10;c 33.46070985020509,0 48.46070985020509,-35.322950965290495 33.46070985020509,-36.4180317658993&#10;c -15.0,-28.881666666666668 52.5,-17.773333333333333 91.53929014979491,-36.756810890313176 c 39.842115455096526,-0.0 107.04744598908245,11.108333333333334 89.54744598908245,-39.3411960654589&#10;c -15.0,-11.72161006022325 0,-18.952362030061224 35.45255401091755,-18.952362030061224&#10;c 24.292228727089878,0 39.29222872708988,7.455651659778949 24.292228727089878,26.663714947984342&#10;c -15.0,28.881666666666668 52.5,17.773333333333333 100.70777127291012,31.629843147535784 c 48.542235052135545,0.0 123.71869776075552,-11.108333333333334 106.21869776075552,16.472621664692436&#10;c -15.0,34.03724795536615 0,45.91560451240015 18.781302239244482,45.91560451240015&#10;c 22.05086557109061,0 37.05086557109061,-40.10690736658114 22.05086557109061,-46.052404204898195&#10;c -15.0,-28.881666666666668 52.5,-17.773333333333333 102.94913442890939,-16.335821972194395 L 2000 0 " fill="none" stroke="black" stroke-width="0.1" style="vector-effect:non-scaling-stroke;" /></g><g><path d="M 0 0  L 0 888.666667  c 46.49880154435709,0.0 107.67708754527473,-11.108333333333334 90.17708754527473,-4.134971511796404&#10;c -15.0,42.95503264089338 0,63.174052313329106 34.82291245472527,63.174052313329106&#10;c 18.357361922765023,0 33.35736192276502,-37.381672351958706 18.357361922765023,-42.07205466622267&#10;c -15.0,-28.881666666666668 52.5,-17.773333333333333 106.64263807723498,-16.967026135310036 c 43.22546709614674,-0.0 118.19149724051016,11.108333333333334 100.69149724051016,-32.766477925584326&#10;c -15.0,-24.276645038492457 0,-29.167557755513343 24.30850275948984,-29.167557755513343&#10;c 36.204229893263175,0 51.204229893263175,43.86580407336766 36.204229893263175,47.704145935646174&#10;c -15.0,28.881666666666668 52.5,17.773333333333333 88.79577010673682,14.229889745451494 c 41.84251222830628,0.0 119.9607453216854,-11.108333333333334 102.4607453216854,27.887751009094117&#10;c -15.0,22.668904066243893 0,39.779832627009796 22.539254678314606,39.779832627009796&#10;c 25.4972686269856,0 40.4972686269856,-8.477207239799204 25.4972686269856,-29.201408863673812&#10;c -15.0,-28.881666666666668 52.5,-17.773333333333333 99.5027313730144,-38.4661747724301 c 43.35837818131036,0.0 104.95293981353626,-11.108333333333334 87.45293981353626,19.610895904803574&#10;c -15.0,33.51824369706034 0,50.37542754593984 37.54706018646374,50.37542754593984&#10;c 34.38629295019027,0 49.38629295019027,-27.04336840070022 34.38629295019027,-29.416293154649473&#10;c -15.0,-28.881666666666668 52.5,-17.773333333333333 90.61370704980973,-40.57003029609394 c 40.032099958142766,-0.0 118.17500193632777,11.108333333333334 100.67500193632777,-2.6769513364540405&#10;c -15.0,-25.34847505708243 0,-50.97952213184372 24.324998063672226,-50.97952213184372&#10;c 30.780754508963582,0 45.78075450896358,18.046490253378114 30.780754508963582,47.451391359911554&#10;c -15.0,28.881666666666668 52.5,17.773333333333333 94.21924549103642,6.2050821083862076 c 64.50433863382412,0.0 116.44114355241175,-11.108333333333334 98.94114355241175,3.8036088555819214&#10;c -15.0,44.8381338670069 0,70.02274836607712 26.058856447588255,70.02274836607712&#10;c 29.330305737851745,0 44.330305737851745,-43.81011309535764 29.330305737851745,-44.102287659653385&#10;c -15.0,-28.881666666666668 52.5,-17.773333333333333 95.66969426214825,-29.724069562005667 c 67.54885610744111,0.0 124.78284841546947,-11.108333333333334 107.28284841546947,0.45016052214089225&#10;c -15.0,17.46340343403766 0,65.6056808528936 17.717151584530527,65.6056808528936&#10;c 38.25800446878364,0 53.25800446878364,-33.76046566188539 38.25800446878364,-65.06008292908547&#10;c -15.0,-28.881666666666668 52.5,-17.773333333333333 86.74199553121636,-0.9957584459490221 c 54.63063826086495,0.0 118.7204614365322,-11.108333333333334 101.2204614365322,-0.015095384477515413&#10;c -15.0,22.20927124822937 0,56.001139196681336 23.779538563467796,56.001139196681336&#10;c 37.208192781441426,0 52.208192781441426,-40.92422416820068 37.208192781441426,-59.974558038555905&#10;c -15.0,-28.881666666666668 52.5,-17.773333333333333 87.79180721855857,3.9885142263520876 L 2000 0 " fill="none" stroke="black" stroke-width="0.1" style="vector-effect:non-scaling-stroke;" /></g><g><path d="M 0 0  L 0 1110.833333  c 17.775445362696296,-0.0 105.1587458951414,11.108333333333334 87.6587458951414,-42.343852078343325&#10;c -15.0,-10.861003433479809 0,-27.30092573579359 37.341254104858606,-27.30092573579359&#10;c 21.259828067963696,0 36.259828067963696,12.82019388504118 21.259828067963696,52.494696917999406&#10;c -15.0,28.881666666666668 52.5,17.773333333333333 103.7401719320363,17.15008089613751 c 41.59379328865641,-0.0 116.2512355628466,11.108333333333334 98.7512355628466,-24.16595189704073&#10;c -15.0,-15.275675217162727 0,-42.62676113168283 26.248764437153397,-42.62676113168283&#10;c 21.976595722287357,0 36.97659572228736,31.002371182944266 21.976595722287357,58.50784577411683&#10;c -15.0,28.881666666666668 52.5,17.773333333333333 103.02340427771264,8.284867254606723 c 31.193623613755374,0.0 122.39228944607112,-11.108333333333334 104.89228944607112,39.5433876398853&#10;c -15.0,23.20079199643456 0,24.857111443447756 20.107710553928882,24.857111443447756&#10;c 35.60246250085669,0 50.60246250085669,-25.777421073155004 35.60246250085669,-29.051548865640505&#10;c -15.0,-28.881666666666668 52.5,-17.773333333333333 89.39753749914331,-35.348950217692554 c 16.350268076125847,0.0 109.98075229976372,-11.108333333333334 92.48075229976372,23.663458564770522&#10;c -15.0,19.42848632499361 0,43.0768602630809 32.51924770023628,43.0768602630809&#10;c 38.79801607821304,0 53.79801607821304,-67.5489507390937 38.79801607821304,-69.54625014411938&#10;c -15.0,-28.881666666666668 52.5,-17.773333333333333 86.20198392178696,2.8059313162679587 c 57.5923003671272,-0.0 106.29225206671647,11.108333333333334 88.79225206671647,-9.155173629579721&#10;c -15.0,-32.40713486828683 0,-47.045056662723866 36.20774793328353,-47.045056662723866&#10;c 22.28457019171765,0 37.28457019171765,9.819655910872388 22.28457019171765,17.172352480550856&#10;c -15.0,28.881666666666668 52.5,17.773333333333333 102.71542980828235,39.02787781175273 c 16.916949790956565,0.0 103.45749129987556,-11.108333333333334 85.95749129987556,15.33346755222706&#10;c -15.0,49.20182865107865 0,49.0342661836802 39.04250870012444,49.0342661836802&#10;c 35.28632915400425,0 50.28632915400425,-12.044324087682513 35.28632915400425,-17.449815552733135&#10;c -15.0,-28.881666666666668 52.5,-17.773333333333333 89.71367084599575,-46.91791818317413 c 24.910662209800982,-0.0 106.79341680453912,11.108333333333334 89.29341680453912,-23.22233330630458&#10;c -15.0,-43.321340599952805 0,-51.699860583678685 35.70658319546088,-51.699860583678685&#10;c 31.306296522277563,0 46.30629652227756,25.876842559127248 31.306296522277563,52.79360781459096&#10;c -15.0,28.881666666666668 52.5,17.773333333333333 93.69370347772244,22.1285860753923 c 13.694570094858603,0.0 117.08622362040857,-11.108333333333334 99.58622362040857,5.102348960710191&#10;c -15.0,30.333769707935392 0,64.02397120914802 25.413776379591425,64.02397120914802&#10;c 34.27576832353853,0 49.27576832353853,-47.66313966400343 34.27576832353853,-64.06809337476247&#10;c -15.0,-28.881666666666668 52.5,-17.773333333333333 90.72423167646147,-5.0582267950957345 L 2000 0 " fill="none" stroke="black" stroke-width="0.1" style="vector-effect:non-scaling-stroke;" /></g></g></svg>