<svg baseProfile="full" height="2008" preserveAspectRatio="none" shape-rendering="geometricPrecision" version="1.1" viewBox="0,0,3008,2008" width="3008" xmlns="http://www.w3.org/2000/svg" xmlns:ev="http://www.w3.org/2001/xml-events" xmlns:xlink="http://www.w3.org/1999/xlink"><title>Jigsaw puzzle piece clips</title><desc>Created with the piecemaker. Piece count: 40</desc><defs/><g><g><rect fill="white" height="2008" width="3008" x="0" y="0"/></g></g><g><g><path d="M 0 0  L 376.000000 0  c 0.0,110.08678228642366 -18.8,185.29147490909222 78.41288795986367,157.17947490909222
c 16.656853182615677,-24.096 23.108140235891454,0 23.108140235891454,43.62052509090779
c 0,41.56197410338811 -10.854739661039293,65.65797410338811 -35.43911983275896,41.56197410338811
c -48.88,-24.096 -30.080000000000002,84.336 -66.08190836299616,159.2380258966119 c 0.0,23.20599765178518 -18.8,177.94195414205294 55.46602246129263,149.82995414205294
c 38.4273429462048,-24.096 62.54810518239902,0 62.54810518239902,50.97004585794707
c 0,57.53623908995644 -21.13957854796287,81.63223908995644 -62.41697425780609,57.53623908995644
c -48.88,-24.096 -30.080000000000002,84.336 -55.59715338588556,143.26376091004357 c -0.0,33.34170542646852 18.8,175.96187823612286 -61.971613641083046,147.84987823612286
c -24.21694704354144,-24.096 -31.065991372874443,0 -31.065991372874443,52.95012176387715
c 0,40.10517040004555 18.383932398388737,64.20117040004556 48.69588618432838,40.10517040004555
c 48.88,-24.096 30.080000000000002,84.336 44.34171882962911,160.69482959995446 c -0.0,77.40891911912112 18.8,170.3572822482959 -2.7510586018356196,142.2452822482959
c -23.812048364564077,-24.096 -94.18317577653634,0 -94.18317577653634,58.55471775170412
c 0,54.73919574193735 22.515188929530204,78.83519574193735 27.121382395891715,54.73919574193735
c 48.88,-24.096 30.080000000000002,84.336 69.81285198248025,146.06080425806266 c 0.0,21.69805102276514 -18.8,185.15261088471357 65.48281880827066,157.04061088471357
c 46.013416614587605,-24.096 48.97272166420336,0 48.97272166420336,43.75938911528644
c 0,34.417372937556166 -69.80402548353403,58.51337293755617 -110.57750129152316,34.417372937556166
c -48.88,-24.096 -30.080000000000002,84.336 -3.8780391809508643,166.38262706244385 L 0 2008 " fill="none" stroke="black" stroke-width="0.1" style="vector-effect:non-scaling-stroke;"/></g><g><path d="M 0 0  L 752.000000 0  c 0.0,79.81168003619513 -18.8,188.60254446163552 70.90861796263877,160.49054446163552
c 21.338715933173596,-24.096 42.6861151970643,0 42.6861151970643,40.30945553836449
c 0,49.92735790659435 -20.68454203364422,74.02335790659436 -72.81914639827119,49.92735790659435
c -48.88,-24.096 -30.080000000000002,84.336 -40.77558676143188,150.87264209340566 c 0.0,76.72001004083191 -18.8,181.61300724853788 0.30610663656060155,153.5010072485379
c 41.36147843746434,-24.096 123.06723334075433,0 123.06723334075433,47.29899275146212
c 0,50.32249626378575 -50.52665029351153,74.41849626378576 -127.49079715843646,50.32249626378575
c -48.88,-24.096 -30.080000000000002,84.336 4.117457181121537,150.47750373621426 c -0.0,37.20277726409021 18.8,195.69826781077109 -61.126787726221565,167.5862678107711
c -29.809226165422853,-24.096 -41.808017460855254,0 -41.808017460855254,33.21373218922892
c 0,42.38538922711217 29.53070764550117,66.48138922711217 49.48367259888028,42.38538922711217
c 48.88,-24.096 30.080000000000002,84.336 53.451132588196536,158.41461077288784 c -0.0,89.22566950195555 18.8,198.12251986903124 -62.051037192868,170.01051986903124
c -31.448560061080467,-24.096 -59.602759704778954,0 -59.602759704778954,30.78948013096877
c 0,55.625528829741484 63.569180947943806,79.72152882974149 72.9792562999128,55.625528829741484
c 48.88,-24.096 30.080000000000002,84.336 48.67454059773415,145.17447117025853 c -0.0,98.51954001291875 18.8,164.74601255246245 -56.97999323653072,136.63401255246245
c -62.354957910435814,-24.096 -67.44308758537576,0 -67.44308758537576,64.16598744753756
c 0,59.612359047591156 63.33764924472144,83.70835904759116 120.13515766615623,59.612359047591156
c 48.88,-24.096 30.080000000000002,84.336 4.287923155750249,141.18764095240886 L 0 2008 " fill="none" stroke="black" stroke-width="0.1" style="vector-effect:non-scaling-stroke;"/></g><g><path d="M 0 0  L 1128.000000 0  c -0.0,94.59542838689083 18.8,169.58649786375148 -81.54394916297832,141.47449786375148
c -5.292899936336343,-24.096 -14.041736727157286,0 -14.041736727157286,59.32550213624853
c 0,46.63878956656055 49.521335424547104,70.73478956656055 58.396573403181385,46.63878956656055
c 48.88,-24.096 30.080000000000002,84.336 37.18911248695422,154.16121043343946 c -0.0,56.817633140417726 18.8,195.7733932571999 -7.255241765605709,167.6613932571999
c -95.8472187523332,-24.096 -106.36979087742687,0 -106.36979087742687,33.13860674280011
c 0,58.18784953907942 60.573889074785335,82.28384953907943 97.72842890669929,58.18784953907942
c 48.88,-24.096 30.080000000000002,84.336 15.896603736333276,142.6121504609206 c 0.0,102.74262711209641 -18.8,198.91708445967626 52.48627927695627,170.80508445967627
c 26.4205539983809,-24.096 42.8307477551874,0 42.8307477551874,29.994915540323746
c 0,34.216942157858455 -23.136943578122125,58.31294215785846 -35.172462817477594,34.216942157858455
c -48.88,-24.096 -30.080000000000002,84.336 -60.144564214666076,166.58305784214156 c -0.0,69.52960691666311 18.8,176.68372213123266 -81.81359099365909,148.57172213123266
c -10.037203528138237,-24.096 -13.613906577627134,0 -13.613906577627134,52.22827786876735
c 0,44.239704837455406 75.73388274145367,68.33570483745541 89.90733210862471,44.239704837455406
c 48.88,-24.096 30.080000000000002,84.336 5.5201654626615095,156.5602951625446 c -0.0,41.88685684487917 18.8,188.34127515211247 -19.673951113469425,160.22927515211248
c -34.71639708172815,-24.096 -95.96572449167567,0 -95.96572449167567,40.57072484788753
c 0,34.65916709400091 59.33495288125813,58.75516709400091 74.17795339983329,34.65916709400091
c 48.88,-24.096 30.080000000000002,84.336 41.461722205311816,166.1408329059991 L 0 2008 " fill="none" stroke="black" stroke-width="0.1" style="vector-effect:non-scaling-stroke;"/></g><g><path d="M 0 0  L 1504.000000 0  c -0.0,66.79290942320542 18.8,197.04459011372253 -73.72108259539453,168.93259011372254
c -8.949710333044294,-24.096 -21.330973628994656,0 -21.330973628994656,31.86740988627747
c 0,46.95521623238963 48.53719338117299,71.05121623238963 99.2952980215244,46.95521623238963
c 48.88,-24.096 30.080000000000002,84.336 -4.243241797135212,153.84478376761038 c -0.0,27.814696189036802 18.8,186.11540763306448 -5.858450685941649,158.00340763306448
c -31.578773382603963,-24.096 -96.30090908622391,0 -96.30090908622391,42.79659236693553
c 0,40.15847151926869 59.005665691490556,64.25447151926869 91.50824219836977,40.15847151926869
c 48.88,-24.096 30.080000000000002,84.336 10.651117573795787,160.64152848073132 c -0.0,69.60492708141943 18.8,183.8908626686264 -71.96977314679216,155.7788626686264
c -25.15036232130882,-24.096 -53.39327308416307,0 -53.39327308416307,45.02113733137361
c 0,56.4899328133032 43.355445574500074,80.5859328133032 130.5254135133257,56.4899328133032
c 48.88,-24.096 30.080000000000002,84.336 -5.162367282370468,144.3100671866968 c -0.0,111.60092931046171 18.8,166.79048142036746 -50.06570849078777,138.67848142036746
c -23.35765491784269,-24.096 -42.179432263938494,0 -42.179432263938494,62.12151857963255
c 0,60.66830511590911 23.312109318234977,84.76430511590911 76.33687662569966,60.66830511590911
c 48.88,-24.096 30.080000000000002,84.336 15.908264129026605,140.1316948840909 c 0.0,66.65990147598738 -18.8,200.1867276923437 23.300871629905146,172.0747276923437
c 86.12136854972894,-24.096 100.12139357816582,0 100.12139357816582,28.725272307656297
c 0,39.292658473899394 -47.91022345422705,63.3886584738994 -105.94159865190522,39.292658473899394
c -48.88,-24.096 -30.080000000000002,84.336 -17.480666556165744,161.50734152610062 L 0 2008 " fill="none" stroke="black" stroke-width="0.1" style="vector-effect:non-scaling-stroke;"/></g><g><path d="M 0 0  L 1880.000000 0  c -0.0,114.18457719227166 18.8,171.79570688165128 -38.717632734757515,143.6837068816513
c -82.22380928280889,-24.096 -84.86935063018335,0 -84.86935063018335,57.11629311834872
c 0,58.16848473788491 42.044299459245444,82.26448473788491 119.50448576890827,58.16848473788491
c 48.88,-24.096 30.080000000000002,84.336 4.082497596032596,142.6315152621151 c -0.0,50.38109826533911 18.8,179.58194730816942 -15.705908384844738,151.46994730816942
c -95.21615532815633,-24.096 -103.31255425889582,0 -103.31255425889582,49.33005269183059
c 0,49.51227944120916 44.415389665773084,73.60827944120916 99.15996891479662,49.51227944120916
c 48.88,-24.096 30.080000000000002,84.336 19.858493728943927,151.28772055879085 c -0.0,112.42046525199821 18.8,185.3391467700252 -49.53401676964803,157.2271467700252
c -67.72531572195956,-24.096 -74.4323498238002,0 -74.4323498238002,43.57285322997481
c 0,32.976638005926304 74.07612713847563,57.07263800592631 82.66637623471493,32.976638005926304
c 48.88,-24.096 30.080000000000002,84.336 41.29999035873328,167.8233619940737 c -0.0,46.25626346479379 18.8,195.54714076749568 -23.206224019278757,167.43514076749568
c -63.102056850132946,-24.096 -103.33681871709442,0 -103.33681871709442,33.36485923250433
c 0,50.974853457498 76.2108019912436,75.070853457498 91.75431013995377,50.974853457498
c 48.88,-24.096 30.080000000000002,84.336 34.78873259641939,149.825146542502 c -0.0,21.540707638535192 18.8,192.88511330978622 -78.07915542035354,164.77311330978623
c -32.98487760333483,-24.096 -32.754653495274454,0 -32.754653495274454,36.026886690213786
c 0,36.37778237080542 33.70219950555626,60.473782370805424 83.36959718488663,36.37778237080542
c 48.88,-24.096 30.080000000000002,84.336 27.46421173074137,164.4222176291946 L 0 2008 " fill="none" stroke="black" stroke-width="0.1" style="vector-effect:non-scaling-stroke;"/></g><g><path d="M 0 0  L 2256.000000 0  c -0.0,50.52425946203474 18.8,187.699380172471 -52.73467142749467,159.587380172471
c -31.313066371388,-24.096 -62.157541434132945,0 -62.157541434132945,41.21261982752901
c 0,62.03446318558326 43.79398527887986,86.13046318558327 53.99304567087567,62.03446318558326
c 48.88,-24.096 30.080000000000002,84.336 60.899167190751946,138.76553681441675 c -0.0,77.90611045796884 18.8,175.96906231369476 -80.96730511789455,147.85706231369477
c -6.205944866097632,-24.096 -22.868078464170367,0 -22.868078464170367,52.94293768630524
c 0,32.504549527709145 56.8767058896786,56.60054952770915 71.30220765613556,32.504549527709145
c 48.88,-24.096 30.080000000000002,84.336 32.533175925929356,168.29545047229087 c 0.0,82.6092619895904 -18.8,195.62258493970882 8.275097205561813,167.51058493970882
c 24.703736598073878,-24.096 87.16202438278475,0 87.16202438278475,33.28941506029119
c 0,38.35651733630439 -43.13676936904536,62.452517336304396 -83.65712093559726,38.35651733630439
c -48.88,-24.096 -30.080000000000002,84.336 -11.780000652749308,162.44348266369562 c 0.0,108.46762163121635 -18.8,200.53864600679395 57.5147914630072,172.42664600679396
c 16.684781031294403,-24.096 33.70832519488461,0 33.70832519488461,28.373353993206052
c 0,53.34469996331788 -6.341309242503989,77.44069996331788 -25.33780960552332,53.34469996331788
c -48.88,-24.096 -30.080000000000002,84.336 -65.88530705236849,147.45530003668213 c -0.0,37.49218167052212 18.8,191.46026671431542 -10.246576237470304,163.34826671431543
c -19.399396326654365,-24.096 -83.91900823133584,0 -83.91900823133584,37.45173328568458
c 0,47.76784789848213 30.880099557274317,71.86384789848213 54.482351873819354,47.76784789848213
c 48.88,-24.096 30.080000000000002,84.336 39.68323259498679,153.03215210151788 L 0 2008 " fill="none" stroke="black" stroke-width="0.1" style="vector-effect:non-scaling-stroke;"/></g><g><path d="M 0 0  L 2632.000000 0  c -0.0,63.670158310907865 18.8,171.84286293162677 -47.552527261632854,143.73086293162677
c -18.766703982671608,-24.096 -53.11252348535819,0 -53.11252348535819,57.06913706837324
c 0,50.49149888935301 88.12825371927087,74.58749888935301 100.50494516402766,50.49149888935301
c 48.88,-24.096 30.080000000000002,84.336 0.16010558296338218,150.308501110647 c 0.0,113.05461778830083 -18.8,185.58278386172492 33.86005848488825,157.47078386172493
c 85.77485917947932,-24.096 87.39043013086726,0 87.39043013086726,43.329216138275086
c 0,29.007388162199817 -27.084534952109237,53.10338816219982 -83.961253988918,29.007388162199817
c -48.88,-24.096 -30.080000000000002,84.336 -37.2892346268375,171.7926118378002 c 0.0,94.30373940879392 -18.8,193.63691036291692 55.35007079464583,165.52491036291693
c 30.38802558455096,-24.096 38.46427851584913,0 38.46427851584913,35.275089637083084
c 0,33.81599392135146 -40.08871477875372,57.91199392135147 -69.87541560372075,33.81599392135146
c -48.88,-24.096 -30.080000000000002,84.336 -23.938933706774208,166.98400607864855 c 0.0,22.546892576304305 -18.8,169.18950264487327 69.98894920640231,141.07750264487328
c 54.20352733022218,-24.096 54.51626137110078,0 54.51626137110078,59.722497355126734
c 0,55.59460610218764 -48.466602750191065,79.69060610218764 -78.85964096559672,55.59460610218764
c -48.88,-24.096 -30.080000000000002,84.336 -45.64556961190637,145.20539389781237 c 0.0,99.94438100382034 -18.8,182.1907822368721 38.72082515999482,154.07878223687212
c 65.84241217472197,-24.096 73.249825385725,0 73.249825385725,46.721217763127896
c 0,48.370099891616775 -13.1696262684218,72.46609989161678 -40.012866779308595,48.370099891616775
c -48.88,-24.096 -30.080000000000002,84.336 -71.95778376641123,152.42990010838324 L 0 2008 " fill="none" stroke="black" stroke-width="0.1" style="vector-effect:non-scaling-stroke;"/></g></g><g><g><path d="M 0 0  L 0 401.600000  c 107.12170796317673,-0.0 160.12370365014237,20.080000000000002 133.80370365014238,-31.634584700245938
c -22.56,-68.91242481961476 0,-99.81269588532967 54.19629634985762,-99.81269588532967
c 36.947429188774976,0 59.50742918877498,111.25544106917569 36.947429188774976,114.17986272470692
c -22.56,52.208000000000006 78.96,32.128 151.05257081122502,17.26741786086869 c 61.77820993743936,-0.0 178.12497173071628,20.080000000000002 151.8049717307163,-44.85585716094923
c -22.56,-18.489784321837792 0,-57.81730636405824 36.19502826928371,-57.81730636405824
c 58.51468447150583,0 81.07468447150583,31.512558201522705 58.51468447150583,71.66857016996718
c -22.56,52.208000000000006 78.96,32.128 129.48531552849417,31.004593355040285 c 24.205383875399477,0.0 174.52112128425992,-20.080000000000002 148.20112128425993,15.877520114238433
c -22.56,30.068998718749004 0,100.922738106414 39.798878715740074,100.922738106414
c 54.3767485755333,0 76.9367485755333,-24.67517732748395 54.3767485755333,-86.27845634471612
c -22.56,-52.208000000000006 78.96,-32.128 133.6232514244667,-30.52180187593632 c 75.98001976859697,0.0 173.70369427567277,-20.080000000000002 147.38369427567278,5.363719202724175
c -22.56,90.70282747422169 0,113.7523144755457 40.61630572432722,113.7523144755457
c 44.58255250338971,0 67.14255250338971,-30.687638618860994 44.58255250338971,-36.36490497028478
c -22.56,-52.208000000000006 78.96,-32.128 143.4174474966103,-82.75112870798509 c 97.77494540151551,0.0 161.1193462124626,-20.080000000000002 134.7993462124626,68.11011350353434
c -22.56,36.753868995561625 0,56.97949916589654 53.20065378753739,56.97949916589654
c 44.41267460479776,0 66.97267460479776,-40.16714340998784 44.41267460479776,-109.6983632625722
c -22.56,-52.208000000000006 78.96,-32.128 143.58732539520224,-15.391249406858677 c 80.10878776465567,-0.0 166.5153686126879,20.080000000000002 140.1953686126879,-60.63361377649671
c -22.56,-18.365058238644554 0,-65.82640506975139 47.8046313873121,-65.82640506975139
c 39.024981394284424,0 61.584981394284426,20.771471872171958 39.024981394284424,59.23854385445591
c -22.56,52.208000000000006 78.96,32.128 148.97501860571558,67.22147499179218 c 107.04749629271342,-0.0 163.90012869496468,20.080000000000002 137.58012869496469,-77.8679063858098
c -22.56,-43.642942980390586 0,-54.25656775587147 50.419871305035315,-54.25656775587147
c 34.348889324948914,0 56.908889324948916,57.56624425818726 34.348889324948914,103.7786184144635
c -22.56,52.208000000000006 78.96,32.128 153.6511106750511,28.34585572721778 c 27.427021701660507,-0.0 179.6326540236161,20.080000000000002 153.31265402361612,-84.41569464306268
c -22.56,-13.4020097791822 0,-29.55899613207258 34.68734597638388,-29.55899613207258
c 46.21887289082855,0 68.77887289082855,52.6390908465362 46.21887289082855,94.5957048707237
c -22.56,52.208000000000006 78.96,32.128 141.78112710917145,19.378985904411564 L 3008 0 " fill="none" stroke="black" stroke-width="0.1" style="vector-effect:non-scaling-stroke;"/></g><g><path d="M 0 0  L 0 803.200000  c 55.18333707515094,0.0 182.58817588335322,-20.080000000000002 156.26817588335322,11.334416914170044
c -22.56,32.01499944766388 0,92.3783637805016 31.731824116646777,92.3783637805016
c 43.39379271045348,0 65.95379271045348,-30.719053329817942 43.39379271045348,-97.67969144469288
c -22.56,-52.208000000000006 78.96,-32.128 144.60620728954652,-6.033089249978772 c 44.93060571957252,-0.0 186.09041457815857,20.080000000000002 159.77041457815858,-44.420688790292246
c -22.56,-58.6772647550755 0,-61.83701068259221 28.22958542184142,-61.83701068259221
c 55.281043223620856,0 77.84104322362086,14.10672062003465 55.281043223620856,64.08590985811722
c -22.56,52.208000000000006 78.96,32.128 132.71895677637914,42.171789614767235 c 64.24616125380298,0.0 179.96170517162562,-20.080000000000002 153.64170517162563,6.32130482631852
c -22.56,83.64090661350578 0,90.64355239089348 34.35829482837437,90.64355239089348
c 40.79651200442683,0 63.35651200442683,-74.41904175505923 40.79651200442683,-75.9506274085594
c -22.56,-52.208000000000006 78.96,-32.128 147.20348799557317,-21.0142298086526 c 102.14117121920262,0.0 166.55445838019625,-20.080000000000002 140.23445838019626,34.7872428766879
c -22.56,66.53291060993031 0,96.5120590170226 47.76554161980374,96.5120590170226
c 46.687558188528186,0 69.24755818852819,-39.559423669783 46.687558188528186,-44.59086503086631
c -22.56,-52.208000000000006 78.96,-32.128 141.3124418114718,-86.70843686284418 c 33.68384823469493,-0.0 159.6442897735206,20.080000000000002 133.3242897735206,-61.859933842321034
c -22.56,-40.63445021064378 0,-48.707022286734635 54.675710226479396,-48.707022286734635
c 44.457543128749165,0 67.01754312874917,51.07714571110312 44.457543128749165,68.93779366978556
c -22.56,52.208000000000006 78.96,32.128 143.54245687125083,41.629162459270106 c 108.40645561727936,0.0 187.6769640019545,-20.080000000000002 161.3569640019545,51.7426568309562
c -22.56,42.35946228620698 0,52.37908249558253 26.64303599804549,52.37908249558253
c 30.663288021065995,0 53.223288021066,-83.2047935674839 30.663288021065995,-86.44401455337889
c -22.56,-52.208000000000006 78.96,-32.128 157.336711978934,-17.677724773159838 c 31.67356529616245,0.0 166.70500788156417,-20.080000000000002 140.38500788156418,1.985202574178266
c -22.56,73.87434327419297 0,114.75001002209206 47.61499211843582,114.75001002209206
c 49.83261570422795,0 72.39261570422795,-37.15246840888201 49.83261570422795,-123.34068148139988
c -22.56,-52.208000000000006 78.96,-32.128 138.16738429577205,6.605468885129568 c 35.36187575281659,0.0 158.3621848300084,-20.080000000000002 132.0421848300084,6.17643279716997
c -22.56,33.78874102345643 0,121.11406069424176 55.95781516999159,121.11406069424176
c 32.163598582858356,0 54.72359858285836,-85.69557078845361 32.163598582858356,-95.1924467780023
c -22.56,-52.208000000000006 78.96,-32.128 155.83640141714164,-32.09804671340942 L 3008 0 " fill="none" stroke="black" stroke-width="0.1" style="vector-effect:non-scaling-stroke;"/></g><g><path d="M 0 0  L 0 1204.800000  c 32.6994906171077,-0.0 159.31817603137972,20.080000000000002 132.99817603137973,-41.492773111744434
c -22.56,-61.80217417814159 0,-83.85441331003767 55.00182396862027,-83.85441331003767
c 56.88947053971796,0 79.44947053971796,63.80854027624539 56.88947053971796,92.9019209833285
c -22.56,52.208000000000006 78.96,32.128 131.11052946028204,32.44526543845362 c 46.71048050476656,0.0 167.6163309192007,-20.080000000000002 141.2963309192007,21.538625503374142
c -22.56,71.2088624580784 0,84.77531780844419 46.7036690807993,84.77531780844419
c 47.31119973982723,0 69.87119973982723,-20.96378917527213 47.31119973982723,-41.299480812365374
c -22.56,-52.208000000000006 78.96,-32.128 140.68880026017277,-65.01446249945295 c 56.887360523515014,0.0 173.35713931878678,-20.080000000000002 147.03713931878679,29.145204245189984
c -22.56,39.46164911228492 0,92.40433346467296 40.962860681213215,92.40433346467296
c 59.21877715970757,0 81.77877715970757,-21.650392148727533 59.21877715970757,-98.75881151334636
c -22.56,-52.208000000000006 78.96,-32.128 128.78122284029243,-22.790726196516587 c 82.9497535891343,0.0 187.45635046436507,-20.080000000000002 161.13635046436508,46.55475393587434
c -22.56,44.33679190801888 0,58.102376397109374 26.86364953563492,58.102376397109374
c 54.13387131526352,0 76.69387131526352,-36.12208639238041 54.13387131526352,-98.93533603843645
c -22.56,-52.208000000000006 78.96,-32.128 133.86612868473648,-5.721794294547266 c 79.71030183810198,-0.0 174.03897658177647,20.080000000000002 147.71897658177647,5.165122160615901
c -22.56,-61.6102903722914 0,-139.04450194235906 40.281023418223526,-139.04450194235906
c 57.60046564702418,0 80.16046564702418,107.38833007182413 57.60046564702418,130.92339989134294
c -22.56,52.208000000000006 78.96,32.128 130.39953435297582,2.955979890400215 c 29.299169346057027,0.0 181.42472715257384,-20.080000000000002 155.10472715257384,80.01489994893056
c -22.56,37.153873952365444 0,40.52813445493749 32.895272847426156,40.52813445493749
c 45.364924959189096,0 67.9249249591891,-32.97303420189378 45.364924959189096,-70.66569417156296
c -22.56,-52.208000000000006 78.96,-32.128 142.6350750408109,-49.87734023230509 c 104.96848776224,0.0 174.9810881567793,-20.080000000000002 148.6610881567793,55.79908819261528
c -22.56,18.03201174241489 0,41.334041524915314 39.3389118432207,41.334041524915314
c 44.6062961567614,0 67.1662961567614,-34.84209590113703 44.6062961567614,-91.15449594725875
c -22.56,-52.208000000000006 78.96,-32.128 143.3937038432386,-5.978633770271841 c 37.35154806020933,-0.0 158.31673935807933,20.080000000000002 131.99673935807934,-75.5649309418415
c -22.56,-20.862849590326892 0,-23.08201747686722 56.00326064192066,-23.08201747686722
c 33.31169850180106,0 55.87169850180106,30.417618340625648 33.31169850180106,69.85353199101597
c -22.56,52.208000000000006 78.96,32.128 154.68830149819894,28.793416427692748 L 3008 0 " fill="none" stroke="black" stroke-width="0.1" style="vector-effect:non-scaling-stroke;"/></g><g><path d="M 0 0  L 0 1606.400000  c 50.83863237272528,0.0 179.8129087531354,-20.080000000000002 153.4929087531354,19.58528068545602
c -22.56,22.454604445213665 0,78.3904397730384 34.507091246864604,78.3904397730384
c 50.659535410027104,0 73.2195354100271,-11.641947231769551 50.659535410027104,-34.038946085039214
c -22.56,-52.208000000000006 78.96,-32.128 137.3404645899729,-63.936774373455194 c 37.77934037194463,0.0 174.1435943457712,-20.080000000000002 147.8235943457712,79.1603826425413
c -22.56,10.702770283085632 0,21.373140916491806 40.1764056542288,21.373140916491806
c 27.80884630430836,0 50.36884630430836,-54.1681181821832 27.80884630430836,-104.36492995733792
c -22.56,-52.208000000000006 78.96,-32.128 160.19115369569164,3.8314063983048214 c 78.59200157673187,0.0 169.7191716264524,-20.080000000000002 143.39917162645241,0.19947579763556136
c -22.56,73.42832731758601 0,118.33845657558744 44.600828373547586,118.33845657558744
c 45.98488584011872,0 68.54488584011872,-27.965805054596487 45.98488584011872,-38.4144499809033
c -22.56,-52.208000000000006 78.96,-32.128 142.01511415988128,-80.1234823923197 c 35.526371652292035,0.0 182.24712064890684,-20.080000000000002 155.92712064890685,-1.6417516646207728
c -22.56,82.82698278337186 0,118.87100519793549 32.07287935109315,118.87100519793549
c 28.15262686058182,0 50.71262686058182,-96.75179839107612 28.15262686058182,-108.84006243721414
c -22.56,-52.208000000000006 78.96,-32.128 159.84737313941818,-8.389191096100575 c 106.74915102053941,0.0 171.84773508889947,-20.080000000000002 145.52773508889948,70.55782719883614
c -22.56,31.926888654145834 0,35.70258727309597 42.472264911100524,35.70258727309597
c 33.6435722030038,0 56.2035722030038,-39.43822706713328 33.6435722030038,-103.37220699425654
c -22.56,-52.208000000000006 78.96,-32.128 154.3564277969962,-2.8882074776755644 c 105.73907439426007,0.0 184.64397441860672,-20.080000000000002 158.32397441860672,80.65375072551224
c -22.56,17.045917472020587 0,53.88817915465849 29.676025581393276,53.88817915465849
c 49.32063152555307,0 71.88063152555307,-58.603484789558486 49.32063152555307,-100.03802933642437
c -22.56,-52.208000000000006 78.96,-32.128 138.67936847444693,-34.503900543746354 c 60.4378923998423,-0.0 154.45681134624584,20.080000000000002 128.13681134624585,-33.5937924512636
c -22.56,-46.20560949896206 0,-102.80115483881627 59.86318865375415,-102.80115483881627
c 39.364375489915005,0 61.92437548991501,41.58507409198355 39.364375489915005,109.83656791217314
c -22.56,52.208000000000006 78.96,32.128 148.635624510085,26.558379377906732 c 106.18067632392187,0.0 180.90971670115167,-20.080000000000002 154.58971670115167,56.77717227715091
c -22.56,9.097664094145452 0,40.828913545751334 33.41028329884833,40.828913545751334
c 36.514824752242646,0 59.07482475224265,-17.84554295272387 36.514824752242646,-71.11105679998214
c -22.56,-52.208000000000006 78.96,-32.128 151.48517524775735,-26.495029022920107 L 3008 0 " fill="none" stroke="black" stroke-width="0.1" style="vector-effect:non-scaling-stroke;"/></g></g></svg>