<svg baseProfile="full" height="1667" preserveAspectRatio="none" shape-rendering="geometricPrecision" version="1.1" viewBox="0,0,2500,1667" width="2500" xmlns="http://www.w3.org/2000/svg" xmlns:ev="http://www.w3.org/2001/xml-events" xmlns:xlink="http://www.w3.org/1999/xlink"><title>Jigsaw puzzle piece clips</title><desc>Created with the piecemaker. Piece count: 35</desc><defs/><g><g><rect fill="white" height="1667" width="2500" x="0" y="0"/></g></g><g><g><path d="M 0 0  L 357.142857 0  c -0.0,46.49621935843701 17.857142857142858,139.08170480852135 -60.32331289288046,115.74370480852136
c -29.05465341206665,-20.003999999999998 -47.61561288841427,0 -47.61561288841427,50.95629519147863
c 0,42.92694762541498 76.46366541535828,62.93094762541498 82.32049023786371,42.92694762541498
c 46.42857142857143,-20.003999999999998 28.571428571428573,70.014 25.61843554343102,123.773052374585 c 0.0,68.58318475352988 -17.857142857142858,142.58406481181134 -7.134691895303926,119.24606481181134
c 58.90191822115859,-20.003999999999998 97.28765043033764,0 97.28765043033764,47.45393518818865
c 0,31.187306354199876 -5.4936744023901545,51.191306354199874 -17.24751755781125,31.187306354199876
c -46.42857142857143,-20.003999999999998 -28.571428571428573,70.014 -72.90544097722245,135.5126936458001 c 0.0,59.80166916351663 -17.857142857142858,147.23603532838288 56.69016407661454,123.89803532838287
c 33.35843935468884,-20.003999999999998 50.18470643132131,0 50.18470643132131,42.801964671617114
c 0,44.58273237575389 -85.73140129540737,64.58673237575388 -86.10894019303441,44.58273237575389
c -46.42857142857143,-20.003999999999998 -28.571428571428573,70.014 -20.76593031490144,122.1172676242461 c 0.0,90.9503136449973 -17.857142857142858,158.85716870034378 71.75851108032191,135.51916870034378
c 27.611835578756885,-20.003999999999998 33.06044009582337,0 33.06044009582337,31.180831299656205
c 0,33.73205865541587 -57.98777049108208,53.73605865541587 -59.790301947586414,33.73205865541587
c -46.42857142857143,-20.003999999999998 -28.571428571428573,70.014 -45.02864922855886,132.96794134458412 c -0.0,17.447779041288463 17.857142857142858,150.22318209869917 6.979699842928983,126.88518209869916
c -101.18471251395229,-20.003999999999998 -117.15110194145556,0 -117.15110194145556,39.81481790130083
c 0,40.996214736767854 72.71363338792764,61.00021473676785 101.16860531192499,40.996214736767854
c 46.42857142857143,-20.003999999999998 28.571428571428573,70.014 9.002796786601593,125.70378526323213 L 0 1667 " fill="none" stroke="black" stroke-width="0.1" style="vector-effect:non-scaling-stroke;"/></g><g><path d="M 0 0  L 714.285714 0  c -0.0,84.93658234502455 17.857142857142858,142.40437138706912 -30.72792122124438,119.06637138706913
c -22.990178089301903,-20.003999999999998 -80.59320962347522,0 -80.59320962347522,47.63362861293086
c 0,46.13819557215743 55.58149217163024,66.14219557215742 73.953252560045,46.13819557215743
c 46.42857142857143,-20.003999999999998 28.571428571428573,70.014 37.36787828467459,120.56180442784256 c 0.0,50.56820642118269 -17.857142857142858,156.85589199234946 21.56769366100206,133.51789199234946
c 37.792827155002335,-20.003999999999998 90.77514987093235,0 90.77514987093235,33.18210800765053
c 0,44.39829304767983 -31.906041929221683,64.40229304767982 -93.45552358109927,44.39829304767983
c -46.42857142857143,-20.003999999999998 -28.571428571428573,70.014 -18.88731995083515,122.30170695232016 c 0.0,56.562443969575895 -17.857142857142858,152.07183700420194 30.652543609258743,128.73383700420194
c 35.05837135934194,-20.003999999999998 56.513811424771745,0 56.513811424771745,37.966162995798044
c 0,52.1341257504061 -6.940490329326297,72.13812575040609 -10.359743975919514,52.1341257504061
c -46.42857142857143,-20.003999999999998 -28.571428571428573,70.014 -76.80661105811097,114.56587424959389 c -0.0,47.160752829617905 17.857142857142858,164.38357085089612 -32.25001617338126,141.04557085089613
c -38.878996135550324,-20.003999999999998 -76.88963733043704,0 -76.88963733043704,25.654429149103862
c 0,31.077593586528366 37.906289393560726,51.08159358652836 62.00825413511792,31.077593586528366
c 46.42857142857143,-20.003999999999998 28.571428571428573,70.014 47.13139936870037,135.62240641347162 c 0.0,34.791690183493444 -17.857142857142858,136.6959171812117 31.051163556575013,113.3579171812117
c 66.28518309563516,-20.003999999999998 66.35433953802982,0 66.35433953802982,53.342082818788285
c 0,37.055947401480154 -41.520336179699115,57.05994740148015 -101.44814948740256,37.055947401480154
c -46.42857142857143,-20.003999999999998 -28.571428571428573,70.014 4.042646392797735,129.64405259851983 L 0 1667 " fill="none" stroke="black" stroke-width="0.1" style="vector-effect:non-scaling-stroke;"/></g><g><path d="M 0 0  L 1071.428571 0  c -0.0,68.62079927735306 17.857142857142858,164.4705069680068 -5.140879286683776,141.1325069680068
c -62.905112564732065,-20.003999999999998 -100.37709745538082,0 -100.37709745538082,25.567493031993195
c 0,33.90394430173299 24.689849372276953,53.90794430173299 77.7050005370247,33.90394430173299
c 46.42857142857143,-20.003999999999998 28.571428571428573,70.014 27.812976205039888,132.796055698267 c 0.0,49.23160679373192 -17.857142857142858,157.87056677404104 19.791057172353707,134.53256677404104
c 33.53925317513551,-20.003999999999998 96.3512885991571,0 96.3512885991571,32.167433225958945
c 0,49.11861321585448 -38.99497703726213,69.12261321585447 -111.86584333664281,49.11861321585448
c -46.42857142857143,-20.003999999999998 -28.571428571428573,70.014 -4.276502434867993,117.58138678414551 c 0.0,54.05804229864995 -17.857142857142858,166.45500319036972 -5.096578034236371,143.11700319036973
c 87.8783625579571,-20.003999999999998 120.22391267214212,0 120.22391267214212,23.58299680963026
c 0,26.927625868537064 -46.75664696623373,46.93162586853706 -54.44128846742263,26.927625868537064
c -46.42857142857143,-20.003999999999998 -28.571428571428573,70.014 -60.68604617048312,139.77237413146293 c 0.0,90.7492494310145 -17.857142857142858,159.9039928372695 78.02293521721532,136.5659928372695
c 32.253302048422505,-20.003999999999998 34.05774965643715,0 34.05774965643715,30.134007162730484
c 0,26.443102785622358 -19.16969427405215,46.447102785622356 -65.29249967634149,26.443102785622358
c -46.42857142857143,-20.003999999999998 -28.571428571428573,70.014 -46.78818519731098,140.25689721437763 c -0.0,37.316042400435045 17.857142857142858,141.34566384554867 -15.763502223227794,118.00766384554866
c -64.69170306907417,-20.003999999999998 -79.95944202908244,0 -79.95944202908244,48.692336154451326
c 0,25.918120927735373 20.987994402603334,45.92212092773537 34.77018649615103,25.918120927735373
c 46.42857142857143,-20.003999999999998 28.571428571428573,70.014 60.9527577561592,140.78187907226462 L 0 1667 " fill="none" stroke="black" stroke-width="0.1" style="vector-effect:non-scaling-stroke;"/></g><g><path d="M 0 0  L 1428.571429 0  c 0.0,45.57171374668361 -17.857142857142858,152.09180323300802 18.97329894333239,128.75380323300803
c 40.07604777624039,-20.003999999999998 84.68071134954543,0 84.68071134954543,37.94619676699196
c 0,27.66244838998503 -52.832429628002714,47.66644838998503 -73.60829608763696,27.66244838998503
c -46.42857142857143,-20.003999999999998 -28.571428571428573,70.014 -30.04571420524087,139.03755161001496 c 0.0,35.47458367838412 -17.857142857142858,145.81777534615946 5.322866239732394,122.47977534615946
c 46.74666676842537,-20.003999999999998 81.41404912931486,0 81.41404912931486,44.22022465384053
c 0,51.15133881593249 -45.91119923953281,71.15533881593248 -56.0453813788413,51.15133881593249
c -46.42857142857143,-20.003999999999998 -28.571428571428573,70.014 -30.691533990205954,115.5486611840675 c 0.0,60.01833443858368 -17.857142857142858,143.16974654376133 67.19157463714254,119.83174654376134
c 35.10373468734441,-20.003999999999998 39.021202685632005,0 39.021202685632005,46.86825345623865
c 0,26.55471035107192 -29.631243337322548,46.558710351071916 -87.72815365551911,26.55471035107192
c -46.42857142857143,-20.003999999999998 -28.571428571428573,70.014 -18.484623667255434,140.14528964892807 c -0.0,19.84525496104839 17.857142857142858,163.98940118842515 -33.649309157249874,140.65140118842515
c -79.65997756456937,-20.003999999999998 -80.50948539045645,0 -80.50948539045645,26.048598811574834
c 0,49.6689736973957 40.07200610586209,69.67297369739569 42.91193791961345,49.6689736973957
c 46.42857142857143,-20.003999999999998 28.571428571428573,70.014 71.24685662809287,117.03102630260429 c -0.0,35.91439447276588 17.857142857142858,163.57194586438533 -5.544821542921652,140.23394586438533
c -46.47256900054457,-20.003999999999998 -98.85373724721094,0 -98.85373724721094,26.466054135614655
c 0,34.28683274757853 39.64535016998955,54.29083274757853 74.52487459272277,34.28683274757853
c 46.42857142857143,-20.003999999999998 28.571428571428573,70.014 29.87368419740983,132.41316725242146 L 0 1667 " fill="none" stroke="black" stroke-width="0.1" style="vector-effect:non-scaling-stroke;"/></g><g><path d="M 0 0  L 1785.714286 0  c -0.0,91.19641940005056 17.857142857142858,162.32409754082752 -40.47897372104915,138.98609754082753
c -50.08931581031133,-20.003999999999998 -62.68245163991772,0 -62.68245163991772,27.71390245917246
c 0,46.79821354507857 10.345433815691788,66.80221354507856 33.095782562110244,46.79821354507857
c 46.42857142857143,-20.003999999999998 28.571428571428573,70.014 70.06564279885663,119.90178645492142 c 0.0,59.15957980062845 -17.857142857142858,149.7173621984738 33.5723833908883,126.37936219847381
c 27.70855408831779,-20.003999999999998 52.73162366352191,0 52.73162366352191,40.320637801526175
c 0,31.430525033560087 -45.472110500334715,51.434525033560085 -74.16612680555437,31.430525033560087
c -46.42857142857143,-20.003999999999998 -28.571428571428573,70.014 -12.137880248855836,135.2694749664399 c -0.0,61.86733237177966 17.857142857142858,152.3100548882424 1.3852047879100695,128.9720548882424
c -93.2091755788342,-20.003999999999998 -110.49938820263957,0 -110.49938820263957,37.72794511175758
c 0,30.791071250097787 54.2270494118653,50.795071250097784 69.77856184364535,30.791071250097787
c 46.42857142857143,-20.003999999999998 28.571428571428573,70.014 39.33562157108415,135.9089287499022 c -0.0,74.34501268783868 17.857142857142858,146.05245242152458 -60.383667342736935,122.71445242152458
c -26.28094346256091,-20.003999999999998 -49.73742223013928,0 -49.73742223013928,43.985547578475405
c 0,28.319850683660178 13.504559176892814,48.323850683660176 51.500631400694736,28.319850683660178
c 46.42857142857143,-20.003999999999998 28.571428571428573,70.014 58.62045817218148,138.3801493163398 c -0.0,52.95526602917989 17.857142857142858,157.52628230043908 -45.49558007696926,134.18828230043908
c -48.408155115353814,-20.003999999999998 -57.90244185158879,0 -57.90244185158879,32.511717699560904
c 0,49.73413807576591 17.202859675179706,69.7381380757659 74.9362367015741,49.73413807576591
c 46.42857142857143,-20.003999999999998 28.571428571428573,70.014 28.46178522698395,116.96586192423408 L 0 1667 " fill="none" stroke="black" stroke-width="0.1" style="vector-effect:non-scaling-stroke;"/></g><g><path d="M 0 0  L 2142.857143 0  c 0.0,33.48048007062382 -17.857142857142858,154.4290138497334 54.52902430543007,131.0910138497334
c 20.4813226667583,-20.003999999999998 60.60302554463787,0 60.60302554463787,35.60898615026659
c 0,49.14168976494716 -36.039866469565396,69.14568976494715 -44.59176283740317,49.14168976494716
c -46.42857142857143,-20.003999999999998 -28.571428571428573,70.014 -70.54028701266478,117.55831023505283 c 0.0,81.98583118154879 -17.857142857142858,153.34103515506945 48.68932182200393,130.00303515506945
c 27.5409539404383,-20.003999999999998 60.236552054112536,0 60.236552054112536,36.696964844930534
c 0,52.73097956229975 -53.918159024384344,72.73497956229974 -88.61030878083473,52.73097956229975
c -46.42857142857143,-20.003999999999998 -28.571428571428573,70.014 -20.31556509528174,113.96902043770024 c -0.0,74.6120370305882 17.857142857142858,157.6394667517716 -40.53902930722995,134.3014667517716
c -48.32064434129662,-20.003999999999998 -57.95813335981882,0 -57.95813335981882,32.398533248228375
c 0,41.42265458322436 87.73491320439335,61.426654583224355 95.7740247325923,41.42265458322436
c 46.42857142857143,-20.003999999999998 28.571428571428573,70.014 2.7231379344564743,125.27734541677563 c 0.0,20.333748354208996 -17.857142857142858,139.4360203757686 26.92264197644427,116.09802037576861
c 29.587562264291826,-20.003999999999998 71.13242672636012,0 71.13242672636012,50.601979624231376
c 0,45.057362519543545 -22.66990283575814,65.06136251954354 -22.67684693276169,45.057362519543545
c -46.42857142857143,-20.003999999999998 -28.571428571428573,70.014 -75.3782217700427,121.64263748045644 c -0.0,92.74588319885763 17.857142857142858,158.3806482691569 4.758872686839928,135.0426482691569
c -78.79886529234453,-20.003999999999998 -108.61445645960971,0 -108.61445645960971,31.65735173084309
c 0,37.62338505511167 16.775854437247915,57.62738505511167 34.23643674056247,37.62338505511167
c 46.42857142857143,-20.003999999999998 28.571428571428573,70.014 69.61914703220732,129.07661494488832 L 0 1667 " fill="none" stroke="black" stroke-width="0.1" style="vector-effect:non-scaling-stroke;"/></g></g><g><g><path d="M 0 0  L 0 333.400000  c 24.698001628590536,0.0 168.1137230119531,-16.669999999999998 143.1137230119531,-5.981065087007823
c -21.42857142857143,31.619480373588544 0,103.74698889769628 35.45770555947547,103.74698889769628
c 43.70031010810035,0 65.12888153667178,-13.894197495689994 43.70031010810035,-35.209886126285426
c -21.42857142857143,-43.342 75.0,-26.671999999999997 134.87111846332823,-62.55603768440304 c 36.47140119460204,0.0 171.53268946835846,-16.669999999999998 146.53268946835846,49.689016793646225
c -21.42857142857143,22.183244368745374 0,35.860405106535374 32.03873910307013,35.860405106535374
c 53.79326670956365,0 75.22183813813508,-9.065583365455074 53.79326670956365,-23.78209423633725
c -21.42857142857143,-43.342 75.0,-26.671999999999997 124.77816186186493,-61.76732766384435 c 92.26030685971519,-0.0 174.10012200146488,16.669999999999998 149.10012200146488,-24.278782600703376
c -21.42857142857143,-52.198383643646814 0,-69.90594754546717 29.4713065699637,-69.90594754546717
c 54.34229714309663,0 75.77086857166806,56.57887860026041 54.34229714309663,59.26868209946733
c -21.42857142857143,43.342 75.0,26.671999999999997 124.22913142833195,34.916048046703224 c 78.4531690094319,0.0 153.0194954053386,-16.669999999999998 128.0194954053386,54.640153453096914
c -21.42857142857143,22.93142005836364 0,41.10270253671136 50.55193316608998,41.10270253671136
c 43.93050945655983,0 65.35908088513126,-40.70461071268042 43.93050945655983,-57.6951617663029
c -21.42857142857143,-43.342 75.0,-26.671999999999997 134.64091911486875,-38.047694223505374 c 97.48679731110813,0.0 147.722714534505,-16.669999999999998 122.722714534505,68.74736721142531
c -21.42857142857143,14.359273296093267 0,18.99592293844259 55.84871403692358,18.99592293844259
c 32.45119150814878,0 53.87976293672021,-71.71926593813754 32.45119150814878,-85.55358051967733
c -21.42857142857143,-43.342 75.0,-26.671999999999997 146.1202370632798,-2.1897096301905776 c 32.48694729148493,-0.0 175.69006774782423,16.669999999999998 150.69006774782423,-32.67289153829881
c -21.42857142857143,-37.990978857424835 0,-72.52654902251297 27.881360823604354,-72.52654902251297
c 35.526897180549184,0 56.955468609120615,75.91865101868245 35.526897180549184,98.39719922584122
c -21.42857142857143,43.342 75.0,26.671999999999997 143.0445313908794,6.80224133497056 c 97.41527738127924,-0.0 178.47280769795114,16.669999999999998 153.47280769795114,-66.37881445496669
c -21.42857142857143,-24.88270108200337 0,-37.33369831661959 25.098620873477444,-37.33369831661959
c 29.708890687207912,0 51.13746211577934,16.86907622150977 29.708890687207912,80.15587769835754
c -21.42857142857143,43.342 75.0,26.671999999999997 148.86253788422067,23.556635073228733 L 2500 0 " fill="none" stroke="black" stroke-width="0.1" style="vector-effect:non-scaling-stroke;"/></g><g><path d="M 0 0  L 0 666.800000  c 66.84328401476485,-0.0 176.84582345764412,16.669999999999998 151.84582345764412,-66.18856603193963
c -21.42857142857143,-20.136990921063177 0,-38.608976446709846 26.725605113784468,-38.608976446709846
c 48.23775627957923,0 69.66632770815066,25.215634244664596 48.23775627957923,60.23619963697448
c -21.42857142857143,43.342 75.0,26.671999999999997 130.33367229184935,44.56134284167499 c 70.71735325173329,0.0 175.8771322341929,-16.669999999999998 150.8771322341929,-4.218657386005962
c -21.42857142857143,71.5144529729052 0,107.45339737331878 27.69429633723567,107.45339737331878
c 55.578971870860954,0 77.00754329943238,-110.00635200633481 55.578971870860954,-109.20115426011121
c -21.42857142857143,-43.342 75.0,-26.671999999999997 122.99245670056763,5.966414272798389 c 19.168449488482338,0.0 155.27228163743393,-16.669999999999998 130.27228163743393,-6.630005331486183
c -21.42857142857143,35.59591284800766 0,93.9354652101122 48.29914693399465,93.9354652101122
c 34.09067004993406,0 55.51924147850549,-12.46449573034391 34.09067004993406,-35.157142146988285
c -21.42857142857143,-43.342 75.0,-26.671999999999997 144.48075852149452,-52.148317731637725 c 42.492311780890844,-0.0 160.98008222627485,16.669999999999998 135.98008222627485,-37.54631967588064
c -21.42857142857143,-47.51224304422793 0,-59.222451693086384 42.59134634515374,-59.222451693086384
c 55.67113162005418,0 77.09970304862561,46.721337931805586 55.67113162005418,77.84108227540803
c -21.42857142857143,43.342 75.0,26.671999999999997 122.9002969513744,18.927689093558996 c 90.07223671726099,0.0 174.95785786070226,-16.669999999999998 149.95785786070226,40.62435454389445
c -21.42857142857143,45.901718354485084 0,47.061142534802535 28.61357071072632,47.061142534802535
c 54.401284922598535,0 75.82985635116997,-22.05516913925673 54.401284922598535,-32.7640894289087
c -21.42857142857143,-43.342 75.0,-26.671999999999997 124.17014364883005,-54.921407649788286 c 58.04782426837421,0.0 174.21758197149603,-16.669999999999998 149.21758197149603,70.7359335893101
c -21.42857142857143,37.07570190316658 0,41.84857893953726 29.353846599932552,41.84857893953726
c 34.49682332592607,0 55.9253947544975,-44.69805724091025 34.49682332592607,-44.690860319939176
c -21.42857142857143,-43.342 75.0,-26.671999999999997 144.0746052455025,-67.89365220890818 c 70.87149747271177,-0.0 156.6686571867874,16.669999999999998 131.6686571867874,-1.9744137094007204
c -21.42857142857143,-30.611347222764763 0,-94.45116746955068 46.90277138464117,-94.45116746955068
c 40.30385170558907,0 61.7324231341605,20.05913095508393 40.30385170558907,94.2516568907644
c -21.42857142857143,43.342 75.0,26.671999999999997 138.26757686583952,2.17392428818701 L 2500 0 " fill="none" stroke="black" stroke-width="0.1" style="vector-effect:non-scaling-stroke;"/></g><g><path d="M 0 0  L 0 1000.200000  c 73.93591115069012,0.0 159.7655569694779,-16.669999999999998 134.7655569694779,47.35079140337753
c -21.42857142857143,15.114501344662846 0,40.84612157846141 43.805871601950685,40.84612157846141
c 52.918800989518445,0 74.34737241808988,-18.45124303933846 52.918800989518445,-38.48991765762373
c -21.42857142857143,-43.342 75.0,-26.671999999999997 125.65262758191014,-49.70699532421521 c 38.904630600477574,0.0 151.71227606445,-16.669999999999998 126.71227606445001,22.217986825997695
c -21.42857142857143,59.54111003731024 0,84.9441868701801 51.859152506978575,84.9441868701801
c 27.523429548989355,0 48.952000977560786,-30.36431735130323 27.523429548989355,-50.564940301277424
c -21.42857142857143,-43.342 75.0,-26.671999999999997 151.04799902243923,-56.59723339490038 c 65.22934894118248,0.0 151.4021894659284,-16.669999999999998 126.40218946592837,-1.32145448811965
c -21.42857142857143,52.32898551050598 0,101.07772756264585 52.16923910550021,101.07772756264585
c 50.25802344977686,0 71.68659487834829,-62.23834127218786 50.25802344977686,-95.08271967526606
c -21.42857142857143,-43.342 75.0,-26.671999999999997 128.31340512165173,-4.673553399260129 c 68.01971714587842,0.0 164.6452329051801,-16.669999999999998 139.6452329051801,20.90448355808929
c -21.42857142857143,70.40176113667958 0,77.26857062840969 38.926195666248475,77.26857062840969
c 49.461599072730564,0 70.890170501302,-23.362866888167815 49.461599072730564,-56.212012769289935
c -21.42857142857143,-43.342 75.0,-26.671999999999997 129.10982949869802,-41.96104141720904 c 34.985979521184674,0.0 169.61303998652897,-16.669999999999998 144.61303998652897,39.25817945036233
c -21.42857142857143,35.4982933022035 0,48.91114829063384 33.95838858489961,48.91114829063384
c 40.512738731482784,0 61.941310160054215,-58.873794902545825 40.512738731482784,-80.20208203547642
c -21.42857142857143,-43.342 75.0,-26.671999999999997 138.0586898399458,-7.967245705519744 c 28.739264409656094,-0.0 178.34846246495567,16.669999999999998 153.34846246495567,-46.01414376747973
c -21.42857142857143,-32.771654504287895 0,-47.09132033497357 25.22296610647291,-47.09132033497357
c 31.731109124771535,0 53.159680553342966,28.36547973153878 31.731109124771535,53.55696341144505
c -21.42857142857143,43.342 75.0,26.671999999999997 146.84031944665705,39.54850069100825 c 20.567879615704843,-0.0 161.32834667912906,16.669999999999998 136.32834667912906,-47.73968288089218
c -21.42857142857143,-17.575383810543848 0,-41.033743357658416 42.24308189229953,-41.033743357658416
c 29.662914365367726,0 51.09148579393916,62.06537907482823 29.662914365367726,90.68089550838303
c -21.42857142857143,43.342 75.0,26.671999999999997 148.90851420606086,-1.9074692698324327 L 2500 0 " fill="none" stroke="black" stroke-width="0.1" style="vector-effect:non-scaling-stroke;"/></g><g><path d="M 0 0  L 0 1333.600000  c 24.034937804066626,0.0 163.73295887155004,-16.669999999999998 138.73295887155004,45.00332245705722
c -21.42857142857143,37.90916025075964 0,51.37298485739143 39.838469699878544,51.37298485739143
c 27.056190959030715,0 48.484762387602146,-40.95489290574235 27.056190959030715,-57.08078750703879
c -21.42857142857143,-43.342 75.0,-26.671999999999997 151.51523761239787,-39.29551980740986 c 43.989362490000275,0.0 147.2453568951293,-16.669999999999998 122.24535689512929,6.738808610709326
c -21.42857142857143,83.467372479784 0,96.74619645503086 56.32607167629929,96.74619645503086
c 51.163773397033935,0 72.59234482560537,-23.324407761910837 51.163773397033935,-47.65834452819048
c -21.42857142857143,-43.342 75.0,-26.671999999999997 127.40765517439465,-55.8266605375497 c 47.00455297899072,-0.0 168.76058552286864,16.669999999999998 143.76058552286864,-43.77499956470386
c -21.42857142857143,-17.125121152486308 0,-41.876683419377514 34.810843048559946,-41.876683419377514
c 49.60211878518385,0 71.03069021375528,34.93455401614555 49.60211878518385,44.765428487679486
c -21.42857142857143,43.342 75.0,26.671999999999997 128.96930978624474,40.88625449640189 c 42.04618560686511,-0.0 169.17890526592,16.669999999999998 144.17890526592,-35.671591844098955
c -21.42857142857143,-26.74427928099544 0,-60.63516641103712 34.392523305508576,-60.63516641103712
c 46.46788102675174,0 67.89645245532317,47.38851960077694 46.46788102675174,51.633920617077116
c -21.42857142857143,43.342 75.0,26.671999999999997 132.10354754467684,44.67283763805896 c 38.49784875462297,-0.0 156.25825876639976,16.669999999999998 131.25825876639976,-44.09091675548897
c -21.42857142857143,-27.017193511806212 0,-46.95715613576859 47.31316980502882,-46.95715613576859
c 30.739602818928148,0 52.16817424749958,74.29538272780239 30.739602818928148,93.7848967388984
c -21.42857142857143,43.342 75.0,26.671999999999997 147.83182575250044,-2.736823847640835 c 95.11561722429107,-0.0 168.39351453105294,16.669999999999998 143.39351453105294,-29.27702253534711
c -21.42857142857143,-48.83468492672629 0,-71.9431288551137 35.17791404037564,-71.9431288551137
c 25.015199162633508,0 46.44377059120494,63.69538435162779 25.015199162633508,86.6432448987153
c -21.42857142857143,43.342 75.0,26.671999999999997 153.55622940879508,14.576906491745518 c 41.98153589192438,0.0 163.96275814363443,-16.669999999999998 138.96275814363443,29.008930379460466
c -21.42857142857143,15.861651038645824 0,74.97308298754498 39.60867042779415,74.97308298754498
c 26.994718961711612,0 48.42329039028304,-31.106930252056166 26.994718961711612,-90.8635489249722
c -21.42857142857143,-43.342 75.0,-26.671999999999997 151.57670960971697,-13.118464442033243 L 2500 0 " fill="none" stroke="black" stroke-width="0.1" style="vector-effect:non-scaling-stroke;"/></g></g></svg>