<svg baseProfile="full" height="2176" preserveAspectRatio="none" shape-rendering="geometricPrecision" version="1.1" viewBox="0,0,3264,2176" width="3264" xmlns="http://www.w3.org/2000/svg" xmlns:ev="http://www.w3.org/2001/xml-events" xmlns:xlink="http://www.w3.org/1999/xlink"><title>Jigsaw puzzle piece clips</title><desc>Created with the piecemaker. Piece count: 24</desc><defs/><g><g><rect fill="white" height="2176" width="3264" x="0" y="0"/></g></g><g><g><path d="M 0 0  L 544.000000 0  c -0.0,151.88535926513381 27.200000000000003,243.37724815246972 -54.73189140122105,205.2972481524697
c -90.31092326770926,-32.64 -126.33512667042854,0 -126.33512667042854,66.7027518475303
c 0,65.31915610287848 80.06121224509064,97.95915610287848 150.15151897953174,65.31915610287848
c 70.72,-32.64 43.52,114.24 30.91549909211784,206.68084389712152 c 0.0,132.2884708309342 -27.200000000000003,264.099768819592 88.897426507793,226.01976881959197
c 39.775448215054155,-32.64 43.74804576937464,0 43.74804576937464,45.980231180408026
c 0,57.56835950391417 -62.21957490712751,90.20835950391417 -84.08692028110238,57.56835950391417
c -70.72,-32.64 -43.52,114.24 -48.55855199606526,214.43164049608583 c 0.0,54.859774810441245 -27.200000000000003,234.04913316333696 18.934183890446615,195.96913316333695
c 112.97183437044616,-32.64 115.29565285789964,0 115.29565285789964,76.03086683666305
c 0,72.34473914409841 -58.2895876614004,104.98473914409841 -130.2508074231513,72.34473914409841
c -70.72,-32.64 -43.52,114.24 -3.979029325194972,199.6552608559016 c -0.0,33.561569141984755 27.200000000000003,270.07900200826487 -4.716627575975413,231.99900200826488
c -126.88358456936217,-32.64 -151.56748902324543,0 -151.56748902324543,40.00099799173512
c 0,57.02791813080904 50.511509513716454,89.66791813080904 76.37470987102388,57.02791813080904
c 70.72,-32.64 43.52,114.24 79.90940672819697,214.97208186919096 L 0 2176 " fill="none" stroke="black" stroke-width="0.1" style="vector-effect:non-scaling-stroke;"/></g><g><path d="M 0 0  L 1088.000000 0  c -0.0,27.44804136061084 27.200000000000003,242.58107129484128 -60.43950601203705,204.50107129484127
c -87.79929414383834,-32.64 -89.11023299749866,0 -89.11023299749866,67.49892870515873
c 0,55.231518494487545 67.8926755746994,87.87151849448755 76.06280145532936,55.231518494487545
c 70.72,-32.64 43.52,114.24 73.48693755420634,216.76848150551245 c 0.0,136.03173112404835 -27.200000000000003,251.91578417583332 73.73963133632355,213.8357841758333
c 63.90501473123051,-32.64 81.75081456039811,0 81.75081456039811,58.16421582416669
c 0,49.99233704756091 -24.95164134206151,82.63233704756091 -68.49368380705297,49.99233704756091
c -70.72,-32.64 -43.52,114.24 -86.99676208966869,222.0076629524391 c 0.0,133.5423627594182 -27.200000000000003,271.5720937316661 72.34517710680736,233.49209373166607
c 76.77323295415287,-32.64 109.31580643647082,0 109.31580643647082,38.507906268333926
c 0,49.257413237680794 -133.93503741915035,81.8974132376808 -181.44273974875156,49.257413237680794
c -70.72,-32.64 -43.52,114.24 -0.21824379452661447,222.7425867623192 c 0.0,105.6647163085873 -27.200000000000003,243.9504935785172 51.854677738527855,205.8704935785172
c 114.52679015783524,-32.64 119.01163604419564,0 119.01163604419564,66.1295064214828
c 0,82.0469989850614 -33.946880408118076,114.68699898506141 -124.16280260329091,82.0469989850614
c -70.72,-32.64 -43.52,114.24 -46.70351117943258,189.9530010149386 L 0 2176 " fill="none" stroke="black" stroke-width="0.1" style="vector-effect:non-scaling-stroke;"/></g><g><path d="M 0 0  L 1632.000000 0  c 0.0,95.11168963971743 -27.200000000000003,241.60602705075124 37.48039427353648,203.52602705075122
c 82.21971270746931,-32.64 104.01735456782853,0 104.01735456782853,68.47397294924878
c 0,43.813869076680874 -112.02920569500436,76.45386907668087 -117.78980396824109,43.813869076680874
c -70.72,-32.64 -43.52,114.24 -23.707944873123935,228.18613092331913 c 0.0,117.53719855603268 -27.200000000000003,230.8701376524435 68.3199983465993,192.7901376524435
c 69.70624066075784,-32.64 87.03050088454083,0 87.03050088454083,79.20986234755651
c 0,74.75272053483314 -44.141093140754684,107.39272053483315 -112.82761694518274,74.75272053483314
c -70.72,-32.64 -43.52,114.24 -42.522882285957394,197.24727946516686 c -0.0,103.78330421175433 27.200000000000003,246.3515924689335 -47.5320255879117,208.27159246893348
c -39.84744576068223,-32.64 -97.79819619846936,0 -97.79819619846936,63.72840753106652
c 0,73.91935811213466 88.97254699581077,106.55935811213466 124.44028987146156,73.91935811213466
c 70.72,-32.64 43.52,114.24 20.8899319149195,198.08064188786534 c -0.0,40.763446736630264 27.200000000000003,250.02178616152477 -110.12620040061547,211.94178616152476
c -15.213767550668768,-32.64 -61.39598590797142,0 -61.39598590797142,60.05821383847524
c 0,39.743289020872226 90.20456975595704,72.38328902087223 94.27618198452662,39.743289020872226
c 70.72,-32.64 43.52,114.24 77.24600432406028,232.25671097912777 L 0 2176 " fill="none" stroke="black" stroke-width="0.1" style="vector-effect:non-scaling-stroke;"/></g><g><path d="M 0 0  L 2176.000000 0  c -0.0,74.70902475395647 27.200000000000003,256.9993451041404 -113.41670113270325,218.9193451041404
c -22.952906842462816,-32.64 -24.893905834311056,0 -24.893905834311056,53.080654895859595
c 0,52.6434279104497 19.265175705545754,85.2834279104497 26.986214384594206,52.6434279104497
c 70.72,-32.64 43.52,114.24 111.3243925824201,219.3565720895503 c -0.0,73.4531037687686 27.200000000000003,243.34709423387991 -18.729003902940878,205.2670942338799
c -62.27435992526165,-32.64 -137.89862407168928,0 -137.89862407168928,66.7329057661201
c 0,38.28291376444287 37.64917328059594,70.92291376444287 45.31215887768208,38.28291376444287
c 70.72,-32.64 43.52,114.24 111.31546909694809,233.71708623555713 c -0.0,107.21056753489216 27.200000000000003,267.57362187162704 -68.66330609001068,229.49362187162706
c -26.598457985382794,-32.64 -84.58480678498867,0 -84.58480678498867,42.506378128372944
c 0,64.72027874604089 42.05135612559302,97.36027874604089 86.39207400589525,64.72027874604089
c 70.72,-32.64 43.52,114.24 66.8560388691041,207.2797212539591 c -0.0,47.62789649144617 27.200000000000003,267.58953113304443 -117.48944735919811,229.50953113304445
c -9.00337508033728,-32.64 -22.763843117719418,0 -22.763843117719418,42.49046886695555
c 0,56.43255193275371 37.3228109651745,89.07255193275371 61.971422857639894,56.43255193275371
c 70.72,-32.64 43.52,114.24 78.28186761927763,215.5674480672463 L 0 2176 " fill="none" stroke="black" stroke-width="0.1" style="vector-effect:non-scaling-stroke;"/></g><g><path d="M 0 0  L 2720.000000 0  c -0.0,135.01105073577313 27.200000000000003,263.7689723930896 10.08481592271568,225.6889723930896
c -85.8540033380606,-32.64 -179.67962194231978,0 -179.67962194231978,46.311027606910386
c 0,69.69703894522536 148.63801365337693,102.33703894522536 157.60539995282573,69.69703894522536
c 70.72,-32.64 43.52,114.24 11.989406066778372,202.30296105477464 c -0.0,58.04285623295098 27.200000000000003,244.79549118495981 -18.339317663465827,206.7154911849598
c -53.98678280298071,-32.64 -118.39454676547041,0 -118.39454676547041,65.2845088150402
c 0,45.0011867395167 97.77191702999444,77.6411867395167 146.88175573042795,45.0011867395167
c 70.72,-32.64 43.52,114.24 -10.147891301491711,226.9988132604833 c -0.0,141.36129296598682 27.200000000000003,232.97821510911908 -10.6113314482482,194.89821510911906
c -92.86365595649556,-32.64 -132.5503460205932,0 -132.5503460205932,77.10178489088094
c 0,45.80473730338656 122.1403832322395,78.44473730338656 130.92939964413807,45.80473730338656
c 70.72,-32.64 43.52,114.24 12.232277824703317,226.19526269661344 c 0.0,153.4908867888778 -27.200000000000003,266.9487645152168 23.192982662226353,228.8687645152168
c 56.360932452184194,-32.64 145.06792640236984,0 145.06792640236984,43.13123548478319
c 0,63.093185597949116 -70.04672794610131,95.73318559794912 -136.41693505326378,63.093185597949116
c -70.72,-32.64 -43.52,114.24 -31.843974011332392,208.90681440205088 L 0 2176 " fill="none" stroke="black" stroke-width="0.1" style="vector-effect:non-scaling-stroke;"/></g></g><g><g><path d="M 0 0  L 0 544.000000  c 79.35167151595233,-0.0 224.84333602013655,27.200000000000003 186.76333602013653,-81.80228042998804
c -32.64,-35.6464941191273 0,-53.831940009929625 85.23666397986347,-53.831940009929625
c 56.60115608320757,0 89.24115608320757,11.440799065324706 56.60115608320757,17.58307696361115
c -32.64,70.72 114.24,43.52 215.39884391679243,118.05114347630652 c 101.9142868310116,0.0 234.23001356955808,-27.200000000000003 196.15001356955807,-5.240437122124073
c -32.64,48.17758981627153 0,177.3826092916702 75.84998643044193,177.3826092916702
c 45.919604757976,0 78.559604757976,-139.6505045248888 45.919604757976,-171.78599893932804
c -32.64,-70.72 114.24,-43.52 226.080395242024,-0.3561732302181042 c 67.80088224453772,-0.0 225.58379199245002,27.200000000000003 187.50379199245,-84.56503826279268
c -32.64,-30.33946433160486 0,-97.10030132837812 84.49620800755,-97.10030132837812
c 42.90729594189844,0 75.54729594189844,55.370085896349046 42.90729594189844,119.4154080026593
c -32.64,70.72 114.24,43.52 229.09270405810156,62.2499315885115 c 75.98575497453204,0.0 239.8111259209554,-27.200000000000003 201.73112592095538,9.95209957918851
c -32.64,114.87381197540907 0,127.86087947393267 70.26887407904462,127.86087947393267
c 46.117262412037974,0 78.75726241203797,-28.03111466327665 46.117262412037974,-130.28749712701986
c -32.64,-70.72 114.24,-43.52 225.88273758796203,-7.525481926101321 c 107.92349713937485,0.0 224.94471011384107,-27.200000000000003 186.86471011384106,99.28702338781297
c -32.64,28.66163069153522 0,44.465171418056016 85.13528988615894,44.465171418056016
c 73.70767228292675,0 106.34767228292675,-74.80897919177181 73.70767228292675,-107.04756718481998
c -32.64,-70.72 114.24,-43.52 198.29232771707325,-36.704627621049 c 152.7807376279247,-0.0 257.81069254283426,27.200000000000003 219.73069254283428,-56.193679624887714
c -32.64,-32.51522528110006 0,-89.78029456098221 52.26930745716572,-89.78029456098221
c 75.68710168906142,0 108.32710168906142,30.784767797833368 75.68710168906142,65.69318562607224
c -32.64,70.72 114.24,43.52 196.31289831093858,80.2807885597977 L 3264 0 " fill="none" stroke="black" stroke-width="0.1" style="vector-effect:non-scaling-stroke;"/></g><g><path d="M 0 0  L 0 1088.000000  c 144.19124169037713,-0.0 241.17755341078896,27.200000000000003 203.09755341078895,-30.459293251526542
c -32.64,-77.90581902319093 0,-137.6008977209237 68.90244658921105,-137.6008977209237
c 84.27710109891052,0 116.91710109891052,75.35940305270127 84.27710109891052,170.64555214596217
c -32.64,70.72 114.24,43.52 187.72289890108948,-2.5853611735119273 c 135.8346104778786,0.0 260.4967382280733,-27.200000000000003 222.41673822807329,113.79130772628572
c -32.64,18.93240066609916 0,20.3643808665543 49.583261771926715,20.3643808665543
c 79.89838132505736,0 112.53838132505736,-48.80886285035796 79.89838132505736,-52.42955082410906
c -32.64,-70.72 114.24,-43.52 192.10161867494264,-81.72613776873096 c 71.0177027662204,0.0 271.8928174211375,-27.200000000000003 233.8128174211375,67.37023904575292
c -32.64,59.73892833665562 0,66.26640429496547 38.18718257886249,66.26640429496547
c 67.15054028182186,0 99.79054028182186,-26.538433844388663 67.15054028182186,-32.94971972767783
c -32.64,-70.72 114.24,-43.52 204.84945971817814,-100.68692361304056 c 153.19658227776327,0.0 258.69351697751614,-27.200000000000003 220.61351697751616,68.65448873428136
c -32.64,51.19689427047878 0,84.21052774522042 51.386483022483844,84.21052774522042
c 55.9227930703002,0 88.5627930703002,-86.69481848336112 55.9227930703002,-162.6068957244746
c -32.64,-70.72 114.24,-43.52 216.0772069296998,9.741879244972836 c 32.26887516298454,0.0 226.70654151034728,-27.200000000000003 188.62654151034727,27.58724546334936
c -32.64,35.87160630848238 0,132.12694367011244 83.37345848965273,132.12694367011244
c 83.40136908035362,0 116.04136908035362,-77.57650592823221 83.40136908035362,-134.00996195568794
c -32.64,-70.72 114.24,-43.52 188.59863091964638,-25.704227177773845 c 59.918651186350864,-0.0 240.48742356471195,27.200000000000003 202.40742356471193,-36.330153250338746
c -32.64,-90.20469806041862 0,-99.45939748143621 69.59257643528807,-99.45939748143621
c 63.22670380115301,0 95.86670380115301,124.68585270888529 63.22670380115301,133.31727237467928
c -32.64,70.72 114.24,43.52 208.773296198847,2.472278357095689 L 3264 0 " fill="none" stroke="black" stroke-width="0.1" style="vector-effect:non-scaling-stroke;"/></g><g><path d="M 0 0  L 0 1632.000000  c 46.48466108861716,-0.0 248.75617888558918,27.200000000000003 210.67617888558917,-84.97926746593734
c -32.64,-69.9961916514026 0,-93.71377613624091 61.32382111441083,-93.71377613624091
c 51.23085905818323,0 83.87085905818323,64.87714693071437 51.23085905818323,163.03306036133534
c -32.64,70.72 114.24,43.52 220.76914094181677,15.659983240842905 c 86.96583284208083,-0.0 265.25721326215563,27.200000000000003 227.17721326215562,-62.97567505756953
c -32.64,-55.38623613231043 0,-117.40228836577887 44.82278673784438,-117.40228836577887
c 62.46143197706931,0 95.10143197706931,49.183482055191085 62.46143197706931,108.22755640413598
c -32.64,70.72 114.24,43.52 209.5385680229307,72.15040701921242 c 122.62588790732559,-0.0 271.12033994653297,27.200000000000003 233.04033994653298,-70.44564422321294
c -32.64,-53.38073259873217 0,-78.6550335795314 38.95966005346702,-78.6550335795314
c 65.22146309791043,0 97.86146309791043,59.698717960860286 65.22146309791043,157.73812058776332
c -32.64,70.72 114.24,43.52 206.77853690208957,-8.637442785018976 c 113.19421936148846,-0.0 247.74094002300592,27.200000000000003 209.6609400230059,-14.255453975330726
c -32.64,-65.15222816681437 0,-168.0869297893327 62.33905997699409,-168.0869297893327
c 68.92519122427461,0 101.56519122427461,105.3505759635928 68.92519122427461,159.83270908413797
c -32.64,70.72 114.24,43.52 203.0748087757254,22.50967468052545 c 122.2278483368352,-0.0 243.02724359895606,27.200000000000003 204.94724359895605,-71.34975985249845
c -32.64,-31.846746584449345 0,-74.29443749425381 67.05275640104395,-74.29443749425381
c 63.37714467311116,0 96.01714467311116,11.080500642807946 63.37714467311116,27.142250986302443
c -32.64,70.72 114.24,43.52 208.62285532688884,118.50194636044982 c 136.75095453439974,-0.0 231.49564001479342,27.200000000000003 193.4156400147934,-86.82973746713462
c -32.64,-25.55040903992096 0,-50.442860335004625 78.58435998520659,-50.442860335004625
c 55.2097489645775,0 87.8497489645775,129.62771617819095 55.2097489645775,142.89031420951048
c -32.64,70.72 114.24,43.52 216.7902510354225,-5.617716407371233 L 3264 0 " fill="none" stroke="black" stroke-width="0.1" style="vector-effect:non-scaling-stroke;"/></g></g></svg>