<svg baseProfile="full" height="4899" preserveAspectRatio="none" shape-rendering="geometricPrecision" version="1.1" viewBox="0,0,3887,4899" width="3887" xmlns="http://www.w3.org/2000/svg" xmlns:ev="http://www.w3.org/2001/xml-events" xmlns:xlink="http://www.w3.org/1999/xlink"><title>Jigsaw puzzle piece clips</title><desc>Created with the piecemaker. Piece count: 35</desc><defs /><g><g><rect fill="white" height="4899" width="3887" x="0" y="0" /></g></g><g><g><path d="M 0 0  L 777.400000 0  c -0.0,150.93462192434745 38.870000000000005,341.85668705155166 -28.091659087196575,292.86668705155165&#10;c -201.13412677286294,-41.99142857142857 -199.20741959267917,0 -199.20741959267917,57.061884377019794&#10;c 0,79.36060406193258 193.33947711041804,121.35203263336115 232.8111239084808,79.36060406193258&#10;c 101.062,-41.99142857142857 62.192,146.97 -5.5120452286050465,270.56796736663887 c 0.0,156.2898972085416 -38.870000000000005,323.5581356774644 54.12369837868121,274.5681356774644&#10;c 48.51065671024193,-41.99142857142857 200.22905100015757,0 200.22905100015757,75.36043575110705&#10;c 0,75.70406279847555 -122.55554611959701,117.69549136990412 -187.15603432887144,75.70406279847555&#10;c -101.062,-41.99142857142857 -62.192,146.97 -67.19671504996734,274.2245086300959 c 0.0,138.72933772675574 -38.870000000000005,287.9998624939278 97.47687763003097,239.00986249392784&#10;c 121.06194396194769,-41.99142857142857 144.30942495818465,0 144.30942495818465,110.9187089346436&#10;c 0,65.80472862610611 -44.424834169795204,107.79615719753468 -91.80190026830346,65.80472862610611&#10;c -101.062,-41.99142857142857 -62.192,146.97 -149.98440231991216,284.12384280246533 c 0.0,174.1479728466101 -38.870000000000005,322.6895392950203 2.228636001109005,273.6995392950203&#10;c 151.32572801339487,-41.99142857142857 190.1579953525936,0 190.1579953525936,76.22903213355113&#10;c 0,76.71645917718138 -56.09807704206133,118.70788774860995 -62.65063825033047,76.71645917718138&#10;c -101.062,-41.99142857142857 -62.192,146.97 -129.73599310337212,273.21211225139007 c 0.0,90.09433111165468 -38.870000000000005,342.2713434339683 127.29936699454322,293.2813434339683&#10;c 90.03266424952392,-41.99142857142857 91.85046371139401,0 91.85046371139401,56.647227994603156&#10;c 0,88.10797285507192 -67.95298500422889,130.0994014265005 -78.69089792551569,88.10797285507192&#10;c -101.062,-41.99142857142857 -62.192,146.97 -140.45893278042155,261.8205985734995 c 0.0,96.44167011104084 -38.870000000000005,339.0080932987231 91.02114108619695,290.0180932987231&#10;c 87.78441454999218,-41.99142857142857 143.25163387201206,0 143.25163387201206,59.91047812984834&#10;c 0,99.7269004669979 -107.7727245736284,141.71832903842648 -126.18759403477087,99.7269004669979&#10;c -101.062,-41.99142857142857 -62.192,146.97 -108.08518092343816,250.20167096157354 c -0.0,193.08596090011164 38.870000000000005,308.6419254427935 -122.6260005869298,259.65192544279347&#10;c -79.3670739297402,-41.99142857142857 -111.75194305152313,0 -111.75194305152313,90.27664598577798&#10;c 0,58.22839475604178 33.164867020640095,100.21982332747035 148.6044734295147,58.22839475604178&#10;c 101.062,-41.99142857142857 62.192,146.97 85.77347020893822,291.70017667252966 L 0 4899 " fill="none" stroke="black" stroke-width="0.1" style="vector-effect:non-scaling-stroke;" /></g><g><path d="M 0 0  L 1554.800000 0  c -0.0,99.0407012266183 38.870000000000005,304.98392809462507 -65.70109115420264,255.99392809462506&#10;c -65.86791375271171,-41.99142857142857 -173.26532860755583,0 -173.26532860755583,93.93464333394638&#10;c 0,69.99858957262859 79.53118828025191,111.99001814405716 93.23280469013142,69.99858957262859&#10;c 101.062,-41.99142857142857 62.192,146.97 145.73361507162704,279.92998185594286 c 0.0,62.75651886583803 -38.870000000000005,322.0409267189982 1.1087659668854182,273.0509267189982&#10;c 131.1008619046737,-41.99142857142857 245.91402142987502,0 245.91402142987502,76.87764470957325&#10;c 0,67.3636096215024 -188.80008309978146,109.35503819293098 -203.7522826144742,67.3636096215024&#10;c -101.062,-41.99142857142857 -62.192,146.97 -43.270504782286224,282.56496180706904 c 0.0,143.3720877285641 -38.870000000000005,307.3101191236461 33.4741140179267,258.32011912364607&#10;c 180.00596534338334,-41.99142857142857 207.17741313711642,0 207.17741313711642,91.60845230492538&#10;c 0,91.37451341585529 -70.73640568104182,133.36594198728386 -201.8389212614822,91.37451341585529&#10;c -101.062,-41.99142857142857 -62.192,146.97 -38.812605893560914,258.55405801271615 c -0.0,113.17564525278658 38.870000000000005,292.15707419942305 -63.26174687172229,243.167074199423&#10;c -135.49174350588348,-41.99142857142857 -136.55678691388565,0 -136.55678691388565,106.76149722914843&#10;c 0,63.185612200697335 42.332387583762596,105.1770407721259 94.21980462049903,63.185612200697335&#10;c 101.062,-41.99142857142857 62.192,146.97 105.5987291651089,286.7429592278741 c 0.0,128.92033182887567 -38.870000000000005,306.21727647987905 12.788160148411857,257.22727647987904&#10;c 186.83159191150472,-41.99142857142857 224.18848474746855,0 224.18848474746855,92.70129494869241&#10;c 0,49.633230458043386 -20.35765411545306,91.62465902947196 -93.01140444836412,49.633230458043386&#10;c -101.062,-41.99142857142857 -62.192,146.97 -143.9652404475163,300.29534097052806 c -0.0,199.25897674304434 38.870000000000005,287.2168486344276 -61.05117878317127,238.22684863442763&#10;c -111.63773945551813,-41.99142857142857 -165.491665782445,0 -165.491665782445,111.70172279414382&#10;c 0,73.97805776880887 134.1173420603168,115.96948634023744 232.95042243098058,73.97805776880887&#10;c 101.062,-41.99142857142857 62.192,146.97 -6.4075778653642885,275.9505136597626 c 0.0,143.48659513011012 -38.870000000000005,307.88735225999125 98.20893019843082,258.89735225999124&#10;c 59.86121371060917,-41.99142857142857 94.01079449466017,0 94.01079449466017,91.03121916858021&#10;c 0,78.04392196545422 -11.183039720262038,120.03535053688279 -30.605208900706515,78.04392196545422&#10;c -101.062,-41.99142857142857 -62.192,146.97 -161.61451579238448,271.8846494631172 L 0 4899 " fill="none" stroke="black" stroke-width="0.1" style="vector-effect:non-scaling-stroke;" /></g><g><path d="M 0 0  L 2332.200000 0  c 0.0,38.80048064513605 -38.870000000000005,321.8546363770019 54.78101292129965,272.8646363770019&#10;c 42.714835411759395,-41.99142857142857 189.12655401598659,0 189.12655401598659,77.06393505156956&#10;c 0,49.98906806812772 -157.44549213478467,91.98049663955629 -233.74705826301923,49.98906806812772&#10;c -101.062,-41.99142857142857 -62.192,146.97 -10.160508674266993,299.9395033604437 c -0.0,128.91271833114965 38.870000000000005,303.19848833677736 -49.02589910011873,254.20848833677738&#10;c -122.8082254464451,-41.99142857142857 -196.18724946800808,0 -196.18724946800808,95.72008309179407&#10;c 0,107.41123343325182 143.62323720902194,149.4026620046804 179.3249635094798,107.41123343325182&#10;c 101.062,-41.99142857142857 62.192,146.97 65.888185058647,242.51733799531962 c -0.0,85.02678752478425 38.870000000000005,343.21578744776394 -4.066347527460878,294.22578744776393&#10;c -59.94816657017451,-41.99142857142857 -233.31077341358528,0 -233.31077341358528,55.70278398080751&#10;c 0,95.77741331470446 78.91895275159912,137.76884188613303 200.92227047529894,95.77741331470446&#10;c 101.062,-41.99142857142857 62.192,146.97 36.45485046574723,254.15115811386698 c -0.0,146.31096512928534 38.870000000000005,324.65344511407045 2.685962220872767,275.66344511407044&#10;c -83.1904309007524,-41.99142857142857 -229.46448968595956,0 -229.46448968595956,74.265126314501&#10;c 0,95.14509859882963 70.16186920080763,137.1365271702582 118.10657810558962,95.14509859882963&#10;c 101.062,-41.99142857142857 62.192,146.97 108.67194935949718,254.7834728297418 c -0.0,121.69403539570546 38.870000000000005,287.5854706834939 -165.86103390860416,238.59547068349386&#10;c -51.69022855430396,-41.99142857142857 -56.89429151396885,0 -56.89429151396885,111.33310074507759&#10;c 0,57.292229483702954 151.80978331380837,99.28365805513153 193.0067665086,57.292229483702954&#10;c 101.062,-41.99142857142857 62.192,146.97 29.748558913973,292.6363419448685 c -0.0,177.95042528501284 38.870000000000005,347.9596931407385 -23.800329880531734,298.9696931407385&#10;c -204.41786541182805,-41.99142857142857 -222.64156202210822,0 -222.64156202210822,50.95887828783293&#10;c 0,105.0917178931262 110.97822885480987,147.08314646455477 185.14079852225933,105.0917178931262&#10;c 101.062,-41.99142857142857 62.192,146.97 61.30109338038062,244.83685353544524 c -0.0,73.40063509488661 38.870000000000005,300.5767561410786 -149.3388095219645,251.58675614107858&#10;c -97.34596422730392,-41.99142857142857 -99.63942345454794,0 -99.63942345454794,98.34181528749286&#10;c 0,71.16950755456088 180.91732101955,113.16093612598945 228.05234413297478,71.16950755456088&#10;c 101.062,-41.99142857142857 62.192,146.97 20.92588884353765,278.75906387401056 L 0 4899 " fill="none" stroke="black" stroke-width="0.1" style="vector-effect:non-scaling-stroke;" /></g><g><path d="M 0 0  L 3109.600000 0  c 0.0,142.91546466621077 -38.870000000000005,316.0831185730589 124.34565924915314,267.0931185730589&#10;c 107.59380628140786,-41.99142857142857 106.94836683743468,0 106.94836683743468,82.83545285551253&#10;c 0,53.28470825994742 -137.00169208254806,95.276136831376 -225.56267122747536,53.28470825994742&#10;c -101.062,-41.99142857142857 -62.192,146.97 -5.731354859112457,296.643863168624 c 0.0,35.21200795066344 -38.870000000000005,298.6619789600047 99.06007410183778,249.6719789600047&#10;c 65.84675178265717,-41.99142857142857 130.17419216854134,0 130.17419216854134,100.25659246856674&#10;c 0,90.88507850717343 -115.04680126920897,132.876507078602 -224.69432288348327,90.88507850717343&#10;c -101.062,-41.99142857142857 -62.192,146.97 -4.539943386895857,259.043492921398 c -0.0,107.33646374925299 38.870000000000005,287.3095713699675 -101.00014587620869,238.3195713699675&#10;c -44.726242760958016,-41.99142857142857 -89.24952299217462,0 -89.24952299217462,111.60900005860395&#10;c 0,101.58148257552608 81.65091768962806,143.57291114695465 90.32944475186378,101.58148257552608&#10;c 101.062,-41.99142857142857 62.192,146.97 99.92022411651953,248.34708885304536 c -0.0,127.42668285369723 38.870000000000005,345.7647171622627 -72.76335130838845,296.7747171622627&#10;c -66.02308826383494,-41.99142857142857 -148.46562614951696,0 -148.46562614951696,53.15385426630877&#10;c 0,99.76247519887852 140.15637799367767,141.7539037703071 163.78363073097603,99.76247519887852&#10;c 101.062,-41.99142857142857 62.192,146.97 57.44534672692939,250.16609622969293 c -0.0,182.9139927661229 38.870000000000005,322.3692516272076 -159.25784152967637,273.37925162720757&#10;c -65.62750488167742,-41.99142857142857 -92.25014803864005,0 -92.25014803864005,76.54931980136388&#10;c 0,98.44760591963069 32.85572602236237,140.43903449105926 89.90657501953905,98.44760591963069&#10;c 101.062,-41.99142857142857 62.192,146.97 161.60141454877737,251.48096550894076 c 0.0,148.26942668146438 -38.870000000000005,325.29692737350456 45.41868386207174,276.30692737350455&#10;c 143.06965464482892,-41.99142857142857 172.33532457366354,0 172.33532457366354,73.6216440550669&#10;c 0,50.73362927337553 -163.69934426592886,92.7250578448041 -207.286459654535,50.73362927337553&#10;c -101.062,-41.99142857142857 -62.192,146.97 -10.467548781200264,299.1949421551959 c -0.0,37.63392330672165 38.870000000000005,315.2799424399703 -114.22876196574867,266.2899424399703&#10;c -74.63876374033619,-41.99142857142857 -142.78187302512725,0 -142.78187302512725,83.63862898860117&#10;c 0,83.0803051936582 34.1281097107256,125.07173376508678 92.84869807002869,83.0803051936582&#10;c 101.062,-41.99142857142857 62.192,146.97 164.16193692084724,266.84826623491324 L 0 4899 " fill="none" stroke="black" stroke-width="0.1" style="vector-effect:non-scaling-stroke;" /></g></g><g><g><path d="M 0 0  L 0 699.857143  c 144.6360202807273,-0.0 339.4614641807736,34.99285714285715 285.0434641807736,-63.10135643846876&#10;c -46.644,-107.90429956386274 0,-167.85304627304652 103.6565358192264,-167.85304627304652&#10;c 70.32491765645676,0 116.96891765645677,132.6859838936389 70.32491765645676,182.34511342256107&#10;c -46.644,90.98142857142858 163.254,55.98857142857143 318.3750823435432,48.609289288954216 c 211.5237330402979,-0.0 375.1528985912221,34.99285714285715 320.7348985912221,-122.49296148429117&#10;c -46.644,-84.72766330690425 0,-84.87063819686169 67.96510140877791,-84.87063819686169&#10;c 88.8706259187374,0 135.5146259187374,108.90571703804662 88.8706259187374,131.39440124416947&#10;c -46.644,90.98142857142858 163.254,55.98857142857143 299.8293740812626,75.96919843698339 c 73.94582930931833,0.0 357.4950611409713,-34.99285714285715 303.0770611409713,122.79097931869723&#10;c -46.644,76.88264947443732 0,80.19827429879521 85.6229388590287,80.19827429879521&#10;c 122.88704688370899,0 169.531046883709,-93.89806687372123 122.88704688370899,-131.39371849518085&#10;c -46.644,-90.98142857142858 163.254,-55.98857142857143 265.812953116291,-71.59553512231159 c 112.81671314197528,-0.0 363.56956069027035,34.99285714285715 309.15156069027034,-151.25445184758397&#10;c -46.644,-38.584280588888966 0,-55.43227697539237 79.54843930972964,-55.43227697539237&#10;c 60.26505318527825,0 106.90905318527825,62.605689032801806 60.26505318527825,70.21618756577365&#10;c -46.644,90.98142857142858 163.254,55.98857142857143 328.43494681472174,136.47054125720268 c 136.62116021715033,-0.0 320.7755245589251,34.99285714285715 266.3575245589251,5.052291359075215&#10;c -46.644,-53.56754523351429 0,-226.43260857307843 122.3424754410749,-226.43260857307843&#10;c 119.6208859520903,0 166.2648859520903,82.15516068824564 119.6208859520903,172.34036380068108&#10;c -46.644,90.98142857142858 163.254,55.98857142857143 269.0791140479097,49.03995341332214 L 3887 0 " fill="none" stroke="black" stroke-width="0.1" style="vector-effect:non-scaling-stroke;" /></g><g><path d="M 0 0  L 0 1399.714286  c 44.372496025455014,0.0 337.6387102866377,-34.99285714285715 283.2207102866377,34.61002490393198&#10;c -46.644,73.39366141185596 0,143.87192322183256 105.47928971336228,143.87192322183256&#10;c 79.81643058706112,0 126.46043058706113,-106.69452084253182 79.81643058706112,-119.91448589620913&#10;c -46.644,-90.98142857142858 163.254,-55.98857142857143 308.88356941293887,-58.56746222955542 c 78.16540679605784,-0.0 371.83833919211827,34.99285714285715 317.42033919211826,9.165267019261579&#10;c -46.644,-181.70047187912542 0,-192.1832548060334 71.27966080788173,-192.1832548060334&#10;c 123.44980029365121,0 170.0938002936512,67.94778000302082 123.44980029365121,111.00589597140551&#10;c -46.644,90.98142857142858 163.254,55.98857142857143 265.2501997063488,72.0120918153663 c 160.226512089255,0.0 371.9118055467224,-34.99285714285715 317.4938055467224,54.1236049230308&#10;c -46.644,36.94236585607392 0,149.29385968163058 71.20619445327759,149.29385968163058&#10;c 66.48560782344975,0 113.12960782344976,-169.26490362377837 66.48560782344975,-198.4874652020284&#10;c -46.644,-90.98142857142858 163.254,-55.98857142857143 322.21439217655023,-4.929999402632973 c 179.83097167246427,0.0 322.9330360616324,-34.99285714285715 268.5150360616324,7.991130174320174&#10;c -46.644,187.8136834814359 0,215.18313816845912 120.18496393836762,215.18313816845912&#10;c 81.52507962426836,0 128.16907962426836,-128.25216826461565 81.52507962426836,-167.34149374876569&#10;c -46.644,-90.98142857142858 163.254,-55.98857142857143 307.17492037573163,-55.832774594013614 c 181.37942918356927,-0.0 324.8563624830357,34.99285714285715 270.4383624830357,-112.55659302335582&#10;c -46.644,-54.99203560009765 0,-64.71100584883933 118.2616375169643,-64.71100584883933&#10;c 76.56472871230227,0 123.20872871230227,41.64915312997044 76.56472871230227,61.0980580956864&#10;c -46.644,90.98142857142858 163.254,55.98857142857143 312.1352712876977,116.16954077650875 L 3887 0 " fill="none" stroke="black" stroke-width="0.1" style="vector-effect:non-scaling-stroke;" /></g><g><path d="M 0 0  L 0 2099.571429  c 188.10570063120164,0.0 368.3088547701309,-34.99285714285715 313.8908547701309,148.56021357078183&#10;c -46.644,36.162238218722834 0,37.71584254308166 74.8091452298691,37.71584254308166&#10;c 70.58986791770809,0 117.2338679177081,-43.58281432781295 70.58986791770809,-159.30558301207114&#10;c -46.644,-90.98142857142858 163.254,-55.98857142857143 318.1101320822919,-26.97047310179235 c 188.14391763677654,0.0 384.73494534131754,-34.99285714285715 330.31694534131753,49.03785582189887&#10;c -46.644,80.24591983985609 0,129.3179703529558 58.383054658682454,129.3179703529558&#10;c 100.83139399160655,0 147.47539399160655,-71.08789123466418 100.83139399160655,-94.70956910908151&#10;c -46.644,-90.98142857142858 163.254,-55.98857142857143 287.86860600839344,-83.64625706577314 c 206.02413699429508,0.0 323.5614401511756,-34.99285714285715 269.1434401511756,121.7307416625893&#10;c -46.644,27.597319175194148 0,55.918498948075054 119.5565598488244,55.918498948075054&#10;c 63.0342336518986,0 109.67823365189861,-21.77832891911589 63.0342336518986,-29.937819910255115&#10;c -46.644,-90.98142857142858 163.254,-55.98857142857143 325.6657663481014,-147.71142070040923 c 225.09659131688986,-0.0 364.6014282120224,34.99285714285715 310.1834282120224,-62.93664005820225&#10;c -46.644,-57.37158199303354 0,-151.29428007315389 78.51657178797757,-151.29428007315389&#10;c 102.78091875169736,0 149.42491875169736,37.88707409575103 102.78091875169736,148.82763032937305&#10;c -46.644,90.98142857142858 163.254,55.98857142857143 285.91908124830263,65.40328980198308 c 60.348923153893914,0.0 322.25297548779076,-34.99285714285715 267.83497548779076,90.90382824326736&#10;c -46.644,34.782261119372194 0,136.45446762616893 120.86502451220923,136.45446762616893&#10;c 118.99588179451717,0 165.63988179451718,-143.5574784416746 118.99588179451717,-152.80268167269952&#10;c -46.644,-90.98142857142858 163.254,-55.98857142857143 269.7041182054828,-74.55561419673677 L 3887 0 " fill="none" stroke="black" stroke-width="0.1" style="vector-effect:non-scaling-stroke;" /></g><g><path d="M 0 0  L 0 2799.428571  c 160.89053415763118,-0.0 362.97112515031915,34.99285714285715 308.55312515031915,-10.143152783911669&#10;c -46.644,-167.54506355466532 0,-184.21588948357154 80.14687484968084,-184.21588948357154&#10;c 62.53465241782084,0 109.17865241782084,25.00041180652392 62.53465241782084,80.32283505157335&#10;c -46.644,90.98142857142858 163.254,55.98857142857143 326.16534758217915,114.03620721590985 c 117.13400348413371,-0.0 377.9118622787052,34.99285714285715 323.4938622787052,-92.15994706800727&#10;c -46.644,-32.838475363057114 0,-115.74882837278209 65.2061377212948,-115.74882837278209&#10;c 95.79047000761375,0 142.43447000761375,28.950537435028632 95.79047000761375,64.74693825695593&#10;c -46.644,90.98142857142858 163.254,55.98857142857143 292.90952999238624,143.16183718383343 c 60.47188879864989,-0.0 327.07028243617697,34.99285714285715 272.65228243617696,-65.0894334696587&#10;c -46.644,-34.91324479660625 0,-121.46170744235258 116.04771756382303,-121.46170744235258&#10;c 74.96599901301784,0 121.60999901301784,71.2180806266002 74.96599901301784,135.21531998113392&#10;c -46.644,90.98142857142858 163.254,55.98857142857143 313.73400098698215,51.33582093087736 c 88.13216294094454,0.0 363.94214206734307,-34.99285714285715 309.52414206734306,-10.27299614419558&#10;c -46.644,62.09220898669221 0,246.48257943457475 79.17585793265692,246.48257943457475&#10;c 112.51242922170309,0 159.1564292217031,-117.48176529704551 112.51242922170309,-130.1075484928924&#10;c -46.644,-90.98142857142858 163.254,-55.98857142857143 276.1875707782969,-106.10203479748677 c 184.90235049850526,0.0 364.6145931024108,-34.99285714285715 310.1965931024108,143.01030382981676&#10;c -46.644,59.488993508723986 0,87.48376983613355 78.50340689758917,87.48376983613355&#10;c 116.46798015772941,0 163.11198015772942,-162.24674895098258 116.46798015772941,-212.89861129605515&#10;c -46.644,-90.98142857142858 163.254,-55.98857142857143 272.2320198422706,-17.59546236989516 L 3887 0 " fill="none" stroke="black" stroke-width="0.1" style="vector-effect:non-scaling-stroke;" /></g><g><path d="M 0 0  L 0 3499.285714  c 180.10430061445354,0.0 326.16127544722224,-34.99285714285715 271.74327544722223,130.3691884465899&#10;c -46.644,18.308163399006215 0,49.17935559401607 116.95672455277776,49.17935559401607&#10;c 56.335575281793695,0 102.9795752817937,-68.59648113988638 56.335575281793695,-175.02106629013215&#10;c -46.644,-90.98142857142858 163.254,-55.98857142857143 332.3644247182063,-4.527477750473821 c 70.67916895432967,-0.0 345.9969114862902,34.99285714285715 291.57891148629017,-141.58906537994838&#10;c -46.644,-40.692218809935 0,-48.96730320598638 97.12108851370982,-48.96730320598638&#10;c 112.09002071518324,0 158.73402071518325,43.252767785954944 112.09002071518324,187.97456821481194&#10;c -46.644,90.98142857142858 163.254,55.98857142857143 276.60997928481675,2.5818003711228243 c 82.68599675395755,-0.0 337.10338865680205,34.99285714285715 282.68538865680205,-111.71957239230679&#10;c -46.644,-61.89104488699267 0,-95.35033734744616 106.01461134319794,-95.35033734744616&#10;c 71.61760744080203,0 118.26160744080204,54.08385946186326 71.61760744080203,150.27117389353273&#10;c -46.644,90.98142857142858 163.254,55.98857142857143 317.08239255919796,56.79873584622021 c 165.51374476228506,-0.0 326.88608032037274,34.99285714285715 272.46808032037274,-89.58179264177896&#10;c -46.644,-105.82111977412723 0,-110.81578713908648 116.23191967962725,-110.81578713908648&#10;c 81.3762181360529,0 128.0202181360529,47.77297552295531 81.3762181360529,48.515409142849194&#10;c -46.644,90.98142857142858 163.254,55.98857142857143 307.3237818639471,151.88217063801625 c 80.19793582828241,-0.0 363.5239968311858,34.99285714285715 309.1059968311858,-128.68467521129267&#10;c -46.644,-47.74877014982375 0,-51.83308759222561 79.5940031688142,-51.83308759222561&#10;c 60.20294873229017,0 106.84694873229017,180.21071835891317 60.20294873229017,185.28148537602257&#10;c -46.644,90.98142857142858 163.254,55.98857142857143 328.4970512677098,-4.763722572504292 L 3887 0 " fill="none" stroke="black" stroke-width="0.1" style="vector-effect:non-scaling-stroke;" /></g><g><path d="M 0 0  L 0 4199.142857  c 54.07737102490023,-0.0 380.4194583120849,34.99285714285715 326.0014583120849,11.71155832023855&#10;c -46.644,-151.44447073928225 0,-235.14489565092688 62.69854168791511,-235.14489565092688&#10;c 114.80886610108575,0 161.45286610108576,40.48041694382481 114.80886610108575,108.59639685621953&#10;c -46.644,90.98142857142858 163.254,55.98857142857143 273.89113389891423,114.83694047446882 c 189.17427696972828,0.0 321.69398339517477,-34.99285714285715 267.27598339517476,106.19297139637837&#10;c -46.644,118.1927856914875 0,129.2949329777986 121.42401660482523,129.2949329777986&#10;c 111.68091947293482,0 158.32491947293482,-120.71511756118687 111.68091947293482,-242.57090310356543&#10;c -46.644,-90.98142857142858 163.254,-55.98857142857143 277.01908052706517,7.082998729388464 c 75.52942978260296,0.0 321.82916622181267,-34.99285714285715 267.41116622181266,38.211136110939755&#10;c -46.644,56.05628833730774 0,169.23959196893523 121.28883377818732,169.23959196893523&#10;c 60.742463013010536,0 107.38646301301054,-132.3914569710112 60.742463013010536,-139.73586174911512&#10;c -46.644,-90.98142857142858 163.254,-55.98857142857143 327.95753698698945,-67.71486633075986 c 138.8977432460977,0.0 348.96952998643224,-34.99285714285715 294.55152998643223,81.8504336772917&#10;c -46.644,104.33079971336886 0,131.14825090139666 94.14847001356776,131.14825090139666&#10;c 77.90216842412582,0 124.54616842412582,-44.55690981476831 77.90216842412582,-101.09756958188976&#10;c -46.644,-90.98142857142858 163.254,-55.98857142857143 310.79783157587417,-111.90111499679861 c 113.55184775805289,-0.0 371.57408964537973,34.99285714285715 317.1560896453797,0.6679104266726091&#10;c -46.644,-148.3998042816836 0,-178.17759356090139 71.54391035462027,-178.17759356090139&#10;c 92.18431799922342,0 138.82831799922343,67.36522684620836 92.18431799922342,137.6972216007979&#10;c -46.644,90.98142857142858 163.254,55.98857142857143 296.51568200077656,39.81246153343088 L 3887 0 " fill="none" stroke="black" stroke-width="0.1" style="vector-effect:non-scaling-stroke;" /></g></g></svg>