<svg baseProfile="full" height="2448" preserveAspectRatio="none" shape-rendering="geometricPrecision" version="1.1" viewBox="0,0,3264,2448" width="3264" xmlns="http://www.w3.org/2000/svg" xmlns:ev="http://www.w3.org/2001/xml-events" xmlns:xlink="http://www.w3.org/1999/xlink"><title>Jigsaw puzzle piece clips</title><desc>Created with the piecemaker. Piece count: 48</desc><defs/><g><g><rect fill="white" height="2448" width="3264" x="0" y="0"/></g></g><g><g><path d="M 0 0  L 408.000000 0  c 0.0,60.19879842467685 -20.400000000000002,192.83863446855418 44.30964683995844,164.27863446855417
c 30.023082448314597,-24.48 61.61767511252312,0 61.61767511252312,39.72136553144583
c 0,51.44869735593801 -59.13509840407835,75.92869735593801 -94.34907848755671,51.44869735593801
c -53.04,-24.48 -32.64,85.67999999999999 -11.578243464924853,152.551302644062 c 0.0,47.98058186518802 -20.400000000000002,173.32857244371965 16.781172405217855,144.76857244371965
c 89.35981965063095,-24.48 94.2603041810776,0 94.2603041810776,59.23142755628035
c 0,51.45091528312659 -45.20451861123437,75.9309152831266 -52.626664777237195,51.45091528312659
c -53.04,-24.48 -32.64,85.67999999999999 -58.414811809058264,152.5490847168734 c -0.0,98.7676929521899 20.400000000000002,196.36283781102304 -7.744494117940996,167.80283781102304
c -61.96352576229682,-24.48 -110.5710090982762,0 -110.5710090982762,36.19716218897696
c 0,59.44233469131461 94.02699781076554,83.92233469131462 109.5805239231439,59.44233469131461
c 53.04,-24.48 32.64,85.67999999999999 8.734979293073309,144.5576653086854 c -0.0,63.4143150178223 20.400000000000002,177.14386705504663 -2.527940531396963,148.58386705504662
c -89.64080158712385,-24.48 -116.06856046289492,0 -116.06856046289492,55.416132944953375
c 0,38.21457887155796 60.41652079951469,62.694578871557965 64.36293366831964,38.21457887155796
c 53.04,-24.48 32.64,85.67999999999999 54.233567325972245,165.78542112844204 c 0.0,44.97204528301064 -20.400000000000002,167.61838920826898 77.19608067383602,139.05838920826898
c 32.347309444296386,-24.48 38.433730251333586,0 38.433730251333586,64.94161079173102
c 0,52.83933973534198 -8.992873000517031,77.31933973534198 -31.379009112388943,52.83933973534198
c -53.04,-24.48 -32.64,85.67999999999999 -84.25080181278067,151.16066026465802 c 0.0,38.38926311217491 -20.400000000000002,196.66335122679533 37.72186202726412,168.10335122679533
c 44.474919789445195,-24.48 85.03975697263733,0 85.03975697263733,35.896648773204674
c 0,28.60790929303832 -44.972187267363694,53.08790929303832 -45.4380598927104,28.60790929303832
c -53.04,-24.48 -32.64,85.67999999999999 -77.32355910719106,175.39209070696168 L 0 2448 " fill="none" stroke="black" stroke-width="0.1" style="vector-effect:non-scaling-stroke;"/></g><g><path d="M 0 0  L 816.000000 0  c 0.0,98.0429926978948 -20.400000000000002,190.40859726398213 -1.145513300445959,161.84859726398213
c 108.35559515704949,-24.48 125.0451860963122,0 125.0451860963122,42.15140273601787
c 0,43.84050193174568 -52.31378890059938,68.32050193174568 -54.87669118425757,43.84050193174568
c -53.04,-24.48 -32.64,85.67999999999999 -69.02298161160867,160.15949806825432 c 0.0,32.44407774195299 -20.400000000000002,179.6049526854947 6.771296780259327,151.0449526854947
c 92.98426660053079,-24.48 93.56441272100048,0 93.56441272100048,52.95504731450529
c 0,54.414807940460776 -18.0785804207972,78.89480794046078 -63.910468201551026,54.414807940460776
c -53.04,-24.48 -32.64,85.67999999999999 -36.42524129970877,149.58519205953922 c -0.0,54.76901450827334 20.400000000000002,200.5638155865379 -39.6852659413927,172.0038155865379
c -18.033521208348798,-24.48 -70.91973739180223,0 -70.91973739180223,31.99618441346209
c 0,63.09235435826838 39.30057936478212,87.57235435826838 44.97435248323325,63.09235435826838
c 53.04,-24.48 32.64,85.67999999999999 65.63065084996168,140.90764564173162 c -0.0,113.84167835963926 20.400000000000002,178.94012472680328 -13.501702738203008,150.38012472680327
c -87.07664648502528,-24.48 -116.65724623804338,0 -116.65724623804338,53.619875273196726
c 0,36.250342661885185 82.99016235598201,60.73034266188519 85.90594193301042,36.250342661885185
c 53.04,-24.48 32.64,85.67999999999999 44.25300704323597,167.74965733811482 c -0.0,105.1221247501788 20.400000000000002,199.7509818958395 -54.71920585261193,171.19098189583949
c -61.50886030996665,-24.48 -69.4490260519816,0 -69.4490260519816,32.809018104160515
c 0,46.12792170427946 65.0760973400704,70.60792170427946 68.95691594045964,46.12792170427946
c 53.04,-24.48 32.64,85.67999999999999 55.2113159641339,157.87207829572054 c 0.0,103.01646742497144 -20.400000000000002,185.42449256577393 60.02200963379268,156.86449256577393
c 39.180263637642014,-24.48 46.015166797728725,0 46.015166797728725,47.13550743422607
c 0,29.430697718609082 -18.34916744567508,53.910697718609086 -73.17760610295373,29.430697718609082
c -53.04,-24.48 -32.64,85.67999999999999 -32.85957032856767,174.56930228139092 L 0 2448 " fill="none" stroke="black" stroke-width="0.1" style="vector-effect:non-scaling-stroke;"/></g><g><path d="M 0 0  L 1224.000000 0  c -0.0,88.73120371377134 20.400000000000002,170.50168642460753 -69.59128461782794,141.94168642460752
c -13.576483670222732,-24.48 -56.30772720027542,0 -56.30772720027542,62.058313575392475
c 0,63.722256957460104 22.677402736317056,88.20225695746011 68.09407612699263,63.722256957460104
c 53.04,-24.48 32.64,85.67999999999999 57.80493569111073,140.2777430425399 c 0.0,88.28180640894176 -20.400000000000002,194.3265756850848 63.61356578068213,165.7665756850848
c 17.532662716544877,-24.48 39.18249841902645,0 39.18249841902645,38.2334243149152
c 0,62.308454206435954 -58.90565837611658,86.78845420643596 -98.46639987867657,62.308454206435954
c -53.04,-24.48 -32.64,85.67999999999999 -4.329664321032013,141.69154579356405 c -0.0,77.68916709019189 20.400000000000002,188.52750621544527 -13.660452604239405,159.96750621544527
c -73.86964610539336,-24.48 -124.68236109578662,0 -124.68236109578662,44.03249378455473
c 0,48.416614344536754 90.10802884481195,72.89661434453676 134.49543112815292,48.416614344536754
c 53.04,-24.48 32.64,85.67999999999999 3.847382571873112,155.58338565546325 c -0.0,28.34645228207887 20.400000000000002,183.15208264739408 -81.74670500602737,154.59208264739408
c -50.52796530671678,-24.48 -50.287252311687595,0 -50.287252311687595,49.40791735260592
c 0,46.6799111320918 57.64821399101276,71.1599111320918 100.192866121898,46.6799111320918
c 53.04,-24.48 32.64,85.67999999999999 31.841091195816958,157.3200888679082 c -0.0,63.19313969005535 20.400000000000002,195.67711922226147 -78.83805158286908,167.11711922226146
c -33.00277254422986,-24.48 -33.22162776062831,0 -33.22162776062831,36.882880777738535
c 0,58.260264775355495 12.028755317752454,82.7402647753555 25.071494990340412,58.260264775355495
c 53.04,-24.48 32.64,85.67999999999999 86.98818435315698,145.7397352246445 c 0.0,96.44330286847146 -20.400000000000002,199.09018767126258 70.94753437130464,170.53018767126258
c 52.27417969713129,-24.48 55.425782213794264,0 55.425782213794264,33.46981232873742
c 0,33.89927842243853 -42.771208546609174,58.37927842243853 -68.64751220377948,33.89927842243853
c -53.04,-24.48 -32.64,85.67999999999999 -57.72580438131942,170.10072157756147 L 0 2448 " fill="none" stroke="black" stroke-width="0.1" style="vector-effect:non-scaling-stroke;"/></g><g><path d="M 0 0  L 1632.000000 0  c -0.0,75.08936404079198 20.400000000000002,181.0532000573039 -87.84015917837179,152.4932000573039
c -28.809405092445303,-24.48 -29.020449148395073,0 -29.020449148395073,51.50679994269609
c 0,33.648694200686094 106.30608223338294,58.1286942006861 114.69245488496395,33.648694200686094
c 53.04,-24.48 32.64,85.67999999999999 2.1681534418029145,170.3513057993139 c -0.0,74.67732992646171 20.400000000000002,172.8182006086807 -1.6784868048589594,144.2582006086807
c -38.75068601458639,-24.48 -126.63131815631176,0 -126.63131815631176,59.74179939131929
c 0,37.89310732279773 68.27358718153162,62.373107322797736 117.80798408613437,37.89310732279773
c 53.04,-24.48 32.64,85.67999999999999 10.501820875036358,166.10689267720227 c -0.0,35.13461162614835 20.400000000000002,180.60746814217694 -44.32199646579281,152.04746814217694
c -25.643173051476836,-24.48 -63.393240951568885,0 -63.393240951568885,51.95253185782306
c 0,63.55281704881622 21.88302670584629,88.03281704881623 30.344587948465815,63.55281704881622
c 53.04,-24.48 32.64,85.67999999999999 77.37064946889588,140.44718295118378 c 0.0,80.87160049313717 -20.400000000000002,199.24404547344898 6.921163468946212,170.68404547344898
c 33.54544746380924,-24.48 100.83212075797209,0 100.83212075797209,33.315954526551025
c 0,36.93949695585266 -41.518549555540474,61.419496955852665 -109.5810786230238,36.93949695585266
c -53.04,-24.48 -32.64,85.67999999999999 1.8277943961054888,167.06050304414734 c 0.0,91.22973376613784 -20.400000000000002,183.49208988790878 10.158690557647846,154.93208988790877
c 38.37318761993344,-24.48 128.06381643979935,0 128.06381643979935,49.067910112091226
c 0,32.146312282526935 -80.8383444783336,56.62631228252694 -130.40879065997,32.146312282526935
c -53.04,-24.48 -32.64,85.67999999999999 -7.813716337477189,171.85368771747306 c -0.0,39.61712166308924 20.400000000000002,176.77061616529102 -50.18137549505231,148.21061616529101
c -21.30224535440198,-24.48 -48.41275857801777,0 -48.41275857801777,55.789383834708985
c 0,31.787106094125562 36.013449666145824,56.267106094125566 43.10440231635911,31.787106094125562
c 53.04,-24.48 32.64,85.67999999999999 55.48973175671097,172.21289390587444 L 0 2448 " fill="none" stroke="black" stroke-width="0.1" style="vector-effect:non-scaling-stroke;"/></g><g><path d="M 0 0  L 2040.000000 0  c -0.0,85.12917361311219 20.400000000000002,171.05884519660336 -59.57085696360798,142.49884519660336
c -60.64946005459504,-24.48 -63.22703258170125,0 -63.22703258170125,61.501154803396645
c 0,50.13986676098364 28.69838224738365,74.61986676098364 79.79041034489126,50.13986676098364
c 53.04,-24.48 32.64,85.67999999999999 43.007479200417976,153.86013323901636 c -0.0,20.606931258297752 20.400000000000002,200.8421765625168 -61.148661635043396,172.2821765625168
c -19.647637174911175,-24.48 -63.90585116593981,0 -63.90585116593981,31.71782343748319
c 0,54.65552192281831 122.08816776147212,79.13552192281831 126.25671505434123,54.65552192281831
c 53.04,-24.48 32.64,85.67999999999999 -1.202202253358024,149.3444780771817 c -0.0,71.94991915195747 20.400000000000002,168.52700297860366 -68.92771288011204,139.96700297860366
c -23.216877248530746,-24.48 -43.693656177816635,0 -43.693656177816635,64.03299702139634
c 0,58.148838798508564 21.47986291858482,82.62883879850857 71.41091890689984,58.148838798508564
c 53.04,-24.48 32.64,85.67999999999999 41.21045015102884,145.85116120149144 c -0.0,77.13886804945967 20.400000000000002,200.75985334477343 -79.972093957655,172.19985334477343
c -14.186856312473306,-24.48 -37.915277298087105,0 -37.915277298087105,31.80014665522657
c 0,53.59284587083772 46.9175994625019,78.07284587083772 110.06806253652924,53.59284587083772
c 53.04,-24.48 32.64,85.67999999999999 7.81930871921287,150.40715412916228 c -0.0,99.43069711409267 20.400000000000002,168.33934499586928 -73.02656877567101,139.77934499586928
c -18.589090772900978,-24.48 -53.69003909415133,0 -53.69003909415133,64.22065500413072
c 0,51.33841894185289 24.633186385025535,75.8184189418529 113.41584516613436,51.33841894185289
c 53.04,-24.48 32.64,85.67999999999999 13.30076270368798,152.6615810581471 c 0.0,111.03517155452941 -20.400000000000002,178.81060731501054 33.85931382090624,150.25060731501054
c 62.489923115779746,-24.48 100.19380551542264,0 100.19380551542264,53.74939268498946
c 0,45.45757120213645 -104.04071979103855,69.93757120213645 -135.03579097393066,45.45757120213645
c -53.04,-24.48 -32.64,85.67999999999999 0.9826716376017828,158.54242879786355 L 0 2448 " fill="none" stroke="black" stroke-width="0.1" style="vector-effect:non-scaling-stroke;"/></g><g><path d="M 0 0  L 2448.000000 0  c 0.0,90.11554023805793 -20.400000000000002,196.11401455285724 61.37118406646654,167.55401455285724
c 55.94026935993204,-24.48 75.69744804131328,0 75.69744804131328,36.44598544714276
c 0,65.15780471183871 -97.40390516003303,89.63780471183871 -109.19528189545191,65.15780471183871
c -53.04,-24.48 -32.64,85.67999999999999 -27.873350212327907,138.8421952881613 c 0.0,95.58648866530851 -20.400000000000002,200.20768829847557 53.283197830018196,171.64768829847557
c 38.34999965603578,-24.48 78.89546689602199,0 78.89546689602199,32.35231170152443
c 0,55.6352964154226 -52.22157035644849,80.1152964154226 -83.53654473978153,55.6352964154226
c -53.04,-24.48 -32.64,85.67999999999999 -48.64211998625865,148.3647035845774 c -0.0,78.67414399866273 20.400000000000002,174.64891997528306 -55.82567845718371,146.08891997528306
c -42.128004580477686,-24.48 -69.29932918217618,0 -69.29932918217618,57.91108002471694
c 0,43.83771949912526 40.359934152044005,68.31771949912526 46.451439851481936,43.83771949912526
c 53.04,-24.48 32.64,85.67999999999999 78.67356778787796,160.16228050087474 c 0.0,62.973917523488346 -20.400000000000002,202.67743008585686 17.973925101291165,174.11743008585685
c 65.63529010803117,-24.48 118.43903986622814,0 118.43903986622814,29.882569914143147
c 0,53.90929896207996 -50.336116046380646,78.38929896207996 -67.60609685698286,53.90929896207996
c -53.04,-24.48 -32.64,85.67999999999999 -68.80686811053646,150.09070103792004 c 0.0,80.31276255966115 -20.400000000000002,171.5612754262642 38.759201281562575,143.0012754262642
c 70.0620311840644,-24.48 86.17803148669773,0 86.17803148669773,60.998724573735814
c 0,57.693755147238164 -77.73074500588812,82.17375514723817 -96.28730693174589,57.693755147238164
c -53.04,-24.48 -32.64,85.67999999999999 -28.649925836514427,146.30624485276184 c 0.0,85.45626508827272 -20.400000000000002,196.41308998467727 40.003397751586675,167.85308998467727
c 31.20353883197991,-24.48 71.71651652201412,0 71.71651652201412,36.14691001532273
c 0,36.99441112148463 -30.83275604355873,61.474411121484636 -115.83147577750913,36.99441112148463
c -53.04,-24.48 -32.64,85.67999999999999 4.111561503908334,167.00558887851537 L 0 2448 " fill="none" stroke="black" stroke-width="0.1" style="vector-effect:non-scaling-stroke;"/></g><g><path d="M 0 0  L 2856.000000 0  c -0.0,35.305742790379576 20.400000000000002,195.71406937387601 -1.816230147934596,167.154069373876
c -95.43290627519531,-24.48 -111.17943807525727,0 -111.17943807525727,36.84593062612399
c 0,29.28227528191178 12.810954014522512,53.76227528191178 26.829685585568626,29.28227528191178
c 53.04,-24.48 32.64,85.67999999999999 86.16598263762323,174.71772471808822 c 0.0,23.23917747246176 -20.400000000000002,174.4226273872892 37.53708836837269,145.8626273872892
c 46.27787612712384,-24.48 74.51803585339962,0 74.51803585339962,58.137372612710806
c 0,38.59696857547718 -23.798246947048778,63.07696857547718 -36.76196276361763,38.59696857547718
c -53.04,-24.48 -32.64,85.67999999999999 -75.29316145815469,165.40303142452282 c 0.0,65.86149753209871 -20.400000000000002,197.5710904165787 7.869085822368574,169.0110904165787
c 34.305224676317216,-24.48 124.83492170476673,0 124.83492170476673,34.988909583421304
c 0,29.710664666412242 -29.07048125031521,54.190664666412246 -45.302322584540676,29.710664666412242
c -53.04,-24.48 -32.64,85.67999999999999 -87.40168494259463,174.28933533358776 c 0.0,97.40917543389084 -20.400000000000002,186.52834268837054 61.331150867853935,157.96834268837054
c 47.73351923437661,-24.48 64.33998409178935,0 64.33998409178935,46.03165731162946
c 0,55.06092965508259 -89.42563582058025,79.54092965508259 -95.16034635982375,55.06092965508259
c -53.04,-24.48 -32.64,85.67999999999999 -30.510788599819534,148.9390703449174 c -0.0,96.94623688130906 20.400000000000002,178.44052552536695 -8.665746595091775,149.88052552536695
c -68.6428171762075,-24.48 -128.410879646882,0 -128.410879646882,54.11947447463305
c 0,31.0510300508966 92.16467132128145,55.531030050896604 91.51209315908908,31.0510300508966
c 53.04,-24.48 32.64,85.67999999999999 45.564533082884694,172.9489699491034 c 0.0,93.8888111261496 -20.400000000000002,173.94113446134992 31.978903076875984,145.38113446134992
c 52.05295203652371,-24.48 75.50379019975698,0 75.50379019975698,58.618865538650084
c 0,56.68485779108494 -7.0952696799122545,81.16485779108494 -20.43026130331171,56.68485779108494
c -53.04,-24.48 -32.64,85.67999999999999 -87.05243197332125,147.31514220891506 L 0 2448 " fill="none" stroke="black" stroke-width="0.1" style="vector-effect:non-scaling-stroke;"/></g></g><g><g><path d="M 0 0  L 0 408.000000  c 71.68822438892276,-0.0 201.36041369527737,20.400000000000002 172.80041369527737,-42.46565225527187
c -24.48,-40.88294782250288 0,-69.28725350354856 31.19958630472263,-69.28725350354856
c 30.56260363286293,0 55.042603632862935,103.35452901093784 30.56260363286293,110.71233215868331
c -24.48,53.04 85.67999999999999,32.64 173.43739636713707,1.0405736001371082 c 59.97762348918417,0.0 180.9428397390878,-20.400000000000002 152.38283973908779,76.30268346525057
c -24.48,17.13659042379605 0,60.629214589579306 51.617160260912215,60.629214589579306
c 37.20114375444487,0 61.681143754444875,-46.11234984330737 37.20114375444487,-86.93296466895254
c -24.48,-53.04 85.67999999999999,-32.64 166.79885624555513,-49.998933385877336 c 114.30762248028839,-0.0 201.27807578796484,20.400000000000002 172.71807578796484,-65.79352574602842
c -24.48,-16.112717559533497 0,-32.37035386403831 31.281924212035165,-32.37035386403831
c 64.90857348995081,0 89.38857348995082,97.45945083020388 64.90857348995081,102.59657668533626
c -24.48,53.04 85.67999999999999,32.64 139.0914265100492,-4.43269707526953 c 82.18705456013353,-0.0 180.19217390343613,20.400000000000002 151.63217390343613,-41.49939460791621
c -24.48,-27.27401100755679 0,-71.65985378525406 52.367826096563874,-71.65985378525406
c 36.31131958298002,0 60.79131958298002,65.38674787450843 36.31131958298002,88.71076344805044
c -24.48,53.04 85.67999999999999,32.64 167.68868041701998,24.448484945119816 c 108.69074265981544,-0.0 197.73583338749418,20.400000000000002 169.17583338749418,2.892821748721761
c -24.48,-43.25457170448317 0,-139.51514638795197 34.82416661250582,-139.51514638795197
c 41.35083341747651,0 65.83083341747651,63.800615552960714 41.35083341747651,115.79922523520392
c -24.48,53.04 85.67999999999999,32.64 162.6491665825235,20.823099404026294 c 64.26319808579973,-0.0 196.96709785677,20.400000000000002 168.40709785677,-48.48681176276444
c -24.48,-52.33403176201961 0,-77.29910432440417 35.59290214322999,-77.29910432440417
c 61.12971439267562,0 85.60971439267563,53.498826686484385 61.12971439267562,56.94444753729856
c -24.48,53.04 85.67999999999999,32.64 142.87028560732438,68.84146854987004 c 85.70527734390554,0.0 178.3595362325621,-20.400000000000002 149.7995362325621,46.47977086800108
c -24.48,49.64222324189499 0,90.31282681569243 54.200463767437896,90.31282681569243
c 32.392878985258335,0 56.87287898525834,-101.41210154733899 32.392878985258335,-138.95633952302552
c -24.48,-53.04 85.67999999999999,-32.64 171.60712101474167,2.1637418393320047 c 95.24219765052433,-0.0 192.51120628522642,20.400000000000002 163.95120628522642,-15.297964645801198
c -24.48,-38.54215922663388 0,-107.31301790770884 40.04879371477358,-107.31301790770884
c 49.95715556098625,0 74.43715556098626,47.7723139216054 49.95715556098625,87.477120921238
c -24.48,53.04 85.67999999999999,32.64 154.04284443901375,35.133861632272044 L 3264 0 " fill="none" stroke="black" stroke-width="0.1" style="vector-effect:non-scaling-stroke;"/></g><g><path d="M 0 0  L 0 816.000000  c 109.5154027172198,0.0 182.4118520262952,-20.400000000000002 153.8518520262952,36.1816910782211
c -24.48,85.68772453113361 0,87.04630571877524 50.148147973704795,87.04630571877524
c 40.74888956062222,0 65.22888956062222,-70.86692849498242 40.74888956062222,-105.80280415568808
c -24.48,-53.04 85.67999999999999,-32.64 163.25111043937778,-17.425192641308257 c 85.41045054951981,0.0 173.4613089247589,-20.400000000000002 144.9013089247589,4.913412628531305
c -24.48,80.02247991046505 0,103.0270512113242 59.098691075241106,103.0270512113242
c 46.79420421202357,0 71.27420421202358,-47.43453715105589 46.79420421202357,-61.53466743966199
c -24.48,-53.04 85.67999999999999,-32.64 157.20579578797643,-46.40579640019352 c 96.09872381675429,-0.0 185.2338259036387,20.400000000000002 156.6738259036387,-51.2844775412072
c -24.48,-31.68390333623997 0,-47.131802887032286 47.326174096361314,-47.131802887032286
c 51.168984386303606,0 75.64898438630361,80.09990909961728 51.168984386303606,102.12042506447419
c -24.48,53.04 85.67999999999999,32.64 152.8310156136964,-3.7041446362347017 c 50.64902223352699,0.0 180.29776058997024,-20.400000000000002 151.73776058997024,15.040109453105973
c -24.48,82.10943635182416 0,110.62036017060265 52.262239410029764,110.62036017060265
c 56.875954954181395,0 81.3559549541814,-76.7119582222681 56.875954954181395,-94.73901322619383
c -24.48,-53.04 85.67999999999999,-32.64 147.1240450458186,-30.92145639751479 c 44.07737364397027,0.0 194.64541406293048,-20.400000000000002 166.08541406293048,79.63704308892372
c -24.48,8.23587366748895 0,21.33162576097648 37.91458593706952,21.33162576097648
c 36.01512655052096,0 60.495126550520965,-99.36687385851012 36.01512655052096,-108.05246255389056
c -24.48,-53.04 85.67999999999999,-32.64 167.98487344947904,7.0837937039903665 c 85.38923672489516,-0.0 169.58907105824784,20.400000000000002 141.02907105824784,-2.8649104715889337
c -24.48,-102.80659577674392 0,-120.3388611042836 62.97092894175216,-120.3388611042836
c 51.99128434664539,0 76.47128434664539,47.624864906930696 51.99128434664539,77.22106148037187
c -24.48,53.04 85.67999999999999,32.64 152.0087156533546,45.98271009550065 c 59.442084371229356,0.0 176.73480535212767,-20.400000000000002 148.17480535212766,25.467775547016025
c -24.48,61.42500032866465 0,75.68907300200638 55.82519464787234,75.68907300200638
c 40.81185221592838,0 65.29185221592839,-68.79870473340598 40.81185221592838,-100.8117759598444
c -24.48,-53.04 85.67999999999999,-32.64 163.18814778407162,-0.34507258917801664 c 20.42221950991222,-0.0 189.33942103349938,20.400000000000002 160.77942103349937,-57.654902561662865
c -24.48,-36.36132064932637 0,-61.18270999193179 43.220578966500625,-61.18270999193179
c 53.45220652444965,0 77.93220652444965,57.78473462740387 53.45220652444965,59.45368904049124
c -24.48,53.04 85.67999999999999,32.64 150.54779347555035,59.38392351310341 L 3264 0 " fill="none" stroke="black" stroke-width="0.1" style="vector-effect:non-scaling-stroke;"/></g><g><path d="M 0 0  L 0 1224.000000  c 20.819328316503885,-0.0 176.72945377338294,20.400000000000002 148.16945377338294,-76.86673202928255
c -24.48,-11.029301315626812 0,-27.266952477068386 55.83054622661706,-27.266952477068386
c 45.95375420558304,0 70.43375420558304,77.02852434019455 45.95375420558304,89.1286513095323
c -24.48,53.04 85.67999999999999,32.64 158.04624579441696,15.00503319681863 c 34.581022830699226,-0.0 200.11483645162696,20.400000000000002 171.55483645162695,-11.577474902729923
c -24.48,-85.67740218260064 0,-110.02870896616993 32.445163548373046,-110.02870896616993
c 35.90538584822215,0 60.38538584822216,81.23502270347376 35.90538584822215,129.24708118756615
c -24.48,53.04 85.67999999999999,32.64 168.09461415177785,-7.640897318666305 c 62.25672935618555,0.0 191.00294195141055,-20.400000000000002 162.44294195141055,74.89123162811096
c -24.48,11.602668518098014 0,25.944410740016608 41.557058048589454,25.944410740016608
c 60.03115775359964,0 84.51115775359965,-74.64949177076281 60.03115775359964,-108.01982646452204
c -24.48,-53.04 85.67999999999999,-32.64 143.96884224640036,7.184184096394475 c 116.30971798060935,-0.0 194.57935952693077,20.400000000000002 166.01935952693077,-48.99940518982602
c -24.48,-29.98164472459563 0,-68.13662701876355 37.98064047306923,-68.13662701876355
c 39.35952274490242,0 63.839522744902425,20.12277557578925 39.35952274490242,29.29561365950157
c -24.48,53.04 85.67999999999999,32.64 164.64047725509758,87.840418549088 c 80.4017073604869,0.0 195.23307297634562,-20.400000000000002 166.67307297634562,57.17584981079306
c -24.48,58.671841194508836 0,58.40048921497597 37.32692702365438,58.40048921497597
c 37.76943742539822,0 62.24943742539823,-40.54065433445129 37.76943742539822,-69.27873619130128
c -24.48,-53.04 85.67999999999999,-32.64 166.23056257460178,-46.29760283446775 c 32.11368223089414,-0.0 182.5562116855071,20.400000000000002 153.9962116855071,-58.51260994305537
c -24.48,-15.989606579707269 0,-62.24201510094595 50.00378831449291,-62.24201510094595
c 42.96526852678036,0 67.44526852678037,53.54711469695414 42.96526852678036,80.05329202070426
c -24.48,53.04 85.67999999999999,32.64 161.03473147321964,40.70133302329705 c 74.99756729063222,0.0 188.61205815663217,-20.400000000000002 160.05205815663217,15.969690641964815
c -24.48,30.320181514884535 0,89.97057403479216 43.94794184336783,89.97057403479216
c 45.61184279413803,0 70.09184279413803,-14.666898925951228 45.61184279413803,-61.03431590780992
c -24.48,-53.04 85.67999999999999,-32.64 158.38815720586197,-44.90594876894706 c 96.33866739388921,-0.0 193.66139234650802,20.400000000000002 165.10139234650802,-14.168952066253329
c -24.48,-99.16161150002655 0,-114.79527510565538 38.89860765349198,-114.79527510565538
c 37.82258553791502,0 62.30258553791502,26.43259602194029 37.82258553791502,41.155150239171945
c -24.48,53.04 85.67999999999999,32.64 166.17741446208498,87.80907693273676 L 3264 0 " fill="none" stroke="black" stroke-width="0.1" style="vector-effect:non-scaling-stroke;"/></g><g><path d="M 0 0  L 0 1632.000000  c 94.97422046801546,0.0 182.42329315436282,-20.400000000000002 153.86329315436282,23.326885369894217
c -24.48,59.64861390128364 0,107.05510499275674 50.13670684563718,107.05510499275674
c 41.656059506547905,0 66.13605950654791,-56.73585005371921 41.656059506547905,-131.27084473926462
c -24.48,-53.04 85.67999999999999,-32.64 162.3439404934521,0.888854376613665 c 27.97609384876714,0.0 193.25151824517485,-20.400000000000002 164.69151824517485,66.76355788370793
c -24.48,45.88477011036306 0,49.49681613747495 39.30848175482515,49.49681613747495
c 52.71669186169811,0 77.19669186169811,-85.08402447920227 52.71669186169811,-103.86631903297464
c -24.48,-53.04 85.67999999999999,-32.64 151.2833081383019,-12.39405498820824 c 28.542037751442546,0.0 195.17730936011174,-20.400000000000002 166.61730936011173,56.89694128968552
c -24.48,34.420828518174986 0,57.838163351898025 37.38269063988827,57.838163351898025
c 52.2382555618687,0 76.7182555618687,-9.77790801617423 52.2382555618687,-37.84091387981255
c -24.48,-53.04 85.67999999999999,-32.64 151.7617444381313,-76.894190761771 c 75.43199906307983,-0.0 203.70986851443527,20.400000000000002 175.14986851443527,-61.391898593346326
c -24.48,-42.590830983827985 0,-56.46192657694928 28.85013148556473,-56.46192657694928
c 61.207974486177875,0 85.68797448617788,75.55702414963416 61.207974486177875,89.79743524413468
c -24.48,53.04 85.67999999999999,32.64 142.79202551382213,28.056389926160932 c 53.92207584865857,0.0 181.2548720559667,-20.400000000000002 152.6948720559667,80.7986209128406
c -24.48,29.3238359095157 0,53.93914953478604 51.3051279440333,53.93914953478604
c 55.23567390187151,0 79.71567390187151,-21.61256066122078 55.23567390187151,-50.117541736572804
c -24.48,-53.04 85.67999999999999,-32.64 148.7643260981285,-84.62022871105384 c 87.51763350629162,-0.0 174.75909530367753,20.400000000000002 146.19909530367752,-23.220770946271404
c -24.48,-47.278880244784965 0,-78.2932222996277 57.800904696322476,-78.2932222996277
c 36.88673168567348,0 61.366731685673486,5.856888338812306 36.88673168567348,15.024762419770184
c -24.48,53.04 85.67999999999999,32.64 167.11326831432652,86.48923082612892 c 112.79594801334542,-0.0 199.85392905274867,20.400000000000002 171.29392905274867,-54.282814945581364
c -24.48,-61.898225142602605 0,-82.2341826419699 32.706070947251334,-82.2341826419699
c 61.54894939275687,0 86.02894939275687,99.60253309787544 61.54894939275687,102.11607013999412
c -24.48,53.04 85.67999999999999,32.64 142.45105060724313,34.40092744755714 c 47.799202297759706,-0.0 188.44000012911948,20.400000000000002 159.88000012911948,-83.7198144914633
c -24.48,-20.971637006514282 0,-44.85759942091926 44.11999987088052,-44.85759942091926
c 38.596388386608965,0 63.07638838660897,75.45708252628636 38.596388386608965,131.52405909436396
c -24.48,53.04 85.67999999999999,32.64 165.40361161339104,-2.9466451819814097 L 3264 0 " fill="none" stroke="black" stroke-width="0.1" style="vector-effect:non-scaling-stroke;"/></g><g><path d="M 0 0  L 0 2040.000000  c 83.35204346520554,-0.0 184.0483638267634,20.400000000000002 155.4883638267634,-66.69296998562882
c -24.48,-20.478176462292012 0,-68.92406718231709 48.51163617323661,-68.92406718231709
c 34.18272967633871,0 58.662729676338714,83.78328963650641 34.18272967633871,103.97274396147463
c -24.48,53.04 85.67999999999999,32.64 169.8172703236613,31.644293206471275 c 75.20909920386217,0.0 203.09980847586755,-20.400000000000002 174.53980847586755,71.14979268008452
c -24.48,26.74132272771005 0,28.445699443358478 29.460191524132455,28.445699443358478
c 29.393870775828532,0 53.873870775828536,-9.924528974756694 29.393870775828532,-35.72103606753397
c -24.48,-53.04 85.67999999999999,-32.64 174.60612922417147,-63.87445605590902 c 74.3883492704434,0.0 184.63984108526688,-20.400000000000002 156.07984108526688,-7.613303345451932
c -24.48,77.55755025363034 0,135.69688113565343 47.92015891473312,135.69688113565343
c 52.54989725395944,0 77.02989725395945,-106.81622592329363 52.54989725395944,-115.19181107990545
c -24.48,-53.04 85.67999999999999,-32.64 151.45010274604056,-12.891766710296054 c 28.165593684080395,0.0 197.84930491674578,-20.400000000000002 169.28930491674578,9.275217957661745
c -24.48,101.81975384843439 0,106.37446764779185 34.71069508325422,106.37446764779185
c 47.26730606588103,0 71.74730606588103,-24.190387865738188 47.26730606588103,-85.45496732188958
c -24.48,-53.04 85.67999999999999,-32.64 156.73269393411897,-30.194718283564 c 87.98918733674986,0.0 191.79603562883165,-20.400000000000002 163.23603562883164,24.57589705188555
c -24.48,71.37232639123512 0,86.22677038461434 40.763964371168356,86.22677038461434
c 34.224153402123505,0 58.70415340212351,-55.55082222128275 34.224153402123505,-103.32216252592637
c -24.48,-53.04 85.67999999999999,-32.64 169.7758465978765,-7.480504910573515 c 46.93277641418163,-0.0 201.41566389615215,20.400000000000002 172.85566389615215,-30.3541266803127
c -24.48,-73.6925385810163 0,-107.8785528466426 31.14433610384785,-107.8785528466426
c 56.008132873131444,0 80.48813287313145,47.98555117595935 56.008132873131444,118.41415029765108
c -24.48,53.04 85.67999999999999,32.64 147.99186712686856,19.818529229304232 c 56.39893590205904,-0.0 190.54486702641498,20.400000000000002 161.98486702641497,-71.75676762063488
c -24.48,-13.465093127764646 0,-33.697569203160384 42.015132973585025,-33.697569203160384
c 30.828429730164657,0 55.30842973016466,50.048300666952656 30.828429730164657,95.74994521335893
c -24.48,53.04 85.67999999999999,32.64 173.17157026983534,9.704391610436332 c 87.55896015725443,0.0 201.45009230248374,-20.400000000000002 172.89009230248374,59.56941116782991
c -24.48,44.36609496834917 0,70.3869504901821 31.109907697516263,70.3869504901821
c 59.718288573829625,0 84.19828857382963,-54.24573692421857 59.718288573829625,-82.52655531107673
c -24.48,-53.04 85.67999999999999,-32.64 144.28171142617038,-47.42980634693528 L 3264 0 " fill="none" stroke="black" stroke-width="0.1" style="vector-effect:non-scaling-stroke;"/></g></g></svg>