<svg baseProfile="full" height="2368" preserveAspectRatio="none" shape-rendering="geometricPrecision" version="1.1" viewBox="0,0,3568,2368" width="3568" xmlns="http://www.w3.org/2000/svg" xmlns:ev="http://www.w3.org/2001/xml-events" xmlns:xlink="http://www.w3.org/1999/xlink"><title>Jigsaw puzzle piece clips</title><desc>Created with the piecemaker. Piece count: 35</desc><defs /><g><g><rect fill="white" height="2368" width="3568" x="0" y="0" /></g></g><g><g><path d="M 0 0  L 509.714286 0  c -0.0,66.65318372412723 25.485714285714288,204.62022321709668 -85.62201815823744,171.46822321709666&#10;c -56.78896743449753,-28.416 -69.3366044042377,0 -69.3366044042377,65.33177678290335&#10;c 0,66.70566698544826 24.597238193592876,95.12166698544826 111.86935485070981,66.70566698544826&#10;c 66.26285714285714,-28.416 40.777142857142856,99.456 43.08926771176533,170.09433301455175 c 0.0,40.94603797918078 -25.485714285714288,212.9869832327226 69.69544664843296,179.83498323272258&#10;c 83.90696735531068,-28.416 83.85768602640913,0 83.85768602640913,56.96501676727743&#10;c 0,45.52270242348112 -57.620617285504224,73.93870242348112 -98.78216867688111,45.52270242348112&#10;c -66.26285714285714,-28.416 -40.777142857142856,99.456 -54.770963997960976,191.2772975765189 c -0.0,129.75691775688944 25.485714285714288,232.2352462235618 -6.442772953302789,199.0832462235618&#10;c -59.37140414889621,-28.416 -127.39072690812618,0 -127.39072690812618,37.716753776438225&#10;c 0,58.54963222900932 62.54940692769659,86.96563222900932 65.9754611469288,58.54963222900932&#10;c 66.26285714285714,-28.416 40.777142857142856,99.456 67.85803871450018,178.2503677709907 c -0.0,130.6767576645958 25.485714285714288,216.8722355698363 4.0926087056395914,183.7202355698363&#10;c -50.17338134480974,-28.416 -161.11704283694888,0 -161.11704283694888,53.07976443016372&#10;c 0,42.505942580629664 111.86903968045587,70.92194258062966 140.31288381514136,42.505942580629664&#10;c 66.26285714285714,-28.416 40.777142857142856,99.456 16.711550316167944,194.29405741937035 c 0.0,99.58945895591363 -25.485714285714288,209.65752503177805 78.64333377691948,176.50552503177803&#10;c 48.15382938302672,-28.416 55.80178721309686,0 55.80178721309686,60.29447496822198&#10;c 0,72.02586995412395 -49.11382644923768,100.44186995412394 -60.38620817579253,72.02586995412395&#10;c -66.26285714285714,-28.416 -40.777142857142856,99.456 -74.0589128142238,164.77413004587606 L 0 2368 " fill="none" stroke="black" stroke-width="0.1" style="vector-effect:non-scaling-stroke;" /></g><g><path d="M 0 0  L 1019.428571 0  c 0.0,99.18923053454138 -25.485714285714288,230.207358996728 12.282323513780655,197.055358996728&#10;c 130.66990705571612,-28.416 140.864263836196,0 140.864263836196,39.74464100327202&#10;c 0,70.42636054227603 -98.36711474107062,98.84236054227603 -99.41047952534002,70.42636054227603&#10;c -66.26285714285714,-28.416 -40.777142857142856,99.456 -53.73610782463662,166.37363945772398 c 0.0,42.12257215375003 -25.485714285714288,227.09466420596 34.673341178201305,193.94266420595997&#10;c 56.025032797044325,-28.416 137.14205938054863,0 137.14205938054863,42.85733579404004&#10;c 0,36.64203882715776 -24.663988419058935,65.05803882715776 -83.62682798620048,36.64203882715776&#10;c -66.26285714285714,-28.416 -40.777142857142856,99.456 -88.18857257254945,200.15796117284225 c -0.0,41.032545332728276 25.485714285714288,213.44685776842232 -86.28099793888084,180.2948577684223&#10;c -43.02009097451974,-28.416 -64.72063760921718,0 -64.72063760921718,56.50514223157771&#10;c 0,34.43780205291614 66.28687992694562,62.85380205291614 89.96901118568354,34.43780205291614&#10;c 66.26285714285714,-28.416 40.777142857142856,99.456 61.03262436241448,202.36219794708387 c 0.0,49.135212469015734 -25.485714285714288,205.1987575605417 80.04566682527131,172.0467575605417&#10;c 20.682647822831644,-28.416 90.58746479878205,0 90.58746479878205,64.75324243945832&#10;c 0,34.77902050347342 -43.86430821327928,63.195020503473415 -115.9775816049105,34.77902050347342&#10;c -66.26285714285714,-28.416 -40.777142857142856,99.456 -54.655550019142865,202.0209794965266 c 0.0,79.92550621618366 -25.485714285714288,194.83329688106048 5.383890825371374,161.68129688106046&#10;c 30.2047332015086,-28.416 134.11362436844925,0 134.11362436844925,75.11870311893955&#10;c 0,54.327011122393685 -51.307526142767095,82.74301112239368 -101.92273863734044,54.327011122393685&#10;c -66.26285714285714,-28.416 -40.777142857142856,99.456 -37.574776556480174,182.47298887760633 L 0 2368 " fill="none" stroke="black" stroke-width="0.1" style="vector-effect:non-scaling-stroke;" /></g><g><path d="M 0 0  L 1529.142857 0  c -0.0,30.142963356646643 25.485714285714288,218.69605653910898 -15.508725698799596,185.54405653910896&#10;c -32.288635371753365,-28.416 -147.62927012791576,0 -147.62927012791576,51.25594346089105&#10;c 0,75.32873430317579 30.65542674572717,103.74473430317579 77.22580498685363,75.32873430317579&#10;c 66.26285714285714,-28.416 40.777142857142856,99.456 85.91219083986172,161.47126569682422 c 0.0,100.13244107811349 -25.485714285714288,216.49124203168273 100.944154866637,183.33924203168272&#10;c 31.759868761277357,-28.416 31.886062766273255,0 31.886062766273255,53.460757968317296&#10;c 0,73.04964847694299 -45.804133764960405,101.46564847694299 -58.291415482913465,73.04964847694299&#10;c -66.26285714285714,-28.416 -40.777142857142856,99.456 -74.5388021499968,163.75035152305702 c -0.0,79.85522188446517 25.485714285714288,233.52433080002896 -44.598769820498894,200.37233080002895&#10;c -60.1513872405897,-28.416 -104.8400268730272,0 -104.8400268730272,36.427669199971064&#10;c 0,71.01731327527142 71.74969796797416,99.43331327527142 110.29915959282937,71.01731327527142&#10;c 66.26285714285714,-28.416 40.777142857142856,99.456 39.13963710069672,165.7826867247286 c -0.0,132.7057048645498 25.485714285714288,228.27142927164377 -106.2838854326951,195.11942927164375&#10;c -31.517212770085933,-28.416 -38.73029820312631,0 -38.73029820312631,41.68057072835626&#10;c 0,43.38196731113851 63.74705772415441,71.7979673111385 73.7032052714226,43.38196731113851&#10;c 66.26285714285714,-28.416 40.777142857142856,99.456 71.3109783643988,193.4180326888615 c -0.0,50.41081565734232 25.485714285714288,233.797738476176 -92.7044906844713,200.64573847617598&#10;c -17.51111038924622,-28.416 -69.34919920534469,0 -69.34919920534469,36.15426152382403&#10;c 0,75.14220714137707 107.97601756785252,103.55820714137707 143.1135896442674,75.14220714137707&#10;c 66.26285714285714,-28.416 40.777142857142856,99.456 18.940100245548592,161.65779285862294 L 0 2368 " fill="none" stroke="black" stroke-width="0.1" style="vector-effect:non-scaling-stroke;" /></g><g><path d="M 0 0  L 2038.857143 0  c -0.0,45.888634279448176 25.485714285714288,197.19460318391273 -22.667283264436314,164.04260318391272&#10;c -94.99985161683884,-28.416 -101.20520578572368,0 -101.20520578572368,72.7573968160873&#10;c 0,57.16791755820316 36.23292944683825,85.58391755820315 125.47743407307415,57.16791755820316&#10;c 66.26285714285714,-28.416 40.777142857142856,99.456 -1.6049450229141513,179.63208244179685 c -0.0,120.60592381986969 25.485714285714288,220.17215055274625 -101.96487619370907,187.02015055274623&#10;c -10.209716501300395,-28.416 -20.54740131600866,0 -20.54740131600866,49.77984944725378&#10;c 0,72.96522188724282 37.400037315428044,101.38122188724282 48.708431823970045,72.96522188724282&#10;c 66.26285714285714,-28.416 40.777142857142856,99.456 73.80384568574769,163.8347781127572 c 0.0,29.791742972646848 -25.485714285714288,234.24096825732727 55.919905277527135,201.08896825732725&#10;c 28.209470732918383,-28.416 69.12433038279131,0 69.12433038279131,35.71103174267276&#10;c 0,56.41119800481454 -26.84514292917848,84.82719800481453 -52.17568450685147,56.41119800481454&#10;c -66.26285714285714,-28.416 -40.777142857142856,99.456 -72.86855115346698,180.38880199518547 c -0.0,117.47593609143304 25.485714285714288,207.7966348722355 -91.38030929981959,174.64463487223549&#10;c -15.112912611324306,-28.416 -35.43265702358349,0 -35.43265702358349,62.155365127764526&#10;c 0,37.10938513888789 28.238915389999892,65.52538513888788 44.11429876307339,37.10938513888789&#10;c 66.26285714285714,-28.416 40.777142857142856,99.456 82.69866756032968,199.69061486111212 c 0.0,98.60612957204172 -25.485714285714288,221.92855862373983 15.790187280354026,188.77655862373982&#10;c 65.63010640595164,-28.416 146.94365801778525,0 146.94365801778525,48.023441376260195&#10;c 0,72.79996186565342 -75.61400422588147,101.21596186565341 -164.31663010689962,72.79996186565342&#10;c -66.26285714285714,-28.416 -40.777142857142856,99.456 1.5827848087603513,164.0000381343466 L 0 2368 " fill="none" stroke="black" stroke-width="0.1" style="vector-effect:non-scaling-stroke;" /></g><g><path d="M 0 0  L 2548.571429 0  c -0.0,29.053917464695644 25.485714285714288,195.10952799586866 -46.621299210467036,161.95752799586865&#10;c -68.33765121951615,-28.416 -119.1912496670015,0 -119.1912496670015,74.84247200413137&#10;c 0,58.04216845490902 116.97245526376332,86.45816845490901 153.6555128519535,58.04216845490902&#10;c 66.26285714285714,-28.416 40.777142857142856,99.456 12.157036025515055,178.757831545091 c 0.0,102.4859090129864 -25.485714285714288,236.18342895159972 31.384552807599057,203.0314289515997&#10;c 50.01986509830387,-28.416 94.26275609869131,0 94.26275609869131,33.768571048400304&#10;c 0,61.05763805497395 -11.758642191951395,89.47363805497395 -45.662775772451525,61.05763805497395&#10;c -66.26285714285714,-28.416 -40.777142857142856,99.456 -79.98453313383884,175.74236194502606 c -0.0,32.40714633578054 25.485714285714288,202.43305377572742 -91.1838528946957,169.2810537757274&#10;c -63.036465056799926,-28.416 -78.56272804111241,0 -78.56272804111241,67.51894622427261&#10;c 0,60.059767422386585 36.58686521848225,88.47576742238658 146.55108893484976,60.059767422386585&#10;c 66.26285714285714,-28.416 40.777142857142856,99.456 23.195492000958353,176.74023257761343 c -0.0,31.065182721753843 25.485714285714288,226.43311928369152 8.225167972066707,193.2811192836915&#10;c -131.7009348258911,-28.416 -147.0990119275426,0 -147.0990119275426,43.5188807163085&#10;c 0,57.95632526655538 82.7548153105897,86.37232526655538 138.99314415080636,57.95632526655538&#10;c 66.26285714285714,-28.416 40.777142857142856,99.456 -0.11930019533048153,178.84367473344463 c 0.0,30.544536152760106 -25.485714285714288,230.09389068855288 26.26753442466877,196.94189068855286&#10;c 89.85055563670163,-28.416 135.46166185624983,0 135.46166185624983,39.85810931144715&#10;c 0,43.73638689367209 -22.614866086592645,72.15238689367209 -95.47444961731446,43.73638689367209&#10;c -66.26285714285714,-28.416 -40.777142857142856,99.456 -66.25474666360415,193.06361310632792 L 0 2368 " fill="none" stroke="black" stroke-width="0.1" style="vector-effect:non-scaling-stroke;" /></g><g><path d="M 0 0  L 3058.285714 0  c 0.0,125.5667623080243 -25.485714285714288,215.98040973738748 70.64239589199954,182.82840973738746&#10;c 28.333545396257474,-28.416 53.82826437367537,0 53.82826437367537,53.97159026261255&#10;c 0,62.45520407643863 -78.033878804745,90.87120407643863 -118.20384269866676,62.45520407643863&#10;c -66.26285714285714,-28.416 -40.777142857142856,99.456 -6.266817567008147,174.34479592356138 c 0.0,85.93909464835919 -25.485714285714288,194.76595619328438 12.747760314875386,161.61395619328437&#10;c 116.08185836768591,-28.416 147.5587145977098,0 147.5587145977098,75.18604380671565&#10;c 0,65.60197534897327 -56.99632557736677,94.01797534897327 -106.75720970854236,65.60197534897327&#10;c -66.26285714285714,-28.416 -40.777142857142856,99.456 -53.54926520404284,171.19802465102674 c -0.0,116.29492855391607 25.485714285714288,222.7346724969553 -95.37981977182758,189.5826724969553&#10;c -20.340290212332256,-28.416 -29.038386637701066,0 -29.038386637701066,47.217327503044714&#10;c 0,37.96693207682546 35.193472055189076,66.38293207682545 133.00144340176985,37.96693207682546&#10;c 66.26285714285714,-28.416 40.777142857142856,99.456 -8.583236992241197,198.83306792317455 c -0.0,80.42433352945275 25.485714285714288,206.46682832135687 -34.638733596597206,173.31482832135686&#10;c -72.1626858777599,-28.416 -89.70637076332085,0 -89.70637076332085,63.485171678643155&#10;c 0,54.76400609924184 80.70211734761128,83.18000609924184 118.66848106896933,54.76400609924184&#10;c 66.26285714285714,-28.416 40.777142857142856,99.456 5.676623290948726,182.03599390075817 c 0.0,73.7738642072247 -25.485714285714288,201.98817947709213 38.27194713682313,168.83617947709212&#10;c 91.14617384191011,-28.416 133.48836573762281,0 133.48836573762281,67.9638205229079&#10;c 0,71.15169392257894 -119.09291726396121,99.56769392257894 -168.9795971800485,71.15169392257894&#10;c -66.26285714285714,-28.416 -40.777142857142856,99.456 -2.7807156943974576,165.64830607742107 L 0 2368 " fill="none" stroke="black" stroke-width="0.1" style="vector-effect:non-scaling-stroke;" /></g></g><g><g><path d="M 0 0  L 0 473.600000  c 47.151654672355384,-0.0 228.5137252978645,23.680000000000003 192.8337252978645,-12.665457481780225&#10;c -30.582857142857144,-68.13010344392667 0,-128.8050345423794 62.02341755927836,-128.8050345423794&#10;c 60.357317499279446,0 90.94017464213658,56.844529473200765 60.357317499279446,72.94206992284202&#10;c -30.582857142857144,61.568000000000005 107.03999999999999,37.888000000000005 194.49982535786341,68.5284221013176 c 71.66781301351381,-0.0 249.06774865163044,23.680000000000003 213.38774865163043,-45.110525189791545&#10;c -30.582857142857144,-57.767769292856386 0,-79.51661555147719 41.46939420551243,-79.51661555147719&#10;c 62.947532915403116,0 93.53039005826025,31.539441104317856 62.947532915403116,42.51356353845853&#10;c -30.582857142857144,61.568000000000005 107.03999999999999,37.888000000000005 191.90960994173975,82.1135772028102 c 59.5739769390999,0.0 213.2373821993911,-23.680000000000003 177.5573821993911,4.050967438649392&#10;c -30.582857142857144,93.30621427527731 0,149.09050863505212 77.29976065775176,149.09050863505212&#10;c 81.02766234369719,0 111.61051948655432,-25.57937822383029 81.02766234369719,-73.39266441573429&#10;c -30.582857142857144,-61.568000000000005 107.03999999999999,-37.888000000000005 173.82948051344567,-79.74881165796722 c 91.01809988434978,0.0 227.40613537105867,-23.680000000000003 191.72613537105866,44.27634599295089&#10;c -30.582857142857144,71.53940189658216 0,92.10475451484743 63.1310074860842,92.10475451484743&#10;c 72.9000127408182,0 103.48286988367533,-46.25393655594123 72.9000127408182,-102.03770616317988&#10;c -30.582857142857144,-61.568000000000005 107.03999999999999,-37.888000000000005 181.95713011632466,-34.343394344618446 c 140.38605480680283,-0.0 220.06236291679173,23.680000000000003 184.38236291679172,-76.68768973757726&#10;c -30.582857142857144,-52.3855643448626 0,-66.14336603793173 70.47477994035114,-66.14336603793173&#10;c 73.32990088846341,0 103.91275803132055,75.60336060886483 73.32990088846341,82.12727703607193&#10;c -30.582857142857144,61.568000000000005 107.03999999999999,37.888000000000005 181.52724196867945,60.703778739437055 c 139.75018291732766,-0.0 234.1588655987071,23.680000000000003 198.4788655987071,-18.86312419781555&#10;c -30.582857142857144,-110.80749346516183 0,-133.08716894976882 56.37827725843576,-133.08716894976882&#10;c 40.29218712778621,0 70.87504427064334,15.559710613148203 40.29218712778621,49.640368573478426&#10;c -30.582857142857144,61.568000000000005 107.03999999999999,37.888000000000005 214.56495572935665,102.30992457410595 c 81.06996739029523,0.0 212.90907649728715,-23.680000000000003 177.22907649728714,72.87300056744554&#10;c -30.582857142857144,66.19714858373302 0,85.8436061767657 77.62806635985572,85.8436061767657&#10;c 71.02733766664753,0 101.61019480950466,-81.40020279275632 71.02733766664753,-81.30547919551799&#10;c -30.582857142857144,-61.568000000000005 107.03999999999999,-37.888000000000005 183.82980519049534,-77.41112754869326 L 3568 0 " fill="none" stroke="black" stroke-width="0.1" style="vector-effect:non-scaling-stroke;" /></g><g><path d="M 0 0  L 0 947.200000  c 100.60548361870362,-0.0 231.7738896922084,23.680000000000003 196.0938896922084,-6.42329841606552&#10;c -30.582857142857144,-46.64326077271855 0,-121.03657608311485 58.76325316493447,-121.03657608311485&#10;c 57.43768358451885,0 88.02054072737599,22.960048375161087 57.43768358451885,87.18046656510751&#10;c -30.582857142857144,61.568000000000005 107.03999999999999,37.888000000000005 197.419459272624,40.279407934072864 c 56.05721104411311,-0.0 213.5350570480081,23.680000000000003 177.8550570480081,-41.290670501830675&#10;c -30.582857142857144,-81.83214123179421 0,-82.2181260377856 77.00208580913477,-82.2181260377856&#10;c 39.24489869181244,0 69.82775583466957,110.7605579138605 39.24489869181244,126.84811440464178&#10;c -30.582857142857144,61.568000000000005 107.03999999999999,37.888000000000005 215.61224416533042,-3.3393178650255066 c 69.76531890735022,0.0 248.58573883668674,-23.680000000000003 212.90573883668674,87.88277233130094&#10;c -30.582857142857144,49.43395120457204 0,62.76351031996961 41.951404020456124,62.76351031996961&#10;c 48.09673264882687,0 78.67958979168401,-67.29292863206739 48.09673264882687,-93.38865075178697&#10;c -30.582857142857144,-61.568000000000005 107.03999999999999,-37.888000000000005 206.760410208316,-57.257631899483584 c 63.12879100747052,-0.0 241.7426793478974,23.680000000000003 206.0626793478974,-96.73669860715471&#10;c -30.582857142857144,-21.35049201096873 0,-53.66777071454014 48.794463509245475,-53.66777071454014&#10;c 59.87487658671594,0 90.45773372957308,50.45599403925229 59.87487658671594,52.67677486425268&#10;c -30.582857142857144,61.568000000000005 107.03999999999999,37.888000000000005 194.98226627042692,97.72769445744217 c 72.0456997662344,0.0 228.82416835829895,-23.680000000000003 193.14416835829894,-4.142591580466394&#10;c -30.582857142857144,73.4550324901336 0,148.24028181274593 61.71297449884392,148.24028181274593&#10;c 67.53197363263055,0 98.11483077548769,-42.97189956029126 67.53197363263055,-140.90939796260295&#10;c -30.582857142857144,-61.568000000000005 107.03999999999999,-37.888000000000005 187.3251692245123,-3.1882922696765945 c 60.6061318996844,0.0 239.33004209765866,-23.680000000000003 203.65004209765866,11.084997530760983&#10;c -30.582857142857144,124.44521683960424 0,149.3577330070122 51.207100759484206,149.3577330070122&#10;c 73.1501004131612,0 103.73295755601833,-143.9391207988109 73.1501004131612,-142.60502691048765&#10;c -30.582857142857144,-61.568000000000005 107.03999999999999,-37.888000000000005 181.70704244398166,-17.83770362728552 c 66.75983131922975,-0.0 248.88669513232074,23.680000000000003 213.20669513232073,-100.13215553431084&#10;c -30.582857142857144,-30.39994108977377 0,-59.79960005406761 41.65044772482213,-59.79960005406761&#10;c 45.58239872530092,0 76.16525586815806,18.384913201684977 45.58239872530092,63.3871969834796&#10;c -30.582857142857144,61.568000000000005 107.03999999999999,37.888000000000005 209.27474413184194,96.54455860489885 L 3568 0 " fill="none" stroke="black" stroke-width="0.1" style="vector-effect:non-scaling-stroke;" /></g><g><path d="M 0 0  L 0 1420.800000  c 143.02805934459195,-0.0 240.85844765057445,23.680000000000003 205.17844765057444,-93.09277531179542&#10;c -30.582857142857144,-19.74640882855399 0,-49.255856075099686 49.67869520656842,-49.255856075099686&#10;c 46.23054159460722,0 76.81339873746435,75.16345375653796 46.23054159460722,105.27729008904063&#10;c -30.582857142857144,61.568000000000005 107.03999999999999,37.888000000000005 208.62660126253564,37.071341297854474 c 97.59823640893158,0.0 215.64620350511044,-23.680000000000003 179.96620350511043,52.86520408726529&#10;c -30.582857142857144,43.104763222842536 0,105.58858431879082 74.89093935203243,105.58858431879082&#10;c 73.1398440713617,0 103.72270121421883,-101.73712589772938 73.1398440713617,-105.46638081698251&#10;c -30.582857142857144,-61.568000000000005 107.03999999999999,-37.888000000000005 181.71729878578117,-52.9874075890736 c 48.640666504448404,-0.0 230.80300427026427,23.680000000000003 195.12300427026426,-56.63086314851839&#10;c -30.582857142857144,-83.42915614739015 0,-89.98156738674143 59.7341385868786,-89.98156738674143&#10;c 76.99257115376045,0 107.57542829661759,59.81471691512292 76.99257115376045,150.06530715208484&#10;c -30.582857142857144,61.568000000000005 107.03999999999999,37.888000000000005 177.8645717033824,-3.452876616825023 c 136.10624676794,-0.0 252.60446344861074,23.680000000000003 216.92446344861074,-79.06081243819672&#10;c -30.582857142857144,-42.26361763524392 0,-73.09992004419415 37.932679408532124,-73.09992004419415&#10;c 77.28754589572341,0 107.87040303858055,136.09310062203 77.28754589572341,145.5215604650563&#10;c -30.582857142857144,61.568000000000005 107.03999999999999,37.888000000000005 177.56959696141945,6.639172017334573 c 79.0380406183519,-0.0 209.94815696060246,23.680000000000003 174.26815696060245,-57.56774474034904&#10;c -30.582857142857144,-32.551736372888506 0,-81.1212429389671 80.58898589654041,-81.1212429389671&#10;c 46.29385184546058,0 76.87670898831772,119.98956886178439 46.29385184546058,125.49848461216408&#10;c -30.582857142857144,61.568000000000005 107.03999999999999,37.888000000000005 208.56329101168228,13.190503067152065 c 31.63889278861948,0.0 223.76891390980114,-23.680000000000003 188.08891390980114,-4.258463416043065&#10;c -30.582857142857144,144.32300642780945 0,157.91186178000243 66.76822894734173,157.91186178000243&#10;c 70.73853748869615,0 101.32139463155329,-116.77683344039076 70.73853748869615,-163.01505218725634&#10;c -30.582857142857144,-61.568000000000005 107.03999999999999,-37.888000000000005 184.1186053684467,9.36165382329699 c 60.889869634455806,0.0 227.53056357735744,-23.680000000000003 191.85056357735743,30.435169641924844&#10;c -30.582857142857144,76.9583452561391 0,110.75150624134197 63.00657927978543,110.75150624134197&#10;c 65.86279776954862,0 96.44565491240576,-23.993323171354493 65.86279776954862,-47.472044066537876&#10;c -30.582857142857144,-61.568000000000005 107.03999999999999,-37.888000000000005 188.99434508759424,-93.71463181672894 L 3568 0 " fill="none" stroke="black" stroke-width="0.1" style="vector-effect:non-scaling-stroke;" /></g><g><path d="M 0 0  L 0 1894.400000  c 128.97107172818343,0.0 243.49172426341795,-23.680000000000003 207.81172426341794,40.30039108177477&#10;c -30.582857142857144,45.05341878259689 0,93.83083557595211 47.04541859372492,93.83083557595211&#10;c 58.506240389394435,0 89.08909753225157,-56.5522082368016 58.506240389394435,-86.87682016089471&#10;c -30.582857142857144,-61.568000000000005 107.03999999999999,-37.888000000000005 196.35090246774843,-47.25440649683216 c 35.297285474395885,0.0 230.4313867486385,-23.680000000000003 194.75138674863848,12.169310055629776&#10;c -30.582857142857144,39.514714722728634 0,148.78545177576595 60.10575610850438,148.78545177576595&#10;c 61.96783215125751,0 92.55068929411465,-34.30662042593541 61.96783215125751,-150.41677572956064&#10;c -30.582857142857144,-61.568000000000005 107.03999999999999,-37.888000000000005 192.88931070588535,-10.537986101835088 c 106.07746482858606,-0.0 212.3785929865112,23.680000000000003 176.6985929865112,5.309209547062079&#10;c -30.582857142857144,-109.8678518160598 0,-138.434458140625 78.15854987063167,-138.434458140625&#10;c 78.99969076758387,0 109.58254791044101,51.70266285732613 78.99969076758387,101.16452765748211&#10;c -30.582857142857144,61.568000000000005 107.03999999999999,37.888000000000005 175.857452089559,31.96072093608082 c 94.7230646824447,-0.0 242.83249568221046,23.680000000000003 207.15249568221046,-91.11483540909248&#10;c -30.582857142857144,-33.63694469520325 0,-59.58530657919266 47.704647174932404,-59.58530657919266&#10;c 49.00136551028007,0 79.5842226531372,58.9765577594976 49.00136551028007,148.506651368845&#10;c -30.582857142857144,61.568000000000005 107.03999999999999,37.888000000000005 205.8557773468628,2.1934906194401265 c 125.0077245132327,-0.0 223.58531720802543,23.680000000000003 187.90531720802542,-33.41030362224367&#10;c -30.582857142857144,-25.79288325365718 0,-102.77865731524875 66.95182564911744,-102.77865731524875&#10;c 58.249637638929556,0 88.83249478178669,26.81529340968436 58.249637638929556,39.749836547305236&#10;c -30.582857142857144,61.568000000000005 107.03999999999999,37.888000000000005 196.6075052182133,96.43912439018719 c 89.56535814195007,0.0 222.75594382823297,-23.680000000000003 187.07594382823297,89.64279976338173&#10;c -30.582857142857144,17.8645991560969 0,34.74399158388613 67.7811990289099,34.74399158388613&#10;c 62.464365856537455,0 93.04722299939459,-23.63797752024349 62.464365856537455,-61.42489037722753&#10;c -30.582857142857144,-61.568000000000005 107.03999999999999,-37.888000000000005 192.3927770006054,-62.96190097004033 c 130.93735864367645,0.0 233.97972969773122,-23.680000000000003 198.2997296977312,91.11026162073436&#10;c -30.582857142857144,9.959601242963828 0,40.007322138728725 56.55741315941165,40.007322138728725&#10;c 47.53081265381613,0 78.11366979667326,-45.12369500938437 47.53081265381613,-112.65811356911519&#10;c -30.582857142857144,-61.568000000000005 107.03999999999999,-37.888000000000005 207.32633020332673,-18.4594701903479 L 3568 0 " fill="none" stroke="black" stroke-width="0.1" style="vector-effect:non-scaling-stroke;" /></g></g></svg>