<svg baseProfile="full" height="1920" preserveAspectRatio="none" shape-rendering="geometricPrecision" version="1.1" viewBox="0,0,2560,1920" width="2560" xmlns="http://www.w3.org/2000/svg" xmlns:ev="http://www.w3.org/2001/xml-events" xmlns:xlink="http://www.w3.org/1999/xlink"><title>Jigsaw puzzle piece clips</title><desc>Created with the piecemaker. Piece count: 30</desc><defs/><g><g><rect fill="white" height="1920" width="2560" x="0" y="0"/></g></g><g><g><path d="M 0 0  L 426.666667 0  c 0.0,82.31800307791217 -21.333333333333336,169.71432194650492 27.077477212973864,142.83432194650493
c 28.337376084095155,-23.04 83.712556318775,0 83.712556318775,49.16567805349507
c 0,48.791513672520836 -47.395536496041224,71.83151367252083 -88.45187297202145,48.791513672520836
c -55.46666666666667,-23.04 -34.13333333333333,80.64 -22.338160559727413,143.20848632747916 c 0.0,26.700226934253923 -21.333333333333336,178.40955148225822 34.191833756734695,151.52955148225823
c 41.42388164667206,-23.04 103.85405829020911,0 103.85405829020911,40.47044851774177
c 0,30.518539250678657 -17.363424600013133,53.558539250678656 -64.9492250940626,30.518539250678657
c -55.46666666666667,-23.04 -34.13333333333333,80.64 -73.09666695288121,161.48146074932134 c 0.0,46.01598308308559 -21.333333333333336,190.41630169497907 32.87635871636689,163.53630169497907
c 25.74206091638097,-23.04 94.16388926158592,0 94.16388926158592,28.463698305020927
c 0,50.829843448773374 -73.7515024298473,73.86984344877337 -103.0401787013434,50.829843448773374
c -55.46666666666667,-23.04 -34.13333333333333,80.64 -24.000069276609423,141.17015655122663 c 0.0,59.73803231096261 -21.333333333333336,189.80908719618702 82.1602743582636,162.92908719618703
c 9.688166210375716,-23.04 39.618524350965856,0 39.618524350965856,29.070912803812973
c 0,40.644381527617156 -43.82904283180335,63.684381527617155 -45.162788880346255,40.644381527617156
c -55.46666666666667,-23.04 -34.13333333333333,80.64 -76.61600982888321,151.35561847238284 c 0.0,25.231399539335804 -21.333333333333336,191.67619831136577 30.0883862074712,164.79619831136577
c 49.73722360275354,-23.04 104.63507844185149,0 104.63507844185149,27.20380168863423
c 0,48.86090272647829 -93.26355258204389,71.90090272647828 -103.13433120353406,48.86090272647829
c -55.46666666666667,-23.04 -34.13333333333333,80.64 -31.589133445788633,143.1390972735217 L 0 1920 " fill="none" stroke="black" stroke-width="0.1" style="vector-effect:non-scaling-stroke;"/></g><g><path d="M 0 0  L 853.333333 0  c 0.0,57.80408608895427 -21.333333333333336,157.75302805282095 59.41638576881803,130.87302805282096
c 35.33013407567285,-23.04 75.57572281586886,0 75.57572281586886,61.126971947179044
c 0,59.043075940373086 -62.399000988550675,82.08307594037308 -87.17254795673023,59.043075940373086
c -55.46666666666667,-23.04 -34.13333333333333,80.64 -47.81956062795666,132.9569240596269 c 0.0,82.11118056363648 -21.333333333333336,158.1512389416129 27.012579258787984,131.2712389416129
c 55.36400534203577,-23.04 80.48330222002627,0 80.48330222002627,60.72876105838711
c 0,30.592636446786287 -24.623214264255406,53.632636446786286 -45.05981797561877,30.592636446786287
c -55.46666666666667,-23.04 -34.13333333333333,80.64 -62.436063503195484,161.4073635532137 c 0.0,99.29965936312615 -21.333333333333336,170.78770294049275 62.46540812739002,143.90770294049275
c 17.936210967640992,-23.04 52.774873727461156,0 52.774873727461156,48.092297059507246
c 0,54.78538289759649 -72.53262976150074,77.82538289759648 -75.00756366112705,54.78538289759649
c -55.46666666666667,-23.04 -34.13333333333333,80.64 -40.232718193724125,137.2146171024035 c -0.0,101.5581436389502 21.333333333333336,164.99501979492422 -40.94229529910607,138.11501979492422
c -45.43674535842084,-23.04 -71.42791726052297,0 -71.42791726052297,53.88498020507578
c 0,39.13328155136 8.276779311909603,62.17328155136 36.74203682804905,39.13328155136
c 55.46666666666667,-23.04 34.13333333333333,80.64 75.62817573157999,152.86671844864 c 0.0,26.396768085002904 -21.333333333333336,159.03833547794648 44.07463411988296,132.15833547794648
c 30.191550846287512,-23.04 85.47603428664102,0 85.47603428664102,59.84166452205352
c 0,59.477971066381826 -59.897318218509106,82.51797106638182 -93.77895883819303,59.477971066381826
c -55.46666666666667,-23.04 -34.13333333333333,80.64 -35.77170956833095,132.52202893361817 L 0 1920 " fill="none" stroke="black" stroke-width="0.1" style="vector-effect:non-scaling-stroke;"/></g><g><path d="M 0 0  L 1280.000000 0  c 0.0,63.071266570834794 -21.333333333333336,181.01768896344606 70.07503771095341,154.13768896344607
c 49.13362358518038,-23.04 70.36925085570815,0 70.36925085570815,37.86231103655393
c 0,50.165299112851216 -73.64161376276238,73.20529911285121 -74.62420969021613,50.165299112851216
c -55.46666666666667,-23.04 -34.13333333333333,80.64 -65.82007887644542,141.83470088714878 c 0.0,43.91553901678081 -21.333333333333336,187.72996736325447 -0.2961210567190816,160.84996736325448
c 75.64795750727993,-23.04 104.12933189000512,0 104.12933189000512,31.15003263674552
c 0,51.11814403944413 -37.001690601708326,74.15814403944412 -54.29410278824358,51.11814403944413
c -55.46666666666667,-23.04 -34.13333333333333,80.64 -49.539108045042454,140.88185596055587 c -0.0,38.7027426051077 21.333333333333336,180.15029750986298 5.303642068860674,153.27029750986298
c -34.938597001864316,-23.04 -120.89226191260579,0 -120.89226191260579,38.729702490137015
c 0,30.52145298171689 33.273202341162765,53.56145298171689 94.54899468878628,30.52145298171689
c 55.46666666666667,-23.04 34.13333333333333,80.64 21.03962515495884,161.4785470182831 c -0.0,49.377499680817245 21.333333333333336,167.54459201252274 -44.40488867448955,140.66459201252275
c -18.240174257651123,-23.04 -60.51817752532295,0 -60.51817752532295,51.335407987477254
c 0,52.70719521873127 61.69259081321505,75.74719521873126 77.40089740130044,52.70719521873127
c 55.46666666666667,-23.04 34.13333333333333,80.64 27.522168798512055,139.29280478126873 c -0.0,76.37198046039978 21.333333333333336,184.0739004863549 -32.721569078759956,157.1939004863549
c -31.684209977449317,-23.04 -93.8381474120818,0 -93.8381474120818,34.80609951364511
c 0,28.72773492747666 49.71527742128281,51.76773492747666 99.28238769694232,28.72773492747666
c 55.46666666666667,-23.04 34.13333333333333,80.64 27.27732879389943,163.27226507252334 L 0 1920 " fill="none" stroke="black" stroke-width="0.1" style="vector-effect:non-scaling-stroke;"/></g><g><path d="M 0 0  L 1706.666667 0  c 0.0,89.30850386446983 -21.333333333333336,179.0975421554424 50.335056763487145,152.2175421554424
c 50.444753643527974,-23.04 53.36677720450844,0 53.36677720450844,39.7824578445576
c 0,59.08357060667305 -60.81400749076199,82.12357060667304 -98.43560419208549,59.08357060667305
c -55.46666666666667,-23.04 -34.13333333333333,80.64 -5.266229775910091,132.91642939332695 c 0.0,49.02877259127744 -21.333333333333336,189.52674394738784 2.5464584078968784,162.64674394738785
c 81.35104004985934,-23.04 132.06970283342304,0 132.06970283342304,29.353256052612153
c 0,51.54123656901356 -20.82046075543586,74.58123656901356 -50.38171480975417,51.54123656901356
c -55.46666666666667,-23.04 -34.13333333333333,80.64 -84.23444643156573,140.45876343098644 c -0.0,96.09967503462379 21.333333333333336,165.76948508525834 -16.729074696577865,138.88948508525834
c -34.3492151770981,-23.04 -112.16610449712857,0 -112.16610449712857,53.11051491474166
c 0,32.67336383631147 49.47954714042071,55.713363836311466 55.76749818556421,32.67336383631147
c 55.46666666666667,-23.04 34.13333333333333,80.64 73.12768100814223,159.32663616368853 c -0.0,36.30171400405227 21.333333333333336,175.56916173613115 -66.98666294744085,148.68916173613115
c -16.823696427916094,-23.04 -56.35614550254047,0 -56.35614550254047,43.310838263868845
c 0,42.55258940191953 90.89666768157893,65.59258940191953 98.18640130715842,42.55258940191953
c 55.46666666666667,-23.04 34.13333333333333,80.64 25.1564071428229,149.44741059808047 c 0.0,25.457706375029545 -21.333333333333336,169.7334048708063 21.164794826843607,142.85340487080632
c 36.94742934679813,-23.04 111.42181020442388,0 111.42181020442388,49.146595129193685
c 0,30.076187278749785 -23.204365589557767,53.116187278749784 -110.02118967930336,30.076187278749785
c -55.46666666666667,-23.04 -34.13333333333333,80.64 -22.56541535196412,161.92381272125021 L 0 1920 " fill="none" stroke="black" stroke-width="0.1" style="vector-effect:non-scaling-stroke;"/></g><g><path d="M 0 0  L 2133.333333 0  c 0.0,109.87433425271198 -21.333333333333336,191.81251712527012 68.0267856430511,164.93251712527012
c 21.245272996341413,-23.04 57.81804193245321,0 57.81804193245321,27.067482874729876
c 0,42.71842762918624 -66.32347427686277,65.75842762918623 -114.67755513323705,42.71842762918624
c -55.46666666666667,-23.04 -34.13333333333333,80.64 -11.167272442267262,149.28157237081376 c 0.0,75.63843326593835 -21.333333333333336,163.20148111319324 40.9658410863078,136.32148111319324
c 32.63416721588961,-23.04 88.54273403705398,0 88.54273403705398,55.678518886806756
c 0,60.147515556675046 -33.88159505996609,83.18751555667504 -77.16409704884612,60.147515556675046
c -55.46666666666667,-23.04 -34.13333333333333,80.64 -52.34447807451565,131.85248444332495 c -0.0,108.57478589864613 21.333333333333336,179.5442460553313 -53.13158431388259,152.66424605533132
c -64.41747202909585,-23.04 -69.1676860736712,0 -69.1676860736712,39.33575394466868
c 0,50.280007542278724 17.655932646192692,73.32000754227872 38.955044200498676,50.280007542278724
c 55.46666666666667,-23.04 34.13333333333333,80.64 83.34422618705513,141.71999245772128 c 0.0,71.98762071287676 -21.333333333333336,163.24686659813736 53.766043764867725,136.36686659813736
c 61.26720309276075,-23.04 91.21096279818596,0 91.21096279818596,55.633133401862636
c 0,45.234316571758825 -39.05620353674103,68.27431657175882 -125.39539006848491,45.234316571758825
c -55.46666666666667,-23.04 -34.13333333333333,80.64 -19.581616494568777,146.76568342824118 c -0.0,110.2526247863741 21.333333333333336,169.82045552242187 -4.34684920488825,142.94045552242187
c -101.96768728360372,-23.04 -105.8774098546033,0 -105.8774098546033,49.05954447757813
c 0,52.69814076495453 83.90976830598741,75.73814076495452 84.06586303101261,52.69814076495453
c 55.46666666666667,-23.04 34.13333333333333,80.64 26.158396028478933,139.30185923504547 L 0 1920 " fill="none" stroke="black" stroke-width="0.1" style="vector-effect:non-scaling-stroke;"/></g></g><g><g><path d="M 0 0  L 0 384.000000  c 29.918933701917883,0.0 197.7716296452828,-19.200000000000003 167.9049629786161,56.12377715742738
c -25.6,60.58783583250997 0,68.27285024701999 45.42837035471723,68.27285024701999
c 50.34201544547162,0 75.94201544547161,-19.944188352487693 50.34201544547162,-60.91727738705812
c -25.6,-49.92 89.6,-30.72 162.99131788786173,-63.47935001738925 c 28.933791860538552,0.0 199.27260483161655,-19.200000000000003 169.40593816494987,-4.280685490348343
c -25.6,53.45424856262255 0,134.05356090216966 43.92739516838347,134.05356090216966
c 46.65864790580176,0 72.25864790580175,-57.455159815639725 46.65864790580176,-85.0607861013061
c -25.6,-49.92 89.6,-30.72 166.67468542753159,-44.712089310515225 c 95.8499971757294,-0.0 205.74767851801795,19.200000000000003 175.88101185135127,-33.65074399040448
c -25.6,-31.160888565795567 0,-89.6559279701067 37.45232148198207,-89.6559279701067
c 30.408947706376694,0 56.008947706376695,67.88508167829454 30.408947706376694,69.23520028235009
c -25.6,49.92 89.6,30.72 182.92438562695665,54.07147167816109 c 83.81873889883309,-0.0 188.250839610903,19.200000000000003 158.38417294423633,-70.2931500486379
c -25.6,-21.129283931251337 0,-34.14458550944883 54.94916038909702,-34.14458550944883
c 40.5172196385997,0 66.11721963859969,45.0690084953638 40.5172196385997,48.665218840283075
c -25.6,49.92 89.6,30.72 172.81611369473364,55.772516717803654 c 109.57293625080375,-0.0 212.63909879486533,19.200000000000003 182.77243212819866,-0.9418735572472228
c -25.6,-107.2078047864828 0,-119.93490969790156 30.560901205134684,-119.93490969790156
c 34.009413868878596,0 59.6094138688786,63.99688990473451 34.009413868878596,79.37698452964952
c -25.6,49.92 89.6,30.72 179.32391946445475,41.49979872549926 c 123.389543956348,-0.0 204.25624471752545,19.200000000000003 174.38957805085877,-37.3263430941733
c -25.6,-39.2605796054153 0,-84.99503071910013 38.94375528247457,-84.99503071910013
c 65.85675737506293,0 91.45675737506292,43.672170075446296 65.85675737506293,47.91039556367983
c -25.6,49.92 89.6,30.72 147.47657595827042,74.4109782495936 L 2560 0 " fill="none" stroke="black" stroke-width="0.1" style="vector-effect:non-scaling-stroke;"/></g><g><path d="M 0 0  L 0 768.000000  c 27.1307974664669,-0.0 182.9540751785389,19.200000000000003 153.0874085118722,-46.90729859009262
c -25.6,-43.922935253899546 0,-76.94299330791542 60.24592482146113,-76.94299330791542
c 32.92064116868693,0 58.52064116868693,66.15398242296388 32.92064116868693,97.70970750238558
c -25.6,49.92 89.6,30.72 180.41269216464642,26.140584395622454 c 103.2683978156661,0.0 203.39375421430262,-19.200000000000003 173.52708754763594,4.3445262771495905
c -25.6,68.25660674470792 0,100.8478287409311 39.8062457856974,100.8478287409311
c 48.054510280754556,0 73.65451028075455,-10.99568414906361 48.054510280754556,-21.794071768091143
c -25.6,-49.92 89.6,-30.72 165.2788230525788,-83.39828324998955 c 45.51486397783193,-0.0 207.4372901738789,19.200000000000003 177.57062350721222,-55.92805652705588
c -25.6,-43.05221059125503 0,-54.55392331503972 35.762709826121124,-54.55392331503972
c 51.28106396663813,0 76.88106396663812,52.46369440059331 51.28106396663813,94.09288291615849
c -25.6,49.92 89.6,30.72 162.0522693666952,16.38909692593711 c 58.61331742160393,-0.0 193.3083593839291,19.200000000000003 163.4416927172624,-15.694536234180697
c -25.6,-28.620580458758003 0,-85.85148769127181 49.89164061607093,-85.85148769127181
c 63.15904137753708,0 88.75904137753707,70.32179560696594 63.15904137753708,78.87370232572019
c -25.6,49.92 89.6,30.72 150.17429195579626,22.672321599732328 c 31.738405364776302,-0.0 211.67493483587026,19.200000000000003 181.8082681692036,-46.236026425128784
c -25.6,-17.020403329159183 0,-71.30966954007623 31.525065164129757,-71.30966954007623
c 29.948381342994566,0 55.54838134299457,57.023112955832836 29.948381342994566,106.41734727880564
c -25.6,49.92 89.6,30.72 183.38495199033878,11.128348686399377 c 96.97090082129087,0.0 197.20414231759113,-19.200000000000003 167.33747565092446,1.6127983294603503
c -25.6,30.298556421578443 0,103.10674288197083 45.99585768240888,103.10674288197083
c 43.361343639602154,0 68.96134363960215,-80.11223248589248 43.361343639602154,-85.66643087491812
c -25.6,-49.92 89.6,-30.72 169.9719896937312,-19.053110336513058 L 2560 0 " fill="none" stroke="black" stroke-width="0.1" style="vector-effect:non-scaling-stroke;"/></g><g><path d="M 0 0  L 0 1152.000000  c 30.04222562361594,-0.0 176.99613209572937,19.200000000000003 147.1294654290627,-29.954540194712905
c -25.6,-64.23521105741534 0,-100.51550651644433 66.20386790427065,-100.51550651644433
c 62.63664110605609,0 88.23664110605608,60.441302505569986 62.63664110605609,103.88505401397799
c -25.6,49.92 89.6,30.72 150.69669222727725,26.584992697179246 c 88.17099616215137,-0.0 190.92049228117676,19.200000000000003 161.0538256145101,-64.87663128809935
c -25.6,-38.69014325285532 0,-50.194023129309144 52.279507718823254,-50.194023129309144
c 68.18621562765694,0 93.78621562765693,30.850315856318787 68.18621562765694,32.100768025906916
c -25.6,49.92 89.6,30.72 145.1471177056764,82.96988639150157 c 106.89229129018162,0.0 208.7498227688702,-19.200000000000003 178.88315610220351,63.14538559256125
c -25.6,21.517462621668464 0,37.825611038088816 34.45017723112983,37.825611038088816
c 30.22762583161608,0 55.82762583161608,-47.83751441398646 30.22762583161608,-52.74821183996413
c -25.6,-49.92 89.6,-30.72 183.10570750171726,-48.222784790685935 c 121.71111623916867,-0.0 204.24186275795321,19.200000000000003 174.37519609128654,-55.04468947439747
c -25.6,-13.569709053034655 0,-53.19537989448574 38.9581372420468,-53.19537989448574
c 62.22016951702804,0 87.82016951702803,13.550311715790615 62.22016951702804,30.3481971887676
c -25.6,49.92 89.6,30.72 151.1131638163053,77.89187218011561 c 37.9350615742733,-0.0 197.09661424710328,19.200000000000003 167.2299475804366,-17.83861567082802
c -25.6,-97.58709599324388 0,-110.00460325255645 46.10338575289674,-110.00460325255645
c 39.04667450708544,0 64.64667450708544,57.289274717679135 39.04667450708544,93.35962352477333
c -25.6,49.92 89.6,30.72 174.2866588262479,34.48359539861114 c 66.33031228945498,0.0 199.62844005823783,-19.200000000000003 169.76177339157115,46.68554758609882
c -25.6,42.82284022079088 0,46.17244361231525 43.57155994176219,46.17244361231525
c 49.88588847724762,0 75.48588847724761,-21.049334140445488 49.88588847724762,-64.61341700560328
c -25.6,-49.92 89.6,-30.72 163.44744485608572,-28.244574192810788 L 2560 0 " fill="none" stroke="black" stroke-width="0.1" style="vector-effect:non-scaling-stroke;"/></g><g><path d="M 0 0  L 0 1536.000000  c 29.943239258377126,0.0 199.6162927928166,-19.200000000000003 169.74962612614993,24.949855814914965
c -25.6,21.109513621007057 0,88.3506445648711 43.58370720718341,88.3506445648711
c 42.66638637138166,0 68.26638637138166,-38.56935752613062 42.66638637138166,-104.62538202943246
c -25.6,-49.92 89.6,-30.72 170.66694696195168,-8.675118350353614 c 81.45231904927104,0.0 200.09041804644224,-19.200000000000003 170.22375137977556,16.957568243502614
c -25.6,68.31412935964336 0,86.65175574701394 43.10958195355778,86.65175574701394
c 38.94412148698103,0 64.54412148698103,-39.792579822567575 38.94412148698103,-54.77034898331623
c -25.6,-49.92 89.6,-30.72 174.3892118463523,-48.83897500720031 c 92.22863287192378,-0.0 201.38354648991194,19.200000000000003 171.51687982324526,-61.086721818278974
c -25.6,-28.28230776872499 0,-40.8933135254385 41.81645351008808,-40.8933135254385
c 33.722018680753564,0 59.322018680753565,24.416717389393604 33.722018680753564,83.86002611737118
c -25.6,49.92 89.6,30.72 179.61131465257978,18.120009226346298 c 90.02261733092705,-0.0 191.82547817203272,19.200000000000003 161.95881150536604,-34.45582869353334
c -25.6,-54.62540880035308 0,-66.04843493656344 51.3745218279673,-66.04843493656344
c 52.20835344150291,0 77.8083534415029,26.720309159030666 52.20835344150291,52.46652984325423
c -25.6,49.92 89.6,30.72 161.12497989183044,48.037733786842544 c 91.0312919935827,-0.0 201.97509782104598,19.200000000000003 172.1084311543793,-26.209878248598244
c -25.6,-44.88886378487575 0,-73.31489808485594 41.22490217895404,-73.31489808485594
c 38.97012310765794,0 64.57012310765793,47.72555525566315 38.97012310765794,64.58266927222454
c -25.6,49.92 89.6,30.72 174.3632102256754,34.94210706122965 c 58.36109114077907,-0.0 193.41655921372197,19.200000000000003 163.5498925470553,-51.55003312127246
c -25.6,-45.768466174158284 0,-47.66131910490287 49.78344078627805,-47.66131910490287
c 54.99349828945313,0 80.59349828945312,87.90944029461126 54.99349828945313,88.14826518371217
c -25.6,49.92 89.6,30.72 158.3398350438802,11.063087042463167 L 2560 0 " fill="none" stroke="black" stroke-width="0.1" style="vector-effect:non-scaling-stroke;"/></g></g></svg>