<svg baseProfile="full" height="3333" preserveAspectRatio="none" shape-rendering="geometricPrecision" version="1.1" viewBox="0,0,5000,3333" width="5000" xmlns="http://www.w3.org/2000/svg" xmlns:ev="http://www.w3.org/2001/xml-events" xmlns:xlink="http://www.w3.org/1999/xlink"><title>Jigsaw puzzle piece clips</title><desc>Created with the piecemaker. Piece count: 35</desc><defs/><g><g><rect fill="white" height="3333" width="5000" x="0" y="0"/></g></g><g><g><path d="M 0 0  L 714.285714 0  c -0.0,98.75517657660785 35.714285714285715,326.43584177593493 -150.3259683746317,279.77384177593495
c -53.5370996172833,-39.996 -86.30999715909056,0 -86.30999715909056,53.52615822406506
c 0,106.53513825566836 117.60224384816492,146.53113825566837 156.22144398654444,106.53513825566836
c 92.85714285714286,-39.996 57.142857142857146,139.986 80.41452154717783,226.76486174433165 c -0.0,112.63450050844861 35.714285714285715,294.86162667707623 -139.19792601626955,248.19962667707622
c -82.43205602589758,-39.996 -97.20897780527807,0 -97.20897780527807,85.10037332292379
c 0,82.83365865974037 152.45354323711769,122.82965865974037 226.69012065087702,82.83365865974037
c 92.85714285714286,-39.996 57.142857142857146,139.986 9.716783170670595,250.46634134025965 c 0.0,48.357394540351855 -35.714285714285715,317.4672955003334 113.06109012206556,270.8052955003334
c 34.478876452943524,-39.996 109.5964865330485,0 109.5964865330485,62.494704499666625
c 0,99.55238812649634 -41.29679634573558,139.54838812649635 -153.5495905680434,99.55238812649634
c -92.85714285714286,-39.996 -57.142857142857146,139.986 -69.10798608707066,233.74761187350367 c -0.0,39.40084677033886 35.714285714285715,307.29978472472465 -78.13311850008756,260.63778472472467
c -56.87541731619508,-39.996 -114.17821946533647,0 -114.17821946533647,72.66221527527534
c 0,85.87199353692307 89.275051528007,125.86799353692308 163.27855190904887,85.87199353692307
c 92.85714285714286,-39.996 57.142857142857146,139.986 29.03278605637516,247.42800646307694 c -0.0,141.1647592507595 35.714285714285715,287.89105910374815 -9.267087838091392,241.22905910374817
c -132.20824191968447,-39.996 -186.61330691680638,0 -186.61330691680638,92.07094089625184
c 0,73.3881178154054 86.53723152728122,113.3841178154054 93.303350156038,73.3881178154054
c 92.85714285714286,-39.996 57.142857142857146,139.986 102.57704459885977,259.9118821845946 L 0 3333 " fill="none" stroke="black" stroke-width="0.1" style="vector-effect:non-scaling-stroke;"/></g><g><path d="M 0 0  L 1428.571429 0  c 0.0,176.13868154836695 -35.714285714285715,287.25532219550445 84.29789579927619,240.59332219550444
c 102.11925237674762,-39.996 154.30534368100223,0 154.30534368100223,92.70667780449557
c 0,80.83216875468173 -62.50272562684278,120.82816875468174 -119.55792137368583,80.83216875468173
c -92.85714285714286,-39.996 -57.142857142857146,139.986 -119.0453181065926,252.46783124531828 c -0.0,129.36302121941762 35.714285714285715,294.6008214168485 -147.66470391461385,247.93882141684844
c -16.89289850040631,-39.996 -61.02278353266786,0 -61.02278353266786,85.36117858315157
c 0,80.90569310523813 85.40850046801917,120.90169310523814 181.28115635313165,80.90569310523813
c 92.85714285714286,-39.996 57.142857142857146,139.986 27.40633109415006,252.39430689476188 c 0.0,50.03288239326194 -35.714285714285715,316.82832091657156 89.02130778832581,270.1663209165716
c 54.45732222976114,-39.996 85.83327549772021,0 85.83327549772021,63.13367908342843
c 0,105.9324930480584 -49.09222432883631,145.9284930480584 -108.56439058344588,105.9324930480584
c -92.85714285714286,-39.996 -57.142857142857146,139.986 -66.29019270260014,227.3675069519416 c -0.0,99.57298048831287 35.714285714285715,332.1573461575149 3.520216264422282,285.49534615751486
c -207.1108251832258,-39.996 -245.28339387435665,0 -245.28339387435665,47.80465384248515
c 0,69.18190411949797 78.41912590166122,109.17790411949798 92.10884008139575,69.18190411949797
c 92.85714285714286,-39.996 57.142857142857146,139.986 149.6543375285386,264.11809588050204 c 0.0,70.18706352251871 -35.714285714285715,321.28873964387174 87.7497896505731,274.6267396438717
c 27.634403157757212,-39.996 103.2046850702843,0 103.2046850702843,58.67326035612831
c 0,88.38138469765232 -64.18474317865389,128.37738469765233 -125.6366397886166,88.38138469765232
c -92.85714285714286,-39.996 -57.142857142857146,139.986 -65.3178349322408,244.9186153023477 L 0 3333 " fill="none" stroke="black" stroke-width="0.1" style="vector-effect:non-scaling-stroke;"/></g><g><path d="M 0 0  L 2142.857143 0  c 0.0,152.45467779955914 -35.714285714285715,286.7280063412794 124.35293473041537,240.06600634127938
c 81.27363337397283,-39.996 104.39317142493101,0 104.39317142493101,93.23399365872064
c 0,100.3535582769714 -50.70662600578157,140.3495582769714 -72.30011152466898,100.3535582769714
c -92.85714285714286,-39.996 -57.142857142857146,139.986 -156.4459946306774,232.9464417230286 c -0.0,108.47718951791992 35.714285714285715,296.87826175857924 -127.71679510000156,250.21626175857924
c -89.86121626213094,-39.996 -94.488464044016,0 -94.488464044016,83.08373824142078
c 0,54.668304830772115 20.913472997551004,94.66430483077212 78.97585424875015,54.668304830772115
c 92.85714285714286,-39.996 57.142857142857146,139.986 143.2294048952674,278.6316951692279 c 0.0,175.11057508999417 -35.714285714285715,321.0268989449496 155.22174593689203,274.36489894494963
c 43.95213186986191,-39.996 60.35118356796045,0 60.35118356796045,58.93510105505038
c 0,97.21223021969564 -30.456079248439643,137.20823021969565 -86.80640896584913,97.21223021969564
c -92.85714285714286,-39.996 -57.142857142857146,139.986 -128.76652053900335,236.08776978030437 c -0.0,45.10779882499135 35.714285714285715,332.43585694074716 -67.37882483183049,285.7738569407472
c -50.045252034082694,-39.996 -166.28268737491504,0 -166.28268737491504,47.52614305925283
c 0,66.23748646541281 145.6793191596161,106.23348646541282 178.48683032872648,66.23748646541281
c 92.85714285714286,-39.996 57.142857142857146,139.986 55.174681878019044,267.0625135345872 c 0.0,33.4046545456441 -35.714285714285715,273.84277323285914 143.56718094935104,227.1807732328591
c 16.743721756288053,-39.996 35.742871680336236,0 35.742871680336236,106.1192267671409
c 0,74.60715408052789 -166.20077797569522,114.6031540805279 -173.0766513750201,74.60715408052789
c -92.85714285714286,-39.996 -57.142857142857146,139.986 -6.2334012546671715,258.6928459194721 L 0 3333 " fill="none" stroke="black" stroke-width="0.1" style="vector-effect:non-scaling-stroke;"/></g><g><path d="M 0 0  L 2857.142857 0  c -0.0,117.92798643129579 35.714285714285715,332.24737636348846 -4.356081904519618,285.5853763634885
c -115.50036948231903,-39.996 -206.72529168566652,0 -206.72529168566652,47.71462363651153
c 0,50.52728676026044 36.72776227747897,90.52328676026045 173.05366826611154,50.52728676026044
c 92.85714285714286,-39.996 57.142857142857146,139.986 38.02770532407459,282.7727132397396 c -0.0,134.0245408260736 35.714285714285715,273.4288180159027 -37.39652922107925,226.7668180159027
c -43.98045608173254,-39.996 -197.17251267269603,0 -197.17251267269603,106.53318198409733
c 0,79.84764395874282 85.58982806126127,119.84364395874283 111.04361013127841,79.84764395874282
c 92.85714285714286,-39.996 57.142857142857146,139.986 123.52543176249686,253.4523560412572 c -0.0,127.71883431450188 35.714285714285715,311.693618859489 -74.91286128394565,265.031618859489
c -108.14566973197036,-39.996 -144.20195466726693,0 -144.20195466726693,68.268381140511
c 0,95.71033470791053 159.5777204976134,135.70633470791054 166.19243968345737,95.71033470791053
c 92.85714285714286,-39.996 57.142857142857146,139.986 52.9223762677552,237.58966529208948 c 0.0,152.13151952836094 -35.714285714285715,302.4830774169262 31.983613519354293,255.82107741692624
c 141.82106472738968,-39.996 195.36551056930801,0 195.36551056930801,77.47892258307377
c 0,65.54770209671676 -225.77851959064202,105.54370209671677 -226.21817488158104,65.54770209671676
c -92.85714285714286,-39.996 -57.142857142857146,139.986 -1.1309492070812723,267.75229790328325 c 0.0,82.98763701974083 -35.714285714285715,300.876106421946 143.46853743536417,254.214106421946
c 34.46602242885298,-39.996 44.606025362284754,0 44.606025362284754,79.085893578054
c 0,89.2538719338504 -180.39468265991098,129.24987193385041 -198.63738342643478,89.2538719338504
c -92.85714285714286,-39.996 -57.142857142857146,139.986 10.562820628785857,244.0461280661496 L 0 3333 " fill="none" stroke="black" stroke-width="0.1" style="vector-effect:non-scaling-stroke;"/></g><g><path d="M 0 0  L 3571.428571 0  c 0.0,89.48322618444831 -35.714285714285715,312.0060059217693 -10.759778918754755,265.34400592176934
c 68.69518822847117,-39.996 220.92429268241975,0 220.92429268241975,67.95599407823067
c 0,52.58333080539626 -59.90251379143371,92.57933080539627 -156.50596186958018,52.58333080539626
c -92.85714285714286,-39.996 -57.142857142857146,139.986 -53.65855189408481,280.71666919460375 c -0.0,109.91011733092061 35.714285714285715,279.13479676536235 -44.53439650529845,232.47279676536232
c -115.98188608473467,-39.996 -127.50486146399021,0 -127.50486146399021,100.8272032346377
c 0,55.74581711118361 16.24570409994768,95.74181711118362 22.807111450519614,55.74581711118361
c 92.85714285714286,-39.996 57.142857142857146,139.986 149.23214651876904,277.5541828888164 c -0.0,135.20533057175157 35.714285714285715,276.86375327689314 -65.41658007574613,230.20175327689313
c -125.84857096256651,-39.996 -148.82736256160342,0 -148.82736256160342,103.09824672310688
c 0,56.540846162358434 37.22879151889085,96.53684616235844 116.78957456129606,56.540846162358434
c 92.85714285714286,-39.996 57.142857142857146,139.986 97.4543680760535,276.7591538376416 c 0.0,87.19921007306155 -35.714285714285715,287.83244769098195 29.616249464936296,241.17044769098194
c 69.56847769519001,-39.996 184.35967971505744,0 184.35967971505744,92.12955230901807
c 0,47.429114550569125 -21.01878020589741,87.42511455056913 -60.549348397305096,47.429114550569125
c -92.85714285714286,-39.996 -57.142857142857146,139.986 -153.42658078268863,285.8708854494309 c -0.0,112.96599198549612 35.714285714285715,324.1959123447198 -78.00980292793776,277.5339123447198
c -28.245006841228083,-39.996 -127.15642820004143,0 -127.15642820004143,55.76608765528022
c 0,89.73219443081553 42.155845537640545,129.72819443081553 84.79985755056262,89.73219443081553
c 92.85714285714286,-39.996 57.142857142857146,139.986 120.36637357741657,243.5678055691845 L 0 3333 " fill="none" stroke="black" stroke-width="0.1" style="vector-effect:non-scaling-stroke;"/></g><g><path d="M 0 0  L 4285.714286 0  c -0.0,149.37325970828974 35.714285714285715,318.86645744761915 -52.67309135458879,272.2044574476192
c -132.09147341073069,-39.996 -135.72361392494386,0 -135.72361392494386,61.095542552380834
c 0,61.19373557120372 39.330514134936536,101.18973557120373 132.69454938147575,61.19373557120372
c 92.85714285714286,-39.996 57.142857142857146,139.986 55.7021558980569,272.1062644287963 c -0.0,165.03004599422408 35.714285714285715,282.3417510490965 -64.57114620637816,235.67975104909647
c -113.83126570459652,-39.996 -172.27221770827137,0 -172.27221770827137,97.62024895090354
c 0,50.24437262228406 156.26117441742883,90.24037262228407 207.18452744546414,50.24437262228406
c 92.85714285714286,-39.996 57.142857142857146,139.986 29.65883646918539,283.05562737771595 c -0.0,56.063648137772724 35.714285714285715,302.5603936313149 -11.80037356466124,255.8983936313149
c -170.75742983966677,-39.996 -175.9728270618563,0 -175.9728270618563,77.40160636868512
c 0,104.28686440207633 82.4817939084056,144.28286440207634 122.77257533241075,104.28686440207633
c 92.85714285714286,-39.996 57.142857142857146,139.986 65.00062529410678,229.01313559792368 c -0.0,175.5051924707102 35.714285714285715,285.88698418970114 -139.72049298577403,239.22498418970113
c -19.54131454341637,-39.996 -64.54225542162013,0 -64.54225542162013,94.07501581029888
c 0,69.62419461577576 20.39510925792425,109.62019461577577 57.22483940260841,69.62419461577576
c 92.85714285714286,-39.996 57.142857142857146,139.986 147.03790900478575,263.67580538422425 c 0.0,74.34360656906603 -35.714285714285715,324.37986670702765 15.378053426835423,277.71786670702767
c 126.10360681625342,-39.996 172.46826116566743,0 172.46826116566743,55.582133292972344
c 0,77.85163791017192 -163.29453378677104,117.84763791017193 -172.1030568034486,77.85163791017192
c -92.85714285714286,-39.996 -57.142857142857146,139.986 -15.743257789054269,255.4483620898281 L 0 3333 " fill="none" stroke="black" stroke-width="0.1" style="vector-effect:non-scaling-stroke;"/></g></g><g><g><path d="M 0 0  L 0 666.600000  c 97.25999239381105,0.0 316.6148786215837,-33.330000000000005 266.6148786215837,51.119913760698886
c -42.85714285714286,98.45049194727797 0,142.5156581081236 90.52797852127344,142.5156581081236
c 54.74389039532622,0 97.60103325246908,-67.63197681240118 54.74389039532622,-71.95235152031536
c -42.85714285714286,-86.658 150.0,-53.328 302.39896674753095,-121.68322034850713 c 115.29059128476905,-0.0 315.5111398627268,33.330000000000005 265.5111398627268,-10.863129143269948
c -42.85714285714286,-73.17446483664553 0,-166.8950721135324 91.63171728013037,-166.8950721135324
c 82.8526171206243,0 125.70975997776716,95.91821582868282 82.8526171206243,173.73513035272782
c -42.85714285714286,86.658 150.0,53.328 274.29024002223287,4.02307090407453 c 164.92618240224894,0.0 325.90545211619184,-33.330000000000005 275.90545211619184,88.78271570211858
c -42.85714285714286,37.585519107913534 0,110.64761548703659 81.23740502666533,110.64761548703659
c 103.02357077015148,0 145.88071362729434,-123.96989364413659 103.02357077015148,-175.73504592750757
c -42.85714285714286,-86.658 150.0,-53.328 254.1192863727057,-23.695285261647598 c 147.43104722637477,0.0 296.71678917528465,-33.330000000000005 246.71678917528462,113.50450085793707
c -42.85714285714286,58.75503669900549 0,68.31569676120799 110.42606796757255,68.31569676120799
c 100.03604156682889,0 142.89318442397175,-121.28954077985864 100.03604156682889,-122.58399156191794
c -42.85714285714286,-86.658 150.0,-53.328 257.1068155760283,-59.23620605722712 c 197.720611862954,0.0 307.5754153300696,-33.330000000000005 257.5754153300696,63.492214134086254
c -42.85714285714286,80.88437116660164 0,125.59765476863208 99.56744181278759,125.59765476863208
c 88.05679721369256,0 130.91394007083542,-33.89614121721892 88.05679721369256,-104.01781270477885
c -42.85714285714286,-86.658 150.0,-53.328 269.0860599291646,-85.07205619793949 c 196.13988199660264,0.0 341.37802030155643,-33.330000000000005 291.37802030155643,139.45964717129817
c -42.85714285714286,18.07113725340213 0,44.08530594492382 65.76483684130073,44.08530594492382
c 86.17844370079138,0 129.03558655793424,-40.71684254707631 86.17844370079138,-84.95312237330002
c -42.85714285714286,-86.658 150.0,-53.328 270.9644134420658,-98.59183074292197 c 155.18599934007062,0.0 312.6112132735136,-33.330000000000005 262.6112132735136,125.65382233549909
c -42.85714285714286,90.16895841462885 0,93.32625679917152 94.53164386934355,93.32625679917152
c 90.9666377188297,0 133.82378057597256,-83.14616239084789 90.9666377188297,-183.89642676152587
c -42.85714285714286,-86.658 150.0,-53.328 266.17621942402747,-35.08365237314473 L 5000 0 " fill="none" stroke="black" stroke-width="0.1" style="vector-effect:non-scaling-stroke;"/></g><g><path d="M 0 0  L 0 1333.200000  c 88.85664235733982,0.0 304.27312862700614,-33.330000000000005 254.27312862700612,-3.510088034489253
c -42.85714285714286,52.33155396710041 0,203.2462886569797 102.86972851585105,203.2462886569797
c 113.09873083912777,0 155.95587369627063,-127.70187126379368 113.09873083912777,-199.37221510642732
c -42.85714285714286,-86.658 150.0,-53.328 244.0441263037294,-0.36398551606311 c 137.4411356682126,-0.0 300.9676832419778,33.330000000000005 250.9676832419778,-33.34443060822202
c -42.85714285714286,-77.89744298882344 0,-170.04691047757913 106.17517390087937,-170.04691047757913
c 54.58728456801333,0 97.44442742515619,98.69168352168305 54.58728456801333,171.28407310503493
c -42.85714285714286,86.658 150.0,53.328 302.55557257484384,32.10726798076621 c 194.10174000068938,-0.0 300.62579975261013,33.330000000000005 250.62579975261013,-19.083112988712063
c -42.85714285714286,-118.00398522679136 0,-143.74397567620576 106.51705739024703,-143.74397567620576
c 56.58267614212309,0 99.43981899926595,37.22893875717328 56.58267614212309,129.84918136897093
c -42.85714285714286,86.658 150.0,53.328 300.5601810007341,32.97790729594689 c 59.9207014230498,-0.0 349.6173087541849,33.330000000000005 299.6173087541849,-7.615885976848641
c -42.85714285714286,-57.630878706451234 0,-159.10056984758828 57.52554838867229,-159.10056984758828
c 84.3016550772067,0 127.15879793434956,88.04824680474995 84.3016550772067,151.39746420857796
c -42.85714285714286,86.658 150.0,53.328 272.84120206565046,15.318991615858948 c 36.24725854138568,0.0 335.7995625460679,-33.330000000000005 285.7995625460679,60.289173857662355
c -42.85714285714286,37.83012303469068 0,99.84915210888238 71.34329459678929,99.84915210888238
c 58.90152327907447,0 101.75866613621733,-7.928575673058989 58.90152327907447,-14.770355099792994
c -42.85714285714286,-86.658 150.0,-53.328 298.2413338637827,-145.36797086675173 c 189.4142669496628,0.0 306.42390505228195,-33.330000000000005 256.42390505228195,142.36182921016837
c -42.85714285714286,38.4767022033552 0,47.14950044298183 100.71895209057521,47.14950044298183
c 106.69554667587613,0 149.552689533019,-46.47307893463851 106.69554667587613,-62.675760051613764
c -42.85714285714286,-86.658 150.0,-53.328 250.44731046698104,-126.83556960153643 c 122.69327722498538,0.0 345.6118104474263,-33.330000000000005 295.6118104474263,21.33259476442513
c -42.85714285714286,85.4141893145339 0,148.67595152880534 61.53104669543086,148.67595152880534
c 112.40129105558952,0 155.2584339127324,-41.58232632659362 112.40129105558952,-108.59034254786738
c -42.85714285714286,-86.658 150.0,-53.328 244.74156608726764,-61.41820374536309 L 5000 0 " fill="none" stroke="black" stroke-width="0.1" style="vector-effect:non-scaling-stroke;"/></g><g><path d="M 0 0  L 0 1999.800000  c 52.93657467967254,0.0 340.7125670987305,-33.330000000000005 290.7125670987305,5.201366677041623
c -42.85714285714286,184.01984260056201 0,207.79327308992345 66.43029004412665,207.79327308992345
c 85.6895605911879,0 128.54670344833076,-75.46159765643581 85.6895605911879,-128.83628533473325
c -42.85714285714286,-86.658 150.0,-53.328 271.45329655166927,-84.15835443223182 c 108.76771474809081,-0.0 352.31094582921713,33.330000000000005 302.31094582921713,-140.24097999718305
c -42.85714285714286,-31.116905328877667 0,-57.65243874391564 54.831911313640035,-57.65243874391564
c 97.4932494484309,0 140.35039230557376,60.20753558039619 97.4932494484309,127.50451785485114
c -42.85714285714286,86.658 150.0,53.328 259.64960769442627,70.38890088624754 c 142.07979403955855,-0.0 299.7826853737748,33.330000000000005 249.78268537377483,-26.716179151576515
c -42.85714285714286,-149.8570904627453 0,-157.53052354446177 107.36017176908234,-157.53052354446177
c 62.96425455836078,0 105.82139741550364,48.39815463181823 62.96425455836078,48.508466944841246
c -42.85714285714286,86.658 150.0,53.328 294.1786025844964,135.73823575119704 c 176.30327834281812,-0.0 323.42356737927196,33.330000000000005 273.42356737927196,-112.66028362454051
c -42.85714285714286,-73.43113281256234 0,-86.1042318769378 83.71928976358521,-86.1042318769378
c 97.21036837496519,0 140.06751123210805,94.44649309987636 97.21036837496519,127.3376768069353
c -42.85714285714286,86.658 150.0,53.328 259.932488767892,71.42683869454301 c 91.32324187439717,-0.0 342.21126382209775,33.330000000000005 292.21126382209775,-3.4545381377653204
c -42.85714285714286,-133.0643912334085 0,-167.0405485082147 64.93159332075942,-167.0405485082147
c 64.70758167035586,0 107.56472452749873,27.144672814471136 64.70758167035586,110.62900200793683
c -42.85714285714286,86.658 150.0,53.328 292.4352754725013,59.86608463804319 c 167.76381482313892,0.0 338.21577308347247,-33.330000000000005 288.21577308347247,79.5640909243528
c -42.85714285714286,52.90500472608771 0,130.81190378485869 68.9270840593847,130.81190378485869
c 83.46249048001908,0 126.31963333716195,-79.29866734740311 83.46249048001908,-95.31269062298158
c -42.85714285714286,-86.658 150.0,-53.328 273.6803666628381,-115.0633040862299 c 63.28407755354589,-0.0 310.04088328482237,33.330000000000005 260.04088328482237,-82.54908952360054
c -42.85714285714286,-80.34935203784691 0,-110.68993649907279 97.1019738580348,-110.68993649907279
c 62.20177763615453,0 105.05892049329739,95.72375365187402 62.20177763615453,134.34590860036903
c -42.85714285714286,86.658 150.0,53.328 294.94107950670264,58.8931174223043 L 5000 0 " fill="none" stroke="black" stroke-width="0.1" style="vector-effect:non-scaling-stroke;"/></g><g><path d="M 0 0  L 0 2666.400000  c 120.19885596177977,0.0 304.9924564170595,-33.330000000000005 254.9924564170595,82.82962729678464
c -42.85714285714286,33.80443049958449 0,84.69445735989252 102.15040072579768,84.69445735989252
c 72.5093466130046,0 115.36648947014746,-52.8835385295078 72.5093466130046,-55.81958136850314
c -42.85714285714286,-86.658 150.0,-53.328 284.6335105298526,-111.70450328817402 c 127.2854849226363,0.0 293.82607457660487,-33.330000000000005 243.82607457660487,23.15388499429598
c -42.85714285714286,103.51760508931577 0,176.80893142842643 113.3167825662523,176.80893142842643
c 57.22180479505187,0 100.07894765219473,-125.18737787898034 57.22180479505187,-196.58632940992834
c -42.85714285714286,-86.658 150.0,-53.328 299.9210523478053,-3.3764870127940867 c 154.0475004139837,-0.0 310.06913741793414,33.330000000000005 260.06913741793414,-85.14376724717434
c -42.85714285714286,-135.33328376669994 0,-137.53789646181744 97.07371972492302,-137.53789646181744
c 106.27156642098521,0 149.12870927812807,198.2590264552703 106.27156642098521,216.70970307191973
c -42.85714285714286,86.658 150.0,53.328 250.87129072187196,5.971960637072044 c 106.44275794324925,0.0 322.5664906386375,-33.330000000000005 272.5664906386375,92.15595127636482
c -42.85714285714286,109.38956231689679 0,110.65174941643727 84.57636650421966,110.65174941643727
c 110.47092676071219,0 153.32806961785505,-87.08417411890889 110.47092676071219,-88.5244521078394
c -42.85714285714286,-86.658 150.0,-53.328 246.67193038214498,-114.28324858496269 c 148.25407900880677,-0.0 305.77197952929106,33.330000000000005 255.77197952929106,-72.94863995881508
c -42.85714285714286,-112.4707964429961 0,-117.69640879353057 101.37087761356611,-117.69640879353057
c 77.09159082262005,0 119.94873367976291,50.02710757025252 77.09159082262005,115.33168001983722
c -42.85714285714286,86.658 150.0,53.328 280.0512663202371,75.31336873250842 c 171.54911936878966,0.0 333.478374935684,-33.330000000000005 283.478374935684,-1.375826317728281
c -42.85714285714286,167.34264602761797 0,218.818079934902 73.6644822071732,218.818079934902
c 92.88849154626064,0 135.7456344034035,-157.83088292053628 92.88849154626064,-169.93906946530544
c -42.85714285714286,-86.658 150.0,-53.328 264.25436559659653,-47.50318415186828 c 182.12601829926103,0.0 315.759164679307,-33.330000000000005 265.759164679307,140.16877640734685
c -42.85714285714286,24.7060962194457 0,30.18863776099448 91.38369246355018,30.18863776099448
c 110.76352432572884,0 153.6206671828717,-11.057392959652914 110.76352432572884,-34.575962188555934
c -42.85714285714286,-86.658 150.0,-53.328 246.37933281712833,-135.7814519797854 L 5000 0 " fill="none" stroke="black" stroke-width="0.1" style="vector-effect:non-scaling-stroke;"/></g></g></svg>