<svg baseProfile="full" height="3333" preserveAspectRatio="none" shape-rendering="geometricPrecision" version="1.1" viewBox="0,0,5000,3333" width="5000" xmlns="http://www.w3.org/2000/svg" xmlns:ev="http://www.w3.org/2001/xml-events" xmlns:xlink="http://www.w3.org/1999/xlink"><title>Jigsaw puzzle piece clips</title><desc>Created with the piecemaker. Piece count: 20</desc><defs /><g><g><rect fill="white" height="3333" width="5000" x="0" y="0" /></g></g><g><g><path d="M 0 0  L 1000.000000 0  c 0.0,104.54699216598816 -50.0,389.8355636529025 42.77623216522393,331.50806365290254&#10;c 221.60426950461138,-49.995 266.7223416425103,0 266.7223416425103,85.11693634709746&#10;c 0,72.84332360782139 -97.43273739594498,122.8383236078214 -130.6597831315728,72.84332360782139&#10;c -130.0,-49.995 -80.0,174.9825 -178.8387906761614,343.7816763921786 c -0.0,208.274193511497 50.0,400.93128883897464 -48.023900324031146,342.60378883897465&#10;c -143.25082923794966,-49.995 -220.62845742264108,0 -220.62845742264108,74.02121116102535&#10;c 0,85.66336950949949 139.4527457906951,135.6583695094995 185.01075823920962,85.66336950949949&#10;c 130.0,-49.995 80.0,174.9825 83.64159950746262,330.9616304905005 c 0.0,172.04040361682107 -50.0,381.92235206452096 58.231393234140214,323.594852064521&#10;c 121.41230780227178,-49.995 281.68716793016654,0 281.68716793016654,93.03014793547902&#10;c 0,124.27591108966794 -255.89863829633268,174.27091108966795 -333.9971005446815,124.27591108966794&#10;c -130.0,-49.995 -80.0,174.9825 -5.921460619625293,292.34908891033206 c -0.0,233.4661534254523 50.0,415.4153977868348 -184.4367512810156,357.0878977868348&#10;c -27.5503569855014,-49.995 -57.07817693905642,0 -57.07817693905642,59.53710221316521&#10;c 0,124.81773549236038 14.701644778306985,174.8127354923604 52.125665104372274,124.81773549236038&#10;c 130.0,-49.995 80.0,174.9825 189.38926311569975,291.8072645076396 L 0 3333 " fill="none" stroke="black" stroke-width="0.1" style="vector-effect:non-scaling-stroke;" /></g><g><path d="M 0 0  L 2000.000000 0  c -0.0,171.63535709874327 50.0,351.1669870377292 -75.27219645196294,292.8394870377292&#10;c -225.94746083995088,-49.995 -238.5192127546636,0 -238.5192127546636,123.78551296227079&#10;c 0,128.41363020474432 111.22522894619782,178.40863020474433 136.2507011331201,128.41363020474432&#10;c 130.0,-49.995 80.0,174.9825 177.54070807350647,288.2113697952557 c -0.0,119.31017778329942 50.0,379.5755788269935 -213.0914910003834,321.2480788269935&#10;c -75.59699331328544,-49.995 -76.72705062776876,0 -76.72705062776876,95.37692117300651&#10;c 0,115.69821721990354 231.88383220093218,165.69321721990354 274.3045421899535,115.69821721990354&#10;c 130.0,-49.995 80.0,174.9825 15.513999438198653,300.92678278009646 c -0.0,83.37147807065489 50.0,342.62100058464557 10.192659111299074,284.2935005846456&#10;c -107.56263899309558,-49.995 -283.2586637730217,0 -283.2586637730217,132.33149941535441&#10;c 0,77.40109051856103 76.02300257678169,127.39609051856104 288.9003756905572,77.40109051856103&#10;c 130.0,-49.995 80.0,174.9825 -15.834371028834596,339.22390948143897 c 0.0,73.98119134617001 -50.0,351.64563140402197 47.82569997072734,293.318131404022&#10;c 246.14263372225977,-49.995 260.47126278104054,0 260.47126278104054,123.30686859597802&#10;c 0,103.0155649448784 -103.34964780194763,153.0105649448784 -149.49950364359364,103.0155649448784&#10;c -130.0,-49.995 -80.0,174.9825 -158.79745910817422,313.6094350551216 L 0 3333 " fill="none" stroke="black" stroke-width="0.1" style="vector-effect:non-scaling-stroke;" /></g><g><path d="M 0 0  L 3000.000000 0  c 0.0,58.24611681717462 -50.0,345.17722661029933 -3.500115537161657,286.84972661029934&#10;c 280.96442663288155,-49.995 335.2760193479822,0 335.2760193479822,129.77527338970066&#10;c 0,59.71458284518354 -226.71982278343637,109.70958284518355 -344.8681865649279,59.71458284518354&#10;c -130.0,-49.995 -80.0,174.9825 13.092282754107373,356.91041715481646 c 0.0,201.19814595183715 -50.0,342.0494261055934 211.74555121275142,283.7219261055934&#10;c 38.60358859265015,-49.995 63.081190819446476,0 63.081190819446476,132.9030738944066&#10;c 0,116.90490073925264 -149.33174261902826,166.89990073925264 -246.84969806124914,116.90490073925264&#10;c -130.0,-49.995 -80.0,174.9825 -27.977043970948756,299.72009926074736 c -0.0,80.28156036120822 50.0,414.67597098987477 -68.88756595684997,356.3484709898748&#10;c -93.28412808145612,-49.995 -238.61255906857406,0 -238.61255906857406,60.276529010125216&#10;c 0,107.89924985664481 96.513225709555,157.89424985664482 136.96251239314677,107.89924985664481&#10;c 130.0,-49.995 80.0,174.9825 170.53761263227727,308.7257501433552 c -0.0,178.83470551389624 50.0,379.7997059503698 -29.904950159509728,321.4722059503698&#10;c -206.94698704692252,-49.995 -244.43582759520433,0 -244.43582759520433,95.15279404963019&#10;c 0,72.70728307311458 128.90912011159185,122.70228307311459 152.49273710510516,72.70728307311458&#10;c 130.0,-49.995 80.0,174.9825 121.84804064960889,343.9177169268854 L 0 3333 " fill="none" stroke="black" stroke-width="0.1" style="vector-effect:non-scaling-stroke;" /></g><g><path d="M 0 0  L 4000.000000 0  c -0.0,71.53778825410315 50.0,383.2821815136735 -135.2757092723553,324.9546815136735&#10;c -102.71046544477173,-49.995 -168.55828825939824,0 -168.55828825939824,91.6703184863265&#10;c 0,109.43315417777455 55.77000345754542,159.42815417777456 112.35167257974581,109.43315417777455&#10;c 130.0,-49.995 80.0,174.9825 191.48232495200773,307.19184582222545 c 0.0,220.52776025457158 -50.0,397.7788638955598 141.2859847877152,339.45136389555984&#10;c 71.41855999616104,-49.995 133.96198251730155,0 133.96198251730155,77.17363610444016&#10;c 0,75.58107899795164 -79.82408070309542,125.57607899795164 -116.06632068791757,75.58107899795164&#10;c -130.0,-49.995 -80.0,174.9825 -159.18164661709918,341.04392100204836 c 0.0,209.75807328809384 -50.0,403.1837560412437 8.204531569043084,344.85625604124374&#10;c 305.49477831827403,-49.995 321.8742277727706,0 321.8742277727706,71.76874395875626&#10;c 0,96.41654044265965 -247.06098008887312,146.41154044265966 -265.7742222752181,96.41654044265965&#10;c -130.0,-49.995 -80.0,174.9825 -64.30453706659557,320.20845955734035 c 0.0,112.31608346142428 -50.0,356.5361038444983 20.599598892154372,298.2086038444983&#10;c 133.23331582239436,-49.995 295.1076836945212,0 295.1076836945212,118.41639615550167&#10;c 0,90.95475420868439 -116.37969358938815,140.9497542086844 -290.7405217521889,90.95475420868439&#10;c -130.0,-49.995 -80.0,174.9825 -24.96676083448665,325.6702457913156 L 0 3333 " fill="none" stroke="black" stroke-width="0.1" style="vector-effect:non-scaling-stroke;" /></g></g><g><g><path d="M 0 0  L 0 833.250000  c 256.2028259868583,0.0 410.76258952632384,-41.6625 340.76258952632384,12.732166785970353&#10;c -60.0,127.39583841582659 0,245.9526556968169 159.23741047367616,245.9526556968169&#10;c 88.9533295939276,0 148.9533295939276,-80.12924101850267 88.9533295939276,-99.75541660233907&#10;c -60.0,-108.3225 210.0,-66.66 411.0466704060724,-158.92940588044817 c 142.32071308293743,0.0 415.5113075082934,-41.6625 345.5113075082934,85.05679653965383&#10;c -60.0,124.27734465757143 0,182.69876436962448 154.48869249170662,182.69876436962448&#10;c 88.38100944482983,0 148.38100944482983,-38.597508161972 88.38100944482983,-146.44694061529964&#10;c -60.0,-108.3225 210.0,-66.66 411.61899055517017,-121.30862029397866 c 194.3169997693223,0.0 496.4198926975974,-41.6625 426.4198926975974,139.303333041498&#10;c -60.0,55.538707598120475 0,86.89603941786794 73.58010730240261,86.89603941786794&#10;c 130.23123877765124,0 190.23123877765124,-73.22332967944277 130.23123877765124,-177.44303013678118&#10;c -60.0,-108.3225 210.0,-66.66 369.76876122234876,-48.75634232258477 c 152.47501920279782,-0.0 426.49169592370396,41.6625 356.49169592370396,-66.91555525086108&#10;c -60.0,-170.42904067225226 0,-206.72647915067893 143.50830407629604,-206.72647915067893&#10;c 76.50308416593418,0 136.50308416593418,155.34597699378966 76.50308416593418,199.6537304787671&#10;c -60.0,108.3225 210.0,66.66 423.4969158340658,73.9883039227729 c 172.30606736279574,0.0 469.6443859867041,-41.6625 399.6443859867041,166.78451346583523&#10;c -60.0,95.74497331408737 0,112.3510576633912 100.3556140132959,112.3510576633912&#10;c 118.6809273762409,0 178.6809273762409,-32.353916266532295 118.6809273762409,-133.56642110406855&#10;c -60.0,-108.3225 210.0,-66.66 381.3190726237591,-145.56915002515788 L 5000 0 " fill="none" stroke="black" stroke-width="0.1" style="vector-effect:non-scaling-stroke;" /></g><g><path d="M 0 0  L 0 1666.500000  c 93.13988744941173,-0.0 441.31577829450674,41.6625 371.31577829450674,-65.16569008082406&#10;c -60.0,-144.4399490395875 0,-152.63011787034822 128.68422170549326,-152.63011787034822&#10;c 148.01327323094267,0 208.01327323094267,115.99877659549668 148.01327323094267,125.45246686365374&#10;c -60.0,108.3225 210.0,66.66 351.9867267690573,92.34334108751852 c 61.58022068397459,-0.0 480.77910246697815,41.6625 410.77910246697815,-19.306031782246002&#10;c -60.0,-195.8738371117954 0,-213.0189385931429 89.22089753302185,-213.0189385931429&#10;c 139.63613588173462,0 199.63613588173462,112.91513656778105 139.63613588173462,123.19492112812019&#10;c -60.0,108.3225 210.0,66.66 360.3638641182654,109.13004924726873 c 219.3041795939424,-0.0 430.29196980117405,41.6625 360.29196980117405,-93.00556165361238&#10;c -60.0,-105.26192413165535 0,-108.36781641218857 139.70803019882595,-108.36781641218857&#10;c 97.49010517521765,0 157.49010517521765,104.31842309847003 97.49010517521765,182.99856419555965&#10;c -60.0,108.3225 210.0,66.66 402.50989482478235,18.374813870241297 c 178.2218582780622,-0.0 417.89714765899765,41.6625 347.89714765899765,-145.0900282346649&#10;c -60.0,-36.88117522249176 0,-76.69401709988404 152.10285234100235,-76.69401709988404&#10;c 112.66784869338358,0 172.66784869338358,63.830366937527 112.66784869338358,70.75066044771816&#10;c -60.0,108.3225 210.0,66.66 387.3321513066164,151.0333848868308 c 162.83755814665685,0.0 437.426170880935,-41.6625 367.426170880935,69.56295515504776&#10;c -60.0,204.81707252940478 0,203.0403856398044 132.573829119065,203.0403856398044&#10;c 112.48012264232761,0 172.48012264232761,-165.09376414459476 112.48012264232761,-265.2165540405668&#10;c -60.0,-108.3225 210.0,-66.66 387.5198773576724,-7.386786754285367 L 5000 0 " fill="none" stroke="black" stroke-width="0.1" style="vector-effect:non-scaling-stroke;" /></g><g><path d="M 0 0  L 0 2499.750000  c 281.97635799844636,-0.0 432.5455729000856,41.6625 362.5455729000856,-159.90052276965778&#10;c -60.0,-35.90439645841745 0,-46.9695570406798 137.45442709991443,-46.9695570406798&#10;c 78.34730423610449,0 138.3473042361045,21.454654108424474 78.34730423610449,41.30430246564421&#10;c -60.0,108.3225 210.0,66.66 421.6526957638955,165.56577734469337 c 93.04408656820343,0.0 464.9883474203013,-41.6625 394.9883474203013,72.99202261775424&#10;c -60.0,70.04290321507435 0,177.33971281724268 105.0116525796987,177.33971281724268&#10;c 81.74109558457678,0 141.74109558457678,-102.29252103233199 81.74109558457678,-193.1368284357302&#10;c -60.0,-108.3225 210.0,-66.66 418.2589044154232,-57.19490699926672 c 133.1035270413146,-0.0 461.5633928101433,41.6625 391.5633928101433,-175.5173630409214&#10;c -60.0,-76.77905537148371 0,-86.02802994501428 108.43660718985672,-86.02802994501428&#10;c 125.78839431389179,0 185.78839431389179,168.16077785741516 125.78839431389179,180.9759016605294&#10;c -60.0,108.3225 210.0,66.66 374.2116056861082,80.56949132540629 c 107.47933484499295,0.0 447.1972922616835,-41.6625 377.1972922616835,134.89221253689507&#10;c -60.0,84.05321387002273 0,86.40712509618425 122.80270773831649,86.40712509618425&#10;c 94.65217685233608,0 154.65217685233608,-83.55140948263298 94.65217685233608,-146.63747841677244&#10;c -60.0,-108.3225 210.0,-66.66 405.3478231476639,-74.66185921630688 c 136.7342888726772,0.0 456.69272320017427,-41.6625 386.69272320017427,59.368809599074254&#10;c -60.0,67.4431064111247 0,194.3179325761464 113.30727679982573,194.3179325761464&#10;c 106.88893559160704,0 166.88893559160704,-130.25233782037137 106.88893559160704,-147.47251463135902&#10;c -60.0,-108.3225 210.0,-66.66 393.11106440839296,-106.21422754386165 L 5000 0 " fill="none" stroke="black" stroke-width="0.1" style="vector-effect:non-scaling-stroke;" /></g></g></svg>