<svg baseProfile="full" height="3264" preserveAspectRatio="none" shape-rendering="geometricPrecision" version="1.1" viewBox="0,0,4912,3264" width="4912" xmlns="http://www.w3.org/2000/svg" xmlns:ev="http://www.w3.org/2001/xml-events" xmlns:xlink="http://www.w3.org/1999/xlink"><title>Jigsaw puzzle piece clips</title><desc>Created with the piecemaker. Piece count: 48</desc><defs /><g><g><rect fill="white" height="3264" width="4912" x="0" y="0" /></g></g><g><g><path d="M 0 0  L 614.000000 0  c 0.0,63.43810174260547 -30.700000000000003,255.27629771269847 126.3933273730228,217.19629771269845&#10;c 24.83575001714674,-32.64 67.0322881373267,0 67.0322881373267,54.80370228730155&#10;c 0,84.35570336709185 -91.33754331653476,116.99570336709185 -145.71407756243616,84.35570336709185&#10;c -79.82000000000001,-32.64 -49.120000000000005,114.24 -47.71153794791334,187.64429663290815 c 0.0,98.56616259897616 -30.700000000000003,227.25512184590275 97.15538321515143,189.17512184590274&#10;c 32.22057400642043,-32.64 79.68902852402397,0 79.68902852402397,82.82487815409726&#10;c 0,49.955241226532735 -78.78893402762574,82.59524122653274 -79.66017035815845,49.955241226532735&#10;c -79.82000000000001,-32.64 -49.120000000000005,114.24 -97.18424138101695,222.04475877346727 c -0.0,64.17407271166078 30.700000000000003,241.59260192224718 -70.65509267666532,203.51260192224717&#10;c -67.48682645443866,-32.64 -77.3979472685726,0 -77.3979472685726,68.48739807775283&#10;c 0,43.84345233154028 26.02471295615489,76.48345233154028 37.83608986127574,43.84345233154028&#10;c 79.82000000000001,-32.64 49.120000000000005,114.24 110.21695008396217,228.15654766845972 c 0.0,116.31408576558447 -30.700000000000003,267.9716261738165 14.299195710504788,229.8916261738165&#10;c 46.843797247629816,-32.64 183.69041196134486,0 183.69041196134486,42.10837382618351&#10;c 0,62.75599900177076 -127.24611726796287,95.39599900177076 -148.74540099167123,62.75599900177076&#10;c -79.82000000000001,-32.64 -49.120000000000005,114.24 -49.24420668017842,209.24400099822924 c -0.0,32.227979344444165 30.700000000000003,247.59333405673675 -125.50420679713343,209.51333405673674&#10;c -17.903866445453925,-32.64 -37.54708165389286,0 -37.54708165389286,62.48666594326326&#10;c 0,55.05017934539313 14.573127547458135,87.69017934539313 31.02683480252793,55.05017934539313&#10;c 79.82000000000001,-32.64 49.120000000000005,114.24 132.02445364849837,216.94982065460687 c -0.0,94.2102780932065 30.700000000000003,265.10463322172814 -72.55402409227366,227.02463322172812&#10;c -84.46478541860992,-32.64 -106.64271131972976,0 -106.64271131972976,44.97536677827188&#10;c 0,71.2069060015732 57.17793003488865,103.8469060015732 148.67043277926987,71.2069060015732&#10;c 79.82000000000001,-32.64 49.120000000000005,114.24 30.526302632733547,200.7930939984268 L 0 3264 " fill="none" stroke="black" stroke-width="0.1" style="vector-effect:non-scaling-stroke;" /></g><g><path d="M 0 0  L 1228.000000 0  c 0.0,113.58234505598024 -30.700000000000003,252.90286858218394 22.98643720905268,214.82286858218393&#10;c 90.45013131057178,-32.64 180.13775098220816,0 180.13775098220816,57.17713141781607&#10;c 0,83.2133476271676 -48.2568492013573,115.8533476271676 -112.50205430337944,83.2133476271676&#10;c -79.82000000000001,-32.64 -49.120000000000005,114.24 -90.62213388788139,188.7866523728324 c 0.0,74.8529445881508 -30.700000000000003,225.1237269554741 75.67221934659031,187.04372695547409&#10;c 86.03089629055432,-32.64 98.661472457932,0 98.661472457932,84.95627304452591&#10;c 0,85.43047931075102 -15.476390702434363,118.07047931075103 -41.82443562077259,85.43047931075102&#10;c -79.82000000000001,-32.64 -49.120000000000005,114.24 -132.50925618374973,186.56952068924898 c 0.0,87.39144813397192 -30.700000000000003,256.354725285106 84.9956349937686,218.274725285106&#10;c 73.35559385532318,-32.64 115.92283608650258,0 115.92283608650258,53.725274714894&#10;c 0,41.631573239797376 -109.68590602710546,74.27157323979738 -131.41949648778277,41.631573239797376&#10;c -79.82000000000001,-32.64 -49.120000000000005,114.24 -69.49897459248842,230.36842676020262 c -0.0,72.6484102770933 30.700000000000003,267.767576191719 -37.18093609760604,229.687576191719&#10;c -114.02941170942503,-32.64 -170.9464253982843,0 -170.9464253982843,42.31242380828101&#10;c 0,82.26156974274284 50.924784402115606,114.90156974274284 112.66670289459222,82.26156974274284&#10;c 79.82000000000001,-32.64 49.120000000000005,114.24 95.46065860129812,189.73843025725716 c 0.0,71.88302749959611 -30.700000000000003,226.98731746502617 49.82869865501442,188.90731746502615&#10;c 36.47312417436092,-32.64 111.80512853238594,0 111.80512853238594,83.09268253497385&#10;c 0,77.91555182766984 -38.37423917245987,110.55555182766985 -142.260558772982,77.91555182766984&#10;c -79.82000000000001,-32.64 -49.120000000000005,114.24 -19.373268414418362,194.08444817233016 c -0.0,46.08668706499898 30.700000000000003,229.29690602187904 11.920219365808332,191.21690602187903&#10;c -66.61172494281904,-32.64 -187.25101900536941,0 -187.25101900536941,80.78309397812097&#10;c 0,41.23612422540759 43.143455054532865,73.8761242254076 162.52306255409798,41.23612422540759&#10;c 79.82000000000001,-32.64 49.120000000000005,114.24 12.807737085463117,230.7638757745924 L 0 3264 " fill="none" stroke="black" stroke-width="0.1" style="vector-effect:non-scaling-stroke;" /></g><g><path d="M 0 0  L 1842.000000 0  c -0.0,132.4133082942311 30.700000000000003,225.3883213041112 -37.62866654878819,187.3083213041112&#10;c -100.54840047754169,-32.64 -161.18903243302998,0 -161.18903243302998,84.69167869588881&#10;c 0,53.60455234445578 153.3724338664878,86.24455234445578 152.28468706826268,53.60455234445578&#10;c 79.82000000000001,-32.64 49.120000000000005,114.24 46.5330119135555,218.39544765554422 c 0.0,152.03646588159282 -30.700000000000003,268.3495684673622 57.071608761228646,230.2695684673622&#10;c 21.093513728799856,-32.64 91.13148767238766,0 91.13148767238766,41.730431532637795&#10;c 0,80.7699205061337 -16.689578933056566,113.4099205061337 -68.96777486505114,80.7699205061337&#10;c -79.82000000000001,-32.64 -49.120000000000005,114.24 -79.23532156856517,191.2300794938663 c -0.0,152.06383612338027 30.700000000000003,245.1487377415838 2.914372705220578,207.0687377415838&#10;c -90.36398253883065,-32.64 -165.03354770116897,0 -165.03354770116897,64.93126225841621&#10;c 0,58.63262493594357 59.16072995076097,91.27262493594357 137.62580929692442,58.63262493594357&#10;c 79.82000000000001,-32.64 49.120000000000005,114.24 24.49336569902397,213.36737506405643 c 0.0,138.37834060331434 -30.700000000000003,261.2110540266163 85.85111524687228,223.1310540266163&#10;c 88.00786845365525,-32.64 114.60910184207818,0 114.60910184207818,48.86894597338369&#10;c 0,67.52780305318106 -171.05647109068133,100.16780305318106 -172.58522054339645,67.52780305318106&#10;c -79.82000000000001,-32.64 -49.120000000000005,114.24 -27.874996545554012,204.47219694681894 c -0.0,82.96913689755493 30.700000000000003,265.79126040740823 -60.77531205490868,227.71126040740825&#10;c -102.33769423736945,-32.64 -131.5916005240975,0 -131.5916005240975,44.28873959259175&#10;c 0,82.83168580158554 42.38024141354288,115.47168580158554 93.99170655213221,82.83168580158554&#10;c 79.82000000000001,-32.64 49.120000000000005,114.24 98.37520602687395,189.16831419841446 c 0.0,52.27574083970679 -30.700000000000003,268.99884104736526 131.20172614228608,230.91884104736525&#10;c 18.78678987338758,-32.64 61.46295383715281,0 61.46295383715281,41.08115895263475&#10;c 0,67.28289400970107 -46.77643763673313,99.92289400970107 -110.52864196630897,67.28289400970107&#10;c -79.82000000000001,-32.64 -49.120000000000005,114.24 -82.13603801312992,204.71710599029893 L 0 3264 " fill="none" stroke="black" stroke-width="0.1" style="vector-effect:non-scaling-stroke;" /></g><g><path d="M 0 0  L 2456.000000 0  c -0.0,106.59382417293249 30.700000000000003,266.95690018165897 -18.04239392120572,228.87690018165895&#10;c -77.3211020377763,-32.64 -146.35244161620426,0 -146.35244161620426,43.123099818341046&#10;c 0,69.66592528915095 57.96115908818576,102.30592528915095 58.078116068293085,69.66592528915095&#10;c 79.82000000000001,-32.64 49.120000000000005,114.24 106.3167194691169,202.33407471084905 c 0.0,69.26259973815785 -30.700000000000003,245.99279394899426 102.10694600378362,207.91279394899425&#10;c 34.810678791593666,-32.64 92.06218796381371,0 92.06218796381371,64.08720605100575&#10;c 0,49.01236362436072 -25.63204285195877,81.65236362436072 -78.35594251383053,49.01236362436072&#10;c -79.82000000000001,-32.64 -49.120000000000005,114.24 -115.8131914537668,222.98763637563928 c 0.0,132.99820926383578 -30.700000000000003,240.57234901298293 130.5150497698687,202.4923490129829&#10;c 17.208820386843108,-32.64 60.302611361142,0 60.302611361142,69.50765098701709&#10;c 0,80.70135850834572 -96.65416632272,113.34135850834572 -162.5207731338188,80.70135850834572&#10;c -79.82000000000001,-32.64 -49.120000000000005,114.24 -28.296887997191902,191.29864149165428 c -0.0,71.4621229614296 30.700000000000003,237.73652980834854 -122.947406755279,199.65652980834852&#10;c -34.005975623650784,-32.64 -81.40563263849639,0 -81.40563263849639,72.34347019165148&#10;c 0,40.844044105406454 73.40561553110427,73.48404410540645 174.92313383418465,40.844044105406454&#10;c 79.82000000000001,-32.64 49.120000000000005,114.24 29.429905559590736,231.15595589459355 c -0.0,87.82224528471328 30.700000000000003,252.25701894267962 -103.13789152847043,214.1770189426796&#10;c -78.86726748382462,-32.64 -100.41546711429426,0 -100.41546711429426,57.82298105732039&#10;c 0,40.944664041715214 21.058040070286413,73.58466404171521 78.34535518478303,40.944664041715214&#10;c 79.82000000000001,-32.64 49.120000000000005,114.24 125.20800345798166,231.0553359582848 c -0.0,37.20037990906504 30.700000000000003,265.21897394916715 -54.91569958668897,227.13897394916717&#10;c -40.33977220354887,-32.64 -146.16806296865894,0 -146.16806296865894,44.861026050832834&#10;c 0,65.59635140704074 124.15600015099324,98.23635140704074 211.88866696997846,65.59635140704074&#10;c 79.82000000000001,-32.64 49.120000000000005,114.24 -10.804904414630556,206.40364859295926 L 0 3264 " fill="none" stroke="black" stroke-width="0.1" style="vector-effect:non-scaling-stroke;" /></g><g><path d="M 0 0  L 3070.000000 0  c -0.0,130.84428623091503 30.700000000000003,261.1494724429095 -5.43959959401538,223.06947244290947&#10;c -143.15765352965713,-32.64 -176.41818895387271,0 -176.41818895387271,48.93052755709053&#10;c 0,44.51801265212754 53.715227011754735,77.15801265212754 90.75180687838314,44.51801265212754&#10;c 79.82000000000001,-32.64 49.120000000000005,114.24 91.10598166950497,227.48198734787246 c 0.0,132.4231456942331 -30.700000000000003,247.79573429052587 83.36700764542823,209.71573429052586&#10;c 112.90419194594993,-32.64 120.1234367044787,0 120.1234367044787,62.28426570947414&#10;c 0,75.1680883022745 -111.98144605404958,107.8080883022745 -127.74162740189357,75.1680883022745&#10;c -79.82000000000001,-32.64 -49.120000000000005,114.24 -75.74881694801337,196.8319116977255 c -0.0,144.38943316798228 30.700000000000003,245.3210738315112 -128.0852718880551,207.2410738315112&#10;c -52.933849548248745,-32.64 -53.502146409672264,0 -53.502146409672264,64.75892616848881&#10;c 0,58.87827762425792 55.91261061878226,91.51827762425792 110.73041460773226,58.87827762425792&#10;c 79.82000000000001,-32.64 49.120000000000005,114.24 70.85700368999511,213.12172237574208 c 0.0,130.02913333792532 -30.700000000000003,232.69417402435081 69.88869018858497,194.6141740243508&#10;c 26.312538419485286,-32.64 83.25547007122017,0 83.25547007122017,77.3858259756492&#10;c 0,39.41158504510213 -24.122134255109906,72.05158504510213 -38.51314097340784,39.41158504510213&#10;c -79.82000000000001,-32.64 -49.120000000000005,114.24 -114.6310192863973,232.58841495489787 c -0.0,112.80055175214865 30.700000000000003,257.1258228308648 -70.10760800002016,219.0458228308648&#10;c -62.86280369316663,-32.64 -101.70654440295131,0 -101.70654440295131,52.95417716913519&#10;c 0,65.80920728770224 23.384240338192885,98.44920728770224 57.431213680078756,65.80920728770224&#10;c 79.82000000000001,-32.64 49.120000000000005,114.24 114.38293872289272,206.19079271229776 c -0.0,119.82785328577701 30.700000000000003,239.5354393998564 -61.83158976944476,201.45543939985637&#10;c -68.48467003170852,-32.64 -111.28963487964499,0 -111.28963487964499,70.54456060014363&#10;c 0,71.48183658222104 24.369087268140245,104.12183658222104 67.63879022596464,71.48183658222104&#10;c 79.82000000000001,-32.64 49.120000000000005,114.24 105.48243442312511,200.51816341777896 L 0 3264 " fill="none" stroke="black" stroke-width="0.1" style="vector-effect:non-scaling-stroke;" /></g><g><path d="M 0 0  L 3684.000000 0  c 0.0,115.40439029093999 -30.700000000000003,271.5728136726683 68.45795267753711,233.4928136726683&#10;c 63.04557830335252,-32.64 125.76764241347838,0 125.76764241347838,38.50718632733171&#10;c 0,41.917827875808086 -68.1348221349073,74.55782787580809 -75.30941733096768,41.917827875808086&#10;c -79.82000000000001,-32.64 -49.120000000000005,114.24 -118.91617776004782,230.0821721241919 c -0.0,105.14002362910487 30.700000000000003,265.9387370655668 -122.75952484354126,227.8587370655668&#10;c -11.15625816775024,-32.64 -26.240963495490504,0 -26.240963495490504,44.1412629344332&#10;c 0,65.93083559984171 145.36622186891358,98.57083559984171 144.7390716308949,65.93083559984171&#10;c 79.82000000000001,-32.64 49.120000000000005,114.24 4.2614167081368635,206.0691644001583 c -0.0,148.22114563484763 30.700000000000003,254.71372946007472 -128.8574818208252,216.6337294600747&#10;c -16.591898414442518,-32.64 -34.447408559967926,0 -34.447408559967926,55.366270539925296&#10;c 0,61.70641356495901 16.43378931787008,94.34641356495901 30.989644574820204,61.70641356495901&#10;c 79.82000000000001,-32.64 49.120000000000005,114.24 132.31524580597292,210.293586435041 c 0.0,127.1231190066931 -30.700000000000003,226.59344386944417 44.236831955913004,188.51344386944416&#10;c 109.04383844991025,-32.64 137.93496853512565,0 137.93496853512565,83.48655613055584&#10;c 0,43.71898257284266 -79.43627812836228,76.35898257284266 -108.73708839619945,43.71898257284266&#10;c -79.82000000000001,-32.64 -49.120000000000005,114.24 -73.4347120948392,228.28101742715734 c 0.0,147.483135038156 -30.700000000000003,260.51985992380514 -0.997433306868898,222.43985992380516&#10;c 148.0046592564111,-32.64 202.95161558991646,0 202.95161558991646,49.56014007619484&#10;c 0,81.93490462328776 -85.30446468219554,114.57490462328776 -211.78868131053522,81.93490462328776&#10;c -79.82000000000001,-32.64 -49.120000000000005,114.24 9.834499027487652,190.06509537671224 c -0.0,93.1898550711455 30.700000000000003,249.07477328212852 -36.81880908030386,210.9947732821285&#10;c -60.76353965773455,-32.64 -115.75116971285397,0 -115.75116971285397,61.005226717871494&#10;c 0,51.62435836926369 34.12615880125992,84.26435836926369 35.33019494185599,51.62435836926369&#10;c 79.82000000000001,-32.64 49.120000000000005,114.24 117.23978385130182,220.3756416307363 L 0 3264 " fill="none" stroke="black" stroke-width="0.1" style="vector-effect:non-scaling-stroke;" /></g><g><path d="M 0 0  L 4298.000000 0  c -0.0,144.86434527902222 30.700000000000003,252.25600664402063 -68.44177739709745,214.17600664402062&#10;c -69.11852281226558,-32.64 -119.00358619769047,0 -119.00358619769047,57.82399335597938&#10;c 0,59.23607877622197 153.09820193862848,91.87607877622197 153.67391699029176,59.23607877622197&#10;c 79.82000000000001,-32.64 49.120000000000005,114.24 33.77144660449616,212.76392122377803 c -0.0,132.8694895630778 30.700000000000003,257.4856430872201 -33.78619067065992,219.40564308722014&#10;c -98.11360979204306,-32.64 -174.66285947774014,0 -174.66285947774014,52.59435691277986&#10;c 0,62.79403225492047 150.9989372121445,95.43403225492047 210.60343989335212,62.79403225492047&#10;c 79.82000000000001,-32.64 49.120000000000005,114.24 -2.1543897449520557,209.20596774507953 c 0.0,63.96946616619479 -30.700000000000003,223.32515443697986 53.65867270483693,185.24515443697985&#10;c 68.2036522945539,-32.64 94.53563356392362,0 94.53563356392362,86.75484556302015&#10;c 0,80.27422173729917 -38.35858660800226,112.91422173729917 -91.45051405891483,80.27422173729917&#10;c -79.82000000000001,-32.64 -49.120000000000005,114.24 -56.74379220984572,191.72577826270083 c -0.0,37.30976933143736 30.700000000000003,261.58374698133457 -117.08814237295634,223.5037469813346&#10;c -32.64135501033337,-32.64 -79.82615107290512,0 -79.82615107290512,48.49625301866541&#10;c 0,74.53094639535857 75.24394747952857,107.17094639535857 129.9249055790114,74.53094639535857&#10;c 79.82000000000001,-32.64 49.120000000000005,114.24 66.98938786685005,197.46905360464143 c -0.0,35.3567957045604 30.700000000000003,254.3899453342096 6.7047372428999275,216.3099453342096&#10;c -129.12222531455794,-32.64 -166.84076975128556,0 -166.84076975128556,55.6900546657904&#10;c 0,80.47205535501223 38.84515273425889,113.11205535501223 129.6511707914357,80.47205535501223&#10;c 79.82000000000001,-32.64 49.120000000000005,114.24 30.484861716949922,191.52794464498777 c -0.0,121.03622772005166 30.700000000000003,253.2162818789156 -32.343423721742845,215.13628187891558&#10;c -41.37410202998931,-32.64 -161.124624661071,0 -161.124624661071,56.86371812108442&#10;c 0,78.23018300243785 53.49917595091019,110.87018300243786 93.35759643117245,78.23018300243785&#10;c 79.82000000000001,-32.64 49.120000000000005,114.24 100.11045195164141,193.76981699756215 L 0 3264 " fill="none" stroke="black" stroke-width="0.1" style="vector-effect:non-scaling-stroke;" /></g></g><g><g><path d="M 0 0  L 0 544.000000  c 117.70826553084606,-0.0 264.159232126319,27.200000000000003 221.17923212631902,-50.88596789937597&#10;c -36.839999999999996,-93.37600493017867 0,-119.3568753264257 85.82076787368098,-119.3568753264257&#10;c 80.65919745918376,0 117.49919745918376,67.97336587449158 80.65919745918376,107.11809241946395&#10;c -36.839999999999996,70.72 128.94,43.52 226.34080254081624,63.124750806337715 c 37.18519328747524,-0.0 266.2675140792441,27.200000000000003 223.2875140792441,-86.65103259999518&#10;c -36.839999999999996,-58.49561251545105 0,-73.16025164167084 83.71248592075591,-73.16025164167084&#10;c 48.959424958572754,0 85.79942495857276,125.38516985836918 48.959424958572754,150.4365169543213&#10;c -36.839999999999996,70.72 128.94,43.52 258.04057504142725,9.374767287344724 c 154.25731861409622,0.0 302.6887342445048,-27.200000000000003 259.7087342445048,108.23025587711749&#10;c -36.839999999999996,38.73884312496952 0,38.94859892535487 47.2912657554952,38.94859892535487&#10;c 82.8645454562498,0 119.7045454562498,-9.143412192254882 82.8645454562498,-41.945422639370946&#10;c -36.839999999999996,-70.72 128.94,-43.52 224.1354545437502,-105.23343216310141 c 136.26454804435818,0.0 262.54284913580807,-27.200000000000003 219.56284913580808,107.09077874067818&#10;c -36.839999999999996,11.639990480199089 0,28.002719354562103 87.43715086419192,28.002719354562103&#10;c 74.24026628299492,0 111.08026628299493,-23.689620180296167 74.24026628299492,-58.833678787048896&#10;c -36.839999999999996,-70.72 128.94,-43.52 232.75973371700508,-76.25981930819138 c 131.1498371452127,-0.0 273.26733310397975,27.200000000000003 230.28733310397976,-77.48238374049279&#10;c -36.839999999999996,-47.81662233249826 0,-88.07553716443749 76.71266689602024,-88.07553716443749&#10;c 93.77677192601192,0 130.61677192601192,27.24560477071918 93.77677192601192,67.90144757941972&#10;c -36.839999999999996,70.72 128.94,43.52 213.22322807398808,97.65647332551056 c 45.823665953216675,0.0 259.244530540607,-27.200000000000003 216.264530540607,47.919356150477796&#10;c -36.839999999999996,79.20059272962378 0,130.69970572827546 90.73546945939299,130.69970572827546&#10;c 46.136615609681996,0 82.976615609682,-64.78492766666375 46.136615609681996,-112.99662865275421&#10;c -36.839999999999996,-70.72 128.94,-43.52 260.863384390318,-65.62243322599905 c 65.21528905220761,0.0 283.56201184715934,-27.200000000000003 240.58201184715935,78.84412059553081&#10;c -36.839999999999996,61.019671256027515 0,81.40270355220805 66.41798815284065,81.40270355220805&#10;c 47.34340568872216,0 84.18340568872216,-28.084713174902454 47.34340568872216,-54.2130638778724&#10;c -36.839999999999996,-70.72 128.94,-43.52 259.65659431127784,-106.03376026986646 c 59.73885519814718,0.0 255.3044239620367,-27.200000000000003 212.32442396203672,109.90056049791637&#10;c -36.839999999999996,33.526648536285045 0,40.417097099988055 94.67557603796328,40.417097099988055&#10;c 90.06548431676987,0 126.90548431676987,-35.57424820991585 90.06548431676987,-78.5188665672796&#10;c -36.839999999999996,-70.72 128.94,-43.52 216.93451568323013,-71.79879103062483 L 4912 0 " fill="none" stroke="black" stroke-width="0.1" style="vector-effect:non-scaling-stroke;" /></g><g><path d="M 0 0  L 0 1088.000000  c 81.98381526481396,0.0 263.0388126737901,-27.200000000000003 220.05881267379013,91.07828824777634&#10;c -36.839999999999996,44.21358036529838 0,88.6037909266292 86.94118732620987,88.6037909266292&#10;c 83.23881999366432,0 120.07881999366433,-60.68293840440106 83.23881999366432,-114.5765872563833&#10;c -36.839999999999996,-70.72 128.94,-43.52 223.76118000633568,-65.10549191802224 c 141.97697504056055,-0.0 305.85812468314117,27.200000000000003 262.87812468314115,-52.11701572342682&#10;c -36.839999999999996,-84.31060669265615 0,-88.06697021177558 44.12187531685885,-88.06697021177558&#10;c 77.51525585858087,0 114.35525585858088,79.64826011977485 77.51525585858087,147.62214743029745&#10;c -36.839999999999996,70.72 128.94,43.52 229.48474414141913,-7.438161495095045 c 167.8748279279532,0.0 269.8391358950492,-27.200000000000003 226.85913589504918,35.515204316661254&#10;c -36.839999999999996,69.96566794068505 0,126.22901042388088 80.14086410495082,126.22901042388088&#10;c 64.92885312141436,0 101.76885312141437,-66.35460065901185 64.92885312141436,-85.04721343437971&#10;c -36.839999999999996,-70.72 128.94,-43.52 242.07114687858564,-76.69700130616242 c 31.134643055262927,-0.0 291.07042840055334,27.200000000000003 248.09042840055332,-118.60356167230759&#10;c -36.839999999999996,-29.850690505753686 0,-40.57584410422584 58.90957159944668,-40.57584410422584&#10;c 69.85364042023662,0 106.69364042023662,19.7675033933967 69.85364042023662,46.27142028582712&#10;c -36.839999999999996,70.72 128.94,43.52 237.14635957976338,112.90798549070631 c 125.9641780878096,-0.0 264.17603088115555,27.200000000000003 221.19603088115556,-19.62482075567979&#10;c -36.839999999999996,-135.48724213893487 0,-139.03318567920516 85.80396911884444,-139.03318567920516&#10;c 81.4103240536515,0 118.2503240536515,60.79758854716727 81.4103240536515,118.53047300719496&#10;c -36.839999999999996,70.72 128.94,43.52 225.5896759463485,40.12753342769 c 50.18543721114854,-0.0 277.1338990758875,27.200000000000003 234.1538990758875,5.1354833316748625&#10;c -36.839999999999996,-92.89297032124188 0,-186.27431976503928 72.8461009241125,-186.27431976503928&#10;c 74.1920285854431,0 111.0320285854431,82.18142907344117 74.1920285854431,179.28829297308818&#10;c -36.839999999999996,70.72 128.94,43.52 232.8079714145569,1.850543460276242 c 114.98973949034283,-0.0 267.6247635461614,27.200000000000003 224.64476354616139,-79.9731788845032&#10;c -36.839999999999996,-60.718553251993804 0,-76.17399370451284 82.35523645383861,-76.17399370451284&#10;c 71.86874610939765,0 108.70874610939765,50.703517596818685 71.86874610939765,71.22079878834296&#10;c -36.839999999999996,70.72 128.94,43.52 235.13125389060235,84.92637380067308 c 139.64923106738235,0.0 270.4629970638599,-27.200000000000003 227.48299706385993,76.80782133531463&#10;c -36.839999999999996,70.34730872375621 0,92.43488035514764 79.51700293614007,92.43488035514764&#10;c 65.12550652720006,0 101.96550652720006,-73.67125793634055 65.12550652720006,-143.19623774601808&#10;c -36.839999999999996,-70.72 128.94,-43.52 241.87449347279994,-26.046463944444184 L 4912 0 " fill="none" stroke="black" stroke-width="0.1" style="vector-effect:non-scaling-stroke;" /></g><g><path d="M 0 0  L 0 1632.000000  c 51.215878308217896,-0.0 273.40128486379757,27.200000000000003 230.42128486379758,-14.25799232582206&#10;c -36.839999999999996,-41.139776438588335 0,-123.48890122771819 76.57871513620242,-123.48890122771819&#10;c 47.261500730101204,0 84.10150073010121,51.75190800309896 47.261500730101204,119.71162289489308&#10;c -36.839999999999996,70.72 128.94,43.52 259.7384992698988,18.035270658647164 c 121.61283549521238,-0.0 304.81431989842616,27.200000000000003 261.83431989842614,-18.89557239143252&#10;c -36.839999999999996,-60.434691143574206 0,-130.51137735433971 45.165680101573855,-130.51137735433971&#10;c 69.51119000513472,0 106.35119000513473,49.62744380666451 69.51119000513472,130.20326335959274&#10;c -36.839999999999996,70.72 128.94,43.52 237.48880999486528,19.2036863861795 c 77.47990850143613,-0.0 257.9501403432309,27.200000000000003 214.97014034323087,-12.50395610901966&#10;c -36.839999999999996,-111.32439672519746 0,-146.6365386722427 92.02985965676913,-146.6365386722427&#10;c 74.04071728218275,0 110.88071728218276,114.07320010446615 74.04071728218275,138.2224609578622&#10;c -36.839999999999996,70.72 128.94,43.52 232.95928271781725,20.91803382340015 c 62.74876902545081,0.0 281.49416192175966,-27.200000000000003 238.51416192175964,59.72695962532288&#10;c -36.839999999999996,58.54402415913263 0,75.61998300249775 68.48583807824036,75.61998300249775&#10;c 96.68236615128257,0 133.52236615128257,-36.49170870500467 96.68236615128257,-139.20605614979095&#10;c -36.839999999999996,-70.72 128.94,-43.52 210.31763384871743,3.859113521970329 c 79.35010752784649,0.0 263.9139483848766,-27.200000000000003 220.9339483848766,84.29370055347455&#10;c -36.839999999999996,43.03440519151491 0,80.70035906727146 86.0660516151234,80.70035906727146&#10;c 71.17458703755403,0 108.01458703755404,-39.4913133023114 71.17458703755403,-127.86204200981331&#10;c -36.839999999999996,-70.72 128.94,-43.52 235.82541296244597,-37.13201761093271 c 144.87909693497647,0.0 253.06312477337718,-27.200000000000003 210.0831247733772,15.434813514620425&#10;c -36.839999999999996,49.68944890004123 0,132.67105689553412 96.9168752266228,132.67105689553412&#10;c 57.69550560315815,0 94.53550560315816,-65.44360631947387 57.69550560315815,-66.40382617415057&#10;c -36.839999999999996,-70.72 128.94,-43.52 249.30449439684185,-81.70204423600399 c 147.5190880238515,0.0 268.3832870309119,-27.200000000000003 225.40328703091188,21.526381372277715&#10;c -36.839999999999996,139.78955428873212 0,159.64131961136624 81.59671296908812,159.64131961136624&#10;c 49.4975488156619,0 86.3375488156619,-103.71180962331476 49.4975488156619,-138.2921648852071&#10;c -36.839999999999996,-70.72 128.94,-43.52 257.5024511843381,-42.87553609843687 c 76.94925326526534,-0.0 293.67384971840033,27.200000000000003 250.69384971840034,-64.1429201975994&#10;c -36.839999999999996,-61.01934619341258 0,-91.5767756317869 56.306150281599656,-91.5767756317869&#10;c 64.19448468368398,0 101.03448468368398,136.77603162716724 64.19448468368398,160.1373246737524&#10;c -36.839999999999996,70.72 128.94,43.52 242.80551531631602,-4.4176288443661065 L 4912 0 " fill="none" stroke="black" stroke-width="0.1" style="vector-effect:non-scaling-stroke;" /></g><g><path d="M 0 0  L 0 2176.000000  c 69.57152517632368,-0.0 266.97860807484454,27.200000000000003 223.99860807484453,-15.450960854412283&#10;c -36.839999999999996,-120.54281752902594 0,-125.99982782973173 83.00139192515547,-125.99982782973173&#10;c 46.92766931475467,0 83.76766931475467,110.47974795797231 46.92766931475467,114.7869111333077&#10;c -36.839999999999996,70.72 128.94,43.52 260.07233068524533,26.663877550836318 c 63.62537465095674,-0.0 266.64986803451575,27.200000000000003 223.66986803451573,-79.32367834427994&#10;c -36.839999999999996,-24.314230798045838 0,-59.26375415334856 83.33013196548427,-59.26375415334856&#10;c 52.21751416898559,0 89.05751416898559,13.05427185361244 52.21751416898559,41.71412737297011&#10;c -36.839999999999996,70.72 128.94,43.52 254.7824858310144,96.87330512465839 c 54.241163853042124,-0.0 285.0825670440342,27.200000000000003 242.1025670440342,-21.977002482982904&#10;c -36.839999999999996,-114.44212108014256 0,-144.53003193095088 64.8974329559658,-144.53003193095088&#10;c 61.93060087442916,0 98.77060087442916,78.7664918319441 61.93060087442916,169.46105703217523&#10;c -36.839999999999996,70.72 128.94,43.52 245.06939912557084,-2.954022618241453 c 115.39141773719852,0.0 296.90455731649024,-27.200000000000003 253.92455731649022,14.508983113191523&#10;c -36.839999999999996,69.45344615902884 0,120.8483408708429 53.07544268350978,120.8483408708429&#10;c 66.49926805987417,0 103.33926805987417,-71.10656099203783 66.49926805987417,-125.56100834546406&#10;c -36.839999999999996,-70.72 128.94,-43.52 240.50073194012583,-9.796315638570363 c 75.90263946500747,-0.0 264.55501661092546,27.200000000000003 221.57501661092547,-33.67044778118299&#10;c -36.839999999999996,-66.15150427997104 0,-124.40059359052847 85.42498338907453,-124.40059359052847&#10;c 75.5569585121645,0 112.3969585121645,68.97350220581127 75.5569585121645,143.50565708269076&#10;c -36.839999999999996,70.72 128.94,43.52 231.4430414878355,14.565384289020699 c 49.69349166093588,-0.0 289.6040991322086,27.200000000000003 246.6240991322086,-80.55294038310876&#10;c -36.839999999999996,-61.03841066768036 0,-68.17988952336685 60.37590086779139,-68.17988952336685&#10;c 58.51571737059203,0 95.35571737059203,78.24358147526208 58.51571737059203,136.60134770573993&#10;c -36.839999999999996,70.72 128.94,43.52 248.48428262940797,12.13148220073569 c 40.330590842770675,0.0 253.2301277212444,-27.200000000000003 210.25012772124438,45.36891651756805&#10;c -36.839999999999996,105.81975798705038 0,106.18225980588984 96.74987227875562,106.18225980588984&#10;c 81.35380613426702,0 118.19380613426702,-92.84210206071462 81.35380613426702,-150.6134521554917&#10;c -36.839999999999996,-70.72 128.94,-43.52 225.64619386573298,-0.937724167966195 c 131.210531114719,0.0 272.7602996932493,-27.200000000000003 229.7802996932493,85.54607158409955&#10;c -36.839999999999996,31.074103622611933 0,50.515433077263296 77.2197003067507,50.515433077263296&#10;c 44.333913698967876,0 81.17391369896788,-12.866262932069358 44.333913698967876,-18.84271131374703&#10;c -36.839999999999996,-70.72 128.94,-43.52 262.6660863010321,-117.21879334761582 L 4912 0 " fill="none" stroke="black" stroke-width="0.1" style="vector-effect:non-scaling-stroke;" /></g><g><path d="M 0 0  L 0 2720.000000  c 45.730651897798445,-0.0 253.9960634317634,27.200000000000003 211.0160634317634,-51.178078984004394&#10;c -36.839999999999996,-81.02506690584897 0,-97.82610033735659 95.9839365682366,-97.82610033735659&#10;c 96.01240867434956,0 132.85240867434956,16.309954971693266 96.01240867434956,50.661432913073156&#10;c -36.839999999999996,70.72 128.94,43.52 210.98759132565044,98.34274640828784 c 132.19048192478868,0.0 289.67723660357916,-27.200000000000003 246.69723660357914,95.30022147370745&#10;c -36.839999999999996,14.058596878436454 0,64.76996327929773 60.30276339642086,64.76996327929773&#10;c 84.21343552979295,0 121.05343552979295,-43.85781125912219 84.21343552979295,-72.39911583947415&#10;c -36.839999999999996,-70.72 128.94,-43.52 222.78656447020705,-87.67106891353103 c 74.28480806978942,0.0 286.00605676607523,-27.200000000000003 243.02605676607521,117.55319383781251&#10;c -36.839999999999996,9.053463600162537 0,26.45397386881588 63.973943233924786,26.45397386881588&#10;c 78.89883257719464,0 115.73883257719464,-56.52426901836284 78.89883257719464,-64.41722868020062&#10;c -36.839999999999996,-70.72 128.94,-43.52 228.10116742280536,-79.58993902642777 c 175.29461084230695,0.0 271.53202901860743,-27.200000000000003 228.5520290186074,79.81392709933704&#10;c -36.839999999999996,73.92259581057256 0,83.50334232459153 78.44797098139259,83.50334232459153&#10;c 74.1400459842747,0 110.98004598427471,-61.97639901117247 74.1400459842747,-124.38742901820913&#10;c -36.839999999999996,-70.72 128.94,-43.52 232.8599540157253,-38.92984040571943 c 38.884154875193175,-0.0 257.18495965066165,27.200000000000003 214.20495965066166,-39.871725495716966&#10;c -36.839999999999996,-105.61006301064768 0,-123.03242231820909 92.79504034933834,-123.03242231820909&#10;c 83.75208565850875,0 120.59208565850875,46.486952222559175 83.75208565850875,173.22181596698735&#10;c -36.839999999999996,70.72 128.94,43.52 223.24791434149125,-10.317668153061305 c 165.81418428173552,0.0 262.37182258077837,-27.200000000000003 219.39182258077835,39.90495432160277&#10;c -36.839999999999996,59.35288518441646 0,96.88934126943504 87.60817741922165,96.88934126943504&#10;c 48.177642242854745,0 85.01764224285475,-18.17948951524152 48.177642242854745,-27.914432868044713&#10;c -36.839999999999996,-70.72 128.94,-43.52 258.82235775714526,-108.8798627229931 c 63.33231527567689,-0.0 292.0874271121086,27.200000000000003 249.10742711210864,-96.78080220427275&#10;c -36.839999999999996,-74.40963969721456 0,-87.07027264241852 57.89257288789136,-87.07027264241852&#10;c 95.60480079077519,0 132.4448007907752,39.8996830977817 95.60480079077519,134.08926880211308&#10;c -36.839999999999996,70.72 128.94,43.52 211.3951992092248,49.76180604457818 c 37.273937918506924,-0.0 304.61631197742264,27.200000000000003 261.6363119774226,-11.326166123543098&#10;c -36.839999999999996,-46.6685098798259 0,-140.14223678338968 45.36368802257738,-140.14223678338968&#10;c 89.0186255919362,0 125.8586255919362,83.12656054808271 89.0186255919362,126.6896940653313&#10;c -36.839999999999996,70.72 128.94,43.52 217.9813744080638,24.77870884160147 L 4912 0 " fill="none" stroke="black" stroke-width="0.1" style="vector-effect:non-scaling-stroke;" /></g></g></svg>