<svg baseProfile="full" height="1707" preserveAspectRatio="none" shape-rendering="geometricPrecision" version="1.1" viewBox="0,0,1280,1707" width="1280" xmlns="http://www.w3.org/2000/svg" xmlns:ev="http://www.w3.org/2001/xml-events" xmlns:xlink="http://www.w3.org/1999/xlink"><title>Jigsaw puzzle piece clips</title><desc>Created with the piecemaker. Piece count: 48</desc><defs/><g><g><rect fill="white" height="1707" width="1280" x="0" y="0"/></g></g><g><g><path d="M 0 0  L 213.333333 0  c 0.0,57.472599168800805 -10.666666666666668,87.96177136137617 29.650011359442644,73.02552136137616
c 23.928428517863743,-12.8025 32.36782071044036,0 32.36782071044036,33.661978638623836
c 0,30.62812055814817 -20.737160631467102,43.43062055814817 -29.813799868365066,30.62812055814817
c -27.733333333333334,-12.8025 -17.066666666666666,44.808749999999996 -32.20403220151794,76.05937944185183 c 0.0,15.791650193122202 -10.666666666666668,91.69080868067789 -0.3207908850196114,76.75455868067789
c 20.28559156013303,-12.8025 70.17959265352943,0 70.17959265352943,29.93294131932211
c 0,20.443864208942216 -20.889583401511832,33.24636420894222 -30.285429241861536,20.443864208942216
c -27.733333333333334,-12.8025 -17.066666666666666,44.808749999999996 -39.573372526648285,86.24363579105778 c -0.0,50.71281211231987 10.666666666666668,89.36755608146447 -18.548020358562766,74.43130608146447
c -35.464344962983844,-12.8025 -49.8629283512288,0 -49.8629283512288,32.25619391853553
c 0,18.451859446126278 12.25268259126735,31.25435944612628 21.722205762499208,18.451859446126278
c 27.733333333333334,-12.8025 17.066666666666666,44.808749999999996 46.68874294729236,88.23564055387372 c 0.0,38.01597035777993 -10.666666666666668,88.55188781703782 11.71784065240941,73.61563781703782
c 11.86101175748081,-12.8025 44.60614452574073,0 44.60614452574073,33.07186218296218
c 0,27.798079202836647 -20.422839299689233,40.60057920283665 -22.672636825650933,27.798079202836647
c -27.733333333333334,-12.8025 -17.066666666666666,44.808749999999996 -33.651348352499205,78.88942079716335 c 0.0,38.526100948889955 -10.666666666666668,96.18297677900073 35.50002047546715,81.24672677900072
c 15.753948044041222,-12.8025 24.045925291001893,0 24.045925291001893,25.440773220999276
c 0,26.030319380676445 -27.93690228818144,38.83281938067645 -33.01560512915942,26.030319380676445
c -27.733333333333334,-12.8025 -17.066666666666666,44.808749999999996 -26.530340637309628,80.65718061932355 c -0.0,41.06879714554065 10.666666666666668,100.93416837930471 -3.8388338588718125,85.9979183793047
c -34.994260379435346,-12.8025 -60.020251970186045,0 -60.020251970186045,20.689581620695293
c 0,20.92857281205059 35.81970743911482,33.73107281205059 59.39153658920134,20.92857281205059
c 27.733333333333334,-12.8025 17.066666666666666,44.808749999999996 4.467549239856524,85.75892718794941 c 0.0,56.19384110065421 -10.666666666666668,105.6642705244573 11.52589696798794,90.72802052445729
c 30.618699173671644,-12.8025 45.2315180393737,0 45.2315180393737,15.959479475542707
c 0,17.111036334269514 -11.515887390559149,29.913536334269516 -16.657566081415602,17.111036334269514
c -27.733333333333334,-12.8025 -17.066666666666666,44.808749999999996 -40.099848925946034,89.57646366573049 c -0.0,60.78189102470464 10.666666666666668,97.86723386349713 -40.13776390346834,82.93098386349713
c -12.7543079906019,-12.8025 -19.174084579030804,0 -19.174084579030804,23.756516136502867
c 0,30.41581098301637 4.389762559679965,43.21831098301637 17.037954151094688,30.41581098301637
c 27.733333333333334,-12.8025 17.066666666666666,44.808749999999996 42.273894331404456,76.27168901698363 L 0 1707 " fill="none" stroke="black" stroke-width="0.1" style="vector-effect:non-scaling-stroke;"/></g><g><path d="M 0 0  L 426.666667 0  c -0.0,18.02149532863866 10.666666666666668,102.6341432066066 -20.398399452316557,87.6978932066066
c -16.149970435816588,-12.8025 -40.55760670865122,0 -40.55760670865122,18.989606793393406
c 0,33.10810170699273 10.651889382059125,45.91060170699273 44.82204176739452,33.10810170699273
c 27.733333333333334,-12.8025 17.066666666666666,44.808749999999996 16.13396439357325,73.57939829300727 c -0.0,31.136679495453844 10.666666666666668,92.86688125480626 -21.370287085621253,77.93063125480626
c -14.864099495317934,-12.8025 -39.71236184466625,0 -39.71236184466625,28.756868745193742
c 0,20.653618249202268 13.265398354558824,33.45611824920227 25.234389624244727,20.653618249202268
c 27.733333333333334,-12.8025 17.066666666666666,44.808749999999996 35.84825930604278,86.03388175079773 c -0.0,41.211826511704295 10.666666666666668,91.25057939195486 -16.164915221984995,76.31432939195486
c -54.00619829444108,-12.8025 -54.95156315661734,0 -54.95156315661734,30.373170608045143
c 0,15.87469115903724 30.80969685324992,28.677191159037243 51.96300388394441,15.87469115903724
c 27.733333333333334,-12.8025 17.066666666666666,44.808749999999996 19.153474494657928,90.81280884096276 c 0.0,34.9543469234708 -10.666666666666668,93.16657952654671 -0.27260966352898064,78.23032952654671
c 31.904979587449883,-12.8025 70.32301726723527,0 70.32301726723527,28.45717047345329
c 0,18.031751922694127 -39.393348793183954,30.83425192269413 -60.667628510987065,18.031751922694127
c -27.733333333333334,-12.8025 -17.066666666666666,44.808749999999996 -9.382779092719225,88.65574807730587 c 0.0,23.105255782849024 -10.666666666666668,96.50939028166553 33.66303035426298,81.57314028166553
c 17.974850039513694,-12.8025 31.895203518251456,0 31.895203518251456,25.11435971833447
c 0,15.034426275151077 -23.905157658602853,27.83692627515108 -50.157595088690194,15.034426275151077
c -27.733333333333334,-12.8025 -17.066666666666666,44.808749999999996 -15.400638783824242,91.65307372484892 c -0.0,17.01051394962023 10.666666666666668,97.14338867742381 -18.090974779301252,82.20713867742381
c -25.21648284921427,-12.8025 -52.142273839310946,0 -52.142273839310946,24.480361322576186
c 0,31.15857859234916 14.169910953559333,43.96107859234916 48.70596857813828,31.15857859234916
c 27.733333333333334,-12.8025 17.066666666666666,44.808749999999996 21.52728004047391,75.52892140765084 c -0.0,57.49397639214579 10.666666666666668,102.71504504196676 -44.279028391523696,87.77879504196676
c -14.795439984608912,-12.8025 -25.4135057513206,0 -25.4135057513206,18.90870495803324
c 0,18.132396174216154 40.10451549211979,30.934896174216156 62.01121791494271,18.132396174216154
c 27.733333333333334,-12.8025 17.066666666666666,44.808749999999996 7.681316227901583,88.55510382578385 c 0.0,46.596736808581205 -10.666666666666668,101.04282088228132 8.545970695770286,86.10657088228132
c 43.09725735521398,-12.8025 58.47457501286832,0 58.47457501286832,20.580929117718682
c 0,31.928798161501163 -29.963635118660633,44.731298161501165 -43.491316816820984,31.928798161501163
c -27.733333333333334,-12.8025 -17.066666666666666,44.808749999999996 -23.529228891817624,74.75870183849884 L 0 1707 " fill="none" stroke="black" stroke-width="0.1" style="vector-effect:non-scaling-stroke;"/></g><g><path d="M 0 0  L 640.000000 0  c 0.0,25.831795438131397 -10.666666666666668,90.99756687123165 -2.3647190177032296,76.06131687123165
c 53.65577095610128,-12.8025 61.878843082860286,0 61.878843082860286,30.626183128768346
c 0,31.99576115929085 -9.676216973167202,44.79826115929085 -14.712450958454312,31.99576115929085
c -27.733333333333334,-12.8025 -17.066666666666666,44.808749999999996 -44.801673106702744,74.69173884070915 c -0.0,28.96198864410292 10.666666666666668,99.46735339347288 -8.92254529923255,84.53110339347288
c -18.995430366229684,-12.8025 -56.234334327797626,0 -56.234334327797626,22.156396606527125
c 0,22.945068125017656 4.139401123268036,35.74756812501766 18.402024860749563,22.945068125017656
c 27.733333333333334,-12.8025 17.066666666666666,44.808749999999996 46.754854766280616,83.74243187498234 c 0.0,46.57935939101108 -10.666666666666668,92.95676997283081 2.6976929025084315,78.02051997283081
c 30.791860353976947,-12.8025 52.089596196067774,0 52.089596196067774,28.66698002716919
c 0,21.94137847141195 -11.727345402375372,34.74387847141195 -26.54067091309054,21.94137847141195
c -27.733333333333334,-12.8025 -17.066666666666666,44.808749999999996 -28.246618185485662,84.74612152858805 c 0.0,52.48098998660905 -10.666666666666668,100.50684586744049 19.410155756197256,85.57059586744049
c 21.305810535652736,-12.8025 36.11444009765533,0 36.11444009765533,21.11690413255951
c 0,18.26468195159441 -14.821408823316371,31.067181951594414 -28.26691786993258,18.26468195159441
c -27.733333333333334,-12.8025 -17.066666666666666,44.808749999999996 -27.257677983920008,88.42281804840559 c 0.0,21.875286725419368 -10.666666666666668,88.9469294557721 19.44549159504142,74.0106794557721
c 17.13171310186158,-12.8025 37.678709488126884,0 37.678709488126884,32.676820544227894
c 0,25.41481088787242 -31.162308797661755,38.21731088787242 -38.26925558938511,25.41481088787242
c -27.733333333333334,-12.8025 -17.066666666666666,44.808749999999996 -18.85494549378319,81.27268911212758 c -0.0,61.362959613061825 10.666666666666668,101.88338112770951 -36.216500377863454,86.94713112770951
c -16.950618417912725,-12.8025 -26.716355482489718,0 -26.716355482489718,19.74036887229049
c 0,32.57871328878693 20.021451975227084,45.38121328878693 33.30289798751082,32.57871328878693
c 27.733333333333334,-12.8025 17.066666666666666,44.808749999999996 29.629957872842354,74.10878671121307 c 0.0,44.50591601022874 -10.666666666666668,93.41225422300252 30.09774742237658,78.47600422300252
c 24.404889000169714,-12.8025 24.34963766285276,0 24.34963766285276,28.21149577699748
c 0,23.80676284478065 -26.097697225356406,36.60926284478065 -34.29456701255788,23.80676284478065
c -27.733333333333334,-12.8025 -17.066666666666666,44.808749999999996 -20.152818072671465,82.88073715521935 c -0.0,46.28325358061442 10.666666666666668,106.1631749461234 -35.261487207087775,91.2269249461234
c -22.617485233577877,-12.8025 -26.834435825674753,0 -26.834435825674753,15.460575053876596
c 0,30.769515586548067 21.350292371706118,43.57201558654807 36.28228394633656,30.769515586548067
c 27.733333333333334,-12.8025 17.066666666666666,44.808749999999996 25.813639086425965,75.91798441345193 L 0 1707 " fill="none" stroke="black" stroke-width="0.1" style="vector-effect:non-scaling-stroke;"/></g><g><path d="M 0 0  L 853.333333 0  c 0.0,44.70680346771168 -10.666666666666668,105.22954451551516 39.495992628859284,90.29329451551516
c 14.703593317531752,-12.8025 20.88294542049786,0 20.88294542049786,16.394205484484843
c 0,20.846276807192126 -8.862446352018742,33.64877680719213 -40.86129797923513,20.846276807192126
c -27.733333333333334,-12.8025 -17.066666666666666,44.808749999999996 -19.517640070122013,85.84122319280787 c -0.0,53.374022739850766 10.666666666666668,96.01872657406803 -11.033901169591166,81.08247657406802
c -40.0872714556076,-12.8025 -44.7795748299221,0 -44.7795748299221,25.605023425931975
c 0,17.502417137044887 18.73729399243339,30.30491713704489 51.763965429279295,17.502417137044887
c 27.733333333333334,-12.8025 17.066666666666666,44.808749999999996 4.04951057023397,89.18508286295511 c 0.0,54.499385310539026 -10.666666666666668,90.60669039620294 -4.108962322996364,75.67044039620293
c 37.996102458491556,-12.8025 63.15946615316789,0 63.15946615316789,31.017059603797065
c 0,15.97489678255748 -58.038055546881054,28.77739678255748 -60.49889932063767,15.97489678255748
c -27.733333333333334,-12.8025 -17.066666666666666,44.808749999999996 1.4483954904661402,90.71260321744252 c 0.0,37.475396617974795 -10.666666666666668,89.14126048605678 22.657048948496048,74.20501048605678
c 11.477743741678664,-12.8025 41.23588636991581,0 41.23588636991581,32.48248951394322
c 0,17.63779262350674 -17.7405710914282,30.440292623506743 -27.239561127184842,17.63779262350674
c -27.733333333333334,-12.8025 -17.066666666666666,44.808749999999996 -36.653374191227016,89.04970737649326 c 0.0,47.40320647202365 -10.666666666666668,95.75485701561813 42.40855975650447,80.81860701561813
c 9.694601087037569,-12.8025 14.455416974172273,0 14.455416974172273,25.868892984381873
c 0,22.754524992268955 -17.16177269957975,35.55702499226896 -32.25701109878558,22.754524992268955
c -27.733333333333334,-12.8025 -17.066666666666666,44.808749999999996 -24.606965631891157,83.93297500773105 c -0.0,50.81287140271932 10.666666666666668,87.79623982310042 -10.865434832476746,72.85998982310042
c -44.280453436347706,-12.8025 -54.555090526280374,0 -54.555090526280374,33.82751017689958
c 0,15.812815318553163 26.141577792158078,28.615315318553165 49.05216209057565,15.812815318553163
c 27.733333333333334,-12.8025 17.066666666666666,44.808749999999996 16.36836326818147,90.87468468144684 c -0.0,30.420973131219167 10.666666666666668,91.09312734727509 -28.382251705831415,76.15687734727508
c -19.324811603802537,-12.8025 -28.823755092436635,0 -28.823755092436635,30.530622652724915
c 0,18.683321092892456 7.439404399942069,31.485821092892458 27.032590578216592,18.683321092892456
c 27.733333333333334,-12.8025 17.066666666666666,44.808749999999996 30.173416220051458,88.00417890710754 c -0.0,55.11276632259601 10.666666666666668,95.91500131691589 0.22735975304580455,80.97875131691589
c -51.03169430769504,-12.8025 -55.017197133630475,0 -55.017197133630475,25.70874868308411
c 0,28.883727914022273 8.647164614130732,41.686227914022275 12.74033567333192,28.883727914022273
c 27.733333333333334,-12.8025 17.066666666666666,44.808749999999996 42.04950170725275,77.80377208597773 L 0 1707 " fill="none" stroke="black" stroke-width="0.1" style="vector-effect:non-scaling-stroke;"/></g><g><path d="M 0 0  L 1066.666667 0  c 0.0,45.857110568410505 -10.666666666666668,92.45068778718895 42.26459133903392,77.51443778718895
c 21.96008093005615,-12.8025 27.270638661519676,0 27.270638661519676,29.173062212811047
c 0,20.385573616298302 -60.475620830236096,33.188073616298304 -73.44301869250143,20.385573616298302
c -27.733333333333334,-12.8025 -17.066666666666666,44.808749999999996 3.907788691947829,86.3019263837017 c 0.0,13.154953903673293 -10.666666666666668,88.8063145272114 4.241457947518843,73.8700645272114
c 47.81931172548101,-12.8025 60.58767151256553,0 60.58767151256553,32.8174354727886
c 0,21.724062826844857 -30.240320352057143,34.52656282684486 -63.830792101785455,21.724062826844857
c -27.733333333333334,-12.8025 -17.066666666666666,44.808749999999996 -0.9983373582989188,84.96343717315514 c 0.0,27.56556139231217 -10.666666666666668,89.2054474431151 -2.538514473425151,74.2691974431151
c 39.68081668458712,-12.8025 60.282299492345366,0 60.282299492345366,32.418302556884896
c 0,31.396848098642806 -9.938248935861976,44.19934809864281 -25.983193456944687,31.396848098642806
c -27.733333333333334,-12.8025 -17.066666666666666,44.808749999999996 -31.760591561975527,75.2906519013572 c 0.0,33.83912645453977 -10.666666666666668,104.59676926224141 24.77739005921932,89.66051926224141
c 29.812921365919586,-12.8025 36.93538078793543,0 36.93538078793543,17.026980737758592
c 0,19.521216705090396 -17.438822689559974,32.3237167050904 -25.13686548306483,19.521216705090396
c -27.733333333333334,-12.8025 -17.066666666666666,44.808749999999996 -36.57590536408992,87.1662832949096 c -0.0,20.68518612212273 10.666666666666668,105.81665152314699 -37.889345685626104,90.88040152314699
c -9.16421309977877,-12.8025 -24.302453090238323,0 -24.302453090238323,15.807098476853014
c 0,16.12626293422217 22.37323649431627,28.92876293422217 34.38215898370038,16.12626293422217
c 27.733333333333334,-12.8025 17.066666666666666,44.808749999999996 27.80963979216405,90.56123706577783 c 0.0,47.216337505402514 -10.666666666666668,102.55504511999922 40.34679176990838,87.61879511999922
c 13.459999032850599,-12.8025 29.508796553422656,0 29.508796553422656,19.06870488000078
c 0,28.2634747884415 -21.371308355499465,41.0659747884415 -36.16376557447252,28.2634747884415
c -27.733333333333334,-12.8025 -17.066666666666666,44.808749999999996 -33.69182274885851,78.4240252115585 c 0.0,36.00555517076782 -10.666666666666668,96.40900433958974 23.489370185793558,81.47275433958974
c 10.443745692587965,-12.8025 37.567330716956974,0 37.567330716956974,25.21474566041026
c 0,29.89803607681546 -12.947652753855989,42.70053607681546 -38.30925658504994,29.89803607681546
c -27.733333333333334,-12.8025 -17.066666666666666,44.808749999999996 -22.747444317700598,76.78946392318454 c 0.0,57.248333770950595 -10.666666666666668,97.4280397365843 43.45734534375328,82.4917897365843
c 5.015677939594135,-12.8025 8.168439514752563,0 8.168439514752563,24.195710263415705
c 0,29.023397096060222 -31.84947491671367,41.825897096060224 -46.55658897746238,29.023397096060222
c -27.733333333333334,-12.8025 -17.066666666666666,44.808749999999996 -5.069195881043463,77.66410290393978 L 0 1707 " fill="none" stroke="black" stroke-width="0.1" style="vector-effect:non-scaling-stroke;"/></g></g><g><g><path d="M 0 0  L 0 213.375000  c 35.336077713817915,-0.0 102.72824903405862,10.668750000000001 87.79491570072528,-33.72502830082231
c -12.8,-21.296176458661932 0,-22.811264975390195 18.871750965941388,-22.811264975390195
c 17.045555725375934,0 29.845555725375934,10.602957467580287 17.045555725375934,11.850394064062613
c -12.8,27.73875 44.8,17.07 89.62111094129074,44.68589921214989 c 29.24780597946954,-0.0 102.27496306991497,10.668750000000001 87.34162973658164,-42.82411576224215
c -12.8,-11.768842917864973 0,-25.80152596819162 19.325036930085034,-25.80152596819162
c 23.09659725029583,0 35.89659725029583,46.136595036354265 23.09659725029583,64.01638674828557
c -12.8,27.73875 44.8,17.07 83.57006941637084,4.609254982148201 c 11.873404285079372,-0.0 102.34853589077504,10.668750000000001 87.4152025574417,-33.76619576932263
c -12.8,-35.79333560159599 0,-37.200132235066796 19.25146410922497,-37.200132235066796
c 26.87674631407502,0 39.67674631407502,20.83755938088629 26.87674631407502,34.567895520130996
c -12.8,27.73875 44.8,17.07 79.78992035259165,36.39843248425843 c 20.011290356902947,0.0 104.29791144519734,-10.668750000000001 89.364578111864,7.358181718267141
c -12.8,16.28420890346661 0,57.98751831862153 17.302088554802665,57.98751831862153
c 22.007178220552376,0 34.80717822055237,-39.18463647813959 22.007178220552376,-50.84479960124133
c -12.8,-27.73875 44.8,-17.07 84.6594884461143,-14.500900435647345 c 14.787012987873851,-0.0 101.88372459433991,10.668750000000001 86.95039126100657,-12.176571900761356
c -12.8,-13.81080537573882 0,-60.144461495709834 19.7162754056601,-60.144461495709834
c 21.420279422770264,0 34.22027942277026,7.3176176334701255 21.420279422770264,34.61589860634228
c -12.8,27.73875 44.8,17.07 85.24638724389641,37.705134790128916 c 57.58681350891795,0.0 99.0245794832767,-10.668750000000001 84.09124614994336,24.016170932937065
c -12.8,10.6377034293511 0,30.341645386405723 22.575420516723312,30.341645386405723
c 20.257886617414613,0 33.05788661741461,-3.7794710813201404 20.257886617414613,-7.9073422395892905
c -12.8,-27.73875 44.8,-17.07 86.40878004925206,-46.4504740797535 L 1280 0 " fill="none" stroke="black" stroke-width="0.1" style="vector-effect:non-scaling-stroke;"/></g><g><path d="M 0 0  L 0 426.750000  c 11.566795824480925,-0.0 92.35022418789369,10.668750000000001 77.41689085456035,-8.411338223651763
c -12.8,-29.723115441090307 0,-61.248765229402046 29.24977581210632,-61.248765229402046
c 17.266464681454536,0 30.066464681454537,55.068470687007895 17.266464681454536,63.298540983044205
c -12.8,27.73875 44.8,17.07 89.40020198521214,6.361562470009602 c 27.207577731837123,-0.0 93.17863233445166,10.668750000000001 78.24529900111833,-12.945313148633826
c -12.8,-28.94214148899833 0,-52.18218468354203 28.421367665548345,-52.18218468354203
c 24.05842739189312,0 36.858427391893116,22.490500659582498 24.05842739189312,24.211945117665024
c -12.8,27.73875 44.8,17.07 82.60823927477355,40.91555271451084 c 13.936560179433641,-0.0 101.88496243532555,10.668750000000001 86.95162910199221,-8.980968001657343
c -12.8,-34.72015631499069 0,-43.272823986033444 19.71503756467446,-43.272823986033444
c 30.439420926204278,0 43.239420926204275,20.29547702059422 30.439420926204278,50.2881940233204
c -12.8,27.73875 44.8,17.07 76.2272457404624,1.9655979643703887 c 36.313338260559625,0.0 90.29598959594053,-10.668750000000001 75.36265626260719,-2.8362965812134346
c -12.8,43.71696539419582 0,74.52263864603395 31.304010404059483,74.52263864603395
c 29.149141014197525,0 41.94914101419752,-22.02553326037864 29.149141014197525,-28.18682816220442
c -12.8,-27.73875 44.8,-17.07 77.51752565246915,-43.4995139026161 c 11.63385014086301,0.0 98.3015984398971,-10.668750000000001 83.36826510656377,31.366943015378748
c -12.8,11.640941203190279 0,40.68614435695385 23.298401560102903,40.68614435695385
c 27.40427202142486,0 40.204272021424856,-53.347737229290225 27.40427202142486,-73.23429812827355
c -12.8,-27.73875 44.8,-17.07 79.26239464524181,1.1812107559409526 c 36.25850090158522,-0.0 106.32908955939767,10.668750000000001 91.39575622606434,-8.918570831878968
c -12.8,-49.91798109263648 0,-63.3901786534895 15.270910440602336,-63.3901786534895
c 16.195061026796935,0 28.995061026796936,14.815349112471125 16.195061026796935,25.385268163509302
c -12.8,27.73875 44.8,17.07 90.47160563986974,46.923481321859164 L 1280 0 " fill="none" stroke="black" stroke-width="0.1" style="vector-effect:non-scaling-stroke;"/></g><g><path d="M 0 0  L 0 640.125000  c 10.909032476863933,-0.0 96.43694689244889,10.668750000000001 81.50361355911555,-8.417154718679514
c -12.8,-25.040990951740554 0,-48.252213544646665 25.16305310755112,-48.252213544646665
c 26.708396088773625,0 39.50839608877362,20.393339468095437 26.708396088773625,41.30774315965784
c -12.8,27.73875 44.8,17.07 79.95827057789305,15.361625103668338 c 11.562712357917832,0.0 104.64796769814123,-10.668750000000001 89.71463436480789,12.648348345150227
c -12.8,10.86263035095966 0,50.747365104005226 16.95203230185878,50.747365104005226
c 17.816717525552406,0 30.616717525552406,-10.000211497505568 17.816717525552406,-40.3885713397053
c -12.8,-27.73875 44.8,-17.07 88.84994914111427,-23.00714210945015 c 22.78519935154714,0.0 90.5387329441048,-10.668750000000001 75.60539961077146,43.1953990137533
c -12.8,8.24592116014338 0,10.347450728093548 31.061267055895215,10.347450728093548
c 25.52161063396484,0 38.32161063396484,-3.74525339699549 25.52161063396484,-10.610315431090442
c -12.8,-27.73875 44.8,-17.07 81.14505603270183,-42.93253431075641 c 50.31095710961804,-0.0 93.85073262754787,10.668750000000001 78.91739929421453,-10.675655016839531
c -12.8,-12.841749197681972 0,-43.16030936512364 27.749267372452138,-43.16030936512364
c 16.15506889536711,0 28.95506889536711,26.159604742918415 16.15506889536711,35.32032381550107
c -12.8,27.73875 44.8,17.07 90.51159777129956,18.515640566462096 c 13.91477475407401,-0.0 100.13770680160872,10.668750000000001 85.20437346827538,-6.954965931894899
c -12.8,-16.8414778863467 0,-48.62645077199181 21.462293198391293,-48.62645077199181
c 24.702525576024684,0 37.50252557602468,5.885276601823928 24.702525576024684,8.881174859210901
c -12.8,27.73875 44.8,17.07 81.96414109064199,46.70024184467581 c 38.95568355767998,0.0 90.33349133348126,-10.668750000000001 75.40015800014793,4.979043370521319
c -12.8,17.50141881005595 0,64.4994206096603 31.266508666518746,64.4994206096603
c 22.480031416075846,0 35.28003141607584,-21.183063687737743 22.480031416075846,-35.68078213984006
c -12.8,-27.73875 44.8,-17.07 84.18663525059083,-33.79768184034157 L 1280 0 " fill="none" stroke="black" stroke-width="0.1" style="vector-effect:non-scaling-stroke;"/></g><g><path d="M 0 0  L 0 853.500000  c 51.50840239197181,-0.0 97.77371005569435,10.668750000000001 82.84037672236101,-30.669724295127228
c -12.8,-10.832270343389736 0,-38.39131004449666 23.826289944305657,-38.39131004449666
c 27.65009739043576,0 40.45009739043576,14.217438536159714 27.65009739043576,60.12597214018032
c -12.8,27.73875 44.8,17.07 79.01656927623091,8.935062199443564 c 28.968906135018553,-0.0 97.98349389470012,10.668750000000001 83.05016056136678,-9.49916703936777
c -12.8,-24.408992652513874 0,-45.47032549829558 23.61650610529989,-45.47032549829558
c 27.75679215164878,0 40.55679215164878,19.693705200642015 27.75679215164878,29.51303730491797
c -12.8,27.73875 44.8,17.07 78.90987451501789,25.45645523274538 c 41.35370529114167,-0.0 88.21223487605252,10.668750000000001 73.27890154271918,-30.186529674970274
c -12.8,-16.274507405280957 0,-28.521444495401163 33.38776512394749,-28.521444495401163
c 33.39860826834628,0 46.19860826834628,14.190124998122403 33.39860826834628,16.681926110778264
c -12.8,27.73875 44.8,17.07 73.26805839832039,42.02604805959317 c 35.70663467391616,0.0 104.04481406118144,-10.668750000000001 89.1114807278481,7.788740253367894
c -12.8,20.83375450248693 0,47.662040441206784 17.555185938818568,47.662040441206784
c 19.264899808602635,0 32.06489980860263,-12.632454797647725 19.264899808602635,-17.080890118377376
c -12.8,-27.73875 44.8,-17.07 87.40176685806404,-38.3698905761973 c 26.963617896221823,0.0 100.1315560394476,-10.668750000000001 85.19822270611427,39.174749455867236
c -12.8,17.004565893175258 0,26.897345513157212 21.468443960552406,26.897345513157212
c 26.161471907433807,0 38.961471907433804,-34.8912343196909 26.161471907433807,-42.290943910361904
c -12.8,-27.73875 44.8,-17.07 80.50519475923286,-23.781151058662545 c 39.02713738685358,0.0 106.15195821863968,-10.668750000000001 91.21862488530634,45.014187682112556
c -12.8,6.249538472993497 0,15.163472773029994 15.448041781360331,15.163472773029994
c 31.85759818696222,0 44.65759818696222,-18.811902952766026 31.85759818696222,-24.593252846996755
c -12.8,-27.73875 44.8,-17.07 74.80906847970445,-35.584407608145796 L 1280 0 " fill="none" stroke="black" stroke-width="0.1" style="vector-effect:non-scaling-stroke;"/></g><g><path d="M 0 0  L 0 1066.875000  c 22.431714494416916,0.0 88.3761193348371,-10.668750000000001 73.44278600150376,30.159870790586517
c -12.8,20.23071863779679 0,23.895914786582885 33.22388066516291,23.895914786582885
c 23.285543792099148,0 36.085543792099145,-15.153477155211005 23.285543792099148,-56.02840485776496
c -12.8,-27.73875 44.8,-17.07 83.38112287456752,1.9726192805955591 c 36.52130276594199,0.0 102.70301398901174,-10.668750000000001 87.7696806556784,19.10372430163186
c -12.8,22.614691232842823 0,39.92595327285126 18.89698601098827,39.92595327285126
c 22.87039081452876,0 35.67039081452876,-36.74724666669761 22.87039081452876,-36.47728697315631
c -12.8,-27.73875 44.8,-17.07 83.79627585213791,-22.552390601326806 c 34.374371122606156,-0.0 98.78157097850476,10.668750000000001 83.84823764517142,-23.449011405135415
c -12.8,-30.707330687498775 0,-35.97138720987587 22.81842902149525,-35.97138720987587
c 19.9321254513044,0 32.7321254513044,23.49911927958026 19.9321254513044,24.910474385649863
c -12.8,27.73875 44.8,17.07 86.73454121536227,34.509924229361424 c 24.862578899543355,-0.0 100.361904383803,10.668750000000001 85.42857105046966,-17.389614458293533
c -12.8,-29.35359474884139 0,-52.94812862625308 21.238095616197015,-52.94812862625308
c 18.086311562907724,0 30.886311562907725,29.79389018913505 18.086311562907724,61.740141490176306
c -12.8,27.73875 44.8,17.07 88.58035510375895,8.59760159437031 c 26.577485952376303,-0.0 102.82061408968872,10.668750000000001 87.88728075635538,-18.954856853481267
c -12.8,-31.93570527638726 0,-40.560249881346834 18.77938591031129,-40.560249881346834
c 24.116676937720044,0 36.91667693772004,31.820886776557643 24.116676937720044,37.93647720370999
c -12.8,27.73875 44.8,17.07 82.54998972894663,21.57862953111811 c 36.443806449867814,0.0 99.4397755659727,-10.668750000000001 84.50644223263936,31.71131532395589
c -12.8,11.736316099729486 0,25.45887861771185 22.160224434027313,25.45887861771185
c 19.529349510175138,0 32.329349510175135,-4.5869805095882406 19.529349510175138,-20.22535451294423
c -12.8,-27.73875 44.8,-17.07 87.13731715649153,-36.94483942872351 L 1280 0 " fill="none" stroke="black" stroke-width="0.1" style="vector-effect:non-scaling-stroke;"/></g><g><path d="M 0 0  L 0 1280.250000  c 14.832989250382456,-0.0 91.0660834505755,10.668750000000001 76.13275011724217,-6.837589191075942
c -12.8,-35.99542855191165 0,-55.32348380885724 30.533916549424504,-55.32348380885724
c 17.371511716546408,0 30.17151171654641,18.67204860953177 17.371511716546408,18.837958201839328
c -12.8,27.73875 44.8,17.07 89.29515495012026,43.323114798093854 c 23.916933558755563,-0.0 92.67911020805727,10.668750000000001 77.74577687472393,-46.90462025056081
c -12.8,-6.048714268203614 0,-9.48157153453473 28.92088979194274,-9.48157153453473
c 27.23427604583553,0 40.034276045835526,27.235439997608747 27.23427604583553,40.82054607258523
c -12.8,27.73875 44.8,17.07 79.43239062083114,15.56564571251031 c 17.026840857965276,0.0 100.28354627225653,-10.668750000000001 85.35021293892319,3.8695774634491515
c -12.8,55.14097271035052 0,56.72048724901841 21.31645372774348,56.72048724901841
c 32.07945309768225,0 44.879453097682244,-17.34451992673139 32.07945309768225,-61.91868497218824
c -12.8,-27.73875 44.8,-17.07 74.58721356898442,1.3286202597206724 c 21.799259735324462,0.0 87.90078206445368,-10.668750000000001 72.96744873112034,43.04488139312922
c -12.8,7.937631260181708 0,26.147301757133917 33.69921793554633,26.147301757133917
c 15.429150297437772,0 28.229150297437773,-31.363911458011913 15.429150297437772,-42.94505212557315
c -12.8,-27.73875 44.8,-17.07 91.2375163692289,-26.247131024689985 c 35.58460869747055,0.0 92.03744782230758,-10.668750000000001 77.10411448897425,26.339367451868316
c -12.8,12.777574046919085 0,32.31358579529979 29.562552177692424,32.31358579529979
c 33.486221231027216,0 46.28622123102721,-25.318795568258068 33.486221231027216,-30.255757567808963
c -12.8,-27.73875 44.8,-17.07 73.18044543563946,-28.397195679359136 c 30.500706991467794,-0.0 106.39678409917245,10.668750000000001 91.46345076583911,-34.26079779570714
c -12.8,-10.851969780418612 0,-22.220371835175037 15.203215900827558,-22.220371835175037
c 33.69215180958962,0 46.492151809589615,14.669460101082421 33.69215180958962,32.4076535228725
c -12.8,27.73875 44.8,17.07 72.97451485707705,24.073516108009677 L 1280 0 " fill="none" stroke="black" stroke-width="0.1" style="vector-effect:non-scaling-stroke;"/></g><g><path d="M 0 0  L 0 1493.625000  c 26.554816793974197,-0.0 104.0150991901346,10.668750000000001 89.08176585680127,-38.54034812429181
c -12.8,-22.579271626832423 0,-31.763540916489035 17.584900809865402,-31.763540916489035
c 27.49801033537146,0 40.29801033537146,23.900262435469276 27.49801033537146,28.56965671038894
c -12.8,27.73875 44.8,17.07 79.16865633129521,41.734232330391904 c 38.01470395210161,-0.0 97.97046690704423,10.668750000000001 83.03713357371089,-27.47668012532034
c -12.8,-33.92721438602306 0,-35.47467404041288 23.629533092955782,-35.47467404041288
c 28.513017666642,0 41.313017666642,13.862990969552293 28.513017666642,25.628799377161606
c -12.8,27.73875 44.8,17.07 78.15364900002467,37.322554788571615 c 60.165620846647855,-0.0 98.12231323331274,10.668750000000001 83.1889798999794,-27.925152369054544
c -12.8,-14.287698526290571 0,-31.576494191133186 23.47768676668727,-31.576494191133186
c 18.201308931563148,0 31.00130893156315,23.261454199210647 18.201308931563148,48.96184314988794
c -12.8,27.73875 44.8,17.07 88.46535773510352,10.53980341029979 c 51.14172782698925,-0.0 87.97177097599199,10.668750000000001 73.03843764265865,-32.07849538036291
c -12.8,-20.49598065200829 0,-37.26055789144738 33.62822902400802,-37.26055789144738
c 23.0305659584984,0 35.8305659584984,41.340735296105635 23.0305659584984,55.248261779929656
c -12.8,27.73875 44.8,17.07 83.63610070816827,14.09079149188063 c 20.720938625210383,0.0 87.85525414657212,-10.668750000000001 72.92192081323878,9.985201380149404
c -12.8,17.925614170204437 0,47.257151075714106 33.74474585342789,47.257151075714106
c 28.062498211733825,0 40.86249821173382,-15.757759701134097 28.062498211733825,-16.45684059404291
c -12.8,-27.73875 44.8,-17.07 78.60416845493285,-40.7855118618206 c 19.853745841608276,0.0 90.25791744475161,-10.668750000000001 75.32458411141828,24.65255044392049
c -12.8,17.866946025447337 0,37.37205005003165 31.342082555248396,37.37205005003165
c 33.07747464061701,0 45.87747464061701,-17.07230433923825 33.07747464061701,-57.81109313472266
c -12.8,-27.73875 44.8,-17.07 73.58919202604966,-4.213507359229482 L 1280 0 " fill="none" stroke="black" stroke-width="0.1" style="vector-effect:non-scaling-stroke;"/></g></g></svg>