<svg baseProfile="full" height="1992" preserveAspectRatio="none" shape-rendering="geometricPrecision" version="1.1" viewBox="0,0,3000,1992" width="3000" xmlns="http://www.w3.org/2000/svg" xmlns:ev="http://www.w3.org/2001/xml-events" xmlns:xlink="http://www.w3.org/1999/xlink"><title>Jigsaw puzzle piece clips</title><desc>Created with the piecemaker. Piece count: 40</desc><defs /><g><g><rect fill="white" height="1992" width="3000" x="0" y="0" /></g></g><g><g><path d="M 0 0  L 375.000000 0  c -0.0,87.86364795795352 18.75,196.22079036911097 -81.95005608634169,168.33279036911097&#10;c -15.31518874843412,-23.903999999999996 -37.10812592319837,0 -37.10812592319837,30.867209630889022&#10;c 0,38.12468334048114 31.29389127412666,62.02868334048114 54.93288412641212,38.12468334048114&#10;c 48.75,-23.903999999999996 30.0,83.66399999999999 64.12529788312794,161.07531665951885 c 0.0,45.32240346361149 -18.75,165.11123742362108 46.253904845031066,137.22323742362107&#10;c 27.76042638319725,-23.903999999999996 59.8097843606045,0 59.8097843606045,61.97676257637892&#10;c 0,28.376618363526802 -37.1042011897884,52.2806183635268 -38.01052047618363,28.376618363526802&#10;c -48.75,-23.903999999999996 -30.0,83.66399999999999 -68.05316872945194,170.8233816364732 c 0.0,90.73078787652213 -18.75,197.22695037861592 4.924952445239803,169.33895037861592&#10;c 70.43831721699239,-23.903999999999996 92.39315524082122,0 92.39315524082122,29.86104962138407&#10;c 0,31.330403885591778 -58.820461167874676,55.234403885591774 -99.6971406986619,31.330403885591778&#10;c -48.75,-23.903999999999996 -30.0,83.66399999999999 2.3790330126008854,167.8695961144082 c 0.0,71.1982174763381 -18.75,173.4758128724846 -5.287997071499795,145.5878128724846&#10;c 53.794437586383296,-23.903999999999996 132.28976510900972,0 132.28976510900972,53.6121871275154&#10;c 0,53.296660495005796 -58.56785225834945,77.20066049500579 -115.85114606951925,53.296660495005796&#10;c -48.75,-23.903999999999996 -30.0,83.66399999999999 -11.150621967990674,145.9033395049942 c -0.0,61.77764840834037 18.75,180.7343164170731 -81.62124908227678,152.8463164170731&#10;c -8.836208333739892,-23.903999999999996 -23.722789861504125,0 -23.722789861504125,46.35368358292689&#10;c 0,45.09165758132974 50.30440694763826,68.99565758132974 107.95863552969547,45.09165758132974&#10;c 48.75,-23.903999999999996 30.0,83.66399999999999 -2.614596585914569,154.10834241867025 L 0 1992 " fill="none" stroke="black" stroke-width="0.1" style="vector-effect:non-scaling-stroke;" /></g><g><path d="M 0 0  L 750.000000 0  c 0.0,41.733471095037466 -18.75,177.601376076353 10.618542378748234,149.713376076353&#10;c 60.35504711662795,-23.903999999999996 115.77557691423844,0 115.77557691423844,49.48662392364699&#10;c 0,44.37517284588125 -104.35283862616272,68.27917284588125 -122.55138061497911,44.37517284588125&#10;c -48.75,-23.903999999999996 -30.0,83.66399999999999 -3.8427386780075636,154.82482715411874 c 0.0,52.479216494555374 -18.75,191.85747623163678 38.44463445582388,163.96947623163678&#10;c 53.1204030258763,-23.903999999999996 87.37112072624555,0 87.37112072624555,35.23052376836321&#10;c 0,48.17451103801801 -29.90890703610368,72.07851103801801 -71.99908739868067,48.17451103801801&#10;c -48.75,-23.903999999999996 -30.0,83.66399999999999 -53.816667783388766,151.02548896198198 c -0.0,81.65462721838426 18.75,179.8364057481375 -1.1750633455050776,151.9484057481375&#10;c -64.82025368424105,-23.903999999999996 -105.37233837836803,0 -105.37233837836803,47.251594251862485&#10;c 0,46.28340267149247 26.56696134465738,70.18740267149246 32.54843769647192,46.28340267149247&#10;c 48.75,-23.903999999999996 30.0,83.66399999999999 73.99896402740119,152.91659732850752 c -0.0,71.26090184817811 18.75,185.28912590750818 -4.453926456210098,157.40112590750817&#10;c -80.90396156409656,-23.903999999999996 -100.22599769956354,0 -100.22599769956354,41.798874092491815&#10;c 0,31.010363791860698 20.49307932455525,54.914363791860694 64.42979497519278,31.010363791860698&#10;c 48.75,-23.903999999999996 30.0,83.66399999999999 40.250129180580856,168.1896362081393 c 0.0,72.14259054241363 -18.75,166.49567515484907 66.39272813207643,138.60767515484906&#10;c 44.8580609205044,-23.903999999999996 45.88578369865125,0 45.88578369865125,60.59232484515093&#10;c 0,31.91626777068646 -20.65928124627564,55.820267770686456 -46.52363378079741,31.91626777068646&#10;c -48.75,-23.903999999999996 -30.0,83.66399999999999 -65.75487804993027,167.28373222931353 L 0 1992 " fill="none" stroke="black" stroke-width="0.1" style="vector-effect:non-scaling-stroke;" /></g><g><path d="M 0 0  L 1125.000000 0  c 0.0,20.993042133849197 -18.75,196.0609291337211 35.70069095295142,168.17292913372108&#10;c 20.850733285942262,-23.903999999999996 58.741402672325535,0 58.741402672325535,31.027070866278905&#10;c 0,51.91568281756557 -59.82235479418439,75.81968281756556 -95.01933678534301,51.91568281756557&#10;c -48.75,-23.903999999999996 -30.0,83.66399999999999 0.577243160066061,147.28431718243442 c -0.0,110.13201469976471 18.75,174.28701612937363 -80.24776787107677,146.39901612937362&#10;c -34.17247129931261,-23.903999999999996 -37.40585364172141,0 -37.40585364172141,52.80098387062637&#10;c 0,28.13461493959548 57.82617421880286,52.038614939595476 108.17427556736,28.13461493959548&#10;c 48.75,-23.903999999999996 30.0,83.66399999999999 9.479345945438183,171.0653850604045 c -0.0,70.6120578189324 18.75,173.18827921755715 2.7039218887498975,145.30027921755715&#10;c -45.5516847097613,-23.903999999999996 -105.40790617932124,0 -105.40790617932124,53.89972078244284&#10;c 0,63.06225630508288 27.451589842091288,86.96625630508288 53.964079079361994,63.06225630508288&#10;c 48.75,-23.903999999999996 30.0,83.66399999999999 48.73990521120935,136.1377436949171 c 0.0,29.320777929658952 -18.75,183.69876943322643 9.99588180136511,155.81076943322643&#10;c 39.58344349899894,-23.903999999999996 83.19135674607249,0 83.19135674607249,43.38923056677356&#10;c 0,30.6948178642848 -19.747596979678658,54.5988178642848 -69.31053395519942,30.6948178642848&#10;c -48.75,-23.903999999999996 -30.0,83.66399999999999 -23.876704592238184,168.5051821357152 c 0.0,81.06960425938459 -18.75,175.72222564438874 15.655750058571643,147.83422564438874&#10;c 72.98909586014024,-23.903999999999996 78.33445735650879,0 78.33445735650879,51.36577435561125&#10;c 0,40.59438588961987 -15.095611165633256,64.49838588961987 -55.83333894244327,40.59438588961987&#10;c -48.75,-23.903999999999996 -30.0,83.66399999999999 -38.156868472637164,158.60561411038012 L 0 1992 " fill="none" stroke="black" stroke-width="0.1" style="vector-effect:non-scaling-stroke;" /></g><g><path d="M 0 0  L 1500.000000 0  c 0.0,44.46449437954007 -18.75,180.99293623187475 5.917289126756934,153.10493623187475&#10;c 101.86920851074366,-23.903999999999996 102.12843681139171,0 102.12843681139171,46.09506376812524&#10;c 0,29.71184013218914 -14.750174859636386,53.615840132189135 -30.343648539426695,29.71184013218914&#10;c -48.75,-23.903999999999996 -30.0,83.66399999999999 -77.70207739872195,169.48815986781085 c -0.0,103.50991859964414 18.75,189.43316799980104 -13.288881560525382,161.54516799980104&#10;c -69.30197185753362,-23.903999999999996 -86.1523432425362,0 -86.1523432425362,37.65483200019895&#10;c 0,56.74238773601297 24.742892614785717,80.64638773601297 67.11545060437612,56.74238773601297&#10;c 48.75,-23.903999999999996 30.0,83.66399999999999 32.325774198685465,142.45761226398702 c -0.0,96.38091209069837 18.75,179.78071200437213 -2.891815898889478,151.89271200437213&#10;c -58.20761706905179,-23.903999999999996 -120.87140443242507,0 -120.87140443242507,47.30728799562786&#10;c 0,50.255630639036866 35.15048270370755,74.15963063903686 84.61184308525279,50.255630639036866&#10;c 48.75,-23.903999999999996 30.0,83.66399999999999 39.151377246061756,148.94436936096312 c -0.0,28.11223580473428 18.75,182.56301358064326 -59.52950305096767,154.67501358064325&#10;c -44.93158742499965,-23.903999999999996 -66.18743315198756,0 -66.18743315198756,44.524986419356736&#10;c 0,36.67867947732702 102.19653924082708,60.58267947732702 117.54899318281105,36.67867947732702&#10;c 48.75,-23.903999999999996 30.0,83.66399999999999 8.167943020144179,162.52132052267297 c -0.0,92.52365137876745 18.75,173.88215377523022 -0.8024816788768955,145.99415377523022&#10;c -83.53633917029072,-23.903999999999996 -118.85326346126631,0 -118.85326346126631,53.20584622476977&#10;c 0,53.496614420051486 27.006190576840456,77.40061442005148 54.630914707803285,53.496614420051486&#10;c 48.75,-23.903999999999996 30.0,83.66399999999999 65.02483043233993,145.7033855799485 L 0 1992 " fill="none" stroke="black" stroke-width="0.1" style="vector-effect:non-scaling-stroke;" /></g><g><path d="M 0 0  L 1875.000000 0  c 0.0,110.50639558287422 -18.75,166.86742498962172 11.929620105244748,138.97942498962172&#10;c 60.10375999883633,-23.903999999999996 82.72697362999523,0 82.72697362999523,60.22057501037827&#10;c 0,46.73317633849325 -4.478277622047254,70.63717633849325 -18.388732354381034,46.73317633849325&#10;c -48.75,-23.903999999999996 -30.0,83.66399999999999 -76.26786138085895,152.46682366150674 c 0.0,93.96512664483387 -18.75,170.5218411863336 33.989555631517995,142.6338411863336&#10;c 79.73391632058562,-23.903999999999996 87.68009429307139,0 87.68009429307139,56.56615881366639&#10;c 0,35.538333122418464 -73.46464802117546,59.44233312241846 -117.65197131220735,35.538333122418464&#10;c -48.75,-23.903999999999996 -30.0,83.66399999999999 -4.017678612382028,163.66166687758152 c -0.0,86.66649564956006 18.75,183.542439780215 -53.4386940291559,155.654439780215&#10;c -52.831552162239,-23.903999999999996 -53.4578416083786,0 -53.4578416083786,43.54556021978499&#10;c 0,50.04577409783161 56.45926006123929,73.94977409783161 111.20059840312176,50.04577409783161&#10;c 48.75,-23.903999999999996 30.0,83.66399999999999 -4.304062765587261,149.15422590216838 c -0.0,79.87497646028203 18.75,172.8668140759743 -68.24318552744161,144.9788140759743&#10;c -8.775803577108327,-23.903999999999996 -36.80063205959321,0 -36.80063205959321,54.22118592402569&#10;c 0,47.06542738872466 57.73944482798371,70.96942738872465 100.28631245720074,47.06542738872466&#10;c 48.75,-23.903999999999996 30.0,83.66399999999999 4.757505129834087,152.13457261127533 c -0.0,32.80377645025617 18.75,174.0603284793774 -15.172801178139958,146.1723284793774&#10;c -38.577061332475495,-23.903999999999996 -99.3268814655949,0 -99.3268814655949,53.02767152062259&#10;c 0,48.541488633138954 65.44951653230494,72.44548863313895 73.68706788935627,48.541488633138954&#10;c 48.75,-23.903999999999996 30.0,83.66399999999999 40.812614754378586,150.65851136686103 L 0 1992 " fill="none" stroke="black" stroke-width="0.1" style="vector-effect:non-scaling-stroke;" /></g><g><path d="M 0 0  L 2250.000000 0  c -0.0,71.59094503474486 18.75,176.7715530126875 -35.90681865294149,148.88355301268749&#10;c -32.99267227983718,-23.903999999999996 -84.25633111949631,0 -84.25633111949631,50.3164469873125&#10;c 0,43.26834972817653 69.08004329460067,67.17234972817653 75.00106302890826,43.26834972817653&#10;c 48.75,-23.903999999999996 30.0,83.66399999999999 45.16208674352954,155.93165027182346 c 0.0,76.23604380197814 -18.75,167.90866565008344 29.168363761964148,140.02066565008343&#10;c 53.89720422287652,-23.903999999999996 71.13301709764154,0 71.13301709764154,59.17933434991656&#10;c 0,61.55110836514234 -62.7487679970889,85.45510836514234 -71.04919750183241,61.55110836514234&#10;c -48.75,-23.903999999999996 -30.0,83.66399999999999 -29.252183357773276,137.64889163485765 c -0.0,34.869796704822804 18.75,179.67953044777178 -47.56196235671925,151.79153044777178&#10;c -43.753760609502265,-23.903999999999996 -58.792154795040545,0 -58.792154795040545,47.40846955222821&#10;c 0,31.314877770221102 58.93325202175772,55.2188777702211 75.91611881514528,31.314877770221102&#10;c 48.75,-23.903999999999996 30.0,83.66399999999999 30.437998336614513,167.8851222297789 c 0.0,39.93160615127958 -18.75,188.7595207944735 28.980329101942736,160.8715207944735&#10;c 47.01834610874547,-23.903999999999996 82.64131554592038,0 82.64131554592038,38.32847920552649&#10;c 0,47.95531797803787 -36.925639903229616,71.85931797803786 -92.35153012940985,47.95531797803787&#10;c -48.75,-23.903999999999996 -30.0,83.66399999999999 -19.27011451845327,151.24468202196212 c -0.0,105.9331476923098 18.75,174.6490578438451 -70.55133040999027,146.7610578438451&#10;c -31.31318267302415,-23.903999999999996 -38.632883688998135,0 -38.632883688998135,52.438942156154894&#10;c 0,49.98499753150844 28.737833747761215,73.88899753150844 39.214854052780794,49.98499753150844&#10;c 48.75,-23.903999999999996 30.0,83.66399999999999 69.96936004620761,149.21500246849155 L 0 1992 " fill="none" stroke="black" stroke-width="0.1" style="vector-effect:non-scaling-stroke;" /></g><g><path d="M 0 0  L 2625.000000 0  c 0.0,98.2945400418097 -18.75,167.95658549615607 27.3704892503389,140.06858549615606&#10;c 49.69142052664638,-23.903999999999996 82.30019980055059,0 82.30019980055059,59.13141450384393&#10;c 0,57.45910632143824 -40.56586816215675,81.36310632143824 -69.95965010345012,57.45910632143824&#10;c -48.75,-23.903999999999996 -30.0,83.66399999999999 -39.71103894743936,141.74089367856175 c 0.0,91.84320365218046 -18.75,192.85111654899876 12.392607439595913,164.96311654899876&#10;c 85.04664000627622,-23.903999999999996 112.69769682316524,0 112.69769682316524,34.23688345100123&#10;c 0,41.15535281033485 -18.11703413225127,65.05935281033484 -49.935123949346064,41.15535281033485&#10;c -48.75,-23.903999999999996 -30.0,83.66399999999999 -75.15518031341509,158.04464718966514 c -0.0,34.62719148831466 18.75,171.26528396990813 -52.63808524307201,143.37728396990812&#10;c -50.252041401554536,-23.903999999999996 -53.30469042710544,0 -53.30469042710544,55.82271603009187&#10;c 0,52.841688568471824 17.38776936344488,76.74568856847182 71.62943480129931,52.841688568471824&#10;c 48.75,-23.903999999999996 30.0,83.66399999999999 34.31334086887814,146.35831143152816 c -0.0,37.65239009910273 18.75,191.8225837953476 -21.43409925800484,163.9345837953476&#10;c -67.30698905761699,-23.903999999999996 -78.4119710950178,0 -78.4119710950178,35.26541620465238&#10;c 0,56.64509251522776 26.53938636306148,80.54909251522776 68.0693262136005,56.64509251522776&#10;c 48.75,-23.903999999999996 30.0,83.66399999999999 31.776744139422135,142.55490748477223 c -0.0,74.42351551777685 18.75,189.56513412213846 -62.917083525619255,161.67713412213845&#10;c -24.06599157927231,-23.903999999999996 -38.84224059765803,0 -38.84224059765803,37.522865877861534&#10;c 0,54.53298302816896 32.952907555835594,78.43698302816895 47.32933856324977,54.53298302816896&#10;c 48.75,-23.903999999999996 30.0,83.66399999999999 54.42998556002751,144.66701697183103 L 0 1992 " fill="none" stroke="black" stroke-width="0.1" style="vector-effect:non-scaling-stroke;" /></g></g><g><g><path d="M 0 0  L 0 398.400000  c 21.096375295952768,0.0 178.87691341832203,-19.92 152.62691341832203,19.320074700378175&#10;c -22.5,43.044707319011465 0,97.09528787828918 34.87308658167797,97.09528787828918&#10;c 29.821081747657615,0 52.321081747657615,-69.46516707299797 29.821081747657615,-75.94818572780272&#10;c -22.5,-51.792 78.75,-31.872 157.67891825234238,-40.46717685086463 c 31.282162543724805,0.0 163.1923842727996,-19.92 136.9423842727996,85.90199953362392&#10;c -22.5,16.073151170238635 0,47.32152758908285 50.557615727200414,47.32152758908285&#10;c 49.621346310857916,0 72.12134631085792,-99.77288687595767 49.621346310857916,-117.50152208741247&#10;c -22.5,-51.792 78.75,-31.872 137.87865368914208,-15.722005035294302 c 23.409700409461745,0.0 186.3222845425072,-19.92 160.0722845425072,84.74429305785205&#10;c -22.5,7.809402766628569 0,12.614368207989855 27.42771545749281,12.614368207989855&#10;c 28.507593753775893,0 51.00759375377589,-73.2998120659517 28.507593753775893,-84.82633337754774&#10;c -22.5,-51.792 78.75,-31.872 158.9924062462241,-12.532327888294162 c 107.45327123526764,-0.0 156.73548361961443,19.92 130.48548361961443,-21.35976210379917&#10;c -22.5,-47.632044275531584 0,-85.09006846557313 57.01451638038557,-85.09006846557313&#10;c 34.409446981204894,0 56.909446981204894,23.92785224656843 34.409446981204894,83.79904699104421&#10;c -22.5,51.792 78.75,31.872 153.0905530187951,22.650783578328088 c 30.43173631105346,-0.0 185.0754317153125,19.92 158.8254317153125,-81.24749172359306&#10;c -22.5,-20.43210371004737 0,-27.056365852155423 28.674568284687496,-27.056365852155423&#10;c 37.00266294909849,0 59.50266294909849,37.219896771854785 37.00266294909849,45.693924716784466&#10;c -22.5,51.792 78.75,31.872 150.4973370509015,62.609932858964015 c 84.2769936847847,-0.0 155.06782855521084,19.92 128.81782855521084,-70.9630957011099&#10;c -22.5,-39.1829665613321 0,-49.307847041289804 58.68217144478916,-49.307847041289804&#10;c 30.770047208972386,0 53.270047208972386,67.08732660826351 30.770047208972386,67.51534705085152&#10;c -22.5,51.792 78.75,31.872 156.7299527910276,52.755595691548194 c 33.25029590585199,-0.0 181.98646982598981,19.92 155.73646982598981,-83.42680166810591&#10;c -22.5,-19.033064550633583 0,-25.37393928638494 31.763530174010185,-25.37393928638494&#10;c 44.42327642273327,0 66.92327642273327,10.109829346744295 44.42327642273327,39.08891518580832&#10;c -22.5,51.792 78.75,31.872 143.07672357726673,69.71182576868253 c 80.97918502884161,0.0 183.50786245227638,-19.92 157.25786245227638,5.957307764460638&#10;c -22.5,96.90546425670033 0,97.80231147080711 30.242137547723615,97.80231147080711&#10;c 53.51364866718322,0 76.01364866718322,-32.95300847986212 53.51364866718322,-86.5347973920349&#10;c -22.5,-51.792 78.75,-31.872 133.98635133281678,-17.224821843232846 L 3000 0 " fill="none" stroke="black" stroke-width="0.1" style="vector-effect:non-scaling-stroke;" /></g><g><path d="M 0 0  L 0 796.800000  c 68.2917637925002,-0.0 177.37100100122862,19.92 151.12100100122862,-51.94454961817385&#10;c -22.5,-11.748169685140583 0,-50.42269666069211 36.37899899877138,-50.42269666069211&#10;c 31.860743454072065,0 54.360743454072065,7.390254351128591 31.860743454072065,21.522584975193098&#10;c -22.5,51.792 78.75,31.872 155.63925654592794,80.84466130367286 c 78.14283722519527,-0.0 161.4274105081079,19.92 135.1774105081079,-68.77488646931941&#10;c -22.5,-57.05147536150427 0,-65.88147449395582 52.3225894918921,-65.88147449395582&#10;c 55.115292526975,0 77.615292526975,23.19284424201154 55.115292526975,82.44418518399684&#10;c -22.5,51.792 78.75,31.872 132.384707473025,52.2121757792784 c 53.14847099462893,0.0 168.11892863973486,-19.92 141.86892863973486,9.901610134752643&#10;c -22.5,27.234736684940803 0,105.62621479072293 45.63107136026514,105.62621479072293&#10;c 48.04020898526653,0 70.54020898526653,-50.46193097663628 48.04020898526653,-113.48838701628118&#10;c -22.5,-51.792 78.75,-31.872 139.45979101473347,-2.0394379091943904 c 64.45396287655173,0.0 178.0743116739352,-19.92 151.8243116739352,37.99588780702094&#10;c -22.5,48.3588257401696 0,62.17937080318324 35.6756883260648,62.17937080318324&#10;c 48.98829860611792,0 71.48829860611792,-46.99189467880881 48.98829860611792,-71.07965724445742&#10;c -22.5,-51.792 78.75,-31.872 138.51170139388208,-29.09560136574676 c 78.21331114952297,-0.0 154.8577286372277,19.92 128.6077286372277,-53.52103570916892&#10;c -22.5,-56.14876421381712 0,-70.76010852829441 58.892271362772306,-70.76010852829441&#10;c 31.899636635930193,0 54.39963663593019,114.89932845519236 31.899636635930193,128.5048006053046&#10;c -22.5,51.792 78.75,31.872 155.6003633640698,-4.223656367841272 c 35.61672273806684,0.0 177.96140897806666,-19.92 151.71140897806666,10.516731304789277&#10;c -22.5,32.273113417728574 0,92.61216744623422 35.78859102193334,92.61216744623422&#10;c 58.44016290029566,0 80.94016290029566,-33.714203454078245 58.44016290029566,-45.973464470736175&#10;c -22.5,-51.792 78.75,-31.872 129.05983709970434,-57.155434280287324 c 89.81608418925266,-0.0 182.08019178191932,19.92 155.83019178191932,-64.08851951718415&#10;c -22.5,-30.720913645211294 0,-38.325947877880495 31.669808218080675,-38.325947877880495&#10;c 33.33149661655753,0 55.83149661655753,13.983578890290735 33.33149661655753,25.42917728764685&#10;c -22.5,51.792 78.75,31.872 154.16850338344247,76.9852901074178 c 77.18952109534145,-0.0 174.07521135850118,19.92 147.82521135850118,-4.563444543638955&#10;c -22.5,-45.976355514698795 0,-129.58867950848534 39.67478864149882,-129.58867950848534&#10;c 53.458594503566104,0 75.9585945035661,53.0292029892931 53.458594503566104,92.43554067557736&#10;c -22.5,51.792 78.75,31.872 134.0414054964339,41.716583376546936 L 3000 0 " fill="none" stroke="black" stroke-width="0.1" style="vector-effect:non-scaling-stroke;" /></g><g><path d="M 0 0  L 0 1195.200000  c 62.580075609101826,-0.0 175.77862127886252,19.92 149.52862127886252,-12.289900528038222&#10;c -22.5,-92.74302285620664 0,-99.88873479676091 37.971378721137484,-99.88873479676091&#10;c 37.534258307956634,0 60.034258307956634,13.551236823026311 37.534258307956634,25.187700240865993&#10;c -22.5,51.792 78.75,31.872 149.96574169204337,86.99093508393314 c 103.09418369573024,-0.0 181.81979614382047,19.92 155.56979614382047,-21.202480707976687&#10;c -22.5,-70.3101708478289 0,-94.69672638815602 31.93020385617953,-94.69672638815602&#10;c 41.445115823374636,0 63.945115823374636,64.8401118526974 41.445115823374636,122.68856066862219&#10;c -22.5,51.792 78.75,31.872 146.05488417662536,-6.789353572489475 c 89.8203339497828,0.0 163.1878414269695,-19.92 136.9378414269695,64.9577385445557&#10;c -22.5,36.78655276577845 0,43.81213156605148 50.5621585730305,43.81213156605148&#10;c 45.724730047841405,0 68.2247300478414,-10.726051274541557 45.724730047841405,-29.313918781545027&#10;c -22.5,-51.792 78.75,-31.872 141.7752699521586,-79.45595132906215 c 62.70375282311201,0.0 157.61054217056463,-19.92 131.36054217056463,32.79028575574467&#10;c -22.5,66.4796328295327 0,86.83038144913763 56.13945782943537,86.83038144913763&#10;c 59.72045783898207,0 82.22045783898207,-37.92082414967498 59.72045783898207,-105.12202822423689&#10;c -22.5,-51.792 78.75,-31.872 127.77954216101793,-14.49863898064541 c 52.036944054547135,0.0 187.24917621725155,-19.92 160.99917621725155,29.778867394399448&#10;c -22.5,33.51523796240809 0,78.94364108591944 26.500823782748455,78.94364108591944&#10;c 33.02053891540601,0 55.52053891540601,-13.741306329763523 33.02053891540601,-37.00281151707415&#10;c -22.5,-51.792 78.75,-31.872 154.479461084594,-71.71969696324473 c 20.280901555230574,-0.0 170.44394922257436,19.92 144.19394922257436,-40.730173229626004&#10;c -22.5,-12.997448211969926 0,-61.04696812017686 43.30605077742564,-61.04696812017686&#10;c 34.74632436269539,0 57.24632436269539,41.55661079664878 34.74632436269539,92.21867709505108&#10;c -22.5,51.792 78.75,31.872 152.7536756373046,9.558464254751783 c 78.25657965661222,0.0 172.7125393706516,-19.92 146.4625393706516,44.782331859453734&#10;c -22.5,27.666565405991495 0,63.16618783659959 41.0374606293484,63.16618783659959&#10;c 30.4692199891997,0 52.9692199891997,-75.65095505999498 30.4692199891997,-82.66507591202267&#10;c -22.5,-51.792 78.75,-31.872 157.0307800108003,-25.283443784030652 c 45.49057394434268,0.0 181.2451455985127,-19.92 154.9951455985127,16.76081377586058&#10;c -22.5,83.98827944636857 0,90.2775583085433 32.50485440148731,90.2775583085433&#10;c 35.67276223876837,0 58.17276223876837,-40.449919844580236 35.67276223876837,-67.99948818678206&#10;c -22.5,-51.792 78.75,-31.872 151.82723776123163,-39.03888389762183 L 3000 0 " fill="none" stroke="black" stroke-width="0.1" style="vector-effect:non-scaling-stroke;" /></g><g><path d="M 0 0  L 0 1593.600000  c 107.41495086864151,0.0 183.3789376172022,-19.92 157.1289376172022,83.0029776880061&#10;c -22.5,12.780116186812498 0,23.356556809801177 30.37106238279779,23.356556809801177&#10;c 43.81485177019238,0 66.31485177019238,-14.550869735945344 43.81485177019238,-36.27649605761856&#10;c -22.5,-51.792 78.75,-31.872 143.68514822980762,-70.08303844018872 c 59.14635656229228,-0.0 158.39085781568227,19.92 132.14085781568227,-46.04949127850652&#10;c -22.5,-51.521413017207486 0,-55.54360745265667 55.35914218431773,-55.54360745265667&#10;c 29.19190011928083,0 51.69190011928083,33.46535964435607 29.19190011928083,59.12784979706568&#10;c -22.5,51.792 78.75,31.872 158.30809988071917,42.46524893409752 c 29.52263100235288,0.0 184.8201946004484,-19.92 158.5701946004484,69.16961247186222&#10;c -22.5,19.2238967653623 0,38.05983741842884 28.92980539955161,38.05983741842884&#10;c 48.609386573757064,0 71.10938657375706,-12.507340739816499 48.609386573757064,-32.191170374528&#10;c -22.5,-51.792 78.75,-31.872 138.89061342624294,-75.03827951576307 c 88.65075736210713,-0.0 154.1118092478639,19.92 127.8618092478639,-82.16013926877741&#10;c -22.5,-18.334566701681144 0,-19.594000561681227 59.6381907521361,-19.594000561681227&#10;c 59.41228656882325,0 81.91228656882325,33.80255429192568 59.41228656882325,34.439754009162755&#10;c -22.5,51.792 78.75,31.872 128.08771343117675,67.31438582129589 c 62.741254107228144,0.0 170.54689191334234,-19.92 144.29689191334234,50.71047411462948&#10;c -22.5,22.65469841864742 0,79.2992770973243 43.203108086657664,79.2992770973243&#10;c 50.61789036362339,0 73.11789036362339,-34.250161743968725 50.61789036362339,-58.27138371655974&#10;c -22.5,-51.792 78.75,-31.872 136.8821096363766,-71.73836749539404 c 71.67969236680297,0.0 175.35254792458926,-19.92 149.10254792458926,40.80266897206015&#10;c -22.5,13.512317554778413 0,61.80278019845976 38.39745207541074,61.80278019845976&#10;c 46.38595725056547,0 68.88595725056547,-67.427629980941 46.38595725056547,-75.52727038950393&#10;c -22.5,-51.792 78.75,-31.872 141.11404274943453,-27.07817878101598 c 65.30457916526201,-0.0 181.25967404578367,19.92 155.00967404578367,-23.388352662506318&#10;c -22.5,-66.03770159882977 0,-81.66994881840215 32.49032595421633,-81.66994881840215&#10;c 42.96850365272272,0 65.46850365272272,22.43819253354945 42.96850365272272,44.822354728744166&#10;c -22.5,51.792 78.75,31.872 144.53149634727728,60.2359467521643 c 31.88492788178381,0.0 167.3124921838356,-19.92 141.0624921838356,33.5759875031208&#10;c -22.5,72.34347381987043 0,94.11244767233104 46.43750781616441,94.11244767233104&#10;c 30.168881340310804,0 52.668881340310804,-77.84370634720783 30.168881340310804,-104.75196528557532&#10;c -22.5,-51.792 78.75,-31.872 157.3311186596892,-22.93646988987652 L 3000 0 " fill="none" stroke="black" stroke-width="0.1" style="vector-effect:non-scaling-stroke;" /></g></g></svg>