<svg baseProfile="full" height="1667" preserveAspectRatio="none" shape-rendering="geometricPrecision" version="1.1" viewBox="0,0,2500,1667" width="2500" xmlns="http://www.w3.org/2000/svg" xmlns:ev="http://www.w3.org/2001/xml-events" xmlns:xlink="http://www.w3.org/1999/xlink"><title>Jigsaw puzzle piece clips</title><desc>Created with the piecemaker. Piece count: 24</desc><defs/><g><g><rect fill="white" height="1667" width="2500" x="0" y="0"/></g></g><g><g><path d="M 0 0  L 416.666667 0  c 0.0,110.62911166133594 -20.833333333333336,204.42916929469354 55.31251870803451,175.25666929469352
c 52.000502286328576,-25.005 62.665411687458864,0 62.665411687458864,33.11833070530648
c 0,52.72533852533894 -45.42104115933095,77.73033852533894 -48.584354058601576,52.72533852533894
c -54.16666666666667,-25.005 -33.333333333333336,87.5175 -69.3935763368918,155.64966147466106 c -0.0,98.24624506745374 20.833333333333336,201.83565072734953 -9.861994805400423,172.66315072734952
c -37.607111298129766,-25.005 -127.4621719790164,0 -127.4621719790164,35.71184927265048
c 0,66.32406812327315 59.77709843002893,91.32906812327315 93.89411389428341,66.32406812327315
c 54.16666666666667,-25.005 33.333333333333336,87.5175 43.430052890133425,142.05093187672685 c -0.0,107.70618504407685 20.833333333333336,170.90509924514683 -35.880318427654714,141.73259924514682
c -82.52860933041114,-25.005 -103.60532337353308,0 -103.60532337353308,66.64240075485318
c 0,53.84141770949685 93.61348257417957,78.84641770949685 93.94016699953605,53.84141770949685
c 54.16666666666667,-25.005 33.333333333333336,87.5175 45.54547480165175,154.53358229050315 c -0.0,67.90907235821197 20.833333333333336,195.49285327064607 -9.354165778925973,166.32035327064605
c -65.04004492467348,-25.005 -104.42945189294852,0 -104.42945189294852,42.05464672935395
c 0,40.42909294068252 55.38639845221384,65.43409294068252 121.75795076503907,40.42909294068252
c 54.16666666666667,-25.005 33.333333333333336,87.5175 -7.974333093164574,167.94590705931748 L 0 1667 " fill="none" stroke="black" stroke-width="0.1" style="vector-effect:non-scaling-stroke;"/></g><g><path d="M 0 0  L 833.333333 0  c -0.0,23.33916375550438 20.833333333333336,181.48829668653897 -78.5503288339595,152.31579668653896
c -27.68273489982258,-25.005 -27.949685010927126,0 -27.949685010927126,56.05920331346104
c 0,61.898969487805516 14.136917680782283,86.90396948780551 19.368905191105284,61.898969487805516
c 54.16666666666667,-25.005 33.333333333333336,87.5175 87.13110865378134,146.47603051219448 c -0.0,80.91114831854725 20.833333333333336,188.13550272587287 -23.019072175721803,158.96300272587285
c -32.93038853862527,-25.005 -109.33650133889277,0 -109.33650133889277,49.411997274127145
c 0,50.463102346249684 70.57757495802197,75.46810234624968 79.65931046540285,50.463102346249684
c 54.16666666666667,-25.005 33.333333333333336,87.5175 52.69626304921172,157.91189765375032 c 0.0,91.65681753745062 -20.833333333333336,206.16355596112712 65.31248789260651,176.9910559611271
c 46.693962389416704,-25.005 56.87823015532177,0 56.87823015532177,31.383944038872897
c 0,30.068180777735733 -43.1582279987189,55.07318077773573 -96.3146592151433,30.068180777735733
c -54.16666666666667,-25.005 -33.333333333333336,87.5175 -25.87605883278499,178.30681922226427 c 0.0,79.56371344754206 -20.833333333333336,172.37545858902118 48.04735933385055,143.20295858902116
c 55.224062180735004,-25.005 72.92040928669569,0 72.92040928669569,65.17204141097884
c 0,57.34454381274185 -38.05822613645615,82.34954381274184 -55.21370959988218,57.34454381274185
c -54.16666666666667,-25.005 -33.333333333333336,87.5175 -65.75405902066406,151.03045618725815 L 0 1667 " fill="none" stroke="black" stroke-width="0.1" style="vector-effect:non-scaling-stroke;"/></g><g><path d="M 0 0  L 1250.000000 0  c 0.0,54.38712390869619 -20.833333333333336,173.33240765600175 60.976684314274614,144.15990765600174
c 27.60812642121455,-25.005 46.59226428925266,0 46.59226428925266,64.21509234399826
c 0,54.59141349863796 -16.695173878890994,79.59641349863796 -33.45462532026826,54.59141349863796
c -54.16666666666667,-25.005 -33.333333333333336,87.5175 -74.11432328325901,153.78358650136204 c 0.0,115.74432213169271 -20.833333333333336,199.97027354010103 -0.5122820696348479,170.79777354010102
c 50.65009754950948,-25.005 109.90707148695856,0 109.90707148695856,37.57722645989898
c 0,44.350060119642194 -76.36235126104762,69.35506011964219 -91.34728046676881,44.350060119642194
c -54.16666666666667,-25.005 -33.333333333333336,87.5175 -18.0475089505549,164.0249398803578 c -0.0,107.75030797557427 20.833333333333336,204.0950491948751 -81.79837885991319,174.92254919487507
c -14.250681251418564,-25.005 -54.513893767515555,0 -54.513893767515555,33.452450805124926
c 0,33.53329794523978 24.277893776234524,58.538297945239776 53.110401031831884,33.53329794523978
c 54.16666666666667,-25.005 33.333333333333336,87.5175 83.20187159559686,174.84170205476022 c 0.0,72.27870084230733 -20.833333333333336,181.4511901173777 1.8145865577868043,152.2786901173777
c 76.41724215133705,-25.005 122.34602350646954,0 122.34602350646954,56.09630988262231
c 0,53.39257505507112 -28.180001794924856,78.39757505507112 -98.50768219391946,53.39257505507112
c -54.16666666666667,-25.005 -33.333333333333336,87.5175 -25.65292787033688,154.98242494492888 L 0 1667 " fill="none" stroke="black" stroke-width="0.1" style="vector-effect:non-scaling-stroke;"/></g><g><path d="M 0 0  L 1666.666667 0  c 0.0,53.22055820105612 -20.833333333333336,171.3253814295097 70.94265774849828,142.15288142950968
c 29.352567610251604,-25.005 65.46866178132694,0 65.46866178132694,66.22211857049032
c 0,66.67533749991918 -55.59616852523638,91.68033749991918 -68.55660648176087,66.67533749991918
c -54.16666666666667,-25.005 -33.333333333333336,87.5175 -67.85471304806435,141.69966250008082 c 0.0,104.96670115626699 -20.833333333333336,203.46131506296723 74.42521239143848,174.28881506296722
c 44.69873862021619,-25.005 45.99575388607282,0 45.99575388607282,34.08618493703278
c 0,32.85396461996308 -36.76032244081579,57.858964619963075 -87.06643454866267,32.85396461996308
c -54.16666666666667,-25.005 -33.333333333333336,87.5175 -33.35453172884863,175.52103538003692 c -0.0,107.44146631705148 20.833333333333336,177.481438473909 -45.41518969833278,148.308938473909
c -44.91889421955224,-25.005 -88.5493200040129,0 -88.5493200040129,60.066061526091005
c 0,63.42344936781535 114.90210282203996,88.42844936781535 133.01304846658132,63.42344936781535
c 54.16666666666667,-25.005 33.333333333333336,87.5175 0.9514612357643557,144.95155063218465 c -0.0,84.22016853410764 20.833333333333336,198.72829574828702 1.1418187752004068,169.555795748287
c -48.934303737540475,-25.005 -139.18581345264982,0 -139.18581345264982,38.81920425171299
c 0,53.84750191843494 114.77084187701445,78.85250191843494 133.05510006543597,53.84750191843494
c 54.16666666666667,-25.005 33.333333333333336,87.5175 4.988894612013439,154.52749808156506 L 0 1667 " fill="none" stroke="black" stroke-width="0.1" style="vector-effect:non-scaling-stroke;"/></g><g><path d="M 0 0  L 2083.333333 0  c -0.0,73.82164894373095 20.833333333333336,173.6063878107224 -23.23687113773776,144.43388781072238
c -39.07725719148752,-25.005 -77.14872627405623,0 -77.14872627405623,63.94111218927762
c 0,64.59934278492244 18.847457768298373,89.60434278492244 59.599585916484145,64.59934278492244
c 54.16666666666667,-25.005 33.333333333333336,87.5175 40.78601149530985,143.77565721507756 c 0.0,51.711678081129236 -20.833333333333336,172.57934028969194 0.3157047391471853,143.40684028969193
c 36.53676312432645,-25.005 131.2875704159219,0 131.2875704159219,64.96815971030807
c 0,53.24007316361332 -93.34618793280659,78.24507316361331 -94.0063902733151,53.24007316361332
c -54.16666666666667,-25.005 -33.333333333333336,87.5175 -37.596884881753965,155.13492683638668 c -0.0,108.98386469480485 20.833333333333336,193.34547248663407 -72.34896664477421,164.17297248663405
c -31.4466377541481,-25.005 -35.160738092193824,0 -35.160738092193824,44.20202751336595
c 0,53.6882116764736 53.92219700935126,78.6932116764736 57.231793626850134,53.6882116764736
c 54.16666666666667,-25.005 33.333333333333336,87.5175 50.2779111101179,154.6867883235264 c 0.0,34.54133104562975 -20.833333333333336,204.3021865014959 30.49631951425186,175.12968650149588
c 33.57899968055932,-25.005 86.87540891893201,0 86.87540891893201,33.24531349850412
c 0,48.15679642787518 -36.013556847897014,73.16179642787517 -46.37293258693691,48.15679642787518
c -54.16666666666667,-25.005 -33.333333333333336,87.5175 -70.99879584624696,160.21820357212482 L 0 1667 " fill="none" stroke="black" stroke-width="0.1" style="vector-effect:non-scaling-stroke;"/></g></g><g><g><path d="M 0 0  L 0 416.750000  c 97.28859005940288,0.0 201.31481533849694,-20.837500000000002 172.14814867183028,88.54570573815906
c -25.0,10.626897035620594 0,20.21335996634042 36.18518466150306,20.21335996634042
c 54.8913509633538,0 79.8913509633538,-53.17195551014883 54.8913509633538,-71.05347455775942
c -25.0,-54.1775 87.5,-33.34 153.44198236997954,-37.70559114674006 c 82.01613509505476,0.0 188.21750270232428,-20.837500000000002 159.0508360356576,57.64226820915579
c -25.0,61.727513334554516 0,74.72768164446154 49.28249729767575,74.72768164446154
c 61.07015332859871,0 86.0701533285987,-23.538845506308856 61.07015332859871,-54.957771006226736
c -25.0,-54.1775 87.5,-33.34 147.26318000473464,-77.41217884739059 c 60.8076451609067,-0.0 198.19172169199464,20.837500000000002 169.025055025328,-80.60209041463492
c -25.0,-49.44770329396783 0,-58.79147817747929 39.308278308005356,-58.79147817747929
c 58.56694165575371,0 83.56694165575371,31.427632034133016 58.56694165575371,114.79884734278265
c -25.0,54.1775 87.5,33.34 149.76639167757963,24.594721249331556 c 73.33768840503332,0.0 206.4251309053285,-20.837500000000002 177.25846423866182,45.328162740318305
c -25.0,59.54491974812125 0,71.04208754291645 31.074869094671527,71.04208754291645
c 39.94970613826189,0 64.94970613826189,-56.028533866141245 39.94970613826189,-112.95485766410117
c -25.0,-54.1775 87.5,-33.34 168.38362719507145,-3.415392619133584 c 35.26765495150595,-0.0 180.74835795119697,20.837500000000002 151.5816912845303,-40.23717481224939
c -25.0,-39.42365193934996 0,-66.90344624875712 56.751642048803035,-66.90344624875712
c 47.64458458964231,0 72.6445845896423,19.140349963736107 47.64458458964231,23.590629629999782
c -25.0,54.1775 87.5,33.34 160.68874874369104,83.54999143100673 c 24.394666049714907,-0.0 181.79133796233504,20.837500000000002 152.62467129566838,-58.14173578196882
c -25.0,-76.11877605789358 0,-79.55105176331303 55.708662037664965,-79.55105176331303
c 39.57069050240642,0 64.57069050240642,30.355654167962076 39.57069050240642,125.04836954170875
c -25.0,54.1775 87.5,33.34 168.76264283092692,12.644418003573094 L 2500 0 " fill="none" stroke="black" stroke-width="0.1" style="vector-effect:non-scaling-stroke;"/></g><g><path d="M 0 0  L 0 833.500000  c 102.15312387483094,-0.0 186.64413828413768,20.837500000000002 157.47747161747102,-15.584172756469222
c -25.0,-32.51608091343313 0,-118.95115892808863 50.85586171586232,-118.95115892808863
c 51.04642181906209,0 76.04642181906209,27.307239869762633 51.04642181906209,45.98314420760484
c -25.0,54.1775 87.5,33.34 157.28691151427125,88.55218747695302 c 116.88258733425471,0.0 172.52793197505974,-20.837500000000002 143.36126530839306,58.80925006535607
c -25.0,37.09760022202893 0,78.49329260346876 64.97206802494028,78.49329260346876
c 55.80612073190176,0 80.80612073190176,-68.29743049650308 55.80612073190176,-130.26467071838394
c -25.0,-54.1775 87.5,-33.34 152.5272126014316,-7.037871950440888 c 120.3753028551016,0.0 180.14365275544202,-20.837500000000002 150.97698608877536,31.39689077854254
c -25.0,54.52777464161407 0,108.5163067839878 57.35634724455798,108.5163067839878
c 29.858106310546077,0 54.85810631054608,-125.37441888017601 29.858106310546077,-134.39733190802212
c -25.0,-54.1775 87.5,-33.34 178.47522702278727,-5.515865654508218 c 63.79761918816257,-0.0 173.1989328706493,20.837500000000002 144.03226620398263,-0.2418692687779017
c -25.0,-108.99119878350301 0,-127.71735499273242 64.30106712935071,-127.71735499273242
c 63.50138921146126,0 88.50138921146126,32.4333799449999 63.50138921146126,79.93317800495066
c -25.0,54.1775 87.5,33.34 144.83194412187208,48.02604625655967 c 68.36897632935771,-0.0 196.56642584272038,20.837500000000002 167.39975917605372,-32.25696827964711
c -25.0,-31.75018204038544 0,-86.12451262668775 40.93357415727962,-86.12451262668775
c 32.77954737942636,0 57.77954737942636,22.710529963102143 32.77954737942636,28.68770085297814
c -25.0,54.1775 87.5,33.34 175.55378595390698,89.69378005335672 c 65.94087223442001,-0.0 172.08536212356563,20.837500000000002 142.91869545689897,-35.47596004307767
c -25.0,-37.67559313591853 0,-70.66031952088295 65.41463787643437,-70.66031952088295
c 50.5084306365778,0 75.5084306365778,22.542826866206855 50.5084306365778,28.132450010195072
c -25.0,54.1775 87.5,33.34 157.82490269675554,78.00382955376554 L 2500 0 " fill="none" stroke="black" stroke-width="0.1" style="vector-effect:non-scaling-stroke;"/></g><g><path d="M 0 0  L 0 1250.250000  c 109.78795706003059,-0.0 182.06528618351143,20.837500000000002 152.89861951684475,-63.61431778385431
c -25.0,-32.722601180944885 0,-56.815497238908826 55.434713816488596,-56.815497238908826
c 58.95102214916412,0 83.95102214916412,12.08180751907507 58.95102214916412,31.031304736861003
c -25.0,54.1775 87.5,33.34 149.38231118416923,89.39851028590213 c 90.98809229782736,0.0 192.64425479764247,-20.837500000000002 163.47758813097582,31.863126579222186
c -25.0,71.56578007255537 0,80.36625539812994 44.855745202357525,80.36625539812994
c 39.661321612523835,0 64.66132161252384,-12.337331066293338 39.661321612523835,-35.813306505703224
c -25.0,-54.1775 87.5,-33.34 168.6720117208095,-76.4160754716489 c 119.57335869148878,-0.0 192.9302578683857,20.837500000000002 163.763591201719,-22.420102626140054
c -25.0,-104.70522715518511 0,-106.06818165821124 44.56974213161433,-106.06818165821124
c 39.30587157626189,0 64.3058715762619,81.1910974732872 39.30587157626189,96.2678020975753
c -25.0,54.1775 87.5,33.34 169.02746175707145,32.220482186775996 c 49.86257158093798,-0.0 183.18584007388466,20.837500000000002 154.019173407218,-7.571256326537588
c -25.0,-107.99526791580817 0,-107.66530837661686 54.31415992611534,-107.66530837661686
c 62.99408935603205,0 87.99408935603205,12.763046060045555 62.99408935603205,44.095328486676536
c -25.0,54.1775 87.5,33.34 145.3392439773013,71.14123621647792 c 33.569053436602125,-0.0 194.19879481864524,20.837500000000002 165.03212815197858,-70.67241407086041
c -25.0,-48.46567850596503 0,-54.037506865704884 43.30120518135476,-54.037506865704884
c 36.86898378875887,0 61.86898378875887,76.8444427426142 36.86898378875887,88.77083369214819
c -25.0,54.1775 87.5,33.34 171.46434954457447,35.93908724441711 c 53.676961004322884,-0.0 194.39087356547083,20.837500000000002 165.22420689880417,-63.18452652721212
c -25.0,-53.40493067372492 0,-56.30798398290704 43.10912643452917,-56.30798398290704
c 36.469220686579064,0 61.469220686579064,78.03424110409841 36.469220686579064,96.96731151846191
c -25.0,54.1775 87.5,33.34 171.86411264675428,22.52519899165725 L 2500 0 " fill="none" stroke="black" stroke-width="0.1" style="vector-effect:non-scaling-stroke;"/></g></g></svg>