<svg baseProfile="full" height="960" preserveAspectRatio="none" shape-rendering="geometricPrecision" version="1.1" viewBox="0,0,1280,960" width="1280" xmlns="http://www.w3.org/2000/svg" xmlns:ev="http://www.w3.org/2001/xml-events" xmlns:xlink="http://www.w3.org/1999/xlink"><title>Jigsaw puzzle piece clips</title><desc>Created with the piecemaker. Piece count: 35</desc><defs /><g><g><rect fill="white" height="960" width="1280" x="0" y="0" /></g></g><g><g><path d="M 0 0  L 182.857143 0  c -0.0,17.747666724080197 9.142857142857144,88.13627704733612 -2.261927325852624,74.69627704733612&#10;c -21.02894964137144,-11.52 -55.04802229334345,0 -55.04802229334345,21.303722952663875&#10;c 0,22.03247342420589 7.764792832608039,33.552473424205886 24.48193223130339,22.03247342420589&#10;c 23.771428571428572,-11.52 14.62857142857143,40.32 32.828017387892686,73.96752657579411 c -0.0,18.06758668998098 9.142857142857144,79.4546070156062 -35.643204811400345,66.0146070156062&#10;c -21.480304867748245,-11.52 -22.81355629579349,0 -22.81355629579349,29.985392984393798&#10;c 0,24.8741658674723 19.6844800794857,36.394165867472296 34.24503728056327,24.8741658674723&#10;c 23.771428571428572,-11.52 14.62857142857143,40.32 24.211723826630568,71.1258341325277 c 0.0,19.462560644362945 -9.142857142857144,95.26425990945596 15.184681248880601,81.82425990945596&#10;c 28.669044291362667,-11.52 42.287672032071306,0 42.287672032071306,14.17574009054404&#10;c 0,29.733767308794597 -23.119942956673704,41.25376730879459 -26.361222543805425,29.733767308794597&#10;c -23.771428571428572,-11.52 -14.62857142857143,40.32 -31.111130737146482,66.2662326912054 c -0.0,17.194064993624263 9.142857142857144,94.19240165518816 -10.045773812252664,80.75240165518817&#10;c -23.500479136726508,-11.52 -49.051982300409364,0 -49.051982300409364,15.247598344811834&#10;c 0,18.347399010116277 12.6285957903327,29.867399010116277 35.300517357529785,18.347399010116277&#10;c 23.771428571428572,-11.52 14.62857142857143,40.32 23.79723875513224,77.65260098988372 c 0.0,29.947841988786276 -9.142857142857144,81.98651687057405 21.034847683317135,68.54651687057405&#10;c 21.28853637286503,-11.52 35.25806953448813,0 35.25806953448813,27.453483129425948&#10;c 0,30.194841383681833 -5.866926665642039,41.71484138368183 -25.935196557461072,30.194841383681833&#10;c -23.771428571428572,-11.52 -14.62857142857143,40.32 -30.357720660344196,65.80515861631817 L 0 960 " fill="none" stroke="black" stroke-width="0.1" style="vector-effect:non-scaling-stroke;" /></g><g><path d="M 0 0  L 365.714286 0  c 0.0,40.247879866904924 -9.142857142857144,88.19807529349389 24.569314380073425,74.75807529349389&#10;c 23.03713326315156,-11.52 34.17050960223162,0 34.17050960223162,21.24192470650611&#10;c 0,17.060461795278513 -36.036523871756366,28.580461795278513 -39.36160016429943,17.060461795278513&#10;c -23.771428571428572,-11.52 -14.62857142857143,40.32 -19.37822381800561,78.93953820472149 c -0.0,22.618879158915654 9.142857142857144,79.4065161134648 -12.241129343984676,65.9665161134648&#10;c -25.065522404787973,-11.52 -32.94740357598845,0 -32.94740357598845,30.033483886535194&#10;c 0,21.347018980150636 2.2055658307929837,32.86701898015063 7.615715153806178,21.347018980150636&#10;c 23.771428571428572,-11.52 14.62857142857143,40.32 37.57281776616695,74.65298101984936 c 0.0,37.46078894785741 -9.142857142857144,92.07962134815877 3.018158568720067,78.63962134815877&#10;c 45.1629042187013,-11.52 47.3791627035546,0 47.3791627035546,17.36037865184123&#10;c 0,23.512873790832657 -24.984818064730018,35.03287379083265 -50.888421044367405,23.512873790832657&#10;c -23.771428571428572,-11.52 -14.62857142857143,40.32 0.49109977209273836,72.48712620916734 c -0.0,27.652057646587878 9.142857142857144,93.22597944395785 -13.31746603526266,79.78597944395786&#10;c -26.147547163567175,-11.52 -48.215320370745665,0 -48.215320370745665,16.214020556042144&#10;c 0,14.239869113104959 16.55355269731164,25.75986911310496 22.55486309779569,14.239869113104959&#10;c 23.771428571428572,-11.52 14.62857142857143,40.32 38.97792330821264,81.76013088689504 c 0.0,19.653976625664534 -9.142857142857144,94.26034142796102 3.8307732712607536,80.82034142796103&#10;c 42.022139712615264,-11.52 54.60726474183012,0 54.60726474183012,15.179658572038974&#10;c 0,18.023455211020263 -34.98707246394411,29.543455211020262 -35.6081509368983,18.023455211020263&#10;c -23.771428571428572,-11.52 -14.62857142857143,40.32 -22.829887076192577,77.97654478897974 L 0 960 " fill="none" stroke="black" stroke-width="0.1" style="vector-effect:non-scaling-stroke;" /></g><g><path d="M 0 0  L 548.571429 0  c 0.0,43.31313228170358 -9.142857142857144,83.15681853175028 20.0733464673352,69.71681853175028&#10;c 11.692861859208813,-11.52 28.311339040487198,0 28.311339040487198,26.283181468249722&#10;c 0,29.506753085521666 -21.90683291018643,41.02675308552166 -41.03677586345529,29.506753085521666&#10;c -23.771428571428572,-11.52 -14.62857142857143,40.32 -7.347909644367107,66.49324691447833 c -0.0,17.31720183185559 9.142857142857144,90.93265693591513 -0.9960794651679146,77.49265693591514&#10;c -25.399246809651306,-11.52 -57.24758717494504,0 -57.24758717494504,18.507343064084864&#10;c 0,29.760786765283427 19.776632440398224,41.28078676528342 29.493011595873924,29.760786765283427&#10;c 23.771428571428572,-11.52 14.62857142857143,40.32 28.750655044239032,66.23921323471657 c 0.0,37.00210222370079 -9.142857142857144,78.95103561862643 17.32791986566555,65.51103561862644&#10;c 21.668065034228977,-11.52 29.732352507701663,0 29.732352507701663,30.488964381373563&#10;c 0,24.673199967378125 -18.60368990970772,36.19319996737812 -21.092285855294236,24.673199967378125&#10;c -23.771428571428572,-11.52 -14.62857142857143,40.32 -25.967986518072976,71.32680003262188 c 0.0,16.598671413938614 -9.142857142857144,85.88819507744032 12.158794024659539,72.44819507744032&#10;c 33.81729114119822,-11.52 43.39709062628927,0 43.39709062628927,23.551804922559683&#10;c 0,24.11824495574237 -36.9044531275975,35.638244955742366 -57.42476863343977,24.11824495574237&#10;c -23.771428571428572,-11.52 -14.62857142857143,40.32 1.8688839824909564,71.88175504425763 c -0.0,49.64751895823813 9.142857142857144,81.73722332574503 -29.548587170263257,68.29722332574504&#10;c -27.22077503229699,-11.52 -29.183153214733725,0 -29.183153214733725,27.702776674254963&#10;c 0,25.226374834551308 47.91478371696498,36.746374834551304 55.6495907798262,25.226374834551308&#10;c 23.771428571428572,-11.52 14.62857142857143,40.32 3.082149605170784,70.77362516544869 L 0 960 " fill="none" stroke="black" stroke-width="0.1" style="vector-effect:non-scaling-stroke;" /></g><g><path d="M 0 0  L 731.428571 0  c -0.0,35.9161669498849 9.142857142857144,95.48805462496057 -8.641771785814433,82.04805462496057&#10;c -30.91958361803519,-11.52 -49.4016615100362,0 -49.4016615100362,13.951945375039429&#10;c 0,15.275018437369354 18.435880225825027,26.795018437369354 32.72237095187408,15.275018437369354&#10;c 23.771428571428572,-11.52 14.62857142857143,40.32 25.32106234397655,80.72498156263065 c 0.0,9.919802951943229 -9.142857142857144,82.90099140060444 29.803402279568502,69.46099140060444&#10;c 28.0400146732621,-11.52 32.2860244720076,0 32.2860244720076,26.539008599395558&#10;c 0,16.040483498422418 -23.714892087458956,27.560483498422418 -39.61692827404147,16.040483498422418&#10;c -23.771428571428572,-11.52 -14.62857142857143,40.32 -22.47249847753463,79.95951650157758 c -0.0,34.71114726976626 9.142857142857144,88.81551029814764 -10.383330631230608,75.37551029814765&#10;c -23.35624927242738,-11.52 -50.3602094323628,0 -50.3602094323628,20.624489701852355&#10;c 0,30.519173583711634 20.80252122304857,42.03917358371163 27.17640065230728,30.519173583711634&#10;c 23.771428571428572,-11.52 14.62857142857143,40.32 33.56713941128613,65.48082641628837 c 0.0,9.942286652735403 -9.142857142857144,89.55308874931302 36.12311449563554,76.11308874931302&#10;c 21.30690398955339,-11.52 25.707975387784145,0 25.707975387784145,19.88691125068698&#10;c 0,27.132066640499616 -18.64473656197496,38.65206664049961 -43.29689143872522,27.132066640499616&#10;c -23.771428571428572,-11.52 -14.62857142857143,40.32 -18.534198444694468,68.86793335950038 c -0.0,44.67147218250717 9.142857142857144,87.87469856118842 -2.1642251226719718,74.43469856118843&#10;c -15.543485868343272,-11.52 -49.883901299541414,0 -49.883901299541414,21.565301438811574&#10;c 0,21.71868587657636 9.815096008457544,33.238685876576355 27.923820116718908,21.71868587657636&#10;c 23.771428571428572,-11.52 14.62857142857143,40.32 24.12430630549448,74.28131412342364 L 0 960 " fill="none" stroke="black" stroke-width="0.1" style="vector-effect:non-scaling-stroke;" /></g><g><path d="M 0 0  L 914.285714 0  c 0.0,27.145088641060727 -9.142857142857144,81.39282452107993 19.216564126804215,67.95282452107993&#10;c 33.902458130611635,-11.52 38.048330722262286,0 38.048330722262286,28.047175478920067&#10;c 0,26.502641238434563 -28.092307312490803,38.02264123843456 -50.82416880484702,26.502641238434563&#10;c -23.771428571428572,-11.52 -14.62857142857143,40.32 -6.440726044219481,69.49735876156544 c -0.0,49.183058086930245 9.142857142857144,80.76020407982969 -0.30839637775176193,67.3202040798297&#10;c -17.792138679884886,-11.52 -50.19289852972794,0 -50.19289852972794,28.679795920170307&#10;c 0,29.88021302235262 5.5537269027919836,41.40021302235262 10.866049448570429,29.88021302235262&#10;c 23.771428571428572,-11.52 14.62857142857143,40.32 39.635245458909274,66.11978697764738 c -0.0,11.680907321499916 9.142857142857144,93.0510689421822 -17.373698649286567,79.6110689421822&#10;c -8.606237767934438,-11.52 -31.73804583453304,0 -31.73804583453304,16.3889310578178&#10;c 0,21.691180742269708 19.167350244664302,33.211180742269704 41.683698865398995,21.691180742269708&#10;c 23.771428571428572,-11.52 14.62857142857143,40.32 7.428045618420612,74.30881925773029 c -0.0,20.964245207745357 9.142857142857144,92.64011404131173 0.015835339128401467,79.20011404131174&#10;c -36.09035694781791,-11.52 -48.90275577180169,0 -48.90275577180169,16.799885958688265&#10;c 0,18.606081985325616 32.27695002410987,30.126081985325616 35.01141291504579,18.606081985325616&#10;c 23.771428571428572,-11.52 14.62857142857143,40.32 13.875507517627497,77.39391801467438 c 0.0,23.634905193419208 -9.142857142857144,93.0304834446822 23.19186987119822,79.5904834446822&#10;c 34.31937626178173,-11.52 35.106680327657266,0 35.106680327657266,16.409516555317794&#10;c 0,24.581056881015428 -23.498872689560127,36.101056881015424 -34.32242619000357,24.581056881015428&#10;c -23.771428571428572,-11.52 -14.62857142857143,40.32 -23.97612400885192,71.41894311898457 L 0 960 " fill="none" stroke="black" stroke-width="0.1" style="vector-effect:non-scaling-stroke;" /></g><g><path d="M 0 0  L 1097.142857 0  c -0.0,36.29596213268001 9.142857142857144,84.86584436663559 -22.961608041281366,71.42584436663559&#10;c -7.853395730046425,-11.52 -24.3205672634841,0 -24.3205672634841,24.574155633364413&#10;c 0,29.434816961175443 8.22622400896611,40.95481696117544 13.647186224528234,29.434816961175443&#10;c 23.771428571428572,-11.52 14.62857142857143,40.32 33.63498908023723,66.56518303882456 c -0.0,26.947713247859184 9.142857142857144,88.69685437197964 -37.628090402237746,75.25685437197964&#10;c -15.743718553976803,-11.52 -20.848674079227493,0 -20.848674079227493,20.743145628020358&#10;c 0,15.047665730060828 50.7068432984469,26.567665730060828 54.484795213858455,15.047665730060828&#10;c 23.771428571428572,-11.52 14.62857142857143,40.32 3.991969267606784,80.95233426993917 c 0.0,18.795029669418728 -9.142857142857144,83.66574690656256 -0.12344599947622699,70.22574690656256&#10;c 48.52504016090473,-11.52 61.72918173389649,0 61.72918173389649,25.774253093437437&#10;c 0,20.235030650753572 -10.116447561903223,31.75503065075357 -48.13640218444712,20.235030650753572&#10;c -23.771428571428572,-11.52 -14.62857142857143,40.32 -13.469333549973143,75.76496934924643 c 0.0,31.109004994068854 -9.142857142857144,90.79898206812992 13.27436101100099,77.35898206812992&#10;c 14.627200447161313,-11.52 30.763813658366296,0 30.763813658366296,18.64101793187008&#10;c 0,22.072557966299712 -8.089238621130697,33.59255796629971 -8.902474349378075,22.072557966299712&#10;c -23.771428571428572,-11.52 -14.62857142857143,40.32 -35.13570031998921,73.92744203370029 c 0.0,50.53084324107174 -9.142857142857144,90.65274807550287 0.004533650991270629,77.21274807550287&#10;c 18.21109012552723,-11.52 55.70807709312805,0 55.70807709312805,18.787251924497127&#10;c 0,25.686734845951037 -9.182010396763829,37.20673484595103 -32.108572516844994,25.686734845951037&#10;c -23.771428571428572,-11.52 -14.62857142857143,40.32 -23.604038227274323,70.31326515404896 L 0 960 " fill="none" stroke="black" stroke-width="0.1" style="vector-effect:non-scaling-stroke;" /></g></g><g><g><path d="M 0 0  L 0 192.000000  c 21.203690123977534,-0.0 88.18126967809474,9.600000000000001 75.38126967809474,-0.11767118155407275&#10;c -10.971428571428572,-56.12040790696157 0,-56.31330040470414 16.04730175047669,-56.31330040470414&#10;c 16.84519535749463,0 27.816623928923203,36.94884831477516 16.84519535749463,41.977520159754405&#10;c -10.971428571428572,24.96 38.4,15.36 74.5833760710768,14.453451426503804 c 36.06517241036984,0.0 82.35808120675611,-9.600000000000001 69.55808120675611,-1.7745245069529458&#10;c -10.971428571428572,44.17590520476787 0,56.79019699807809 21.870490221815317,56.79019699807809&#10;c 15.891274041815379,0 26.86270261324395,-12.948953629025343 15.891274041815379,-20.802167000181697&#10;c -10.971428571428572,-24.96 38.4,-15.36 75.53729738675605,-34.21350549094345 c 47.4673582089802,0.0 88.34400053768928,-9.600000000000001 75.54400053768929,6.218433607185149&#10;c -10.971428571428572,50.648766941231315 0,52.63335668301992 15.884570890882145,52.63335668301992&#10;c 21.641427147765924,0 32.6128557191945,-36.65585484694788 21.641427147765924,-44.111938385696575&#10;c -10.971428571428572,-24.96 38.4,-15.36 69.7871442808055,-14.739851904508491 c 51.70173536842697,0.0 90.99325182324998,-9.600000000000001 78.19325182324998,27.02609047465819&#10;c -10.971428571428572,12.890211296352454 0,21.4154574000868 13.23531960532145,21.4154574000868&#10;c 17.60995728887356,0 28.58138586030213,-22.164862742911314 17.60995728887356,-22.093295684423737&#10;c -10.971428571428572,-24.96 38.4,-15.36 73.81861413969787,-26.348252190321254 c 38.49791338403718,-0.0 79.06680787561586,9.600000000000001 66.26680787561587,-8.0329518129701&#10;c -10.971428571428572,-13.955164395242498 0,-51.28904704120944 25.161763552955563,-51.28904704120944&#10;c 14.030231113950435,0 25.001659685379007,20.993875298630968 14.030231113950435,56.42504091821905&#10;c -10.971428571428572,24.96 38.4,15.36 77.398340314621,2.8969579359604936 c 33.70325792390162,-0.0 89.0816228557797,9.600000000000001 76.2816228557797,2.655991531921066&#10;c -10.971428571428572,-49.83212864403327 0,-50.03917240042355 15.146948572791729,-50.03917240042355&#10;c 15.102946550271966,0 26.074375121700538,12.71208507547844 15.102946550271966,28.476246722689673&#10;c -10.971428571428572,24.96 38.4,15.36 76.32562487829946,18.906934145812812 c 11.104196115342429,-0.0 75.12976337331071,9.600000000000001 62.32976337331071,-31.723111396841958&#10;c -10.971428571428572,-4.7769790545068505 0,-20.672524895466893 29.09880805526072,-20.672524895466893&#10;c 15.101912269959229,0 26.0733408413878,9.228490807601888 15.101912269959229,31.177838289458773&#10;c -10.971428571428572,24.96 38.4,15.36 76.3266591586122,21.217798002850078 L 1280 0 " fill="none" stroke="black" stroke-width="0.1" style="vector-effect:non-scaling-stroke;" /></g><g><path d="M 0 0  L 0 384.000000  c 24.156843575140527,-0.0 89.09570362402575,9.600000000000001 76.29570362402575,-27.9924300065161&#10;c -10.971428571428572,-14.883793634161783 0,-34.47868165021883 15.132867804545683,-34.47868165021883&#10;c 18.337700740543056,0 29.309129311971628,23.326154914431626 18.337700740543056,53.08745538787781&#10;c -10.971428571428572,24.96 38.4,15.36 73.09087068802837,9.383656268857123 c 23.218287939436536,0.0 76.90592843109549,-9.600000000000001 64.10592843109549,12.068875693837075&#10;c -10.971428571428572,26.59416019897336 0,43.22553530956925 27.32264299747594,43.22553530956925&#10;c 22.31017792626156,0 33.281606497690134,-26.455163151845202 22.31017792626156,-27.688498189082495&#10;c -10.971428571428572,-24.96 38.4,-15.36 69.11839350230987,-27.60591281432383 c 40.06265924620654,0.0 82.34836178180727,-9.600000000000001 69.54836178180727,28.385839092732496&#10;c -10.971428571428572,31.753439328110126 0,32.33955775104317 21.880209646764158,32.33955775104317&#10;c 19.893123417588143,0 30.864551989016714,-29.280236825356734 19.893123417588143,-61.25999494687366&#10;c -10.971428571428572,-24.96 38.4,-15.36 71.53544801098329,0.5345981030979914 c 31.010339946120443,0.0 89.93851892169033,-9.600000000000001 77.13851892169033,16.419329260738813&#10;c -10.971428571428572,41.5983883872915 0,45.06485364550255 14.290052506881096,45.06485364550255&#10;c 21.484802868521257,0 32.45623143994983,-5.36664689135903 21.484802868521257,-23.272943905927264&#10;c -10.971428571428572,-24.96 38.4,-15.36 69.94376856005017,-38.2112390003141 c 44.76086954381635,-0.0 87.6751424546897,9.600000000000001 74.87514245468971,-33.0047492715478&#10;c -10.971428571428572,-15.812688997159865 0,-26.23138646747715 16.553428973881722,-26.23138646747715&#10;c 16.660594081531883,0 27.632022652960455,53.69374523116863 16.660594081531883,53.29337942688408&#10;c -10.971428571428572,24.96 38.4,15.36 74.76797734703955,5.942756312140872 c 43.55260533755059,-0.0 79.10876702576115,9.600000000000001 66.30876702576116,-5.2605503431594425&#10;c -10.971428571428572,-15.373383823539593 0,-43.92821795776294 25.119804402810274,-43.92821795776294&#10;c 28.754088161973982,0 39.72551673340256,16.469944832182033 28.754088161973982,47.43620598674493&#10;c -10.971428571428572,24.96 38.4,15.36 62.67448326659745,1.7525623141774531 c 50.067534801191655,0.0 91.10379487797238,-9.600000000000001 78.30379487797238,4.006009924254516&#10;c -10.971428571428572,22.983626186668456 0,47.33197164675046 13.124776550599051,47.33197164675046&#10;c 23.639350661882958,0 34.61077923331153,-24.303338944984173 23.639350661882958,-52.01713340963285&#10;c -10.971428571428572,-24.96 38.4,-15.36 67.78922076668847,0.6791518386278739 L 1280 0 " fill="none" stroke="black" stroke-width="0.1" style="vector-effect:non-scaling-stroke;" /></g><g><path d="M 0 0  L 0 576.000000  c 40.830262950417996,-0.0 80.4493835350182,9.600000000000001 67.6493835350182,-38.63999166662048&#10;c -10.971428571428572,-7.9427343710272895 0,-12.611748444320675 23.779187893553228,-12.611748444320675&#10;c 14.979566543741782,0 25.950995115170354,12.94403156023369 14.979566543741782,27.562819488005292&#10;c -10.971428571428572,24.96 38.4,15.36 76.44900488482965,23.688920622935864 c 23.96743035275916,-0.0 90.1480660810747,9.600000000000001 77.3480660810747,-15.752789312839326&#10;c -10.971428571428572,-12.360968387750175 0,-49.28958898445933 14.080505347496725,-49.28958898445933&#10;c 19.090168506313375,0 30.061597077741947,23.819567721994368 19.090168506313375,65.51909872372194&#10;c -10.971428571428572,24.96 38.4,15.36 72.33840292225806,-0.4767204264232845 c 12.854852616563484,-0.0 87.52656913772371,9.600000000000001 74.72656913772371,-6.915052152665199&#10;c -10.971428571428572,-15.665200911085716 0,-44.98468381671588 16.702002290847716,-44.98468381671588&#10;c 21.14051785442888,0 32.111946425857454,12.693149662163513 21.14051785442888,43.50865151833374&#10;c -10.971428571428572,24.96 38.4,15.36 70.28805357414255,8.391084451047334 c 14.377974950485186,-0.0 83.33861529318555,9.600000000000001 70.53861529318556,0.9510395315101825&#10;c -10.971428571428572,-25.90818632618806 0,-47.151309430016155 20.889956135385873,-47.151309430016155&#10;c 18.378181647983624,0 29.349610219412195,16.105523365063902 18.378181647983624,22.354514374924435&#10;c -10.971428571428572,24.96 38.4,15.36 73.0503897805878,23.845755523581538 c 15.308611342902585,0.0 80.37936793933129,-9.600000000000001 67.57936793933129,15.989532229688557&#10;c -10.971428571428572,34.74865020188313 0,37.12158845570797 23.84920348924014,37.12158845570797&#10;c 23.46393548640519,0 34.435364057833766,-7.6545954890835315 23.46393548640519,-15.225007805362026&#10;c -10.971428571428572,-24.96 38.4,-15.36 67.96463594216624,-37.8861128800345 c 17.238195354589124,-0.0 85.18696487217349,9.600000000000001 72.3869648721735,-8.55421285785311&#10;c -10.971428571428572,-43.93517670225579 0,-43.81111871758916 19.041606556397937,-43.81111871758916&#10;c 17.25127996331223,0 28.2227085347408,6.761460788576432 17.25127996331223,19.493432256301766&#10;c -10.971428571428572,24.96 38.4,15.36 74.1772914652592,32.8718993191405 c 31.126032957268897,0.0 76.72622665156369,-9.600000000000001 63.92622665156369,32.14107745182775&#10;c -10.971428571428572,13.715347457875138 0,18.68353419564167 27.502344777007742,18.68353419564167&#10;c 22.825071552708152,0 33.79650012413673,-34.86390989823449 22.825071552708152,-34.5736181162095&#10;c -10.971428571428572,-24.96 38.4,-15.36 68.60349987586328,-16.250993531259915 L 1280 0 " fill="none" stroke="black" stroke-width="0.1" style="vector-effect:non-scaling-stroke;" /></g><g><path d="M 0 0  L 0 768.000000  c 17.446599058449795,0.0 78.58047190796076,-9.600000000000001 65.78047190796076,4.594923689428714&#10;c -10.971428571428572,48.285588684035766 0,48.389024200540966 25.64809952061067,48.389024200540966&#10;c 17.442286521008867,0 28.41371509243744,-21.66796886277865 17.442286521008867,-53.13830814135031&#10;c -10.971428571428572,-24.96 38.4,-15.36 73.98628490756256,0.1543602513806306 c 48.087334209948054,0.0 79.7122968201713,-9.600000000000001 66.9122968201713,0.9588052325355765&#10;c -10.971428571428572,38.9120397756542 0,58.45156698906292 24.516274608400124,58.45156698906292&#10;c 22.083112718733716,0 33.05454129016229,-36.06450534793409 22.083112718733716,-61.93929964197083&#10;c -10.971428571428572,-24.96 38.4,-15.36 69.34545870983771,2.5289274203723338 c 52.10740061858961,-0.0 76.2879855920383,9.600000000000001 63.4879855920383,-21.088176304870696&#10;c -10.971428571428572,-24.60123315090701 0,-26.97018065775376 27.94058583653313,-26.97018065775376&#10;c 17.69212833545049,0 28.663556906879062,13.396582414092403 17.69212833545049,26.749251727465207&#10;c -10.971428571428572,24.96 38.4,15.36 73.73644309312094,21.30910523515925 c 35.50122586678478,0.0 75.27205240233957,-9.600000000000001 62.47205240233957,24.731130534289615&#10;c -10.971428571428572,29.539259263693918 0,34.30003199138254 28.95651902623186,34.30003199138254&#10;c 26.750196047768796,0 37.72162461919737,-44.740844490294485 26.750196047768796,-60.92960774608251&#10;c -10.971428571428572,-24.96 38.4,-15.36 64.67837538080263,1.898445220410352 c 41.17570135924813,-0.0 78.65211267371785,9.600000000000001 65.85211267371785,-18.387693121010816&#10;c -10.971428571428572,-13.385740550509302 0,-45.63008520793238 25.576458754853576,-45.63008520793238&#10;c 23.999367595435785,0 34.97079616686436,11.15235579773128 23.999367595435785,22.36989219689505&#10;c -10.971428571428572,24.96 38.4,15.36 67.42920383313565,41.64788613204814 c 31.308857683566284,0.0 87.84648904470751,-9.600000000000001 75.04648904470751,-3.641359327186532&#10;c -10.971428571428572,25.564973435363903 0,49.836050145411534 16.382082383863917,49.836050145411534&#10;c 17.646909301612325,0 28.618337873040897,-19.166325966604596 17.646909301612325,-23.792564217546403&#10;c -10.971428571428572,-24.96 38.4,-15.36 73.7816621269591,-22.402126600678596 c 25.924522595191643,-0.0 86.36293341599477,9.600000000000001 73.56293341599478,3.368078762278433&#10;c -10.971428571428572,-45.42330545027939 0,-52.33390055699928 17.865638012576653,-52.33390055699928&#10;c 27.14620481807239,0 38.117633389500966,22.148858107436766 27.14620481807239,31.180240779602023&#10;c -10.971428571428572,24.96 38.4,15.36 64.28236661049904,17.78558101511883 L 1280 0 " fill="none" stroke="black" stroke-width="0.1" style="vector-effect:non-scaling-stroke;" /></g></g></svg>