<svg baseProfile="full" height="4912" preserveAspectRatio="none" shape-rendering="geometricPrecision" version="1.1" viewBox="0,0,3264,4912" width="3264" xmlns="http://www.w3.org/2000/svg" xmlns:ev="http://www.w3.org/2001/xml-events" xmlns:xlink="http://www.w3.org/1999/xlink"><title>Jigsaw puzzle piece clips</title><desc>Created with the piecemaker. Piece count: 15</desc><defs/><g><g><rect fill="white" height="4912" width="3264" x="0" y="0"/></g></g><g><g><path d="M 0 0  L 1088.000000 0  c 0.0,75.30653866907518 -54.400000000000006,445.03053617705734 232.52756231599483,376.2625361770573
c 17.20999222147677,-58.943999999999996 31.408409744082974,0 31.408409744082974,114.93746382294268
c 0,89.48696283762916 -118.11987759661847,148.43096283762915 -169.12796378449025,89.48696283762916
c -141.44,-58.943999999999996 -87.04,206.30399999999997 -94.80800827558755,401.7130371623708 c 0.0,92.73847191407533 -54.400000000000006,475.2577448728638 19.530555658081724,406.4897448728638
c 175.60395188737604,-58.943999999999996 244.83688392757182,0 244.83688392757182,84.71025512713618
c 0,85.15711186780612 -64.58727193522587,144.1011118678061 -79.0169730154999,85.15711186780612
c -141.44,-58.943999999999996 -87.04,206.30399999999997 -185.35046657015363,406.04288813219387 c -0.0,91.98165192110572 54.400000000000006,403.61646215121243 10.207889550093057,334.84846215121246
c -281.7728641139548,-58.943999999999996 -364.70518178650735,0 -364.70518178650735,156.35153784878753
c 0,135.9005533498526 286.33969852491276,194.8445533498526 337.973531894249,135.9005533498526
c 141.44,-58.943999999999996 87.04,206.30399999999997 16.523760342165303,355.2994466501474 c 0.0,236.8945748545534 -54.400000000000006,402.8672098793654 0.7998134944048523,334.0992098793654
c 178.06888035354015,-58.943999999999996 307.1008709616911,0 307.1008709616911,157.1007901206346
c 0,154.88452691308368 -32.65573709451419,213.82852691308366 -96.83500993344478,154.88452691308368
c -141.44,-58.943999999999996 -87.04,206.30399999999997 -211.0656745226512,336.3154730869163 c -0.0,265.1950012918787 54.400000000000006,479.9257243562304 -130.8126508402597,411.1577243562304
c -186.46552671955604,-58.943999999999996 -211.58977213935842,0 -211.58977213935842,80.04227564376959
c 0,87.02875664198729 287.4224264265659,145.97275664198727 336.1753165761555,87.02875664198729
c 141.44,-58.943999999999996 87.04,206.30399999999997 6.227106403462585,404.1712433580127 L 0 4912 " fill="none" stroke="black" stroke-width="0.1" style="vector-effect:non-scaling-stroke;"/></g><g><path d="M 0 0  L 2176.000000 0  c 0.0,69.31538267976964 -54.400000000000006,419.80647876352873 46.78098775373428,351.0384787635287
c 162.96929339095954,-58.943999999999996 282.68706999436307,0 282.68706999436307,140.1615212364713
c 0,81.00809861697934 -245.5109995436604,139.95209861697933 -251.68084805014053,81.00809861697934
c -141.44,-58.943999999999996 -87.04,206.30399999999997 -77.78720969795683,410.19190138302065 c -0.0,87.81430721566254 54.400000000000006,487.54953620142044 -63.54694128924006,418.7815362014204
c -42.84449600941308,-58.943999999999996 -202.10513108260164,0 -202.10513108260164,72.41846379857958
c 0,89.99281243541287 55.91289312296266,148.93681243541286 96.52807062455679,89.99281243541287
c 141.44,-58.943999999999996 87.04,206.30399999999997 169.12400174728492,401.2071875645871 c 0.0,241.8613974152436 -54.400000000000006,412.0316790563595 -16.445668859694237,343.2636790563595
c 174.74334852164534,-58.943999999999996 325.83663117078623,0 325.83663117078623,147.9363209436405
c 0,115.28486355452463 -242.70807026005815,174.22886355452462 -325.229171935125,115.28486355452463
c -141.44,-58.943999999999996 -87.04,206.30399999999997 15.838209624033027,375.91513644547535 c -0.0,189.12173876165707 54.400000000000006,409.6702100087489 -31.168868587095037,340.9022100087489
c -164.4694182533488,-58.943999999999996 -279.5922221911994,0 -279.5922221911994,150.29778999125108
c 0,123.92505149338575 237.01835981669976,182.86905149338574 295.87822384592084,123.92505149338575
c 141.44,-58.943999999999996 87.04,206.30399999999997 14.882866932373645,367.27494850661424 c -0.0,201.5570940575723 54.400000000000006,469.19378376997565 -206.21166374301583,400.4257837699757
c -40.649707651668784,-58.943999999999996 -107.78772806132667,0 -107.78772806132667,90.77421623002431
c 0,121.91255007441526 237.85825732139284,180.85655007441525 310.4477794855884,121.91255007441526
c 141.44,-58.943999999999996 87.04,206.30399999999997 3.5516123187541098,369.2874499255847 L 0 4912 " fill="none" stroke="black" stroke-width="0.1" style="vector-effect:non-scaling-stroke;"/></g></g><g><g><path d="M 0 0  L 0 982.400000  c 241.87406493504406,-0.0 484.54300968906574,49.120000000000005 408.3830096890657,-86.76001952330988
c -65.28,-80.02698268941356 0,-162.3982398552996 135.61699031093428,-162.3982398552996
c 147.55704511762644,0 212.83704511762645,20.745678315823312 147.55704511762644,81.68037044645013
c -65.28,127.712 228.48,78.592 396.44295488237356,167.47788893215937 c 127.766275725747,0.0 493.1925963586284,-49.120000000000005 417.0325963586284,68.40673708827164
c -65.28,218.7718389644616 0,265.1114722561026 126.96740364137162,265.1114722561026
c 81.86350646770359,0 147.1435064677036,-84.09747905518762 81.86350646770359,-302.7536145576755
c -65.28,-127.712 228.48,-78.592 462.1364935322964,-30.76459478669875 c 139.17880529239082,-0.0 457.9594087862348,49.120000000000005 381.7994087862348,-207.48248601077157
c -65.28,-54.00067901741503 0,-107.3165448221691 162.20059121376522,-107.3165448221691
c 118.65546095088177,0 183.93546095088178,254.1485720426103 118.65546095088177,328.9528668004353
c -65.28,127.712 228.48,78.592 425.3445390491182,-14.153835967494615 L 3264 0 " fill="none" stroke="black" stroke-width="0.1" style="vector-effect:non-scaling-stroke;"/></g><g><path d="M 0 0  L 0 1964.800000  c 291.25644486321426,0.0 467.79769685448224,-49.120000000000005 391.6376968544822,2.2126900424159524
c -65.28,209.17810438408247 0,279.01436252539435 152.36230314551779,279.01436252539435
c 113.1217734620559,0 178.4017734620559,-75.08122864400062 113.1217734620559,-228.2815266841731
c -65.28,-127.712 228.48,-78.592 430.8782265379441,-52.9455258836372 c 75.23571180544045,-0.0 514.2063452967116,49.120000000000005 438.0463452967116,-181.80295476067616
c -65.28,-92.59492937103104 0,-132.10240939918972 105.95365470328841,-132.10240939918972
c 111.86279281549218,0 177.1427928154922,171.15947000371554 111.86279281549218,253.40678544979667
c -65.28,127.712 228.48,78.592 432.1372071845078,60.49857871006921 c 267.0813899536299,-0.0 458.1775004495876,49.120000000000005 382.0175004495876,-101.20052005287114
c -65.28,-117.88698889657995 0,-135.37827045739084 161.9824995504124,-135.37827045739084
c 76.7035370744685,0 141.9835370744685,77.0385720404537 76.7035370744685,128.37889666071612
c -65.28,127.712 228.48,78.592 467.2964629255315,108.19989384954584 L 3264 0 " fill="none" stroke="black" stroke-width="0.1" style="vector-effect:non-scaling-stroke;"/></g><g><path d="M 0 0  L 0 2947.200000  c 191.44433746079977,0.0 542.0211257463028,-49.120000000000005 465.8611257463028,139.7666703099715
c -65.28,156.76983619565956 0,176.10203164258874 78.13887425369722,176.10203164258874
c 141.4647220935327,0 206.74472209353272,-102.03080225806677 141.4647220935327,-142.4125599964604
c -65.28,-127.712 228.48,-78.592 402.5352779064673,-173.45614195609983 c 145.53464176456808,-0.0 503.24305019790853,49.120000000000005 427.0830501979085,-116.65450816456841
c -65.28,-93.11874501915338 0,-132.36871134120207 116.9169498020915,-132.36871134120207
c 143.62307610961102,0 208.90307610961102,167.75786898328684 143.62307610961102,192.1225693091945
c -65.28,127.712 228.48,78.592 400.376923890389,56.90065019657601 c 146.96812256074352,0.0 453.1516042809183,-49.120000000000005 376.9916042809183,60.96759185132185
c -65.28,93.15969239175732 0,268.05977250438804 167.0083957190817,268.05977250438804
c 143.6394109668414,0 208.9194109668414,-168.59566170659934 143.6394109668414,-279.388493720108
c -65.28,-127.712 228.48,-78.592 400.3605890331586,-49.638870635601904 L 3264 0 " fill="none" stroke="black" stroke-width="0.1" style="vector-effect:non-scaling-stroke;"/></g><g><path d="M 0 0  L 0 3929.600000  c 96.36211771049977,0.0 495.5686081894606,-49.120000000000005 419.40860818946055,-19.39445156939726
c -65.28,165.58226975192082 0,278.67959131051293 124.59139181053945,278.67959131051293
c 81.93008734096009,0 147.2100873409601,-39.64968564768034 81.93008734096009,-160.53941628142792
c -65.28,-127.712 228.48,-78.592 462.0699126590399,-98.74572345968778 c 223.63046696983912,-0.0 479.81351572215993,49.120000000000005 403.6535157221599,-90.26916213271255
c -65.28,-62.65172180188668 0,-161.94923430264006 140.3464842778401,-161.94923430264006
c 150.28831246417042,0 215.56831246417042,132.80462407446362 150.28831246417042,153.59163983902567
c -65.28,127.712 228.48,78.592 393.7116875358296,98.62675659632694 c 311.6993799760622,0.0 477.5108170542488,-49.120000000000005 401.35081705424875,68.670183755984
c -65.28,52.56268224664687 0,244.41328970379334 142.64918294575125,244.41328970379334
c 136.71615686982193,0 201.99615686982193,-63.40966411260086 136.71615686982193,-145.17227578533385
c -65.28,-127.712 228.48,-78.592 407.28384313017807,-167.91119767444349 L 3264 0 " fill="none" stroke="black" stroke-width="0.1" style="vector-effect:non-scaling-stroke;"/></g></g></svg>