<svg baseProfile="full" height="2848" preserveAspectRatio="none" shape-rendering="geometricPrecision" version="1.1" viewBox="0,0,4272,2848" width="4272" xmlns="http://www.w3.org/2000/svg" xmlns:ev="http://www.w3.org/2001/xml-events" xmlns:xlink="http://www.w3.org/1999/xlink"><title>Jigsaw puzzle piece clips</title><desc>Created with the piecemaker. Piece count: 48</desc><defs /><g><g><rect fill="white" height="2848" width="4272" x="0" y="0" /></g></g><g><g><path d="M 0 0  L 534.000000 0  c -0.0,126.93666682542653 26.700000000000003,227.52328073984637 -40.26011468403118,194.29661407317968&#10;c -104.31537025894248,-28.48 -136.10908363456767,0 -136.10908363456767,43.03671926015366&#10;c 0,41.43864665412903 43.07770875323769,69.91864665412903 183.76502007151836,41.43864665412903&#10;c 69.42,-28.48 42.72,99.68 -7.395821752919517,195.8946866792043 c -0.0,43.48008077961644 26.700000000000003,207.0254395528438 -3.189530419595109,173.79877288617712&#10;c -59.36394629932629,-28.48 -159.55671350845208,0 -159.55671350845208,63.534560447156224&#10;c 0,64.86672395758623 11.95705621283543,93.34672395758624 54.660711680189976,64.86672395758623&#10;c 69.42,-28.48 42.72,99.68 108.08553224785722,172.4666093757471 c 0.0,68.99768857076447 -26.700000000000003,197.9388498344315 26.776041056399674,164.71218316776483&#10;c 53.82777956002064,-28.48 140.35001132874396,0 140.35001132874396,72.62115016556851&#10;c 0,68.18695700562213 -34.56291720104053,96.66695700562214 -104.53604547464182,68.18695700562213&#10;c -69.42,-28.48 -42.72,99.68 -62.5900069105018,169.1463763277112 c 0.0,105.49308514463064 -26.700000000000003,204.3646001876811 60.066932573807435,171.13793352101442&#10;c 108.87990597300809,-28.48 108.1705329152042,0 108.1705329152042,66.19539981231893&#10;c 0,52.05189600420496 -147.21802357562254,80.53189600420497 -151.72590500575785,52.05189600420496&#10;c -69.42,-28.48 -42.72,99.68 -16.51156048325379,185.28143732912838 c 0.0,86.11028627522732 -26.700000000000003,233.7415135068349 75.55151720185549,200.51484684016822&#10;c 58.9354324270026,-28.48 86.2424406783116,0 86.2424406783116,36.818486493165125&#10;c 0,58.349297788741666 -33.73941808228413,86.82929778874167 -82.29305195643394,58.349297788741666&#10;c -69.42,-28.48 -42.72,99.68 -79.50090592373314,178.98403554459168 c 0.0,78.22177778745873 -26.700000000000003,225.34925594943854 88.2251798953664,192.12258928277186&#10;c 25.005549438545536,-28.48 42.795779419840514,0 42.795779419840514,45.21074405056149&#10;c 0,35.04089667541919 -17.405662937701923,63.520896675419195 -75.44594306628895,35.04089667541919&#10;c -69.42,-28.48 -42.72,99.68 -55.57501624891796,202.29243665791415 L 0 2848 " fill="none" stroke="black" stroke-width="0.1" style="vector-effect:non-scaling-stroke;" /></g><g><path d="M 0 0  L 1068.000000 0  c 0.0,81.25079709682134 -26.700000000000003,234.99924174502615 -1.4327982898377036,201.77257507835947&#10;c 143.80388148641163,-28.48 178.4622175386916,0 178.4622175386916,35.56075825497388&#10;c 0,48.397749733119355 -22.158646609984807,76.87774973311936 -103.7161324574298,48.397749733119355&#10;c -69.42,-28.48 -42.72,99.68 -73.31328679142409,188.935583600214 c -0.0,67.99964536694398 26.700000000000003,215.17615973812866 -103.65960342225013,181.949493071462&#10;c -36.94557849899208,-28.48 -66.17721450529267,0 -66.17721450529267,55.38384026187134&#10;c 0,65.08428414945664 44.012401775386884,93.56428414945664 105.15299411343368,65.08428414945664&#10;c 69.42,-28.48 42.72,99.68 64.68382381410912,172.2490491838767 c 0.0,63.76811092533222 -26.700000000000003,210.62989206889648 8.053020974161589,177.40322540222982&#10;c 53.05237998895477,-28.48 169.33557463355922,0 169.33557463355922,59.93010793110352&#10;c 0,48.49264860454238 -60.304879162706676,76.97264860454239 -147.4162378364875,48.49264860454238&#10;c -69.42,-28.48 -42.72,99.68 -29.972357771233305,188.84068472879096 c -0.0,30.94461863017293 26.700000000000003,232.60000494205798 -86.07230477450055,199.37333827539132&#10;c -45.34385353132292,-28.48 -63.92929292969011,0 -63.92929292969011,37.959995057942024&#10;c 0,71.57684974189195 57.35329578356804,100.05684974189195 146.23871302793074,71.57684974189195&#10;c 69.42,-28.48 42.72,99.68 3.7628846762599153,165.7564835914414 c 0.0,99.71200733150648 -26.700000000000003,234.30275508486523 13.927966963813933,201.07608841819854&#10;c 61.52788527173244,-28.48 132.51150037055095,0 132.51150037055095,36.257244915134805&#10;c 0,70.89878458337992 -33.89598015141601,99.37878458337993 -51.504543521278364,70.89878458337992&#10;c -69.42,-28.48 -42.72,99.68 -94.93492381308651,166.43454874995342 c -0.0,97.2786366456728 26.700000000000003,222.28116375629054 -33.74913099801362,189.05449708962385&#10;c -83.09561687297727,-28.48 -103.27127224915907,0 -103.27127224915907,48.27883624370949&#10;c 0,51.53965597514238 63.64146710157362,80.01965597514238 98.89833486661954,51.53965597514238&#10;c 69.42,-28.48 42.72,99.68 38.122068380553145,185.79367735819096 L 0 2848 " fill="none" stroke="black" stroke-width="0.1" style="vector-effect:non-scaling-stroke;" /></g><g><path d="M 0 0  L 1602.000000 0  c 0.0,34.216578738707376 -26.700000000000003,219.13352992894505 41.2150723042858,185.9068632622784&#10;c 95.59633577899791,-28.48 97.48962935572345,0 97.48962935572345,51.42647007105495&#10;c 0,71.49510747938004 -54.85361074322671,99.97510747938004 -115.49317593003684,71.49510747938004&#10;c -69.42,-28.48 -42.72,99.68 -23.211525729972408,165.8382258539533 c -0.0,33.73268509495328 26.700000000000003,218.51494229632192 -59.70577449445686,185.28827562965523&#10;c -106.65127848037,-28.48 -106.25664077311184,0 -106.25664077311184,52.04505770367811&#10;c 0,72.11345370999331 68.77996890777108,100.59345370999331 138.03791367642734,72.11345370999331&#10;c 69.42,-28.48 42.72,99.68 27.924501591141365,165.21987962334003 c 0.0,131.73789709184652 -26.700000000000003,220.29347890367268 73.82635934693376,187.06681223700602&#10;c 67.76557365320369,-28.48 86.64927084352094,0 86.64927084352094,50.266521096327324&#10;c 0,35.34962692703263 -83.77732544253729,63.829626927032635 -135.13780049799198,35.34962692703263&#10;c -69.42,-28.48 -42.72,99.68 -25.33782969246272,201.9837064063007 c -0.0,83.6177086548611 26.700000000000003,212.19269114334435 -67.32671504647442,178.9660244766777&#10;c -68.27716174476059,-28.48 -90.3448976381489,0 -90.3448976381489,58.367308856655654&#10;c 0,65.26147761830887 21.456719930348,93.74147761830888 40.750974828214794,65.26147761830887&#10;c 69.42,-28.48 42.72,99.68 116.92063785640852,172.07185571502447 c -0.0,86.4384167574003 26.700000000000003,223.52334561850557 10.648443990637833,190.29667895183889&#10;c -99.08108138396447,-28.48 -156.67754136842277,0 -156.67754136842277,47.03665438149446&#10;c 0,68.87952106620716 137.3492026372197,97.35952106620717 136.26176447745814,68.87952106620716&#10;c 69.42,-28.48 42.72,99.68 9.767332900326778,168.45381226712618 c 0.0,104.25136407338857 -26.700000000000003,201.44964355906694 29.16636488017068,168.22297689240028&#10;c 80.18242318770264,-28.48 124.2885892434943,0 124.2885892434943,69.11035644093306&#10;c 0,53.20288268488608 -101.76470528048091,81.68288268488608 -127.86323281839744,53.20288268488608&#10;c -69.42,-28.48 -42.72,99.68 -25.59172130526754,184.13045064844727 L 0 2848 " fill="none" stroke="black" stroke-width="0.1" style="vector-effect:non-scaling-stroke;" /></g><g><path d="M 0 0  L 2136.000000 0  c -0.0,23.850628753028246 26.700000000000003,206.60553723115885 -64.2058693135225,173.3788705644922&#10;c -57.42608016134282,-28.48 -97.41525622488587,0 -97.41525622488587,63.954462768841154&#10;c 0,34.369827935001496 68.47711801609013,62.8498279350015 117.52112376840091,34.369827935001496&#10;c 69.42,-28.48 42.72,99.68 44.10000177000745,202.96350539833185 c -0.0,96.15180429380058 26.700000000000003,221.12761787571225 -22.063782860562537,187.9009512090456&#10;c -53.48458661486909,-28.48 -111.81426630598607,0 -111.81426630598607,49.432382124287756&#10;c 0,70.91540290440443 53.771560729318466,99.39540290440443 89.25470097068396,70.91540290440443&#10;c 69.42,-28.48 42.72,99.68 44.62334819586465,166.4179304289289 c -0.0,127.58343217428352 26.700000000000003,203.14733606304486 -106.82207277514198,169.92066939637817&#10;c -30.072785805075966,-28.48 -52.60673205068406,0 -52.60673205068406,67.41266393695517&#10;c 0,67.52008808310896 66.15499741115619,96.00008808310896 114.79439724633914,67.52008808310896&#10;c 69.42,-28.48 42.72,99.68 44.63440757948689,169.81324525022438 c -0.0,60.7557766334448 26.700000000000003,211.9749300288027 -90.53004131198705,178.74826336213602&#10;c -12.624092940299064,-28.48 -43.87695838385062,0 -43.87695838385062,58.58506997119733&#10;c 0,51.39722388005234 34.09417528517809,79.87722388005234 125.61447182454923,51.39722388005234&#10;c 69.42,-28.48 42.72,99.68 8.792527871288442,185.936109453281 c 0.0,62.01106892629195 -26.700000000000003,199.75636504539756 112.5059151551721,166.5296983787309&#10;c 31.022671273862677,-28.48 50.052308993158235,0 50.052308993158235,70.80363495460244&#10;c 0,38.180071984684076 -50.68013155872817,66.66007198468408 -50.213763142431915,38.180071984684076&#10;c -69.42,-28.48 -42.72,99.68 -112.34446100589842,199.15326134864927 c 0.0,52.20927625582004 -26.700000000000003,202.3982116079868 98.3896205877199,169.17154494132012&#10;c 48.231198768487864,-28.48 82.55600049709268,0 82.55600049709268,68.16178839201322&#10;c 0,68.20369503251769 -60.74121077023132,96.68369503251769 -105.6081715288448,68.20369503251769&#10;c -69.42,-28.48 -42.72,99.68 -75.33744955596778,169.12963830081566 L 0 2848 " fill="none" stroke="black" stroke-width="0.1" style="vector-effect:non-scaling-stroke;" /></g><g><path d="M 0 0  L 2670.000000 0  c 0.0,94.33200573603021 -26.700000000000003,224.2960692493894 107.30450571919147,191.06940258272272&#10;c 37.65691638361655,-28.48 59.28002603724519,0 59.28002603724519,46.263930750610626&#10;c 0,63.083671806804176 -37.42090416019528,91.56367180680418 -112.23051408777087,63.083671806804176&#10;c -69.42,-28.48 -42.72,99.68 -54.35401766866579,174.24966152652917 c 0.0,97.8850363128755 -26.700000000000003,236.85512670056312 55.1795815066111,203.62846003389643&#10;c 41.83054499176969,-28.48 125.84336235050009,0 125.84336235050009,33.70487329943691&#10;c 0,69.1063840830549 -22.93012515815046,97.58638408305491 -105.62950426233667,69.1063840830549&#10;c -69.42,-28.48 -42.72,99.68 -75.39343959477452,168.22694925027844 c -0.0,66.25732703375235 26.700000000000003,227.5619972006288 -49.82028079904918,194.33533053396212&#10;c -100.90433787742079,-28.48 -105.50849216891305,0 -105.50849216891305,42.99800279937122&#10;c 0,49.96286040025515 23.1650521444929,78.44286040025516 48.5583157604235,49.96286040025515&#10;c 69.42,-28.48 42.72,99.68 106.77045720753874,187.3704729330782 c 0.0,127.0243615768785 -26.700000000000003,198.97094559515006 14.391349015426773,165.7442789284834&#10;c 153.09022694522582,-28.48 164.68961125545545,0 164.68961125545545,71.58905440484995&#10;c 0,43.0225496123351 -170.59134186038284,71.5025496123351 -175.52152323233932,43.0225496123351&#10;c -69.42,-28.48 -42.72,99.68 -3.55943703854291,194.31078372099824 c 0.0,128.1106346056171 -26.700000000000003,225.16863737004206 86.06902636436259,191.9419707033754&#10;c 31.307585896184545,-28.48 43.079013543907834,0 43.079013543907834,45.39136262995794&#10;c 0,43.051628423357016 -119.74653229663011,71.53162842335702 -121.89285060761941,43.051628423357016&#10;c -69.42,-28.48 -42.72,99.68 -7.255189300651011,194.28170490997633 c 0.0,112.09068853929377 -26.700000000000003,235.722913594435 74.03714270443685,202.4962469277683&#10;c 35.16856504959783,-28.48 64.1787946916776,0 64.1787946916776,34.83708640556503&#10;c 0,47.89715590723594 -57.44970661781503,76.37715590723595 -57.172736598538734,47.89715590723594&#10;c -69.42,-28.48 -42.72,99.68 -81.04320079757571,189.4361774260974 L 0 2848 " fill="none" stroke="black" stroke-width="0.1" style="vector-effect:non-scaling-stroke;" /></g><g><path d="M 0 0  L 3204.000000 0  c 0.0,120.58262752390786 -26.700000000000003,222.87502668063001 11.264347885642051,189.64836001396336&#10;c 107.64252715437995,-28.48 124.1861265333632,0 124.1861265333632,47.68497331936999&#10;c 0,75.52646391016813 -38.15643390195426,104.00646391016814 -72.83751032951392,75.52646391016813&#10;c -69.42,-28.48 -42.72,99.68 -62.61296408949133,161.8068694231652 c 0.0,50.644893026481896 -26.700000000000003,214.8244316390157 13.655699947621,181.59776497234904&#10;c 128.3582792325536,-28.48 163.23776587388346,0 163.23776587388346,55.7355683609843&#10;c 0,47.30503242127892 -49.13541364517769,75.78503242127893 -59.64163192932075,47.30503242127892&#10;c -69.42,-28.48 -42.72,99.68 -117.25183389218371,190.02830091205442 c -0.0,125.56450189149001 26.700000000000003,226.89582659798498 -1.0795469662512363,193.66915993131832&#10;c -85.94172407290337,-28.48 -177.39340767981295,0 -177.39340767981295,43.664173402015024&#10;c 0,67.73671807522405 102.67167335890062,96.21671807522405 163.38997287218035,67.73671807522405&#10;c 69.42,-28.48 42.72,99.68 15.08298177388383,169.5966152581093 c -0.0,96.27087523690643 26.700000000000003,216.17421548280453 -68.89481834129562,182.94754881613784&#10;c -74.0045260901092,-28.48 -92.28581834147217,0 -92.28581834147217,54.3857845171955&#10;c 0,61.80044929866804 58.24163586474225,90.28044929866805 58.561847799585905,61.80044929866804&#10;c 69.42,-28.48 42.72,99.68 102.61878888318188,175.5328840346653 c -0.0,60.54767407147004 26.700000000000003,216.54238231778345 -0.37924973694556163,183.3157156511168&#10;c -116.51012749306285,-28.48 -131.10280728381449,0 -131.10280728381449,54.01761768221655&#10;c 0,40.48181518254236 16.037761208369275,68.96181518254237 25.82592474682589,40.48181518254236&#10;c 69.42,-28.48 42.72,99.68 105.65613227393415,196.85151815079098 c 0.0,62.233108395918514 -26.700000000000003,198.06627400984314 93.70214239445885,164.83960734317648&#10;c 10.190154326718297,-28.48 42.02793764361532,0 42.02793764361532,72.49372599015686&#10;c 0,67.3469854419844 -61.702543638419506,95.8269854419844 -105.64730118367505,67.3469854419844&#10;c -69.42,-28.48 -42.72,99.68 -30.08277885439911,169.98634789134894 L 0 2848 " fill="none" stroke="black" stroke-width="0.1" style="vector-effect:non-scaling-stroke;" /></g><g><path d="M 0 0  L 3738.000000 0  c -0.0,76.4605248473884 26.700000000000003,199.56981154058258 -62.64072047321947,166.3431448739159&#10;c -26.993115429979877,-28.48 -80.75320930081426,0 -80.75320930081426,70.99018845941745&#10;c 0,35.89017957521659 29.75255230616773,64.3701795752166 38.12835065953453,35.89017957521659&#10;c 69.42,-28.48 42.72,99.68 105.26557911449919,201.44315375811675 c 0.0,51.60843595799265 -26.700000000000003,229.22768212413484 49.374900645652005,196.00101545746816&#10;c 74.13677546632002,-28.48 96.65949175757062,0 96.65949175757062,41.332317875865186&#10;c 0,61.58170606400293 -79.16327701941417,90.06170606400293 -83.16428647818638,61.58170606400293&#10;c -69.42,-28.48 -42.72,99.68 -62.87010592503624,175.7516272693304 c 0.0,25.134602938990255 -26.700000000000003,204.9425175162309 99.72540659554753,171.71585084956425&#10;c 14.84389436381273,-28.48 31.038315377901824,0 31.038315377901824,65.6174824837691&#10;c 0,69.5656158965875 -16.030128247149364,98.0456158965875 -69.52646029933848,69.5656158965875&#10;c -69.42,-28.48 -42.72,99.68 -61.23726167411087,167.76771743674584 c -0.0,31.89313714111442 26.700000000000003,222.79005175877893 -18.71291762731041,189.56338509211224&#10;c -66.01626450817282,-28.48 -121.14160874984114,0 -121.14160874984114,47.7699482412211&#10;c 0,47.95002740184 58.085677828881906,76.43002740184001 57.90208830186948,47.95002740184&#10;c 69.42,-28.48 42.72,99.68 81.95243807528207,189.38330593149334 c -0.0,112.47527773697756 26.700000000000003,199.51372819194302 -98.01603711186951,166.28706152527636&#10;c -21.156121358762856,-28.48 -66.95788175291366,0 -66.95788175291366,71.04627180805699&#10;c 0,60.44340808042941 122.84058699195317,88.92340808042941 139.3339739302197,60.44340808042941&#10;c 69.42,-28.48 42.72,99.68 25.63994493456346,176.88992525290394 c -0.0,58.04563339017023 26.700000000000003,202.2169096204782 -51.64521852502088,168.9902429538115&#10;c -18.243064032111224,-28.48 -84.90685811229895,0 -84.90685811229895,68.34309037952184&#10;c 0,48.51982712969024 21.831285241439904,76.99982712969025 23.392164804567813,48.51982712969024&#10;c 69.42,-28.48 42.72,99.68 113.15991183275202,188.8135062036431 L 0 2848 " fill="none" stroke="black" stroke-width="0.1" style="vector-effect:non-scaling-stroke;" /></g></g><g><g><path d="M 0 0  L 0 474.666667  c 120.0337178558433,0.0 257.2850328394241,-23.733333333333334 219.90503283942408,103.48645088924067&#10;c -32.04,18.710922080313445 0,22.335900211381144 47.09496716057592,22.335900211381144&#10;c 81.54272551830798,0 113.58272551830797,-59.15094879808281 81.54272551830798,-77.21941841890407&#10;c -32.04,-61.70666666666667 112.14,-37.973333333333336 185.45727448169202,-48.602932681717746 c 112.29846213046628,0.0 230.26076505836107,-23.733333333333334 192.88076505836108,50.912749751815774&#10;c -32.04,65.0079054369304 0,91.6924612538617 74.11923494163892,91.6924612538617&#10;c 73.95189565308931,0 105.9918956530893,-36.93187182196643 73.95189565308931,-69.28907551408403&#10;c -32.04,-61.70666666666667 112.14,-37.973333333333336 193.0481043469107,-73.31613549159343 c 154.6535732711685,-0.0 238.41006344159885,23.733333333333334 201.03006344159886,-24.83553199125292&#10;c -32.04,-63.593969243173696 0,-126.40666350169239 65.96993655840114,-126.40666350169239&#10;c 64.62802793635223,0 96.66802793635222,68.84711186152838 64.62802793635223,81.86055059437511&#10;c -32.04,61.70666666666667 112.14,37.973333333333336 202.37197206364777,69.3816448985702 c 49.88975212639591,-0.0 228.4045138166584,23.733333333333334 191.0245138166584,-68.12554009019317&#10;c -32.04,-62.58669014087676 0,-77.39546121906861 75.97548618334159,-77.39546121906861&#10;c 50.94236209577525,0 82.98236209577524,16.99956338589036 50.94236209577525,52.526731816528596&#10;c -32.04,61.70666666666667 112.14,37.973333333333336 216.05763790422475,92.99426949273318 c 110.49747815345445,-0.0 245.74738227392632,23.733333333333334 208.36738227392632,-0.2535280470448549&#10;c -32.04,-56.48967040190935 0,-120.95287797541205 58.632617726073676,-120.95287797541205&#10;c 83.60962921448436,0 115.64962921448435,35.202224441202475 83.60962921448436,53.49607354032936&#10;c -32.04,61.70666666666667 112.14,37.973333333333336 183.39037078551564,67.71033248212754 c 68.87776637613166,-0.0 260.81303856962467,23.733333333333334 223.43303856962467,-94.42879269810945&#10;c -32.04,-11.592385106827322 0,-51.727795696148746 43.56696143037533,-51.727795696148746&#10;c 43.99371935222041,0 76.0337193522204,52.5258074515149 43.99371935222041,114.03389583653943&#10;c -32.04,61.70666666666667 112.14,37.973333333333336 223.0062806477796,32.122692557718764 c 67.96262504562442,0.0 224.32875601702958,-23.733333333333334 186.94875601702958,89.7625615718088&#10;c -32.04,18.818078059497427 0,34.80054885322319 80.05124398297042,34.80054885322319&#10;c 65.99643242773817,0 98.03643242773816,-97.80910363863867 65.99643242773817,-110.10538463484042&#10;c -32.04,-61.70666666666667 112.14,-37.973333333333336 201.00356757226183,-14.457725790191574 c 154.71338588386905,0.0 246.19729756145716,-23.733333333333334 208.81729756145717,29.690791605602193&#10;c -32.04,44.9482149457252 0,109.8022217098738 58.18270243854283,109.8022217098738&#10;c 56.580682302046284,0 88.62068230204628,-85.12192945016373 56.580682302046284,-94.88415935309274&#10;c -32.04,-61.70666666666667 112.14,-37.973333333333336 210.41931769795372,-44.60885396238325 L 4272 0 " fill="none" stroke="black" stroke-width="0.1" style="vector-effect:non-scaling-stroke;" /></g><g><path d="M 0 0  L 0 949.333333  c 142.0581040301148,-0.0 261.4638206042573,23.733333333333334 224.08382060425728,-30.90124215786665&#10;c -32.04,-108.6674905617861 0,-117.40192360654518 42.91617939574272,-117.40192360654518&#10;c 63.67759800667915,0 95.71759800667914,37.32924377234839 63.67759800667915,107.37335363120582&#10;c -32.04,61.70666666666667 112.14,37.973333333333336 203.32240199332085,40.92981213320601 c 117.42850826444116,-0.0 240.15702545108203,23.733333333333334 202.77702545108204,-100.94696309138389&#10;c -32.04,-11.94570503967063 0,-13.591821000448888 64.22297454891796,-13.591821000448888&#10;c 79.66372786670775,0 111.70372786670774,16.757346129662643 79.66372786670775,67.28836789521563&#10;c -32.04,61.70666666666667 112.14,37.973333333333336 187.33627213329225,47.25041619661715 c 30.17948941576019,-0.0 232.6008954052386,23.733333333333334 195.2208954052386,-47.16823761429563&#10;c -32.04,-83.34001391611709 0,-101.09962121734867 71.7791045947614,-101.09962121734867&#10;c 43.6951878596949,0 75.73518785969489,40.94162094811786 43.6951878596949,43.88064365322754&#10;c -32.04,61.70666666666667 112.14,37.973333333333336 223.3048121403051,104.38721517841677 c 46.046462622848814,-0.0 226.6382918936456,23.733333333333334 189.2582918936456,-13.100781839938538&#10;c -32.04,-93.85785137269846 0,-141.0181416010672 77.7417081063544,-141.0181416010672&#10;c 63.46249925430368,0 95.50249925430367,29.94155286131614 63.46249925430368,114.49299239835511&#10;c -32.04,61.70666666666667 112.14,37.973333333333336 203.53750074569632,39.62593104265065 c 95.93805723260724,-0.0 247.36846389797935,23.733333333333334 209.98846389797936,-16.46018430563422&#10;c -32.04,-54.044761616755146 0,-123.43919399524665 57.01153610202064,-123.43919399524665&#10;c 62.2751693738478,0 94.3151693738478,124.53054608764491 62.2751693738478,127.4448520241609&#10;c -32.04,61.70666666666667 112.14,37.973333333333336 204.7248306261522,12.454526276719974 c 45.97321702270925,-0.0 220.6704888272268,23.733333333333334 183.2904888272268,-58.104296699927616&#10;c -32.04,-23.627782416789533 0,-56.80769030880528 83.7095111727732,-56.80769030880528&#10;c 50.28351986966544,0 82.32351986966543,74.44105169519918 50.28351986966544,94.88429332425733&#10;c -32.04,61.70666666666667 112.14,37.973333333333336 216.71648013033456,20.027693684475565 c 56.398266829912906,-0.0 251.87112561829983,23.733333333333334 214.49112561829983,-48.73703975678016&#10;c -32.04,-53.23372401917482 0,-84.14934144869325 52.50887438170017,-84.14934144869325&#10;c 74.85283771030447,0 106.89283771030446,39.77893540884586 74.85283771030447,69.5650902617819&#10;c -32.04,61.70666666666667 112.14,37.973333333333336 192.14716228969553,63.32129094369151 c 109.89162738867192,0.0 232.10590211053605,-23.733333333333334 194.72590211053605,3.169540112378744&#10;c -32.04,49.495855527085396 0,112.06439213251227 72.27409788946395,112.06439213251227&#10;c 67.46876764086119,0 99.50876764086118,-23.707595350401828 67.46876764086119,-71.8030588324067&#10;c -32.04,-61.70666666666667 112.14,-37.973333333333336 199.5312323591388,-43.4308734124843 L 4272 0 " fill="none" stroke="black" stroke-width="0.1" style="vector-effect:non-scaling-stroke;" /></g><g><path d="M 0 0  L 0 1424.000000  c 69.5329267321133,-0.0 262.57779965534604,23.733333333333334 225.19779965534602,-51.566312845055336&#10;c -32.04,-76.40504107824833 0,-84.1134965212807 41.80220034465398,-84.1134965212807&#10;c 79.46774529743226,0 111.50774529743225,45.122522132739704 79.46774529743226,144.77389453637835&#10;c -32.04,61.70666666666667 112.14,37.973333333333336 187.53225470256774,-9.09408517004232 c 59.094702103323016,0.0 227.67280387698725,-23.733333333333334 190.29280387698725,93.13749735601742&#10;c -32.04,52.49358015927585 0,56.90817785558123 76.70719612301275,56.90817785558123&#10;c 64.00991148337636,0 96.04991148337635,-63.03997658196635 64.00991148337636,-130.8398668535274&#10;c -32.04,-61.70666666666667 112.14,-37.973333333333336 202.99008851662364,-19.205808358071238 c 45.91765677769111,0.0 257.0419154181425,-23.733333333333334 219.66191541814248,48.22021008753987&#10;c -32.04,100.21345712592624 0,99.56777149107731 47.338084581857515,99.56777149107731&#10;c 38.10928651730222,0 70.14928651730222,-58.80765912197507 38.10928651730222,-143.04208958416092&#10;c -32.04,-61.70666666666667 112.14,-37.973333333333336 228.89071348269778,-4.745891994456258 c 93.76246341440438,0.0 230.53530613126907,-23.733333333333334 193.15530613126907,-2.1498513887778015&#10;c -32.04,33.93639111656823 0,123.67983977751777 73.84469386873093,123.67983977751777&#10;c 49.02695726928067,0 81.06695726928066,-63.51990423913041 49.02695726928067,-86.96767438111775&#10;c -32.04,-61.70666666666667 112.14,-37.973333333333336 217.97304273071933,-34.56231400762222 c 113.53851499019828,-0.0 253.85973876721667,23.733333333333334 216.47973876721667,-40.236006492138756&#10;c -32.04,-22.769212031030822 0,-105.62405446272223 50.52026123278333,-105.62405446272223&#10;c 74.67023944581757,0 106.71023944581756,42.10089299160173 74.67023944581757,53.42673202130953&#10;c -32.04,61.70666666666667 112.14,37.973333333333336 192.32976055418243,92.43332893355145 c 75.65054246385432,0.0 263.4393562744801,-23.733333333333334 226.05935627448008,29.391711144538817&#10;c -32.04,85.43478718461257 0,93.30400460157153 40.94064372551992,93.30400460157153&#10;c 82.53794491104247,0 114.57794491104247,-31.016718035139007 82.53794491104247,-75.78720601936931&#10;c -32.04,-61.70666666666667 112.14,-37.973333333333336 184.46205508895753,-46.908509726741045 c 51.536999147959385,0.0 243.15602027677392,-23.733333333333334 205.77602027677392,22.973349377188875&#10;c -32.04,83.78693435436303 0,94.31826533501203 61.22397972322608,94.31826533501203&#10;c 49.791433239997104,0 81.8314332399971,-16.433736981652974 49.791433239997104,-22.579192619613437&#10;c -32.04,-61.70666666666667 112.14,-37.973333333333336 217.2085667600029,-94.71242209258746 c 117.62155786333331,0.0 234.1956348059563,-23.733333333333334 196.8156348059563,100.14139898571852&#10;c -32.04,28.209848414485798 0,43.23341815513021 70.18436519404369,43.23341815513021&#10;c 46.43985408991642,0 78.47985408991642,-61.82409241669813 46.43985408991642,-70.06327277436179&#10;c -32.04,-61.70666666666667 112.14,-37.973333333333336 220.56014591008358,-73.31154436648694 L 4272 0 " fill="none" stroke="black" stroke-width="0.1" style="vector-effect:non-scaling-stroke;" /></g><g><path d="M 0 0  L 0 1898.666667  c 147.83755393606515,-0.0 263.32329876295523,23.733333333333334 225.9432987629552,-60.91537048532371&#10;c -32.04,-55.11074458823114 0,-96.52720242161791 41.05670123704479,-96.52720242161791&#10;c 73.25377263489213,0 105.29377263489212,16.81816379027229 73.25377263489213,54.9355852390875&#10;c -32.04,61.70666666666667 112.14,37.973333333333336 193.74622736510787,102.50698766785412 c 95.21754896465562,0.0 261.58474027044025,-23.733333333333334 224.20474027044023,51.394422229932765&#10;c -32.04,58.652972181014796 0,65.81025789771081 42.795259729559774,65.81025789771081&#10;c 58.22039859587369,0 90.26039859587368,-55.58956226483724 58.22039859587369,-95.98702170761023&#10;c -32.04,-61.70666666666667 112.14,-37.973333333333336 208.7796014041263,-21.217658420033345 c 89.0554872925063,0.0 221.72597463402582,-23.733333333333334 184.34597463402582,10.544100129110626&#10;c -32.04,72.05325153854679 0,128.4661660094814 82.65402536597418,128.4661660094814&#10;c 85.0109592894674,0 117.05095928946739,-111.31427285711992 85.0109592894674,-127.71664049612528&#10;c -32.04,-61.70666666666667 112.14,-37.973333333333336 181.9890407105326,-11.293625642466765 c 123.85583194952034,0.0 265.67563699067296,-23.733333333333334 228.29563699067293,67.88504729104825&#10;c -32.04,17.03166730120995 0,47.71009728450616 38.70436300932707,47.71009728450616&#10;c 38.00242320932034,0 70.04242320932033,-104.27587870604425 38.00242320932034,-112.5347559594466&#10;c -32.04,-61.70666666666667 112.14,-37.973333333333336 228.99757679067966,-3.060388616107815 c 141.7557691128473,-0.0 260.1636404905217,23.733333333333334 222.7836404905217,-27.857005497936736&#10;c -32.04,-74.95725903712972 0,-102.86351305013633 44.21635950947831,-102.86351305013633&#10;c 73.61441150607425,0 105.65441150607424,54.195628053689646 73.61441150607425,116.06883472129485&#10;c -32.04,61.70666666666667 112.14,37.973333333333336 193.38558849392575,14.651683826778225 c 105.83226487931877,-0.0 241.6187434678219,23.733333333333334 204.2387434678219,-8.377243838244404&#10;c -32.04,-95.29306487244178 0,-106.41351410477793 62.761256532178095,-106.41351410477793&#10;c 45.161326872187885,0 77.20132687218788,67.21254502260471 45.161326872187885,123.41720531361216&#10;c -32.04,61.70666666666667 112.14,37.973333333333336 221.83867312781211,-8.62644737058983 c 123.64674837716,0.0 259.1143310516419,-23.733333333333334 221.7343310516419,19.595003985195678&#10;c -32.04,49.12173588976536 0,103.4594259150795 45.2656689483581,103.4594259150795&#10;c 43.07400015309565,0 75.11400015309565,-21.344117455966696 43.07400015309565,-34.676437659864206&#10;c -32.04,-61.70666666666667 112.14,-37.973333333333336 223.92599984690435,-88.37799224041098 c 100.91058442151552,0.0 223.2111936050799,-23.733333333333334 185.8311936050799,69.51193234070891&#10;c -32.04,22.5509752753132 0,55.71739714439141 81.1688063949201,55.71739714439141&#10;c 43.00498124007305,0 75.04498124007304,-9.140645656344029 43.00498124007305,-39.37198557558537&#10;c -32.04,-61.70666666666667 112.14,-37.973333333333336 223.99501875992695,-85.85734390951495 L 4272 0 " fill="none" stroke="black" stroke-width="0.1" style="vector-effect:non-scaling-stroke;" /></g><g><path d="M 0 0  L 0 2373.333333  c 98.12109102865266,-0.0 226.67915442184903,23.733333333333334 189.29915442184904,-10.206886414486371&#10;c -32.04,-97.86554508081377 0,-138.75406024371944 77.70084557815096,-138.75406024371944&#10;c 60.87963745689842,0 92.91963745689841,48.541176619472395 60.87963745689842,121.18137563763673&#10;c -32.04,61.70666666666667 112.14,37.973333333333336 206.12036254310158,27.77957102056908 c 120.63806423919998,-0.0 257.41538585491196,23.733333333333334 220.03538585491194,-42.59688482201266&#10;c -32.04,-82.87515213191979 0,-88.63838878789315 46.96461414508806,-88.63838878789315&#10;c 40.35741501210367,0 72.39741501210366,110.12061961934513 40.35741501210367,138.71780932530336&#10;c -32.04,61.70666666666667 112.14,37.973333333333336 226.64258498789633,-7.482535715397546 c 86.47231286980181,-0.0 238.8072633933306,23.733333333333334 201.4272633933306,-2.5556449881373573&#10;c -32.04,-76.01865086891151 0,-150.9820174828982 65.5727366066694,-150.9820174828982&#10;c 64.07453842637699,0 96.11453842637698,86.39527741130969 64.07453842637699,143.30854540489455&#10;c -32.04,61.70666666666667 112.14,37.973333333333336 202.925461573623,10.229117066140986 c 134.49102390666232,0.0 258.2771895330176,-23.733333333333334 220.89718953301758,-1.0725912466484526&#10;c -32.04,90.85135815264756 0,141.79330566796222 46.10281046698242,141.79330566796222&#10;c 85.3047778373761,0 117.34477783737609,-50.225032411874636 85.3047778373761,-53.9804290461165&#10;c -32.04,-61.70666666666667 112.14,-37.973333333333336 181.6952221626239,-86.74028537519727 c 102.6449814716195,0.0 266.9096289451022,-23.733333333333334 229.5296289451022,-5.5742615264969775&#10;c -32.04,121.21899115438171 0,149.5507183475198 37.47037105489781,149.5507183475198&#10;c 39.77402107873576,0 71.81402107873575,-49.211090058360185 39.77402107873576,-72.76796580919616&#10;c -32.04,-61.70666666666667 112.14,-37.973333333333336 227.22597892126424,-71.20849101182667 c 145.37137766985268,0.0 224.3706166829531,-23.733333333333334 186.99061668295312,18.927121643653038&#10;c -32.04,82.9087884329148 0,125.2966926398066 80.00938331704688,125.2966926398066&#10;c 52.417191578202505,0 84.4571915782025,-116.20349680520313 52.417191578202505,-126.41279666758501&#10;c -32.04,-61.70666666666667 112.14,-37.973333333333336 214.5828084217975,-17.81101761587462 c 67.61769938473458,0.0 258.62183537917576,-23.733333333333334 221.24183537917574,12.197922622106665&#10;c -32.04,35.99986681973702 0,121.82638722109408 45.75816462082426,121.82638722109408&#10;c 72.57360937054216,0 104.61360937054215,-21.105281147046426 72.57360937054216,-48.84635041250296&#10;c -32.04,-61.70666666666667 112.14,-37.973333333333336 194.42639062945784,-85.17795943069778 c 117.95774974643356,0.0 230.04212538013945,-23.733333333333334 192.66212538013946,93.95983685877275&#10;c -32.04,26.13495996165469 0,35.08580255737576 74.33787461986054,35.08580255737576&#10;c 45.08380691607658,0 77.12380691607657,-12.012435179105756 45.08380691607658,-44.86025762542292&#10;c -32.04,-61.70666666666667 112.14,-37.973333333333336 221.91619308392342,-84.18538179072559 L 4272 0 " fill="none" stroke="black" stroke-width="0.1" style="vector-effect:non-scaling-stroke;" /></g></g></svg>