<svg baseProfile="full" height="1334" preserveAspectRatio="none" shape-rendering="geometricPrecision" version="1.1" viewBox="0,0,2000,1334" width="2000" xmlns="http://www.w3.org/2000/svg" xmlns:ev="http://www.w3.org/2001/xml-events" xmlns:xlink="http://www.w3.org/1999/xlink"><title>Jigsaw puzzle piece clips</title><desc>Created with the piecemaker. Piece count: 40</desc><defs/><g><g><rect fill="white" height="1334" width="2000" x="0" y="0"/></g></g><g><g><path d="M 0 0  L 250.000000 0  c 0.0,34.70304554433514 -12.5,122.09934371827492 37.69502387884065,103.42334371827492
c 25.180042444006098,-16.008 33.44783571094724,0 33.44783571094724,29.976656281725084
c 0,28.32492191157945 -42.98411659953227,44.33292191157945 -71.92271721943533,28.32492191157945
c -32.5,-16.008 -20.0,56.028 0.779857629647438,105.07507808842055 c -0.0,19.084380815917097 12.5,117.89610999903637 -4.443392855780332,99.22010999903637
c -41.67414084708451,-16.008 -68.82377366691819,0 -68.82377366691819,34.17989000096364
c 0,30.22888266577067 29.674294263799286,46.236882665770665 29.842886503047247,30.22888266577067
c 32.5,-16.008 20.0,56.028 43.42428001965127,103.17111733422934 c 0.0,44.9866666156323 -12.5,110.49050990969401 36.32351231456517,91.81450990969401
c 17.955067356325017,-16.008 27.57334966149474,0 27.57334966149474,41.585490090305996
c 0,26.245649499285975 -31.804304847331583,42.25364949928597 -61.50186188624328,26.245649499285975
c -32.5,-16.008 -20.0,56.028 -2.3950000898166266,107.15435050071403 c -0.0,60.429316871966954 12.5,109.42223825764147 -47.67216533059919,90.74623825764147
c -6.4342214735195356,-16.008 -18.818175320024658,0 -18.818175320024658,42.65376174235854
c 0,32.85180510168729 30.957043478095045,48.859805101687286 69.4176298950767,32.85180510168729
c 32.5,-16.008 20.0,56.028 -2.927289244452851,100.54819489831272 c 0.0,31.33519831424469 -12.5,121.85261413475921 53.8169600194424,103.1766141347592
c 12.85059742318557,-16.008 25.361753793516776,0 25.361753793516776,30.2233858652408
c 0,40.61214584779742 -24.066743561717395,56.62014584779742 -50.99668454086547,40.61214584779742
c -32.5,-16.008 -20.0,56.028 -28.1820292720937,92.78785415220258 L 0 1334 " fill="none" stroke="black" stroke-width="0.1" style="vector-effect:non-scaling-stroke;"/></g><g><path d="M 0 0  L 500.000000 0  c 0.0,71.76194614999123 -12.5,109.95278209064941 -4.929283151890369,91.2767820906494
c 38.405284449849695,-16.008 67.0543366928638,0 67.0543366928638,42.1232179093506
c 0,23.894594420826337 -37.30088276876372,39.90259442082633 -42.01624734006901,23.894594420826337
c -32.5,-16.008 -20.0,56.028 -20.108806200904425,109.50540557917367 c -0.0,38.54851101735785 12.5,128.72272813434236 -25.819779839772366,110.04672813434236
c -47.386147699982935,-16.008 -51.3852070233815,0 -51.3852070233815,23.353271865657646
c 0,33.63952042660483 31.953953733814043,49.64752042660483 64.05616500275038,33.63952042660483
c 32.5,-16.008 20.0,56.028 13.148821860403487,99.76047957339517 c 0.0,16.339824104285448 -12.5,132.27192925790638 8.310433335124308,113.59592925790638
c 16.737763798619127,-16.008 52.859073761521195,0 52.859073761521195,19.80407074209363
c 0,20.17913177747556 -10.501104996955053,36.18713177747556 -31.509028171993148,20.17913177747556
c -32.5,-16.008 -20.0,56.028 -29.660478924652356,113.22086822252444 c 0.0,20.585254989210448 -12.5,109.48712090072588 -0.4045793097769224,90.81112090072588
c 38.02711209000124,-16.008 65.12225764630018,0 65.12225764630018,42.58887909927412
c 0,41.24043159968477 -10.363065769541116,57.248431599684764 -22.900040777755088,41.24043159968477
c -32.5,-16.008 -20.0,56.028 -41.817637558768176,92.15956840031524 c -0.0,75.69358315543894 12.5,133.16516024627128 -3.0808581127965495,114.48916024627128
c -40.86003515874372,-16.008 -65.16236565542229,0 -65.16236565542229,18.910839753728723
c 0,27.702973710196005 29.409774582580848,43.710973710196 49.758945441983656,27.702973710196005
c 32.5,-16.008 20.0,56.028 18.484278326235184,105.697026289804 L 0 1334 " fill="none" stroke="black" stroke-width="0.1" style="vector-effect:non-scaling-stroke;"/></g><g><path d="M 0 0  L 750.000000 0  c -0.0,58.81047873360988 12.5,120.92268339905998 -8.477294489031895,102.24668339905998
c -51.725594214614105,-16.008 -61.038790141980854,0 -61.038790141980854,31.15331660094003
c 0,35.756632865266994 9.544300352151218,51.76463286526699 15.737868425721274,35.756632865266994
c 32.5,-16.008 20.0,56.028 53.77821620529147,97.64336713473301 c 0.0,32.75197770302967 -12.5,116.3525395055549 29.95513365821556,97.6765395055549
c 39.87656131981402,-16.008 50.50207901781785,0 50.50207901781785,35.723460494445106
c 0,37.98803942994974 -53.057154427607294,53.99603942994973 -73.1608583187006,37.98803942994974
c -32.5,-16.008 -20.0,56.028 -7.2963543573328025,95.41196057005027 c 0.0,48.21601997177756 -12.5,121.16881528746897 -4.106497523167543,102.49281528746897
c 33.7860799233034,-16.008 88.09054776621284,0 88.09054776621284,30.907184712531034
c 0,35.63895758678706 -16.738241264945056,51.64695758678705 -67.97949738284949,35.63895758678706
c -32.5,-16.008 -20.0,56.028 -16.0045528601958,97.76104241321295 c -0.0,58.79901843615511 12.5,125.55271943993976 -10.085020887579375,106.87671943993976
c -38.417935907313144,-16.008 -63.55750659333805,0 -63.55750659333805,26.523280560060243
c 0,29.201599492736023 17.378305319698736,45.20959949273602 32.41056024608222,29.201599492736023
c 32.5,-16.008 20.0,56.028 41.2319672348352,104.19840050726398 c -0.0,18.129427533934997 12.5,124.85336011517974 -41.92208082910911,106.17736011517974
c -15.364063747811088,-16.008 -26.29790008042564,0 -26.29790008042564,27.222639884820268
c 0,31.69476692634342 19.885531885462093,47.702766926343415 39.03015867189657,31.69476692634342
c 32.5,-16.008 20.0,56.028 29.189822237638182,101.70523307365659 L 0 1334 " fill="none" stroke="black" stroke-width="0.1" style="vector-effect:non-scaling-stroke;"/></g><g><path d="M 0 0  L 1000.000000 0  c -0.0,29.694607658003058 12.5,112.43578301247501 -5.278156829124401,93.75978301247501
c -36.21040583891401,-16.008 -61.448593385357185,0 -61.448593385357185,39.640216987524994
c 0,26.83991777699461 17.519559004014475,42.847917776994606 32.61792622552108,26.83991777699461
c 32.5,-16.008 20.0,56.028 34.1088239889605,106.5600822230054 c 0.0,20.812618893695586 -12.5,120.91590507633771 9.826884203991956,102.2399050763377
c 45.28076856654058,-16.008 60.02968965335249,0 60.02968965335249,31.1600949236623
c 0,40.813558642285216 -5.715285112581746,56.82155864228521 -16.832876434172043,40.813558642285216
c -32.5,-16.008 -20.0,56.028 -53.0236974231724,92.58644135771479 c -0.0,71.15950920228744 12.5,110.92948114431745 -52.16733938825488,92.25348114431745
c -7.299582026283858,-16.008 -8.361939619082662,0 -8.361939619082662,41.14651885568256
c 0,35.29042745390521 8.712165509623,51.298427453905205 20.921586983440356,35.29042745390521
c 32.5,-16.008 20.0,56.028 39.60769202389719,98.1095725460948 c 0.0,48.31479694053632 -12.5,117.15968341833573 52.32038895034206,98.48368341833573
c 9.650040270768168,-16.008 22.742301029767326,0 22.742301029767326,34.916316581664276
c 0,22.464078141327462 -17.88712585404797,38.47207814132746 -25.816365385485575,22.464078141327462
c -32.5,-16.008 -20.0,56.028 -49.24632459462381,110.93592185867254 c 0.0,26.947582883010355 -12.5,132.88524908648918 53.960061877656344,114.20924908648917
c 4.640981680562837,-16.008 7.562526448365325,0 7.562526448365325,19.19075091351084
c 0,20.508395741551084 -6.842976350368822,36.51639574155108 -23.56083666202374,20.508395741551084
c -32.5,-16.008 -20.0,56.028 -37.96175166399793,112.89160425844892 L 0 1334 " fill="none" stroke="black" stroke-width="0.1" style="vector-effect:non-scaling-stroke;"/></g><g><path d="M 0 0  L 1250.000000 0  c 0.0,71.17985852367275 -12.5,114.59153591350942 35.4902556968917,95.91553591350942
c 17.015146027841425,-16.008 46.68704386128213,0 46.68704386128213,37.48446408649059
c 0,36.38377023072769 -21.484759058393955,52.39177023072769 -34.35501132405033,36.38377023072769
c -32.5,-16.008 -20.0,56.028 -47.8222882341235,97.01622976927231 c -0.0,26.71070822201002 12.5,117.96898012225012 -0.7117232289205084,99.29298012225011
c -35.03171189354051,-16.008 -79.13134615741598,0 -79.13134615741598,34.10701987774989
c 0,41.17404898326217 50.051787055224985,57.18204898326216 76.16187654042318,41.17404898326217
c 32.5,-16.008 20.0,56.028 3.6811928459133014,92.22595101673784 c 0.0,24.32271812977461 -12.5,109.43755972942681 48.268752793542646,90.7615597294268
c 7.023912785044583,-16.008 19.36453309612213,0 19.36453309612213,42.6384402705732
c 0,28.169789803384532 -42.09930340203802,44.17778980338453 -60.89529608137887,28.169789803384532
c -32.5,-16.008 -20.0,56.028 -6.737989808285903,105.23021019661547 c -0.0,48.18390655872941 12.5,132.12964251526535 -39.217514627101814,113.45364251526536
c -6.515357130891478,-16.008 -23.314087557937896,0 -23.314087557937896,19.946357484734648
c 0,23.836724757134817 8.44664142969461,39.84472475713481 26.07101195625932,23.836724757134817
c 32.5,-16.008 20.0,56.028 36.46059022878039,109.56327524286519 c 0.0,67.4529864304717 -12.5,110.18110650374548 7.705194277058187,91.50510650374548
c 53.507631708984945,-16.008 73.44492528540891,0 73.44492528540891,41.894893496254525
c 0,34.40264683032251 -64.19997331726424,50.410646830322506 -76.88074132028183,34.40264683032251
c -32.5,-16.008 -20.0,56.028 -4.269378242185269,98.9973531696775 L 0 1334 " fill="none" stroke="black" stroke-width="0.1" style="vector-effect:non-scaling-stroke;"/></g><g><path d="M 0 0  L 1500.000000 0  c 0.0,35.783764701084195 -12.5,109.99625827205199 49.695160990446496,91.32025827205199
c 10.360092074922159,-16.008 10.618372235858729,0 10.618372235858729,42.07974172794802
c 0,31.190895295169554 -15.998358306534112,47.19889529516955 -42.77351023421605,31.190895295169554
c -32.5,-16.008 -20.0,56.028 -17.540022992089177,102.20910470483045 c 0.0,56.12783411366606 -12.5,126.05429132750224 54.09123162104693,107.37829132750224
c 7.192607679772319,-16.008 11.58236898253574,0 11.58236898253574,26.021708672497766
c 0,39.238066204567275 -13.68797957023705,55.24606620456727 -28.520978748498955,39.238066204567275
c -32.5,-16.008 -20.0,56.028 -37.152621855083716,94.16193379543273 c 0.0,33.85483165201765 -12.5,113.86159107396617 6.937392578933179,95.18559107396617
c 47.47166066181284,-16.008 68.71995402817736,0 68.71995402817736,38.21440892603384
c 0,35.869307717362574 -32.77648393127331,51.87730771736257 -61.58850233390244,35.869307717362574
c -32.5,-16.008 -20.0,56.028 -14.0688442732081,97.53069228263743 c 0.0,20.88249949391769 -12.5,112.26560953812202 42.27472370366593,93.58960953812202
c 8.288350469428574,-16.008 22.513026031627845,0 22.513026031627845,39.81039046187799
c 0,23.549033336908167 -42.34777868569421,39.55703333690816 -53.204758733270296,23.549033336908167
c -32.5,-16.008 -20.0,56.028 -11.582991002023476,109.85096666309184 c -0.0,22.166230307964597 12.5,127.57367011132952 -49.712169168962255,108.89767011132952
c -8.090120968488765,-16.008 -18.942625175828702,0 -18.942625175828702,24.502329888670488
c 0,34.07712714207992 21.18887345716978,50.08512714207991 25.081544822670082,34.07712714207992
c 32.5,-16.008 20.0,56.028 43.573249522120875,99.32287285792009 L 0 1334 " fill="none" stroke="black" stroke-width="0.1" style="vector-effect:non-scaling-stroke;"/></g><g><path d="M 0 0  L 1750.000000 0  c 0.0,52.896976083409506 -12.5,116.374129596337 -3.75080244496991,97.698129596337
c 39.700440135433546,-16.008 75.23976235311976,0 75.23976235311976,35.70187040366301
c 0,21.324985151585906 -51.65283707971477,37.3329851515859 -71.42834601579072,21.324985151585906
c -32.5,-16.008 -20.0,56.028 -0.06061389235912884,112.0750148484141 c -0.0,64.93254769593594 12.5,124.2548053503779 -35.01270841994268,105.57880535037789
c -19.05449177469507,-16.008 -26.069346922279408,0 -26.069346922279408,27.821194649622115
c 0,42.640704380486426 26.05127764247524,58.64870438048642 62.49372211480402,42.640704380486426
c 32.5,-16.008 20.0,56.028 -1.4116667725819312,90.75929561951358 c 0.0,29.245318940655206 -12.5,114.44954855617253 6.58064455883806,95.77354855617253
c 28.43978879398291,-16.008 60.514874403080455,0 60.514874403080455,37.62645144382748
c 0,22.56057772587866 -17.01133629722744,38.568577725878654 -21.653356681428612,22.56057772587866
c -32.5,-16.008 -20.0,56.028 -45.4421622804899,110.83942227412135 c -0.0,20.786318067919144 12.5,126.29992135372301 -29.735911574584367,107.623921353723
c -38.00575991015999,-16.008 -53.3740410806552,0 -53.3740410806552,25.776078646277
c 0,21.910332293109747 41.57809489578976,37.91833229310974 67.27306824264687,21.910332293109747
c 32.5,-16.008 20.0,56.028 15.836884412592696,111.48966770689026 c 0.0,56.69141106030235 -12.5,122.80713715857902 18.539695033248407,104.13113715857902
c 13.150870507804713,-16.008 61.31830221433695,0 61.31830221433695,29.268862841420983
c 0,27.213699454828998 -25.03116099554076,43.22169945482899 -83.66390634430864,27.213699454828998
c -32.5,-16.008 -20.0,56.028 3.8059090967232834,106.18630054517101 L 0 1334 " fill="none" stroke="black" stroke-width="0.1" style="vector-effect:non-scaling-stroke;"/></g></g><g><g><path d="M 0 0  L 0 266.800000  c 59.38286078322837,0.0 108.10654857482149,-13.340000000000002 90.60654857482149,28.648879437702956
c -15.0,14.584498647487477 0,53.83210558831509 34.39345142517851,53.83210558831509
c 19.30895418527399,0 34.30895418527399,-44.80943181257588 19.30895418527399,-45.876128883513054
c -15.0,-34.684000000000005 52.5,-21.344 105.69104581472601,-36.60485614250499 c 61.43610384595277,0.0 110.63537491570727,-13.340000000000002 93.13537491570727,38.130484841168915
c -15.0,21.83611464180439 0,45.70266043830092 31.864625084292726,45.70266043830092
c 33.49976121033424,0 48.49976121033424,-49.20841866691686 33.49976121033424,-56.518258441230486
c -15.0,-34.684000000000005 52.5,-21.344 91.50023878966576,-27.314886838239346 c 37.502594894226206,0.0 123.35081971019355,-13.340000000000002 105.85081971019355,23.57475823000161
c -15.0,13.648845916940774 0,51.055003809778924 19.149180289806452,51.055003809778924
c 27.474824652402418,0 42.47482465240242,-62.655309230419064 27.474824652402418,-67.87431169119633
c -15.0,-34.684000000000005 52.5,-21.344 97.52517534759758,-6.755450348584205 c 47.26716943227251,0.0 115.77561106026376,-13.340000000000002 98.27561106026376,48.208927016324594
c -15.0,18.254016936498306 0,37.52630854336127 26.724388939736244,37.52630854336127
c 24.34061841831027,0 39.34061841831027,-21.17546948381352 24.34061841831027,-41.25738752177065
c -15.0,-34.684000000000005 52.5,-21.344 100.65938158168973,-44.47784803791521 c 31.27699770965619,-0.0 123.61188273359312,13.340000000000002 106.11188273359312,-24.725922106326962
c -15.0,-26.874030356783425 0,-42.63322257320155 18.88811726640688,-42.63322257320155
c 32.9652671482948,0 47.9652671482948,9.188841690954343 32.9652671482948,12.786989478147682
c -15.0,34.684000000000005 52.5,21.344 92.0347328517052,54.57215520138083 c 33.332452379643776,-0.0 107.36948916387473,13.340000000000002 89.86948916387473,-13.948524045983854
c -15.0,-56.602584831879476 0,-63.40936176616048 35.13051083612527,-63.40936176616048
c 33.79465445575792,0 48.79465445575792,37.45792900892728 33.79465445575792,80.46146589914619
c -15.0,34.684000000000005 52.5,21.344 91.20534554424208,-3.103580087001859 c 59.27362620238634,-0.0 121.68521338218,13.340000000000002 104.18521338218,-18.668972566100894
c -15.0,-47.39528236760751 0,-70.40961774014869 20.814786617820005,-70.40961774014869
c 20.69280543685818,0 35.69280543685818,32.09759173122187 20.69280543685818,92.1109924955499
c -15.0,34.684000000000005 52.5,21.344 104.30719456314182,-3.0324021893003135 c 29.13494855808125,0.0 120.09845105501635,-13.340000000000002 102.59845105501635,39.80528638549537
c -15.0,22.158092129857856 0,40.21505405699454 22.401548944983645,40.21505405699454
c 22.862687616687964,0 37.862687616687964,-55.021327483435684 22.862687616687964,-67.32714082799714
c -15.0,-34.684000000000005 52.5,-21.344 102.13731238331204,-12.69319961449277 L 2000 0 " fill="none" stroke="black" stroke-width="0.1" style="vector-effect:non-scaling-stroke;"/></g><g><path d="M 0 0  L 0 533.600000  c 67.32083110797328,-0.0 120.94492318663062,13.340000000000002 103.44492318663062,-25.342992582715
c -15.0,-14.368957064053673 0,-42.008267711166084 21.555076813369382,-42.008267711166084
c 34.8101485555205,0 49.8101485555205,14.55648709658632 34.8101485555205,64.54914976149605
c -15.0,34.684000000000005 52.5,21.344 90.1898514444795,2.8021105323850293 c 48.64230868464095,0.0 106.40451254315019,-13.340000000000002 88.90451254315019,29.82463263677366
c -15.0,19.297917745777507 0,58.364688846358774 36.09548745684981,58.364688846358774
c 17.703389207585644,0 32.703389207585644,-48.04482849962652 17.703389207585644,-48.83776257745065
c -15.0,-34.684000000000005 52.5,-21.344 107.29661079241436,-39.351558905681784 c 27.002572159904958,0.0 121.58114717524904,-13.340000000000002 104.08114717524904,6.975886883903782
c -15.0,31.529328694593254 0,65.06569201087649 20.918852824750957,65.06569201087649
c 19.793771570512973,0 34.79377157051297,-22.380083971277852 19.793771570512973,-59.69907811992258
c -15.0,-34.684000000000005 52.5,-21.344 105.20622842948703,-12.34250077485769 c 39.50407381292741,-0.0 113.36910187570352,13.340000000000002 95.86910187570352,-42.56542922617041
c -15.0,-32.85484095524462 0,-39.8012694402567 29.13089812429648,-39.8012694402567
c 20.393756841412397,0 35.3937568414124,18.498094815465727 20.393756841412397,34.87356451775399
c -15.0,34.684000000000005 52.5,21.344 104.6062431585876,47.49313414867312 c 37.67993623043671,0.0 112.58504343271531,-13.340000000000002 95.08504343271531,27.712970768668487
c -15.0,21.421590589969128 0,54.46791096234125 29.91495656728469,54.46791096234125
c 28.703184559744443,0 43.70318455974444,-51.00781454472756 28.703184559744443,-54.354801601936465
c -15.0,-34.684000000000005 52.5,-21.344 96.29681544025556,-27.82608012907327 c 58.546381239138576,0.0 108.31426568993713,-13.340000000000002 90.81426568993713,9.900867891952982
c -15.0,19.03009713897878 0,69.83544509909035 34.18573431006287,69.83544509909035
c 25.04510774772558,0 40.04510774772558,-34.56911560971595 25.04510774772558,-43.13716537809125
c -15.0,-34.684000000000005 52.5,-21.344 99.95489225227442,-36.59914761295209 c 70.80460512405264,0.0 119.82002747716294,-13.340000000000002 102.32002747716294,31.29019031753041
c -15.0,17.27730950852462 0,45.83583342516169 22.679972522837062,45.83583342516169
c 19.464171311100955,0 34.464171311100955,-38.09220373918164 19.464171311100955,-45.453995562289634
c -15.0,-34.684000000000005 52.5,-21.344 105.53582868889904,-31.672028180402464 c 29.95604126417414,-0.0 119.61790082730626,13.340000000000002 102.11790082730626,-49.143181160386106
c -15.0,-15.875730249957227 0,-38.47141395597649 22.882099172693742,-38.47141395597649
c 21.341957331025526,0 36.341957331025526,66.8573911216356 21.341957331025526,68.64062416647201
c -15.0,34.684000000000005 52.5,21.344 103.65804266897447,18.973970949890585 L 2000 0 " fill="none" stroke="black" stroke-width="0.1" style="vector-effect:non-scaling-stroke;"/></g><g><path d="M 0 0  L 0 800.400000  c 58.83515600406136,-0.0 110.32913186665289,13.340000000000002 92.82913186665289,-33.777559430558064
c -15.0,-10.76422283768917 0,-35.0577802287001 32.17086813334711,-35.0577802287001
c 31.959514820102044,0 46.959514820102044,6.53330120232317 31.959514820102044,12.79396069104353
c -15.0,34.684000000000005 52.5,21.344 93.04048517989796,56.04137896821464 c 36.13293451324273,-0.0 108.90751135698703,13.340000000000002 91.40751135698703,-15.995378963661585
c -15.0,-36.13256857873405 0,-58.1816439958292 33.59248864301297,-58.1816439958292
c 39.92910280236961,0 54.92910280236961,21.573475366802228 39.92910280236961,23.560983923811335
c -15.0,34.684000000000005 52.5,21.344 85.07089719763039,50.61603903567945 c 71.52926006366327,0.0 106.94971761209733,-13.340000000000002 89.44971761209733,35.79954312513079
c -15.0,21.552234084185365 0,30.181722786272353 35.55028238790267,30.181722786272353
c 23.084808848636015,0 38.084808848636015,-10.178099943875207 23.084808848636015,-45.02994606523577
c -15.0,-34.684000000000005 52.5,-21.344 101.91519115136398,-20.951319846167372 c 55.64822137918962,-0.0 105.50084153955817,13.340000000000002 88.00084153955817,-14.650874123965211
c -15.0,-43.62734493350134 0,-58.25241000894697 36.99915846044183,-58.25241000894697
c 35.599899126766076,0 50.599899126766076,19.22434980297487 35.599899126766076,33.17396356243345
c -15.0,34.684000000000005 52.5,21.344 89.40010087323392,39.72932057047873 c 36.62046951822875,0.0 105.11495654659387,-13.340000000000002 87.61495654659387,0.7263530330780128
c -15.0,29.101099083929356 0,76.3439259525692 37.385043453406126,76.3439259525692
c 36.79007700691088,0 51.79007700691088,-30.757539916476592 36.79007700691088,-68.69712451839098
c -15.0,-34.684000000000005 52.5,-21.344 88.20992299308912,-8.373154467256228 c 52.177368405558546,-0.0 117.23844072055728,13.340000000000002 99.73844072055728,5.205105890250682
c -15.0,-70.33755116969346 0,-76.08423866155357 25.26155927944272,-76.08423866155357
c 26.500921403105224,0 41.500921403105224,38.503740465597886 26.500921403105224,42.349342232817676
c -15.0,34.684000000000005 52.5,21.344 98.49907859689478,28.529790538485216 c 35.430957520703096,-0.0 114.28106092467216,13.340000000000002 96.78106092467216,-30.770329574076605
c -15.0,-18.158983658839336 0,-54.998846865764186 28.21893907532784,-54.998846865764186
c 29.7519042076118,0 44.7519042076118,30.497166669056163 29.7519042076118,64.63733954276364
c -15.0,34.684000000000005 52.5,21.344 95.2480957923882,21.13183689707715 c 30.796180624586523,0.0 118.83520651462226,-13.340000000000002 101.33520651462226,30.51913768481146
c -15.0,38.55691560007499 0,52.73970800434949 23.664793485377743,52.73970800434949
c 30.641593174933888,0 45.64159317493389,-22.975371447943008 30.641593174933888,-74.99663567229341
c -15.0,-34.684000000000005 52.5,-21.344 94.35840682506611,-8.262210016867542 L 2000 0 " fill="none" stroke="black" stroke-width="0.1" style="vector-effect:non-scaling-stroke;"/></g><g><path d="M 0 0  L 0 1067.200000  c 15.891364361663662,0.0 107.73606030290406,-13.340000000000002 90.23606030290406,42.01131404704884
c -15.0,7.409431636639482 0,23.756617229682504 34.763939697095935,23.756617229682504
c 34.51290841477737,0 49.51290841477737,-60.23341977257883 34.51290841477737,-70.33311501452393
c -15.0,-34.684000000000005 52.5,-21.344 90.48709158522263,4.56518373779258 c 65.7416503809555,0.0 108.77727846702099,-13.340000000000002 91.27727846702099,11.997481418285053
c -15.0,40.066169489142524 0,75.1600616148212 33.72272153297901,75.1600616148212
c 18.20209075534686,0 33.20209075534686,-31.42867643939515 18.20209075534686,-32.569419366685885
c -15.0,-34.684000000000005 52.5,-21.344 106.79790924465314,-54.588123666420366 c 67.39175026733022,0.0 104.17262792915379,-13.340000000000002 86.67262792915379,22.15925646253093
c -15.0,30.42006102585182 0,42.11470401855084 38.32737207084621,42.11470401855084
c 24.205684579366846,0 39.205684579366846,-20.493169944581588 24.205684579366846,-61.64774176747952
c -15.0,-34.684000000000005 52.5,-21.344 100.79431542063315,-2.626218713602249 c 56.282983273138434,-0.0 108.72384347052537,13.340000000000002 91.22384347052537,-19.883252942126667
c -15.0,-20.701912870112 0,-52.04543883356478 33.77615652947463,-52.04543883356478
c 38.548065361447584,0 53.548065361447584,46.82823723232796 38.548065361447584,64.49724362391338
c -15.0,34.684000000000005 52.5,21.344 86.45193463855242,7.431448151778071 c 42.80388076220246,-0.0 111.36227145701135,13.340000000000002 93.86227145701135,-27.57656210133456
c -15.0,-36.878567951895704 0,-53.37283851524789 31.137728542988654,-53.37283851524789
c 39.305528148587626,0 54.305528148587626,25.375959812674484 39.305528148587626,34.613122487812014
c -15.0,34.684000000000005 52.5,21.344 85.69447185141237,46.33627812877044 c 40.03934994188941,-0.0 107.36049324781783,13.340000000000002 89.86049324781783,-15.679463462735987
c -15.0,-23.117961899192885 0,-73.23904344018153 35.13950675218217,-73.23904344018153
c 30.92037464046024,0 45.92037464046024,36.229154261373424 30.92037464046024,83.72283032324285
c -15.0,34.684000000000005 52.5,21.344 94.07962535953976,5.195676579674668 c 43.05202795974952,0.0 102.5636919746576,-13.340000000000002 85.0636919746576,33.0942025703366
c -15.0,14.327930394593718 0,43.31896132856753 39.9363080253424,43.31896132856753
c 32.4048079594607,0 47.4048079594607,-26.15012031792414 32.4048079594607,-46.18117986712811
c -15.0,-34.684000000000005 52.5,-21.344 92.5951920405393,-30.231984031776022 c 67.53196817309139,0.0 115.20898152963179,-13.340000000000002 97.70898152963179,32.80760505520368
c -15.0,23.830383971784613 0,57.121395748613196 27.291018470368215,57.121395748613196
c 27.011289482737567,0 42.01128948273757,-39.44933511282115 27.011289482737567,-52.94899755138777
c -15.0,-34.684000000000005 52.5,-21.344 97.98871051726243,-36.98000325242911 L 2000 0 " fill="none" stroke="black" stroke-width="0.1" style="vector-effect:non-scaling-stroke;"/></g></g></svg>