<svg baseProfile="full" height="3333" preserveAspectRatio="none" shape-rendering="geometricPrecision" version="1.1" viewBox="0,0,5000,3333" width="5000" xmlns="http://www.w3.org/2000/svg" xmlns:ev="http://www.w3.org/2001/xml-events" xmlns:xlink="http://www.w3.org/1999/xlink"><title>Jigsaw puzzle piece clips</title><desc>Created with the piecemaker. Piece count: 24</desc><defs /><g><g><rect fill="white" height="3333" width="5000" x="0" y="0" /></g></g><g><g><path d="M 0 0  L 833.333333 0  c 0.0,113.80658191127257 -41.66666666666667,394.5766777257 19.946441723200465,336.2491777257&#10;c 42.97132028985852,-49.995 185.03899036919523,0 185.03899036919523,80.37582227429999&#10;c 0,100.27076050878463 -20.049115329399303,150.26576050878464 -24.52578868534556,100.27076050878463&#10;c -108.33333333333334,-49.995 -66.66666666666667,174.9825 -180.45964340705012,316.35423949121537 c -0.0,170.9332748254135 41.66666666666667,353.92718402845685 -94.36553996963312,295.59968402845686&#10;c -48.29283153380709,-49.995 -175.62804088897326,0 -175.62804088897326,121.02531597154314&#10;c 0,66.74154005126695 144.845741917655,116.73654005126696 154.83751419858356,66.74154005126695&#10;c 108.33333333333334,-49.995 66.66666666666667,174.9825 115.15606666002282,349.88345994873305 c -0.0,90.23640500410967 41.66666666666667,358.3713493390844 -82.83016832592574,300.04384933908443&#10;c -49.21639167721382,-49.995 -128.61028776633253,0 -128.61028776633253,116.58115066091557&#10;c 0,61.02769680674396 96.210211521092,111.02269680674397 134.94539768607967,61.02769680674396&#10;c 108.33333333333334,-49.995 66.66666666666667,174.9825 76.4950584061786,355.59730319325604 c -0.0,206.33755570264097 41.66666666666667,374.1839740419931 -51.94076590816171,315.8564740419931&#10;c -51.334953349005396,-49.995 -209.2246826270432,0 -209.2246826270432,100.76852595800688&#10;c 0,120.52092191797169 205.4805829651671,170.5159219179717 207.8340426091444,120.52092191797169&#10;c 108.33333333333334,-49.995 66.66666666666667,174.9825 53.33140592606051,296.1040780820283 L 0 3333 " fill="none" stroke="black" stroke-width="0.1" style="vector-effect:non-scaling-stroke;" /></g><g><path d="M 0 0  L 1666.666667 0  c 0.0,110.61718228579419 -41.66666666666667,384.6806186574157 39.42269565121926,326.35311865741573&#10;c 168.83401956321586,-49.995 215.34846657920497,0 215.34846657920497,90.27188134258427&#10;c 0,114.60562709345538 -152.03038105096934,164.6006270934554 -200.95786718611959,114.60562709345538&#10;c -108.33333333333334,-49.995 -66.66666666666667,174.9825 -53.81329504430465,302.0193729065446 c -0.0,92.8722658801832 41.66666666666667,368.92439071798015 -61.10634046562664,310.59689071798016&#10;c -125.52639843505847,-49.995 -211.34719659809414,0 -211.34719659809414,106.02810928201984&#10;c 0,103.67172918200492 228.05598088367867,153.66672918200493 266.86329862349186,103.67172918200492&#10;c 108.33333333333334,-49.995 66.66666666666667,174.9825 5.590238440228916,312.9532708179951 c 0.0,118.16015324894353 -41.66666666666667,344.68406622519416 42.02994869306183,286.3565662251942&#10;c 107.69473216393018,-49.995 166.68087400807119,0 166.68087400807119,130.26843377480583&#10;c 0,117.31403792999379 -61.23955935660631,167.3090379299938 -141.16272320486888,117.31403792999379&#10;c -108.33333333333334,-49.995 -66.66666666666667,174.9825 -67.54809949626414,299.3109620700062 c 0.0,148.04576247173486 -41.66666666666667,379.5368394680989 81.35136252269984,321.2093394680989&#10;c 73.20011315738142,-49.995 187.49238183840873,0 187.49238183840873,95.4156605319011&#10;c 0,94.68293207466513 -61.192365262203225,144.67793207466514 -125.82789775278408,94.68293207466513&#10;c -108.33333333333334,-49.995 -66.66666666666667,174.9825 -143.0158466083245,321.94206792533487 L 0 3333 " fill="none" stroke="black" stroke-width="0.1" style="vector-effect:non-scaling-stroke;" /></g><g><path d="M 0 0  L 2500.000000 0  c 0.0,211.68016342911326 -41.66666666666667,367.36904349606914 36.76258372820731,309.04154349606915&#10;c 111.09208555834486,-49.995 229.6891920552217,0 229.6891920552217,107.58345650393085&#10;c 0,113.08249384117335 -83.21498123045227,163.07749384117335 -111.52304167615853,113.08249384117335&#10;c -108.33333333333334,-49.995 -66.66666666666667,174.9825 -154.9287341072705,303.54250615882665 c -0.0,188.63253883502105 41.66666666666667,402.6793150665744 -7.5493656721085385,344.35181506657443&#10;c -190.71823652229295,-49.995 -233.84089421208688,0 -233.84089421208688,72.27318493342557&#10;c 0,59.484661417743894 16.359686193127008,109.4796614177439 61.59585677027346,59.484661417743894&#10;c 108.33333333333334,-49.995 66.66666666666667,174.9825 179.79440311392196,357.1403385822561 c 0.0,184.74364519673765 -41.66666666666667,374.13139526794606 143.13985950954168,315.8038952679461&#10;c 118.15846877381748,-49.995 129.52685809135107,0 129.52685809135107,100.82110473205393&#10;c 0,63.28346233646852 -82.17488128931632,113.27846233646852 -96.60427292395468,63.28346233646852&#10;c -108.33333333333334,-49.995 -66.66666666666667,174.9825 -176.06244467693807,353.3415376635315 c 0.0,52.6866863758538 -41.66666666666667,362.9644467944764 2.972036609558343,304.6369467944764&#10;c 102.0413401044707,-49.995 266.7753763943722,0 266.7753763943722,111.98805320552361&#10;c 0,102.80908488081172 -98.14575463778063,152.80408488081173 -157.83663690866643,102.80908488081172&#10;c -108.33333333333334,-49.995 -66.66666666666667,174.9825 -111.91077609526411,313.8159151191883 L 0 3333 " fill="none" stroke="black" stroke-width="0.1" style="vector-effect:non-scaling-stroke;" /></g><g><path d="M 0 0  L 3333.333333 0  c 0.0,105.87997382457634 -41.66666666666667,348.73648024661856 136.12106887556487,290.40898024661857&#10;c 50.80724110491283,-49.995 120.39559869829,0 120.39559869829,126.21601975338143&#10;c 0,85.70225324658452 -26.221425760671778,135.69725324658452 -91.4114775020935,85.70225324658452&#10;c -108.33333333333334,-49.995 -66.66666666666667,174.9825 -165.10519007176137,330.9227467534155 c -0.0,179.86651645353714 41.66666666666667,346.7110590911236 -134.89063386996602,288.38355909112363&#10;c -117.05890487130802,-49.995 -147.51209729560017,0 -147.51209729560017,128.24144090887637&#10;c 0,125.98906692319588 119.50773136802309,175.98406692319588 246.0391059445094,125.98906692319588&#10;c 108.33333333333334,-49.995 66.66666666666667,174.9825 36.36362522105679,290.6359330768041 c 0.0,57.73277988422991 -41.66666666666667,357.7614704975302 166.35099054916392,299.4339704975302&#10;c 43.87477205276278,-49.995 71.6777905115649,0 71.6777905115649,117.1910295024698&#10;c 0,78.34583424647946 -216.71176260130335,128.34083424647946 -248.73065700680024,78.34583424647946&#10;c -108.33333333333334,-49.995 -66.66666666666667,174.9825 10.701875946071425,338.27916575352054 c -0.0,57.91032202661195 41.66666666666667,388.0466123878661 -163.05383037113157,329.7191123878661&#10;c -94.47080066981025,-49.995 -119.12716727856306,0 -119.12716727856306,86.90588761213388&#10;c 0,88.54787830655022 184.0235328472822,138.54287830655022 184.82490701008317,88.54787830655022&#10;c 108.33333333333334,-49.995 66.66666666666667,174.9825 97.35609063961147,328.0771216934498 L 0 3333 " fill="none" stroke="black" stroke-width="0.1" style="vector-effect:non-scaling-stroke;" /></g><g><path d="M 0 0  L 4166.666667 0  c -0.0,195.23435591172782 41.66666666666667,377.004966133857 -84.86171109449688,318.677466133857&#10;c -101.94837501646114,-49.995 -117.79982745245542,0 -117.79982745245542,97.94753386614298&#10;c 0,58.35983649859071 160.11810996098322,108.35483649859071 186.98397133013498,58.35983649859071&#10;c 108.33333333333334,-49.995 66.66666666666667,174.9825 15.677567216817323,358.2651635014093 c 0.0,219.9323609522499 -41.66666666666667,363.2074559263406 42.36305310000821,304.8799559263406&#10;c 120.11132265263507,-49.995 204.39848786405238,0 204.39848786405238,111.74504407365941&#10;c 0,125.36792768128828 -135.33223818689996,175.36292768128828 -154.65949997978373,125.36792768128828&#10;c -108.33333333333334,-49.995 -66.66666666666667,174.9825 -92.10204098427687,291.2570723187117 c -0.0,128.3551593640441 41.66666666666667,392.0802864177955 -139.96779424626996,333.7527864177955&#10;c -86.52665922193533,-49.995 -109.2775423900309,0 -109.2775423900309,82.8722135822045&#10;c 0,117.3520550603132 78.90511191209653,167.3470550603132 144.30552744628926,117.3520550603132&#10;c 108.33333333333334,-49.995 66.66666666666667,174.9825 104.9398091900116,299.2729449396868 c -0.0,106.08029821411075 41.66666666666667,379.5514239007747 -38.94795296386702,321.2239239007747&#10;c -82.77361467103601,-49.995 -177.0987749514589,0 -177.0987749514589,95.40107609922529&#10;c 0,113.54915250243255 14.290084932730894,163.54415250243255 57.226310092097435,113.54915250243255&#10;c 108.33333333333334,-49.995 66.66666666666667,174.9825 158.82041782322847,303.07584749756745 L 0 3333 " fill="none" stroke="black" stroke-width="0.1" style="vector-effect:non-scaling-stroke;" /></g></g><g><g><path d="M 0 0  L 0 833.250000  c 203.56890932958737,0.0 393.49163937450555,-41.6625 335.1583060411722,7.8616626449575495&#10;c -50.0,127.91319812376044 0,254.80548448647016 81.5083606254945,254.80548448647016&#10;c 127.39285011080204,0 177.39285011080204,-49.85597286100003 127.39285011080204,-190.7748817600002&#10;c -50.0,-108.3225 175.0,-66.66 289.27381655586464,-71.89226537142753 c 154.34088874753616,0.0 370.4689220085876,-41.6625 312.1355886752542,16.844828261488757&#10;c -50.0,121.68963818718017 0,239.24967892776925 104.53107799141247,239.24967892776925&#10;c 58.472007063836315,0 108.47200706383632,-77.35908553741542 58.472007063836315,-91.98865027155804&#10;c -50.0,-108.3225 175.0,-66.66 358.19465960283037,-164.10585691769998 c 57.90833927559195,-0.0 359.19041932471293,41.6625 300.8570859913796,-92.08731713090029&#10;c -50.0,-61.874405410622394 0,-149.3104594559071 115.80958067528707,-149.3104594559071&#10;c 131.66288397901354,0 181.66288397901354,168.46278285302552 131.66288397901354,171.04601277179404&#10;c -50.0,108.3225 175.0,66.66 285.00378268765314,70.35176381501336 c 81.16689070576143,0.0 361.7493536446666,-41.6625 303.4160203113332,6.207599272581112&#10;c -50.0,57.48907059897965 0,240.08422732299127 113.25064635533346,240.08422732299127&#10;c 97.55839360451711,0 147.5583936045171,-60.30904251817162 97.55839360451711,-79.32036208179181&#10;c -50.0,-108.3225 175.0,-66.66 319.1082730621496,-166.97146451378057 c 141.74675575239604,-0.0 354.38771575980377,41.6625 296.05438242647045,-172.07510269282398&#10;c -50.0,-69.47432624704953 0,-71.25520021759047 120.61228424019623,-71.25520021759047&#10;c 89.88799956980404,0 139.88799956980404,127.16525949479438 89.88799956980404,211.17098252698247&#10;c -50.0,108.3225 175.0,66.66 326.77866709686265,32.159320383431975 c 208.87998914582374,0.0 412.6774895702216,-41.6625 354.3441562368883,-2.7571659298651463&#10;c -50.0,252.80745023400266 0,269.79799754145483 62.32251042977839,269.79799754145483&#10;c 127.00272419012646,0 177.00272419012646,-192.01124596722138 127.00272419012646,-230.16870611192212&#10;c -50.0,-108.3225 175.0,-66.66 289.6639424765402,-36.87212549966756 L 5000 0 " fill="none" stroke="black" stroke-width="0.1" style="vector-effect:non-scaling-stroke;" /></g><g><path d="M 0 0  L 0 1666.500000  c 62.12117991530048,-0.0 402.19345384964834,41.6625 343.86012051631496,-149.65832254234826&#10;c -50.0,-69.36627598232913 0,-75.13470627064879 72.80654615035172,-75.13470627064879&#10;c 60.96034162345887,0 110.96034162345887,73.71630680518804 60.96034162345887,220.6250324730884&#10;c -50.0,108.3225 175.0,66.66 355.7063250432078,4.167996339908655 c 221.0920998979106,-0.0 410.72532724797736,41.6625 352.391993914644,-123.76630344392318&#10;c -50.0,-63.233649017538866 0,-134.04964141214805 64.2746727520227,-134.04964141214805&#10;c 107.92503986015168,0 157.92503986015168,104.97436368314347 107.92503986015168,154.62555367318282&#10;c -50.0,108.3225 175.0,66.66 308.741626806515,103.19039118288839 c 88.48506152405405,0.0 400.42163638568775,-41.6625 342.0883030523544,10.651112031592557&#10;c -50.0,137.8772154909949 0,248.77811392176767 74.57836361431231,248.77811392176767&#10;c 123.02321828343275,0 173.02321828343275,-67.71505326603119 123.02321828343275,-96.75266894612577&#10;c -50.0,-108.3225 175.0,-66.66 293.64344838323393,-162.67655700723446 c 218.32387363280208,0.0 355.59169518515193,-41.6625 297.2583618518186,102.06422100310222&#10;c -50.0,65.57008770286365 0,143.90884762833787 119.40830481484807,143.90884762833787&#10;c 62.2763423235732,0 112.2763423235732,-211.90842634339413 62.2763423235732,-222.40698551029726&#10;c -50.0,-108.3225 175.0,-66.66 354.3903243430935,-23.56608312114281 c 137.9051911810319,0.0 348.1689169435624,-41.6625 289.8355836102291,116.7748553955419&#10;c -50.0,59.35428669425403 0,120.69696647612894 126.83108305643759,120.69696647612894&#10;c 116.11239272221377,0 166.11239272221377,-73.1586311995457 116.11239272221377,-170.3224511451684&#10;c -50.0,-108.3225 175.0,-66.66 300.5542739444529,-67.14937072650244 c 196.7489632284833,-0.0 374.43621186133487,41.6625 316.1028785280015,4.57696954507707&#10;c -50.0,-168.5162448928414 0,-267.23523364067603 100.56378813866519,-267.23523364067603&#10;c 118.79613265946904,0 168.79613265946904,113.33108613687587 118.79613265946904,254.7762131497664&#10;c -50.0,108.3225 175.0,66.66 297.87053400719765,7.88205094583256 L 5000 0 " fill="none" stroke="black" stroke-width="0.1" style="vector-effect:non-scaling-stroke;" /></g><g><path d="M 0 0  L 0 2499.750000  c 204.79213521668723,-0.0 353.3608847423875,41.6625 295.0275514090541,-150.59946677998607&#10;c -50.0,-106.41778545140347 0,-124.97814894084763 121.63911525761256,-124.97814894084763&#10;c 79.87836320681953,0 129.87836320681953,138.2975547267347 79.87836320681953,224.25965586296152&#10;c -50.0,108.3225 175.0,66.66 336.78830345984716,51.31795985787218 c 95.79893575969705,0.0 382.091255036285,-41.6625 323.75792170295165,182.65438911150054&#10;c -50.0,26.660138590897418 0,54.77712988286359 92.90874496371504,54.77712988286359&#10;c 89.73522002983225,0 139.73522002983225,-25.194636165826346 89.73522002983225,-97.74293215711089&#10;c -50.0,-108.3225 175.0,-66.66 326.93144663683444,-139.68858683725324 c 188.93401830223524,-0.0 370.4439654251846,41.6625 312.1106320918513,-124.53155904862196&#10;c -50.0,-74.74906222344809 0,-101.14037605008279 104.55603457481538,-101.14037605008279&#10;c 62.31724653721136,0 112.31724653721136,45.600071084189565 62.31724653721136,164.07925778479805&#10;c -50.0,108.3225 175.0,66.66 354.3494201294553,61.592677313906705 c 196.2316526205447,0.0 350.37462501156665,-41.6625 292.0412916782333,-16.262714618847056&#10;c -50.0,139.81068401743556 0,265.8145407529672 124.6253749884334,265.8145407529672&#10;c 89.89928768691533,0 139.89928768691533,-62.57908815907764 89.89928768691533,-184.1940088926769&#10;c -50.0,-108.3225 175.0,-66.66 326.76737897975136,-65.35781724144329 c 116.7686642254052,0.0 401.7433341489591,-41.6625 343.4100008156258,167.96393431081586&#10;c -50.0,67.85072542476688 0,98.0582448414448 73.2566658510409,98.0582448414448&#10;c 99.47767722620034,0 149.47767722620034,-80.85100930666476 99.47767722620034,-122.23944944981523&#10;c -50.0,-108.3225 175.0,-66.66 317.18898944046634,-143.78272970244544 c 132.34093197306566,0.0 405.611574543267,-41.6625 347.27824120993364,121.49053100443714&#10;c -50.0,113.54402737737756 0,140.4366971522529 69.38842545673305,140.4366971522529&#10;c 115.74439165209861,0 165.7443916520986,-142.11593075348281 115.74439165209861,-239.75464636104564&#10;c -50.0,-108.3225 175.0,-66.66 300.9222750145681,-22.17258179564439 L 5000 0 " fill="none" stroke="black" stroke-width="0.1" style="vector-effect:non-scaling-stroke;" /></g></g></svg>