<svg baseProfile="full" height="2592" preserveAspectRatio="none" shape-rendering="geometricPrecision" version="1.1" viewBox="0,0,4608,2592" width="4608" xmlns="http://www.w3.org/2000/svg" xmlns:ev="http://www.w3.org/2001/xml-events" xmlns:xlink="http://www.w3.org/1999/xlink"><title>Jigsaw puzzle piece clips</title><desc>Created with the piecemaker. Piece count: 40</desc><defs /><g><g><rect fill="white" height="2592" width="4608" x="0" y="0" /></g></g><g><g><path d="M 0 0  L 576.000000 0  c -0.0,48.73269046949184 28.8,222.11013161448201 -29.296515056648897,185.822131614482&#10;c -91.87807182762876,-31.104 -138.3306489265029,0 -138.3306489265029,73.37786838551798&#10;c 0,44.093119725768986 60.10652155982929,75.19711972576899 71.32736858544482,44.093119725768986&#10;c 74.88,-31.104 46.08,108.86399999999999 96.29979539770699,215.106880274231 c -0.0,43.699453583839926 28.8,212.60505634108537 -43.205453983370234,176.31705634108536&#10;c -111.42428061554288,-31.104 -130.83433200351965,0 -130.83433200351965,82.88294365891463&#10;c 0,64.71755279849003 73.98831177251273,95.82155279849003 114.66234209411326,64.71755279849003&#10;c 74.88,-31.104 46.08,108.86399999999999 59.377443892776625,194.48244720150996 c -0.0,61.06097916652015 28.8,235.16262030706852 -79.52921981791586,198.8746203070685&#10;c -59.89020402852254,-31.104 -73.92416380922576,0 -73.92416380922576,60.32537969293148&#10;c 0,67.88912359694962 17.212150908008045,98.99312359694962 48.8234411545657,67.88912359694962&#10;c 74.88,-31.104 46.08,108.86399999999999 104.62994247257592,191.31087640305037 c 0.0,96.28201383517832 -28.8,215.06717268858264 21.23231382629037,178.77917268858263&#10;c 48.58240813278796,-31.104 124.73953903634423,0 124.73953903634423,80.42082731141736&#10;c 0,44.7475817665956 -19.86119807701378,75.8515817665956 -40.366414507384675,44.7475817665956&#10;c -74.88,-31.104 -46.08,108.86399999999999 -105.60543835524992,214.4524182334044 c -0.0,105.58112747513587 28.8,246.5058027865162 -16.432760415973842,210.2178027865162&#10;c -117.7705504402407,-31.104 -136.1380977559086,0 -136.1380977559086,48.9821972134838&#10;c 0,74.4924310386109 24.70028316412408,105.5964310386109 65.87052612598913,74.4924310386109&#10;c 74.88,-31.104 46.08,108.86399999999999 86.7003320458933,184.7075689613891 L 0 2592 " fill="none" stroke="black" stroke-width="0.1" style="vector-effect:non-scaling-stroke;" /></g><g><path d="M 0 0  L 1152.000000 0  c -0.0,134.6536389667576 28.8,232.48914797269595 8.314153727626628,196.20114797269594&#10;c -35.09947047490863,-31.104 -162.03218826289717,0 -162.03218826289717,62.99885202730405&#10;c 0,48.78559630581418 13.77960344768674,79.88959630581418 38.41391909157571,48.78559630581418&#10;c 74.88,-31.104 46.08,108.86399999999999 115.30411544369483,210.4144036941858 c -0.0,54.9812144125872 28.8,218.24682170551745 -82.89251643404769,181.95882170551744&#10;c -39.84713279802069,-31.104 -101.09790158885751,0 -101.09790158885751,77.24117829448255&#10;c 0,75.18499168069593 113.91012335808539,106.28899168069593 176.71119533085957,75.18499168069593&#10;c 74.88,-31.104 46.08,108.86399999999999 7.279222692045636,184.01500831930406 c 0.0,39.8662107719566 -28.8,253.99848266031415 36.99789075716358,217.71048266031414&#10;c 30.954460313604972,-31.104 101.8702931266645,0 101.8702931266645,41.48951733968585&#10;c 0,75.6461534746038 -59.13693575575406,106.7501534746038 -135.4756719157156,75.6461534746038&#10;c -74.88,-31.104 -46.08,108.86399999999999 -3.392511968112501,183.55384652539618 c -0.0,100.57148628622924 28.8,220.54393095262049 -51.984369896828575,184.25593095262047&#10;c -21.09833961659555,-31.104 -89.54454506822708,0 -89.54454506822708,74.94406904737951&#10;c 0,74.22668077956695 26.4137228296034,105.33068077956695 76.8596633144229,74.22668077956695&#10;c 74.88,-31.104 46.08,108.86399999999999 64.66925165063276,184.97331922043304 c -0.0,117.82086526971568 28.8,217.66091712522316 -4.0366756020170245,181.37291712522315&#10;c -62.661085415236045,-31.104 -181.49714185644905,0 -181.49714185644905,77.82708287477683&#10;c 0,65.48236333390219 35.404521790739636,96.58636333390218 59.18986683030775,65.48236333390219&#10;c 74.88,-31.104 46.08,108.86399999999999 126.34395062815832,193.7176366660978 L 0 2592 " fill="none" stroke="black" stroke-width="0.1" style="vector-effect:non-scaling-stroke;" /></g><g><path d="M 0 0  L 1728.000000 0  c 0.0,88.3288496918358 -28.8,236.71971483647627 97.91077395657528,200.43171483647626&#10;c 17.55684565063109,-31.104 56.68592981969864,0 56.68592981969864,58.76828516352373&#10;c 0,79.0033652963163 -102.49546535337066,110.1073652963163 -162.69067300854604,79.0033652963163&#10;c -74.88,-31.104 -46.08,108.86399999999999 8.093969232272116,180.19663470368369 c -0.0,96.3774020465066 28.8,238.7447793767305 -80.19347500909775,202.45677937673048&#10;c -43.243911308286286,-31.104 -63.919864686704145,0 -63.919864686704145,56.74322062326951&#10;c 0,67.25924361075653 13.91104211537311,98.36324361075653 17.633147666835313,67.25924361075653&#10;c 74.88,-31.104 46.08,108.86399999999999 126.48019202896658,191.94075638924346 c 0.0,60.226285481306164 -28.8,242.90027266823367 -10.130168382720317,206.61227266823366&#10;c 86.07148876854612,-31.104 198.64172734532028,0 198.64172734532028,52.58772733176633&#10;c 0,36.96163172016156 -53.64610264295581,68.06563172016156 -131.78306722277466,36.96163172016156&#10;c -74.88,-31.104 -46.08,108.86399999999999 -56.7284917398253,222.23836827983843 c -0.0,39.511100513239946 28.8,222.73776605983267 -38.64346199897782,186.44976605983265&#10;c -35.425471317997584,-31.104 -117.21123149313098,0 -117.21123149313098,72.75023394016733&#10;c 0,52.151175303233174 32.31176248590896,83.25517530323317 95.09022026888009,52.151175303233174&#10;c 74.88,-31.104 46.08,108.86399999999999 60.764473223228705,207.04882469676681 c 0.0,116.68951568372708 -28.8,240.2959435561534 70.50872844657947,204.00794355615338&#10;c 74.59388043114858,-31.104 101.24434391423738,0 101.24434391423738,55.19205644384661&#10;c 0,58.477720871227575 -97.42274116365796,89.58172087122757 -136.950273073407,58.477720871227575&#10;c -74.88,-31.104 -46.08,108.86399999999999 -34.80279928740984,200.7222791287724 L 0 2592 " fill="none" stroke="black" stroke-width="0.1" style="vector-effect:non-scaling-stroke;" /></g><g><path d="M 0 0  L 2304.000000 0  c 0.0,140.43155749609693 -28.8,238.84499215592567 83.64702227136765,202.55699215592566&#10;c 29.8625194970532,-31.104 84.51023790585582,0 84.51023790585582,56.64300784407433&#10;c 0,38.4126244865426 -105.1780643776292,69.5166244865426 -135.96584503872714,38.4126244865426&#10;c -74.88,-31.104 -46.08,108.86399999999999 -32.191415138496325,220.7873755134574 c 0.0,107.5049428823643 -28.8,255.78705923106986 40.253236699501805,219.49905923106985&#10;c 38.18279555300669,-31.104 123.09198201382773,0 123.09198201382773,39.70094076893014&#10;c 0,69.56870755127045 -147.48743254376095,100.67270755127045 -154.37376398868543,69.56870755127045&#10;c -74.88,-31.104 -46.08,108.86399999999999 -8.971454724644104,189.63129244872954 c -0.0,89.42591195992401 28.8,232.91950013863197 -39.45649718701512,196.63150013863196&#10;c -32.187839953739264,-31.104 -125.61850189792315,0 -125.61850189792315,62.568499861368025&#10;c 0,75.7532847253845 24.30532030024479,106.8572847253845 46.47178682130455,75.7532847253845&#10;c 74.88,-31.104 46.08,108.86399999999999 118.60321226363372,183.44671527461549 c 0.0,106.44517123808181 -28.8,225.75165191845895 51.73190033248392,189.46365191845894&#10;c 89.94443225725814,-31.104 101.73835033701124,0 101.73835033701124,69.73634808154105&#10;c 0,81.4471995068003 -37.23483310765912,112.5511995068003 -138.54863726380526,81.4471995068003&#10;c -74.88,-31.104 -46.08,108.86399999999999 -14.921613405689897,177.7528004931997 c -0.0,32.16473126066225 28.8,222.49443655517086 -4.882680162836953,186.20643655517085&#10;c -115.60699227992403,-31.104 -145.17233636309962,0 -145.17233636309962,72.99356344482914&#10;c 0,81.07893780748611 55.13424254665387,112.18293780748611 135.72839943142293,81.07893780748611&#10;c 74.88,-31.104 46.08,108.86399999999999 14.326617094513637,178.12106219251388 L 0 2592 " fill="none" stroke="black" stroke-width="0.1" style="vector-effect:non-scaling-stroke;" /></g><g><path d="M 0 0  L 2880.000000 0  c 0.0,29.508415099258226 -28.8,252.35296128877079 76.39928943648549,216.06496128877077&#10;c 16.436059244709707,-31.104 76.9301214401034,0 76.9301214401034,43.135038711229214&#10;c 0,70.90052769106308 -17.258597877498243,102.00452769106307 -31.57186476698945,70.90052769106308&#10;c -74.88,-31.104 -46.08,108.86399999999999 -121.75754610959945,188.2994723089369 c 0.0,26.218526337406136 -28.8,216.98511887417712 18.399944831944882,180.6971188741771&#10;c 160.9680751803408,-31.104 174.19737679794116,0 174.19737679794116,78.50288112582288&#10;c 0,44.29809203798328 -28.23863068317231,75.40209203798328 -93.42641149889027,44.29809203798328&#10;c -74.88,-31.104 -46.08,108.86399999999999 -99.17091013099576,214.9019079620167 c -0.0,85.74315649354051 28.8,249.72783171950107 -124.40965768571917,213.43983171950106&#10;c -47.17332215740077,-31.104 -47.22608399329036,0 -47.22608399329036,45.76016828049893&#10;c 0,55.08672087419234 66.92656164116623,86.19072087419234 92.83613854927866,55.08672087419234&#10;c 74.88,-31.104 46.08,108.86399999999999 78.79960312973087,204.11327912580765 c -0.0,145.03269542049722 28.8,255.00326532868445 -8.8165493220338,218.71526532868444&#10;c -52.67160023442331,-31.104 -149.14992704509856,0 -149.14992704509856,40.48473467131555&#10;c 0,70.04714615517105 35.87217031687143,101.15114615517105 68.35334542773128,70.04714615517105&#10;c 74.88,-31.104 46.08,108.86399999999999 89.61313093940109,189.15285384482894 c -0.0,142.43220702806448 28.8,228.08809594750176 -50.09054867589315,191.80009594750175&#10;c -45.371749452481154,-31.104 -111.2112689614718,0 -111.2112689614718,67.39990405249824&#10;c 0,58.6784695708069 94.49739731238564,89.7824695708069 111.11109406494174,58.6784695708069&#10;c 74.88,-31.104 46.08,108.86399999999999 50.190723572423224,200.5215304291931 L 0 2592 " fill="none" stroke="black" stroke-width="0.1" style="vector-effect:non-scaling-stroke;" /></g><g><path d="M 0 0  L 3456.000000 0  c -0.0,138.48252100165655 28.8,232.65895690466908 -115.30707045672676,196.37095690466907&#10;c -24.88067647615318,-31.104 -79.18085901909527,0 -79.18085901909527,62.82904309533092&#10;c 0,58.137558827301575 99.7029532909951,89.24155882730157 141.18892969254074,58.137558827301575&#10;c 74.88,-31.104 46.08,108.86399999999999 53.29899978328129,201.0624411726984 c 0.0,141.59571830533392 -28.8,221.19080239929272 7.1590470905141155,184.9028023992927&#10;c 134.34619457242297,-31.104 149.18725147203364,0 149.18725147203364,74.29719760070728&#10;c 0,75.4953576439496 -108.72903345152154,106.5993576439496 -155.2089726599441,75.4953576439496&#10;c -74.88,-31.104 -46.08,108.86399999999999 -1.1373259026036635,183.70464235605039 c -0.0,132.81149193322582 28.8,225.05426806629902 -111.48584290713121,188.766268066299&#10;c -30.11676164853168,-31.104 -32.37553876847089,0 -32.37553876847089,70.43373193370098&#10;c 0,68.44417089876839 57.95595575884554,99.54817089876839 145.30519200782285,68.44417089876839&#10;c 74.88,-31.104 46.08,108.86399999999999 -1.4438103322207496,190.7558291012316 c -0.0,62.38134291966809 28.8,249.62702090208361 -9.917298596826738,213.3390209020836&#10;c -53.8563474984755,-31.104 -140.66139894592146,0 -140.66139894592146,45.860979097916385&#10;c 0,67.47081945857218 58.923699536559944,98.57481945857218 101.78516372737184,67.47081945857218&#10;c 74.88,-31.104 46.08,108.86399999999999 48.79353381537635,191.7291805414278 c 0.0,149.34725522259725 -28.8,232.4412246566705 121.93935727507514,196.1532246566705&#10;c 25.945932583653835,-31.104 71.7663180070237,0 71.7663180070237,63.0467753433295&#10;c 0,47.40311833426915 -92.86391210371389,78.50711833426915 -104.39543054019077,47.40311833426915&#10;c -74.88,-31.104 -46.08,108.86399999999999 -89.31024474190806,211.79688166573084 L 0 2592 " fill="none" stroke="black" stroke-width="0.1" style="vector-effect:non-scaling-stroke;" /></g><g><path d="M 0 0  L 4032.000000 0  c -0.0,106.5879135250651 28.8,255.8973825645113 -52.656236285690184,219.6093825645113&#10;c -43.433283247328646,-31.104 -112.42276027629084,0 -112.42276027629084,39.590617435488696&#10;c 0,77.57795747012591 83.39823447065281,108.68195747012591 97.52191755733749,77.57795747012591&#10;c 74.88,-31.104 46.08,108.86399999999999 67.55707900464354,181.62204252987408 c 0.0,145.00824101679217 -28.8,244.31286991703195 84.43788920916724,208.02486991703194&#10;c 25.487877352766873,-31.104 65.59871269642598,0 65.59871269642598,51.17513008296805&#10;c 0,49.29865088810607 -14.642848837980475,80.40265088810607 -49.07186015845346,49.29865088810607&#10;c -74.88,-31.104 -46.08,108.86399999999999 -100.96474174713975,209.90134911189392 c -0.0,70.10477585733267 28.8,214.8277512357639 -106.78337592560894,178.5397512357639&#10;c -16.21916273115218,-31.104 -51.7952283260675,0 -51.7952283260675,80.66024876423609&#10;c 0,72.11220321816359 28.017809118723864,103.21620321816359 40.44289946535207,72.11220321816359&#10;c 74.88,-31.104 46.08,108.86399999999999 118.13570478632437,187.0877967818364 c 0.0,115.08888343002292 -28.8,221.53289307137132 46.525763716092975,185.2448930713713&#10;c 59.16841167597599,-31.104 109.44892508379098,0 109.44892508379098,73.95510692862868&#10;c 0,65.24692262491101 -61.474878221465836,96.35092262491101 -89.93049415670005,65.24692262491101&#10;c -74.88,-31.104 -46.08,108.86399999999999 -66.0441946431839,193.95307737508898 c 0.0,138.7218273832539 -28.8,232.9072634460789 27.768080324175283,196.6192634460789&#10;c 35.33721945642739,-31.104 115.738665613107,0 115.738665613107,62.5807365539211&#10;c 0,68.57789204338155 -45.55997306237914,99.68189204338155 -75.36215032790835,68.57789204338155&#10;c -74.88,-31.104 -46.08,108.86399999999999 -68.14459560937394,190.62210795661844 L 0 2592 " fill="none" stroke="black" stroke-width="0.1" style="vector-effect:non-scaling-stroke;" /></g></g><g><g><path d="M 0 0  L 0 518.400000  c 131.60348822610044,-0.0 256.06912941468886,25.92 215.74912941468887,-101.33387610871065&#10;c -34.56,-31.771267959776544 0,-70.665207846919 72.25087058531113,-70.665207846919&#10;c 44.3898678552311,0 78.9498678552311,23.478876234025563 44.3898678552311,102.5049704126713&#10;c -34.56,67.392 120.96,41.472 243.6101321447689,69.49411354295836 c 149.65898761946985,0.0 257.7826987342905,-25.92 217.46269873429048,103.98130103785084&#10;c -34.56,18.543170169048878 0,70.44207863757663 70.53730126570952,70.44207863757663&#10;c 51.969269608633624,0 86.52926960863363,-31.068915048971526 51.969269608633624,-95.06736017360699&#10;c -34.56,-67.392 120.96,-41.472 236.03073039136638,-79.35601950182048 c 71.41469626714809,-0.0 274.93640357395367,25.92 234.61640357395365,-48.893805976503565&#10;c -34.56,-56.027383927307234 0,-83.77465215587662 53.38359642604635,-83.77465215587662&#10;c 66.44583727216514,0 101.00583727216514,32.867071506278556 66.44583727216514,123.51646399708835&#10;c -34.56,67.392 120.96,41.472 221.55416272783486,9.15199413529183 c 149.25048988703713,-0.0 280.6458956666697,25.92 240.32589566666968,-95.52418206382055&#10;c -34.56,-21.94045863303366 0,-52.3471513473128 47.67410433333032,-52.3471513473128&#10;c 69.4714739876888,0 104.0314739876888,39.53126232896598 69.4714739876888,88.73925018931597&#10;c -34.56,67.392 120.96,41.472 218.5285260123112,59.13208322181738 c 58.72682457356238,-0.0 274.4213703417922,25.92 234.1013703417922,-105.42038526556365&#10;c -34.56,-54.35732032780043 0,-67.06647555798378 53.898629658207796,-67.06647555798378&#10;c 57.48129591707095,0 92.04129591707095,91.6267314395109 57.48129591707095,147.17511008097648&#10;c -34.56,67.392 120.96,41.472 230.51870408292905,25.31175074257095 c 50.58241507131731,-0.0 245.43446661967096,25.92 205.11446661967096,-27.353345367795022&#10;c -34.56,-126.56427153072231 0,-138.39853887455683 82.88553338032904,-138.39853887455683&#10;c 40.97854527969821,0 75.53854527969821,44.42549356047668 40.97854527969821,96.38183265274516&#10;c -34.56,67.392 120.96,41.472 247.0214547203018,69.37005158960669 c 161.0569289935842,-0.0 248.2660544552033,25.92 207.9460544552033,-40.43496006034649&#10;c -34.56,-56.145072100727745 0,-133.42252367673157 80.0539455447967,-133.42252367673157&#10;c 75.42482021704836,0 109.98482021704837,27.529553891905362 75.42482021704836,129.53807464480866&#10;c -34.56,67.392 120.96,41.472 212.57517978295164,44.31940909226941 c 147.45234658475167,0.0 241.13075660607535,-25.92 200.81075660607536,52.302801320591065&#10;c -34.56,50.14243504794703 0,87.27318438051188 87.18924339392464,87.27318438051188&#10;c 46.95116125934163,0 81.51116125934163,-35.59950144391158 46.95116125934163,-41.01436148874966&#10;c -34.56,-67.392 120.96,-41.472 241.04883874065837,-98.5616242123533 L 4608 0 " fill="none" stroke="black" stroke-width="0.1" style="vector-effect:non-scaling-stroke;" /></g><g><path d="M 0 0  L 0 1036.800000  c 154.68059048045026,0.0 273.43863840222826,-25.92 233.11863840222827,3.894967989335426&#10;c -34.56,121.51785342274107 0,169.50156043135487 54.88136159777173,169.50156043135487&#10;c 61.48892916844255,0 96.04892916844256,-55.4012531031919 61.48892916844255,-67.17931932245173&#10;c -34.56,-67.392 120.96,-41.472 226.51107083155745,-106.21720909823856 c 122.60516154664415,-0.0 239.62500939474154,25.92 199.30500939474155,-36.37748318905328&#10;c -34.56,-108.7110230152901 0,-114.68935851774508 88.69499060525845,-114.68935851774508&#10;c 73.28034759602451,0 107.84034759602451,50.710623233953186 73.28034759602451,68.86358962727734&#10;c -34.56,67.392 120.96,41.472 214.7196524039755,82.20325207952102 c 133.35604765353085,-0.0 274.1270194746701,25.92 233.80701947467006,-81.45726667867663&#10;c -34.56,-30.16440332869993 0,-84.2693611632869 54.19298052532994,-84.2693611632869&#10;c 85.26463010589185,0 119.82463010589186,59.342760370037055 85.26463010589185,80.17399025820052&#10;c -34.56,67.392 120.96,41.472 202.73536989410815,85.55263758376302 c 142.09346019465772,-0.0 272.34751686824956,25.92 232.02751686824956,7.20596467685763&#10;c -34.56,-133.04761327996465 0,-171.09231303185402 55.97248313175044,-171.09231303185402&#10;c 66.42871292176841,0 100.98871292176841,98.10408486588364 66.42871292176841,161.73325803876006&#10;c -34.56,67.392 120.96,41.472 221.5712870782316,2.15309031623633 c 116.88348225627534,-0.0 262.2999455982311,25.92 221.97994559823107,-35.22986695777805&#10;c -34.56,-36.48447664913243 0,-99.26444097823142 66.02005440176893,-99.26444097823142&#10;c 73.68980403026097,0 108.24980403026098,13.097197845512616 73.68980403026097,20.907737839972512&#10;c -34.56,67.392 120.96,41.472 214.31019596973903,113.58657009603697 c 43.86334077594924,-0.0 247.27014853108136,25.92 206.95014853108134,-47.149239263044414&#10;c -34.56,-66.81289570898728 0,-109.88358830804364 81.04985146891866,-109.88358830804364&#10;c 54.669288330693746,0 89.22928833069375,27.781792176507757 54.669288330693746,59.43503432983616&#10;c -34.56,67.392 120.96,41.472 233.33071166930625,97.5977932412519 c 32.40171431647593,0.0 253.98189361989586,-25.92 213.66189361989586,14.65648141670975&#10;c -34.56,124.99367507322276 0,144.15066134756117 74.33810638010414,144.15066134756117&#10;c 90.42553736800005,0 124.98553736800005,-54.48024225179772 90.42553736800005,-106.15451990121835&#10;c -34.56,-67.392 120.96,-41.472 197.57446263199995,-52.65262286305256 c 79.7674910978811,0.0 248.48315617991915,-25.92 208.16315617991916,45.5813966823198&#10;c -34.56,82.80762781898092 0,126.99781486771289 79.83684382008084,126.99781486771289&#10;c 57.83890791736326,0 92.39890791736326,-63.379506555433146 57.83890791736326,-132.68034933555052&#10;c -34.56,-67.392 120.96,-41.472 230.16109208263674,-39.898862214482165 L 4608 0 " fill="none" stroke="black" stroke-width="0.1" style="vector-effect:non-scaling-stroke;" /></g><g><path d="M 0 0  L 0 1555.200000  c 44.946857603455854,0.0 244.09662053538875,-25.92 203.77662053538873,53.43479818288657&#10;c -34.56,70.25789857193828 0,92.66460432680114 84.22337946461127,92.66460432680114&#10;c 82.57755248639018,0 117.13755248639018,-31.9585621285132 82.57755248639018,-118.86896657213337&#10;c -34.56,-67.392 120.96,-41.472 205.42244751360982,-27.230435937554333 c 36.940577242101725,0.0 239.62870403134986,-25.92 199.30870403134986,36.35238165036435&#10;c -34.56,50.33794287061497 0,98.177237534684 88.69129596865014,98.177237534684&#10;c 56.143410019587236,0 90.70341001958724,-65.5829140863913 56.143410019587236,-65.63113568300452&#10;c -34.56,-67.392 120.96,-41.472 231.85658998041276,-68.89848350204383 c 35.21161796471938,-0.0 286.50278008323255,25.92 246.18278008323256,9.256106295025944&#10;c -34.56,-56.86590361149184 0,-165.46735385297671 41.81721991676744,-165.46735385297671&#10;c 50.78876862146075,0 85.34876862146075,84.98208469863687 50.78876862146075,109.70764608992044&#10;c -34.56,67.392 120.96,41.472 237.21123137853925,46.503601468030325 c 34.44244782893188,0.0 262.89445315413394,-25.92 222.57445315413395,-0.07238189920759894&#10;c -34.56,60.79768094727382 0,145.94256878370481 65.42554684586605,145.94256878370481&#10;c 73.91470816262739,0 108.4747081626274,-71.61673596428352 73.91470816262739,-108.90981014207809&#10;c -34.56,-67.392 120.96,-41.472 214.0852918373726,-36.96037674241914 c 146.23688000922573,0.0 283.8834279926838,-25.92 243.56342799268376,67.60308156157117&#10;c -34.56,24.871448150385255 0,69.26094476255648 44.436572007316244,69.26094476255648&#10;c 62.554925282032684,0 97.11492528203269,-16.021369656614485 62.554925282032684,-34.57931761418408&#10;c -34.56,-67.392 120.96,-41.472 225.44507471796732,-102.28470870994357 c 92.49085889197897,-0.0 241.01350707684986,25.92 200.69350707684984,-4.2065361635379&#10;c -34.56,-153.29602607112642 0,-162.30414755031427 87.30649292315016,-162.30414755031427&#10;c 45.105028243474464,0 79.66502824347447,103.24447939114296 45.105028243474464,112.31174117485398&#10;c -34.56,67.392 120.96,41.472 242.89497175652554,54.19894253899818 c 87.58517159523151,0.0 239.4850411040636,-25.92 199.16504110406362,85.62143073541684&#10;c -34.56,19.010002095020926 0,42.72567935774133 88.83495889593638,42.72567935774133&#10;c 79.05154939440826,0 113.61154939440826,-59.09121890264455 79.05154939440826,-115.67826469250991&#10;c -34.56,-67.392 120.96,-41.472 208.94845060559174,-12.668845400648252 c 69.84639907146102,0.0 254.9047042899184,-25.92 214.58470428991842,1.594051779266214&#10;c -34.56,29.40801097916819 0,128.81904288568063 73.41529571008158,128.81904288568063&#10;c 46.25614970033325,0 80.81614970033326,-15.60436157823508 46.25614970033325,-58.189711702993804&#10;c -34.56,-67.392 120.96,-41.472 241.74385029966675,-72.22338296195304 L 4608 0 " fill="none" stroke="black" stroke-width="0.1" style="vector-effect:non-scaling-stroke;" /></g><g><path d="M 0 0  L 0 2073.600000  c 36.034880727979825,0.0 266.5792002861173,-25.92 226.25920028611733,24.13298705623213&#10;c -34.56,90.33267088277866 0,111.04291604269464 61.740799713882666,111.04291604269464&#10;c 72.29404928122005,0 106.85404928122006,-49.87142309270815 72.29404928122005,-76.65541618787958&#10;c -34.56,-67.392 120.96,-41.472 215.70595071877995,-58.520486911047186 c 129.63143837896646,0.0 246.291370597864,-25.92 205.97137059786397,24.851798456822934&#10;c -34.56,89.25145535529077 0,136.77678790681009 82.02862940213603,136.77678790681009&#10;c 43.20740117174114,0 77.76740117174114,-43.88975654699313 43.20740117174114,-78.52783121868087&#10;c -34.56,-67.392 120.96,-41.472 244.79259882825886,-83.10075514495215 c 75.14543429641655,0.0 273.89367137428235,-25.92 233.57367137428236,26.81994647232241&#10;c -34.56,57.29904251112003 0,145.6963807374284 54.426328625717645,145.6963807374284&#10;c 64.47177761835957,0 99.03177761835957,-43.3119683653608 64.47177761835957,-136.57286802580407&#10;c -34.56,-67.392 120.96,-41.472 223.52822238164043,-35.94345918394674 c 34.559039490610566,-0.0 264.74014909343765,25.92 224.42014909343766,-55.75740731632558&#10;c -34.56,-47.79313251346346 0,-81.895991365334 63.57985090656234,-81.895991365334&#10;c 66.92265121298442,0 101.48265121298442,14.930147695851309 66.92265121298442,51.92372638124206&#10;c -34.56,67.392 120.96,41.472 221.07734878701558,85.72967230041752 c 102.94830385631965,-0.0 242.56559399222,25.92 202.24559399221997,-16.063512266788187&#10;c -34.56,-113.33837970062955 0,-135.80546042500384 85.75440600778003,-135.80546042500384&#10;c 58.5708322701056,0 93.1308322701056,25.870663486909226 58.5708322701056,95.11454047417612&#10;c -34.56,67.392 120.96,41.472 229.4291677298944,56.754432217615914 c 130.80324428803854,0.0 282.79816384183533,-25.92 242.47816384183534,59.190498262458036&#10;c -34.56,78.35464390552156 0,80.66812330200777 45.52183615816466,80.66812330200777&#10;c 75.68008461554064,0 110.24008461554064,-25.71764049476451 75.68008461554064,-105.25150559887336&#10;c -34.56,-67.392 120.96,-41.472 212.31991538445936,-34.60711596559244 c 75.02136390591521,0.0 279.3159410785875,-25.92 238.99594107858752,65.80265391516349&#10;c -34.56,89.45266539339401 0,110.29555192104388 49.00405892141248,110.29555192104388&#10;c 91.29146471287123,0 125.85146471287123,-76.39733789205788 91.29146471287123,-111.56785751883646&#10;c -34.56,-67.392 120.96,-41.472 196.70853528712877,-64.53034831737091 c 29.9590415066011,-0.0 256.1584303933926,25.92 215.8384303933926,-71.09888476728177&#10;c -34.56,-48.41685371929945 0,-68.50565739017308 72.1615696066074,-68.50565739017308&#10;c 56.54398522986804,0 91.10398522986804,61.95175230163089 56.54398522986804,82.5653424656552&#10;c -34.56,67.392 120.96,41.472 231.45601477013196,57.03919969179965 L 4608 0 " fill="none" stroke="black" stroke-width="0.1" style="vector-effect:non-scaling-stroke;" /></g></g></svg>