<svg baseProfile="full" height="1667" preserveAspectRatio="none" shape-rendering="geometricPrecision" version="1.1" viewBox="0,0,2500,1667" width="2500" xmlns="http://www.w3.org/2000/svg" xmlns:ev="http://www.w3.org/2001/xml-events" xmlns:xlink="http://www.w3.org/1999/xlink"><title>Jigsaw puzzle piece clips</title><desc>Created with the piecemaker. Piece count: 15</desc><defs/><g><g><rect fill="white" height="1667" width="2500" x="0" y="0"/></g></g><g><g><path d="M 0 0  L 500.000000 0  c 0.0,97.84784992323709 -25.0,240.6789339386353 27.826235355788043,201.78226727196864
c 86.95439633228698,-33.339999999999996 135.8480906890106,0 135.8480906890106,76.05106606136468
c 0,52.76226590789264 -35.75007987495192,86.10226590789264 -101.58151098049461,52.76226590789264
c -65.0,-33.339999999999996 -40.0,116.68999999999998 -62.092815064304034,225.07106742544067 c -0.0,79.07127755980508 25.0,241.28323105904275 -59.94217151567727,202.38656439237607
c -35.60214873332667,-33.339999999999996 -95.27783392453128,0 -95.27783392453128,75.44676894095724
c 0,85.47448714525484 92.61072500731824,118.81448714525484 111.61442106830606,85.47448714525484
c 65.0,-33.339999999999996 40.0,116.68999999999998 43.605584371902495,192.35884618807847 c 0.0,56.45611525774073 -25.0,258.6410405983561 91.75997776795671,219.7443739316894
c 39.683964506413886,-33.339999999999996 65.89237239511345,0 65.89237239511345,58.088959401643905
c 0,62.762869595257484 -70.01194184660353,96.10286959525749 -148.45872361175972,62.762869595257484
c -65.0,-33.339999999999996 -40.0,116.68999999999998 -9.193626551310444,215.07046373807583 L 0 1667 " fill="none" stroke="black" stroke-width="0.1" style="vector-effect:non-scaling-stroke;"/></g><g><path d="M 0 0  L 1000.000000 0  c -0.0,103.77855686329463 25.0,239.45151656367713 -7.142419699248238,200.55484989701046
c -36.613385127125646,-33.339999999999996 -147.63430040864992,0 -147.63430040864992,77.27848343632286
c 0,43.41707522763829 30.51892265339369,76.7570752276383 141.20484510878146,43.41707522763829
c 65.0,-33.339999999999996 40.0,116.68999999999998 13.571874999116716,234.41625810569502 c 0.0,100.91860436414132 -25.0,230.84236127877034 3.8131290954721164,191.94569461210367
c 75.16543215150394,-33.339999999999996 153.83360441073486,0 153.83360441073486,85.88763872122965
c 0,41.6258346564735 -86.34256573263238,74.9658346564735 -119.22545480969112,41.6258346564735
c -65.0,-33.339999999999996 -40.0,116.68999999999998 -38.421278696515856,236.2074986768598 c -0.0,117.29727135902894 25.0,230.38725401829092 6.9005372273283925,191.49058735162424
c -84.62286315621664,-33.339999999999996 -160.86726466775977,0 -160.86726466775977,86.34274598170907
c 0,57.627374652278434 90.63867577483357,90.96737465227844 163.7330042955083,57.627374652278434
c 65.0,-33.339999999999996 40.0,116.68999999999998 -9.76627685507691,220.20595868105488 L 0 1667 " fill="none" stroke="black" stroke-width="0.1" style="vector-effect:non-scaling-stroke;"/></g><g><path d="M 0 0  L 1500.000000 0  c -0.0,125.35250471783107 25.0,257.66617055925695 -74.185715456647,218.7695038925903
c -55.503657503809784,-33.339999999999996 -63.1093720539417,0 -63.1093720539417,59.06382944074301
c 0,84.86516629996294 61.67442572688932,118.20516629996294 67.0287845498503,84.86516629996294
c 65.0,-33.339999999999996 40.0,116.68999999999998 70.2663029607384,192.96816703337038 c 0.0,41.04895977103152 -25.0,228.1684252401022 104.08649489713358,189.27175857343553
c 21.37437410499823,-33.339999999999996 61.5503225177321,0 61.5503225177321,88.56157475989778
c 0,52.0513130971234 -35.7176403179094,85.3913130971234 -169.6131870916981,52.0513130971234
c -65.0,-33.339999999999996 -40.0,116.68999999999998 3.9763696768324337,225.78202023620992 c -0.0,122.9482324631662 25.0,232.35727890510213 -44.32125841389666,193.46061223843546
c -90.4259838510256,-33.339999999999996 -98.44372924707278,0 -98.44372924707278,84.37272109489786
c 0,46.78916380469076 55.93987571208392,80.12916380469076 104.14034386008854,46.78916380469076
c 65.0,-33.339999999999996 40.0,116.68999999999998 38.624643800880904,231.04416952864256 L 0 1667 " fill="none" stroke="black" stroke-width="0.1" style="vector-effect:non-scaling-stroke;"/></g><g><path d="M 0 0  L 2000.000000 0  c 0.0,72.05057663632503 -25.0,266.27473660866616 27.687603865132125,227.37806994199948
c 67.6754334445305,-33.339999999999996 98.59487312885437,0 98.59487312885437,50.45526339133383
c 0,49.764370995775494 -70.89070852475855,83.1043709957755 -98.06763272670013,49.764370995775494
c -65.0,-33.339999999999996 -40.0,116.68999999999998 -28.21484426728638,228.06896233755782 c 0.0,89.58748990153205 -25.0,233.83407803404265 79.210018337119,194.93741136737597
c 18.79349915668107,-33.339999999999996 62.070383903254694,0 62.070383903254694,82.89592196595734
c 0,66.24588433117208 -84.90372331380985,99.58588433117208 -138.02951607414576,66.24588433117208
c -65.0,-33.339999999999996 -40.0,116.68999999999998 -3.2508861662279287,211.58744900216124 c 0.0,125.86464493740078 -25.0,239.1120022472357 49.80160724300557,200.21533558056902
c 22.128222911919746,-33.339999999999996 92.66160574652858,0 92.66160574652858,77.6179977527643
c 0,50.86217012780503 -28.66458181612652,84.20217012780503 -46.97499017582393,50.86217012780503
c -65.0,-33.339999999999996 -40.0,116.68999999999998 -95.48822281371022,226.97116320552828 L 0 1667 " fill="none" stroke="black" stroke-width="0.1" style="vector-effect:non-scaling-stroke;"/></g></g><g><g><path d="M 0 0  L 0 555.666667  c 137.17520295132422,0.0 225.08079590150052,-27.78333333333333 190.08079590150052,71.67248387731463
c -30.0,28.084514296602435 0,110.38873059841963 59.91920409849948,110.38873059841963
c 40.061215419728626,0 70.06121541972863,-66.99779658916775 40.061215419728626,-91.48332942814532
c -30.0,-72.23666666666666 105.0,-44.45333333333333 209.93878458027137,-90.57788504758894 c 92.64342858320207,-0.0 208.4209666462564,27.78333333333333 173.4209666462564,-51.597546582666766
c -30.0,-40.68955715786769 0,-134.14572988213837 76.5790333537436,-134.14572988213837
c 65.94052950241115,0 95.94052950241115,73.94770608758466 65.94052950241115,177.40677762694773
c -30.0,72.23666666666666 105.0,44.45333333333333 184.05947049758885,8.33649883785742 c 44.51073445367416,0.0 238.22465634893726,-27.78333333333333 203.22465634893726,-11.002937446648797
c -30.0,69.90214831225103 0,162.62857114831306 46.77534365106274,162.62857114831306
c 57.79811399521867,0 87.79811399521867,-12.273537232467744 57.79811399521867,-51.63748792294007
c -30.0,-72.23666666666666 105.0,-44.45333333333333 192.20188600478133,-99.9881457787242 c 33.678674616930024,-0.0 220.99801599989115,27.78333333333333 185.99801599989115,-47.282795842912535
c -30.0,-113.3113630414222 0,-114.7974790370922 64.00198400010885,-114.7974790370922
c 64.87847507836636,0 94.87847507836636,30.317591199801882 64.87847507836636,80.26922633653423
c -30.0,72.23666666666666 105.0,44.45333333333333 185.12152492163364,81.8110485434705 c 113.03344759253284,0.0 244.22899518554811,-27.78333333333333 209.22899518554811,23.690406176983526
c -30.0,66.38147152039608 0,141.5811948149333 40.771004814451885,141.5811948149333
c 47.61487796824673,0 77.61487796824673,-42.52414327295651 47.61487796824673,-43.97136852310919
c -30.0,-72.23666666666666 105.0,-44.45333333333333 202.38512203175327,-121.30023246880762 L 2500 0 " fill="none" stroke="black" stroke-width="0.1" style="vector-effect:non-scaling-stroke;"/></g><g><path d="M 0 0  L 0 1111.333333  c 126.71374775927397,-0.0 243.4565736258966,27.78333333333333 208.4565736258966,-56.59412259735058
c -30.0,-26.901690285481468 0,-117.58740680667685 41.543426374103404,-117.58740680667685
c 60.01997982918181,0 90.0199798291818,34.41283210895785 60.01997982918181,66.86249277077675
c -30.0,72.23666666666666 105.0,44.45333333333333 189.9800201708182,107.31903663325068 c 48.30819492845213,0.0 222.17656352677625,-27.78333333333333 187.17656352677625,-2.2783007071071126
c -30.0,38.878033271809635 0,176.12845950846537 62.82343647322375,176.12845950846537
c 49.08815938363654,0 79.08815938363654,-58.5180717111416 49.08815938363654,-119.15348434341732
c -30.0,-72.23666666666666 105.0,-44.45333333333333 200.91184061636346,-54.69667445794093 c 142.03548788158557,0.0 236.1128147643093,-27.78333333333333 201.1128147643093,92.23045452349437
c -30.0,21.423312229547175 0,76.86901352041816 48.88718523569071,76.86901352041816
c 53.453360105077195,0 83.4533601050772,-61.69791205200751 53.453360105077195,-162.81423079994826
c -30.0,-72.23666666666666 105.0,-44.45333333333333 196.5466398949228,-6.285237243964275 c 141.08742324341614,-0.0 240.7690968881384,27.78333333333333 205.7690968881384,-91.65587593055263
c -30.0,-73.89891108267959 0,-77.24793905803996 44.23090311186161,-77.24793905803996
c 55.07439027392246,0 85.07439027392246,72.53188467484381 55.07439027392246,155.48001577295392
c -30.0,72.23666666666666 105.0,44.45333333333333 194.92560972607754,13.423799215638667 c 25.827110902631073,0.0 211.8739829790998,-27.78333333333333 176.8739829790998,64.51360379307829
c -30.0,81.76220060915307 0,84.81577771701006 73.1260170209002,84.81577771701006
c 35.34475650241956,0 65.34475650241956,-35.09686769019487 35.34475650241956,-67.59764911646516
c -30.0,-72.23666666666666 105.0,-44.45333333333333 214.65524349758044,-81.73173239362319 L 2500 0 " fill="none" stroke="black" stroke-width="0.1" style="vector-effect:non-scaling-stroke;"/></g></g></svg>