<svg baseProfile="full" height="1632" preserveAspectRatio="none" shape-rendering="geometricPrecision" version="1.1" viewBox="0,0,2464,1632" width="2464" xmlns="http://www.w3.org/2000/svg" xmlns:ev="http://www.w3.org/2001/xml-events" xmlns:xlink="http://www.w3.org/1999/xlink"><title>Jigsaw puzzle piece clips</title><desc>Created with the piecemaker. Piece count: 24</desc><defs/><g><g><rect fill="white" height="1632" width="2464" x="0" y="0"/></g></g><g><g><path d="M 0 0  L 410.666667 0  c 0.0,77.59804180872261 -20.533333333333335,196.72270950301413 -7.816912362095877,168.16270950301413
c 62.92047869755199,-24.48 112.17616508244538,0 112.17616508244538,35.83729049698587
c 0,37.6855547646918 -84.71745910454275,62.165554764691805 -107.9957062213962,37.6855547646918
c -53.38666666666667,-24.48 -32.85333333333334,85.67999999999999 3.6364535010467023,166.3144452353082 c 0.0,92.45366622558508 -20.533333333333335,175.76023148559577 39.03997928603499,147.20023148559576
c 62.39010138011599,-24.48 92.27858612076739,0 92.27858612076739,56.799768514404235
c 0,53.629276250233886 -42.32286178458789,78.10927625023389 -115.38006076069045,53.629276250233886
c -53.38666666666667,-24.48 -32.85333333333334,85.67999999999999 -15.938504646111923,150.3707237497661 c 0.0,91.84577160776244 -20.533333333333335,170.33856019939688 9.380809395807848,141.77856019939688
c 42.89821882985009,-24.48 118.89996353521123,0 118.89996353521123,62.22143980060312
c 0,58.07987088251787 -18.255637412593455,82.55987088251787 -59.794640998186466,58.07987088251787
c -53.38666666666667,-24.48 -32.85333333333334,85.67999999999999 -68.4861319328326,145.92012911748213 c 0.0,113.46469274601799 -20.533333333333335,198.04374523356125 42.71499185743449,169.48374523356125
c 74.59591756519009,-24.48 94.11820047922231,0 94.11820047922231,34.51625476643875
c 0,54.41823966299512 -56.22683038259757,78.89823966299512 -134.14495217891343,54.41823966299512
c -53.38666666666667,-24.48 -32.85333333333334,85.67999999999999 -2.6882401577433654,149.58176033700488 L 0 1632 " fill="none" stroke="black" stroke-width="0.1" style="vector-effect:non-scaling-stroke;"/></g><g><path d="M 0 0  L 821.333333 0  c 0.0,106.70574296554554 -20.533333333333335,180.72330295766193 73.85533286081352,152.16330295766193
c 38.02019843745147,-24.48 40.83454799770506,0 40.83454799770506,51.83669704233807
c 0,59.18650011368021 -32.155248205213844,83.66650011368021 -47.931591698009726,59.18650011368021
c -53.38666666666667,-24.48 -32.85333333333334,85.67999999999999 -66.75828916050885,144.8134998863198 c 0.0,58.95931483758327 -20.533333333333335,169.80101675698813 85.95364017718137,141.24101675698813
c 25.27240965160553,-24.48 50.98561348168445,0 50.98561348168445,62.75898324301187
c 0,42.80742214671187 -31.02668892554142,67.28742214671188 -52.38891312670452,42.80742214671187
c -53.38666666666667,-24.48 -32.85333333333334,85.67999999999999 -84.5503405321613,161.19257785328813 c -0.0,42.37754776448693 20.533333333333335,195.50028054725243 -9.34378796078158,166.94028054725243
c -88.00869157458023,-24.48 -121.3588469270887,0 -121.3588469270887,37.05971945274757
c 0,32.05849331553557 36.47154548311731,56.538493315535575 116.26176265152642,32.05849331553557
c 53.38666666666667,-24.48 32.85333333333334,85.67999999999999 14.440872236343864,171.94150668446443 c 0.0,52.986477207889465 -20.533333333333335,197.6990465042245 79.58967143326615,169.1390465042245
c 22.820693844905616,-24.48 32.58808437761694,0 32.58808437761694,34.860953495775505
c 0,30.323897680700497 -16.425485923192053,54.8038976807005 -26.50975975978112,30.323897680700497
c -53.38666666666667,-24.48 -32.85333333333334,85.67999999999999 -85.66799605110197,173.6761023192995 L 0 1632 " fill="none" stroke="black" stroke-width="0.1" style="vector-effect:non-scaling-stroke;"/></g><g><path d="M 0 0  L 1232.000000 0  c 0.0,74.0122011800129 -20.533333333333335,179.4704835092337 69.94492852612439,150.9104835092337
c 20.097150085565897,-24.48 59.92769938035488,0 59.92769938035488,53.0895164907663
c 0,57.3717306709558 -37.879264485822844,81.8517306709558 -107.55728855685585,57.3717306709558
c -53.38666666666667,-24.48 -32.85333333333334,85.67999999999999 -22.315339349623414,146.6282693290442 c -0.0,75.56377845920639 20.533333333333335,200.4814104971312 -41.193136394798834,171.9214104971312
c -46.85474663630372,-24.48 -70.78684033594052,0 -70.78684033594052,32.078589502868795
c 0,64.21739717630601 45.78650307100478,88.69739717630601 78.11246142055245,64.21739717630601
c 53.38666666666667,-24.48 32.85333333333334,85.67999999999999 33.86751531018692,139.782602823694 c 0.0,116.82313341247723 -20.533333333333335,178.53630878160288 81.77045745814381,149.97630878160288
c 25.334455987582448,-24.48 29.47152704587056,0 29.47152704587056,54.02369121839712
c 0,37.469330707002285 -18.96290588470462,61.94933070700229 -30.508083159588935,37.469330707002285
c -53.38666666666667,-24.48 -32.85333333333334,85.67999999999999 -80.73390134442543,166.53066929299771 c -0.0,77.83375831331337 20.533333333333335,181.31970677204222 -75.63118227781484,152.75970677204222
c -30.34261315074162,-24.48 -54.795635350840115,0 -54.795635350840115,51.24029322795778
c 0,34.81390752673744 112.23697286884888,59.29390752673744 120.11745162218851,34.81390752673744
c 53.38666666666667,-24.48 32.85333333333334,85.67999999999999 10.309366006466448,169.18609247326256 L 0 1632 " fill="none" stroke="black" stroke-width="0.1" style="vector-effect:non-scaling-stroke;"/></g><g><path d="M 0 0  L 1642.666667 0  c 0.0,46.824224654385034 -20.533333333333335,176.0972972096689 48.190152922699404,147.5372972096689
c 35.13794639132193,-24.48 68.22466136971892,0 68.22466136971892,56.46270279033109
c 0,33.01935613241662 -81.71293400382763,57.49935613241662 -82.93675089921311,33.01935613241662
c -53.38666666666667,-24.48 -32.85333333333334,85.67999999999999 -33.47806339320522,170.98064386758338 c -0.0,66.56745569106246 20.533333333333335,171.3619259701077 -55.10625276605812,142.8019259701077
c -39.860577926746615,-24.48 -56.83997927329831,0 -56.83997927329831,61.1980740298923
c 0,48.56305551214459 37.72170017358216,73.04305551214459 51.006240787794724,48.56305551214459
c 53.38666666666667,-24.48 32.85333333333334,85.67999999999999 60.93999125156171,155.4369444878554 c 0.0,41.156774719618376 -20.533333333333335,169.98763394995325 18.455299107111536,141.42763394995325
c 24.506251843311162,-24.48 108.52785211020023,0 108.52785211020023,62.57236605004675
c 0,53.89300191071732 -76.16899093660211,78.37300191071732 -116.91484833987548,53.89300191071732
c -53.38666666666667,-24.48 -32.85333333333334,85.67999999999999 -10.068302877436281,150.10699808928268 c -0.0,30.522933631890126 20.533333333333335,172.16681221432825 -65.529109058966,143.60681221432824
c -27.608160669752284,-24.48 -48.00694639163942,0 -48.00694639163942,60.393187785671756
c 0,58.86767166929377 49.31470186166505,83.34767166929377 106.255800760344,58.86767166929377
c 53.38666666666667,-24.48 32.85333333333334,85.67999999999999 7.280254690261415,145.13232833070623 L 0 1632 " fill="none" stroke="black" stroke-width="0.1" style="vector-effect:non-scaling-stroke;"/></g><g><path d="M 0 0  L 2053.333333 0  c 0.0,115.3591386199013 -20.533333333333335,180.53101761601891 44.47556668489374,151.9710176160189
c 16.616408284551472,-24.48 64.1490366473123,0 64.1490366473123,52.02898238398109
c 0,51.7417523637462 -13.499212012800031,76.2217523637462 -28.26508541790163,51.7417523637462
c -53.38666666666667,-24.48 -32.85333333333334,85.67999999999999 -80.35951791430442,152.2582476362538 c -0.0,52.221307123413766 20.533333333333335,196.29370677389974 -37.20395395825724,167.73370677389974
c -36.92484626557344,-24.48 -69.58667557522156,0 -69.58667557522156,36.26629322610026
c 0,46.857692605979054 67.52351644897706,71.33769260597906 81.47634664554275,46.857692605979054
c 53.38666666666667,-24.48 32.85333333333334,85.67999999999999 25.31428288793606,157.14230739402095 c -0.0,65.21325584136 20.533333333333335,185.4485707461355 -47.66204582251279,156.88857074613549
c -44.680657327693766,-24.48 -59.45522542488212,0 -59.45522542488212,47.111429253864515
c 0,47.06850696172879 63.74820813324241,71.54850696172879 85.29950190023176,47.06850696172879
c 53.38666666666667,-24.48 32.85333333333334,85.67999999999999 21.81776934716315,156.9314930382712 c 0.0,53.22736811224285 -20.533333333333335,184.3399114480676 23.98121181698106,155.7799114480676
c 101.68753245972063,-24.48 102.96066646781938,0 102.96066646781938,48.220088551932406
c 0,49.619729770007524 -46.90359378155357,74.09972977000753 -119.72871046838523,49.619729770007524
c -53.38666666666667,-24.48 -32.85333333333334,85.67999999999999 -7.213167816415208,154.38027022999248 L 0 1632 " fill="none" stroke="black" stroke-width="0.1" style="vector-effect:non-scaling-stroke;"/></g></g><g><g><path d="M 0 0  L 0 408.000000  c 111.3102684315512,-0.0 194.36848414121414,20.400000000000002 165.62181747454747,-48.06896066139375
c -24.64,-51.74429124873037 0,-51.279389106054985 39.71151585878587,-51.279389106054985
c 46.610043458387395,0 71.2500434583874,84.70031365800384 46.610043458387395,88.76729188142326
c -24.64,53.04 86.24,32.64 158.72328987494595,10.581057886025476 c 33.99850100618672,0.0 193.97247981001516,-20.400000000000002 165.2258131433485,40.914589478803855
c -24.64,45.25266686147007 0,57.77141902651345 40.107520189984854,57.77141902651345
c 48.15914975961263,0 72.79914975961263,-17.094698270158688 48.15914975961263,-38.20142772641315
c -24.64,-53.04 86.24,-32.64 157.1741835737207,-60.48458077890415 c 56.57560718210542,0.0 171.0581661595863,-20.400000000000002 142.31149949291964,1.7730516180687723
c -24.64,60.0034586977811 0,119.9310342515305 63.021833840413706,119.9310342515305
c 58.180042740505,0 82.820042740505,-50.49678330562853 58.180042740505,-100.17534540398053
c -24.64,-53.04 86.24,-32.64 147.15329059282834,-21.528740465618753 c 36.23349310377846,-0.0 172.96946499091007,20.400000000000002 144.2227983242434,-51.02264696040241
c -24.64,-34.65557169561676 0,-51.376307310939836 61.11053500908994,-51.376307310939836
c 39.72111028320069,0 64.36111028320069,69.11994043289823 39.72111028320069,84.09548027902517
c -24.64,53.04 86.24,32.64 165.61222305013266,18.30347399231708 c 35.02664402793738,-0.0 189.9533227726126,20.400000000000002 161.20665610594594,-44.105340868084944
c -24.64,-23.128681803540175 0,-92.94265720363157 44.126677227387404,-92.94265720363157
c 54.24387990352099,0 78.88387990352099,51.098349298627504 54.24387990352099,125.18966014311319
c -24.64,53.04 86.24,32.64 151.08945342981235,11.85833792860332 c 36.33790853347231,0.0 173.09765321145602,-20.400000000000002 144.35098654478935,81.53708743745699
c -24.64,17.324670134291317 0,19.98004875784156 60.98234678854399,19.98004875784156
c 51.27053157113133,0 75.91053157113133,-13.845207106699016 51.27053157113133,-22.460986375401504
c -24.64,-53.04 86.24,-32.64 154.062801762202,-79.05614981989704 L 2464 0 " fill="none" stroke="black" stroke-width="0.1" style="vector-effect:non-scaling-stroke;"/></g><g><path d="M 0 0  L 0 816.000000  c 93.2119462661274,0.0 183.6839849011763,-20.400000000000002 154.93731823450963,45.0606794305503
c -24.64,43.844867501282266 0,56.969922267289455 50.39601509882371,56.969922267289455
c 57.72348944369227,0 82.36348944369227,-15.506789312024894 57.72348944369227,-43.96542984659858
c -24.64,-53.04 86.24,-32.64 147.60984388964107,-58.065171851241175 c 34.14992360394443,0.0 176.7048204452769,-20.400000000000002 147.95815377861024,30.13081345487035
c -24.64,70.39515746476496 0,100.23433100662226 57.375179554723104,100.23433100662226
c 35.44833728664875,0 60.08833728664875,-52.794957648538514 35.44833728664875,-85.06495322685174
c -24.64,-53.04 86.24,-32.64 169.8849960466846,-45.30019123464086 c 75.11895380270943,-0.0 191.7985861605425,20.400000000000002 163.05191949387583,-48.36289401593221
c -24.64,-31.646011602898618 0,-64.63009255077608 42.281413839457514,-64.63009255077608
c 50.497449709905,0 75.137449709905,24.641623559708528 50.497449709905,40.25998914335915
c -24.64,53.04 86.24,32.64 154.83588362342834,72.73299742334915 c 93.09510719614346,-0.0 186.5557920571758,20.400000000000002 157.80912539050914,-26.881697183886228
c -24.64,-57.67672065932394 0,-102.56429385677292 47.524207942824205,-102.56429385677292
c 32.555520912963175,0 57.195520912963175,46.06902612559713 32.555520912963175,67.41512573792645
c -24.64,53.04 86.24,32.64 172.77781242037017,62.03086530273271 c 68.0584748393293,-0.0 177.8552374802232,20.400000000000002 149.10857081355653,-17.522128114643216
c -24.64,-73.59565692326547 0,-104.39704744173315 56.22476251977682,-104.39704744173315
c 36.16514821295516,0 60.80514821295516,30.195206328576813 36.16514821295516,64.05035467802333
c -24.64,53.04 86.24,32.64 169.16818512037818,57.868820878353034 c 27.436644987038385,0.0 176.93108081339622,-20.400000000000002 148.18441414672955,56.112141615065916
c -24.64,12.85815238158871 0,48.83192082914497 57.14891918660379,48.83192082914497
c 43.716251886735904,0 68.3562518867359,-12.689595988113977 43.716251886735904,-55.12419204748156
c -24.64,-53.04 86.24,-32.64 161.61708144659744,-49.81987039672933 L 2464 0 " fill="none" stroke="black" stroke-width="0.1" style="vector-effect:non-scaling-stroke;"/></g><g><path d="M 0 0  L 0 1224.000000  c 72.18705580336842,0.0 184.91412916867813,-20.400000000000002 156.16746250201146,68.5909686313451
c -24.64,9.704926952126492 0,42.11458172148582 49.16587083132188,42.11458172148582
c 60.840418277070256,0 85.48041827707026,-32.96276992359906 60.840418277070256,-81.85121943179593
c -24.64,-53.04 86.24,-32.64 144.4929150562631,-28.854330921035 c 102.38448087415799,0.0 193.59249037885033,-20.400000000000002 164.84582371218366,42.31445190041916
c -24.64,31.59369369195669 0,73.06968534996305 40.487509621149684,73.06968534996305
c 51.68714331357356,0 76.32714331357356,-114.75976527654883 51.68714331357356,-116.5670828973344
c -24.64,-53.04 86.24,-32.64 153.64619001975979,1.1829456469521915 c 96.33224067455482,-0.0 202.44290085877356,20.400000000000002 173.69623419210689,-9.52703867288586
c -24.64,-69.30263487502616 0,-114.6318806742261 31.637099141226457,-114.6318806742261
c 48.44581372295565,0 73.08581372295565,36.531345274614175 48.44581372295565,47.02376160909826
c -24.64,53.04 86.24,32.64 156.8875196103777,77.1351577380137 c 55.518346329438096,-0.0 186.87129576595035,20.400000000000002 158.12462909928368,-82.36007322934535
c -24.64,-21.575256541069322 0,-27.988459248252298 47.20870423404966,-27.988459248252298
c 32.82482587263988,0 57.46482587263988,44.13309122005359 32.82482587263988,90.74074176445552
c -24.64,53.04 86.24,32.64 172.50850746069347,19.607790713142123 c 31.955975467664576,0.0 175.6452893898131,-20.400000000000002 146.89862272314642,34.585834932479166
c -24.64,64.58370577177662 0,74.89666188980979 58.434710610186926,74.89666188980979
c 38.237318840997204,0 62.877318840997205,-25.332344420220394 38.237318840997204,-35.078671196651655
c -24.64,-53.04 86.24,-32.64 167.09601449233614,-74.40382562563731 c 71.83615461668612,0.0 185.95669259996635,-20.400000000000002 157.21002593329968,56.771496796686776
c -24.64,28.645977857542402 0,58.236910971382784 48.12330740003367,58.236910971382784
c 46.271194065367155,0 70.91119406536716,-24.793670131539997 46.271194065367155,-113.60075388606113
c -24.64,-53.04 86.24,-32.64 159.0621392679662,-1.4076538820084323 L 2464 0 " fill="none" stroke="black" stroke-width="0.1" style="vector-effect:non-scaling-stroke;"/></g></g></svg>