<svg baseProfile="full" height="901" preserveAspectRatio="none" shape-rendering="geometricPrecision" version="1.1" viewBox="0,0,1280,901" width="1280" xmlns="http://www.w3.org/2000/svg" xmlns:ev="http://www.w3.org/2001/xml-events" xmlns:xlink="http://www.w3.org/1999/xlink"><title>Jigsaw puzzle piece clips</title><desc>Created with the piecemaker. Piece count: 35</desc><defs /><g><g><rect fill="white" height="901" width="1280" x="0" y="0" /></g></g><g><g><path d="M 0 0  L 182.857143 0  c 0.0,17.399538010802782 -9.142857142857144,89.08370319876514 -0.16900176007956474,76.46970319876513&#10;c 20.310454484183325,-10.812 48.770703556148504,0 48.770703556148504,13.630296801234863&#10;c 0,25.022866529085164 -45.4462493665583,35.83486652908516 -51.28174451660043,25.022866529085164&#10;c -23.771428571428572,-10.812 -14.62857142857143,37.842 2.680042720531496,65.07713347091483 c 0.0,41.20108752294287 -9.142857142857144,80.5584717068051 29.310081376022346,67.94447170680509&#10;c 14.114142750982149,-10.812 17.206950601900253,0 17.206950601900253,22.155528293194905&#10;c 0,26.713628170166075 -2.773925574540289,37.52562817016607 -12.077842413296253,26.713628170166075&#10;c -23.771428571428572,-10.812 -14.62857142857143,37.842 -34.439189564626346,63.38637182983392 c -0.0,35.0938126340743 9.142857142857144,80.04749018631898 -34.85507697443484,67.43349018631898&#10;c -8.215956711741827,-10.812 -13.81587853451596,0 -13.81587853451596,22.666509813681017&#10;c 0,13.908113130180197 21.639018221760747,24.720113130180195 26.131520368408527,13.908113130180197&#10;c 23.771428571428572,-10.812 14.62857142857143,37.842 22.53943514054227,76.1918868698198 c -0.0,36.57300370335397 9.142857142857144,80.14211301011066 -9.144564131831457,67.52811301011066&#10;c -11.31055034932679,-10.812 -47.8543551793896,0 -47.8543551793896,22.571886989889336&#10;c 0,19.266421805021153 13.507209286395726,30.07842180502115 30.330729873169815,19.266421805021153&#10;c 23.771428571428572,-10.812 14.62857142857143,37.842 26.668189438051243,70.83357819497884 c -0.0,33.42188990091408 9.142857142857144,81.42762658616644 -16.836921877248223,68.81362658616644&#10;c -35.85344879578761,-10.812 -38.196997127588084,0 -38.196997127588084,21.28637341383356&#10;c 0,23.79466449889526 20.908992092824423,34.606664498895256 26.62824145581174,23.79466449889526&#10;c 23.771428571428572,-10.812 14.62857142857143,37.842 28.405677549024567,66.30533550110474 L 0 901 " fill="none" stroke="black" stroke-width="0.1" style="vector-effect:non-scaling-stroke;" /></g><g><path d="M 0 0  L 365.714286 0  c -0.0,42.403538960005136 9.142857142857144,89.86611524995476 -25.946695649312517,77.25211524995476&#10;c -9.060425042280434,-10.812 -19.48268092703445,0 -19.48268092703445,12.847884750045239&#10;c 0,21.58854157192272 19.678332327011784,32.400541571922716 46.274316917163986,21.58854157192272&#10;c 23.771428571428572,-10.812 14.62857142857143,37.842 -0.8449403408170184,68.51145842807728 c 0.0,35.7456637359151 -9.142857142857144,85.20384240371897 15.74168118771139,72.58984240371896&#10;c 37.20551697524805,-10.812 44.69623100458648,0 44.69623100458648,17.510157596281033&#10;c 0,26.55650348469291 -30.47269789345754,37.36850348469291 -34.599470008601756,26.55650348469291&#10;c -23.771428571428572,-10.812 -14.62857142857143,37.842 -25.838442183696117,63.54349651530708 c -0.0,36.48733498797283 9.142857142857144,82.35877856168504 -19.82939234081625,69.74477856168504&#10;c -35.25279767504586,-10.812 -35.494443212271385,0 -35.494443212271385,20.355221438314956&#10;c 0,16.606750957364085 52.553503251397785,27.418750957364082 52.884635869328676,16.606750957364085&#10;c 23.771428571428572,-10.812 14.62857142857143,37.842 2.4391996837589573,73.49324904263591 c 0.0,51.858004578447634 -9.142857142857144,82.13870966628156 0.4804335624927081,69.52470966628155&#10;c 56.595387814968824,-10.812 58.18890799438644,0 58.18890799438644,20.575290333718442&#10;c 0,23.57145780885726 -8.483343215753257,34.38345780885726 -19.73256593086051,23.57145780885726&#10;c -23.771428571428572,-10.812 -14.62857142857143,37.842 -38.93677562601864,66.52854219114273 c -0.0,41.40290345274066 9.142857142857144,87.26336664121054 -23.361742529627787,74.64936664121053&#10;c -19.52235601162753,-10.812 -28.637664820912487,0 -28.637664820912487,15.45063335878946&#10;c 0,21.22113811217723 19.58675219606411,32.03313811217723 19.47931178813687,21.22113811217723&#10;c 23.771428571428572,-10.812 14.62857142857143,37.842 32.520095562403405,68.87886188782277 L 0 901 " fill="none" stroke="black" stroke-width="0.1" style="vector-effect:non-scaling-stroke;" /></g><g><path d="M 0 0  L 548.571429 0  c -0.0,39.89665075966544 9.142857142857144,75.95767474351791 2.0129741011716082,63.34367474351791&#10;c -23.61621828812984,-10.812 -51.32928379811014,0 -51.32928379811014,26.756325256482086&#10;c 0,22.0340123122579 29.94255065769188,32.8460123122579 31.686712906186862,22.0340123122579&#10;c 23.771428571428572,-10.812 14.62857142857143,37.842 17.62959679075167,68.0659876877421 c -0.0,33.23232250527048 9.142857142857144,80.80445287052915 -17.818810593244496,68.19045287052914&#10;c -19.757678801945012,-10.812 -44.05652288434126,0 -44.05652288434126,21.90954712947085&#10;c 0,28.24111372012929 9.502029382804443,39.05311372012929 22.10853606366367,28.24111372012929&#10;c 23.771428571428572,-10.812 14.62857142857143,37.842 39.766797413922085,61.8588862798707 c -0.0,31.917625323435804 9.142857142857144,78.49103924119453 -4.9732823432945805,65.87703924119452&#10;c -34.22809325330615,-10.812 -43.10217013314439,0 -43.10217013314439,24.22296075880547&#10;c 0,20.35264277856838 29.97111535577717,31.16464277856838 30.605803516049797,20.35264277856838&#10;c 23.771428571428572,-10.812 14.62857142857143,37.842 17.469648960389172,69.74735722143161 c -0.0,36.00854532602996 9.142857142857144,73.95147307749926 2.6076166432308208,61.33747307749926&#10;c -27.895438694128014,-10.812 -50.29200786218294,0 -50.29200786218294,28.762526922500733&#10;c 0,22.665399809948553 9.573945424258149,33.47739980994855 16.249170534412272,22.665399809948553&#10;c 23.771428571428572,-10.812 14.62857142857143,37.842 31.43522068453985,67.43460019005144 c -0.0,16.592909888061765 9.142857142857144,85.04382092260944 -14.840646875664445,72.42982092260944&#10;c -7.335180880501735,-10.812 -30.67859308582262,0 -30.67859308582262,17.670179077390557&#10;c 0,21.03721248731678 2.51583021343423,31.849212487316777 5.3856037898974165,21.03721248731678&#10;c 23.771428571428572,-10.812 14.62857142857143,37.842 40.13363617158965,69.06278751268322 L 0 901 " fill="none" stroke="black" stroke-width="0.1" style="vector-effect:non-scaling-stroke;" /></g><g><path d="M 0 0  L 731.428571 0  c 0.0,28.259405575812334 -9.142857142857144,81.01607823434306 20.44794296429349,68.40207823434305&#10;c 31.269470251264003,-10.812 34.822000161911205,0 34.822000161911205,21.697921765656943&#10;c 0,23.59390840535997 -10.650592350427745,34.405908405359966 -17.68814125552108,23.59390840535997&#10;c -23.771428571428572,-10.812 -14.62857142857143,37.842 -37.58180187068361,66.50609159464003 c 0.0,12.26031498008991 -9.142857142857144,76.55070298292104 19.318705126195642,63.936702982921034&#10;c 35.65881805068097,-10.812 39.18249154428386,0 39.18249154428386,26.16329701707896&#10;c 0,20.47543998868447 -15.93256212737881,31.28743998868447 -26.30460638678629,20.47543998868447&#10;c -23.771428571428572,-10.812 -14.62857142857143,37.842 -32.19659028369321,69.62456001131552 c -0.0,45.266363405961016 9.142857142857144,81.08238035018113 -27.117635823362498,68.46838035018112&#10;c -20.21224054701222,-10.812 -33.12445505100725,0 -33.12445505100725,21.631619649818873&#10;c 0,16.214228244784508 10.315720686248357,27.026228244784505 22.317761207616854,16.214228244784508&#10;c 23.771428571428572,-10.812 14.62857142857143,37.842 37.9243296667529,73.88577175521549 c -0.0,26.538506112134087 9.142857142857144,89.20252623447291 1.0322814311857123,76.58852623447291&#10;c -37.518692890099096,-10.812 -56.91550627922925,0 -56.91550627922925,13.511473765527086&#10;c 0,21.023761399700163 34.2553271035996,31.83576139970016 51.08817170715502,21.023761399700163&#10;c 23.771428571428572,-10.812 14.62857142857143,37.842 4.79505314088852,69.07623860029983 c -0.0,41.934682057656 9.142857142857144,74.24135413243644 -5.497734818911783,61.62735413243644&#10;c -12.509263233163987,-10.812 -44.667424368278496,0 -44.667424368278496,28.472645867563557&#10;c 0,15.096504543650568 30.482228321596484,25.908504543650565 35.11861420448602,15.096504543650568&#10;c 23.771428571428572,-10.812 14.62857142857143,37.842 15.046544982704255,75.00349545634943 L 0 901 " fill="none" stroke="black" stroke-width="0.1" style="vector-effect:non-scaling-stroke;" /></g><g><path d="M 0 0  L 914.285714 0  c -0.0,39.95755752597073 9.142857142857144,88.82542044602339 -37.99020137849943,76.21142044602338&#10;c -6.364052161591276,-10.812 -9.879650338759426,0 -9.879650338759426,13.888579553976612&#10;c 0,19.083824529083472 24.074630810129037,29.89582452908347 39.6675550906834,19.083824529083472&#10;c 23.771428571428572,-10.812 14.62857142857143,37.842 8.202296626575453,71.01617547091652 c 0.0,12.566825051970525 -9.142857142857144,89.14011019234798 12.558320730737059,76.52611019234797&#10;c 32.42555274809852,-10.812 33.05247844588944,0 33.05247844588944,13.573889807652023&#10;c 0,21.595312070506978 -3.029432175745302,32.407312070506975 -14.249407042770585,21.595312070506978&#10;c -23.771428571428572,-10.812 -14.62857142857143,37.842 -31.361392133855915,68.50468792949302 c 0.0,22.401643238649726 -9.142857142857144,83.06534691397265 26.55039554545568,70.45134691397264&#10;c 7.5414962408874455,-10.812 17.50566204735187,0 17.50566204735187,19.648653086027352&#10;c 0,16.902953535120247 -6.718291772819263,27.714953535120245 -22.819924396974248,16.902953535120247&#10;c -23.771428571428572,-10.812 -14.62857142857143,37.842 -21.2361331958333,73.19704646487975 c -0.0,44.535655505558395 9.142857142857144,77.34668241841962 -11.885650168344009,64.73268241841961&#10;c -28.857473206800595,-10.812 -46.66334689553587,0 -46.66334689553587,25.36731758158038&#10;c 0,21.34001130545539 21.31120229354828,32.15201130545539 52.6144637118542,21.34001130545539&#10;c 23.771428571428572,-10.812 14.62857142857143,37.842 5.9345333520256744,68.7599886945446 c -0.0,45.692129641874565 9.142857142857144,81.09659738641795 -7.56959777693846,68.48259738641795&#10;c -42.00124168796569,-10.812 -48.496673136606674,0 -48.496673136606674,21.617402613582044&#10;c 0,14.800341673333918 24.793930392377543,25.612341673333916 32.998091147792934,14.800341673333918&#10;c 23.771428571428572,-10.812 14.62857142857143,37.842 23.0681797657522,75.29965832666608 L 0 901 " fill="none" stroke="black" stroke-width="0.1" style="vector-effect:non-scaling-stroke;" /></g><g><path d="M 0 0  L 1097.142857 0  c 0.0,37.599777107609256 -9.142857142857144,75.84305089601895 32.75153430308649,63.22905089601895&#10;c 5.792818971625034,-10.812 11.864677827695246,0 11.864677827695246,26.870949103981047&#10;c 0,15.88897367747741 -14.9067750663947,26.700973677477407 -42.95286656139098,15.88897367747741&#10;c -23.771428571428572,-10.812 -14.62857142857143,37.842 -1.6633455693907564,74.21102632252259 c 0.0,10.29669398760257 -9.142857142857144,80.4822782951457 26.15416743811999,67.8682782951457&#10;c 11.015755613069937,-10.812 32.578422630905315,0 32.578422630905315,22.231721704854294&#10;c 0,16.132820532886896 -26.30457082868323,26.944820532886894 -26.46999731262712,16.132820532886896&#10;c -23.771428571428572,-10.812 -14.62857142857143,37.842 -32.262592756398185,73.9671794671131 c -0.0,28.606129955561435 9.142857142857144,77.91074061960664 -32.13132045994253,65.29674061960664&#10;c -9.398942069724695,-10.812 -15.876273779241025,0 -15.876273779241025,24.803259380393357&#10;c 0,18.851267349848015 10.289427101703502,29.663267349848013 45.39221539432696,18.851267349848015&#10;c 23.771428571428572,-10.812 14.62857142857143,37.842 2.6153788448565933,71.24873265015198 c 0.0,11.291730205933032 -9.142857142857144,85.18300045608585 11.33523341421153,72.56900045608585&#10;c 16.510988110780602,-10.812 48.625772332439496,0 48.625772332439496,17.53099954391415&#10;c 0,12.764610810631837 -30.437745135015334,23.576610810631834 -34.4063289857167,12.764610810631837&#10;c -23.771428571428572,-10.812 -14.62857142857143,37.842 -25.554676760934328,77.33538918936816 c -0.0,34.43011164262446 9.142857142857144,89.97724761033788 -18.910533429130243,77.36324761033788&#10;c -27.67454388480208,-10.812 -29.50593765012663,0 -29.50593765012663,12.736752389662115&#10;c 0,16.867147114359398 8.666947288565567,27.679147114359395 25.041208300620482,16.867147114359398&#10;c 23.771428571428572,-10.812 14.62857142857143,37.842 23.37526277863639,73.2328528856406 L 0 901 " fill="none" stroke="black" stroke-width="0.1" style="vector-effect:non-scaling-stroke;" /></g></g><g><g><path d="M 0 0  L 0 180.200000  c 14.345173488653586,-0.0 90.44625547199018,9.01 77.64625547199019,-7.646350927182691&#10;c -10.971428571428572,-22.817942164690955 0,-45.40746458396981 13.782315956581243,-45.40746458396981&#10;c 18.458078772331504,0 29.429507343760076,3.801778559257691 18.458078772331504,17.26139220281631&#10;c -10.971428571428572,23.426 38.4,14.415999999999999 72.97049265623993,35.79242330833619 c 43.8808395293636,0.0 83.39647096470877,-9.01 70.59647096470877,5.210397430882184&#10;c -10.971428571428572,30.1941083705456 0,51.27970741782977 20.83210046386266,51.27970741782977&#10;c 20.481701732397667,0 31.45313030382624,-24.626222461815487 20.481701732397667,-33.93033307921827&#10;c -10.971428571428572,-23.426 38.4,-14.415999999999999 70.94686969617376,-22.55977176949368 c 13.489571615711828,0.0 88.21789752913008,-9.01 75.41789752913009,8.714947145194495&#10;c -10.971428571428572,36.72793649439788 0,42.100375295155224 16.010673899441343,42.100375295155224&#10;c 16.93617676349291,0 27.90760533492148,-29.166070846160313 16.93617676349291,-40.90450432923136&#10;c -10.971428571428572,-23.426 38.4,-14.415999999999999 74.49239466507852,-9.91081811111836 c 17.867239921478458,-0.0 87.38919414073519,9.01 74.58919414073519,-6.151852542415015&#10;c -10.971428571428572,-41.59782313686631 0,-46.43509437879773 16.839377287836243,-46.43509437879773&#10;c 28.863744974516422,0 39.835173545945,24.814343594866894 28.863744974516422,41.729015556657785&#10;c -10.971428571428572,23.426 38.4,14.415999999999999 62.56482645405501,10.857931364554958 c 20.463466753229046,-0.0 83.96219799624558,9.01 71.16219799624558,-12.414773699213464&#10;c -10.971428571428572,-13.259988584802716 0,-32.421374938562394 20.26637343232585,-32.421374938562394&#10;c 13.243102121933049,0 24.21453069336162,9.327417801723627 13.243102121933049,42.345018830865484&#10;c -10.971428571428572,23.426 38.4,14.415999999999999 78.18546930663838,2.4911298069103722 c 42.747998871694605,0.0 89.86759312100723,-9.01 77.06759312100723,22.116978945871804&#10;c -10.971428571428572,11.15068289760532 0,32.544533212326556 14.360978307564196,32.544533212326556&#10;c 20.817576775218257,0 31.789005346646828,-14.653614283740035 20.817576775218257,-28.495866596871032&#10;c -10.971428571428572,-23.426 38.4,-14.415999999999999 70.61099465335317,-26.16564556132733 c 38.67633419142253,0.0 76.67043654062566,-9.01 63.87043654062566,4.520544505244788&#10;c -10.971428571428572,29.691963294061555 0,46.19403006186957 27.55813488794577,46.19403006186957&#10;c 27.21859640361164,0 38.19002497504022,-38.014526907082704 27.21859640361164,-37.784846745925265&#10;c -10.971428571428572,-23.426 38.4,-14.415999999999999 64.20997502495979,-12.92972782118909 L 1280 0 " fill="none" stroke="black" stroke-width="0.1" style="vector-effect:non-scaling-stroke;" /></g><g><path d="M 0 0  L 0 360.400000  c 15.565999727033763,0.0 88.68183307899538,-9.01 75.88183307899538,18.696287083266245&#10;c -10.971428571428572,18.763230801652107 0,37.951145308004044 15.546738349576046,37.951145308004044&#10;c 27.63357394997972,0 38.605002521408295,-8.438087849108152 27.63357394997972,-28.398555350197263&#10;c -10.971428571428572,-23.426 38.4,-14.415999999999999 63.79499747859171,-28.248877041073023 c 12.744699746814788,-0.0 88.22451214250984,9.01 75.42451214250984,-5.587177118962592&#10;c -10.971428571428572,-30.195046181060448 0,-47.68351677081633 16.00405928606159,-47.68351677081633&#10;c 26.35062191949268,0 37.32205049092126,13.530912418070114 26.35062191949268,36.266608876019276&#10;c -10.971428571428572,23.426 38.4,14.415999999999999 65.07794950907875,17.00408501375965 c 41.13785838795417,-0.0 77.00729939949697,9.01 64.20729939949697,-9.710214626952602&#10;c -10.971428571428572,-14.771371332200284 0,-42.310772616528084 27.221272029074456,-42.310772616528084&#10;c 12.929633862173802,0 23.901062433602373,13.86705262317235 12.929633862173802,37.628628378603224&#10;c -10.971428571428572,23.426 38.4,14.415999999999999 78.49893756639763,14.392358864877465 c 39.681124655833294,0.0 77.79815350585105,-9.01 64.99815350585105,9.288247957285318&#10;c -10.971428571428572,29.68396510387521 0,39.87290299002274 26.43041792272038,39.87290299002274&#10;c 21.98158865600051,0 32.953017227429086,-29.07706495099761 21.98158865600051,-41.44158593311231&#10;c -10.971428571428572,-23.426 38.4,-14.415999999999999 69.44698277257092,-7.7195650141957515 c 40.7769554098508,-0.0 76.18973229818157,9.01 63.38973229818156,1.2472144880287181&#10;c -10.971428571428572,-19.363929086152087 0,-52.72645983331003 28.038839130389867,-52.72645983331003&#10;c 21.10035588532861,0 32.071784456757186,13.969141959942224 21.10035588532861,29.62042189521089&#10;c -10.971428571428572,23.426 38.4,14.415999999999999 70.32821554324282,21.858823450070425 c 44.04075720094407,0.0 80.60566844964158,-9.01 67.80566844964159,0.888598243629062&#10;c -10.971428571428572,30.386912251062626 0,44.762060782923164 23.622902978929844,44.762060782923164&#10;c 20.709899864636114,0 31.681328436064685,-9.303944464500058 20.709899864636114,-20.84255722630661&#10;c -10.971428571428572,-23.426 38.4,-14.415999999999999 70.71867156393532,-24.808101800245616 c 40.2730857143967,-0.0 86.53750799320284,9.01 73.73750799320284,-4.367548938110889&#10;c -10.971428571428572,-21.963296928809104 0,-54.42828549783032 17.69106343536859,-54.42828549783032&#10;c 19.25011203812963,0 30.2215406095582,17.04260704395308 19.25011203812963,23.908298860545557&#10;c -10.971428571428572,23.426 38.4,14.415999999999999 72.1784593904418,34.88753557539565 L 1280 0 " fill="none" stroke="black" stroke-width="0.1" style="vector-effect:non-scaling-stroke;" /></g><g><path d="M 0 0  L 0 540.600000  c 41.21239918874162,-0.0 87.2201012335975,9.01 74.4201012335975,-2.189710836959761&#10;c -10.971428571428572,-16.67805513026283 0,-56.84502520132523 17.008470194973924,-56.84502520132523&#10;c 17.697631529450618,0 28.66906010087919,14.68241011703069 17.697631529450618,62.365799144833616&#10;c -10.971428571428572,23.426 38.4,14.415999999999999 73.73093989912081,-3.3310631065486263 c 11.215390206932387,0.0 87.77196217214303,-9.01 74.97196217214304,3.5387042274862157&#10;c -10.971428571428572,21.071087953812395 0,53.03055626945001 16.456609256428393,53.03055626945001&#10;c 16.977499173911212,0 27.948927745339784,-18.15400236220672 16.977499173911212,-25.01050145691774&#10;c -10.971428571428572,-23.426 38.4,-14.415999999999999 74.45107225466022,-31.558759040018483 c 26.46402372007053,0.0 80.98657197222411,-9.01 68.18657197222412,6.819535429101503&#10;c -10.971428571428572,25.50131383174122 0,38.8070938084002 23.241999456347315,38.8070938084002&#10;c 21.872434256475643,0 32.84386282790422,-13.877719076160787 21.872434256475643,-19.57110134449341&#10;c -10.971428571428572,-23.426 38.4,-14.415999999999999 69.55613717209579,-26.055527893008293 c 47.08875829445349,-0.0 82.68801076294247,9.01 69.88801076294247,-1.6852035765299103&#10;c -10.971428571428572,-14.707212519739409 0,-51.4783184518164 21.54056066562896,-51.4783184518164&#10;c 27.39108594333507,0 38.362514514763646,9.21451920882277 27.39108594333507,20.26095928046994&#10;c -10.971428571428572,23.426 38.4,14.415999999999999 64.03748548523636,32.90256274787637 c 27.71924893701415,-0.0 76.03448724977989,9.01 63.23448724977989,-7.03277924721297&#10;c -10.971428571428572,-18.27052209165838 0,-48.8892070737005 28.19408417879154,-48.8892070737005&#10;c 20.923203254381463,0 31.894631825810034,22.238183385812338 20.923203254381463,30.09248804485132&#10;c -10.971428571428572,23.426 38.4,14.415999999999999 70.50536817418997,25.82949827606215 c 48.82467951505537,-0.0 78.2349791761701,9.01 65.4349791761701,-19.924799476135806&#10;c -10.971428571428572,-15.537175095601594 0,-28.54222379056817 25.993592252401328,-28.54222379056817&#10;c 20.012166223502547,0 30.98359479493112,16.94279752232638 20.012166223502547,27.4462318858742&#10;c -10.971428571428572,23.426 38.4,14.415999999999999 71.41640520506888,21.020791380829774 c 44.02438553780023,-0.0 90.46725322150164,9.01 77.66725322150164,-8.373502510676854&#10;c -10.971428571428572,-22.96689488180567 0,-45.122238442546816 13.761318207069792,-45.122238442546816&#10;c 27.360847386570654,0 38.33227595799923,21.637572066820706 27.360847386570654,23.470009867351024&#10;c -10.971428571428572,23.426 38.4,14.415999999999999 64.06772404200078,30.02573108587265 L 1280 0 " fill="none" stroke="black" stroke-width="0.1" style="vector-effect:non-scaling-stroke;" /></g><g><path d="M 0 0  L 0 720.800000  c 36.750935833890914,0.0 80.01049089372846,-9.01 67.21049089372846,-0.48559194636198316&#10;c -10.971428571428572,28.812752951063363 0,60.66252647053229 24.21808053484297,60.66252647053229&#10;c 23.165755518472025,0 34.1371840899006,-27.902320261654424 23.165755518472025,-36.35399942653454&#10;c -10.971428571428572,-23.426 38.4,-14.415999999999999 68.2628159100994,-23.822935097635764 c 47.13300230918977,-0.0 88.50443760315241,9.01 75.70443760315241,-34.131768311105645&#10;c -10.971428571428572,-21.43819300816144 0,-24.261378829072747 15.724133825419017,-24.261378829072747&#10;c 15.290645873586556,0 26.262074445015127,36.46991030079749 15.290645873586556,42.904702938167276&#10;c -10.971428571428572,23.426 38.4,14.415999999999999 76.13792555498488,15.488444202011117 c 36.896807704427694,-0.0 87.02385999828944,9.01 74.22385999828944,2.692747852780751&#10;c -10.971428571428572,-46.42836275533695 0,-51.76897282219481 17.20471143028199,-51.76897282219481&#10;c 28.521594411612867,0 39.49302298304144,14.659963980377206 28.521594411612867,23.248639617062718&#10;c -10.971428571428572,23.426 38.4,14.415999999999999 62.906977016958564,25.827585352351345 c 50.47289764935769,-0.0 80.57872560575775,9.01 67.77872560575776,-33.223655441134696&#10;c -10.971428571428572,-7.58134776516824 0,-12.121952024527673 23.649845822813674,-12.121952024527673&#10;c 17.778955777217917,0 28.750384348646488,7.963144063198376 17.778955777217917,13.880164932557445&#10;c -10.971428571428572,23.426 38.4,14.415999999999999 73.64961565135351,31.465442533104923 c 9.773548494549962,0.0 85.94105428559602,-9.01 73.14105428559603,0.7006045823236368&#10;c -10.971428571428572,26.002871370451828 0,52.45845828568885 18.287517142975403,52.45845828568885&#10;c 22.775645728378507,0 33.74707429980708,-11.6837223793645 22.775645728378507,-29.423655352037386&#10;c -10.971428571428572,-23.426 38.4,-14.415999999999999 68.65292570019292,-23.735407515975098 c 39.24819306733747,0.0 87.35632519577021,-9.01 74.55632519577021,36.54739025236895&#10;c -10.971428571428572,19.91189185152282 0,20.261030559691278 16.872246232801217,20.261030559691278&#10;c 22.565959963701417,0 33.53738853512999,-16.904803067152983 22.565959963701417,-53.64173703924223&#10;c -10.971428571428572,-23.426 38.4,-14.415999999999999 68.86261146487001,-3.166683772817997 c 49.827174317720285,0.0 76.76472878378335,-9.01 63.96472878378335,16.92899652954987&#10;c -10.971428571428572,11.722749509653488 0,27.088346440980885 27.46384264478808,27.088346440980885&#10;c 22.595762042662372,0 33.56719061409095,-12.325820066688152 22.595762042662372,-30.67953464188544&#10;c -10.971428571428572,-23.426 38.4,-14.415999999999999 68.83280938590906,-13.337808328645316 L 1280 0 " fill="none" stroke="black" stroke-width="0.1" style="vector-effect:non-scaling-stroke;" /></g></g></svg>