<svg baseProfile="full" height="3333" preserveAspectRatio="none" shape-rendering="geometricPrecision" version="1.1" viewBox="0,0,5000,3333" width="5000" xmlns="http://www.w3.org/2000/svg" xmlns:ev="http://www.w3.org/2001/xml-events" xmlns:xlink="http://www.w3.org/1999/xlink"><title>Jigsaw puzzle piece clips</title><desc>Created with the piecemaker. Piece count: 24</desc><defs /><g><g><rect fill="white" height="3333" width="5000" x="0" y="0" /></g></g><g><g><path d="M 0 0  L 833.333333 0  c -0.0,146.94010952813778 41.66666666666667,361.4900285427047 8.660645271103634,303.1625285427047&#10;c -138.07511550740847,-49.995 -216.49121289443318,0 -216.49121289443318,113.4624714572953&#10;c 0,82.22731215472851 136.63451691635467,132.2223121547285 199.84286347573527,82.22731215472851&#10;c 108.33333333333334,-49.995 66.66666666666667,174.9825 7.987704147594258,334.3976878452715 c -0.0,66.90059081477875 41.66666666666667,351.6070008329518 -5.544916834814024,293.27950083295184&#10;c -64.85864381983355,-49.995 -234.1776433760491,0 -234.1776433760491,123.34549916704816&#10;c 0,83.75198099589988 58.902785883914746,133.7469809958999 110.029310665543,83.75198099589988&#10;c 108.33333333333334,-49.995 66.66666666666667,174.9825 129.69324954532013,332.8730190041001 c 0.0,84.81955647730001 -41.66666666666667,356.4327000002084 28.831132230387677,298.1052000002084&#10;c 130.50584129308177,-49.995 220.79126458157322,0 220.79126458157322,118.51979999979159&#10;c 0,77.63556107697315 -53.58929487310209,127.63056107697315 -168.39649315868974,77.63556107697315&#10;c -108.33333333333334,-49.995 -66.66666666666667,174.9825 -81.22590365327116,338.98943892302685 c 0.0,167.90515126968887 -41.66666666666667,363.27344165120843 170.99570788284296,304.94594165120844&#10;c 31.14792291021779,-49.995 76.05613614394974,0 76.05613614394974,111.67905834879156&#10;c 0,79.25629149182043 -116.3556474007958,129.25129149182044 -184.7210739124007,79.25629149182043&#10;c -108.33333333333334,-49.995 -66.66666666666667,174.9825 -62.33077011439201,337.36870850817957 L 0 3333 " fill="none" stroke="black" stroke-width="0.1" style="vector-effect:non-scaling-stroke;" /></g><g><path d="M 0 0  L 1666.666667 0  c 0.0,166.89103081177564 -41.66666666666667,407.55917465883124 92.05100774378923,349.23167465883125&#10;c 98.6514072662989,-49.995 124.24943238675868,0 124.24943238675868,67.39332534116875&#10;c 0,111.65528304578436 -65.34842886938861,161.65028304578436 -103.21333092686275,111.65528304578436&#10;c -108.33333333333334,-49.995 -66.66666666666667,174.9825 -113.08710920368516,304.96971695421564 c -0.0,224.4624659707456 41.66666666666667,348.25684307004326 -75.6993869649599,289.9293430700433&#10;c -70.50353106971636,-49.995 -147.07538296521022,0 -147.07538296521022,126.69565692995673&#10;c 0,81.2012866596861 24.86352004927492,131.1962866596861 50.71205013638266,81.2012866596861&#10;c 108.33333333333334,-49.995 66.66666666666667,174.9825 172.06271979378747,335.4237133403139 c 0.0,93.26193304731441 -41.66666666666667,411.63255965535194 151.2077262589054,353.30505965535195&#10;c 57.20520820316215,-49.995 121.82973659756223,0 121.82973659756223,63.319940344648046&#10;c 0,87.83097921076012 -209.23182610473484,137.82597921076012 -257.55522955284897,87.83097921076012&#10;c -108.33333333333334,-49.995 -66.66666666666667,174.9825 -15.48223330361867,328.7940207892399 c 0.0,107.44286941722393 -41.66666666666667,384.1144461232745 172.59333698985907,325.7869461232745&#10;c 20.475655228728108,-49.995 95.31887526296143,0 95.31887526296143,90.8380538767255&#10;c 0,71.5728275519374 -115.64710561161058,121.5678275519374 -234.66009506159213,71.5728275519374&#10;c -108.33333333333334,-49.995 -66.66666666666667,174.9825 -33.252117191228365,345.0521724480626 L 0 3333 " fill="none" stroke="black" stroke-width="0.1" style="vector-effect:non-scaling-stroke;" /></g><g><path d="M 0 0  L 2500.000000 0  c -0.0,64.18184779747135 41.66666666666667,368.24273701534196 -87.11380587794126,309.915237015342&#10;c -26.688423314989517,-49.995 -114.21645468574029,0 -114.21645468574029,106.70976298465803&#10;c 0,130.4805685166225 81.46868928700951,180.4755685166225 133.1169428765287,130.4805685166225&#10;c 108.33333333333334,-49.995 66.66666666666667,174.9825 68.21331768715285,286.1444314833775 c -0.0,210.02306317423805 41.66666666666667,408.5784441931278 12.232444190044871,350.2509441931278&#10;c -89.4410507490142,-49.995 -244.47423428891398,0 -244.47423428891398,66.3740558068722&#10;c 0,72.15228634808602 53.515209203984774,122.14728634808603 148.04518923106758,72.15228634808602&#10;c 108.33333333333334,-49.995 66.66666666666667,174.9825 84.19660086780152,344.472713651914 c 0.0,117.28784887421267 -41.66666666666667,380.0747037323812 12.058798275416814,321.7472037323812&#10;c 195.44015723690072,-49.995 252.2418358949802,0 252.2418358949802,94.8777962676188&#10;c 0,100.19838114596462 -243.19771895865014,150.19338114596462 -279.12333259593726,100.19838114596462&#10;c -108.33333333333334,-49.995 -66.66666666666667,174.9825 14.822698425540239,316.4266188540354 c 0.0,107.42144830613647 -41.66666666666667,359.59760320056967 105.20684866336585,301.2701032005697&#10;c 124.97305817192392,-49.995 177.596281477702,0 177.596281477702,115.35489679943032&#10;c 0,58.726463659819444 -105.20936804519614,108.72146365981945 -182.78887263972803,58.726463659819444&#10;c -108.33333333333334,-49.995 -66.66666666666667,174.9825 -100.01425750133984,357.89853634018056 L 0 3333 " fill="none" stroke="black" stroke-width="0.1" style="vector-effect:non-scaling-stroke;" /></g><g><path d="M 0 0  L 3333.333333 0  c -0.0,208.74549590575694 41.66666666666667,408.5956039325643 -30.996361045165013,350.2681039325643&#10;c -180.42924420411484,-49.995 -224.4397730326307,0 -224.4397730326307,66.35689606743568&#10;c 0,120.8585477885847 153.1350817528078,170.8535477885847 178.89572145708888,120.8585477885847&#10;c 108.33333333333334,-49.995 66.66666666666667,174.9825 76.54041262070683,295.7664522114153 c -0.0,58.5277679922107 41.66666666666667,403.99137483279486 -82.16182404281439,345.6638748327949&#10;c -29.989111293125355,-49.995 -134.11700278608453,0 -134.11700278608453,70.96112516720513&#10;c 0,124.11117093270855 63.979457278220956,174.10617093270855 197.06805408631598,124.11117093270855&#10;c 108.33333333333334,-49.995 66.66666666666667,174.9825 19.21077274258292,292.51382906729145 c 0.0,47.360217459197635 -41.66666666666667,412.4267458101263 148.79007628518684,354.0992458101263&#10;c 30.25815110580803,-49.995 53.029715979388044,0 53.029715979388044,62.52575418987368&#10;c 0,70.80500789947467 -31.332444253762155,120.80000789947468 -41.01302319175204,70.80500789947467&#10;c -108.33333333333334,-49.995 -66.66666666666667,174.9825 -160.80676907282285,345.8199921005253 c 0.0,162.3712014449821 -41.66666666666667,391.3562390861524 176.88089761609953,333.0287390861524&#10;c 66.79645468545382,-49.995 66.60110142734223,0 66.60110142734223,83.59626091384757&#10;c 0,99.2185353336805 -178.84169791442582,149.2135353336805 -219.74422621640196,99.2185353336805&#10;c -108.33333333333334,-49.995 -66.66666666666667,174.9825 -23.737772827039805,317.4064646663195 L 0 3333 " fill="none" stroke="black" stroke-width="0.1" style="vector-effect:non-scaling-stroke;" /></g><g><path d="M 0 0  L 4166.666667 0  c -0.0,58.49027868792505 41.66666666666667,409.48399347637593 -144.77350403714823,351.15649347637594&#10;c -98.07868410921868,-49.995 -114.26314583077087,0 -114.26314583077087,65.46850652362406&#10;c 0,62.27650523703113 124.015091568027,112.27150523703114 159.3685134043664,62.27650523703113&#10;c 108.33333333333334,-49.995 66.66666666666667,174.9825 99.66813646355268,354.34849476296887 c -0.0,97.95857965966668 41.66666666666667,407.58034073697337 -122.96157209703438,349.2528407369734&#10;c -112.74576025930939,-49.995 -158.82043424243324,0 -158.82043424243324,67.37215926302662&#10;c 0,58.97260901885409 159.84013753564696,108.96760901885409 160.5852175311037,58.97260901885409&#10;c 108.33333333333334,-49.995 66.66666666666667,174.9825 121.19678880836392,357.6523909811459 c -0.0,78.5440942853993 41.66666666666667,391.9434532455791 -178.3266588278352,333.61595324557914&#10;c -31.427851718218335,-49.995 -37.629170619878295,0 -37.629170619878295,83.00904675442086&#10;c 0,100.22984965531168 34.34572677687481,150.2248496553117 103.11094377412057,100.22984965531168&#10;c 108.33333333333334,-49.995 66.66666666666667,174.9825 112.84488567359291,316.3951503446883 c 0.0,103.62870695448531 -41.66666666666667,344.80556319202464 172.07347276547048,286.47806319202465&#10;c 15.676297094804804,-49.995 51.839569860890606,0 51.839569860890606,130.14693680797535&#10;c 0,81.81358108287691 -31.533566331766714,131.8085810828769 -58.28315719894729,81.81358108287691&#10;c -108.33333333333334,-49.995 -66.66666666666667,174.9825 -165.6298854274138,334.8114189171231 L 0 3333 " fill="none" stroke="black" stroke-width="0.1" style="vector-effect:non-scaling-stroke;" /></g></g><g><g><path d="M 0 0  L 0 833.250000  c 191.43162855961094,0.0 357.06805965418846,-41.6625 298.7347263208551,98.45010098328322&#10;c -50.0,77.36853291055317 0,141.10942783457517 117.9319403458116,141.10942783457517&#10;c 61.08436040858578,0 111.08436040858578,-36.496358119407844 61.08436040858578,-83.03034224686516&#10;c -50.0,-108.3225 175.0,-66.66 355.5823062580809,-156.52918657099323 c 184.0032624263857,-0.0 376.03486920269313,41.6625 317.70153586935976,-121.59607266158717&#10;c -50.0,-63.00253270891372 0,-91.38789957562604 98.96513079730693,-91.38789957562604&#10;c 80.79034016771487,0 130.79034016771487,41.254787702621044 80.79034016771487,41.95876287767945&#10;c -50.0,108.3225 175.0,66.66 335.8763264989518,171.02520935953376 c 135.75889265541426,-0.0 382.4733002176238,41.6625 324.1399668842904,-103.63805944915445&#10;c -50.0,-81.84176393727405 0,-158.44400590759108 92.52669978237628,-158.44400590759108&#10;c 120.21263949207281,0 170.2126394920728,107.70842162066498 120.21263949207281,215.10533159105904&#10;c -50.0,108.3225 175.0,66.66 296.4540271745939,46.976733765686504 c 79.77877263005253,0.0 388.7237615122491,-41.6625 330.3904281789158,107.6785240152046&#10;c -50.0,97.12294172804607 0,105.0582468739579 86.2762384877509,105.0582468739579&#10;c 93.43966162544655,0 143.43966162544655,-68.49682581662445 93.43966162544655,-90.28944496465122&#10;c -50.0,-108.3225 175.0,-66.66 323.22700504122014,-122.44732592451128 c 222.04383693140434,0.0 347.19514131755966,-41.6625 288.8618079842263,144.66380248684337&#10;c -50.0,77.76340154279175 0,80.38378440801168 127.8048586824404,80.38378440801168&#10;c 110.25900134501768,0 160.25900134501768,-123.25652555128893 110.25900134501768,-165.94966964233083&#10;c -50.0,-108.3225 175.0,-66.66 306.407665321649,-59.09791725252421 c 237.4618393380709,-0.0 361.0116451206088,41.6625 302.67831178727545,-47.99482923113227&#10;c -50.0,-73.31877380758387 0,-217.03540499749806 113.98835487939124,-217.03540499749806&#10;c 101.78032167947146,0 151.78032167947146,194.87297545451344 101.78032167947146,250.1810597261567&#10;c -50.0,108.3225 175.0,66.66 314.88634498719523,14.84917450247363 L 5000 0 " fill="none" stroke="black" stroke-width="0.1" style="vector-effect:non-scaling-stroke;" /></g><g><path d="M 0 0  L 0 1666.500000  c 109.87558985901545,0.0 385.8263645495322,-41.6625 327.4930312161988,-11.656700320687838&#10;c -50.0,145.86602162850895 0,231.82419873624778 89.17363545046788,231.82419873624778&#10;c 91.5561344190586,0 141.5561344190586,-85.44637357642209 91.5561344190586,-107.32026020829464&#10;c -50.0,-108.3225 175.0,-66.66 325.1105322476081,-112.8472382072653 c 152.730482451332,0.0 390.7317349416859,-41.6625 332.3984016083525,29.592693827801785&#10;c -50.0,138.43978697393183 0,220.16772696884667 84.26826505831417,220.16772696884667&#10;c 72.14753735716016,0 122.14753735716016,-58.47246787527818 72.14753735716016,-221.8912748107954&#10;c -50.0,-108.3225 175.0,-66.66 344.5191293095065,-27.869145985853038 c 174.70827258889966,0.0 352.01214185823846,-41.6625 293.6788085249051,176.41224324337833&#10;c -50.0,24.553172192471933 0,72.52693771553007 122.98785814176159,72.52693771553007&#10;c 123.18497969074662,0 173.18497969074662,-29.522957186761356 123.18497969074662,-112.14717348691528&#10;c -50.0,-108.3225 175.0,-66.66 293.48168697592007,-136.79200747199312 c 233.20491026604662,0.0 358.35064815765384,-41.6625 300.01731482432047,48.08911708746354&#10;c -50.0,67.26277915118534 0,223.79076692738857 116.64935184234622,223.79076692738857&#10;c 125.26803287160243,0 175.26803287160243,-203.09106188253236 125.26803287160243,-236.88556224143616&#10;c -50.0,-108.3225 175.0,-66.66 291.39863379506426,-34.99432177341595 c 105.48984324320546,0.0 385.18745290556376,-41.6625 326.8541195722304,-5.161109546598924&#10;c -50.0,98.17134032791165 0,280.9753271900663 89.8125470944363,280.9753271900663&#10;c 77.43861260362928,0 127.43861260362928,-115.26232461542283 77.43861260362928,-238.32868838046556&#10;c -50.0,-108.3225 175.0,-66.66 339.2280540630374,-37.48552926300181 c 212.23402646855007,0.0 343.5472916709066,-41.6625 285.2139583375732,95.69284127557208&#10;c -50.0,55.75092867928183 0,121.40708451033845 131.45270832909347,121.40708451033845&#10;c 87.47292100200178,0 137.47292100200178,-85.49021654338682 87.47292100200178,-214.39789862310354&#10;c -50.0,-108.3225 175.0,-66.66 329.1937456646649,-2.702027162806985 L 5000 0 " fill="none" stroke="black" stroke-width="0.1" style="vector-effect:non-scaling-stroke;" /></g><g><path d="M 0 0  L 0 2499.750000  c 202.25632910704346,0.0 355.6992772061652,-41.6625 297.36594387283185,171.73514360114925&#10;c -50.0,57.81530056936294 0,76.97211381483675 119.30072279383484,76.97211381483675&#10;c 69.42109849174176,0 119.42109849174176,-79.0475166376313 69.42109849174176,-188.74098732950284&#10;c -50.0,-108.3225 175.0,-66.66 347.2455681749249,-59.96627008648315 c 195.92098350398032,-0.0 383.15994841774364,41.6625 324.8266150844103,-64.0097927071386&#10;c -50.0,-81.7486954524547 0,-142.0171635898879 91.84005158225636,-142.0171635898879&#10;c 125.86600471804178,0 175.86600471804178,46.00472274311042 125.86600471804178,72.61281904590169&#10;c -50.0,108.3225 175.0,66.66 290.8006619486249,133.41413725112483 c 210.7254719375315,0.0 352.4955793931384,-41.6625 294.16224605980506,181.23226830557232&#10;c -50.0,20.033579185277603 0,78.07323890374269 122.50442060686163,78.07323890374269&#10;c 91.87914493686304,0 141.87914493686304,-72.4808056536839 91.87914493686304,-257.64899385201977&#10;c -50.0,-108.3225 175.0,-66.66 324.78752172980364,-1.656513357295239 c 217.88847173631967,0.0 357.0725800843809,-41.6625 298.7392467510476,115.10135176158634&#10;c -50.0,48.63430230821124 0,152.23202786637978 117.92741991561911,152.23202786637978&#10;c 114.59677969294097,0 164.59677969294097,-63.51448321732418 114.59677969294097,-88.01015774873363&#10;c -50.0,-108.3225 175.0,-66.66 302.0698869737257,-179.32322187923248 c 106.31457886983627,-0.0 407.3410684244441,41.6625 349.0077350911107,-103.38353925299015&#10;c -50.0,-81.68939895393369 0,-115.22656715393461 67.65893157555598,-115.22656715393461&#10;c 79.56757789298803,0 129.56757789298803,145.56189719509672 79.56757789298803,148.31791425645093&#10;c -50.0,108.3225 175.0,66.66 337.09908877367866,70.29219215047382 c 220.65733663480063,-0.0 367.96217615979094,41.6625 309.62884282645757,-136.11506419581914&#10;c -50.0,-70.69197265027171 0,-99.78177713784467 107.03782384020911,-99.78177713784467&#10;c 94.48275237956523,0 144.48275237956523,143.69440131554214 94.48275237956523,169.1542344630541&#10;c -50.0,108.3225 175.0,66.66 322.18391428710146,66.7426068706097 L 5000 0 " fill="none" stroke="black" stroke-width="0.1" style="vector-effect:non-scaling-stroke;" /></g></g></svg>