<svg baseProfile="full" height="853" preserveAspectRatio="none" shape-rendering="geometricPrecision" version="1.1" viewBox="0,0,1280,853" width="1280" xmlns="http://www.w3.org/2000/svg" xmlns:ev="http://www.w3.org/2001/xml-events" xmlns:xlink="http://www.w3.org/1999/xlink"><title>Jigsaw puzzle piece clips</title><desc>Created with the piecemaker. Piece count: 24</desc><defs/><g><g><rect fill="white" height="853" width="1280" x="0" y="0"/></g></g><g><g><path d="M 0 0  L 213.333333 0  c 0.0,26.081764057578624 -10.666666666666668,105.56137393285508 30.034286159709822,90.63387393285507
c 24.041254929157184,-12.795 27.043313020479253,0 27.043313020479253,15.991126067144933
c 0,26.97936392975444 -36.43419468986066,39.77436392975444 -41.61862352480773,26.97936392975444
c -27.733333333333334,-12.795 -17.066666666666666,44.7825 -15.458975655381344,79.64563607024556 c 0.0,11.352875999479473 -10.666666666666668,105.07833895242698 37.31670910512459,90.15083895242697
c 16.320966594884833,-12.795 20.528502816413926,0 20.528502816413926,16.474161047573034
c 0,22.87356387601534 -33.74303702534812,35.66856387601534 -38.57384056341098,22.87356387601534
c -27.733333333333334,-12.795 -17.066666666666666,44.7825 -19.27137135812753,83.75143612398466 c 0.0,20.079202515610742 -10.666666666666668,87.47492428103243 11.579449514480933,72.54742428103242
c 27.621507474903122,-12.795 53.17984553494163,0 53.17984553494163,34.07757571896758
c 0,28.92782803163871 -26.68338196367677,41.72282803163871 -39.35315340235648,28.92782803163871
c -27.733333333333334,-12.795 -17.066666666666666,44.7825 -25.40614164706608,77.69717196836129 c -0.0,19.360656075090617 10.666666666666668,104.85858536713539 -10.122472437337139,89.9310853671354
c -47.899222483494405,-12.795 -48.410708347762466,0 -48.410708347762466,16.693914632864605
c 0,28.441664239838644 28.042098286759487,41.236664239838646 34.37441816928857,28.441664239838644
c 27.733333333333334,-12.795 17.066666666666666,44.7825 24.158762615811035,78.18333576016136 L 0 853 " fill="none" stroke="black" stroke-width="0.1" style="vector-effect:non-scaling-stroke;"/></g><g><path d="M 0 0  L 426.666667 0  c -0.0,12.513993258741882 10.666666666666668,103.48435510241569 -12.48564615523708,88.5568551024157
c -29.069580845578272,-12.795 -39.805650746372585,0 -39.805650746372585,18.068144897584304
c 0,33.265541713118694 3.3490583862844656,46.060541713118695 6.068932460751526,33.265541713118694
c 27.733333333333334,-12.795 17.066666666666666,44.7825 46.22236444085814,73.3594582868813 c -0.0,15.106252055248108 10.666666666666668,93.9529404818835 0.18869940905660595,79.0254404818835
c -48.233247534825594,-12.795 -53.5938468509219,0 -53.5938468509219,27.599559518116493
c 0,17.006288999724006 17.29877819171096,29.801288999724008 37.68204825008692,17.006288999724006
c 27.733333333333334,-12.795 17.066666666666666,44.7825 15.723099191778374,89.618711000276 c 0.0,32.98372060903759 -10.666666666666668,88.0440774933852 -3.306135564447548,73.11657749338521
c 65.22667474983994,-12.795 69.24898232997553,0 69.24898232997553,33.50842250661479
c 0,23.736470401020057 -22.161637644088003,36.53147040102006 -41.72414099841232,23.736470401020057
c -27.733333333333334,-12.795 -17.066666666666666,44.7825 -24.218705767115672,82.88852959897994 c 0.0,53.74999987784171 -10.666666666666668,91.32309488963864 3.4408594358909013,76.39559488963863
c 34.12936038955376,-12.795 60.15219785492452,0 60.15219785492452,30.22940511036137
c 0,29.966637917506375 -10.591645159718993,42.76163791750638 -25.325906008963543,29.966637917506375
c -27.733333333333334,-12.795 -17.066666666666666,44.7825 -38.26715128185188,76.65836208249362 L 0 853 " fill="none" stroke="black" stroke-width="0.1" style="vector-effect:non-scaling-stroke;"/></g><g><path d="M 0 0  L 640.000000 0  c -0.0,40.81504164838443 10.666666666666668,93.05698744666424 -28.801549483569335,78.12948744666423
c -9.799963507900387,-12.795 -37.42497548979965,0 -37.42497548979965,28.49551255333577
c 0,21.298360611823853 52.882990167562134,34.093360611823854 68.09828829685704,21.298360611823853
c 27.733333333333334,-12.795 17.066666666666666,44.7825 -1.8717633234880537,85.32663938817615 c -0.0,53.48731668334735 10.666666666666668,102.27859212194213 3.317437671371259,87.35109212194213
c -28.98727059007111,-12.795 -65.53637493038545,0 -65.53637493038545,19.27390787805787
c 0,23.130378170746297 17.264825153672508,35.9253781707463 29.638887402164812,23.130378170746297
c 27.733333333333334,-12.795 17.066666666666666,44.7825 32.58004985684938,83.4946218292537 c -0.0,11.610510214801812 10.666666666666668,93.38197425602453 -25.999756304474563,78.45447425602454
c -24.92162619657708,-12.795 -28.547468800661466,0 -28.547468800661466,28.17052574397546
c 0,21.321509618456062 17.44321713587785,34.116509618456064 39.08453151131856,21.321509618456062
c 27.733333333333334,-12.795 17.066666666666666,44.7825 15.46269359381747,85.30349038154394 c 0.0,48.6703597471046 -10.666666666666668,104.81846802108907 46.418692093092695,89.89096802108907
c 10.697828549778876,-12.795 21.981482056759795,0 21.981482056759795,16.734031978910934
c 0,17.097902254704096 -22.195966269792148,29.892902254704097 -60.19531744775819,17.097902254704096
c -27.733333333333334,-12.795 -17.066666666666666,44.7825 -8.204856702094297,89.5270977452959 L 0 853 " fill="none" stroke="black" stroke-width="0.1" style="vector-effect:non-scaling-stroke;"/></g><g><path d="M 0 0  L 853.333333 0  c 0.0,35.53364503185786 -10.666666666666668,93.6015378747878 37.73453610971512,78.67403787478779
c 8.158090934741603,-12.795 18.854645461387584,0 18.854645461387584,27.950962125212214
c 0,28.32266981022255 -5.595093491363952,41.11766981022255 -12.114063254206329,28.32266981022255
c -27.733333333333334,-12.795 -17.066666666666666,44.7825 -44.47511831689638,78.30233018977745 c 0.0,10.72898230524014 -10.666666666666668,94.84434718444791 31.806992357463916,79.9168471844479
c 10.182963640196203,-12.795 20.544301439583645,0 20.544301439583645,26.708152815552097
c 0,30.112760046623606 -26.53264631895783,42.90776004662361 -54.381191342968215,30.112760046623606
c -27.733333333333334,-12.795 -17.066666666666666,44.7825 2.0298975459206545,76.5122399533764 c 0.0,53.412649302657144 -10.666666666666668,92.9579729840257 39.8203939998831,78.03047298402569
c 12.781371569261006,-12.795 28.683351661000962,0 28.683351661000962,28.594527015974307
c 0,33.76748600667 -16.211333924603057,46.56248600667 -57.930139776051085,33.76748600667
c -27.733333333333334,-12.795 -17.066666666666666,44.7825 -10.573605884832979,72.85751399333 c 0.0,42.03331689509074 -10.666666666666668,90.47727712170641 17.181876126443367,75.54977712170641
c 48.06699767989983,-12.795 55.133818525297556,0 55.133818525297556,31.075222878293587
c 0,31.88320065202737 -38.45165143398233,44.67820065202737 -46.63792439749342,31.88320065202737
c -27.733333333333334,-12.795 -17.066666666666666,44.7825 -25.677770254247505,74.74179934797263 L 0 853 " fill="none" stroke="black" stroke-width="0.1" style="vector-effect:non-scaling-stroke;"/></g><g><path d="M 0 0  L 1066.666667 0  c -0.0,34.34666657744035 10.666666666666668,92.84432525196522 -29.118097828150376,77.91682525196521
c -22.786139361879655,-12.795 -23.829527886806744,0 -23.829527886806744,28.708174748034793
c 0,27.991802651969067 4.543705495706317,40.78680265196907 15.905376875569331,27.991802651969067
c 27.733333333333334,-12.795 17.066666666666666,44.7825 37.04224883938779,78.63319734803093 c 0.0,24.736817704633623 -10.666666666666668,91.32631251451829 38.20981927740998,76.3988125145183
c 16.78149406170581,-12.795 19.08751574371493,0 19.08751574371493,30.226187485481702
c 0,26.71979219112393 -10.245290266797982,39.51479219112393 -20.200694589898873,26.71979219112393
c -27.733333333333334,-12.795 -17.066666666666666,44.7825 -37.096640431226035,79.90520780887607 c -0.0,17.50768501964527 10.666666666666668,103.75543114936258 -39.689941653412944,88.82793114936257
c -19.196579988896737,-12.795 -31.105888411115515,0 -31.105888411115515,17.79706885063743
c 0,23.693474954601214 23.361872040572564,36.488474954601216 31.611513371590213,23.693474954601214
c 27.733333333333334,-12.795 17.066666666666666,44.7825 39.184316692938246,82.93152504539879 c -0.0,29.165738367046053 10.666666666666668,94.61301105845513 -38.83372209485898,79.68551105845513
c -9.263800358924806,-12.795 -15.026843444653373,0 -15.026843444653373,26.939488941544866
c 0,23.946941736445496 13.271730740468039,36.7419417364455 26.135653914839594,23.946941736445496
c 27.733333333333334,-12.795 17.066666666666666,44.7825 27.724911624672757,82.6780582635545 L 0 853 " fill="none" stroke="black" stroke-width="0.1" style="vector-effect:non-scaling-stroke;"/></g></g><g><g><path d="M 0 0  L 0 213.250000  c 48.62840235603066,0.0 100.11032195743384,-10.662500000000001 85.1769886241005,43.92137708270272
c -12.8,5.6076095991453645 0,17.57708607063806 21.48967804256617,17.57708607063806
c 25.410505783776514,0 38.21050578377651,-57.541160538657515 25.410505783776514,-64.62651060903752
c -12.8,-27.7225 44.8,-17.06 81.25616088289016,3.128047455696745 c 42.19791178321518,-0.0 102.7134285950712,10.662500000000001 87.78009526173787,-21.212651216271823
c -12.8,-19.056141637225213 0,-41.623430208705756 18.8865714049288,-41.623430208705756
c 33.235507742179934,0 46.03550774217993,29.638127917938363 33.235507742179934,48.97986556633835
c -12.8,27.7225 44.8,17.06 73.43115892448674,13.856215858639231 c 16.435040286493507,0.0 104.39772607775546,-10.662500000000001 89.46439274442213,36.18895947700442
c -12.8,31.943048134670185 0,35.69339316262146 17.202273922244544,35.69339316262146
c 32.76958514230502,0 45.569585142305016,-16.780041762561208 32.76958514230502,-40.70632061139151
c -12.8,-27.7225 44.8,-17.06 73.89708152436165,-31.176032028234367 c 25.96014625517133,-0.0 95.35525287280048,10.662500000000001 80.42191953946714,2.462844672469506
c -12.8,-20.466487903352387 0,-64.43325815591385 26.24474712719953,-64.43325815591385
c 15.230228790070939,0 28.03022879007094,17.996779614536376 15.230228790070939,35.315478120950786
c -12.8,27.7225 44.8,17.06 91.43643787659573,26.654935362493553 c 58.31408650128579,0.0 100.35753000025784,-10.662500000000001 85.4241966669245,13.951419264008706
c -12.8,28.15077048194349 0,43.797202695599104 21.24246999974217,43.797202695599104
c 22.01777020975736,0 34.817770209757356,-32.12558098849988 22.01777020975736,-49.20397342650204
c -12.8,-27.7225 44.8,-17.06 84.64889645690931,-8.544648533105772 c 22.41578271569617,0.0 93.60856283434438,-10.662500000000001 78.67522950101105,46.298080810198506
c -12.8,6.524174526216772 0,19.768843549220087 27.991437165655626,19.768843549220087
c 15.265409065786272,0 28.065409065786273,-19.541822184481465 15.265409065786272,-54.174996623295
c -12.8,-27.7225 44.8,-17.06 91.4012576008804,-11.891927736123591 L 1280 0 " fill="none" stroke="black" stroke-width="0.1" style="vector-effect:non-scaling-stroke;"/></g><g><path d="M 0 0  L 0 426.500000  c 48.794276431057,-0.0 102.2136572783093,10.662500000000001 87.28032394497596,-32.665898310510705
c -12.8,-9.194099508021523 0,-24.552319790544743 19.38634272169071,-24.552319790544743
c 30.362175764062172,0 43.16217576406217,22.166781605000637 30.362175764062172,42.840077857027225
c -12.8,27.7225 44.8,17.06 76.3044909026045,14.378140244028224 c 50.65278165316773,0.0 93.78413861184235,-10.662500000000001 78.85080527850901,-0.5072014376522933
c -12.8,26.873760430231293 0,70.13101711422236 27.815861388157657,70.13101711422236
c 29.81519206804002,0 42.61519206804002,-10.908783538318426 29.81519206804002,-27.444435260069135
c -12.8,-27.7225 44.8,-17.06 76.85147459862665,-42.179380416500926 c 40.82171026353586,0.0 88.65279513814308,-10.662500000000001 73.71946180480974,3.174450088976977
c -12.8,36.8849173620804 0,67.19816083436069 32.94720486185693,67.19816083436069
c 16.585106194710548,0 29.38510619471055,-44.89880789777626 16.585106194710548,-62.026399118040516
c -12.8,-27.7225 44.8,-17.06 90.08156047195612,-8.346211805297159 c 27.690108663668898,-0.0 95.85778047064551,10.662500000000001 80.92444713731217,-33.07034175442101
c -12.8,-7.380216469006071 0,-34.343294267049416 25.7422195293545,-34.343294267049416
c 30.99425494713806,0 43.79425494713806,37.78798550012363 30.99425494713806,43.76363329239693
c -12.8,27.7225 44.8,17.06 75.67241171952861,23.650002729073492 c 25.725759126615145,-0.0 95.84111183809955,10.662500000000001 80.90777850476621,-35.92711756657681
c -12.8,-14.490841654954409 0,-19.193259935393236 25.758888161900458,-19.193259935393236
c 19.798028321292776,0 32.59802832129277,12.500372646020821 19.798028321292776,20.962419591628937
c -12.8,27.7225 44.8,17.06 86.8686383453739,34.15795791034111 c 14.559518433718681,-0.0 90.51401680690175,10.662500000000001 75.58068347356841,-26.62228838576593
c -12.8,-12.203165108665193 0,-29.67993801355148 31.085983193098258,-29.67993801355148
c 25.480717502196157,0 38.280717502196154,6.55997592309668 25.480717502196157,19.63232839890386
c -12.8,27.7225 44.8,17.06 81.18594916447051,36.66989800041355 L 1280 0 " fill="none" stroke="black" stroke-width="0.1" style="vector-effect:non-scaling-stroke;"/></g><g><path d="M 0 0  L 0 639.750000  c 51.71934610208488,0.0 98.9477440818456,-10.662500000000001 84.01441074851226,36.978913050576004
c -12.8,7.578171043044512 0,21.942375703483357 22.65225591815441,21.942375703483357
c 16.634371984393894,0 29.434371984393895,-10.76398568785228 16.634371984393894,-32.51036911758699
c -12.8,-27.7225 44.8,-17.06 90.03229468227278,-26.41091963647237 c 21.47931808519442,0.0 88.45254641936003,-10.662500000000001 73.5192130860267,26.449775056105377
c -12.8,33.28900852048544 0,40.02064185056514 33.147453580639976,40.02064185056514
c 19.239313210880013,0 32.03931321088001,-37.02957602400218 19.239313210880013,-48.893074537425846
c -12.8,-27.7225 44.8,-17.06 87.42735345578666,-17.577342369244676 c 13.574202165793912,-0.0 105.68440951114827,10.662500000000001 90.75107617781494,-14.507716572803728
c -12.8,-21.195879273264428 0,-44.621795453778645 15.915590488851734,-44.621795453778645
c 30.683591746985897,0 43.483591746985894,35.89117170479368 30.683591746985897,53.84826086431257
c -12.8,27.7225 44.8,17.06 75.98307491968077,5.281251162269804 c 61.020125320497655,-0.0 103.18604557022394,10.662500000000001 88.2527122368906,-27.432007310951814
c -12.8,-22.65899081060856 0,-42.59900621612999 18.41395442977607,-42.59900621612999
c 30.200956233036848,0 43.000956233036845,15.921732654897767 30.200956233036848,32.274603935290536
c -12.8,27.7225 44.8,17.06 76.46571043362982,37.756409591791275 c 58.058491181796086,-0.0 93.65603267401401,10.662500000000001 78.72269934068068,-10.426145818428079
c -12.8,-49.30389916275352 0,-50.362846293644495 27.943967325985994,-50.362846293644495
c 23.560392513108624,0 36.36039251310862,30.521161307137977 23.560392513108624,42.943346174905386
c -12.8,27.7225 44.8,17.06 83.10627415355805,17.84564593716719 c 35.06364851734325,0.0 96.83435964065025,-10.662500000000001 81.90102630731691,-0.8740098557995591
c -12.8,41.97600150700514 0,55.66544952049545 24.76564035934976,55.66544952049545
c 19.865396009637948,0 32.665396009637945,-27.615010387998197 19.865396009637948,-52.061808489611096
c -12.8,-27.7225 44.8,-17.06 86.80127065702872,-2.7296311750847977 L 1280 0 " fill="none" stroke="black" stroke-width="0.1" style="vector-effect:non-scaling-stroke;"/></g></g></svg>