<svg baseProfile="full" height="2813" preserveAspectRatio="none" shape-rendering="geometricPrecision" version="1.1" viewBox="0,0,5000,2813" width="5000" xmlns="http://www.w3.org/2000/svg" xmlns:ev="http://www.w3.org/2001/xml-events" xmlns:xlink="http://www.w3.org/1999/xlink"><title>Jigsaw puzzle piece clips</title><desc>Created with the piecemaker. Piece count: 32</desc><defs/><g><g><rect fill="white" height="2813" width="5000" x="0" y="0"/></g></g><g><g><path d="M 0 0  L 625.000000 0  c -0.0,179.5068248640834 31.25,302.1767130147002 -70.62779756117527,252.94921301470023
c -97.33511397287451,-42.195 -141.81792529082895,0 -141.81792529082895,98.67578698529977
c 0,69.33894089379027 130.96561451100845,111.53394089379026 140.96607287628262,69.33894089379027
c 81.25,-42.195 50.0,147.6825 71.4796499757216,282.28605910620973 c 0.0,112.07510671871512 -31.25,294.93982863246646 11.115996141276296,245.71232863246644
c 114.01583570622411,-42.195 184.70462909904856,0 184.70462909904856,105.91267136753356
c 0,105.60221201863374 -54.80267717078377,147.79721201863373 -62.74868109289636,105.60221201863374
c -81.25,-42.195 -50.0,147.6825 -133.0719441474285,246.02278798136626 c 0.0,42.41890249863508 -31.25,310.6052761143565 82.59261839871596,261.3777761143565
c 34.11602742907793,-42.195 94.68491936587228,0 94.68491936587228,90.2472238856435
c 0,68.53413235336177 -32.144696693649436,110.72913235336176 -67.3190747345813,68.53413235336177
c -81.25,-42.195 -50.0,147.6825 -109.95846303000693,283.09086764663823 c -0.0,194.14940476984063 31.25,323.2107310357513 -36.91357740550449,273.98323103575126
c -96.64123254403215,-42.195 -118.04455160342528,0 -118.04455160342528,77.64176896424874
c 0,71.4116212569931 142.37488215101376,113.6066212569931 166.07643745727083,71.4116212569931
c 81.25,-42.195 50.0,147.6825 -11.118308448341054,280.2133787430069 L 0 2813 " fill="none" stroke="black" stroke-width="0.1" style="vector-effect:non-scaling-stroke;"/></g><g><path d="M 0 0  L 1250.000000 0  c 0.0,79.07593793272801 -31.25,306.3788480362631 5.418933700121131,257.1513480362631
c 125.52338052308353,-42.195 194.04931508433822,0 194.04931508433822,94.47365196373693
c 0,75.76392222425306 -25.655346697342406,117.95892222425306 -92.8241302140766,75.76392222425306
c -81.25,-42.195 -50.0,147.6825 -106.64411857038274,275.86107777574694 c 0.0,84.36934036239593 -31.25,304.9290230819459 110.5341182881499,255.70152308194588
c 37.14108161587941,-42.195 46.185776106670005,0 46.185776106670005,95.92347691805412
c 0,106.41798488716074 -91.01808180783847,148.61298488716074 -117.55321441637632,106.41798488716074
c -81.25,-42.195 -50.0,147.6825 -39.16667997844358,245.20701511283926 c -0.0,163.5349604473319 31.25,320.28479871979954 2.875855624230695,271.0572987197995
c -44.55532280487057,-42.195 -187.44079423712458,0 -187.44079423712458,80.56770128020048
c 0,50.25856832673611 42.07258798518672,92.4535683267361 100.64922032415548,50.25856832673611
c 81.25,-42.195 50.0,147.6825 83.9157182887384,301.3664316732639 c 0.0,71.6409529763087 -31.25,337.58712966752915 74.47871715799685,288.35962966752913
c 65.94046182509057,-42.195 123.91978568275745,0 123.91978568275745,63.265370332470866
c 0,78.39848173694429 -48.97202769464168,120.59348173694428 -145.85692886428598,78.39848173694429
c -81.25,-42.195 -50.0,147.6825 -52.54157397646833,273.2265182630557 L 0 2813 " fill="none" stroke="black" stroke-width="0.1" style="vector-effect:non-scaling-stroke;"/></g><g><path d="M 0 0  L 1875.000000 0  c -0.0,88.47213848667819 31.25,334.628757084653 -49.029174172341754,285.40125708465297
c -76.14196123750109,-42.195 -104.13848443268782,0 -104.13848443268782,66.22374291534703
c 0,62.20998720683821 86.25021579651457,104.4049872068382 92.54055301082035,62.20998720683821
c 81.25,-42.195 50.0,147.6825 60.627105594209226,289.4150127931618 c -0.0,160.6550392417658 31.25,317.7712369500483 -58.99698493158066,268.5437369500483
c -89.51181144053544,-42.195 -103.17445571189685,0 -103.17445571189685,83.0812630499517
c 0,74.67120503324543 34.83475998065468,116.86620503324542 161.53759277526058,74.67120503324543
c 81.25,-42.195 50.0,147.6825 0.6338478682169466,276.9537949667546 c 0.0,70.08507378328481 -31.25,290.37703321204447 32.23901673373814,241.14953321204447
c 102.63138536090447,-42.195 133.43607175796137,0 133.43607175796137,110.47546678795553
c 0,72.40584806201957 -29.644890695963166,114.60084806201957 -30.71070120719574,72.40584806201957
c -81.25,-42.195 -50.0,147.6825 -134.96438728450377,279.2191519379804 c 0.0,44.54303649754736 -31.25,298.9154372363847 66.10867578744813,249.6879372363847
c 72.40010640204488,-42.195 95.23773300441152,0 95.23773300441152,101.9370627636153
c 0,50.89467618320185 -33.133222005837816,93.08967618320185 -49.78773814254866,50.89467618320185
c -81.25,-42.195 -50.0,147.6825 -111.558670649311,300.73032381679815 L 0 2813 " fill="none" stroke="black" stroke-width="0.1" style="vector-effect:non-scaling-stroke;"/></g><g><path d="M 0 0  L 2500.000000 0  c 0.0,200.50884691139268 -31.25,334.3283668844852 73.37838625940398,285.1008668844852
c 59.1501777493739,-42.195 78.07682487303654,0 78.07682487303654,66.52413311551481
c 0,60.057680452820705 -10.06310954295579,102.2526804528207 -34.26737130399448,60.057680452820705
c -81.25,-42.195 -50.0,147.6825 -117.18783982844604,291.5673195471793 c 0.0,60.4701112149579 -31.25,342.58368414686686 88.87410757292919,293.35618414686684
c 121.25583760329661,-42.195 122.65823728438174,0 122.65823728438174,58.26881585313316
c 0,70.91632008646548 -58.72329725402454,113.11132008646547 -183.71632620417924,70.91632008646548
c -81.25,-42.195 -50.0,147.6825 -27.816018653131692,280.7086799135345 c 0.0,49.42945424183132 -31.25,339.070539462741 95.94837144593278,289.843039462741
c 77.23665336135959,-42.195 109.3184320060761,0 109.3184320060761,61.78196053725901
c 0,65.97054288278082 -125.79159562268948,108.16554288278081 -174.68537285856448,65.97054288278082
c -81.25,-42.195 -50.0,147.6825 -30.581430593444395,285.6544571172192 c -0.0,55.1763639055801 31.25,338.9911225774694 -40.21040527951155,289.7636225774694
c -107.19049059744427,-42.195 -121.42315141558123,0 -121.42315141558123,61.86137742253061
c 0,106.14028944160583 21.369518311310333,148.33528944160582 90.812767099857,106.14028944160583
c 81.25,-42.195 50.0,147.6825 70.82078959523578,245.48471055839417 L 0 2813 " fill="none" stroke="black" stroke-width="0.1" style="vector-effect:non-scaling-stroke;"/></g><g><path d="M 0 0  L 3125.000000 0  c -0.0,93.01535128669268 31.25,289.5439578621441 -32.93363334548852,240.31645786214412
c -82.43475296729338,-42.195 -141.24740587520773,0 -141.24740587520773,111.30854213785588
c 0,49.74380521001336 53.23010864901517,91.93880521001336 109.89139911189008,49.74380521001336
c 81.25,-42.195 50.0,147.6825 64.28964010880617,301.88119478998664 c 0.0,55.5197866004277 -31.25,331.8119767789311 -2.553453607556616,282.5844767789311
c 69.62127430878631,-42.195 202.06860456807703,0 202.06860456807703,69.0405232210689
c 0,78.72091301201868 -120.79149835071235,120.91591301201868 -196.87249498230383,78.72091301201868
c -81.25,-42.195 -50.0,147.6825 -2.6426559782165953,272.9040869879813 c 0.0,111.86739053927096 -31.25,315.2701884415698 69.7139384927132,266.0426884415698
c 54.715340784708125,-42.195 111.30575811638565,0 111.30575811638565,85.5823115584302
c 0,56.58528610883343 -68.3421055194006,98.78028610883342 -104.83784218379321,56.58528610883343
c -81.25,-42.195 -50.0,147.6825 -76.18185442530563,295.03971389116657 c -0.0,115.8238952377206 31.25,333.40054653030904 -5.316719115069717,284.173046530309
c -151.31867532744266,-42.195 -180.6741256558888,0 -180.6741256558888,67.45195346969098
c 0,77.56488985877331 54.38362463706021,119.7598898587733 122.8818126478639,77.56488985877331
c 81.25,-42.195 50.0,147.6825 63.10903212309462,274.0601101412267 L 0 2813 " fill="none" stroke="black" stroke-width="0.1" style="vector-effect:non-scaling-stroke;"/></g><g><path d="M 0 0  L 3750.000000 0  c -0.0,77.44483053505164 31.25,294.97168488218813 2.5846132022244337,245.7441848821881
c -181.39169945508658,-42.195 -202.91624824209558,0 -202.91624824209558,105.88081511781189
c 0,71.8908574069523 71.91997327574897,114.0858574069523 175.90943701336704,71.8908574069523
c 81.25,-42.195 50.0,147.6825 24.422198026504105,279.7341425930477 c -0.0,158.9631962761691 31.25,326.8116385925498 -26.060755351454567,277.5841385925498
c -86.00868916319132,-42.195 -185.4615661304785,0 -185.4615661304785,74.04086140745022
c 0,61.96801098550918 61.939475424125085,104.16301098550917 86.41123701146368,61.96801098550918
c 81.25,-42.195 50.0,147.6825 125.11108447046938,289.6569890144908 c 0.0,98.13390837343168 -31.25,337.0385695657426 27.245612453094658,287.81106956574257
c 93.10031879495922,-42.195 129.7794679379025,0 129.7794679379025,63.81393043425743
c 0,68.86443208275244 -19.64015346814697,111.05943208275244 -22.001857600302344,68.86443208275244
c -81.25,-42.195 -50.0,147.6825 -135.0232227906948,282.76056791724756 c 0.0,128.852501879253 -31.25,350.5824144291285 65.63022603191477,301.3549144291285
c 76.13358234776781,-42.195 113.43142242653117,0 113.43142242653117,50.270085570871515
c 0,62.259288892973075 -49.61905555707443,104.45428889297307 -57.02541052278234,62.259288892973075
c -81.25,-42.195 -50.0,147.6825 -122.0362379356636,289.3657111070269 L 0 2813 " fill="none" stroke="black" stroke-width="0.1" style="vector-effect:non-scaling-stroke;"/></g><g><path d="M 0 0  L 4375.000000 0  c -0.0,120.12906843737878 31.25,292.73616526273446 8.04707988834984,243.50866526273447
c -94.99795527438047,-42.195 -169.0412205002503,0 -169.0412205002503,108.11633473726553
c 0,91.79207779624664 111.43855295813403,133.98707779624664 131.18549665499995,91.79207779624664
c 81.25,-42.195 50.0,147.6825 29.80864395690051,259.83292220375336 c -0.0,98.97264913686014 31.25,331.07711607878764 -105.45907931644736,281.8496160787876
c -43.45214442043859,-42.195 -89.94306318072124,0 -89.94306318072124,69.77538392121238
c 0,77.00182902743984 34.411152021206014,119.19682902743983 156.05243947612865,77.00182902743984
c 81.25,-42.195 50.0,147.6825 39.34970302103994,274.62317097256016 c -0.0,50.715680409632405 31.25,349.2006481571977 -109.20620948951232,299.97314815719767
c -47.493049206418135,-42.195 -84.58742497481809,0 -84.58742497481809,51.65185184280233
c 0,69.45956615452758 142.9703984135625,111.65456615452757 143.55777961922948,69.45956615452758
c 81.25,-42.195 50.0,147.6825 50.23585484510093,282.1654338454724 c -0.0,174.78654396831226 31.25,328.0327904671083 -101.28014065966887,278.8052904671083
c -14.977409871344495,-42.195 -55.648523258081,0 -55.648523258081,72.8197095328917
c 0,78.17413287977894 43.5349586403048,120.36913287977893 54.71761885851545,78.17413287977894
c 81.25,-42.195 50.0,147.6825 102.21104505923442,273.45086712022106 L 0 2813 " fill="none" stroke="black" stroke-width="0.1" style="vector-effect:non-scaling-stroke;"/></g></g><g><g><path d="M 0 0  L 0 703.250000  c 175.10451658626104,-0.0 287.39145613344164,35.1625 243.6414561334416,-126.83574137389665
c -37.5,-60.555310087256885 0,-72.88178139270703 68.85854386655839,-72.88178139270703
c 49.630609735523194,0 87.1306097355232,33.04828440188091 49.630609735523194,59.30647327600249
c -37.5,91.4225 131.25,56.26 262.8693902644768,140.4110494906012 c 144.16586409614703,-0.0 272.49495501534204,35.1625 228.74495501534204,-64.27991015061463
c -37.5,-101.51512637515454 0,-157.20515581009252 83.75504498465796,-157.20515581009252
c 57.229877349433536,0 94.72987734943354,48.87286248351756 57.229877349433536,118.5187008261905
c -37.5,91.4225 131.25,56.26 255.27012265056646,102.96636513451665 c 117.64715483478246,0.0 312.096122069008,-35.1625 268.346122069008,1.2923968156433496
c -37.5,153.26655763225045 0,218.3218840443224 44.153877930991996,218.3218840443224
c 78.76830730503212,0 116.26830730503212,-70.30623304164551 78.76830730503212,-101.59748935779143
c -37.5,-91.4225 131.25,-56.26 233.73169269496788,-118.0167915021743 c 66.09963429826358,0.0 279.61420511373785,-35.1625 235.86420511373785,106.2802869609755
c -37.5,42.534876194483225 0,63.57041930750313 76.63579488626215,63.57041930750313
c 67.66757321257177,0 105.16757321257177,-101.81430829087525 67.66757321257177,-121.11896039730081
c -37.5,-91.4225 131.25,-56.26 244.83242678742823,-48.73174587117782 c 109.64837181246679,-0.0 287.46505189937443,35.1625 243.71505189937443,-70.78114661519334
c -37.5,-121.28483984811194 0,-161.41890277150029 68.78494810062557,-161.41890277150029
c 91.95738015832427,0 129.45738015832427,60.0570030743824 91.95738015832427,111.00987268773044
c -37.5,91.4225 131.25,56.26 220.54261984167573,121.19017669896319 c 172.6481016567458,-0.0 275.4960717084279,35.1625 231.7460717084279,-62.03370072378926
c -37.5,-42.49612510033619 0,-142.698252086524 80.7539282915721,-142.698252086524
c 71.13028866723994,0 108.63028866723994,84.97656261703607 71.13028866723994,152.08427611636816
c -37.5,91.4225 131.25,56.26 241.36971133276006,52.6476766939451 c 107.87688176284237,0.0 257.77203787249505,-35.1625 214.02203787249502,152.28037762668504
c -37.5,13.411217336103059 0,49.8694460852617 98.47796212750498,49.8694460852617
c 70.30960368693923,0 107.80960368693923,-85.38680049967107 70.30960368693923,-124.80854008604669
c -37.5,-91.4225 131.25,-56.26 242.19039631306077,-77.34128362590005 c 140.60674937720276,-0.0 311.7795712922744,35.1625 268.0295712922744,-37.49495903536865
c -37.5,-61.73125667260869 0,-155.08632787640713 44.4704287077256,-155.08632787640713
c 64.88310270769557,0 102.38310270769557,70.7008951980225 64.88310270769557,93.59303967556885
c -37.5,91.4225 131.25,56.26 247.61689729230443,98.98824723620693 L 5000 0 " fill="none" stroke="black" stroke-width="0.1" style="vector-effect:non-scaling-stroke;"/></g><g><path d="M 0 0  L 0 1406.500000  c 92.9904144824246,-0.0 272.9663757117406,35.1625 229.21637571174062,-111.15814262545864
c -37.5,-25.493797013494298 0,-76.35309443168622 83.28362428825938,-76.35309443168622
c 63.808106414844474,0 101.30810641484447,123.24490529187523 63.808106414844474,171.64008646821515
c -37.5,91.4225 131.25,56.26 248.69189358515553,15.871150588929709 c 132.06659137914804,0.0 298.43839654432816,-35.1625 254.68839654432813,-2.2642139640623045
c -37.5,51.45115481011583 0,183.42967833079757 57.81160345567187,183.42967833079757
c 93.11820742105442,0 130.61820742105442,-68.74794460189997 93.11820742105442,-102.73535452946989
c -37.5,-91.4225 131.25,-56.26 219.38179257894558,-78.43010983726539 c 80.38592535072677,-0.0 292.2849963485369,35.1625 248.53499634853685,-8.685855286169312
c -37.5,-64.19136066917919 0,-204.09850679302107 63.96500365146315,-204.09850679302107
c 87.66500003846073,0 125.16500003846073,47.22593215095587 87.66500003846073,153.3792235169719
c -37.5,91.4225 131.25,56.26 224.83499996153927,59.40513856221847 c 168.93091223296932,0.0 300.8235501386474,-35.1625 257.0735501386474,51.67170998149034
c -37.5,73.2347796734115 0,149.0551466394739 55.42644986135258,149.0551466394739
c 84.25934430714864,0 121.75934430714864,-46.15282546058676 84.25934430714864,-104.43043259780963
c -37.5,-91.4225 131.25,-56.26 228.24065569285136,-96.29642402315459 c 44.37797524495103,0.0 305.4556734576387,-35.1625 261.7056734576387,11.11506528023671
c -37.5,113.92504512275941 0,209.6353049594864 50.79432654236132,209.6353049594864
c 99.82595008531257,0 137.32595008531257,-90.8443875381972 99.82595008531257,-136.26292152067174
c -37.5,-91.4225 131.25,-56.26 212.67404991468743,-84.48744871905137 c 116.16863910758602,0.0 291.6893232842488,-35.1625 247.9393232842488,102.92935337872564
c -37.5,46.04044255884164 0,125.41044239398977 64.56067671575121,125.41044239398977
c 70.86231140589899,0 108.36231140589899,-80.86312826985785 70.86231140589899,-154.14298320135254
c -37.5,-91.4225 131.25,-56.26 241.637688594101,-74.19681257136287 c 89.55131635886593,-0.0 277.0834672101289,35.1625 233.3334672101289,-123.81053495001353
c -37.5,-83.14053867740058 0,-110.13494921423023 79.1665327898711,-110.13494921423023
c 89.24153259476645,0 126.74153259476645,56.66156162859005 89.24153259476645,135.21206990082624
c -37.5,91.4225 131.25,56.26 223.25846740523355,98.73341426341753 c 117.81386009091503,0.0 265.139849932663,-35.1625 221.389849932663,97.39937109722564
c -37.5,75.75940455711445 0,84.75669212448747 91.110150067337,84.75669212448747
c 92.22202099155618,0 129.72202099155618,-31.698221179122857 92.22202099155618,-35.70248636115929
c -37.5,-91.4225 131.25,-56.26 220.27797900844382,-146.45357686055382 L 5000 0 " fill="none" stroke="black" stroke-width="0.1" style="vector-effect:non-scaling-stroke;"/></g><g><path d="M 0 0  L 0 2109.750000  c 147.66405111811116,0.0 295.5592768119898,-35.1625 251.80927681198975,81.98448514391077
c -37.5,49.75078968875965 0,147.24158224280686 60.69072318801025,147.24158224280686
c 98.14896258006951,0 135.6489625800695,-58.80297839678301 98.14896258006951,-200.95226229977823
c -37.5,-91.4225 131.25,-56.26 214.3510374199305,-28.273805086939404 c 109.06461215374752,-0.0 279.0786134471702,35.1625 235.32861344717017,-27.654401518591882
c -37.5,-87.07834498944959 0,-142.98816484775926 77.17138655282983,-142.98816484775926
c 48.13613243240559,0 85.63613243240559,53.86174684769847 48.13613243240559,137.81168168077994
c -37.5,91.4225 131.25,56.26 264.3638675675944,32.83088468557122 c 90.34755520251355,0.0 280.96342195715397,-35.1625 237.21342195715394,24.39528378921735
c -37.5,56.685685912065445 0,160.6724653717226 75.28657804284606,160.6724653717226
c 66.37613517204989,0 103.87613517204989,-154.27914484270065 66.37613517204989,-154.32776716127097
c -37.5,-91.4225 131.25,-56.26 246.12386482795011,-30.739981999669 c 159.89200276074808,0.0 294.3902201153031,-35.1625 250.6402201153031,31.771838269035367
c -37.5,106.80178853926394 0,193.00902739507822 61.859779884696906,193.00902739507822
c 92.64294636260513,0 130.14294636260513,-121.89453047402209 92.64294636260513,-134.80370595812747
c -37.5,-91.4225 131.25,-56.26 219.85705363739487,-89.97715970598611 c 90.85746279124271,-0.0 269.7212564903309,35.1625 225.97125649033092,-110.641756172869
c -37.5,-33.218275658137856 0,-108.69184209619193 86.52874350966908,-108.69184209619193
c 93.1479039130216,0 130.6479039130216,133.09348980678936 93.1479039130216,153.13181175797763
c -37.5,91.4225 131.25,56.26 219.3520960869784,66.2017865110833 c 72.34328084323893,0.0 265.2589043806101,-35.1625 221.50890438061006,146.82970525820244
c -37.5,47.285479385372106 0,62.375748098453755 90.99109561938994,62.375748098453755
c 61.24288418122637,0 98.74288418122637,-80.31748773866495 61.24288418122637,-168.0276778056059
c -37.5,-91.4225 131.25,-56.26 251.25711581877363,-41.1777755510503 c 88.28077324499007,0.0 282.54185662067846,-35.1625 238.79185662067846,125.43554926383982
c -37.5,45.32097464520814 0,65.2215516961329 73.70814337932154,65.2215516961329
c 98.15852256620258,0 135.65852256620258,-15.66569086023422 98.15852256620258,-73.32645223531463
c -37.5,-91.4225 131.25,-56.26 214.34147743379742,-117.33064872465809 c 156.36770724571227,-0.0 266.2604190456649,35.1625 222.5104190456649,-37.50297279453726
c -37.5,-40.30285488568597 0,-184.91462526970946 89.98958095433511,-184.91462526970946
c 51.01282575353116,0 88.51282575353116,127.89795227267541 51.01282575353116,129.64708029719617
c -37.5,91.4225 131.25,56.26 261.48717424646884,92.77051776705053 L 5000 0 " fill="none" stroke="black" stroke-width="0.1" style="vector-effect:non-scaling-stroke;"/></g></g></svg>