<svg baseProfile="full" height="3729" preserveAspectRatio="none" shape-rendering="geometricPrecision" version="1.1" viewBox="0,0,4434,3729" width="4434" xmlns="http://www.w3.org/2000/svg" xmlns:ev="http://www.w3.org/2001/xml-events" xmlns:xlink="http://www.w3.org/1999/xlink"><title>Jigsaw puzzle piece clips</title><desc>Created with the piecemaker. Piece count: 56</desc><defs /><g><g><rect fill="white" height="3729" width="4434" x="0" y="0" /></g></g><g><g><path d="M 0 0  L 554.250000 0  c 0.0,136.9048192774719 -27.712500000000002,228.10468298988508 2.4561020781461878,190.81468298988509&#10;c 150.4035035146159,-31.96285714285714 183.42954908926433,0 183.42954908926433,75.54245986725775&#10;c 0,51.97865512598065 -68.12022941661715,83.94151226883778 -195.76523518613956,51.97865512598065&#10;c -72.05250000000001,-31.96285714285714 -44.34,111.86999999999999 9.879584018729048,214.37848773116218 c -0.0,54.56320729394878 27.712500000000002,222.35770140832346 -99.81434746805472,185.06770140832347&#10;c -33.14629787500689,-31.96285714285714 -62.66843166325832,0 -62.66843166325832,81.28944144881936&#10;c 0,68.54227779691143 48.010918375140186,100.50513493976857 57.83430560630612,68.54227779691143&#10;c 72.05250000000001,-31.96285714285714 44.34,111.86999999999999 104.64847352500692,197.8148650602314 c -0.0,78.93610470458164 27.712500000000002,223.78421977325337 -52.205978893431016,186.49421977325338&#10;c -103.12398470005924,-31.96285714285714 -105.91706840898615,0 -105.91706840898615,79.86292308388946&#10;c 0,45.09777579846855 40.5877797053488,77.06063294132568 49.4797058436027,45.09777579846855&#10;c 72.05250000000001,-31.96285714285714 44.34,111.86999999999999 108.64334145881448,221.2593670586743 c -0.0,154.20223670226042 27.712500000000002,255.356292732711 -9.443580917805276,218.06629273271102&#10;c -158.96856136098066,-31.96285714285714 -162.72824609728173,0 -162.72824609728173,48.29085012443181&#10;c 0,52.65538560019348 18.97023589648785,84.61824274305062 75.5174650432887,52.65538560019348&#10;c 72.05250000000001,-31.96285714285714 44.34,111.86999999999999 96.6543619717983,213.70175725694935 c -0.0,101.11625779221922 27.712500000000002,229.69024994618349 -6.840130306382849,192.4002499461835&#10;c -37.74666143434344,-31.96285714285714 -146.47693023212037,0 -146.47693023212037,73.95689291095934&#10;c 0,65.03419383526028 10.54297298086394,96.99705097811741 38.4388181963339,65.03419383526028&#10;c 72.05250000000001,-31.96285714285714 44.34,111.86999999999999 114.87824234216933,201.32294902188255 c -0.0,78.09197453063277 27.712500000000002,241.18118692694316 -93.46838406308277,203.89118692694316&#10;c -49.869823324802645,-31.96285714285714 -63.79449996026676,0 -63.79449996026676,62.46595593019967&#10;c 0,41.83130955793314 75.88170595375256,73.79416670079027 157.1611383145186,41.83130955793314&#10;c 72.05250000000001,-31.96285714285714 44.34,111.86999999999999 0.1017457088309186,224.5258332992097 c -0.0,58.88887408817577 27.712500000000002,256.08245423600783 -43.831001635910326,218.79245423600784&#10;c -82.86867108802875,-31.96285714285714 -133.239304491369,0 -133.239304491369,47.56468862113499&#10;c 0,69.14443570574986 27.199599819854548,101.10729284860699 107.6999257427355,69.14443570574986&#10;c 72.05250000000001,-31.96285714285714 44.34,111.86999999999999 69.37038038454384,197.21270715139298 L 0 3729 " fill="none" stroke="black" stroke-width="0.1" style="vector-effect:non-scaling-stroke;" /></g><g><path d="M 0 0  L 1108.500000 0  c 0.0,45.02236761902913 -27.712500000000002,255.197341642523 85.64325835964256,217.90734164252302&#10;c 58.69564651276396,-31.96285714285714 65.26427249071214,0 65.26427249071214,48.44980121461981&#10;c 0,77.78737636474352 -87.25823466179207,109.75023350760065 -121.89395790086894,77.78737636474352&#10;c -72.05250000000001,-31.96285714285714 -44.34,111.86999999999999 -29.013572949485763,188.5697664923993 c 0.0,50.518031762893976 -27.712500000000002,237.98952285331953 95.48829057131552,200.69952285331954&#10;c 27.22750100137165,-31.96285714285714 38.402477427822916,0 38.402477427822916,65.6576200038233&#10;c 0,55.06827266386574 -32.19488192567895,87.03112980672287 -41.436345527630024,55.06827266386574&#10;c -72.05250000000001,-31.96285714285714 -44.34,111.86999999999999 -92.45442247150841,211.2888701932771 c 0.0,82.94500069993596 -27.712500000000002,246.84218659161763 45.1330589956757,209.55218659161764&#10;c 34.62145696844324,-31.96285714285714 130.09764152832042,0 130.09764152832042,56.80495626552519&#10;c 0,64.83614967944158 -27.88613578293588,96.79900682229871 -97.9179258158163,64.83614967944158&#10;c -72.05250000000001,-31.96285714285714 -44.34,111.86999999999999 -77.31277470817982,201.52099317770126 c 0.0,150.05474865965297 -27.712500000000002,221.32195364122938 52.029677758588754,184.0319536412294&#10;c 61.20518466601138,-31.96285714285714 122.9577434700669,0 122.9577434700669,82.32518921591344&#10;c 0,73.79405196912802 -53.25904378390534,105.75690911198515 -185.3342824578496,73.79405196912802&#10;c -72.05250000000001,-31.96285714285714 -44.34,111.86999999999999 10.346861229193962,192.5630908880148 c -0.0,149.3335101157744 27.712500000000002,259.25222266191906 -29.94882069623753,221.96222266191904&#10;c -66.04520300446444,-31.96285714285714 -121.75447453615291,0 -121.75447453615291,44.39492019522379&#10;c 0,50.540493980214876 25.493653115272572,82.50335112307201 55.27665703701763,50.540493980214876&#10;c 72.05250000000001,-31.96285714285714 44.34,111.86999999999999 96.42663819537282,215.81664887692796 c -0.0,49.27316170808943 27.712500000000002,226.45744605286322 -78.26059650559137,189.16744605286323&#10;c -86.54727976860322,-31.96285714285714 -95.18276846565433,0 -95.18276846565433,77.1896968042796&#10;c 0,59.67276548172242 42.272669363034595,91.63562262457955 86.04229347252029,59.67276548172242&#10;c 72.05250000000001,-31.96285714285714 44.34,111.86999999999999 87.40107149872541,206.6843773754204 c 0.0,59.26914599596925 -27.712500000000002,259.7355383689543 73.00464085619423,222.4455383689543&#10;c 31.44230049037683,-31.96285714285714 79.49358216586337,0 79.49358216586337,43.911604488188544&#10;c 0,55.33782106041804 -21.95786976282819,87.30067820327517 -56.32600216808369,55.33782106041804&#10;c -72.05250000000001,-31.96285714285714 -44.34,111.86999999999999 -96.17222085397391,211.0193217967248 L 0 3729 " fill="none" stroke="black" stroke-width="0.1" style="vector-effect:non-scaling-stroke;" /></g><g><path d="M 0 0  L 1662.750000 0  c -0.0,114.39739315625258 27.712500000000002,237.0033787377361 -24.899629480874626,199.71337873773612&#10;c -106.80930925303522,-31.96285714285714 -108.14058071277331,0 -108.14058071277331,66.64376411940671&#10;c 0,47.044101964169215 40.74980424415726,79.00695910702635 71.9786425092974,47.044101964169215&#10;c 72.05250000000001,-31.96285714285714 44.34,111.86999999999999 61.061567684350536,219.31304089297362 c -0.0,54.745881103882 27.712500000000002,228.27880306126275 -59.02114079324465,190.98880306126276&#10;c -113.75294807122476,-31.96285714285714 -123.08845854210759,0 -123.08845854210759,75.36833979588008&#10;c 0,41.232068981419104 114.01894055397656,73.19492612427624 160.6999371303361,41.232068981419104&#10;c 72.05250000000001,-31.96285714285714 44.34,111.86999999999999 21.409662205016133,225.12507387572373 c 0.0,101.20119102766208 -27.712500000000002,244.0341134790792 35.365558374540655,206.7441134790792&#10;c 36.20286202660754,-31.96285714285714 118.81864197607376,0 118.81864197607376,59.61302937806363&#10;c 0,64.76349245913411 -81.5372141256308,96.72634960199125 -88.42884499348634,64.76349245913411&#10;c -72.05250000000001,-31.96285714285714 -44.34,111.86999999999999 -65.75535535712808,201.59365039800872 c 0.0,146.74122497872324 -27.712500000000002,251.68444906544855 40.23430921542259,214.39444906544855&#10;c 65.76963816453161,-31.96285714285714 95.17467061688188,0 95.17467061688188,51.96269379169428&#10;c 0,47.619087794652785 -30.38581951961129,79.58194493750992 -125.12460488008453,47.619087794652785&#10;c -72.05250000000001,-31.96285714285714 -44.34,111.86999999999999 -10.284374952219949,218.73805506249005 c -0.0,96.21077436008272 27.712500000000002,247.4017829841328 -9.413362302589407,210.11178298413282&#10;c -145.46694347764253,-31.96285714285714 -158.88653806025803,0 -158.88653806025803,56.24535987301002&#10;c 0,40.29241588706907 46.02207202665272,72.2552730299262 147.9573558081911,40.29241588706907&#10;c 72.05250000000001,-31.96285714285714 44.34,111.86999999999999 20.342544554656342,226.06472697007376 c -0.0,95.90386735370991 27.712500000000002,223.4255556304954 1.0408299110068473,186.13555563049542&#10;c -76.20674751077537,-31.96285714285714 -149.88737062285546,0 -149.88737062285546,80.22158722664742&#10;c 0,45.00923073850345 138.65643345043952,76.97208788136058 155.18645338446075,45.00923073850345&#10;c 72.05250000000001,-31.96285714285714 44.34,111.86999999999999 -6.339912672612144,221.34791211863939 c -0.0,42.43203575790746 27.712500000000002,224.25334816861428 -58.94057348561357,186.9633481686143&#10;c -32.63488811186478,-31.96285714285714 -77.28820958477242,0 -77.28820958477242,79.39379468852854&#10;c 0,79.25442763441498 27.786609369787847,111.21728477727211 76.34733009391002,79.25442763441498&#10;c 72.05250000000001,-31.96285714285714 44.34,111.86999999999999 59.88145297647597,187.10271522272785 L 0 3729 " fill="none" stroke="black" stroke-width="0.1" style="vector-effect:non-scaling-stroke;" /></g><g><path d="M 0 0  L 2217.000000 0  c -0.0,85.41649254619367 27.712500000000002,261.93305040427936 -50.84877108209762,224.64305040427934&#10;c -92.74547545675337,-31.96285714285714 -121.62971565901927,0 -121.62971565901927,41.7140924528635&#10;c 0,41.28248737397695 104.64775167881828,73.24534451683408 105.36047447722686,41.28248737397695&#10;c 72.05250000000001,-31.96285714285714 44.34,111.86999999999999 67.11801226389002,225.07465548316588 c 0.0,128.52622685862943 -27.712500000000002,224.6545554994812 110.70034228300078,187.3645554994812&#10;c 19.785229160773024,-31.96285714285714 58.532793114953606,0 58.532793114953606,78.99258735766162&#10;c 0,55.02539272037154 -53.81525432813626,86.98824986322867 -57.70557118290621,55.02539272037154&#10;c -72.05250000000001,-31.96285714285714 -44.34,111.86999999999999 -111.52756421504817,211.3317501367713 c 0.0,125.82562009180263 -27.712500000000002,257.1273218601057 117.9596055026453,219.8373218601057&#10;c 13.592211234822697,-31.96285714285714 56.14432034249194,0 56.14432034249194,46.51982099703713&#10;c 0,62.07113219502429 -59.61189242799202,94.03398933788142 -62.22112917980179,62.07113219502429&#10;c -72.05250000000001,-31.96285714285714 -44.34,111.86999999999999 -111.88279666533545,204.28601066211854 c 0.0,124.11999041598861 -27.712500000000002,250.8367867100105 -6.611196953938268,213.5467867100105&#10;c 103.02923483365014,-31.96285714285714 140.99606641254047,0 140.99606641254047,52.810356147132325&#10;c 0,40.03740222467604 -58.288771294499426,72.00025936753318 -133.60600231530407,40.03740222467604&#10;c -72.05250000000001,-31.96285714285714 -44.34,111.86999999999999 -0.7788671432981289,226.3197406324668 c 0.0,101.18910650657735 -27.712500000000002,226.22542014070962 94.20952065382065,188.93542014070962&#10;c 81.86403254278498,-31.96285714285714 89.0505531327793,0 89.0505531327793,77.42172271643321&#10;c 0,78.23081037157903 -40.37913732735191,110.19366751443616 -149.149919507335,78.23081037157903&#10;c -72.05250000000001,-31.96285714285714 -44.34,111.86999999999999 -34.11015427926495,188.1263324855638 c -0.0,136.51377238051515 27.712500000000002,259.2734413638721 -104.37711999342451,221.98344136387212&#10;c -17.75944471966424,-31.96285714285714 -62.869429539438954,0 -62.869429539438954,44.373701493270715&#10;c 0,80.61911792442515 10.043833593229476,112.58197506728229 47.56380812111293,80.61911792442515&#10;c 72.05250000000001,-31.96285714285714 44.34,111.86999999999999 119.68274141175054,185.73802493271768 c -0.0,39.2415787722643 27.712500000000002,260.2406552003722 -48.809051079181295,222.95065520037218&#10;c -94.558478082499,-31.96285714285714 -95.22240932715431,0 -95.22240932715431,43.40648765677065&#10;c 0,67.87263432958179 71.6624051213645,99.83549147243892 107.88798134864993,67.87263432958179&#10;c 72.05250000000001,-31.96285714285714 44.34,111.86999999999999 36.14347905768568,198.48450852756105 L 0 3729 " fill="none" stroke="black" stroke-width="0.1" style="vector-effect:non-scaling-stroke;" /></g><g><path d="M 0 0  L 2771.250000 0  c 0.0,109.26950362574775 -27.712500000000002,264.5832697045038 67.50789885282798,227.29326970450376&#10;c 52.431803133410725,-31.96285714285714 68.10869697910049,0 68.10869697910049,39.063873152639076&#10;c 0,80.33186843395134 -22.143314806277594,112.29472557680847 -55.00619121971569,80.33186843395134&#10;c -72.05250000000001,-31.96285714285714 -44.34,111.86999999999999 -80.61040461221278,186.0252744231915 c 0.0,97.69866145638784 -27.712500000000002,225.24097502034343 -1.0048958039411655,187.95097502034344&#10;c 149.29335445106352,-31.96285714285714 164.23969798983296,0 164.23969798983296,78.4061678367994&#10;c 0,44.500657773160185 -36.856990191999415,76.46351491601732 -111.3233208441213,44.500657773160185&#10;c -72.05250000000001,-31.96285714285714 -44.34,111.86999999999999 -51.9114813417705,221.85648508398265 c -0.0,56.198823777098845 27.712500000000002,235.67367224967552 5.732070394422135,198.38367224967553&#10;c -75.39824279864932,-31.96285714285714 -146.8991181807266,0 -146.8991181807266,67.9734706074673&#10;c 0,61.78576573611156 76.00462072161135,93.74862287896869 82.3810657530169,61.78576573611156&#10;c 72.05250000000001,-31.96285714285714 44.34,111.86999999999999 58.78598203328757,204.57137712103128 c -0.0,59.651135290958685 27.712500000000002,257.68436824413544 -51.1225905745874,220.39436824413545&#10;c -43.044256967355075,-31.96285714285714 -110.044651526541,0 -110.044651526541,45.96277461300738&#10;c 0,82.81400145052606 28.383612288265702,114.7768585933832 51.371307959091965,82.81400145052606&#10;c 72.05250000000001,-31.96285714285714 44.34,111.86999999999999 109.79593414203644,183.54314140661677 c -0.0,53.5056583599406 27.712500000000002,251.9400326974843 -99.37437462455539,214.6500326974843&#10;c -14.38155456413395,-31.96285714285714 -40.06260435131567,0 -40.06260435131567,51.70711015965853&#10;c 0,62.49055575905618 48.12467613017576,94.45341290191331 75.26863587634888,62.49055575905618&#10;c 72.05250000000001,-31.96285714285714 44.34,111.86999999999999 64.16834309952218,203.86658709808665 c 0.0,93.61318960573279 -27.712500000000002,241.6658931947221 72.18024074082422,204.3758931947221&#10;c 43.687454973725366,-31.96285714285714 67.17279955242356,0 67.17279955242356,61.98124966242074&#10;c 0,53.39506814622098 -55.84861007736914,85.35792528907811 -60.57899540736214,53.39506814622098&#10;c -72.05250000000001,-31.96285714285714 -44.34,111.86999999999999 -78.77404488588563,212.96207471092185 c 0.0,94.0542286695439 -27.712500000000002,239.8986429012989 89.1266650880977,202.6086429012989&#10;c 75.58306765353075,-31.96285714285714 75.17824078355062,0 75.17824078355062,63.748499955843926&#10;c 0,49.18726299882508 -91.02485425181911,81.15012014168221 -168.39982600052485,49.18726299882508&#10;c -72.05250000000001,-31.96285714285714 -44.34,111.86999999999999 4.094920128876538,217.16987985831776 L 0 3729 " fill="none" stroke="black" stroke-width="0.1" style="vector-effect:non-scaling-stroke;" /></g><g><path d="M 0 0  L 3325.500000 0  c -0.0,102.59960046670197 27.712500000000002,242.87700324502921 -35.386248034898145,205.58700324502922&#10;c -44.86857498619179,-31.96285714285714 -106.97378812698774,0 -106.97378812698774,60.77013961211361&#10;c 0,50.64984771547057 40.47585407224766,82.6127048583277 105.5110081254677,50.64984771547057&#10;c 72.05250000000001,-31.96285714285714 44.34,111.86999999999999 36.84902803641819,215.70729514167226 c 0.0,31.2582990028916 -27.712500000000002,242.24275548073783 -5.954652359836443,204.95275548073784&#10;c 53.414087436714354,-31.96285714285714 180.3544118562531,0 180.3544118562531,61.404387376405&#10;c 0,57.777410301648274 -36.81695275293993,89.7402674445054 -57.20008713982658,57.777410301648274&#10;c -72.05250000000001,-31.96285714285714 -44.34,111.86999999999999 -117.19967235659009,208.57973255549456 c -0.0,122.49407021516735 27.712500000000002,241.65676806279888 -79.70112142005978,204.36676806279888&#10;c -59.885018700580005,-31.96285714285714 -65.88413507342788,0 -65.88413507342788,61.99037479434395&#10;c 0,55.55712450669239 80.80617160996046,87.51998164954952 84.9125347612003,55.55712450669239&#10;c 72.05250000000001,-31.96285714285714 44.34,111.86999999999999 60.67272173228736,210.80001835045044 c 0.0,38.57822226721409 -27.712500000000002,265.2937236819485 -3.73674318343501,228.00372368194851&#10;c 89.50982294422067,-31.96285714285714 182.71886186168317,0 182.71886186168317,38.35341917519432&#10;c 0,63.30565366930455 -80.71301840886419,95.26851081216168 -86.1008845349637,63.30565366930455&#10;c -72.05250000000001,-31.96285714285714 -44.34,111.86999999999999 -92.88123414328446,203.05148918783829 c 0.0,75.47418207541122 -27.712500000000002,255.39829549056066 19.316158952354474,218.10829549056066&#10;c 102.35114597566509,-31.96285714285714 138.23942338675474,0 138.23942338675474,48.24884736658217&#10;c 0,83.40788656804853 -47.05980375064924,115.37074371090566 -63.49720293669934,83.40788656804853&#10;c -72.05250000000001,-31.96285714285714 -44.34,111.86999999999999 -94.05837940240987,182.9492562890943 c -0.0,109.57196353811938 27.712500000000002,261.5899035287975 -69.65922526157387,224.29990352879747&#10;c -63.0693370305293,-31.96285714285714 -111.539295832919,0 -111.539295832919,42.05723932834536&#10;c 0,69.8472838399104 163.3241666224932,101.81014098276754 169.69059256761278,69.8472838399104&#10;c 72.05250000000001,-31.96285714285714 44.34,111.86999999999999 11.507928526880079,196.50985901723243 c 0.0,43.58294391119722 -27.712500000000002,231.9710055923006 -0.8368630958194838,194.6810055923006&#10;c 149.6117597180774,-31.96285714285714 173.2531227469343,0 173.2531227469343,71.67613726484223&#10;c 0,37.90092262558352 -76.64335770539938,69.86377976844065 -174.7308332001521,37.90092262558352&#10;c -72.05250000000001,-31.96285714285714 -44.34,111.86999999999999 2.314573549037277,228.4562202315593 L 0 3729 " fill="none" stroke="black" stroke-width="0.1" style="vector-effect:non-scaling-stroke;" /></g><g><path d="M 0 0  L 3879.750000 0  c -0.0,66.03870905007358 27.712500000000002,243.74194562295528 4.6274120196498485,206.4519456229553&#10;c -56.512344659350354,-31.96285714285714 -176.60076206056,0 -176.60076206056,59.90519723418754&#10;c 0,60.776764297783075 48.081143177661396,92.7396214406402 60.842939770956576,60.776764297783075&#10;c 72.05250000000001,-31.96285714285714 44.34,111.86999999999999 111.13041026995356,205.58037855935976 c 0.0,82.90418856079803 -27.712500000000002,261.90503250695906 -1.4121097551068407,224.61503250695904&#10;c 139.91356409246222,-31.96285714285714 152.46772467295634,0 152.46772467295634,41.74211035018379&#10;c 0,42.32956854005556 -26.709757157408095,74.2924256829127 -71.3733510223713,42.32956854005556&#10;c -72.05250000000001,-31.96285714285714 -44.34,111.86999999999999 -79.68226389547819,224.02757431708727 c -0.0,110.87192160451623 27.712500000000002,252.35452907922343 -105.26230941474714,215.06452907922343&#10;c -69.52967910029255,-31.96285714285714 -68.98372712753022,0 -68.98372712753022,51.2926137779194&#10;c 0,65.02844452658258 76.9257506704416,96.99130166943971 111.62435409674734,65.02844452658258&#10;c 72.05250000000001,-31.96285714285714 44.34,111.86999999999999 62.62168244553001,201.32869833056026 c -0.0,112.86005249207736 27.712500000000002,237.3348878258607 -102.36700156465245,200.0448878258607&#10;c -41.50216908868857,-31.96285714285714 -50.4086512730846,0 -50.4086512730846,66.31225503128212&#10;c 0,58.063007236319095 50.18394803662027,90.02586437917623 127.30218171745656,58.063007236319095&#10;c 72.05250000000001,-31.96285714285714 44.34,111.86999999999999 25.473471120280493,208.29413562082374 c 0.0,78.71134963647792 -27.712500000000002,245.9500164265995 40.15001379557964,208.6600164265995&#10;c 48.04088302578342,-31.96285714285714 116.54963943280745,0 116.54963943280745,57.697126430543335&#10;c 0,54.54860778193381 -117.60666169181879,86.51146492479094 -140.54687366559864,54.54860778193381&#10;c -72.05250000000001,-31.96285714285714 -44.34,111.86999999999999 -16.152779562788453,211.80853507520902 c -0.0,74.90386393398693 27.712500000000002,236.16526881552696 -102.95157991238423,198.87526881552697&#10;c -25.606029147359997,-31.96285714285714 -50.209249516440906,0 -50.209249516440906,67.48187404161587&#10;c 0,79.2554716294855 54.94125575532652,111.21832877234263 99.39746209700957,79.2554716294855&#10;c 72.05250000000001,-31.96285714285714 44.34,111.86999999999999 53.76336733181557,187.10167122765733 c 0.0,118.21228261643344 -27.712500000000002,218.59398308412383 109.94126557897704,181.30398308412384&#10;c 62.38464639949777,-31.96285714285714 76.58031892028137,0 76.58031892028137,85.05315977301899&#10;c 0,43.20557013150636 -102.85689355899575,75.1684272743635 -171.9045335267917,43.20557013150636&#10;c -72.05250000000001,-31.96285714285714 -44.34,111.86999999999999 -14.6170509724667,223.15157272563647 L 0 3729 " fill="none" stroke="black" stroke-width="0.1" style="vector-effect:non-scaling-stroke;" /></g></g><g><g><path d="M 0 0  L 0 532.714286  c 98.48777678303635,0.0 266.50686146504415,-26.635714285714286 227.70936146504414,20.218804391407694&#10;c -33.254999999999995,34.65691022196593 0,131.49229960893834 49.41563853495586,131.49229960893834&#10;c 83.4930425889927,0 116.74804258899269,-29.476485354843064 83.4930425889927,-63.03793501327772&#10;c -33.254999999999995,-69.25285714285714 116.3925,-42.61714285714285 193.6319574110073,-88.67316898706832 c 87.61028639248995,0.0 243.82819291511575,-26.635714285714286 205.03069291511574,-3.748235863367783&#10;c -33.254999999999995,94.41032342205187 0,151.77512972310123 72.09430708488426,151.77512972310123&#10;c 75.71827888724579,0 108.97327888724578,-131.84290334344934 75.71827888724579,-135.8059814161371&#10;c -33.254999999999995,-69.25285714285714 116.3925,-42.61714285714285 201.4067211127542,-12.220912443596347 c 120.196884892814,-0.0 251.47850023816284,26.635714285714286 212.68100023816282,-80.20601300142653&#10;c -33.254999999999995,-41.26813079317548 0,-73.46825311275964 64.44399976183718,-73.46825311275964&#10;c 44.60140560919598,0 77.85640560919597,76.47824274704388 44.60140560919598,157.07130359744536&#10;c -33.254999999999995,69.25285714285714 116.3925,42.61714285714285 232.52359439080402,-3.397037483259197 c 152.7962703523738,0.0 256.8678180204965,-26.635714285714286 218.0703180204965,45.99080679670543&#10;c -33.254999999999995,51.87009885635768 0,84.98264115486243 59.0546819795035,84.98264115486243&#10;c 65.15797471730826,0 98.41297471730826,-43.79630805114163 65.15797471730826,-86.30050177365058&#10;c -33.254999999999995,-69.25285714285714 116.3925,-42.61714285714285 211.96702528269174,-44.67294617791728 c 45.026059734600196,-0.0 248.93255750564802,26.635714285714286 210.135057505648,-69.04233571342249&#10;c -33.254999999999995,-35.91455236545856 0,-84.40432071593597 66.989942494352,-84.40432071593597&#10;c 66.70343075561988,0 99.95843075561987,25.781771771976057 66.70343075561988,36.9751606919596&#10;c -33.254999999999995,69.25285714285714 116.3925,42.61714285714285 210.42156924438012,116.47149573739885 c 153.50163347006878,0.0 273.55472602224063,-26.635714285714286 234.75722602224064,1.0870139465910504&#10;c -33.254999999999995,44.73967775384881 0,145.3415535172287 42.367773977759356,145.3415535172287&#10;c 77.57662390984893,0 110.83162390984893,-38.35225855169935 77.57662390984893,-45.10335436832739&#10;c -33.254999999999995,-69.25285714285714 116.3925,-42.61714285714285 199.54837609015107,-101.32521309549236 c 81.44475026675589,0.0 234.10495108413164,-26.635714285714286 195.30745108413163,114.20935332866283&#10;c -33.254999999999995,14.898931426768081 0,45.766743297273095 81.81754891586837,45.766743297273095&#10;c 58.16041489962993,0 91.41541489962992,-76.88788379188588 58.16041489962993,-101.78717337075781&#10;c -33.254999999999995,-69.25285714285714 116.3925,-42.61714285714285 218.96458510037007,-58.18892325517811 c 129.92325360261134,-0.0 257.13369112445,26.635714285714286 218.33619112445004,-85.93769137122845&#10;c -33.254999999999995,-15.25859251207368 0,-46.58470560766054 58.78880887554996,-46.58470560766054&#10;c 52.82740115235663,0 86.08240115235662,34.11961637564473 52.82740115235663,54.52520046506454&#10;c -33.254999999999995,69.25285714285714 116.3925,42.61714285714285 224.29759884764337,77.99719651382445 L 4434 0 " fill="none" stroke="black" stroke-width="0.1" style="vector-effect:non-scaling-stroke;" /></g><g><path d="M 0 0  L 0 1065.428571  c 56.915874142147885,0.0 266.6305463473341,-26.635714285714286 227.83304634733406,20.2543489672373&#10;c -33.254999999999995,55.051559605453456 0,136.2015654439675 49.29195365266594,136.2015654439675&#10;c 84.12816862550022,0 117.38316862550022,-101.8708178714403 84.12816862550022,-140.76682400202824&#10;c -33.254999999999995,-69.25285714285714 116.3925,-42.61714285714285 192.99683137449978,-15.689090409176544 c 94.25710515359407,0.0 276.0549382517167,-26.635714285714286 237.25743825171668,3.9652550806654245&#10;c -33.254999999999995,93.29387460966662 0,143.8592606517703 39.86756174828332,143.8592606517703&#10;c 85.51113153471948,0 118.76613153471948,-15.566022035353217 85.51113153471948,-69.97812733931504&#10;c -33.254999999999995,-69.25285714285714 116.3925,-42.61714285714285 191.61386846528052,-77.8463883931207 c 71.3895846914921,-0.0 252.07131824479578,26.635714285714286 213.27381824479576,-25.370734340881857&#10;c -33.254999999999995,-103.25228462349554 0,-153.40840004390688 63.85118175520424,-153.40840004390688&#10;c 71.5183279313344,0 104.77332793133439,34.645312782120506 71.5183279313344,140.6007045105473&#10;c -33.254999999999995,69.25285714285714 116.3925,42.61714285714285 205.6066720686656,38.17842987424143 c 91.62319117364788,0.0 250.3275830629868,-26.635714285714286 211.5300830629868,59.72723614816075&#10;c -33.254999999999995,39.94218474426153 0,69.95205504465224 65.59491693701321,69.95205504465224&#10;c 40.985171721846996,0 74.24017172184699,-10.280426870097077 40.985171721846996,-24.576321220528&#10;c -33.254999999999995,-69.25285714285714 116.3925,-42.61714285714285 236.139828278153,-105.102969972285 c 146.14170686452098,-0.0 241.70144175972624,26.635714285714286 202.90394175972622,2.137164874898&#10;c -33.254999999999995,-38.444820048964004 0,-135.43061807594978 74.22105824027378,-135.43061807594978&#10;c 42.758032217048196,0 76.01303221704819,70.65964924784166 42.758032217048196,71.46579534386379&#10;c -33.254999999999995,69.25285714285714 116.3925,42.61714285714285 234.3669677829518,61.827657857188 c 142.67620292279193,0.0 233.6702293718523,-26.635714285714286 194.87272937185227,104.43368804557477&#10;c -33.254999999999995,40.543326627617965 0,66.96621769991336 82.25227062814773,66.96621769991336&#10;c 43.591635374249506,0 76.8466353742495,-51.90294719191551 43.591635374249506,-107.42913259455443&#10;c -33.254999999999995,-69.25285714285714 116.3925,-42.61714285714285 233.5333646257505,-63.970773150933695 c 36.73776834931922,-0.0 275.82264253576534,26.635714285714286 237.02514253576533,-56.547842162555064&#10;c -33.254999999999995,-79.30057674506627 0,-86.92836199264727 40.099857464234674,-86.92836199264727&#10;c 54.38997720231828,0 87.64497720231827,130.5455199209553 54.38997720231828,142.03598219141216&#10;c -33.254999999999995,69.25285714285714 116.3925,42.61714285714285 222.73502279768172,1.4402219637901794 c 103.45504724115844,-0.0 275.8300306565397,26.635714285714286 237.03253065653968,-63.825642659475754&#10;c -33.254999999999995,-69.45910116322298 0,-70.81210036984962 40.09246934346032,-70.81210036984962&#10;c 45.065877999432644,0 78.32087799943264,93.69013475607264 45.065877999432644,134.76613675233443&#10;c -33.254999999999995,69.25285714285714 116.3925,42.61714285714285 232.05912200056736,-0.12839372300905438 L 4434 0 " fill="none" stroke="black" stroke-width="0.1" style="vector-effect:non-scaling-stroke;" /></g><g><path d="M 0 0  L 0 1598.142857  c 140.61283202605713,-0.0 239.04753665864672,26.635714285714286 200.2500366586467,-97.55872816834376&#10;c -33.254999999999995,-20.477092597049012 0,-73.94877447844813 76.8749633413533,-73.94877447844813&#10;c 46.532898440447184,0 79.78789844044718,26.606298421216184 46.532898440447184,92.80906272959602&#10;c -33.254999999999995,69.25285714285714 116.3925,42.61714285714285 230.59210155955282,78.69843991719587 c 158.92452140078447,-0.0 236.95659132411242,26.635714285714286 198.1590913241124,-92.04270904006377&#10;c -33.254999999999995,-36.10902708207618 0,-60.83631540256563 78.96590867588759,-60.83631540256563&#10;c 48.85378200959843,0 82.10878200959843,40.61990733423675 48.85378200959843,46.017508504044116&#10;c -33.254999999999995,69.25285714285714 116.3925,42.61714285714285 228.27121799040157,106.86151593858528 c 127.10224582949685,-0.0 270.74968950263633,26.635714285714286 231.95218950263632,-68.54816032122551&#10;c -33.254999999999995,-47.250633259298944 0,-107.29619987895026 45.172810497363685,-107.29619987895026&#10;c 39.00364990449941,0 72.2586499044994,67.19509978928332 39.00364990449941,124.50842130582495&#10;c -33.254999999999995,69.25285714285714 116.3925,42.61714285714285 238.1213500955006,51.33593889435082 c 92.75481904887108,0.0 255.21611173538807,-26.635714285714286 216.41861173538805,2.1145631926240687&#10;c -33.254999999999995,53.231910092809414 0,141.05330767147404 60.706388264611945,141.05330767147404&#10;c 53.085511618627436,0 86.34051161862743,-19.79129380974402 53.085511618627436,-43.75222089017974&#10;c -33.254999999999995,-69.25285714285714 116.3925,-42.61714285714285 224.03948838137256,-99.41564997391838 c 58.29782460446982,-0.0 244.741379594112,26.635714285714286 205.943879594112,-67.15076802973239&#10;c -33.254999999999995,-24.60653092608854 0,-89.21240247690825 71.18112040588801,-89.21240247690825&#10;c 87.37742999016564,0 120.63242999016563,120.73658858540928 87.37742999016564,121.892953680949&#10;c -33.254999999999995,69.25285714285714 116.3925,42.61714285714285 189.74757000983436,34.47021682569164 c 91.33779447903665,0.0 255.62651671682153,-26.635714285714286 216.8290167168215,94.46603549488269&#10;c -33.254999999999995,79.05780980691544 0,78.71106329197777 60.29598328317849,78.71106329197777&#10;c 63.48867998482814,0 96.74367998482813,-79.85146472728894 63.48867998482814,-162.96819580636406&#10;c -33.254999999999995,-69.25285714285714 116.3925,-42.61714285714285 213.63632001517186,-10.20890298049639 c 93.36285963654157,0.0 254.35950469508407,-26.635714285714286 215.56200469508406,-2.4921887523935213&#10;c -33.254999999999995,39.3873652708278 0,164.50637932456894 61.562995304915944,164.50637932456894&#10;c 56.04288852574223,0 89.29788852574222,-74.92272157927947 56.04288852574223,-166.28217668009282&#10;c -33.254999999999995,-69.25285714285714 116.3925,-42.61714285714285 221.08211147425777,4.267986107917409 c 48.93361517372125,0.0 236.41329730184844,-26.635714285714286 197.61579730184843,40.11127912388724&#10;c -33.254999999999995,60.181413342058846 0,90.69798861596192 79.50920269815157,90.69798861596192&#10;c 85.42216410881656,0 118.67716410881656,-23.603839301611558 85.42216410881656,-25.07249870639501&#10;c -33.254999999999995,-69.25285714285714 116.3925,-42.61714285714285 191.70283589118344,-105.73676903345415 L 4434 0 " fill="none" stroke="black" stroke-width="0.1" style="vector-effect:non-scaling-stroke;" /></g><g><path d="M 0 0  L 0 2130.857143  c 59.77380665160102,0.0 275.77957430832504,-26.635714285714286 236.98207430832502,49.53821004837274&#10;c -33.254999999999995,51.816090063572254 0,101.01367880547068 40.142925691674975,101.01367880547068&#10;c 73.32830581195913,0 106.58330581195912,-92.14885911693277 73.32830581195913,-94.18598154636217&#10;c -33.254999999999995,-69.25285714285714 116.3925,-42.61714285714285 203.79669418804087,-56.36590730748125 c 71.11424098418475,0.0 259.00434687414463,-26.635714285714286 220.20684687414462,-1.4818368347955992&#10;c -33.254999999999995,92.51034972410174 0,142.27250244040624 56.91815312585538,142.27250244040624&#10;c 44.78508877693349,0 78.04008877693349,-98.80012595956747 44.78508877693349,-145.45087593981222&#10;c -33.254999999999995,-69.25285714285714 116.3925,-42.61714285714285 232.3399112230665,4.660210334201565 c 89.61640904922444,-0.0 257.54891579197664,26.635714285714286 218.75141579197665,-105.25684743783728&#10;c -33.254999999999995,-21.761252631797923 0,-42.9903330346778 58.373584208023345,-42.9903330346778&#10;c 81.6916198028112,0 114.9466198028112,15.597704376994093 81.6916198028112,66.13534991201058&#10;c -33.254999999999995,69.25285714285714 116.3925,42.61714285714285 195.4333801971888,82.1118305605045 c 133.6191944397108,0.0 232.40284990163713,-26.635714285714286 193.6053499016371,44.848452577821234&#10;c -33.254999999999995,74.18279477092891 0,103.10338937697597 83.51965009836289,103.10338937697597&#10;c 46.050098146053415,0 79.30509814605341,-101.04047634551593 46.050098146053415,-129.23437517314966&#10;c -33.254999999999995,-69.25285714285714 116.3925,-42.61714285714285 231.07490185394659,-18.717466781647545 c 81.4275826572094,-0.0 231.84451344502597,26.635714285714286 193.04701344502595,-41.67210184738203&#10;c -33.254999999999995,-53.87925624786241 0,-127.19493451286289 84.07798655497405,-127.19493451286289&#10;c 65.48343851816043,0 98.73843851816042,66.03686664962409 65.48343851816043,154.65615110331137&#10;c -33.254999999999995,69.25285714285714 116.3925,42.61714285714285 211.64156148183957,14.210885256933551 c 155.88721455877334,0.0 241.09843585350944,-26.635714285714286 202.30093585350943,41.99486685321077&#10;c -33.254999999999995,90.66539921612959 0,135.83048258108354 74.82406414649057,135.83048258108354&#10;c 40.77183258110148,0 74.02683258110147,-113.83412854147502 40.77183258110148,-142.02010367376226&#10;c -33.254999999999995,-69.25285714285714 116.3925,-42.61714285714285 236.35316741889852,-35.805245760532046 c 133.64693348156382,0.0 247.8735583452845,-26.635714285714286 209.07605834528448,85.17180899071934&#10;c -33.254999999999995,49.63610026852915 0,66.02612957423332 68.04894165471552,66.02612957423332&#10;c 67.655866183623,0 100.910866183623,-43.75631563146566 67.655866183623,-71.43281211603639&#10;c -33.254999999999995,-69.25285714285714 116.3925,-42.61714285714285 209.469133816377,-79.76512644891628 c 145.71884204657283,0.0 234.9722977114253,-26.635714285714286 196.1747977114253,52.441837781467974&#10;c -33.254999999999995,47.11209994648887 0,90.01731820477335 80.9502022885747,90.01731820477335&#10;c 40.68192064619063,0 73.93692064619063,-100.50277710811663 40.68192064619063,-110.28696514089437&#10;c -33.254999999999995,-69.25285714285714 116.3925,-42.61714285714285 236.44307935380937,-32.17219084534695 L 4434 0 " fill="none" stroke="black" stroke-width="0.1" style="vector-effect:non-scaling-stroke;" /></g><g><path d="M 0 0  L 0 2663.571429  c 139.18323502604798,0.0 263.7735952478334,-26.635714285714286 224.9760952478334,74.97089948144148&#10;c -33.254999999999995,24.099220777656043 0,99.18391260222293 52.1489047521666,99.18391260222293&#10;c 79.70231180173204,0 112.95731180173203,-108.69688067795428 79.70231180173204,-139.89529919994382&#10;c -33.254999999999995,-69.25285714285714 116.3925,-42.61714285714285 197.42268819826796,-34.25951288372059 c 160.08432523459214,-0.0 263.3732844262079,26.635714285714286 224.5757844262079,-94.0877174242447&#10;c -33.254999999999995,-35.38840387228374 0,-69.41296364485619 52.54921557379211,-69.41296364485619&#10;c 71.57961027133575,0 104.83461027133575,130.60828928939054 71.57961027133575,156.349735361985&#10;c -33.254999999999995,69.25285714285714 116.3925,42.61714285714285 205.54538972866425,7.150945707115881 c 124.2600931291817,0.0 268.69795743453244,-26.635714285714286 229.90045743453246,-9.767436181656445&#10;c -33.254999999999995,167.38813015398534 0,170.100815629626 47.224542565467544,170.100815629626&#10;c 56.14688931400775,0 89.40188931400775,-145.71673386066936 56.14688931400775,-151.4232921646598&#10;c -33.254999999999995,-69.25285714285714 116.3925,-42.61714285714285 220.97811068599225,-8.910087283309736 c 43.845513023371424,-0.0 237.2300809714371,26.635714285714286 198.4325809714371,-40.931733049533165&#10;c -33.254999999999995,-128.226131748632 0,-140.0860785575746 78.69241902856291,-140.0860785575746&#10;c 45.56858048739372,0 78.82358048739371,43.373624461727324 45.56858048739372,82.20238949340727&#10;c -33.254999999999995,69.25285714285714 116.3925,42.61714285714285 231.55641951260628,98.8154221137005 c 128.52979281293602,-0.0 241.36507774253604,26.635714285714286 202.56757774253603,-64.1020517802968&#10;c -33.254999999999995,-21.577954623001478 0,-91.7172698052856 74.55742225746397,-91.7172698052856&#10;c 80.8410305622644,0 114.09603056226439,104.1180187643639 80.8410305622644,108.55886046737083&#10;c -33.254999999999995,69.25285714285714 116.3925,42.61714285714285 196.2839694377356,47.260461118211566 c 49.05949637298845,-0.0 244.85166904554418,26.635714285714286 206.05416904554417,-61.68117182060853&#10;c -33.254999999999995,-67.85166804084645 0,-67.27534685197395 71.07083095445583,-67.27534685197395&#10;c 84.38529980685871,0 117.6402998068587,27.389335051780836 84.38529980685871,54.276827429437915&#10;c -33.254999999999995,69.25285714285714 116.3925,42.61714285714285 192.7397001931413,74.67969124314457 c 153.69436709775226,0.0 264.37820905965486,-26.635714285714286 225.58070905965488,8.588932260280803&#10;c -33.254999999999995,57.34778916794457 0,165.37122118057445 51.54429094034512,165.37122118057445&#10;c 54.20544454937766,0 87.46044454937766,-158.76221089518754 54.20544454937766,-160.35955655123578&#10;c -33.254999999999995,-69.25285714285714 116.3925,-42.61714285714285 222.91955545062234,-13.600596889619482 c 47.38323463522221,0.0 262.13889924716403,-26.635714285714286 223.34139924716402,90.4663351784575&#10;c -33.254999999999995,53.57910518405892 0,65.77789331067119 53.78360075283598,65.77789331067119&#10;c 64.91831696790683,0 98.17331696790683,-36.91366933181929 64.91831696790683,-128.8959114164952&#10;c -33.254999999999995,-69.25285714285714 116.3925,-42.61714285714285 212.20668303209317,-27.348317072633478 L 4434 0 " fill="none" stroke="black" stroke-width="0.1" style="vector-effect:non-scaling-stroke;" /></g><g><path d="M 0 0  L 0 3196.285714  c 125.22652784558265,0.0 249.98404680140905,-26.635714285714286 211.18654680140904,71.255258794168&#10;c -33.254999999999995,26.174207057337227 0,100.65058002044542 65.93845319859096,100.65058002044542&#10;c 67.60261938265927,0 100.85761938265927,-130.059756104026 67.60261938265927,-178.06304476312158&#10;c -33.254999999999995,-69.25285714285714 116.3925,-42.61714285714285 209.52238061734073,6.157205948508164 c 138.90222298367323,-0.0 273.864819052518,26.635714285714286 235.067319052518,-63.910019031226646&#10;c -33.254999999999995,-19.380045540656482 0,-77.96331943159007 42.057680947482,-77.96331943159007&#10;c 81.84702950847571,0 115.10202950847571,55.60962624962518 81.84702950847571,92.41558011658316&#10;c -33.254999999999995,69.25285714285714 116.3925,42.61714285714285 195.2779704915243,49.45775834623356 c 141.92274277794849,0.0 241.85871903356303,-26.635714285714286 203.06121903356302,31.645037239019324&#10;c -33.254999999999995,60.421075835121165 0,137.8567256783634 74.06378096643698,137.8567256783634&#10;c 88.09816939285002,0 121.35316939285002,-99.73994541488574 88.09816939285002,-146.33090971710678&#10;c -33.254999999999995,-69.25285714285714 116.3925,-42.61714285714285 189.02683060714998,-23.170853200275957 c 100.07454605331058,0.0 252.5374630743574,-26.635714285714286 213.73996307435738,90.19899457187933&#10;c -33.254999999999995,27.286735870228544 0,39.051167270965664 63.38503692564262,39.051167270965664&#10;c 44.23441219924473,0 77.48941219924473,-20.133016633769564 44.23441219924473,-43.76495525904832&#10;c -33.254999999999995,-69.25285714285714 116.3925,-42.61714285714285 232.89058780075527,-85.48520658379667 c 38.02423107450812,0.0 236.60206729161584,-26.635714285714286 197.80456729161583,109.70372434635716&#10;c -33.254999999999995,18.03917215102908 0,38.93042283064402 79.32043270838417,38.93042283064402&#10;c 81.32242617152275,0 114.57742617152275,-19.32768365635984 81.32242617152275,-37.28044365065129&#10;c -33.254999999999995,-69.25285714285714 116.3925,-42.61714285714285 195.80257382847725,-111.35370352634989 c 154.03569362096843,-0.0 269.2378588340016,26.635714285714286 230.4403588340016,-87.02887498458013&#10;c -33.254999999999995,-12.818168520179082 0,-41.729602488771846 46.684641165998414,-41.729602488771846&#10;c 76.87532800388078,0 110.13032800388078,20.766065276232876 76.87532800388078,72.99059284731234&#10;c -33.254999999999995,69.25285714285714 116.3925,42.61714285714285 200.24967199611922,55.76788462603963 c 139.01376100071857,-0.0 267.7898717427755,26.635714285714286 228.99237174277553,-70.89783890109632&#10;c -33.254999999999995,-90.4540985843569 0,-97.35672801704695 48.13262825722447,-97.35672801704695&#10;c 81.58850166854523,0 114.84350166854523,18.071221030481713 81.58850166854523,85.18379401949926&#10;c -33.254999999999995,69.25285714285714 116.3925,42.61714285714285 195.53649833145477,83.07077289864401 c 102.39806616790695,0.0 244.15457981463302,-26.635714285714286 205.357079814633,82.84904252140277&#10;c -33.254999999999995,26.606169953822963 0,59.541792757087876 71.76792018536699,59.541792757087876&#10;c 56.096304984367805,0 89.3513049843678,-80.51364072108346 56.096304984367805,-82.04388396139993&#10;c -33.254999999999995,-69.25285714285714 116.3925,-42.61714285714285 221.0286950156322,-60.34695131709071 L 4434 0 " fill="none" stroke="black" stroke-width="0.1" style="vector-effect:non-scaling-stroke;" /></g></g></svg>