<svg baseProfile="full" height="1667" preserveAspectRatio="none" shape-rendering="geometricPrecision" version="1.1" viewBox="0,0,2500,1667" width="2500" xmlns="http://www.w3.org/2000/svg" xmlns:ev="http://www.w3.org/2001/xml-events" xmlns:xlink="http://www.w3.org/1999/xlink"><title>Jigsaw puzzle piece clips</title><desc>Created with the piecemaker. Piece count: 24</desc><defs /><g><g><rect fill="white" height="1667" width="2500" x="0" y="0" /></g></g><g><g><path d="M 0 0  L 416.666667 0  c -0.0,68.42995147201425 20.833333333333336,171.14454601617797 -12.440086917327024,141.97204601617796&#10;c -33.05858190442373,-25.005 -109.0611479316374,0 -109.0611479316374,66.40295398382204&#10;c 0,44.33459505381737 43.1804624719367,69.33959505381736 68.04141665748503,44.33459505381737&#10;c 54.16666666666667,-25.005 33.333333333333336,87.5175 53.459818191479386,164.04040494618263 c 0.0,67.73788312694894 -20.833333333333336,176.9237607759032 -5.337139982086599,147.75126077590318&#10;c 88.22287391728962,-25.005 116.36999697606332,0 116.36999697606332,60.62373922409682&#10;c 0,58.62211873925594 -44.356935147748224,83.62711873925593 -113.70326716953949,58.62211873925594&#10;c -54.16666666666667,-25.005 -33.333333333333336,87.5175 2.6704101755627647,149.75288126074406 c -0.0,93.55571214792847 20.833333333333336,196.03285500000246 -12.100676395997159,166.86035500000244&#10;c -101.72390711518261,-25.005 -105.49234922722367,0 -105.49234922722367,41.51464499999756&#10;c 0,38.95138990045612 72.25844879137733,63.95638990045612 95.22537111745189,38.95138990045612&#10;c 54.16666666666667,-25.005 33.333333333333336,87.5175 22.36765450576894,169.42361009954388 c 0.0,104.41201584595541 -20.833333333333336,193.7049881210247 71.61921600422659,164.5324881210247&#10;c 37.0136386079855,-25.005 38.229325610445315,0 38.229325610445315,43.8425118789753&#10;c 0,62.850050610840015 -51.71851263792797,87.85505061084001 -102.96276229516627,62.850050610840015&#10;c -54.16666666666667,-25.005 -33.333333333333336,87.5175 -6.88577931950563,145.52494938915999 L 0 1667 " fill="none" stroke="black" stroke-width="0.1" style="vector-effect:non-scaling-stroke;" /></g><g><path d="M 0 0  L 833.333333 0  c -0.0,54.34874590569951 20.833333333333336,177.03263088294878 -14.491098581086172,147.86013088294877&#10;c -47.888618778691715,-25.005 -120.811605828109,0 -120.811605828109,60.514869117051234&#10;c 0,41.21317324418192 78.0540728990887,66.21817324418191 111.90507261878912,41.21317324418192&#10;c 54.16666666666667,-25.005 33.333333333333336,87.5175 23.397631790406052,167.16182675581808 c 0.0,113.89547677412367 -20.833333333333336,183.75603656272415 -1.9340563072881316,154.58353656272413&#10;c 57.440004382195106,-25.005 108.40423271003702,0 108.40423271003702,53.791463437275866&#10;c 0,43.31843908887922 -21.1772522244677,68.32343908887921 -61.80141375048238,43.31843908887922&#10;c -54.16666666666667,-25.005 -33.333333333333336,87.5175 -44.66876265226651,165.05656091112078 c 0.0,41.523052517061394 -20.833333333333336,188.49997103793876 10.011270637399331,159.32747103793875&#10;c 33.88746036242375,-25.005 93.199990286883,0 93.199990286883,49.04752896206125&#10;c 0,62.47570435136629 -30.7911386679395,87.48070435136628 -37.13976378194148,62.47570435136629&#10;c -54.16666666666667,-25.005 -33.333333333333336,87.5175 -66.07149714234085,145.8992956486337 c -0.0,43.43897115507627 20.833333333333336,192.0540450393853 -45.42692856669147,162.8815450393853&#10;c -51.414118708631676,-25.005 -79.40821947584435,0 -79.40821947584435,45.49345496061471&#10;c 0,31.8476162896672 35.32254904467198,56.852616289667196 53.12734313401431,31.8476162896672&#10;c 54.16666666666667,-25.005 33.333333333333336,87.5175 71.70780490852151,176.5273837103328 L 0 1667 " fill="none" stroke="black" stroke-width="0.1" style="vector-effect:non-scaling-stroke;" /></g><g><path d="M 0 0  L 1250.000000 0  c 0.0,40.27915427276455 -20.833333333333336,173.81981391685213 52.11151680168856,144.6473139168521&#10;c 43.231480046505006,-25.005 67.70518041046049,0 67.70518041046049,63.72768608314789&#10;c 0,49.537914358743706 -27.10313295038944,74.5429143587437 -41.76811575674708,49.537914358743706&#10;c -54.16666666666667,-25.005 -33.333333333333336,87.5175 -78.04858145540197,158.8370856412563 c -0.0,73.77600345042869 20.833333333333336,196.339104443018 -18.740608029389698,167.16660444301797&#10;c -37.87744613912197,-25.005 -90.6740572634852,0 -90.6740572634852,41.208395556982026&#10;c 0,30.700813656059807 47.19585385276781,55.7058136560598 67.19196969123844,30.700813656059807&#10;c 54.16666666666667,-25.005 33.333333333333336,87.5175 42.22269560163646,177.6741863439402 c -0.0,72.37968901639069 20.833333333333336,198.37452977610147 -17.261238636141233,169.20202977610145&#10;c -89.8849992858344,-25.005 -109.00912842963604,0 -109.00912842963604,39.172970223898545&#10;c 0,43.44650927749464 55.69204478505843,68.45150927749464 73.28045563660635,43.44650927749464&#10;c 54.16666666666667,-25.005 33.333333333333336,87.5175 52.98991142917092,164.92849072250536 c -0.0,72.68231175767401 20.833333333333336,185.4051717344522 3.611377194311057,156.2326717344522&#10;c -36.88226803255493,-25.005 -139.49889167344276,0 -139.49889167344276,52.1423282655478&#10;c 0,51.79976481360643 22.24775167773846,76.80476481360643 50.58697299636083,51.79976481360643&#10;c 54.16666666666667,-25.005 33.333333333333336,87.5175 85.30054148277088,156.57523518639357 L 0 1667 " fill="none" stroke="black" stroke-width="0.1" style="vector-effect:non-scaling-stroke;" /></g><g><path d="M 0 0  L 1666.666667 0  c 0.0,98.24821629383243 -20.833333333333336,174.6875704574519 31.900420841854743,145.51507045745188&#10;c 75.6816918606854,-25.005 80.57542267234133,0 80.57542267234133,62.859929542548116&#10;c 0,54.00023279122087 -23.688695822241584,79.00523279122086 -64.66050618675199,54.00023279122087&#10;c -54.16666666666667,-25.005 -33.333333333333336,87.5175 -47.815337327444084,154.37476720877913 c -0.0,39.92170807927582 20.833333333333336,188.96497934702796 -31.994319076273893,159.79247934702795&#10;c -29.574872131052235,-25.005 -71.13786425261314,0 -71.13786425261314,48.58252065297205&#10;c 0,44.28989354567142 23.476498769026165,69.29489354567141 48.959866300872115,44.28989354567142&#10;c 54.16666666666667,-25.005 33.333333333333336,87.5175 54.17231702801492,164.08510645432858 c -0.0,45.738469609282035 20.833333333333336,174.18646818233634 -12.224111643861393,145.01396818233633&#10;c -112.16371754948213,-25.005 -125.22802705644699,0 -125.22802705644699,63.36103181766367&#10;c 0,64.24647458927285 16.685267308980443,89.25147458927285 50.97888986296529,64.24647458927285&#10;c 54.16666666666667,-25.005 33.333333333333336,87.5175 86.47324883734309,144.12852541072715 c 0.0,113.70791696916407 -20.833333333333336,187.356054202222 88.58597794987297,158.18355420222198&#10;c 22.77108736701585,-25.005 22.920721582132984,0 22.920721582132984,50.191445797778016&#10;c 0,51.78004195077125 -32.858911997924054,76.78504195077124 -65.86008017215838,51.78004195077125&#10;c -54.16666666666667,-25.005 -33.333333333333336,87.5175 -45.64661935984758,156.59495804922875 L 0 1667 " fill="none" stroke="black" stroke-width="0.1" style="vector-effect:non-scaling-stroke;" /></g><g><path d="M 0 0  L 2083.333333 0  c -0.0,120.56697764247986 20.833333333333336,179.61881604601393 -83.44958897475604,150.44631604601392&#10;c -35.34525670779707,-25.005 -58.12991241869696,0 -58.12991241869696,57.92868395398608&#10;c 0,39.338729918796076 76.28224990959876,64.34372991879607 81.40060516720175,39.338729918796076&#10;c 54.16666666666667,-25.005 33.333333333333336,87.5175 60.178896226251254,169.03627008120392 c -0.0,21.64702167198794 20.833333333333336,203.7563958856455 -26.598011295708712,174.5838958856455&#10;c -90.00340549937438,-25.005 -89.8446161676719,0 -89.8446161676719,33.79110411435451&#10;c 0,58.44354845580466 90.04244767375997,83.44854845580466 118.80899731657624,58.44354845580466&#10;c 54.16666666666667,-25.005 33.333333333333336,87.5175 -2.3663698531956214,149.93145154419534 c -0.0,97.0477519317264 20.833333333333336,207.7123062406204 -38.99659854044868,178.53980624062038&#10;c -19.924048042983063,-25.005 -67.34711064281808,0 -67.34711064281808,29.83519375937962&#10;c 0,41.57771890643778 73.2550626737775,66.58271890643778 75.384574952504,41.57771890643778&#10;c 54.16666666666667,-25.005 33.333333333333336,87.5175 30.959134230762757,166.79728109356222 c 0.0,42.03878618060562 -20.833333333333336,181.16206911925488 18.786629589484708,151.98956911925487&#10;c 42.5130603510261,-25.005 84.94285328483433,0 84.94285328483433,56.38543088074513&#10;c 0,34.90907609105042 -32.52340568966425,59.91407609105042 -58.131916918399746,34.90907609105042&#10;c -54.16666666666667,-25.005 -33.333333333333336,87.5175 -45.597565955919286,173.46592390894958 L 0 1667 " fill="none" stroke="black" stroke-width="0.1" style="vector-effect:non-scaling-stroke;" /></g></g><g><g><path d="M 0 0  L 0 416.750000  c 99.20288364754367,-0.0 198.28358587775074,20.837500000000002 169.11691921108408,-32.36580893982689&#10;c -25.0,-78.38631592703284 0,-104.31759549143347 39.21641412224926,-104.31759549143347&#10;c 31.09168302541238,0 56.09168302541238,53.23720028454292 31.09168302541238,56.31221677423376&#10;c -25.0,54.1775 87.5,33.34 177.24165030792096,80.3711876570266 c 59.04599161429963,0.0 178.5678235454489,-20.837500000000002 149.40115687878225,-0.5179215491370863&#10;c -25.0,48.694072130417425 0,116.87688432103461 58.9321764545511,116.87688432103461&#10;c 35.61176945740041,0 60.61176945740041,-8.917590151100944 35.61176945740041,-40.54264465523116&#10;c -25.0,-54.1775 87.5,-33.34 172.72156387593293,-75.81631811666637 c 47.821054180242356,0.0 182.29882639640368,-20.837500000000002 153.132159729737,43.8471678285476&#10;c -25.0,56.24380225776644 0,67.51456795701681 55.201173603596345,67.51456795701681&#10;c 46.97382789077952,0 71.97382789077952,-17.854839000195962 46.97382789077952,-30.016579311319916&#10;c -25.0,-54.1775 87.5,-33.34 161.35950544255383,-81.34515647424449 c 68.71354975441191,0.0 179.94929422968625,-20.837500000000002 150.7826275630196,31.82491342820259&#10;c -25.0,65.8589187845159 0,76.69913312032921 57.550705770313755,76.69913312032921&#10;c 40.46294993572971,0 65.46294993572971,-9.837270837549843 40.46294993572971,-40.3446344072066&#10;c -25.0,-54.1775 87.5,-33.34 167.87038339760363,-68.1794121413252 c 70.92923716458442,0.0 194.74345673392293,-20.837500000000002 165.57679006725627,77.92127457587422&#10;c -25.0,26.989138015697844 0,34.44151908297391 42.756543266077074,34.44151908297391&#10;c 29.639966516648286,0 54.639966516648286,-67.42856734202478 29.639966516648286,-94.03669632116654&#10;c -25.0,-54.1775 87.5,-33.34 178.69336681668506,-18.32609733768159 c 115.89125370782041,-0.0 195.35990235105396,20.837500000000002 166.19323568438728,-64.32633986098914&#10;c -25.0,-14.257963632578631 0,-66.67518843566019 42.14009764894607,-66.67518843566019&#10;c 64.35093090905767,0 89.35093090905767,103.95004143934483 64.35093090905767,115.62990772540276&#10;c -25.0,54.1775 87.5,33.34 143.98240242427568,15.371620571246567 L 2500 0 " fill="none" stroke="black" stroke-width="0.1" style="vector-effect:non-scaling-stroke;" /></g><g><path d="M 0 0  L 0 833.500000  c 70.76226322182717,-0.0 199.94805089220807,20.837500000000002 170.78138422554142,-29.167254071661503&#10;c -25.0,-55.25463692647859 0,-94.30967574573934 37.55194910779193,-94.30967574573934&#10;c 57.38121018436996,0 82.38121018436996,59.8898825436577 57.38121018436996,77.78348035547302&#10;c -25.0,54.1775 87.5,33.34 150.95212314896338,45.69344946192783 c 91.27553290454067,0.0 205.97083329910976,-20.837500000000002 176.8041666324431,41.69766737592516&#10;c -25.0,54.51361688556512 0,68.20904166115099 31.529166700890244,68.20904166115099&#10;c 54.169792563121774,0 79.16979256312177,-19.440855026276562 54.169792563121774,-28.30899101737937&#10;c -25.0,-54.1775 87.5,-33.34 154.16354077021157,-81.59771801969679 c 109.33414471647887,0.0 190.8415071477777,-20.837500000000002 161.67484048111103,53.19937508184877&#10;c -25.0,28.637026774120788 0,55.848049302468866 46.65849285222231,55.848049302468866&#10;c 37.85832935840051,0 62.85832935840051,-22.108223459666636 37.85832935840051,-26.640485640284737&#10;c -25.0,-54.1775 87.5,-33.34 170.47500397493283,-82.4069387440329 c 54.684682891876484,0.0 175.2716260113035,-20.837500000000002 146.10495934463685,29.014047372271452&#10;c -25.0,21.86917339330013 0,85.76039823234426 62.22837398869649,85.76039823234426&#10;c 36.53147026224272,0 61.53147026224272,-48.18100673913594 36.53147026224272,-120.38267316608085&#10;c -25.0,-54.1775 87.5,-33.34 171.80186307109062,5.608227561465142 c 55.394033735246474,0.0 196.13203022323262,-20.837500000000002 166.96536355656596,-1.8160612790328419&#10;c -25.0,87.68980538428941 0,108.1554675520886 41.36796977676738,108.1554675520886&#10;c 47.95546147392358,0 72.95546147392358,-19.694927716015993 47.95546147392358,-29.121120144993938&#10;c -25.0,-54.1775 87.5,-33.34 160.37787185940977,-77.21828612806182 c 97.82347470598305,-0.0 203.7420863045324,20.837500000000002 174.57541963786574,-25.84038703190031&#10;c -25.0,-30.92708833877152 0,-100.92240430955239 33.75791369546761,-100.92240430955239&#10;c 64.53633072417844,0 89.53633072417844,57.72159861267118 64.53633072417844,131.2073616492812&#10;c -25.0,54.1775 87.5,33.34 143.7970026091549,-4.4445703078285135 L 2500 0 " fill="none" stroke="black" stroke-width="0.1" style="vector-effect:non-scaling-stroke;" /></g><g><path d="M 0 0  L 0 1250.250000  c 82.86449057614674,-0.0 189.82685954495275,20.837500000000002 160.66019287828607,-7.007248590892725&#10;c -25.0,-51.01154618902496 0,-111.03462249609716 47.673140455047275,-111.03462249609716&#10;c 47.42840128190747,0 72.42840128190747,70.29957117670618 47.42840128190747,120.44195749101016&#10;c -25.0,54.1775 87.5,33.34 160.90493205142587,-2.4000864040202714 c 33.090835473027845,0.0 193.40325810690376,-20.837500000000002 164.23659144023708,58.90701780460385&#10;c -25.0,43.93842394551263 0,45.56722607858194 44.096741893096265,45.56722607858194&#10;c 62.88132900704616,0 87.88132900704616,-47.83268540233822 62.88132900704616,-77.56880108066693&#10;c -25.0,-54.1775 87.5,-33.34 145.45200432628718,-26.905442802518863 c 39.29932073417992,-0.0 185.65043693466197,20.837500000000002 156.4837702679953,-39.82465048362718&#10;c -25.0,-62.12838970190343 0,-70.45200200320176 51.84956306533803,-70.45200200320176&#10;c 57.64806641064118,0 82.64806641064118,20.507716304815535 57.64806641064118,29.689710194601915&#10;c -25.0,54.1775 87.5,33.34 150.68526692269216,80.58694229222702 c 48.43205670782473,0.0 204.75298435253103,-20.837500000000002 175.58631768586434,68.47311118120516&#10;c -25.0,20.958865102909467 0,71.43691386994928 32.747015647469,71.43691386994928&#10;c 48.63024063821794,0 73.63024063821794,-78.84717050251315 48.63024063821794,-100.73073502066632&#10;c -25.0,-54.1775 87.5,-33.34 159.7030926951154,-39.17929003048812 c 50.30947483010147,-0.0 171.96582070561755,20.837500000000002 142.7991540389509,-23.930366804330372&#10;c -25.0,-17.65572053980806 0,-81.08448411976559 65.53417929438245,-81.08448411976559&#10;c 49.24086296909732,0 74.24086296909732,95.7670816256813 49.24086296909732,98.57919381124505&#10;c -25.0,54.1775 87.5,33.34 159.09247036423602,6.435657112850919 c 114.92453353063534,-0.0 197.71524718556475,20.837500000000002 168.54858051889806,-78.90809836704366&#10;c -25.0,-22.32764969219632 0,-40.386326453098235 39.78475281443528,-40.386326453098235&#10;c 52.10852355962331,0 77.10852355962331,23.03606940907665 52.10852355962331,33.04094096964158&#10;c -25.0,54.1775 87.5,33.34 156.22480977371004,86.25348385050032 L 2500 0 " fill="none" stroke="black" stroke-width="0.1" style="vector-effect:non-scaling-stroke;" /></g></g></svg>