<svg baseProfile="full" height="3333" preserveAspectRatio="none" shape-rendering="geometricPrecision" version="1.1" viewBox="0,0,5000,3333" width="5000" xmlns="http://www.w3.org/2000/svg" xmlns:ev="http://www.w3.org/2001/xml-events" xmlns:xlink="http://www.w3.org/1999/xlink"><title>Jigsaw puzzle piece clips</title><desc>Created with the piecemaker. Piece count: 48</desc><defs/><g><g><rect fill="white" height="3333" width="5000" x="0" y="0"/></g></g><g><g><path d="M 0 0  L 625.000000 0  c -0.0,59.75250752030185 31.25,256.07606902299443 -65.8833744765471,217.1910690229944
c -69.5689965172455,-33.33 -95.69124311883597,0 -95.69124311883597,60.55893097700559
c 0,83.19379310044627 97.65121054062033,116.52379310044627 103.54681112705055,83.19379310044627
c 81.25,-33.33 50.0,116.655 58.02780646833253,194.55620689955373 c 0.0,98.13588602978915 -31.25,251.44928800827392 43.695434786058954,212.5642880082739
c 150.4643537596679,-33.33 151.34590218841703,0 151.34590218841703,65.1857119917261
c 0,66.09970293200877 -133.24488204510948,99.42970293200877 -171.31729353011764,66.09970293200877
c -81.25,-33.33 -50.0,116.655 -23.724043444358358,211.65029706799123 c -0.0,116.24935566912792 31.25,241.52491560571036 -75.83001828832452,202.63991560571034
c -105.28230098608852,-33.33 -112.13912531658438,0 -112.13912531658438,75.11008439428966
c 0,63.51622940001721 84.79576155565691,96.84622940001721 111.09031995987475,63.51622940001721
c 81.25,-33.33 50.0,116.655 76.87882364503416,214.2337705999828 c -0.0,42.75815325922181 31.25,246.80831010498844 -7.994587260073138,207.92331010498842
c -141.3355016453941,-33.33 -204.50372626889063,0 -204.50372626889063,69.82668989501158
c 0,59.7398949698665 78.33710056699638,93.0698949698665 194.3985552705742,59.7398949698665
c 81.25,-33.33 50.0,116.655 18.099758258389556,218.0101050301335 c -0.0,145.19216593240242 31.25,272.41482967728194 5.28669743079725,233.52982967728192
c -56.94609576006663,-33.33 -207.01513626414004,0 -207.01513626414004,44.220170322718076
c 0,72.92806699303458 80.88223294282321,106.25806699303457 109.78356097434813,72.92806699303458
c 81.25,-33.33 50.0,116.655 91.94487785899464,204.82193300696542 c -0.0,73.41931730276374 31.25,258.92825216049397 -73.65138280380012,220.04325216049395
c -79.982541295508,-33.33 -92.14074336031132,0 -92.14074336031132,57.70674783950605
c 0,47.50796129930853 153.50722344621997,80.83796129930853 165.32615464285746,47.50796129930853
c 81.25,-33.33 50.0,116.655 0.46597152125397656,230.24203870069147 L 0 3333 " fill="none" stroke="black" stroke-width="0.1" style="vector-effect:non-scaling-stroke;"/></g><g><path d="M 0 0  L 1250.000000 0  c 0.0,109.41291824010655 -31.25,265.79316789955277 -0.05349608329402022,226.90816789955278
c 118.99729856931452,-33.33 206.14824615911252,0 206.14824615911252,50.84183210044722
c 0,57.88263206334136 -126.78870057714492,91.21263206334136 -187.86518200734244,57.88263206334136
c -81.25,-33.33 -50.0,116.655 -18.229568068476055,219.86736793665864 c 0.0,29.978077254818775 -31.25,254.50533732394825 128.90191270963965,215.62033732394826
c 49.27627326525241,-33.33 66.29883196400243,0 66.29883196400243,62.12966267605174
c 0,51.84365127938537 -93.78548020689455,85.17365127938537 -94.42994932648124,51.84365127938537
c -81.25,-33.33 -50.0,116.655 -100.77079534716084,225.90634872061463 c 0.0,138.9161444606187 -31.25,274.45260235353317 80.49189373013245,235.56760235353318
c 33.372899122157364,-33.33 74.26321846847834,0 74.26321846847834,42.182397646466825
c 0,55.77061283177221 -23.051866497640606,89.10061283177221 -38.14643013074837,55.77061283177221
c -81.25,-33.33 -50.0,116.655 -116.60868206786242,221.9793871682278 c -0.0,72.56890652371433 31.25,245.51836819862484 9.831575937594549,206.63336819862485
c -177.38439929870478,-33.33 -215.88560098819298,0 -215.88560098819298,71.11663180137515
c 0,85.87860861802159 141.15033991043833,119.20860861802159 194.74792047448634,85.87860861802159
c 81.25,-33.33 50.0,116.655 11.30610457611209,191.8713913819784 c 0.0,88.1781782103001 -31.25,246.80053929008318 86.1900003096025,207.9155392900832
c 58.61281096941783,-33.33 97.13127283999258,0 97.13127283999258,69.83446070991681
c 0,44.323251740685805 -83.3189538692049,77.6532517406858 -110.58554304130558,44.323251740685805
c -81.25,-33.33 -50.0,116.655 -72.73573010828949,233.4267482593142 c -0.0,55.38241247773361 31.25,277.46274830191066 -33.48909566135634,238.57774830191065
c -62.93611457416575,-33.33 -133.02278496650885,0 -133.02278496650885,39.172251698089354
c 0,84.81484432117281 90.67139516918121,118.14484432117281 112.36701434347128,84.81484432117281
c 81.25,-33.33 50.0,116.655 54.14486628439391,192.9351556788272 L 0 3333 " fill="none" stroke="black" stroke-width="0.1" style="vector-effect:non-scaling-stroke;"/></g><g><path d="M 0 0  L 1875.000000 0  c 0.0,85.32842256352272 -31.25,265.7058628825413 72.69553400404148,226.82086288254126
c 95.29531305322384,-33.33 124.34829716192773,0 124.34829716192773,50.92913711745874
c 0,85.65046702706155 -70.95737066644242,118.98046702706155 -83.73951899331547,85.65046702706155
c -81.25,-33.33 -50.0,116.655 -113.30431217265374,192.09953297293845 c -0.0,125.75098528564854 31.25,240.86961215095056 -41.57303481250923,201.98461215095057
c -130.92548236386799,-33.33 -143.00403463431317,0 -143.00403463431317,75.76538784904943
c 0,61.07862481342943 53.868843604279675,94.40862481342943 165.71752027309313,61.07862481342943
c 81.25,-33.33 50.0,116.655 18.859549173729278,216.67137518657057 c -0.0,35.512512908372386 31.25,259.4283299341182 -42.26586539903887,220.54332993411822
c -63.43736544572855,-33.33 -122.86572740882367,0 -122.86572740882367,57.20667006588178
c 0,88.6709507957375 52.01131917579004,122.0009507957375 76.28439065595622,88.6709507957375
c 81.25,-33.33 50.0,116.655 88.84720215190633,189.0790492042625 c 0.0,144.20194506315917 -31.25,236.5826051584961 17.044544588967508,197.6976051584961
c 94.1400964746339,-33.33 132.99240705123592,0 132.99240705123592,80.05239484150391
c 0,57.215129790282106 -74.80762941440713,90.5451297902821 -122.64006584994641,57.215129790282106
c -81.25,-33.33 -50.0,116.655 -27.396885790257016,220.5348702097179 c -0.0,92.00363633608994 31.25,275.63165449422195 -53.21353285591273,236.74665449422196
c -73.23779897849055,-33.33 -99.00322679250284,0 -99.00322679250284,41.00334550577804
c 0,87.74879997420715 129.0491848926082,121.07879997420714 141.44487695332379,87.74879997420715
c 81.25,-33.33 50.0,116.655 10.77188269509179,190.00120002579285 c -0.0,50.57025193172316 31.25,263.5817561192772 -55.808983877686956,224.6967561192772
c -117.08487833249241,-33.33 -139.8074156080004,0 -139.8074156080004,53.05324388072279
c 0,58.86115769187717 40.50255506350072,92.19115769187717 112.83610205425174,58.86115769187717
c 81.25,-33.33 50.0,116.655 82.78029743143563,218.88884230812283 L 0 3333 " fill="none" stroke="black" stroke-width="0.1" style="vector-effect:non-scaling-stroke;"/></g><g><path d="M 0 0  L 2500.000000 0  c -0.0,85.55162363151224 31.25,257.02856903811244 -16.25115150970252,218.14356903811245
c -67.90276477424389,-33.33 -150.18627804256624,0 -150.18627804256624,59.606430961887554
c 0,85.42218390207404 86.02768579116226,118.75218390207404 123.37317793675045,85.42218390207404
c 81.25,-33.33 50.0,116.655 43.0642516155183,192.32781609792596 c -0.0,29.992836688957482 31.25,274.6448721025053 -50.431785466367025,235.75987210250528
c -139.03610507024135,-33.33 -160.62995708607698,0 -160.62995708607698,41.990127897494716
c 0,75.46056002442549 131.79887459482427,108.79056002442549 139.70061091690022,75.46056002442549
c 81.25,-33.33 50.0,116.655 71.36113163554379,202.2894399755745 c 0.0,59.05897693452552 -31.25,263.8360036918347 25.933089722852714,224.9510036918347
c 81.560757628426,-33.33 165.35518753951771,0 165.35518753951771,52.7989963081653
c 0,42.27307653842922 -138.76748165686058,75.60307653842922 -178.24202852842987,42.27307653842922
c -81.25,-33.33 -50.0,116.655 -13.046248733940558,235.47692346157078 c 0.0,98.73649244155251 -31.25,265.01495149175116 23.36687276568046,226.12995149175114
c 84.03219312709703,-33.33 150.81182825274018,0 150.81182825274018,51.62004850824886
c 0,43.88865564026975 -54.58078061425488,77.21865564026974 -76.17410712791694,43.88865564026975
c -81.25,-33.33 -50.0,116.655 -98.0045938905037,233.86134435973025 c -0.0,160.05379598320556 31.25,277.01898275778655 -57.37664344115955,238.13398275778655
c -83.74619860753492,-33.33 -129.70547171991475,0 -129.70547171991475,39.616017242213445
c 0,49.871004522867054 69.36229674639333,83.20100452286705 143.93702310538364,49.871004522867054
c 81.25,-33.33 50.0,116.655 43.14509205569067,227.87899547713295 c 0.0,96.9782174813307 -31.25,228.02423470469074 3.33991011191731,189.13923470469072
c 93.03729136858068,-33.33 168.26825329936557,0 168.26825329936557,88.61076529530928
c 0,71.48200830061313 -98.65225164603454,104.81200830061313 -131.0972915158553,71.48200830061313
c -81.25,-33.33 -50.0,116.655 -40.510871895427584,206.26799169938687 L 0 3333 " fill="none" stroke="black" stroke-width="0.1" style="vector-effect:non-scaling-stroke;"/></g><g><path d="M 0 0  L 3125.000000 0  c 0.0,42.59997233845995 -31.25,234.64424844604048 12.969265715488232,195.7592484460405
c 155.60796636105607,-33.33 156.64685555411407,0 156.64685555411407,81.99075155395951
c 0,60.88992339723035 -112.86805797667388,94.21992339723035 -117.12095850127112,60.88992339723035
c -81.25,-33.33 -50.0,116.655 -52.495162768331184,216.86007660276965 c 0.0,133.01060105542996 -31.25,259.6899600315184 101.45650815230915,220.8049600315184
c 48.44547156571257,-33.33 61.24870897101785,0 61.24870897101785,56.94503996848161
c 0,62.074887899905775 -22.266658321853065,95.40488789990577 -26.330495540947283,62.074887899905775
c -81.25,-33.33 -50.0,116.655 -136.37472158237972,215.67511210009422 c 0.0,154.8105875295008 -31.25,236.75757639521095 48.68027409187311,197.87257639521096
c 96.09796313094255,-33.33 115.35373795080372,0 115.35373795080372,79.87742360478904
c 0,69.63063767384881 -81.77051428616072,102.96063767384881 -167.27957930464834,69.63063767384881
c -81.25,-33.33 -50.0,116.655 3.2455672619715017,208.1193623261512 c -0.0,118.85346892923673 31.25,257.6238724437851 -34.50591819753468,218.73887244378508
c -43.17605887055122,-33.33 -130.89407558707512,0 -130.89407558707512,59.011127556214916
c 0,54.533084359860936 34.28803302130129,87.86308435986093 66.44916762304827,54.533084359860936
c 81.25,-33.33 50.0,116.655 98.95082616156155,223.21691564013906 c 0.0,36.58211550447295 -31.25,250.3748518524431 69.5020806700883,211.4898518524431
c 53.87394488108183,-33.33 83.56772529364619,0 83.56772529364619,66.26014814755689
c 0,79.35713731413506 -79.40422301479671,112.68713731413506 -159.25747236754063,79.35713731413506
c -81.25,-33.33 -50.0,116.655 6.1876664038061335,198.39286268586494 c -0.0,118.02412442611471 31.25,245.63399276200596 -134.75400528400257,206.74899276200594
c -32.99540593330813,-33.33 -48.28463366680185,0 -48.28463366680185,71.00100723799406
c 0,51.78411240267269 50.775223044356586,85.11411240267269 152.676456481649,51.78411240267269
c 81.25,-33.33 50.0,116.655 30.362182469155414,225.9658875973273 L 0 3333 " fill="none" stroke="black" stroke-width="0.1" style="vector-effect:non-scaling-stroke;"/></g><g><path d="M 0 0  L 3750.000000 0  c -0.0,106.08519458601081 31.25,231.54509771025732 8.89852827312563,192.66009771025733
c -54.943319542634434,-33.33 -168.48330240880034,0 -168.48330240880034,85.08990228974267
c 0,47.16197273448239 35.26211991208128,80.49197273448239 85.22250407196873,47.16197273448239
c 81.25,-33.33 50.0,116.655 74.36227006370598,230.5880272655176 c -0.0,74.87417278624409 31.25,271.8837805958115 -81.45350424017563,232.99878059581152
c -84.32583206183475,-33.33 -117.92402949095087,0 -117.92402949095087,44.751219404188475
c 0,63.739970105863165 149.38271864772716,97.06997010586316 175.0781387306688,63.739970105863165
c 81.25,-33.33 50.0,116.655 24.299395000457707,214.01002989413684 c 0.0,39.13052717815708 -31.25,260.01675421674287 37.08933463128059,221.13175421674288
c 106.89688621956887,-33.33 114.30682624377636,0 114.30682624377636,56.61824578325712
c 0,66.80564856001058 -54.64733142306395,100.13564856001058 -161.61375835596147,66.80564856001058
c -81.25,-33.33 -50.0,116.655 10.217597480904516,210.94435143998942 c 0.0,143.09365827863977 -31.25,258.2639165218941 68.99429575834229,219.3789165218941
c 55.330948046924675,-33.33 132.69337273745288,0 132.69337273745288,58.3710834781059
c 0,85.54074111596418 -115.87793065770805,118.87074111596418 -140.9628439300133,85.54074111596418
c -81.25,-33.33 -50.0,116.655 -60.72482456578186,192.20925888403582 c -0.0,28.914846437846304 31.25,229.6144690957716 1.6297536298389435,190.72946909577158
c -113.33935200206018,-33.33 -168.0030831955451,0 -168.0030831955451,87.02053090422842
c 0,40.7487228623869 64.75848011091094,74.0787228623869 159.88132710382123,40.7487228623869
c 81.25,-33.33 50.0,116.655 6.492002461884908,237.0012771376131 c -0.0,33.64041666131343 31.25,252.16054566568562 -72.1218167517814,213.27554566568563
c -61.89646364333037,-33.33 -110.45262646655617,0 -110.45262646655617,64.47445433431437
c 0,78.09316847776802 83.6818340011299,111.42316847776802 115.05499629254238,78.09316847776802
c 81.25,-33.33 50.0,116.655 67.51944692579518,199.65683152223198 L 0 3333 " fill="none" stroke="black" stroke-width="0.1" style="vector-effect:non-scaling-stroke;"/></g><g><path d="M 0 0  L 4375.000000 0  c 0.0,39.72071330155682 -31.25,251.68972954458178 61.75463318298874,212.8047295445818
c 60.47187731882835,-33.33 102.76507257661906,0 102.76507257661906,64.94527045541821
c 0,84.75021605276095 -82.71371429163467,118.08021605276095 -126.62714005265653,84.75021605276095
c -81.25,-33.33 -50.0,116.655 -37.892565706951274,192.99978394723905 c -0.0,118.45209313269663 31.25,261.3301631248413 -101.22365364271938,222.4451631248413
c -45.79532377794621,-33.33 -72.1965187690571,0 -72.1965187690571,55.30483687515871
c 0,43.683929834233936 96.30762554416935,77.01392983423393 107.99661994092781,43.683929834233936
c 81.25,-33.33 50.0,116.655 65.42355247084868,234.06607016576606 c -0.0,54.365207675871844 31.25,277.7017608608237 -80.10897847543994,238.81676086082368
c -32.58232567491887,-33.33 -86.13306528782267,0 -86.13306528782267,38.93323913917632
c 0,57.22529097360308 86.27759641836215,90.55529097360308 94.94248977879202,57.22529097360308
c 81.25,-33.33 50.0,116.655 71.29955398447059,220.52470902639692 c -0.0,103.81066386695754 31.25,228.1976794639524 -132.89776428256116,189.3126794639524
c -67.13744457229494,-33.33 -66.70286840828385,0 -66.70286840828385,88.4373205360476
c 0,66.36345566027796 67.55224399991367,99.69345566027796 135.41791642120268,66.36345566027796
c 81.25,-33.33 50.0,116.655 64.18271626964233,211.38654433972204 c 0.0,134.99197446784578 -31.25,242.0557519339418 68.93821044150715,203.17075193394177
c 48.649408461600466,-33.33 117.50171835674448,0 117.50171835674448,74.57924806605823
c 0,77.4379237994167 -56.639129783618,110.76792379941669 -116.6412840346322,77.4379237994167
c -81.25,-33.33 -50.0,116.655 -69.79864476361942,200.3120762005833 c -0.0,51.4449103090441 31.25,257.4918033118028 -80.27506001898553,218.60680331180282
c -52.46016116758914,-33.33 -81.5482842739411,0 -81.5482842739411,59.14319668819718
c 0,75.2923980881609 89.03825907552653,108.62239808816089 158.65978661455193,75.2923980881609
c 81.25,-33.33 50.0,116.655 3.1635576783747013,202.4576019118391 L 0 3333 " fill="none" stroke="black" stroke-width="0.1" style="vector-effect:non-scaling-stroke;"/></g></g><g><g><path d="M 0 0  L 0 555.500000  c 84.90261352803216,0.0 277.2674177777798,-27.775000000000002 233.5174177777798,9.733710707127065
c -37.5,76.38030637498998 0,153.289742847892 78.9825822222202,153.289742847892
c 68.04759535799553,0 105.54759535799553,-56.468946017863836 68.04759535799553,-130.57979228630035
c -37.5,-72.215 131.25,-44.44 244.45240464200447,-32.44366126871873 c 85.25375045620908,0.0 289.6910471046231,-27.775000000000002 245.94104710462312,121.27571758944042
c -37.5,9.209595960746706 0,15.076541041191618 66.55895289537688,15.076541041191618
c 56.22484718937909,0 93.72484718937909,-61.29185616730351 56.22484718937909,-93.89019426697755
c -37.5,-72.215 131.25,-44.44 256.2751528106209,-42.46206436365449 c 169.4353287324733,-0.0 283.6722732520075,27.775000000000002 239.92227325200753,-91.90409058781994
c -37.5,-36.484234628137756 0,-50.20895878417393 72.57772674799247,-50.20895878417393
c 89.91335593662586,0 127.41335593662586,58.573963543256006 89.91335593662586,88.29318993670127
c -37.5,72.215 131.25,44.44 222.58664406337414,53.8198594352926 c 158.16750001797064,-0.0 289.09040403086607,27.775000000000002 245.34040403086607,-72.0937224349398
c -37.5,-28.463071938940693 0,-109.40770958677375 67.15959596913393,-109.40770958677375
c 66.25382010988216,0 103.75382010988216,45.76719012433195 66.25382010988216,134.11916375449738
c -37.5,72.215 131.25,44.44 246.24617989011784,47.382268267216176 c 94.20875753874982,0.0 300.64674940395895,-27.775000000000002 256.89674940395895,44.265225985879816
c -37.5,56.21966470103134 0,98.15489543790909 55.60325059604105,98.15489543790909
c 60.037180007453344,0 97.53718000745334,-36.98371188837222 60.037180007453344,-92.56869105152138
c -37.5,-72.215 131.25,-44.44 252.46281999254666,-49.85143037226753 c 133.94082154008532,-0.0 278.3710781181385,27.775000000000002 234.62107811813848,-49.153553963325535
c -37.5,-56.02005043543709 0,-132.85716745502583 77.87892188186152,-132.85716745502583
c 45.71799776076102,0 83.21799776076102,170.57408593123546 45.71799776076102,174.09952951034106
c -37.5,72.215 131.25,44.44 266.782002239239,7.911191908010295 c 44.4440888191408,0.0 288.23908960774617,-27.775000000000002 244.48908960774614,-2.372773925592219
c -37.5,133.94204843913474 0,143.25942222809536 68.01091039225386,143.25942222809536
c 67.49008204993271,0 104.99008204993271,-65.43107301798938 67.49008204993271,-139.0169209162663
c -37.5,-72.215 131.25,-44.44 245.0099179500673,-1.8697273862368604 c 77.12394552470629,0.0 262.39637582800987,-27.775000000000002 218.64637582800984,52.31219275446904
c -37.5,40.82010574882179 0,133.61490200527402 93.85362417199016,133.61490200527402
c 90.63724491246893,0 128.13724491246893,-100.97657124709472 90.63724491246893,-154.69011129547457
c -37.5,-72.215 131.25,-44.44 221.86275508753107,-31.23698346426849 L 5000 0 " fill="none" stroke="black" stroke-width="0.1" style="vector-effect:non-scaling-stroke;"/></g><g><path d="M 0 0  L 0 1111.000000  c 62.30041142661341,0.0 297.1384654746669,-27.775000000000002 253.38846547466684,119.52481942634081
c -37.5,8.801141760283834 0,37.388614356111574 59.111534525333155,37.388614356111574
c 88.49318561960115,0 125.99318561960115,-98.5869147384208 88.49318561960115,-113.58356532007204
c -37.5,-72.215 131.25,-44.44 224.00681438039885,-43.32986846238035 c 99.61784573407354,-0.0 279.01553379258394,27.775000000000002 235.26553379258394,-4.223084395973715
c -37.5,-53.433660125096615 0,-140.49904853813177 77.23446620741606,-140.49904853813177
c 58.081429836242194,0 95.5814298362422,39.18650536828793 58.081429836242194,149.05180273716277
c -37.5,72.215 131.25,44.44 254.4185701637578,-4.329669803057271 c 156.21088575396155,-0.0 293.16011872168303,27.775000000000002 249.410118721683,-26.7954434263363
c -37.5,-88.94045389271538 0,-107.08255707908012 63.089881278316994,-107.08255707908012
c 47.86608408323593,0 85.36608408323593,40.75975178515793 47.86608408323593,64.03653872479265
c -37.5,72.215 131.25,44.44 264.63391591676407,69.84146178062377 c 97.4379783859668,-0.0 296.21411979227196,27.775000000000002 252.46411979227196,-22.67639261994697
c -37.5,-101.12865200509218 0,-133.78425954397758 60.03588020772804,-133.78425954397758
c 94.08944156844251,0 131.5894415684425,56.01268362079647 94.08944156844251,95.66248577319331
c -37.5,72.215 131.25,44.44 218.4105584315575,60.79816639073124 c 35.82402049214918,0.0 283.79039292495185,-27.775000000000002 240.04039292495185,16.91144868579945
c -37.5,56.77015912984815 0,168.32155536927925 72.45960707504815,168.32155536927925
c 87.67053909467069,0 125.17053909467069,-110.83083625007808 87.67053909467069,-148.98719808904607
c -37.5,-72.215 131.25,-44.44 224.8294609053293,-36.245805966032634 c 101.25187060663757,-0.0 296.9550316572371,27.775000000000002 253.2050316572371,-18.583617005830952
c -37.5,-119.21559111498415 0,-151.90200647642524 59.2949683427629,-151.90200647642524
c 93.39106265062532,0 130.89106265062532,109.35922321946659 93.39106265062532,144.03874373180204
c -37.5,72.215 131.25,44.44 219.10893734937468,26.446879750454144 c 69.9433759345361,0.0 291.78984288087725,-27.775000000000002 248.03984288087725,71.99345003289282
c -37.5,85.41761334816084 0,87.82800192205632 64.46015711912275,87.82800192205632
c 47.40082179884905,0 84.90082179884905,-93.86575468532338 47.40082179884905,-118.41757863707835
c -37.5,-72.215 131.25,-44.44 265.09917820115095,-41.40387331787079 c 36.86026003973138,-0.0 291.74497097961074,27.775000000000002 247.99497097961074,5.679851136248249
c -37.5,-90.05400850093831 0,-173.71479664123822 64.50502902038926,-173.71479664123822
c 86.75617857310027,0 124.25617857310027,112.23277086953753 86.75617857310027,140.4155448617342
c -37.5,72.215 131.25,44.44 225.74382142689973,27.619400643255773 L 5000 0 " fill="none" stroke="black" stroke-width="0.1" style="vector-effect:non-scaling-stroke;"/></g><g><path d="M 0 0  L 0 1666.500000  c 148.25943894006068,-0.0 299.84116170074185,27.775000000000002 256.09116170074185,-113.32510637111936
c -37.5,-19.549701073577 0,-31.51081946745616 56.40883829925815,-31.51081946745616
c 79.54406944711803,0 117.04406944711803,23.151096948232407 79.54406944711803,82.76311373635394
c -37.5,72.215 131.25,44.44 232.95593055288197,62.072812102221576 c 71.68446828004987,-0.0 269.16788223964454,27.775000000000002 225.41788223964454,-71.08121177116945
c -37.5,-80.14740257752784 0,-86.1369306953763 87.08211776035546,-86.1369306953763
c 79.28151238455672,0 116.78151238455672,41.849921212846866 79.28151238455672,114.43959066195502
c -37.5,72.215 131.25,44.44 233.21848761544328,42.77855180459072 c 142.66069752059562,0.0 271.53609341810585,-27.775000000000002 227.78609341810585,67.83213528019608
c -37.5,39.25603728422246 0,78.53319843907376 84.71390658189415,78.53319843907376
c 72.9383488144598,0 110.4383488144598,-27.376888487306093 72.9383488144598,-83.4799656416754
c -37.5,-72.215 131.25,-44.44 239.5616511855402,-62.885368077594435 c 44.82232188820065,0.0 262.55199081200504,-27.775000000000002 218.80199081200504,-1.1670773855314505
c -37.5,104.7967337268193 0,139.06408365897755 93.69800918799496,139.06408365897755
c 50.42459848764241,0 87.92459848764241,-92.48538385227867 50.42459848764241,-105.76805284116864
c -37.5,-72.215 131.25,-44.44 262.0754015123576,-32.128953432277456 c 76.25074998189274,-0.0 288.45532713650005,27.775000000000002 244.70532713650005,-56.66780312265055
c -37.5,-73.7686309769184 0,-107.59683674499368 67.79467286349995,-107.59683674499368
c 82.11326361799382,0 119.61326361799382,51.70495223459598 82.11326361799382,126.43249638329168
c -37.5,72.215 131.25,44.44 230.38673638200618,37.83214348435256 c 77.01429468411828,0.0 266.5609134648079,-27.775000000000002 222.81091346480792,46.85779703014636
c -37.5,46.53881170882994 0,135.53491909887248 89.68908653519208,135.53491909887248
c 84.84370319605654,0 122.34370319605654,-58.852628661768016 84.84370319605654,-71.03642607322101
c -37.5,-72.215 131.25,-44.44 227.65629680394346,-111.35629005579781 c 146.404799646478,-0.0 301.5198447098945,27.775000000000002 257.7698447098945,-4.531132470681856
c -37.5,-58.68777934941339 0,-157.11695918660723 54.73015529010547,-157.11695918660723
c 67.47161050793426,0 104.97161050793426,37.58479597768676 67.47161050793426,110.44906707989915
c -37.5,72.215 131.25,44.44 245.02838949206574,51.199024577389935 c 181.19633822941913,0.0 290.6753677266797,-27.775000000000002 246.9253677266797,55.84889357619152
c -37.5,93.65086706794612 0,112.64268000586546 65.5746322733203,112.64268000586546
c 59.15665676574076,0 96.65665676574076,-78.46830873323907 59.15665676574076,-108.17878196892845
c -37.5,-72.215 131.25,-44.44 253.34334323425924,-60.31279161312854 L 5000 0 " fill="none" stroke="black" stroke-width="0.1" style="vector-effect:non-scaling-stroke;"/></g><g><path d="M 0 0  L 0 2222.000000  c 52.26118849091229,-0.0 263.2544962782415,27.775000000000002 219.50449627824148,-27.66306265189269
c -37.5,-79.98703093681478 0,-129.40597614337548 92.99550372175852,-129.40597614337548
c 88.23967863508307,0 125.73967863508307,61.59297367356734 88.23967863508307,71.82802729496385
c -37.5,72.215 131.25,44.44 224.26032136491693,85.24101150030432 c 156.0106422664078,-0.0 259.2203317230898,27.775000000000002 215.47033172308983,-80.99127821006601
c -37.5,-14.611589722789134 0,-53.648408134094126 97.02966827691017,-53.648408134094126
c 98.24987508074861,0 135.7498750807486,33.8819239069286 98.24987508074861,47.375541195385864
c -37.5,72.215 131.25,44.44 214.2501249192514,87.26414514877428 c 160.82178425247034,-0.0 281.06670302268594,27.775000000000002 237.31670302268594,-20.939950843116108
c -37.5,-37.349575406771976 0,-144.29852914341598 75.18329697731406,-144.29852914341598
c 57.63934999253149,0 95.13934999253149,44.27725219810737 57.63934999253149,51.106907112380554
c -37.5,72.215 131.25,44.44 254.8606500074685,114.13157287415152 c 88.88789458123108,0.0 278.0930556838323,-27.775000000000002 234.3430556838323,10.086033268761195
c -37.5,88.84380405888244 0,157.3435740413518 78.15694431616771,157.3435740413518
c 72.87013081905957,0 110.37013081905957,-94.58964457971389 72.87013081905957,-106.41131165030225
c -37.5,-72.215 131.25,-44.44 239.62986918094043,-61.01829565981072 c 55.100481684570745,-0.0 292.3289465821676,27.775000000000002 248.57894658216756,-98.93620260097296
c -37.5,-44.02646333424568 0,-60.51842385064498 63.92105341783244,-60.51842385064498
c 65.94519314223834,0 103.44519314223834,93.00531759512809 65.94519314223834,111.53007350717672
c -37.5,72.215 131.25,44.44 246.55480685776166,47.92455294444122 c 90.8409895317856,0.0 292.0491227014763,-27.775000000000002 248.29912270147628,69.10678251737203
c -37.5,66.5578038039126 0,93.02350434819819 64.20087729852372,93.02350434819819
c 83.77383199029379,0 121.27383199029379,-14.97772313854268 83.77383199029379,-48.25833777068971
c -37.5,-72.215 131.25,-44.44 228.7261680097062,-113.8719490948805 c 154.7658398923381,-0.0 295.4982952235336,27.775000000000002 251.74829522353357,-100.00522772856654
c -37.5,-17.842999314329898 0,-66.47951272578887 60.751704776466426,-66.47951272578887
c 56.482950879626344,0 93.98295087962634,155.18973895772862 56.482950879626344,163.873665115721
c -37.5,72.215 131.25,44.44 256.01704912037366,2.611075338634407 c 166.85463255866443,-0.0 259.0339081017275,27.775000000000002 215.2839081017275,-58.37845818059427
c -37.5,-65.86656373541292 0,-80.0146716107505 97.21609189827251,-80.0146716107505
c 89.9654644672126,0 127.4654644672126,64.90221481780253 89.9654644672126,90.79436618332062
c -37.5,72.215 131.25,44.44 222.5345355327874,47.59876360802414 L 5000 0 " fill="none" stroke="black" stroke-width="0.1" style="vector-effect:non-scaling-stroke;"/></g><g><path d="M 0 0  L 0 2777.500000  c 69.6419945567785,0.0 268.4581658594165,-27.775000000000002 224.7081658594165,53.372345434128555
c -37.5,60.848174436339306 0,91.93981130807302 87.79183414058349,91.93981130807302
c 82.89392028397464,0 120.39392028397464,-9.071659254381878 82.89392028397464,-35.206707124483955
c -37.5,-72.215 131.25,-44.44 229.60607971602536,-110.10544961771762 c 91.1349043794003,0.0 291.5344905513517,-27.775000000000002 247.7844905513517,72.75605540933877
c -37.5,60.5644404606324 0,84.53881711227088 64.7155094486483,84.53881711227088
c 76.77298875952579,0 114.27298875952579,-27.942633070807695 76.77298875952579,-94.28415894345824
c -37.5,-72.215 131.25,-44.44 235.7270112404742,-63.01071357815141 c 61.48765031821269,0.0 299.8766139730149,-27.775000000000002 256.1266139730149,59.72038281114069
c -37.5,65.14035071891523 0,100.81071958413503 56.37338602698509,100.81071958413503
c 50.59897687632099,0 88.09897687632099,-81.81069782861032 50.59897687632099,-112.50585789064284
c -37.5,-72.215 131.25,-44.44 261.901023123679,-48.02524450463288 c 46.95935353069645,-0.0 259.6924442698676,27.775000000000002 215.9424442698676,-73.57046980569368
c -37.5,-44.269704565882826 0,-73.81934758822953 96.5575557301324,-73.81934758822953
c 43.88363673707153,0 81.38363673707153,111.79101143620767 43.88363673707153,112.47789850572394
c -37.5,72.215 131.25,44.44 268.6163632629285,34.91191888819927 c 123.78314353233566,0.0 280.2989791367935,-27.775000000000002 236.5489791367935,78.9348873545486
c -37.5,24.635546995611254 0,63.072987362327225 75.95102086320651,63.072987362327225
c 67.40379299628859,0 104.90379299628859,-41.355440509678125 67.40379299628859,-70.97671041915417
c -37.5,-72.215 131.25,-44.44 245.0962070037114,-71.03116429772165 c 51.326842330669244,0.0 259.7722241226173,-27.775000000000002 216.02222412261725,2.133983536529007
c -37.5,129.03777716734345 0,156.46943372790696 96.47777587738275,156.46943372790696
c 47.77503961681401,0 85.27503961681401,-44.58900556260245 47.77503961681401,-59.5255605631458
c -37.5,-72.215 131.25,-44.44 264.724960383186,-99.07785670129016 c 102.54461524850885,-0.0 299.43049435985864,27.775000000000002 255.6804943598586,-17.799564434260898
c -37.5,-98.20542587244233 0,-159.33131796252582 56.81950564014139,-159.33131796252582
c 79.5271888805924,0 117.0271888805924,64.43184488428165 79.5271888805924,122.82620296652544
c -37.5,72.215 131.25,44.44 232.9728111194076,54.304679430261274 c 102.03938368620443,-0.0 271.54156101002343,27.775000000000002 227.79156101002343,-45.05636973773262
c -37.5,-103.38059732469529 0,-143.021745988073 84.70843898997657,-143.021745988073
c 99.24663944917103,0 136.74663944917103,41.25649807185096 99.24663944917103,79.18209924382923
c -37.5,72.215 131.25,44.44 213.25336055082897,108.89601648197639 L 5000 0 " fill="none" stroke="black" stroke-width="0.1" style="vector-effect:non-scaling-stroke;"/></g></g></svg>