<svg baseProfile="full" height="1836" preserveAspectRatio="none" shape-rendering="geometricPrecision" version="1.1" viewBox="0,0,3264,1836" width="3264" xmlns="http://www.w3.org/2000/svg" xmlns:ev="http://www.w3.org/2001/xml-events" xmlns:xlink="http://www.w3.org/1999/xlink"><title>Jigsaw puzzle piece clips</title><desc>Created with the piecemaker. Piece count: 18</desc><defs /><g><g><rect fill="white" height="1836" width="3264" x="0" y="0" /></g></g><g><g><path d="M 0 0  L 544.000000 0  c -0.0,63.10492060853078 27.200000000000003,257.63704929607775 -79.32697341110553,214.79704929607777&#10;c -75.96636558766085,-36.72 -77.14989823668166,0 -77.14989823668166,91.20295070392223&#10;c 0,74.3082238058214 106.36312850340332,111.0282238058214 106.67732743510726,74.3082238058214&#10;c 70.72,-36.72 43.52,128.51999999999998 49.79954421267993,231.6917761941786 c -0.0,136.77759332177965 27.200000000000003,271.48130556700255 -79.58583945271461,228.64130556700258&#10;c -79.42207683966542,-36.72 -97.22474470185527,0 -97.22474470185527,77.35869443299742&#10;c 0,87.56395787152468 33.01905673226862,124.28395787152468 116.9340072156096,87.56395787152468&#10;c 70.72,-36.72 43.52,128.51999999999998 59.876576938960284,218.43604212847532 c 0.0,136.603156951346 -27.200000000000003,271.58768169733327 117.91442352406996,228.74768169733326&#10;c 4.4149923598508,-36.72 14.613973856888109,0 14.613973856888109,77.25231830266674&#10;c 0,86.62011382126155 -11.383236475132675,123.34011382126155 -46.596381959396396,86.62011382126155&#10;c -70.72,-36.72 -43.52,128.51999999999998 -85.93201542156167,219.37988617873845 L 0 1836 " fill="none" stroke="black" stroke-width="0.1" style="vector-effect:non-scaling-stroke;" /></g><g><path d="M 0 0  L 1088.000000 0  c -0.0,125.86417586802561 27.200000000000003,275.54454013734494 -97.726214921844,232.70454013734496&#10;c -25.359310849071953,-36.72 -39.38977764972019,0 -39.38977764972019,73.29545986265504&#10;c 0,87.87196833287192 101.80334135792816,124.59196833287191 130.70889384943646,87.87196833287192&#10;c 70.72,-36.72 43.52,128.51999999999998 6.407098722127728,218.12803166712808 c 0.0,45.09426398860501 -27.200000000000003,272.3283050922635 66.9608983115558,229.48830509226352&#10;c 51.691000983267216,-36.72 70.05570275291915,0 70.05570275291915,76.51169490773648&#10;c 0,85.39010462091807 -114.2418745607096,122.11010462091807 -139.07934031276238,85.39010462091807&#10;c -70.72,-36.72 -43.52,128.51999999999998 2.0627392482874427,220.60989537908193 c -0.0,160.1881486538783 27.200000000000003,261.39003045560855 -52.18258155581012,218.55003045560858&#10;c -64.38222235666987,-36.72 -120.47104960541716,0 -120.47104960541716,87.44996954439142&#10;c 0,80.60169336232241 22.362946501338303,117.3216933623224 78.23017399124777,80.60169336232241&#10;c 70.72,-36.72 43.52,128.51999999999998 94.42345716997951,225.3983066376776 L 0 1836 " fill="none" stroke="black" stroke-width="0.1" style="vector-effect:non-scaling-stroke;" /></g><g><path d="M 0 0  L 1632.000000 0  c -0.0,73.1625283871509 27.200000000000003,261.1242273428493 -69.4508018924988,218.28422734284925&#10;c -88.6679027381263,-36.72 -89.17647933723215,0 -89.17647933723215,87.71577265715075&#10;c 0,88.16619863168705 22.665773457943374,124.88619863168705 51.231216044181025,88.16619863168705&#10;c 70.72,-36.72 43.52,128.51999999999998 107.39606518554993,217.83380136831295 c -0.0,108.80858903801449 27.200000000000003,276.9303352064709 -91.21578579913543,234.09033520647085&#10;c -38.60237654259712,-36.72 -55.07053185731016,0 -55.07053185731016,71.90966479352915&#10;c 0,79.02494737245041 8.75213214279993,115.74494737245041 40.29980782419457,79.02494737245041&#10;c 70.72,-36.72 43.52,128.51999999999998 105.98650983225102,226.9750526275496 c 0.0,87.26977732772312 -27.200000000000003,297.05706923890426 117.9955136606257,254.21706923890426&#10;c 16.503870277071155,-36.72 45.927339835114424,0 45.927339835114424,51.78293076109574&#10;c 0,53.89517777657886 -25.12910714387271,90.61517777657886 -109.65895465744885,53.89517777657886&#10;c -70.72,-36.72 -43.52,128.51999999999998 -54.26389883829128,252.10482222342114 L 0 1836 " fill="none" stroke="black" stroke-width="0.1" style="vector-effect:non-scaling-stroke;" /></g><g><path d="M 0 0  L 2176.000000 0  c -0.0,59.50300115494215 27.200000000000003,294.5651342780634 -61.4762880243405,251.7251342780634&#10;c -44.92272408924413,-36.72 -106.62869937454576,0 -106.62869937454576,54.27486572193661&#10;c 0,48.4154327423671 58.84970357257358,85.1354327423671 71.38909882466331,48.4154327423671&#10;c 70.72,-36.72 43.52,128.51999999999998 96.71588857422296,257.5845672576329 c -0.0,47.22868111559001 27.200000000000003,272.5918661028593 -37.678635038981454,229.75186610285928&#10;c -71.92056969406393,-36.72 -107.63961834017557,0 -107.63961834017557,76.24813389714072&#10;c 0,91.55656070870339 88.56278293047068,128.27656070870339 132.62070803070068,91.55656070870339&#10;c 70.72,-36.72 43.52,128.51999999999998 12.697545348456345,214.4434392912966 c 0.0,123.92458033772863 -27.200000000000003,281.6264375401464 60.61915684191349,238.78643754014644&#10;c 36.28502483915811,-36.72 78.66178442852981,0 78.66178442852981,67.21356245985356&#10;c 0,77.3484185235393 -11.688763780930053,114.0684185235393 -27.715271205367685,77.3484185235393&#10;c -70.72,-36.72 -43.52,128.51999999999998 -111.56567006507561,228.6515814764607 L 0 1836 " fill="none" stroke="black" stroke-width="0.1" style="vector-effect:non-scaling-stroke;" /></g><g><path d="M 0 0  L 2720.000000 0  c 0.0,150.26182317856671 -27.200000000000003,288.35688527448144 1.8211923301391186,245.51688527448144&#10;c 35.383202324044845,-36.72 129.6876639822934,0 129.6876639822934,60.48311472551856&#10;c 0,86.64920127998727 -35.79535222380374,123.36920127998727 -41.56863153097029,86.64920127998727&#10;c -70.72,-36.72 -43.52,128.51999999999998 -89.94022478146223,219.35079872001273 c -0.0,124.57957597183946 27.200000000000003,251.56567782653394 -103.22798130391638,208.72567782653394&#10;c -8.68956784213653,-36.72 -29.01519916157065,0 -29.01519916157065,97.27432217346606&#10;c 0,56.6555833784397 23.615032529964832,93.3755833784397 38.864481931944596,56.6555833784397&#10;c 70.72,-36.72 43.52,128.51999999999998 93.37869853354243,249.3444166215603 c 0.0,57.93332576432232 -27.200000000000003,295.11037508746267 75.24485666356796,252.2703750874627&#10;c 19.388610486108092,-36.72 74.51994675753792,0 74.51994675753792,53.729624912537304&#10;c 0,48.41644269624652 -51.31362353777765,85.13644269624652 -134.27737114134464,48.41644269624652&#10;c -70.72,-36.72 -43.52,128.51999999999998 -15.487432279761236,257.5835573037535 L 0 1836 " fill="none" stroke="black" stroke-width="0.1" style="vector-effect:non-scaling-stroke;" /></g></g><g><g><path d="M 0 0  L 0 612.000000  c 29.922521917908828,0.0 226.21645476701886,-30.6 188.13645476701885,24.47552905521365&#10;c -32.64,143.29965837401147 0,144.9672570961818 83.86354523298115,144.9672570961818&#10;c 63.15307157574472,0 95.79307157574472,-51.697505659849696 63.15307157574472,-64.0713411241029&#10;c -32.64,-79.56 114.24,-48.96 208.84692842425528,-105.37144502729257 c 42.05700589955777,0.0 251.44631757160366,-30.6 213.36631757160364,17.965211089889376&#10;c -32.64,76.38388273343202 0,144.83339555938602 58.633682428396355,144.83339555938602&#10;c 85.79691102419014,0 118.43691102419014,-71.00772392664642 85.79691102419014,-140.93206492990433&#10;c -32.64,-79.56 114.24,-48.96 186.20308897580986,-21.86654171937107 c 108.26023720256484,-0.0 238.83058022991895,30.6 200.75058022991894,-72.56734375732866&#10;c -32.64,-84.18126380294322 0,-86.22007218022007 71.24941977008106,-86.22007218022007&#10;c 46.53890840805764,0 79.17890840805764,109.16242661158695 46.53890840805764,161.66699126550157&#10;c -32.64,79.56 114.24,48.96 225.46109159194236,-2.8795753279528356 c 150.99067823785077,0.0 253.6055752000912,-30.6 215.5255752000912,40.01016440931987&#10;c -32.64,46.644822324030066 0,107.92829985075427 56.4744247999088,107.92829985075427&#10;c 86.94087028456966,0 119.58087028456966,-20.265952559463884 86.94087028456966,-40.64780910586313&#10;c -32.64,-79.56 114.24,-48.96 185.05912971543034,-107.29065515421101 c 139.92623846112332,0.0 265.9005069018433,-30.6 227.8205069018433,36.318970501147284&#10;c -32.64,64.88201520650601 0,159.29788738651797 44.17949309815671,159.29788738651797&#10;c 78.28670976316312,0 110.92670976316312,-43.22018447905391 78.28670976316312,-204.3685674497481&#10;c -32.64,-79.56 114.24,-48.96 193.71329023683688,8.751709562082851 c 147.26324103297412,0.0 262.5864471793774,-30.6 224.50644717937737,31.26336874719159&#10;c -32.64,79.2322151601475 0,163.89456419397794 47.493552820622625,163.89456419397794&#10;c 75.59366023157588,0 108.23366023157588,-76.26603057477499 75.59366023157588,-82.29693769598563&#10;c -32.64,-79.56 114.24,-48.96 196.40633976842412,-112.86099524518389 L 3264 0 " fill="none" stroke="black" stroke-width="0.1" style="vector-effect:non-scaling-stroke;" /></g><g><path d="M 0 0  L 0 1224.000000  c 60.796147210673105,-0.0 251.57565287355,30.6 213.49565287355,-81.88394668984927&#10;c -32.64,-53.244695694361305 0,-95.79335624937224 58.50434712645,-95.79335624937224&#10;c 82.04720727879993,0 114.68720727879993,104.87743256116636 82.04720727879993,124.45054664756958&#10;c -32.64,79.56 114.24,48.96 189.95279272120007,53.226756291651924 c 101.16429021162175,0.0 261.9458429050482,-30.6 223.86584290504823,58.114620691561605&#10;c -32.64,117.500753364 0,139.7767447376468 48.134157094951775,139.7767447376468&#10;c 81.85550111380292,0 114.49550111380292,-35.700661823116675 81.85550111380292,-84.59145070461169&#10;c -32.64,-79.56 114.24,-48.96 190.14449888619708,-113.29991472459672 c 27.82209991960246,0.0 248.6625867541883,-30.6 210.5825867541883,-4.946838440891797&#10;c -32.64,159.71788994193113 0,196.75519545056295 61.4174132458117,196.75519545056295&#10;c 77.58831865783685,0 110.22831865783685,-88.98540255888258 77.58831865783685,-110.89428707859452&#10;c -32.64,-79.56 114.24,-48.96 194.41168134216315,-80.91406993107663 c 71.56561833534214,0.0 240.9981513526798,-30.6 202.91815135267979,18.160789907568017&#10;c -32.64,123.75487184501017 0,134.8063831340343 69.08184864732021,134.8063831340343&#10;c 48.95282668701486,0 81.59282668701486,-27.918328004883076 48.95282668701486,-71.86638941498252&#10;c -32.64,-79.56 114.24,-48.96 223.04717331298514,-81.10078362661979 c 65.29738990797608,-0.0 259.5980119858374,30.6 221.5180119858374,-58.37982183909189&#10;c -32.64,-55.00749928102893 0,-125.4555106581537 50.481988014162596,-125.4555106581537&#10;c 44.995698642481216,0 77.63569864248122,34.40439592537684 44.995698642481216,115.94761498437754&#10;c -32.64,79.56 114.24,48.96 227.00430135751878,67.88771751286805 c 139.3150633462418,0.0 238.93388163788754,-30.6 200.85388163788753,-3.8679242158033373&#10;c -32.64,78.09489308177152 0,171.87155228149055 71.14611836211247,171.87155228149055&#10;c 86.22945275800782,0 118.86945275800782,-32.119733404028295 86.22945275800782,-67.51106794603025&#10;c -32.64,-79.56 114.24,-48.96 185.77054724199218,-100.49256011965697 L 3264 0 " fill="none" stroke="black" stroke-width="0.1" style="vector-effect:non-scaling-stroke;" /></g></g></svg>