<svg baseProfile="full" height="2462" preserveAspectRatio="none" shape-rendering="geometricPrecision" version="1.1" viewBox="0,0,3670,2462" width="3670" xmlns="http://www.w3.org/2000/svg" xmlns:ev="http://www.w3.org/2001/xml-events" xmlns:xlink="http://www.w3.org/1999/xlink"><title>Jigsaw puzzle piece clips</title><desc>Created with the piecemaker. Piece count: 15</desc><defs/><g><g><rect fill="white" height="2462" width="3670" x="0" y="0"/></g></g><g><g><path d="M 0 0  L 734.000000 0  c -0.0,86.23757796126081 36.7,401.4124050693371 -53.19847899127156,343.96573840267047
c -120.26444560140712,-49.239999999999995 -124.25061002694518,0 -124.25061002694518,66.36759493066285
c 0,74.90795025994174 27.68189292940706,124.14795025994174 105.28166543087619,74.90795025994174
c 95.42,-49.239999999999995 58.72,172.33999999999997 72.16742358734055,335.4253830733916 c 0.0,235.773871534276 -36.7,352.27852530738915 55.429213841130895,294.8318586407225
c 85.98464053146385,-49.239999999999995 128.4013710548748,0 128.4013710548748,115.50147469261083
c 0,128.75459724960814 -110.59250308567906,177.99459724960815 -110.68555549584602,128.75459724960814
c -95.42,-49.239999999999995 -58.72,172.33999999999997 -73.14502940015967,281.5787360837252 c 0.0,130.10654364404266 -36.7,339.9263959793103 160.99629328679032,282.47972931264366
c 50.889008117705885,-49.239999999999995 59.758224655506154,0 59.758224655506154,127.85360402068966
c 0,79.57630375179298 -80.76451001093447,128.816303751793 -115.24895565516219,79.57630375179298
c -95.42,-49.239999999999995 -58.72,172.33999999999997 -105.50556228713428,330.75702958154034 L 0 2462 " fill="none" stroke="black" stroke-width="0.1" style="vector-effect:non-scaling-stroke;"/></g><g><path d="M 0 0  L 1468.000000 0  c 0.0,205.73502017940677 -36.7,379.70740338428647 134.50487870850966,322.2607367176198
c 95.55071779359626,-49.239999999999995 106.31690779341014,0 106.31690779341014,88.07259661571351
c 0,76.72376297990479 -63.514705042742555,125.96376297990479 -94.75086955448722,76.72376297990479
c -95.42,-49.239999999999995 -58.72,172.33999999999997 -146.07091694743258,333.6095703534285 c -0.0,69.49498711077496 36.7,393.7083817458977 -1.0069173507328903,336.26171507923107
c -158.68922434071686,-49.239999999999995 -177.96168402686976,0 -177.96168402686976,74.07161825410225
c 0,112.88416153669817 59.91850562100204,162.12416153669818 79.67023450694555,112.88416153669817
c 95.42,-49.239999999999995 58.72,172.33999999999997 99.2983668706571,297.44917179663514 c -0.0,103.30230774016684 36.7,342.2689436775658 -150.09539515719612,284.82227701089914
c -49.93019839818973,-49.239999999999995 -87.42284009927525,0 -87.42284009927525,125.51105632243417
c 0,69.35730719296185 110.63798895471778,118.59730719296185 248.95323588705716,69.35730719296185
c 95.42,-49.239999999999995 58.72,172.33999999999997 -11.43500063058579,340.97602614037146 L 0 2462 " fill="none" stroke="black" stroke-width="0.1" style="vector-effect:non-scaling-stroke;"/></g><g><path d="M 0 0  L 2202.000000 0  c -0.0,233.0946814812483 36.7,377.5554268315547 -14.622015629981325,320.10876016488805
c -66.7023319244525,-49.239999999999995 -187.39048416474282,0 -187.39048416474282,90.22457316844526
c 0,87.82724711683147 15.352731464971601,137.06724711683148 43.78654109532479,87.82724711683147
c 95.42,-49.239999999999995 58.72,172.33999999999997 158.22595869939934,322.50608621650184 c 0.0,158.04179392986518 -36.7,380.9406770411181 117.55061420370261,323.4940103744514
c 94.63713845311295,-49.239999999999995 114.0276797459969,0 114.0276797459969,86.8393229588819
c 0,103.5158452148682 -80.0669837445808,152.7558452148682 -91.81407613311646,103.5158452148682
c -95.42,-49.239999999999995 -58.72,172.33999999999997 -139.76421781658306,306.8174881184651 c -0.0,233.22520764370424 36.7,403.1731010356044 -45.70799704526463,345.72643436893776
c -134.50293241931277,-49.239999999999995 -171.32521991103275,0 -171.32521991103275,64.60689896439555
c 0,127.07273020706151 222.11817855784017,176.31273020706152 227.90258652123333,127.07273020706151
c 95.42,-49.239999999999995 58.72,172.33999999999997 -10.869369564935965,283.2606031262718 L 0 2462 " fill="none" stroke="black" stroke-width="0.1" style="vector-effect:non-scaling-stroke;"/></g><g><path d="M 0 0  L 2936.000000 0  c -0.0,188.99652464744477 36.7,392.9864220173123 -77.09066452675233,335.53975535064563
c -86.25565347720196,-49.239999999999995 -109.98689258783543,0 -109.98689258783543,74.79357798268768
c 0,75.95876755890288 36.698635565384464,125.19876755890287 75.6063161181535,75.95876755890288
c 95.42,-49.239999999999995 58.72,172.33999999999997 111.47124099643426,334.37456577443044 c -0.0,168.4462323428199 36.7,402.80801807199464 -52.446020362697745,345.361351405328
c -38.51517888968732,-49.239999999999995 -139.4588458293859,0 -139.4588458293859,64.97198192800533
c 0,130.8799129897323 74.69136286150639,180.1199129897323 153.2863160729343,130.8799129897323
c 95.42,-49.239999999999995 58.72,172.33999999999997 38.61855011914932,279.453420343601 c -0.0,42.71501039417324 36.7,396.59190724293904 -160.9033908618586,339.1452405762724
c -36.704413710765394,-49.239999999999995 -63.961970193871764,0 -63.961970193871764,71.18809275706093
c 0,100.03948064901022 107.39915103317288,149.27948064901022 181.2213385553789,100.03948064901022
c 95.42,-49.239999999999995 58.72,172.33999999999997 43.64402250035147,310.2938526843231 L 0 2462 " fill="none" stroke="black" stroke-width="0.1" style="vector-effect:non-scaling-stroke;"/></g></g><g><g><path d="M 0 0  L 0 820.666667  c 205.5125912600442,-0.0 314.9987243981094,41.03333333333333 263.6187243981094,-38.965037196467144
c -44.04,-192.97506780434483 0,-203.29824956181736 103.3812756018906,-203.29824956181736
c 64.35091275231139,0 108.39091275231138,128.816468927739 64.35091275231139,200.41313502997065
c -44.04,106.68666666666667 154.14,65.65333333333334 302.6490872476886,41.85015172831385 c 147.77628152628438,0.0 308.9039690508916,-41.03333333333333 257.5239690508916,120.79547919496912
c -44.04,18.630990600651007 0,79.04204096481422 109.4760309491084,79.04204096481422
c 72.5410524060091,0 116.58105240600909,-52.22053003931813 72.5410524060091,-82.12349030310959
c -44.04,-106.68666666666667 154.14,-65.65333333333334 294.4589475939909,-117.71402985667375 c 188.42998339670228,-0.0 364.48607008585327,41.03333333333333 313.1060700858533,-173.85722882299473
c -44.04,-42.83205318335035 0,-61.432710217692915 53.893929914146725,-61.432710217692915
c 101.61428861906506,0 145.65428861906506,117.59854881715803 101.61428861906506,194.6696160854593
c -44.04,106.68666666666667 154.14,65.65333333333334 265.38571138093494,40.620322955228346 c 134.61507053103801,-0.0 338.1104280195616,41.03333333333333 286.7304280195616,3.028302083094078
c -44.04,-46.13758584333041 0,-217.2402551619643 80.2695719804384,-217.2402551619643
c 100.9388650417315,0 144.9788650417315,56.18861610600361 100.9388650417315,185.89554948511523
c -44.04,106.68666666666667 154.14,65.65333333333334 266.0611349582685,28.316403593755012 c 84.19312710807083,0.0 337.8913504960516,-41.03333333333333 286.5113504960516,44.402026558985035
c -44.04,54.88431177649618 0,208.84761944047705 80.48864950394841,208.84761944047705
c 77.071803444902,0 121.111803444902,-41.17137761625354 77.071803444902,-120.14723862929549
c -44.04,-106.68666666666667 154.14,-65.65333333333334 289.928196555098,-133.1024073701666 L 3670 0 " fill="none" stroke="black" stroke-width="0.1" style="vector-effect:non-scaling-stroke;"/></g><g><path d="M 0 0  L 0 1641.333333  c 178.58342723758486,0.0 358.0086903642503,-41.03333333333333 306.6286903642503,12.446109785348002
c -44.04,74.04206461565715 0,229.39648260656259 60.3713096357497,229.39648260656259
c 76.79366003799356,0 120.83366003799355,-109.68745003048056 76.79366003799356,-122.68125514143982
c -44.04,-106.68666666666667 154.14,-65.65333333333334 290.20633996200644,-119.16133725047077 c 85.22209346615595,0.0 333.56668802482915,-41.03333333333333 282.18668802482915,150.91949363918897
c -44.04,67.72472181472142 0,108.04732812622908 84.81331197517085,108.04732812622908
c 81.06123647016273,0 125.10123647016272,-67.90026953145863 81.06123647016273,-234.39857333422077
c -44.04,-106.68666666666667 154.14,-65.65333333333334 285.9387635298373,-24.568248431197276 c 195.66223086102562,-0.0 364.6754072154424,41.03333333333333 313.2954072154424,-40.01733626739741
c -44.04,-46.12727264427232 0,-189.80193707645213 53.704592784557576,-189.80193707645213
c 99.04716783581483,0 143.08716783581482,80.4188206269235 99.04716783581483,121.24025137327367
c -44.04,106.68666666666667 154.14,65.65333333333334 267.95283216418517,108.57902197057588 c 134.48813665801993,-0.0 336.9462676894361,41.03333333333333 285.56626768943613,-120.497626260703
c -44.04,-137.08465488800258 0,-137.19280654394424 81.43373231056387,-137.19280654394424
c 60.32801051393653,0 104.36801051393653,76.93470677384394 60.32801051393653,133.80559677994106
c -44.04,106.68666666666667 154.14,65.65333333333334 306.67198948606347,123.88483602470617 c 204.58341133384258,-0.0 344.04516588898383,41.03333333333333 292.66516588898384,-129.68561525227838
c -44.04,-44.041925457609906 0,-105.09873920308715 74.33483411101616,-105.09873920308715
c 115.27701892262888,0 159.31701892262888,189.47247103406096 115.27701892262888,219.21915866891484
c -44.04,106.68666666666667 154.14,65.65333333333334 251.72298107737112,15.565195786450687 L 3670 0 " fill="none" stroke="black" stroke-width="0.1" style="vector-effect:non-scaling-stroke;"/></g></g></svg>