<svg baseProfile="full" height="1333" preserveAspectRatio="none" shape-rendering="geometricPrecision" version="1.1" viewBox="0,0,2000,1333" width="2000" xmlns="http://www.w3.org/2000/svg" xmlns:ev="http://www.w3.org/2001/xml-events" xmlns:xlink="http://www.w3.org/1999/xlink"><title>Jigsaw puzzle piece clips</title><desc>Created with the piecemaker. Piece count: 35</desc><defs/><g><g><rect fill="white" height="1333" width="2000" x="0" y="0"/></g></g><g><g><path d="M 0 0  L 285.714286 0  c -0.0,26.946116330491694 14.285714285714286,115.6755978716498 -50.25757794712849,97.0135978716498
c -26.455704941879173,-15.996 -29.299078680925852,0 -29.299078680925852,36.28640212835022
c 0,35.17344620244191 9.181516510925666,51.16944620244191 24.453587748083933,35.17344620244191
c 37.142857142857146,-15.996 22.857142857142858,55.986000000000004 55.10306887997041,98.1265537975581 c -0.0,30.67868790322801 14.285714285714286,130.45540254871864 -59.31376953125532,111.79340254871865
c -16.839331510682175,-15.996 -26.602510010955342,0 -26.602510010955342,21.506597451281365
c 0,41.78600871385515 46.174425846876055,57.782008713855156 78.33866452128225,41.78600871385515
c 37.142857142857146,-15.996 22.857142857142858,55.986000000000004 7.577615020928405,91.51399128614486 c 0.0,32.600060927689654 -14.285714285714286,118.48828226216743 41.87612398680271,99.82628226216742
c 14.841259638332113,-15.996 32.76687383706896,0 32.76687383706896,33.47371773783259
c 0,27.810483553167103 -58.49744323573254,43.806483553167105 -71.3088794481805,27.810483553167103
c -37.142857142857146,-15.996 -22.857142857142858,55.986000000000004 -3.334118375691162,105.48951644683291 c 0.0,64.95250685153198 -14.285714285714286,116.22152024244133 8.340703872882084,97.55952024244132
c 66.60979202437022,-15.996 73.39494250814737,0 73.39494250814737,35.74047975755869
c 0,37.45737228679616 -40.045571811178064,53.45337228679616 -48.40715098499624,37.45737228679616
c -37.142857142857146,-15.996 -22.857142857142858,55.986000000000004 -33.32849539603321,95.84262771320385 c 0.0,22.59571498718567 -14.285714285714286,124.04148913911055 45.63291148121659,105.37948913911055
c 26.136081417311846,-15.996 31.89144082435366,0 31.89144082435366,27.920510860889465
c 0,21.02458089332646 -19.67824763313559,37.02058089332646 -36.74727650439538,21.02458089332646
c -37.142857142857146,-15.996 -22.857142857142858,55.986000000000004 -40.77707580117487,112.27541910667355 L 0 1333 " fill="none" stroke="black" stroke-width="0.1" style="vector-effect:non-scaling-stroke;"/></g><g><path d="M 0 0  L 571.428571 0  c 0.0,46.85086268789201 -14.285714285714286,110.27096912236298 23.115461646867594,91.60896912236298
c 24.757755295063443,-15.996 67.94924145499863,0 67.94924145499863,41.69103087763703
c 0,25.735236717030062 -40.508944124603076,41.731236717030065 -49.444666089185674,25.735236717030062
c -37.142857142857146,-15.996 -22.857142857142858,55.986000000000004 -41.620037012680555,107.56476328296995 c 0.0,74.85803753872943 -14.285714285714286,122.78838883087035 27.96788272458972,104.12638883087034
c 40.3420689644968,-15.996 43.41898834975854,0 43.41898834975854,29.17361116912967
c 0,38.58124658099308 -41.54320572073418,54.577246580993084 -45.634421725834976,38.58124658099308
c -37.142857142857146,-15.996 -22.857142857142858,55.986000000000004 -25.752449348513288,94.71875341900693 c -0.0,24.903158664612963 14.285714285714286,123.00087897747365 -28.377595486860738,104.33887897747364
c -23.39472600717352,-15.996 -64.39194095726155,0 -64.39194095726155,28.96112102252637
c 0,23.59347590560384 64.42136003782683,39.58947590560384 66.22887854060978,23.59347590560384
c 37.142857142857146,-15.996 22.857142857142858,55.986000000000004 26.54065790351251,109.70652409439617 c -0.0,56.32368216687257 14.285714285714286,117.09957989652064 -0.7084867072149763,98.43757989652063
c -44.065412199940944,-15.996 -80.82225952728504,0 -80.82225952728504,34.86242010347938
c 0,35.95507903485105 13.079756483290309,51.951079034851055 22.86221504707877,35.95507903485105
c 37.142857142857146,-15.996 22.857142857142858,55.986000000000004 58.668531187421245,97.34492096514896 c -0.0,33.33525699544574 14.285714285714286,120.7653486692186 3.730307255924623,102.10334866921859
c -80.85894568251749,-15.996 -80.07848407093051,0 -80.07848407093051,31.19665133078142
c 0,41.40094931277278 51.408680114430744,57.39694931277278 53.76642964240412,41.40094931277278
c 37.142857142857146,-15.996 22.857142857142858,55.986000000000004 22.581747172601766,91.89905068722723 L 0 1333 " fill="none" stroke="black" stroke-width="0.1" style="vector-effect:non-scaling-stroke;"/></g><g><path d="M 0 0  L 857.142857 0  c 0.0,68.390485783866 -14.285714285714286,122.86222544822104 31.631123676519337,104.20022544822103
c 14.25004426489718,-15.996 42.00584132852792,0 42.00584132852792,29.099774551778978
c 0,26.51915204414931 -29.479055666990046,42.51515204414931 -31.48324356030225,26.51915204414931
c -37.142857142857146,-15.996 -22.857142857142858,55.986000000000004 -42.15372144474501,106.7808479558507 c -0.0,67.27427906605253 14.285714285714286,111.17031296718531 -28.92066436342188,92.5083129671853
c -28.469422945751866,-15.996 -52.880802039034066,0 -52.880802039034066,40.79168703281471
c 0,32.20492472994607 17.570336746311135,48.200924729946074 30.311575094133858,32.20492472994607
c 37.142857142857146,-15.996 22.857142857142858,55.986000000000004 51.489891308322086,101.09507527005394 c 0.0,75.11252195720604 -14.285714285714286,119.15080065362997 1.6232237619788918,100.48880065362997
c 53.75058693245872,-15.996 82.49028263932777,0 82.49028263932777,32.811199346370046
c 0,35.94488463951316 -66.13872969580976,51.940884639513165 -88.55250541353018,35.94488463951316
c -37.142857142857146,-15.996 -22.857142857142858,55.986000000000004 4.438999012223519,97.35511536048685 c -0.0,68.5060111595643 14.285714285714286,127.67845753462744 -15.243035167300873,109.01645753462743
c -57.98607998156946,-15.996 -64.6272765505089,0 -64.6272765505089,24.283542465372577
c 0,37.52450389903552 11.771275296076954,53.520503899035525 20.529776670961496,37.52450389903552
c 37.142857142857146,-15.996 22.857142857142858,55.986000000000004 59.340535046848274,95.77549610096449 c -0.0,56.15413396659524 14.285714285714286,120.22381915299947 -25.63348749964248,101.56181915299946
c -36.10212532643462,-15.996 -68.30817134262209,0 -68.30817134262209,31.73818084700055
c 0,32.64859202325343 24.66137788536472,48.64459202325343 36.69132877232996,32.64859202325343
c 37.142857142857146,-15.996 22.857142857142858,55.986000000000004 57.25033006993461,100.65140797674658 L 0 1333 " fill="none" stroke="black" stroke-width="0.1" style="vector-effect:non-scaling-stroke;"/></g><g><path d="M 0 0  L 1142.857143 0  c 0.0,46.51115008118085 -14.285714285714286,130.77857045701384 54.68382052510739,112.11657045701384
c 9.574606970264846,-15.996 14.62154331434148,0 14.62154331434148,21.183429542986175
c 0,31.274018509670384 -24.131501418789757,47.270018509670386 -37.87731916971637,31.274018509670384
c -37.142857142857146,-15.996 -22.857142857142858,55.986000000000004 -31.4280446697325,102.02598149032963 c 0.0,58.60002980560496 -14.285714285714286,121.435798266733 58.86988067913628,102.773798266733
c 24.839424684219022,-15.996 37.06935143600176,0 37.06935143600176,30.526201733267015
c 0,40.31733834849388 -46.95141548209189,56.31333834849388 -67.08068791026199,40.31733834849388
c -37.142857142857146,-15.996 -22.857142857142858,55.986000000000004 -28.858544204876054,92.98266165150613 c -0.0,76.37116885257416 14.285714285714286,109.94513892689865 -17.984961295204457,91.28313892689864
c -71.04513795736914,-15.996 -74.8047944827467,0 -74.8047944827467,42.01686107310137
c 0,18.80085865930812 29.317705487930304,34.79685865930812 54.1212161513413,18.80085865930812
c 37.142857142857146,-15.996 22.857142857142858,55.986000000000004 38.668539626609856,114.49914134069189 c -0.0,71.94717094364364 14.285714285714286,120.4218177102142 -9.064798930369168,101.7598177102142
c -46.57925152665342,-15.996 -59.647150896784254,0 -59.647150896784254,31.540182289785818
c 0,40.95665243176717 30.453597909437793,56.95265243176717 69.99792438353262,40.95665243176717
c 37.142857142857146,-15.996 22.857142857142858,55.986000000000004 -1.2859745563792018,92.34334756823284 c -0.0,31.648188162825356 14.285714285714286,113.45067174027216 -10.902789074369242,94.78867174027215
c -48.629144030991725,-15.996 -83.37764459944744,0 -83.37764459944744,38.51132825972786
c 0,41.149122374017395 33.285898606783455,57.1451223740174 61.123255885823674,41.149122374017395
c 37.142857142857146,-15.996 22.857142857142858,55.986000000000004 33.157177787993,92.15087762598262 L 0 1333 " fill="none" stroke="black" stroke-width="0.1" style="vector-effect:non-scaling-stroke;"/></g><g><path d="M 0 0  L 1428.571429 0  c -0.0,31.484353426861578 14.285714285714286,112.89297312342347 -48.36133450823826,94.23097312342347
c -36.88116366311403,-15.996 -47.00054199749896,0 -47.00054199749896,39.069026876576544
c 0,28.129077099510624 69.17571485720165,44.12507709951063 70.71498841882418,28.129077099510624
c 37.142857142857146,-15.996 22.857142857142858,55.986000000000004 24.646888086913037,105.17092290048939 c -0.0,48.883612621905016 14.285714285714286,123.08787762440707 -25.46446170710065,104.42587762440706
c -35.97656344471335,-15.996 -50.615023752821884,0 -50.615023752821884,28.874122375592947
c 0,28.09392417073076 42.490977110559,44.08992417073076 46.441413649084055,28.09392417073076
c 37.142857142857146,-15.996 22.857142857142858,55.986000000000004 29.638071810838483,105.20607582926925 c 0.0,31.899133569390525 -14.285714285714286,117.88200041023896 25.87172504838873,99.22000041023895
c 27.605511761728955,-15.996 55.02546734609382,0 55.02546734609382,34.07999958976106
c 0,33.0853006368894 -19.70650943727755,49.0813006368894 -41.63466637493422,33.0853006368894
c -37.142857142857146,-15.996 -22.857142857142858,55.986000000000004 -39.262526019548325,100.21469936311061 c 0.0,39.82242201279649 -14.285714285714286,121.28679935127415 48.39710965372815,102.62479935127415
c 34.29197263568926,-15.996 44.27985041886981,0 44.27985041886981,30.675200648725863
c 0,20.57293861583605 -69.43993300422142,36.56893861583605 -69.47764354957124,20.57293861583605
c -37.142857142857146,-15.996 -22.857142857142858,55.986000000000004 -23.199316523026724,112.72706138416396 c -0.0,25.38246532420975 14.285714285714286,128.52634438009395 -43.93085954333653,109.86434438009395
c -33.97625054660165,-15.996 -45.864586653337305,0 -45.864586653337305,23.435655619906058
c 0,31.07918459517768 87.60071218149513,47.07518459517768 90.66771879935766,31.07918459517768
c 37.142857142857146,-15.996 22.857142857142858,55.986000000000004 -0.8722726026838217,102.22081540482233 L 0 1333 " fill="none" stroke="black" stroke-width="0.1" style="vector-effect:non-scaling-stroke;"/></g><g><path d="M 0 0  L 1714.285714 0  c 0.0,74.99631534765108 -14.285714285714286,130.35242826202605 34.72421601690282,111.69042826202605
c 19.859924320478868,-15.996 49.124837318006094,0 49.124837318006094,21.609571737973965
c 0,36.285814685554755 -28.2026880944449,52.28181468555476 -37.66600103312043,36.285814685554755
c -37.142857142857146,-15.996 -22.857142857142858,55.986000000000004 -46.183052301788486,97.01418531444526 c -0.0,48.34877313616163 14.285714285714286,125.50716727851848 -13.925242863310594,106.84516727851847
c -34.73443902665556,-15.996 -78.94562499980253,0 -78.94562499980253,26.454832721481537
c 0,19.98617961123051 27.469720369003017,35.982179611230514 42.93042641422625,19.98617961123051
c 37.142857142857146,-15.996 22.857142857142858,55.986000000000004 49.94044144888687,113.3138203887695 c 0.0,33.2658562560649 -14.285714285714286,129.98433955736473 2.6857889162564463,111.32233955736473
c 39.221187850825764,-15.996 71.11744230199191,0 71.11744230199191,21.977660442635283
c 0,26.469019051713985 -54.65574112843554,42.46501905171399 -68.27782851585903,26.469019051713985
c -37.142857142857146,-15.996 -22.857142857142858,55.986000000000004 -5.525402702389329,106.83098094828603 c 0.0,62.30594554163681 -14.285714285714286,115.8659502212617 48.01158307340567,97.20395022126169
c 23.537284558574466,-15.996 37.64058081274711,0 37.64058081274711,36.09604977873832
c 0,24.09316998108318 -27.836310741284993,40.08916998108318 -53.98631961689306,24.09316998108318
c -37.142857142857146,-15.996 -22.857142857142858,55.986000000000004 -31.665844269259715,109.20683001891683 c -0.0,37.17629966837334 14.285714285714286,119.50941327780629 -50.22175171361445,100.84741327780628
c -37.13853586015433,-15.996 -40.8072562771965,0 -40.8072562771965,32.45258672219373
c 0,28.40594853530982 23.26094034671232,44.40194853530982 67.33995399407246,28.40594853530982
c 37.142857142857146,-15.996 22.857142857142858,55.986000000000004 23.689053996738494,104.8940514646902 L 0 1333 " fill="none" stroke="black" stroke-width="0.1" style="vector-effect:non-scaling-stroke;"/></g></g><g><g><path d="M 0 0  L 0 266.600000  c 65.77222647707187,-0.0 138.26802901485016,13.330000000000002 118.26802901485016,-10.265692640271373
c -17.142857142857142,-26.020598943872137 0,-67.0244640910612 24.589113842292704,-67.0244640910612
c 42.041753649257515,0 59.184610792114654,54.484993290514296 42.041753649257515,67.07192469520497
c -17.142857142857142,34.658 60.0,21.328000000000003 100.81538920788535,10.218232036127603 c 64.14126342123032,0.0 138.1208798180552,-13.330000000000002 118.12087981805517,8.385394409928107
c -17.142857142857142,18.0329937257994 0,57.10619944208888 24.73626303908769,57.10619944208888
c 30.592661813136147,0 47.735518955993285,-13.999516436134604 30.592661813136147,-23.255664824731568
c -17.142857142857142,-34.658 60.0,-21.328000000000003 112.26448104400671,-42.23592902728542 c 23.82733417564986,-0.0 138.48379624106292,13.330000000000002 118.48379624106292,3.442283549542129
c -17.142857142857142,-34.177856067505765 0,-73.70362196977969 24.373346616079942,-73.70362196977969
c 27.99979154325419,0 45.14264868611133,30.68364832399074 27.99979154325419,68.35680236492489
c -17.142857142857142,34.658 60.0,21.328000000000003 114.85735131388867,1.9045360553126756 c 27.513485195678662,0.0 138.49812972226246,-13.330000000000002 118.49812972226245,19.572929028519688
c -17.142857142857142,41.89594170913755 0,60.85825227928486 24.359013134880414,60.85825227928486
c 23.830509452098283,0 40.97336659495542,-11.854887200128061 23.830509452098283,-33.81773229323435
c -17.142857142857142,-34.658 60.0,-21.328000000000003 119.02663340504458,-46.6134490145702 c 62.096287390705754,0.0 133.05359466841796,-13.330000000000002 113.05359466841796,16.703495854972314
c -17.142857142857142,41.377651249836376 0,59.05965076262065 29.803548188724903,59.05965076262065
c 31.625918701061522,0 48.76877584391866,-62.423327950928105 31.625918701061522,-70.63545099619112
c -17.142857142857142,-34.658 60.0,-21.328000000000003 111.23122415608134,-5.127695621401841 c 36.26737373929832,-0.0 141.026571586377,13.330000000000002 121.026571586377,-39.56232487491762
c -17.142857142857142,-35.75546733483405 0,-39.436466643685705 21.83057127076586,-39.436466643685705
c 20.467168867141908,0 37.610026009999046,52.42689860541682 20.467168867141908,81.18193483908634
c -17.142857142857142,34.658 60.0,21.328000000000003 122.38997399000095,-2.183143320483012 c 51.95710997074527,-0.0 130.92018176196004,13.330000000000002 110.92018176196004,-44.97850199699857
c -17.142857142857142,-13.134268874417904 0,-34.47525611289442 31.936961095182824,-34.47525611289442
c 23.87603939439319,0 41.01889653725033,26.543668352375118 23.87603939439319,35.169725707146036
c -17.142857142857142,34.658 60.0,21.328000000000003 118.98110346274967,44.28403240274695 L 2000 0 " fill="none" stroke="black" stroke-width="0.1" style="vector-effect:non-scaling-stroke;"/></g><g><path d="M 0 0  L 0 533.200000  c 26.233687188152366,-0.0 120.47435308999967,13.330000000000002 100.47435308999967,-24.49899049142394
c -17.142857142857142,-22.98991862578136 0,-42.26816855869136 42.382789767143194,-42.26816855869136
c 28.63996504319664,0 45.78282218605378,14.655094086649536 28.63996504319664,21.925181509904753
c -17.142857142857142,34.658 60.0,21.328000000000003 114.21717781394622,44.84197754021054 c 51.518810178436944,-0.0 129.2734623175012,13.330000000000002 109.27346231750121,0.38893757514080807
c -17.142857142857142,-59.58543616313785 0,-71.77974392018957 33.58368053964165,-71.77974392018957
c 21.499863636350597,0 38.642720779207735,34.09922123925855 21.499863636350597,67.25472621247278
c -17.142857142857142,34.658 60.0,21.328000000000003 121.35727922079226,4.136080132575998 c 26.987425178910573,0.0 142.7314116475478,-13.330000000000002 122.73141164754777,22.583660834348436
c -17.142857142857142,54.83502150467161 0,56.99571207383788 20.125731209595088,56.99571207383788
c 40.555331366817484,0 57.69818850967462,-53.6924186084308 40.555331366817484,-60.29221954415099
c -17.142857142857142,-34.658 60.0,-21.328000000000003 102.30181149032538,-19.287153364035326 c 50.024803850565135,0.0 139.8538604699896,-13.330000000000002 119.85386046998958,53.089695738094264
c -17.142857142857142,9.578350391642335 0,23.5176752447057 23.003282387153277,23.5176752447057
c 31.764597797199087,0 48.907454940056226,-14.192606021768217 31.764597797199087,-44.39900461317187
c -17.142857142857142,-34.658 60.0,-21.328000000000003 111.09254505994377,-32.208366369628095 c 46.5629246648269,-0.0 120.29075028234014,13.330000000000002 100.29075028234014,-49.09927566115524
c -17.142857142857142,-10.07755383642491 0,-26.073196154145357 42.56639257480272,-26.073196154145357
c 21.983564512211984,0 39.12642165506912,34.45330562461302 21.983564512211984,60.29053308385916
c -17.142857142857142,34.658 60.0,21.328000000000003 120.87357834493088,14.881938731441437 c 51.230561573106286,-0.0 135.85997415281034,13.330000000000002 115.85997415281032,-6.772164041508244
c -17.142857142857142,-24.895431100619696 0,-58.01614971623367 26.997168704332537,-58.01614971623367
c 25.025076714192636,0 42.167933857049775,10.23704916826016 25.025076714192636,34.130277807124685
c -17.142857142857142,34.658 60.0,21.328000000000003 117.83206614295023,30.658035950617233 c 38.74669539766822,0.0 121.4192033026,-13.330000000000002 101.4192033026,29.121564004624446
c -17.142857142857142,19.470585900282185 0,44.77504478766558 41.437939554542865,44.77504478766558
c 41.87255974139353,0 59.01541688425067,-12.348499691247747 41.87255974139353,-40.626287431577076
c -17.142857142857142,-34.658 60.0,-21.328000000000003 100.98458311574933,-33.27032136071295 L 2000 0 " fill="none" stroke="black" stroke-width="0.1" style="vector-effect:non-scaling-stroke;"/></g><g><path d="M 0 0  L 0 799.800000  c 43.139801887626945,0.0 126.38263974893074,-13.330000000000002 106.38263974893074,-2.9954448596944183
c -17.142857142857142,56.66417110140328 0,74.4162897208942 36.47450310821212,74.4162897208942
c 28.537633491186483,0 45.68049063404362,-40.43017665393721 28.537633491186483,-68.37937495621188
c -17.142857142857142,-34.658 60.0,-21.328000000000003 114.31950936595638,-3.041469904987906 c 28.551976731484938,0.0 133.58311117352238,-13.330000000000002 113.58311117352237,5.82329822983398
c -17.142857142857142,45.493235936367114 0,59.498650786301084 29.274031683620493,59.498650786301084
c 20.274423827630216,0 37.417280970487354,-7.887218922151067 20.274423827630216,-16.337304770884472
c -17.142857142857142,-34.658 60.0,-21.328000000000003 122.58271902951265,-48.98464424525059 c 52.00840829282925,0.0 129.56739896587686,-13.330000000000002 109.56739896587686,34.222840511047075
c -17.142857142857142,10.86511545830418 0,33.572576041857396 33.289743891266,33.572576041857396
c 33.258151584592895,0 50.401008727450034,-18.39793230452081 33.258151584592895,-28.834458758660553
c -17.142857142857142,-34.658 60.0,-21.328000000000003 109.59899127254997,-38.96095779424392 c 61.91224438626261,-0.0 140.44999461363804,13.330000000000002 120.44999461363804,-19.199539235378275
c -17.142857142857142,-53.36866863902962 0,-60.58965485219861 22.40714824350482,-60.58965485219861
c 35.527742995660105,0 52.670600138517244,16.80960266191388 35.527742995660105,30.42475551529693
c -17.142857142857142,34.658 60.0,21.328000000000003 107.32939986148276,49.36443857227996 c 60.831480854862626,0.0 134.40554616504306,-13.330000000000002 114.40554616504305,29.206168261367587
c -17.142857142857142,32.86340706980679 0,40.05267522076439 28.451596692099812,40.05267522076439
c 20.16458382386375,0 37.30744096672089,-47.42563400097098 20.16458382386375,-52.64341398399953
c -17.142857142857142,-34.658 60.0,-21.328000000000003 122.69255903327911,-16.61542949813245 c 45.062295156349535,0.0 119.66663808632303,-13.330000000000002 99.66663808632303,6.9215939977374035
c -17.142857142857142,24.64164147144675 0,83.42157705257034 43.19050477081983,83.42157705257034
c 40.64509261020734,0 57.78794975306448,-80.99924138516212 40.64509261020734,-83.22369479340476
c -17.142857142857142,-34.658 60.0,-21.328000000000003 102.21205024693552,-7.119476256902985 c 70.15695140500658,0.0 123.16475824475103,-13.330000000000002 103.16475824475103,34.971793327077236
c -17.142857142857142,26.093248970099314 0,39.56459287553412 39.692384612391834,39.56459287553412
c 21.597563096639163,0 38.7404202394963,-74.08970464602336 21.597563096639163,-78.22041938811857
c -17.142857142857142,-34.658 60.0,-21.328000000000003 121.2595797605037,3.684033185507218 L 2000 0 " fill="none" stroke="black" stroke-width="0.1" style="vector-effect:non-scaling-stroke;"/></g><g><path d="M 0 0  L 0 1066.400000  c 66.42818859442198,-0.0 131.84324257297828,13.330000000000002 111.84324257297828,-30.105804710537786
c -17.142857142857142,-55.743241786778256 0,-55.968326767194114 31.013900284164578,-55.968326767194114
c 33.110155067031,0 50.25301220988814,30.21606816282814 33.110155067031,88.66572510620338
c -17.142857142857142,34.658 60.0,21.328000000000003 109.74698779011186,-2.591593628471486 c 82.78139822634239,0.0 126.43381526684918,-13.330000000000002 106.43381526684918,27.734023973297266
c -17.142857142857142,13.564947583209074 0,54.37800780325779 36.42332759029368,54.37800780325779
c 24.50813527002944,0 41.65099241288658,-55.10090982221983 24.50813527002944,-60.42127419819917
c -17.142857142857142,-34.658 60.0,-21.328000000000003 118.34900758711342,-21.690757578355885 c 17.227419584955744,0.0 139.35463505470904,-13.330000000000002 119.35463505470904,28.101677521056246
c -17.142857142857142,12.744029912026106 0,51.322095928467604 23.502507802433826,51.322095928467604
c 25.309645996355158,0 42.4525031392123,-11.46075358947346 25.309645996355158,-21.586289852857213
c -17.142857142857142,-34.658 60.0,-21.328000000000003 117.5474968607877,-57.83748359666664 c 28.858851166451615,-0.0 121.12513499634319,13.330000000000002 101.12513499634319,-27.15014861091215
c -17.142857142857142,-16.812813061149882 0,-63.09178864522592 41.73200786079967,-63.09178864522592
c 24.71330928588742,0 41.85616642874456,65.48906837660036 24.71330928588742,77.02834218389611
c -17.142857142857142,34.658 60.0,21.328000000000003 118.14383357125544,13.213595072241958 c 20.559115574491678,-0.0 131.49240251175632,13.330000000000002 111.49240251175631,-38.072446316524726
c -17.142857142857142,-25.583227046350654 0,-52.1254982128057 31.36474034538655,-52.1254982128057
c 42.835872182792855,0 59.978729325649994,15.416537248066524 42.835872182792855,42.48645240015961
c -17.142857142857142,34.658 60.0,21.328000000000003 100.02127067435,47.71149212917082 c 58.85943401517667,-0.0 140.17881673241303,13.330000000000002 120.17881673241303,-12.92083529848156
c -17.142857142857142,-24.524399997341128 0,-64.6241590723047 22.678326124729836,-64.6241590723047
c 39.792829305668306,0 56.935686448525445,53.09446239479059 39.792829305668306,69.35446231536177
c -17.142857142857142,34.658 60.0,21.328000000000003 103.06431355147456,8.190532055424498 c 38.377925759998476,-0.0 132.5411781141542,13.330000000000002 112.5411781141542,-54.23979149389862
c -17.142857142857142,-4.678435515480423 0,-12.583294327197038 30.315964742988655,-12.583294327197038
c 38.034423012345826,0 55.177280155202965,8.823146386851185 38.034423012345826,21.89168725680416
c -17.142857142857142,34.658 60.0,21.328000000000003 104.82271984479704,44.9313985642915 L 2000 0 " fill="none" stroke="black" stroke-width="0.1" style="vector-effect:non-scaling-stroke;"/></g></g></svg>