<svg baseProfile="full" height="3333" preserveAspectRatio="none" shape-rendering="geometricPrecision" version="1.1" viewBox="0,0,5000,3333" width="5000" xmlns="http://www.w3.org/2000/svg" xmlns:ev="http://www.w3.org/2001/xml-events" xmlns:xlink="http://www.w3.org/1999/xlink"><title>Jigsaw puzzle piece clips</title><desc>Created with the piecemaker. Piece count: 15</desc><defs/><g><g><rect fill="white" height="3333" width="5000" x="0" y="0"/></g></g><g><g><path d="M 0 0  L 1000.000000 0  c -0.0,231.98919076950625 50.0,530.4136671137946 -14.016673013189378,452.6436671137946
c -100.51435272889609,-66.66 -227.36560465452743,0 -227.36560465452743,102.8563328862054
c 0,155.21934360623322 133.38497859100136,221.87934360623322 167.91537416323158,155.21934360623322
c 130.0,-66.66 80.0,233.31 73.46690350448523,400.2806563937668 c 0.0,226.93940277508392 -50.0,464.2423099135698 167.32755046610617,386.4723099135698
c 116.91027303034562,-66.66 129.21691437104226,0 129.21691437104226,169.0276900864302
c 0,163.1738663227594 -26.996869646157286,229.8338663227594 -86.85734923239818,163.1738663227594
c -130.0,-66.66 -80.0,233.31 -209.68711560475026,392.3261336772406 c -0.0,256.8928116807604 50.0,512.4058398857655 -20.11939054300484,434.63583988576556
c -74.51952080760937,-66.66 -239.21054426320114,0 -239.21054426320114,120.86416011423444
c 0,92.12175160734091 51.84105990396721,158.7817516073409 60.956052495378174,92.12175160734091
c 130.0,-66.66 80.0,233.31 198.3738823108278,463.3782483926591 L 0 3333 " fill="none" stroke="black" stroke-width="0.1" style="vector-effect:non-scaling-stroke;"/></g><g><path d="M 0 0  L 2000.000000 0  c 0.0,176.51640297759326 -50.0,475.0829605140806 149.00057171990642,397.3129605140806
c 123.4146908940941,-66.66 132.02326910757125,0 132.02326910757125,158.1870394859194
c 0,106.84453799790253 -214.36586088118187,173.50453799790253 -259.2471931448387,106.84453799790253
c -130.0,-66.66 -80.0,233.31 -21.776647682638952,448.65546200209747 c -0.0,132.5218220036441 50.0,463.53631333079215 0.5353131437553851,385.7663133307922
c -186.63749884537884,-66.66 -250.31017655761173,0 -250.31017655761173,169.73368666920783
c 0,133.84220898932904 94.23089237165429,200.50220898932903 200.470976059635,133.84220898932904
c 130.0,-66.66 80.0,233.31 49.30388735422133,421.65779101067096 c -0.0,239.08073672936703 50.0,520.3089825202162 -140.2587869953461,442.53898252021617
c -123.89709463473571,-66.66 -136.2466454771291,0 -136.2466454771291,112.96101747978383
c 0,126.38915555004075 34.597972177955405,193.04915555004075 80.42922640887937,126.38915555004075
c 130.0,-66.66 80.0,233.31 196.07620606359583,429.11084444995925 L 0 3333 " fill="none" stroke="black" stroke-width="0.1" style="vector-effect:non-scaling-stroke;"/></g><g><path d="M 0 0  L 3000.000000 0  c -0.0,180.0636400468357 50.0,461.21429255722603 -161.55820787262616,383.444292557226
c -166.12233150167222,-66.66 -177.6824288715319,0 -177.6824288715319,172.055707442774
c 0,77.81507001065518 305.36887454879025,144.47507001065517 319.48345121149947,77.81507001065518
c 130.0,-66.66 80.0,233.31 19.757185532658582,477.6849299893448 c 0.0,159.79881620553124 -50.0,535.1688354043756 69.6636221696312,457.3988354043756
c 60.08166257022862,-66.66 186.52646817272984,0 186.52646817272984,98.10116459562443
c 0,165.95538860248644 -65.29330805116112,232.61538860248643 -220.9931803303339,165.95538860248644
c -130.0,-66.66 -80.0,233.31 -35.19691001202713,389.54461139751356 c -0.0,254.70443590077167 50.0,516.5569137081773 -147.59046042476774,438.7869137081772
c -62.062598394758226,-66.66 -122.67365109364255,0 -122.67365109364255,116.71308629182278
c 0,127.74481879505038 217.80011004793556,194.40481879505037 240.05908712134007,127.74481879505038
c 130.0,-66.66 80.0,233.31 30.20502439707022,427.7551812049496 L 0 3333 " fill="none" stroke="black" stroke-width="0.1" style="vector-effect:non-scaling-stroke;"/></g><g><path d="M 0 0  L 4000.000000 0  c 0.0,178.37162877296558 -50.0,471.468903194757 -10.017575628323527,393.698903194757
c 159.3363712799889,-66.66 278.8127869102548,0 278.8127869102548,161.801096805243
c 0,159.00224388906804 -217.8054003136028,225.66224388906804 -250.11240154309127,159.00224388906804
c -130.0,-66.66 -80.0,233.31 -18.68280973883998,396.49775611093196 c -0.0,194.3971640621506 50.0,489.1134175796532 -9.281165837397687,411.34341757965313
c -232.50226020218116,-66.66 -242.81867065640844,0 -242.81867065640844,144.15658242034687
c 0,102.59481930263826 113.00103483292133,169.25481930263825 234.72262210849885,102.59481930263826
c 130.0,-66.66 80.0,233.31 17.37721438530727,452.90518069736174 c -0.0,207.0700211240025 50.0,554.0848467651529 -181.5721153450075,476.3148467651529
c -97.08029781559559,-66.66 -125.12900468722444,0 -125.12900468722444,79.18515323484712
c 0,146.87715667245595 98.61002522648474,213.53715667245595 150.37620854853947,146.87715667245595
c 130.0,-66.66 80.0,233.31 156.32491148369246,408.62284332754405 L 0 3333 " fill="none" stroke="black" stroke-width="0.1" style="vector-effect:non-scaling-stroke;"/></g></g><g><g><path d="M 0 0  L 0 1111.000000  c 70.00612320222365,0.0 454.2637169975618,-55.550000000000004 384.2637169975618,177.12373330771638
c -60.0,27.62885562584889 0,118.39811725163852 115.7362830024382,118.39811725163852
c 137.0665381369996,0 197.0665381369996,-155.10797703635166 137.0665381369996,-185.59224483049042
c -60.0,-144.43 210.0,-88.88 362.9334618630004,-109.92960572886449 c 155.27871118892944,-0.0 467.50791577385723,55.550000000000004 397.50791577385723,-214.64716132627373
c -60.0,-101.76444896599747 0,-143.69266995502213 102.49208422614277,-143.69266995502213
c 82.22649593699589,0 142.2264959369959,62.72733349935819 82.22649593699589,222.9209745592738
c -60.0,144.43 210.0,88.88 417.7735040630041,135.41885672202207 c 79.27864063530589,-0.0 486.074329452362,55.550000000000004 416.074329452362,-91.24310500124095
c -60.0,-65.66913280808154 0,-254.93167206919685 83.92567054763799,-254.93167206919685
c 123.57326774054593,0 183.57326774054593,195.22597093683964 123.57326774054593,253.5040078586208
c -60.0,144.43 210.0,88.88 376.42673225945407,92.670769211817 c 205.309921473809,-0.0 418.9874556494729,55.550000000000004 348.9874556494729,-67.58900541190825
c -60.0,-240.1774692090784 0,-287.9119302098936 151.0125443505271,-287.9119302098936
c 119.3322546201124,0 179.3322546201124,366.7645150527816 119.3322546201124,372.2069200299878
c -60.0,144.43 210.0,88.88 380.6677453798876,-16.70598440818594 c 157.70298430966605,0.0 413.5779382710754,-55.550000000000004 343.5779382710754,113.92942896499554
c -60.0,129.31168948952384 0,232.79216688044622 156.42206172892458,232.79216688044622
c 86.88276379046022,0 146.88276379046022,-122.04653917709228 86.88276379046022,-335.6703678045667
c -60.0,-144.43 210.0,-88.88 413.1172362095398,-11.05122804087506 L 5000 0 " fill="none" stroke="black" stroke-width="0.1" style="vector-effect:non-scaling-stroke;"/></g><g><path d="M 0 0  L 0 2222.000000  c 135.96001227846074,0.0 435.74121822688244,-55.550000000000004 365.74121822688244,31.275555382036302
c -60.0,181.38730441999405 0,260.94338620753837 134.25878177311756,260.94338620753837
c 96.76173609281523,0 156.76173609281523,-95.71013100242126 96.76173609281523,-226.92269332216839
c -60.0,-144.43 210.0,-88.88 403.2382639071848,-65.2962482674063 c 89.47195669438504,-0.0 410.81974725035917,55.550000000000004 340.81974725035917,-41.425578849351446
c -60.0,-55.58065006742127 0,-264.4392643477788 159.18025274964083,-264.4392643477788
c 95.01031710628388,0 155.01031710628388,113.27384522159937 95.01031710628388,238.4563502436519
c -60.0,144.43 210.0,88.88 404.9896828937161,67.40849295347834 c 280.0895627133937,0.0 455.3920638177482,-55.550000000000004 385.3920638177482,157.21381494734882
c -60.0,54.857137609751135 0,124.39510592252842 114.60793618225182,124.39510592252842
c 92.77822344768572,0 152.77822344768572,-26.024383998886375 92.77822344768572,-50.810101402670256
c -60.0,-144.43 210.0,-88.88 407.2217765523143,-230.79881946720698 c 152.27429150599875,0.0 476.9761184086035,-55.550000000000004 406.9761184086035,13.457885292081318
c -60.0,98.7256252603944 0,350.406306576616 93.0238815913965,350.406306576616
c 99.20891921735313,0 159.20891921735313,-254.22875737499572 99.20891921735313,-260.6208507228347
c -60.0,-144.43 210.0,-88.88 400.7910807826469,-103.24334114586259 c 50.44943960528077,0.0 475.84991809812317,-55.550000000000004 405.84991809812317,167.76280815547435
c -60.0,106.31028178216957 0,180.2659802157207 94.15008190187683,180.2659802157207
c 117.15570727774559,0 177.1557072777456,-71.36805510351064 117.15570727774559,-279.40445283903836
c -60.0,-144.43 210.0,-88.88 382.8442927222544,-68.62433553215669 L 5000 0 " fill="none" stroke="black" stroke-width="0.1" style="vector-effect:non-scaling-stroke;"/></g></g></svg>