<svg baseProfile="full" height="2048" preserveAspectRatio="none" shape-rendering="geometricPrecision" version="1.1" viewBox="0,0,2048,2048" width="2048" xmlns="http://www.w3.org/2000/svg" xmlns:ev="http://www.w3.org/2001/xml-events" xmlns:xlink="http://www.w3.org/1999/xlink"><title>Jigsaw puzzle piece clips</title><desc>Created with the piecemaker. Piece count: 49</desc><defs /><g><g><rect fill="white" height="2048" width="2048" x="0" y="0" /></g></g><g><g><path d="M 0 0  L 292.571429 0  c 0.0,81.7714043156601 -14.628571428571428,135.86732670117038 16.02480761750452,115.3873267011704&#10;c 62.856159639358886,-17.55428571428571 63.068227848897095,0 63.068227848897095,30.898387584543883&#10;c 0,27.8698416213943 -53.01528458523858,45.42412733568001 -83.63400582749605,27.8698416213943&#10;c -38.034285714285716,-17.55428571428571 -23.405714285714286,61.44 4.540970361094438,118.41587266431998 c 0.0,51.84861466527104 -14.628571428571428,130.597174850866 4.1149332484766425,110.117174850866&#10;c 64.76074657959364,-17.55428571428571 84.42026559791692,0 84.42026559791692,36.168539434848284&#10;c 0,21.216802362569894 -34.43848778552314,38.771088076855605 -81.66979352543996,21.216802362569894&#10;c -38.034285714285716,-17.55428571428571 -23.405714285714286,61.44 -6.865405320953613,125.06891192314438 c -0.0,33.07403180889884 14.628571428571428,142.22867380860026 -32.32980355836869,121.74867380860027&#10;c -47.1435889390454,-17.55428571428571 -65.07734032822532,0 -65.07734032822532,24.537040477114004&#10;c 0,37.07291846449081 68.38197853989196,54.62720417877652 79.49561456261867,37.07291846449081&#10;c 38.034285714285716,-17.55428571428571 23.405714285714286,61.44 17.911529323975344,109.21279582122347 c 0.0,78.5946636085078 -14.628571428571428,142.68362406206438 24.02242303172286,122.20362406206438&#10;c 48.19114940866026,-17.55428571428571 48.555348356245354,0 48.555348356245354,24.0820902236499&#10;c 0,30.51384594391274 -12.85384866891009,48.06813165819845 -13.546678336985423,30.51384594391274&#10;c -38.034285714285716,-17.55428571428571 -23.405714285714286,61.44 -59.03109305098279,115.77186834180154 c -0.0,70.05156942927138 14.628571428571428,144.9381722668101 -18.315243345778466,124.45817226681011&#10;c -21.286416963716707,-17.55428571428571 -51.965025902915,0 -51.965025902915,21.82754201890417&#10;c 0,26.186630450874645 57.35346285234795,43.74091616516036 71.43069563608671,26.186630450874645&#10;c 38.034285714285716,-17.55428571428571 23.405714285714286,61.44 -1.1504263873932388,120.09908383483963 c -0.0,54.6958181554716 14.628571428571428,120.70626523324744 -20.234362181135797,100.22626523324743&#10;c -58.02629962294719,-17.55428571428571 -72.62553717915983,0 -72.62553717915983,46.059449052466846&#10;c 0,29.15159201717171 31.374089117626127,46.70587773145742 33.44094779190951,29.15159201717171&#10;c 38.034285714285716,-17.55428571428571 23.405714285714286,61.44 59.41895156838612,117.13412226854257 c -0.0,51.031946896972194 14.628571428571428,132.23909753307734 -16.445320745777934,111.75909753307735&#10;c -73.48512597701378,-17.55428571428571 -78.15591462871164,0 -78.15591462871164,34.526616752636926&#10;c 0,39.734840093477146 45.923087597063805,57.28912580776286 48.26010393795847,39.734840093477146&#10;c 38.034285714285716,-17.55428571428571 23.405714285714286,61.44 46.34113143653111,106.55087419223713 L 0 2048 " fill="none" stroke="black" stroke-width="0.1" style="vector-effect:non-scaling-stroke;" /></g><g><path d="M 0 0  L 585.142857 0  c 0.0,30.990309979766938 -14.628571428571428,144.6272552074763 11.186751941019095,124.14725520747632&#10;c 53.96257046194227,-17.55428571428571 80.79466786368205,0 80.79466786368205,22.138459078237958&#10;c 0,33.52090892560318 -70.9205268593116,51.07519463988889 -81.61304664319891,33.52090892560318&#10;c -38.034285714285716,-17.55428571428571 -23.405714285714286,61.44 -10.368373161502234,112.7648053601111 c -0.0,54.05925213030777 14.628571428571428,125.29935960886239 -13.76076793531892,104.81935960886238&#10;c -35.50837007046629,-17.55428571428571 -67.01770800804385,0 -67.01770800804385,41.46635467685189&#10;c 0,43.879889978581645 13.510949707468077,61.434175692867356 29.778991425554757,43.879889978581645&#10;c 38.034285714285716,-17.55428571428571 23.405714285714286,61.44 50.99948451780802,102.40582430713263 c -0.0,19.44314155829662 14.628571428571428,131.19083904840446 -15.126865157003692,110.71083904840447&#10;c -29.202723195679344,-17.55428571428571 -75.47023398967342,0 -75.47023398967342,35.57487523730981&#10;c 0,42.938280504061765 26.351775520672003,60.49256621834748 34.614711852795104,42.938280504061765&#10;c 38.034285714285716,-17.55428571428571 23.405714285714286,61.44 55.982387293882006,103.34743378165251 c 0.0,69.75254557419235 -14.628571428571428,139.77517171738725 -5.547665046455947,119.29517171738725&#10;c 60.04759282831227,-17.55428571428571 92.63782445081513,0 92.63782445081513,26.99054256832703&#10;c 0,46.47350561337075 -31.055149112301716,64.02779132765646 -32.58499184880974,46.47350561337075&#10;c -38.034285714285716,-17.55428571428571 -23.405714285714286,61.44 -54.50516755554944,99.81220867234353 c 0.0,35.59748598541437 -14.628571428571428,126.9611684141431 36.492478007222694,106.4811684141431&#10;c 20.913260406346755,-17.55428571428571 61.49461825608453,0 61.49461825608453,39.80454587157118&#10;c 0,37.531973200995 -30.541592828409165,55.08625891528071 -65.29283584394173,37.531973200995&#10;c -38.034285714285716,-17.55428571428571 -23.405714285714286,61.44 -32.69426041936549,108.75374108471928 c 0.0,27.34528302706292 -14.628571428571428,135.8484193783063 27.00254369798344,115.36841937830629&#10;c 51.22285742902113,-17.55428571428571 56.145903395653875,0 56.145903395653875,30.917294907407992&#10;c 0,24.81673779094959 -45.89868871262787,42.3710235052353 -73.79066024295172,24.81673779094959&#10;c -38.034285714285716,-17.55428571428571 -23.405714285714286,61.44 -9.3577868506856,121.46897649476469 c 0.0,78.80183530995137 -14.628571428571428,141.61416463695866 39.50230526830227,121.13416463695866&#10;c 22.405100263409356,-17.55428571428571 37.567219739314176,0 37.567219739314176,25.15154964875562&#10;c 0,42.29757286820947 -27.378826765633452,59.85185858249518 -66.7407799338646,42.29757286820947&#10;c -38.034285714285716,-17.55428571428571 -23.405714285714286,61.44 -10.328745073751847,103.9881414175048 L 0 2048 " fill="none" stroke="black" stroke-width="0.1" style="vector-effect:non-scaling-stroke;" /></g><g><path d="M 0 0  L 877.714286 0  c -0.0,59.0426353661904 14.628571428571428,122.10235725231976 -51.98886001041564,101.62235725231976&#10;c -8.751356261591443,-17.55428571428571 -22.72985268859768,0 -22.72985268859768,44.66335703339452&#10;c 0,44.23375977772616 21.41637186213911,61.788045492011875 79.5521342816332,44.23375977772616&#10;c 38.034285714285716,-17.55428571428571 23.405714285714286,61.44 -4.833421582619877,102.05195450798811 c -0.0,16.415444092476577 14.628571428571428,136.98291306976446 -17.198737574992574,116.50291306976447&#10;c -62.900751027685175,-17.55428571428571 -62.443269094041014,0 -62.443269094041014,29.782801215949803&#10;c 0,36.9299741988271 46.04616008182213,54.48425991311281 47.548329269252,36.9299741988271&#10;c 38.034285714285716,-17.55428571428571 23.405714285714286,61.44 32.09367739978159,109.35574008688718 c -0.0,25.921339995540123 14.628571428571428,132.49699858817678 -1.822883710779967,112.01699858817678&#10;c -80.7029016675675,-17.55428571428571 -85.87602686470075,0 -85.87602686470075,34.2687156975375&#10;c 0,41.2322084224632 72.11234685890719,58.786494136748914 83.42305835641234,41.2322084224632&#10;c 38.034285714285716,-17.55428571428571 23.405714285714286,61.44 4.275852219068369,105.05350586325108 c -0.0,31.976817810527947 14.628571428571428,129.85307287221966 4.6863968398673155,109.37307287221967&#10;c -68.23217993041662,-17.55428571428571 -98.50239010270778,0 -98.50239010270778,36.91264141349461&#10;c 0,30.31973543979646 10.124553376169446,47.87402115408217 39.88865924463317,30.31973543979646&#10;c 38.034285714285716,-17.55428571428571 23.405714285714286,61.44 53.9273340182073,115.96597884591782 c 0.0,81.64810728425735 -14.628571428571428,127.46515360518127 55.60055960715523,106.98515360518127&#10;c 29.44355668921511,-17.55428571428571 32.49992559398373,0 32.49992559398373,39.30056068053301&#10;c 0,35.925188685835536 -33.90096470919543,53.47947440012125 -87.65630062271386,35.925188685835536&#10;c -38.034285714285716,-17.55428571428571 -23.405714285714286,61.44 -0.4441845784251086,110.36052559987874 c 0.0,36.258982265911214 -14.628571428571428,124.65569375394607 3.844814857467141,104.17569375394606&#10;c 21.24350849913022,-17.55428571428571 81.2672372934968,0 81.2672372934968,42.110020531768214&#10;c 0,41.56541510935469 -59.74639461954959,59.1197008236404 -86.18370707248062,41.56541510935469&#10;c -38.034285714285716,-17.55428571428571 -23.405714285714286,61.44 1.071654921516668,104.72029917635959 c -0.0,65.59759510992296 14.628571428571428,135.46440470937316 -4.081086769686508,114.98440470937317&#10;c -21.456134834673115,-17.55428571428571 -70.15251088976349,0 -70.15251088976349,31.30130957634111&#10;c 0,33.41602068552896 9.946856603083415,50.970306399814675 13.679482785343005,33.41602068552896&#10;c 38.034285714285716,-17.55428571428571 23.405714285714286,61.44 60.55411487410699,112.86969360018531 L 0 2048 " fill="none" stroke="black" stroke-width="0.1" style="vector-effect:non-scaling-stroke;" /></g><g><path d="M 0 0  L 1170.285714 0  c 0.0,74.76846959439432 -14.628571428571428,128.79630468459038 11.490263458111095,108.31630468459038&#10;c 44.24723172914071,-17.55428571428571 76.85308836266603,0 76.85308836266603,37.9694096011239&#10;c 0,30.7985913196014 -72.46292848877656,48.35287703388711 -82.77354819896989,30.7985913196014&#10;c -38.034285714285716,-17.55428571428571 -23.405714285714286,61.44 -5.569803621807225,115.48712296611288 c 0.0,77.77265807577419 -14.628571428571428,134.91660776956567 18.13075619435734,114.43660776956567&#10;c 15.226225231624857,-17.55428571428571 68.96955878051037,0 68.96955878051037,31.84910651614861&#10;c 0,44.86788542038221 -54.59116338753707,62.42217113466792 -69.07292975372326,44.86788542038221&#10;c -38.034285714285716,-17.55428571428571 -23.405714285714286,61.44 -18.027385221144442,101.41782886533207 c -0.0,77.66535986326012 14.628571428571428,136.38856589839511 -14.91486745170426,115.90856589839512&#10;c -26.073436806283617,-17.55428571428571 -68.96978080416517,0 -68.96978080416517,30.377148387319153&#10;c 0,32.89031325581655 55.94919266862019,50.44459897010226 75.23030717609572,32.89031325581655&#10;c 38.034285714285716,-17.55428571428571 23.405714285714286,61.44 8.654341079773701,113.39540102989773 c 0.0,61.52529659779358 -14.628571428571428,121.46596650633519 34.859864481819045,100.98596650633519&#10;c 17.15000582757642,-17.55428571428571 55.357110798753936,0 55.357110798753936,45.29974777937909&#10;c 0,35.4041431044588 -45.36854468980008,52.95842881874451 -87.96617805943876,35.4041431044588&#10;c -38.034285714285716,-17.55428571428571 -23.405714285714286,61.44 -2.2507972211342206,110.88157118125548 c -0.0,70.0802036618516 14.628571428571428,125.13785588205351 -64.058803157825,104.65785588205351&#10;c -9.950906241107644,-17.55428571428571 -23.295343085514304,0 -23.295343085514304,41.62785840366077&#10;c 0,28.32758345115502 15.768242093642693,45.88186916544073 37.2320395328037,28.32758345115502&#10;c 38.034285714285716,-17.55428571428571 23.405714285714286,61.44 50.122106710535604,117.95813083455926 c -0.0,80.34769201244033 14.628571428571428,137.036075671208 -16.964083752683532,116.556075671208&#10;c -26.554353775109092,-17.55428571428571 -75.168619249823,0 -75.168619249823,29.72963861450627&#10;c 0,21.409715388247463 18.025492502866026,38.964001102533175 39.2147200948031,21.409715388247463&#10;c 38.034285714285716,-17.55428571428571 23.405714285714286,61.44 52.91798290770343,124.87599889746681 c 0.0,58.434700680397306 -14.628571428571428,120.66832853247372 49.57931451045296,100.18832853247372&#10;c 35.94218504103229,-17.55428571428571 45.06453424542207,0 45.06453424542207,46.09738575324056&#10;c 0,43.72381260138309 -36.785347340827975,61.2780983156688 -41.10316830854823,43.72381260138309&#10;c -38.034285714285716,-17.55428571428571 -23.405714285714286,61.44 -53.5406804473268,102.56190168433119 L 0 2048 " fill="none" stroke="black" stroke-width="0.1" style="vector-effect:non-scaling-stroke;" /></g><g><path d="M 0 0  L 1462.857143 0  c 0.0,25.85808444936437 -14.628571428571428,142.87078032041825 53.29456414194273,122.39078032041824&#10;c 20.733079664868608,-17.55428571428571 20.58068475122812,0 20.58068475122812,23.894933965296033&#10;c 0,38.204267469239284 -45.52434232819078,55.758553183524995 -70.95903230594142,38.204267469239284&#10;c -38.034285714285716,-17.55428571428571 -23.405714285714286,61.44 -2.916216587229428,108.081446816475 c 0.0,68.09449121919104 -14.628571428571428,129.16039626322066 14.151326172088694,108.68039626322066&#10;c 77.56229190402382,-17.55428571428571 83.04460395793808,0 83.04460395793808,37.60531802249362&#10;c 0,37.41509439538049 -21.448411694328048,54.969380109666204 -72.79298882598744,37.41509439538049&#10;c -38.034285714285716,-17.55428571428571 -23.405714285714286,61.44 -24.40294130403933,108.87061989033378 c 0.0,42.60489455275066 -14.628571428571428,120.01605904204673 53.2237028565641,99.53605904204673&#10;c 14.891420127882954,-17.55428571428571 40.7256727417124,0 40.7256727417124,46.74965524366755&#10;c 0,29.466896872427412 -38.404921624537664,47.021182586713124 -89.92578160313946,29.466896872427412&#10;c -38.034285714285716,-17.55428571428571 -23.405714285714286,61.44 -4.023593995137048,116.81881741328687 c -0.0,65.89395527452682 14.628571428571428,144.37334215972464 -59.28505658023865,123.89334215972465&#10;c -15.86752931705275,-17.55428571428571 -27.321032913820737,0 -27.321032913820737,22.392372125989624&#10;c 0,27.73783246618737 13.358243315336022,45.29211818047308 62.356433892161746,27.73783246618737&#10;c 38.034285714285716,-17.55428571428571 23.405714285714286,61.44 24.249655601897643,118.5478818195269 c 0.0,55.144494093922454 -14.628571428571428,129.2559584086378 48.97285140723112,108.7759584086378&#10;c 11.603642085863806,-17.55428571428571 23.0890809824852,0 23.0890809824852,37.50975587707647&#10;c 0,34.36351990274187 -45.67689050796309,51.91780561702758 -67.31204589722621,34.36351990274187&#10;c -38.034285714285716,-17.55428571428571 -23.405714285714286,61.44 -4.749886492490106,111.9221943829724 c -0.0,24.640786948912055 14.628571428571428,130.50894493658373 -31.864146983780678,110.02894493658374&#10;c -42.034242484542936,-17.55428571428571 -48.9955066967516,0 -48.9955066967516,36.256769349130536&#10;c 0,42.04207644715828 56.081649781570384,59.59636216144399 56.897223919993614,42.04207644715828&#10;c 38.034285714285716,-17.55428571428571 23.405714285714286,61.44 23.96242976053866,104.243637838556 c 0.0,24.156003519203203 -14.628571428571428,133.97401556511642 -4.90468753195539,113.49401556511643&#10;c 42.37987289263303,-17.55428571428571 94.87822969322593,0 94.87822969322593,32.79169872059785&#10;c 0,36.76996597051715 -14.412383413454062,54.32425168480286 -36.39184871255293,36.76996597051715&#10;c -38.034285714285716,-17.55428571428571 -23.405714285714286,61.44 -53.581693448717616,109.51574831519713 L 0 2048 " fill="none" stroke="black" stroke-width="0.1" style="vector-effect:non-scaling-stroke;" /></g><g><path d="M 0 0  L 1755.428571 0  c -0.0,28.536039581832352 14.628571428571428,140.4552773705872 -20.361771164588223,119.9752773705872&#10;c -34.019795661849415,-17.55428571428571 -62.28548230775057,0 -62.28548230775057,26.310436915127084&#10;c 0,27.79803836104756 39.91390141088792,45.35232407533327 65.26018022574301,27.79803836104756&#10;c 38.034285714285716,-17.55428571428571 23.405714285714286,61.44 17.387073246595776,118.48767592466672 c -0.0,58.53838792869048 14.628571428571428,130.3596671478174 -45.69461438673105,109.8796671478174&#10;c -9.415607834439722,-17.55428571428571 -28.48242071770214,0 -28.48242071770214,36.40604713789688&#10;c 0,38.378731885244065 13.99412252296382,55.93301759952978 49.03265773093085,38.378731885244065&#10;c 38.034285714285716,-17.55428571428571 23.405714285714286,61.44 25.144377373502337,107.90698240047021 c -0.0,41.24648957637136 14.628571428571428,145.5563117421311 -42.24074594765546,125.07631174213111&#10;c -34.549059777320004,-17.55428571428571 -47.07669345477296,0 -47.07669345477296,21.209402543583167&#10;c 0,44.03602684831483 25.82710171040027,61.590312562600545 59.81038336141183,44.03602684831483&#10;c 38.034285714285716,-17.55428571428571 23.405714285714286,61.44 29.50705604101659,102.24968743739944 c 0.0,32.202170821763154 -14.628571428571428,120.37509217695698 36.10483418745661,99.89509217695698&#10;c 10.998260467493093,-17.55428571428571 47.194244128383154,0 47.194244128383154,46.3906221087573&#10;c 0,21.38392052202397 -64.19444825521204,38.93820623630968 -81.96833599836019,21.38392052202397&#10;c -38.034285714285716,-17.55428571428571 -23.405714285714286,61.44 -1.3307423174795758,124.9017937636903 c 0.0,52.037270174369134 -14.628571428571428,137.01202049653548 4.1640552105224495,116.53202049653548&#10;c 34.228118805215104,-17.55428571428571 88.66333295660749,0 88.66333295660749,29.753693789178797&#10;c 0,36.483338355295956 -35.73296617068211,54.03762406958167 -64.32167187253495,36.483338355295956&#10;c -38.034285714285716,-17.55428571428571 -23.405714285714286,61.44 -28.50571629459499,109.80237593041832 c 0.0,26.280610233831784 -14.628571428571428,138.3872497481305 58.692717733475504,117.90724974813051&#10;c 34.5232294468055,-17.55428571428571 37.89663244554026,0 37.89663244554026,28.378464537583767&#10;c 0,28.877896740942276 -47.6928410578923,46.43218245522799 -79.30772105742082,28.877896740942276&#10;c -38.034285714285716,-17.55428571428571 -23.405714285714286,61.44 -17.281629121594946,117.407817544772 c -0.0,58.60579418673028 14.628571428571428,146.1029558516862 -4.45083687147694,125.62295585168621&#10;c -61.922795080637606,-17.55428571428571 -73.99528647052983,0 -73.99528647052983,20.662758434028063&#10;c 0,24.958268618554428 11.25905814116167,42.51255433284014 41.25580829866863,24.958268618554428&#10;c 38.034285714285716,-17.55428571428571 23.405714285714286,61.44 37.19031504333814,121.32744566715985 L 0 2048 " fill="none" stroke="black" stroke-width="0.1" style="vector-effect:non-scaling-stroke;" /></g></g><g><g><path d="M 0 0  L 0 292.571429  c 34.18352622713512,-0.0 144.6054121761673,14.628571428571428 124.1254121761673,-50.15414093151237&#10;c -17.55428571428571,-26.25295423091033 0,-39.42746545769256 22.160302109546976,-39.42746545769256&#10;c 39.97281803323884,0 57.52710374752455,40.4882198724299 39.97281803323884,78.22125708613967&#10;c -17.55428571428571,38.034285714285716 61.44,23.405714285714286 106.31289625247544,11.360349303065263 c 18.444247858257523,-0.0 137.23139787972627,14.628571428571428 116.75139787972628,-19.22586292675118&#10;c -17.55428571428571,-68.51497476737572 0,-72.2799820918348 29.534316405987994,-72.2799820918348&#10;c 25.326143747585576,0 42.88042946187129,81.6386996111057 25.326143747585576,90.07874834555138&#10;c -17.55428571428571,38.034285714285716 61.44,23.405714285714286 120.9595705381287,1.4270966730345975 c 24.427131905271192,0.0 133.88064374515582,-14.628571428571428 113.40064374515582,58.28145338486448&#10;c -17.55428571428571,7.395725174345125 0,25.33318643638661 32.88507054055846,25.33318643638661&#10;c 38.372083581326336,0 55.92636929561205,-15.66768165883077 38.372083581326336,-33.497154482061205&#10;c -17.55428571428571,-38.034285714285716 61.44,-23.405714285714286 107.91363070438794,-50.117485339189884 c 45.837460169644075,-0.0 130.061440287476,14.628571428571428 109.58144028747598,-1.7451284541373255&#10;c -17.55428571428571,-29.950401692590543 0,-85.89364793269331 36.70427399823829,-85.89364793269331&#10;c 41.21600790722141,0 58.77029362150712,22.62380887968446 41.21600790722141,26.03770823917244&#10;c -17.55428571428571,38.034285714285716 61.44,23.405714285714286 105.06970637849287,61.601068147658204 c 51.03563303588436,0.0 123.9528282518477,-14.628571428571428 103.4728282518477,58.72831019984685&#10;c -17.55428571428571,6.837733863196616 0,12.024939075436897 42.812886033866576,12.024939075436897&#10;c 30.381681294129493,0 47.935967008415204,-68.18942488997988 30.381681294129493,-73.32851944550943&#10;c -17.55428571428571,-38.034285714285716 61.44,-23.405714285714286 115.90403299158478,2.5752701702256786 c 40.71032367202976,0.0 136.8603359204917,-14.628571428571428 116.38033592049172,-5.727486574613875&#10;c -17.55428571428571,75.69602167275646 0,90.98861725881528 29.90537836522256,90.98861725881528&#10;c 44.61717950000195,0 62.171465214287664,-62.130273946359914 44.61717950000195,-63.62599242708664&#10;c -17.55428571428571,-38.034285714285716 61.44,-23.405714285714286 101.66853478571232,-21.63513825711476 c 37.8640604668657,0.0 124.7563710384628,-14.628571428571428 104.2763710384628,43.9852313314749&#10;c -17.55428571428571,36.32945168066419 0,44.82979533119968 42.00934324725148,44.82979533119968&#10;c 25.670679178808314,0 43.224964893094025,-36.490213842298274 25.670679178808314,-55.10169536473995&#10;c -17.55428571428571,-38.034285714285716 61.44,-23.405714285714286 120.61503510690596,-33.71333129793463 L 2048 0 " fill="none" stroke="black" stroke-width="0.1" style="vector-effect:non-scaling-stroke;" /></g><g><path d="M 0 0  L 0 585.142857  c 39.931859957755584,0.0 125.10764576963216,-14.628571428571428 104.62764576963215,61.90518749222481&#10;c -17.55428571428571,6.626964231120433 0,10.248233165826875 41.658068516082125,10.248233165826875&#10;c 33.12954300431559,0 50.683828718601305,-16.249829455897736 33.12954300431559,-70.98440187254874&#10;c -17.55428571428571,-38.034285714285716 61.44,-23.405714285714286 113.15617128139868,-1.1690187855029421 c 42.12745320690874,-0.0 131.11464118098755,14.628571428571428 110.63464118098756,-9.682755444820677&#10;c -17.55428571428571,-80.33100434280632 0,-81.61421134415266 35.65107310472672,-81.61421134415266&#10;c 35.81574523330775,0 53.37003094759346,25.365959038068 35.81574523330775,57.93428780373075&#10;c -17.55428571428571,38.034285714285716 61.44,23.405714285714286 110.46996905240653,33.36267898524259 c 36.72696395702716,-0.0 125.76310946553359,14.628571428571428 105.28310946553358,-37.44470596032883&#10;c -17.55428571428571,-26.076694608285113 0,-46.240670540802455 41.00260482018069,-46.240670540802455&#10;c 30.281308721521867,0 47.83559443580758,63.09732960981733 30.281308721521867,63.83640748980602&#10;c -17.55428571428571,38.034285714285716 61.44,23.405714285714286 116.00440556419241,19.848969011325266 c 20.72870601209244,0.0 134.1855409582896,-14.628571428571428 113.70554095828962,5.920289473576583&#10;c -17.55428571428571,56.52251569872962 0,81.64296249415764 32.58017332742466,81.64296249415764&#10;c 25.044019798441383,0 42.598305512727094,-55.86176047286223 25.044019798441383,-73.93345035833691&#10;c -17.55428571428571,-38.034285714285716 61.44,-23.405714285714286 121.2416944872729,-13.629801609397319 c 70.68657782748939,0.0 123.9572621994899,-14.628571428571428 103.4772621994899,44.92535105867103&#10;c -17.55428571428571,21.91722229259559 0,39.05096635265492 42.80845208622438,39.05096635265492&#10;c 20.962427565587717,0 38.51671327987343,-12.951786882796114 20.962427565587717,-25.19580013746458&#10;c -17.55428571428571,-38.034285714285716 61.44,-23.405714285714286 125.32328672012656,-58.78051727386137 c 79.00103641654293,0.0 138.32549779221418,-14.628571428571428 117.84549779221418,28.256516051679455&#10;c -17.55428571428571,26.53039028749554 0,52.38619110862692 28.440216493500103,52.38619110862692&#10;c 42.92010034487927,0 60.474386059164985,-44.39275754298706 42.92010034487927,-54.87537843071131&#10;c -17.55428571428571,-38.034285714285716 61.44,-23.405714285714286 103.365613940835,-25.767328729595064 c 75.02269116110887,-0.0 122.20883659946242,14.628571428571428 101.72883659946241,2.44792743427752&#10;c -17.55428571428571,-35.085431519532804 0,-83.12213148330113 44.556877686251866,-83.12213148330113&#10;c 45.24671565753508,0 62.80100137182079,10.795194762624789 45.24671565753508,50.79424840057686&#10;c -17.55428571428571,38.034285714285716 61.44,23.405714285714286 101.0389986281792,29.879955648446753 L 2048 0 " fill="none" stroke="black" stroke-width="0.1" style="vector-effect:non-scaling-stroke;" /></g><g><path d="M 0 0  L 0 877.714286  c 78.41514237885514,-0.0 135.20598203095074,14.628571428571428 114.72598203095073,-32.934460779611406&#10;c -17.55428571428571,-40.735843470963864 0,-41.74895354318655 31.559732254763546,-41.74895354318655&#10;c 29.70752282819649,0 47.2618085424822,52.405735756570316 29.70752282819649,57.84016864716433&#10;c -17.55428571428571,38.034285714285716 61.44,23.405714285714286 116.57819145751779,16.843245675633625 c 43.58921955807605,0.0 133.90490535520246,-14.628571428571428 113.42490535520245,14.706304906534747&#10;c -17.55428571428571,46.21547607741495 0,76.47155751345377 32.86080893051182,76.47155751345377&#10;c 37.774250394424314,0 55.328536108710026,-29.850222047576803 37.774250394424314,-41.57267757098126&#10;c -17.55428571428571,-38.034285714285716 61.44,-23.405714285714286 108.51146389128996,-49.60518484900725 c 38.91435729295376,0.0 127.03955877011862,-14.628571428571428 106.55955877011861,6.814749311994516&#10;c -17.55428571428571,47.184537879416666 0,89.87688295362982 39.726155515595664,89.87688295362982&#10;c 40.03753258955237,0 57.59181830383808,-43.766832875978615 40.03753258955237,-48.73879115692493&#10;c -17.55428571428571,-38.034285714285716 61.44,-23.405714285714286 106.24818169616191,-47.9528411086994 c 18.61987462395196,0.0 131.68258420164483,-14.628571428571428 111.20258420164483,60.89118011165102&#10;c -17.55428571428571,11.507893275285221 0,21.768704320572986 35.08313008406945,21.768704320572986&#10;c 26.055761033857635,0 43.61004674814335,-18.692910657321875 26.055761033857635,-83.3873751464524&#10;c -17.55428571428571,-38.034285714285716 61.44,-23.405714285714286 120.22995325185664,0.7274907142283951 c 53.555440186173975,0.0 122.72732568554672,-14.628571428571428 102.24732568554671,50.38274271456263&#10;c -17.55428571428571,26.642235981499493 0,28.094231201561534 44.038388600167565,28.094231201561534&#10;c 23.563099817140653,0 41.117385531426365,-54.02502233133309 23.563099817140653,-60.17283817194945&#10;c -17.55428571428571,-38.034285714285716 61.44,-23.405714285714286 122.72261446857362,-18.304135744174715 c 51.14996513698062,-0.0 142.938721571482,14.628571428571428 122.458721571482,-62.696501055633924&#10;c -17.55428571428571,-16.576015511162563 0,-32.86237007706793 23.826992714232276,-32.86237007706793&#10;c 44.978783804504104,0 62.533069518789816,71.25468956005201 44.978783804504104,81.94756203563072&#10;c -17.55428571428571,38.034285714285716 61.44,23.405714285714286 101.30693048121017,13.611309097071128 c 29.554886340235814,0.0 127.65928131120339,-14.628571428571428 107.17928131120338,7.983208420226227&#10;c -17.55428571428571,46.38945219924194 0,76.12120902077456 39.106432974510895,76.12120902077456&#10;c 31.614336512277106,0 49.16862222656282,-84.31945011474917 31.614336512277106,-84.93090725603697&#10;c -17.55428571428571,-38.034285714285716 61.44,-23.405714285714286 114.67137777343717,0.8264898150361972 L 2048 0 " fill="none" stroke="black" stroke-width="0.1" style="vector-effect:non-scaling-stroke;" /></g><g><path d="M 0 0  L 0 1170.285714  c 69.77836117985763,0.0 134.58633133642792,-14.628571428571428 114.10633133642791,-1.6410388925919768&#10;c -17.55428571428571,65.01014472248102 0,96.47925418396046 32.179382949286364,96.47925418396046&#10;c 36.36088117490013,0 53.91516688918584,-21.630306092847935 36.36088117490013,-52.567298165300166&#10;c -17.55428571428571,-38.034285714285716 61.44,-23.405714285714286 109.92483311081415,-42.27091712606832 c 15.471934506195087,0.0 127.71444502641441,-14.628571428571428 107.2344450264144,22.630072483109394&#10;c -17.55428571428571,51.363461647378 0,61.05241265873335 39.05126925929987,61.05241265873335&#10;c 36.86806289147191,0 54.42234860575762,-15.07428966062734 36.86806289147191,-24.098191949417952&#10;c -17.55428571428571,-38.034285714285716 61.44,-23.405714285714286 109.41765139424237,-59.584293192424795 c 56.45826998321313,-0.0 136.05726544324577,14.628571428571428 115.57726544324578,-18.799360652967255&#10;c -17.55428571428571,-40.03471084450183 0,-53.282636951632895 30.7084488424685,-53.282636951632895&#10;c 27.754196739455068,0 45.30848245374078,5.567892026720952 27.754196739455068,23.028538027404068&#10;c -17.55428571428571,38.034285714285716 61.44,23.405714285714286 118.53151754625921,49.05345957719608 c 28.671533429802615,0.0 128.99339788065774,-14.628571428571428 108.51339788065775,61.46651342634256&#10;c -17.55428571428571,2.9586946689950775 0,12.816222984668286 37.77231640505653,12.816222984668286&#10;c 31.635384931037322,0 49.189670645323034,-66.35301638090908 31.635384931037322,-69.62589142714472&#10;c -17.55428571428571,-38.034285714285716 61.44,-23.405714285714286 114.65032935467696,-4.656844983866122 c 18.45179302646284,-0.0 128.24449708675218,14.628571428571428 107.76449708675219,-20.857313533728796&#10;c -17.55428571428571,-38.87985317436262 0,-66.60531420539525 38.52121719896209,-66.60531420539525&#10;c 33.250311015534606,0 50.80459672982032,28.223914653307485 33.250311015534606,32.905235307387116&#10;c -17.55428571428571,38.034285714285716 61.44,23.405714285714286 113.03540327017967,54.55739243173693 c 65.55538257898537,0.0 121.6378605988334,-14.628571428571428 101.1578605988334,37.95530476974591&#10;c -17.55428571428571,19.54934936818209 0,34.80282708708067 45.12785368688088,34.80282708708067&#10;c 21.594712855998722,0 39.148998570284434,-63.976389127010094 21.594712855998722,-74.93894427550498&#10;c -17.55428571428571,-38.034285714285716 61.44,-23.405714285714286 124.69100142971556,2.1808124186784 c 64.2814765000906,0.0 140.9146130589324,-14.628571428571428 120.4346130589324,58.46477988424603&#10;c -17.55428571428571,26.369457757854835 0,27.617760672111118 25.85110122678188,27.617760672111118&#10;c 27.766240465603914,0 45.320526179889626,-18.150739499289966 27.766240465603914,-64.84729963457315&#10;c -17.55428571428571,-38.034285714285716 61.44,-23.405714285714286 118.51947382011036,-21.235240921783998 L 2048 0 " fill="none" stroke="black" stroke-width="0.1" style="vector-effect:non-scaling-stroke;" /></g><g><path d="M 0 0  L 0 1462.857143  c 71.21924876063231,-0.0 145.63740895139432,14.628571428571428 125.15740895139433,-3.3445498946395587&#10;c -17.55428571428571,-26.097226444395517 0,-67.55872753778488 21.128305334319947,-67.55872753778488&#10;c 39.15643279596026,0 56.71071851024597,10.380667485853884 39.15643279596026,42.55050327157813&#10;c -17.55428571428571,38.034285714285716 61.44,23.405714285714286 107.12928148975402,28.3527741608463 c 74.94886936581905,0.0 127.19115010693056,-14.628571428571428 106.71115010693056,62.159499924104985&#10;c -17.55428571428571,17.3282867407781 0,25.828464449990754 39.57456417878372,25.828464449990754&#10;c 39.334980012804635,0 56.88926572709035,-72.08988960226024 39.334980012804635,-81.5410631120477&#10;c -17.55428571428571,-38.034285714285716 61.44,-23.405714285714286 106.95073427290964,-6.446901262048044 c 25.469672776989615,-0.0 141.8912937661919,14.628571428571428 121.41129376619189,2.5194328993843196&#10;c -17.55428571428571,-62.09551227072166 0,-83.25260641303986 24.87442051952239,-83.25260641303986&#10;c 32.43483441605488,0 49.989120130340595,26.36958524570725 32.43483441605488,36.838989582742364&#10;c -17.55428571428571,38.034285714285716 61.44,23.405714285714286 113.8508798696594,43.89418393091318 c 73.18576345375716,-0.0 133.01628059467816,14.628571428571428 112.53628059467817,-35.96793522815489&#10;c -17.55428571428571,-23.156396317689325 0,-37.89958366678699 33.7494336910361,-37.89958366678699&#10;c 25.281394677858287,0 42.835680392144,17.933734128168247 25.281394677858287,30.986453157068233&#10;c -17.55428571428571,38.034285714285716 61.44,23.405714285714286 121.00431960785599,42.88106573787365 c 68.93943122592479,0.0 132.11379213102435,-14.628571428571428 111.63379213102435,62.55282966534617&#10;c -17.55428571428571,20.248872332203486 0,22.37095941919182 34.65192215468993,22.37095941919182&#10;c 39.69882674988287,0 57.25311246416858,-27.550531553921594 39.69882674988287,-31.12423205505977&#10;c -17.55428571428571,-38.034285714285716 61.44,-23.405714285714286 106.58688753583141,-53.799557029478215 c 66.6703700992926,0.0 131.1127713039984,-14.628571428571428 110.6327713039984,10.726224314740627&#10;c -17.55428571428571,41.817693491723986 0,86.20920802118994 35.65294298171588,86.20920802118994&#10;c 32.93347095288709,0 50.4877566671728,-46.19557395706451 32.93347095288709,-72.50115269042183&#10;c -17.55428571428571,-38.034285714285716 61.44,-23.405714285714286 113.35224333282719,-24.434279645508724 c 21.880700472170734,0.0 133.61960084539953,-14.628571428571428 113.13960084539953,-4.92377821668094&#10;c -17.55428571428571,74.82982427274109 0,82.3974380300971 33.14611344031475,82.3974380300971&#10;c 21.720767340832026,0 39.27505305511774,-9.18181938532912 21.720767340832026,-19.4221156845869&#10;c -17.55428571428571,-38.034285714285716 61.44,-23.405714285714286 124.56494694488225,-58.05154412882926 L 2048 0 " fill="none" stroke="black" stroke-width="0.1" style="vector-effect:non-scaling-stroke;" /></g><g><path d="M 0 0  L 0 1755.428571  c 22.09161041804834,-0.0 121.64113461804233,14.628571428571428 101.16113461804233,-61.60578390397727&#10;c -17.55428571428571,-14.119188605074891 0,-30.33009501918272 45.12457966767195,-30.33009501918272&#10;c 44.37187241377728,0 61.926158128062994,14.59933323809839 44.37187241377728,32.261313686188146&#10;c -17.55428571428571,38.034285714285716 61.44,23.405714285714286 101.913841871937,59.674565236971844 c 60.26099506125945,-0.0 124.83623170289229,14.628571428571428 104.35623170289229,-36.25834643291429&#10;c -17.55428571428571,-17.524839743801724 0,-47.28234446189867 41.92948258282199,-47.28234446189867&#10;c 25.820299984132333,0 43.374585698418045,29.80920726635906 25.820299984132333,63.03974741739171&#10;c -17.55428571428571,38.034285714285716 61.44,23.405714285714286 120.46541430158194,20.500943477421245 c 38.80120035394473,-0.0 130.11204170077423,14.628571428571428 109.63204170077424,-3.7577957426510578&#10;c -17.55428571428571,-74.50310053158805 0,-88.32424859172504 36.65367258494004,-88.32424859172504&#10;c 27.239416422480588,0 44.7937021367663,60.63174669726322 27.239416422480588,75.26927781980447&#10;c -17.55428571428571,38.034285714285716 61.44,23.405714285714286 119.04629786323369,16.81276651457162 c 77.06050491403177,0.0 144.17847734978676,-14.628571428571428 123.69847734978676,36.90843447108684&#10;c -17.55428571428571,11.108428811892187 0,46.31299780009126 22.58723693592752,46.31299780009126&#10;c 29.697874265458893,0 47.252159979744604,-18.34143212330199 29.697874265458893,-37.141107636295246&#10;c -17.55428571428571,-38.034285714285716 61.44,-23.405714285714286 116.58784002025538,-46.08032463488286 c 51.57687790665808,-0.0 135.5304495485728,14.628571428571428 115.0504495485728,-59.266648302934875&#10;c -17.55428571428571,-6.287318857845377 0,-16.05067020226563 31.235264737141478,-16.05067020226563&#10;c 33.87268956960972,0 51.42697528389543,14.88620307210297 33.87268956960972,49.13048339571878&#10;c -17.55428571428571,38.034285714285716 61.44,23.405714285714286 112.41302471610456,26.186835109481727 c 75.29920145814246,-0.0 141.85521061402662,14.628571428571428 121.37521061402663,-36.10848903858077&#10;c -17.55428571428571,-13.18476778052025 0,-55.49476183341707 24.91050367168765,-55.49476183341707&#10;c 42.900626309058964,0 60.454912023344676,16.91415411412833 42.900626309058964,33.648644951088095&#10;c -17.55428571428571,38.034285714285716 61.44,23.405714285714286 103.38508797665531,57.95460592090975 c 82.65275181745808,0.0 126.33582439141877,-14.628571428571428 105.85582439141876,41.13337322096583&#10;c -17.55428571428571,32.135842346233225 0,38.142824648669226 40.42988989429551,38.142824648669226&#10;c 32.56132483312922,0 50.11561054741493,-65.12727904677186 32.56132483312922,-77.1378287607854&#10;c -17.55428571428571,-38.034285714285716 61.44,-23.405714285714286 113.72438945258506,-2.138369108849659 L 2048 0 " fill="none" stroke="black" stroke-width="0.1" style="vector-effect:non-scaling-stroke;" /></g></g></svg>