<svg baseProfile="full" height="4288" preserveAspectRatio="none" shape-rendering="geometricPrecision" version="1.1" viewBox="0,0,2848,4288" width="2848" xmlns="http://www.w3.org/2000/svg" xmlns:ev="http://www.w3.org/2001/xml-events" xmlns:xlink="http://www.w3.org/1999/xlink"><title>Jigsaw puzzle piece clips</title><desc>Created with the piecemaker. Piece count: 35</desc><defs/><g><g><rect fill="white" height="4288" width="2848" x="0" y="0"/></g></g><g><g><path d="M 0 0  L 569.600000 0  c -0.0,80.38882613869143 28.480000000000004,275.7597625143883 -84.29105025284399,232.8797625143883
c -72.85871528945853,-36.754285714285714 -106.23927364299094,0 -106.23927364299094,73.40595177132599
c 0,77.05514124915413 59.07894884990704,113.80942696343985 134.23169231950354,77.05514124915413
c 74.048,-36.754285714285714 45.568000000000005,128.64 56.29863157633139,229.23057303656014 c -0.0,39.071921258690075 28.480000000000004,252.00487291930412 -42.740227083886595,209.12487291930412
c -75.831381522577,-36.754285714285714 -101.60133838447152,0 -101.60133838447152,97.16084136641015
c 0,73.66975160095222 85.12423559016125,110.42403731523794 129.36605636548686,73.66975160095222
c 74.048,-36.754285714285714 45.568000000000005,128.64 14.975509102871257,232.61596268476205 c -0.0,124.86078229424182 28.480000000000004,285.17525889438264 -14.686159569530846,242.29525889438264
c -107.60588730581107,-36.754285714285714 -139.5467214824593,0 -139.5467214824593,63.990455391331636
c 0,72.8958958649709 24.518121978523972,109.65018157925661 47.69564167128385,72.8958958649709
c 74.048,-36.754285714285714 45.568000000000005,128.64 106.5372393807063,233.38981842074338 c -0.0,106.79898772173793 28.480000000000004,260.0221599951006 -84.71700609377115,217.1421599951006
c -55.411140640025415,-36.754285714285714 -78.13533675366128,0 -78.13533675366128,89.14355429061368
c 0,50.5677385383529 171.36763166708326,87.32202425263861 171.14628753841595,50.5677385383529
c 74.048,-36.754285714285714 45.568000000000005,128.64 -8.293944690983523,255.71797574736138 c -0.0,31.753402882292452 28.480000000000004,285.4473243872422 -68.32104276047419,242.5673243872422
c -64.85983888898976,-36.754285714285714 -91.42835726900604,0 -91.42835726900604,63.71838989847208
c 0,70.36551207335663 18.923939621105408,107.11979778764234 89.14854089391557,70.36551207335663
c 74.048,-36.754285714285714 45.568000000000005,128.64 70.60085913556466,235.92020221235765 c 0.0,37.16091391335149 -28.480000000000004,280.3148069576592 -10.803478965604064,237.4348069576592
c 91.10012173024508,-36.754285714285714 153.49804830175697,0 153.49804830175697,68.85090732805509
c 0,46.39831990242112 -18.961674243634082,83.15260561670684 -30.687457128527214,46.39831990242112
c -74.048,-36.754285714285714 -45.568000000000005,128.64 -112.0071122076257,259.88739438329316 c -0.0,172.25677145427102 28.480000000000004,291.0247300795449 -0.3244284887482605,248.14473007954487
c -163.50488555444346,-36.754285714285714 -178.32852612483055,0 -178.32852612483055,58.140984206169406
c 0,78.45587810335746 146.2698115157188,115.21016381764318 153.30768764621092,78.45587810335746
c 74.048,-36.754285714285714 45.568000000000005,128.64 25.345266967367877,227.82983618235681 L 0 4288 " fill="none" stroke="black" stroke-width="0.1" style="vector-effect:non-scaling-stroke;"/></g><g><path d="M 0 0  L 1139.200000 0  c 0.0,73.71015914136001 -28.480000000000004,288.498759462898 21.833602387161278,245.618759462898
c 64.9383622900334,-36.754285714285714 159.5288342070187,0 159.5288342070187,60.66695482281628
c 0,79.60801910566056 -99.1999857909254,116.36230481994627 -125.92867526508967,79.60801910566056
c -74.048,-36.754285714285714 -45.568000000000005,128.64 -55.4337613290903,226.67769518005372 c -0.0,172.72944193867966 28.480000000000004,300.0097838681072 -35.07851439667707,257.1297838681072
c -43.1590196563559,-36.754285714285714 -156.90442193706005,0 -156.90442193706005,49.15593041760707
c 0,83.64314830727386 132.0621664982186,120.39743402155958 181.47675097491984,83.64314830727386
c 74.048,-36.754285714285714 45.568000000000005,128.64 10.506185358817277,222.64256597844042 c -0.0,93.29046105476253 28.480000000000004,259.3645375208719 -33.31288805739506,216.48453752087192
c -30.95958690741411,-36.754285714285714 -123.82245185899443,0 -123.82245185899443,89.80117676484235
c 0,69.52624692430663 125.62995954509499,106.28053263859235 155.7430699636962,69.52624692430663
c 74.048,-36.754285714285714 45.568000000000005,128.64 1.3922699526932831,236.75946736140764 c 0.0,100.47484484078895 -28.480000000000004,295.55303867965176 -1.242974981967008,252.67303867965177
c 81.8945146537697,-36.754285714285714 140.75677115665488,0 140.75677115665488,53.61267560606251
c 0,82.29453480607168 -35.46233084189589,119.0488205203574 -56.5212986023505,82.29453480607168
c -74.048,-36.754285714285714 -45.568000000000005,128.64 -82.99249757233738,223.9911794796426 c 0.0,170.6438418504543 -28.480000000000004,284.2300127341754 53.978522240336964,241.35001273417538
c 39.21077496132823,-36.754285714285714 101.69848301106086,0 101.69848301106086,64.9357015515389
c 0,92.90651424072007 -30.347666871601167,129.66079995500579 -32.19189278559824,92.90651424072007
c -74.048,-36.754285714285714 -45.568000000000005,128.64 -123.48511246579957,213.3792000449942 c -0.0,103.27505257502843 28.480000000000004,273.7436734638964 5.542044906243755,230.8636734638964
c -84.53929794686792,-36.754285714285714 -155.09243536274275,0 -155.09243536274275,75.42204082181789
c 0,71.89111900793006 34.61112726867375,108.64540472221577 43.210098241956175,71.89111900793006
c 74.048,-36.754285714285714 45.568000000000005,128.64 106.34029221454283,234.39459527778422 c 0.0,94.29826533185245 -28.480000000000004,288.7748457998815 67.5905202849317,245.89484579988152
c 25.775536748887646,-36.754285714285714 86.28229641227807,0 86.28229641227807,60.390868485832755
c 0,67.63280781577316 -102.20997428316511,104.38709353005888 -148.28020215628925,67.63280781577316
c -74.048,-36.754285714285714 -45.568000000000005,128.64 -5.592614540920522,238.65290646994112 L 0 4288 " fill="none" stroke="black" stroke-width="0.1" style="vector-effect:non-scaling-stroke;"/></g><g><path d="M 0 0  L 1708.800000 0  c -0.0,46.19794301169585 28.480000000000004,279.89258345237573 -95.44044031766556,237.01258345237574
c -19.175313702568562,-36.754285714285714 -84.43723272743493,0 -84.43723272743493,69.27313083333854
c 0,64.69557487359816 84.16906899494718,101.44986058788388 184.86326102036642,64.69557487359816
c 74.048,-36.754285714285714 45.568000000000005,128.64 -4.985587975265929,241.59013941211612 c 0.0,50.53475646699109 -28.480000000000004,298.1001424281986 43.02816460428612,255.22014242819859
c 134.2794871510075,-36.754285714285714 150.36586506607102,0 150.36586506607102,51.06557185751569
c 0,83.57398623183627 -75.34006097439953,120.32827194612199 -149.13700793157344,83.57398623183627
c -74.048,-36.754285714285714 -45.568000000000005,128.64 -44.25702173878372,222.711728053878 c -0.0,84.19909536614456 28.480000000000004,255.74186720730117 -48.25572969738577,212.86186720730117
c -99.24735912509684,-36.754285714285714 -113.65673395843473,0 -113.65673395843473,93.4238470784131
c 0,93.3547901114228 69.36616100037564,130.10907582570852 103.15173418239199,93.3547901114228
c 74.048,-36.754285714285714 45.568000000000005,128.64 58.7607294734285,212.93092417429148 c -0.0,58.20453113831252 28.480000000000004,255.54298029293608 -79.39570357318007,212.66298029293608
c -16.72428584598227,-36.754285714285714 -75.56982808418297,0 -75.56982808418297,93.6227339927782
c 0,82.59349040536085 159.11305523599688,119.34777611964657 164.6277855498691,82.59349040536085
c 74.048,-36.754285714285714 45.568000000000005,128.64 -9.662253892506044,223.69222388035342 c 0.0,52.427538784822865 -28.480000000000004,271.517461213067 19.302027344560802,228.63746121306698
c 100.6077330352303,-36.754285714285714 141.59748880915544,0 141.59748880915544,77.6482530726473
c 0,91.63480890582395 -127.32666394636401,128.38909462010966 -130.77496242479464,91.63480890582395
c -74.048,-36.754285714285714 -45.568000000000005,128.64 -30.124553728921597,214.65090537989033 c 0.0,169.67643432463646 -28.480000000000004,303.01958383850166 58.971743607445404,260.13958383850166
c 41.11922635722045,-36.754285714285714 118.00225156935647,0 118.00225156935647,46.14613044721261
c 0,72.01514730944473 -104.27895257914221,108.76943302373044 -144.1214305130851,72.01514730944473
c -74.048,-36.754285714285714 -45.568000000000005,128.64 -32.85256466371678,234.27056697626955 c 0.0,100.67441855488319 -28.480000000000004,285.6570149518821 59.60460285685455,242.7770149518821
c 79.86570149849203,-36.754285714285714 110.00253245269343,0 110.00253245269343,63.50869933383217
c 0,90.6316195773374 -86.81815102815597,127.38590529162312 -142.95373523236975,90.6316195773374
c -74.048,-36.754285714285714 -45.568000000000005,128.64 -26.65340007717822,215.65409470837687 L 0 4288 " fill="none" stroke="black" stroke-width="0.1" style="vector-effect:non-scaling-stroke;"/></g><g><path d="M 0 0  L 2278.400000 0  c -0.0,80.46323988366873 28.480000000000004,298.07797262967705 5.483554078293423,255.19797262967705
c -47.11011958734812,-36.754285714285714 -144.44559355774905,0 -144.44559355774905,51.087741656037224
c 0,78.58769978932588 12.168669251956416,115.3419855036116 15.930548285744635,78.58769978932588
c 74.048,-36.754285714285714 45.568000000000005,128.64 123.03149119371099,227.6980144963884 c -0.0,141.7585795861588 28.480000000000004,299.6007121253395 -75.78046188579835,256.7207121253395
c -25.172021057519096,-36.754285714285714 -103.103434321086,0 -103.103434321086,49.565002160374775
c 0,48.10050281460326 45.581340739067066,84.85478852888897 59.886133608461435,48.10050281460326
c 74.048,-36.754285714285714 45.568000000000005,128.64 118.99776259842291,258.185211471111 c -0.0,64.27308248976799 28.480000000000004,285.70136539870776 -9.192194497462777,242.82136539870777
c -121.55205232048334,-36.754285714285714 -130.22476886607635,0 -130.22476886607635,63.46434888700651
c 0,90.22424827806122 66.37996055887984,126.97853399234694 66.86629895655913,90.22424827806122
c 74.048,-36.754285714285714 45.568000000000005,128.64 72.55066440697998,216.06146600765305 c -0.0,174.42574167495525 28.480000000000004,302.2074135277606 -109.80488726875494,259.3274135277606
c -44.76041522170045,-36.754285714285714 -73.2985052742783,0 -73.2985052742783,46.95830075795368
c 0,56.19524430115871 50.46813266758995,92.94953001544442 73.62989732912563,56.19524430115871
c 74.048,-36.754285714285714 45.568000000000005,128.64 109.47349521390761,250.09046998455557 c 0.0,151.31284644855265 -28.480000000000004,267.3225483793065 71.95593495728063,224.4425483793065
c 45.53733780549994,-36.754285714285714 77.367345665911,0 77.367345665911,81.84316590640779
c 0,64.66605925896442 -68.59545307573208,101.42034497325014 -125.86524324221016,64.66605925896442
c -74.048,-36.754285714285714 -45.568000000000005,128.64 -23.45803738098148,241.61965502674985 c 0.0,152.8976281105846 -28.480000000000004,293.72564414632495 105.39381650010925,250.84564414632493
c 35.047191413528175,-36.754285714285714 62.56540312319409,0 62.56540312319409,55.44007013938935
c 0,90.41832426090576 -43.24161492953762,127.17260997519148 -158.828652209107,90.41832426090576
c -74.048,-36.754285714285714 -45.568000000000005,128.64 -9.13056741419635,215.86739002480851 c 0.0,74.16223162363966 -28.480000000000004,270.23461991880913 52.07043289754652,227.35461991880914
c 45.02287846659569,-36.754285714285714 131.1751835645795,0 131.1751835645795,78.93109436690514
c 0,83.00168967569647 -128.67859884302902,119.75597538998218 -181.35326099726103,83.00168967569647
c -74.048,-36.754285714285714 -45.568000000000005,128.64 -1.892355464864977,223.2840246100178 L 0 4288 " fill="none" stroke="black" stroke-width="0.1" style="vector-effect:non-scaling-stroke;"/></g></g><g><g><path d="M 0 0  L 0 612.571429  c 30.764806586778583,0.0 255.76403215042626,-30.62857142857143 215.89203215042625,37.804113085177285
c -34.176,109.29536730210525 0,163.8559386162833 68.90796784957377,163.8559386162833
c 59.44826259839334,0 93.62426259839334,-40.3151879060814 59.44826259839334,-160.6322168515402
c -34.176,-79.63428571428571 119.616,-49.005714285714284 225.35173740160667,-41.027834849920396 c 29.59928400373071,0.0 260.51798872890896,-30.62857142857143 220.64598872890897,24.304254316989102
c -34.176,145.25046201998077 0,160.02421767783852 64.15401127109104,160.02421767783852
c 73.94932529702356,0 108.12532529702356,-18.76363409731054 73.94932529702356,-52.10726174533423
c -34.176,-79.63428571428571 119.616,-49.005714285714284 210.85067470297645,-132.2212102494934 c 145.61116110664065,-0.0 242.47777032178772,30.62857142857143 202.6057703217877,8.674522584892442
c -34.176,-112.97827137644113 0,-178.85745427288163 82.19422967821231,-178.85745427288163
c 49.24757440430386,0 83.42357440430386,72.53919853687944 49.24757440430386,162.7079833416162
c -34.176,79.63428571428571 119.616,49.005714285714284 235.55242559569615,7.474948346372997 c 150.56904391800805,0.0 260.4187667265412,-30.62857142857143 220.54676672654122,127.40733043339947
c -34.176,11.606925035404895 0,31.176124674567347 64.25323327345879,31.176124674567347
c 53.31810343718348,0 87.49410343718348,-50.47672685515935 53.31810343718348,-154.7521264865127
c -34.176,-79.63428571428571 119.616,-49.005714285714284 231.48189656281653,-3.831328621454105 c 65.72105753889579,0.0 240.96878239081235,-30.62857142857143 201.09678239081234,112.65914424025294
c -34.176,31.31368299342867 0,44.35128977520722 83.70321760918767,44.35128977520722
c 43.02388178198282,0 77.19988178198282,-49.73462556052293 43.02388178198282,-69.64648923727181
c -34.176,-79.63428571428571 119.616,-49.005714285714284 241.7761182180172,-87.36394477818835 L 2848 0 " fill="none" stroke="black" stroke-width="0.1" style="vector-effect:non-scaling-stroke;"/></g><g><path d="M 0 0  L 0 1225.142857  c 156.942115007943,-0.0 259.7153848246,30.62857142857143 219.8433848246,-8.675388760306467
c -34.176,-106.26281140141212 0,-169.03795643371726 64.9566151754,-169.03795643371726
c 85.09910688627338,0 119.27510688627338,147.7146675686838 85.09910688627338,165.4112574226142
c -34.176,79.63428571428571 119.616,49.005714285714284 199.70089311372664,12.302087771409532 c 99.58923220821345,0.0 235.16918289958983,-30.62857142857143 195.2971828995898,34.84676325517914
c -34.176,33.50579366311622 0,124.01555382103639 89.5028171004102,124.01555382103639
c 87.0658650234833,0 121.2418650234833,-37.53986043624455 87.0658650234833,-92.3064116308831
c -34.176,-79.63428571428571 119.616,-49.005714285714284 197.7341349765167,-66.55590544533243 c 99.16496263277364,-0.0 248.67554447057583,30.62857142857143 208.80354447057582,-4.914413392505038
c -34.176,-110.80037608964022 0,-173.19475543067279 75.9964555294242,-173.19475543067279
c 86.1585065037574,0 120.3345065037574,102.82887816250951 86.1585065037574,105.71320292452151
c -34.176,79.63428571428571 119.616,49.005714285714284 198.64149349624262,72.3959658986563 c 73.1238442804387,0.0 235.17044192020822,-30.62857142857143 195.2984419202082,62.14071135453707
c -34.176,107.9691576100697 0,131.90859732106622 89.5015580797918,131.90859732106622
c 65.06408365406696,0 99.24008365406696,-37.26849488548368 65.06408365406696,-68.23575478574824
c -34.176,-79.63428571428571 119.616,-49.005714285714284 219.73591634593305,-125.81355388985506 c 73.88580225149624,-0.0 246.6639415673837,30.62857142857143 206.79194156738367,11.677986216001461
c -34.176,-107.57206381787243 0,-205.15195672411141 78.00805843261634,-205.15195672411141
c 43.119821060396816,0 77.29582106039682,170.77134677995699 43.119821060396816,180.27036129676847
c -34.176,79.63428571428571 119.616,49.005714285714284 241.6801789396032,13.203609211341472 L 2848 0 " fill="none" stroke="black" stroke-width="0.1" style="vector-effect:non-scaling-stroke;"/></g><g><path d="M 0 0  L 0 1837.714286  c 108.1307541613083,0.0 252.19503837113368,-30.62857142857143 212.32303837113366,59.295244931869206
c -34.176,69.34287789775736 0,124.63390341521699 72.47696162886635,124.63390341521699
c 67.35725836759286,0 101.53325836759286,-91.55764785937554 67.35725836759286,-130.2124767195591
c -34.176,-79.63428571428571 119.616,-49.005714285714284 217.44274163240715,-53.71667162752709 c 39.85813146445591,-0.0 263.96660233364594,30.62857142857143 224.09460233364595,11.942266267659395
c -34.176,-111.13243735569618 0,-189.6149894767509 60.70539766635406,-189.6149894767509
c 48.03974040410674,0 82.21574040410674,44.53514792475631 48.03974040410674,138.387306229023
c -34.176,79.63428571428571 119.616,49.005714285714284 236.76025959589327,39.285416980068504 c 68.4343618435619,0.0 253.6933175523963,-30.62857142857143 213.8213175523963,95.41122266481392
c -34.176,74.97404870241793 0,107.06559577631273 70.97868244760372,107.06559577631273
c 50.9473466612954,0 85.1233466612954,-32.447255154448975 50.9473466612954,-137.60309596858383
c -34.176,-79.63428571428571 119.616,-49.005714285714284 233.8526533387046,-64.87372247254282 c 114.61420312062107,0.0 274.37379246230563,-30.62857142857143 234.50179246230564,94.22167064579082
c -34.176,42.21102759252835 0,81.90749337249815 50.29820753769437,81.90749337249815
c 57.456870478447854,0 91.63287047844786,-128.62258951179535 57.456870478447854,-142.82164043510224
c -34.176,-79.63428571428571 119.616,-49.005714285714284 227.34312952155216,-33.307523583186736 c 139.79952046346006,-0.0 234.18673289384392,30.62857142857143 194.3147328938439,-121.51983341448329
c -34.176,-32.274568260267586 0,-41.646905760486845 90.4852671061561,-41.646905760486845
c 60.08937152921692,0 94.26537152921692,27.189571341535984 60.08937152921692,48.47830649250281
c -34.176,79.63428571428571 119.616,49.005714285714284 224.7106284707831,114.68843268246732 L 2848 0 " fill="none" stroke="black" stroke-width="0.1" style="vector-effect:non-scaling-stroke;"/></g><g><path d="M 0 0  L 0 2450.285714  c 32.66735529104842,0.0 233.61862614675312,-30.62857142857143 193.7466261467531,78.49552025133998
c -34.176,38.926118015977586 0,81.21033922348171 91.05337385324691,81.21033922348171
c 67.73148617895606,0 101.90748617895606,-17.240613434897554 67.73148617895606,-33.001188825209894
c -34.176,-79.63428571428571 119.616,-49.005714285714284 217.06851382104395,-126.7046706496118 c 74.0440201221174,-0.0 253.83400033763536,30.62857142857143 213.96200033763535,-4.746522836051126
c -34.176,-144.4983877130633 0,-159.87854752847434 70.83799966236467,-159.87854752847434
c 90.87900865235935,0 125.05500865235935,36.74130574207982 90.87900865235935,57.85811477591565
c -34.176,79.63428571428571 119.616,49.005714285714284 193.92099134764067,106.76695558860982 c 66.73425765872368,0.0 244.13721802062042,-30.62857142857143 204.2652180206204,112.9347465568777
c -34.176,35.23565612686174 0,73.67457495632745 80.5347819793796,73.67457495632745
c 71.59432712012403,0 105.77032712012404,-18.418165457639414 71.59432712012403,-67.42095296008374
c -34.176,-79.63428571428571 119.616,-49.005714285714284 213.20567287987598,-119.1883685531214 c 81.23273628420229,0.0 250.08864463739366,-30.62857142857143 210.21664463739364,113.38244203856434
c -34.176,33.10468239614958 0,38.38625643295407 74.58335536260637,38.38625643295407
c 81.61268236740625,0 115.78868236740625,-52.83815864184692 81.61268236740625,-158.01652551121114
c -34.176,-79.63428571428571 119.616,-49.005714285714284 203.18731763259376,6.247827039692737 c 140.68930367771134,-0.0 260.13041341308553,30.62857142857143 220.25841341308552,-67.57449164544053
c -34.176,-50.582850492647786 0,-113.27296794153932 64.54158658691449,-113.27296794153932
c 52.21978165838584,0 86.39578165838584,62.793027963276366 52.21978165838584,162.60881559565976
c -34.176,79.63428571428571 119.616,49.005714285714284 232.58021834161417,18.23864399132009 L 2848 0 " fill="none" stroke="black" stroke-width="0.1" style="vector-effect:non-scaling-stroke;"/></g><g><path d="M 0 0  L 0 3062.857143  c 155.4455046653883,-0.0 245.3885793652435,30.62857142857143 205.51657936524347,-98.82953041223375
c -34.176,-39.109393593106695 0,-77.57524176812042 79.28342063475654,-77.57524176812042
c 58.870701515885514,0 93.04670151588552,45.858554037832526 58.870701515885514,136.6954836495411
c -34.176,79.63428571428571 119.616,49.005714285714284 225.9292984841145,39.70928853081307 c 125.32581858597763,0.0 263.87100482399114,-30.62857142857143 223.99900482399116,104.66243132663863
c -34.176,55.19442524073554 0,71.0019234674829 60.800995176008854,71.0019234674829
c 77.3887165159071,0 111.56471651590711,-48.62330162082828 77.3887165159071,-123.01682295102705
c -34.176,-79.63428571428571 119.616,-49.005714285714284 207.4112834840929,-52.64753184309447 c 43.51358492786454,0.0 252.97156633625406,-30.62857142857143 213.09956633625404,41.70695983557746
c -34.176,116.78996040102749 0,130.09327776988016 71.70043366374597,130.09327776988016
c 86.8785289898945,0 121.05452898989451,-60.525527882311486 86.8785289898945,-81.13897202598325
c -34.176,-79.63428571428571 119.616,-49.005714285714284 197.9214710101055,-90.66126557947437 c 127.54576927100067,-0.0 234.9183394585811,30.62857142857143 195.0463394585811,-15.655944471444615
c -34.176,-68.14233322771145 0,-141.31427194549434 89.75366054141892,-141.31427194549434
c 51.060664226039876,0 85.23666422603988,24.1687921822339 51.060664226039876,107.67604307285453
c -34.176,79.63428571428571 119.616,49.005714285714284 233.73933577396014,49.29417334408444 c 134.9748437506909,0.0 270.1999469836079,-30.62857142857143 230.32794698360792,109.52789785543294
c -34.176,35.18508559107762 0,51.887978254190074 54.472053016392096,51.887978254190074
c 45.49553279102878,0 79.67153279102878,-59.60677032931665 45.49553279102878,-61.103762234162915
c -34.176,-79.63428571428571 119.616,-49.005714285714284 239.30446720897123,-100.3121138754601 L 2848 0 " fill="none" stroke="black" stroke-width="0.1" style="vector-effect:non-scaling-stroke;"/></g><g><path d="M 0 0  L 0 3675.428571  c 66.5990528907369,0.0 282.7344430981581,-30.62857142857143 242.8624430981581,105.72794582261996
c -34.176,20.49933421756088 0,59.761341883689155 41.9375569018419,59.761341883689155
c 58.60058571523092,0 92.77658571523092,-120.79145508298208 58.60058571523092,-144.99568029626323
c -34.176,-79.63428571428571 119.616,-49.005714285714284 226.1994142847691,-20.493607410045882 c 42.490044805969404,0.0 265.0791773928557,-30.62857142857143 225.20717739285567,66.62871301723796
c -34.176,56.55230507578558 0,130.19344001431813 59.59282260714434,130.19344001431813
c 83.61347378820494,0 117.78947378820494,-109.73765324513712 83.61347378820494,-131.65369951064935
c -34.176,-79.63428571428571 119.616,-49.005714285714284 201.18652621179507,-65.16845352090672 c 41.38927438222383,-0.0 243.41035064359207,30.62857142857143 203.53835064359205,-69.01326917310294
c -34.176,-60.93364537080659 0,-109.74133928031404 81.26164935640796,-109.74133928031404
c 58.334216090210475,0 92.51021609021048,129.19853245404715 58.334216090210475,152.94174790889528
c -34.176,79.63428571428571 119.616,49.005714285714284 226.46578390978954,25.812860544521698 c 35.95169816764463,-0.0 271.57933260228475,30.62857142857143 231.70733260228477,-24.10261836860717
c -34.176,-129.88208448593707 0,-155.68813274151412 53.092667397715246,-155.68813274151412
c 85.10209728118434,0 119.27809728118434,27.87636212697628 85.10209728118434,67.51100576054
c -34.176,79.63428571428571 119.616,49.005714285714284 199.69790271881567,112.2797453495813 c 145.5320936190074,0.0 266.59860062344785,-30.62857142857143 226.72660062344787,26.613450950085515
c -34.176,121.00485533351227 0,127.38994207040659 58.073399376552146,127.38994207040659
c 57.72428002825188,0 91.90028002825188,-62.06381410844959 57.72428002825188,-101.09286362674754
c -34.176,-79.63428571428571 119.616,-49.005714285714284 227.07571997174813,-52.910529393744554 L 2848 0 " fill="none" stroke="black" stroke-width="0.1" style="vector-effect:non-scaling-stroke;"/></g></g></svg>