<svg baseProfile="full" height="853" preserveAspectRatio="none" shape-rendering="geometricPrecision" version="1.1" viewBox="0,0,1280,853" width="1280" xmlns="http://www.w3.org/2000/svg" xmlns:ev="http://www.w3.org/2001/xml-events" xmlns:xlink="http://www.w3.org/1999/xlink"><title>Jigsaw puzzle piece clips</title><desc>Created with the piecemaker. Piece count: 40</desc><defs /><g><g><rect fill="white" height="853" width="1280" x="0" y="0" /></g></g><g><g><path d="M 0 0  L 160.000000 0  c 0.0,43.58885867707082 -8.0,83.55559262369835 8.38031598818161,71.61359262369834&#10;c 23.744066324675348,-10.235999999999999 38.192040505671486,0 38.192040505671486,13.68640737630166&#10;c 0,14.26986361693504 -34.53797909194382,24.505863616935038 -46.49539118666405,14.26986361693504&#10;c -20.8,-10.235999999999999 -12.8,35.826 -0.07696530718904171,71.03013638306496 c 0.0,49.0051490204403 -8.0,72.08506478142507 31.543533815921005,60.14306478142507&#10;c 10.521162170387896,-10.235999999999999 17.266641616394505,0 17.266641616394505,25.15693521857493&#10;c 0,16.924997811055533 -20.732121489424372,27.16099781105553 -47.002078425720235,16.924997811055533&#10;c -20.8,-10.235999999999999 -12.8,35.826 -1.8080970065952755,68.37500218894446 c 0.0,12.844599860976185 -8.0,74.01313143353119 28.33341950610969,62.071131433531185&#10;c 18.540118262095987,-10.235999999999999 18.362115501556605,0 18.362115501556605,23.22886856646881&#10;c 0,17.966882929711588 -14.16918240717884,28.202882929711585 -26.234327990156814,17.966882929711588&#10;c -20.8,-10.235999999999999 -12.8,35.826 -20.46120701750948,67.33311707028841 c -0.0,20.40311410886819 8.0,84.01200376107275 -2.2855768403846604,72.07000376107275&#10;c -36.8376656413692,-10.235999999999999 -44.897215551464114,0 -44.897215551464114,13.229996238927242&#10;c 0,26.314209849462728 29.61975397779742,36.550209849462725 43.750984627543495,26.314209849462728&#10;c 20.8,-10.235999999999999 12.8,35.826 3.431807764305283,58.98579015053727 c 0.0,40.994785777951705 -8.0,74.42628328023045 6.4565701170381224,62.48428328023044&#10;c 28.06685520252197,-10.235999999999999 36.9032045694524,0 36.9032045694524,22.815716719769554&#10;c 0,16.885094347656533 -9.0061468784264,27.12109434765653 -24.757223198394264,16.885094347656533&#10;c -20.8,-10.235999999999999 -12.8,35.826 -18.60255148809626,68.41490565234346 L 0 853 " fill="none" stroke="black" stroke-width="0.1" style="vector-effect:non-scaling-stroke;" /></g><g><path d="M 0 0  L 320.000000 0  c 0.0,37.032601893994574 -8.0,78.17209890951216 33.28950809340719,66.23009890951217&#10;c 4.935095573952578,-10.235999999999999 19.70394724840223,0 19.70394724840223,19.069901090487832&#10;c 0,13.247912591330163 -26.661984504853127,23.48391259133016 -45.566776162061124,13.247912591330163&#10;c -20.8,-10.235999999999999 -12.8,35.826 -7.426679179748298,72.05208740866983 c 0.0,22.90712356375733 -8.0,77.33654806423723 23.637148707894088,65.39454806423723&#10;c 15.45833651048797,-10.235999999999999 25.99396272348773,0 25.99396272348773,19.90545193576277&#10;c 0,15.384427721390495 -34.67172188672439,25.62042772139049 -40.49524163537099,15.384427721390495&#10;c -20.8,-10.235999999999999 -12.8,35.826 -9.13586979601083,69.9155722786095 c -0.0,22.256961927751085 8.0,78.59105592595733 -2.800528894718621,66.64905592595733&#10;c -33.613858675024574,-10.235999999999999 -45.4663809685194,0 -45.4663809685194,18.65094407404267&#10;c 0,19.92281252498887 10.780456891485342,30.158812524988868 15.500285539527603,19.92281252498887&#10;c 20.8,-10.235999999999999 12.8,35.826 32.766624323710424,65.37718747501113 c -0.0,16.393883827410583 8.0,72.36806165590315 -5.264029274277842,60.42606165590314&#10;c -30.99667578562822,-10.235999999999999 -48.69708528922976,0 -48.69708528922976,24.873938344096857&#10;c 0,12.581614309197434 8.462760055946886,22.81761430919743 29.75573311122861,12.581614309197434&#10;c 20.8,-10.235999999999999 12.8,35.826 24.205381452278996,72.71838569080256 c 0.0,40.76915934305424 -8.0,84.99057527596872 0.3643731046468929,73.04857527596872&#10;c 17.938276934304728,-10.235999999999999 47.655648793462845,0 47.655648793462845,12.251424724031281&#10;c 0,13.236335622944225 -15.870834580276927,23.47233562294422 -18.90114594300876,13.236335622944225&#10;c -20.8,-10.235999999999999 -12.8,35.826 -29.11887595510098,72.06366437705577 L 0 853 " fill="none" stroke="black" stroke-width="0.1" style="vector-effect:non-scaling-stroke;" /></g><g><path d="M 0 0  L 480.000000 0  c 0.0,10.135543834638932 -8.0,84.55071377641204 -1.6812125605447095,72.60871377641205&#10;c 12.464481208558107,-10.235999999999999 43.81200970636115,0 43.81200970636115,12.691286223587952&#10;c 0,26.674526729215017 -18.16560045469342,36.910526729215015 -36.96697585159215,26.674526729215017&#10;c -20.8,-10.235999999999999 -12.8,35.826 -5.163821294224292,58.62547327078498 c 0.0,46.882564911961296 -8.0,77.73558654682085 21.64228286196547,65.79358654682086&#10;c 23.518414437320736,-10.235999999999999 24.044867271396093,0 24.044867271396093,19.506413453179135&#10;c 0,16.007409748247966 -13.396761302108226,26.243409748247963 -30.032440361215595,16.007409748247966&#10;c -20.8,-10.235999999999999 -12.8,35.826 -15.654709772145967,69.29259025175203 c 0.0,28.516276445776676 -8.0,82.62222825723654 21.930480981653396,70.68022825723654&#10;c 13.480501420010592,-10.235999999999999 29.335097099393572,0 29.335097099393572,14.619771742763461&#10;c 0,19.97358615360008 -14.656881605171176,30.20958615360008 -23.905589697471367,19.97358615360008&#10;c -20.8,-10.235999999999999 -12.8,35.826 -27.3599883835756,65.32641384639992 c 0.0,36.849392059457784 -8.0,72.59595459016526 34.89053672105566,60.65395459016527&#10;c 1.6220968206221058,-10.235999999999999 5.920376614767854,0 5.920376614767854,24.646045409834727&#10;c 0,16.2846314994663 -3.2665168216834934,26.520631499466297 -9.821877397516339,16.2846314994663&#10;c -20.8,-10.235999999999999 -12.8,35.826 -30.989035938307175,69.0153685005337 c 0.0,33.60939604065991 -8.0,71.17990615999912 18.214648797836468,59.23790615999912&#10;c 6.445969744939337,-10.235999999999999 21.08166445708681,0 21.08166445708681,26.062093840000877&#10;c 0,26.709307236313578 -11.953412670174563,36.945307236313575 -13.763857818814856,26.709307236313578&#10;c -20.8,-10.235999999999999 -12.8,35.826 -25.53245543610842,58.59069276368642 L 0 853 " fill="none" stroke="black" stroke-width="0.1" style="vector-effect:non-scaling-stroke;" /></g><g><path d="M 0 0  L 640.000000 0  c 0.0,18.061892525299818 -8.0,70.65916033510337 27.537723512575454,58.71716033510337&#10;c 10.37294454558511,-10.235999999999999 12.330221373033588,0 12.330221373033588,26.582839664896625&#10;c 0,13.658975278256023 -6.662193914195342,23.89497527825602 -8.899459568281927,13.658975278256023&#10;c -20.8,-10.235999999999999 -12.8,35.826 -30.968485317327115,71.64102472174397 c -0.0,45.03769696696095 8.0,81.33672961886194 -9.11970665587748,69.39472961886193&#10;c -11.817222912181906,-10.235999999999999 -32.217881279764725,0 -32.217881279764725,15.905270381138067&#10;c 0,13.176185368058597 9.772932852301125,23.412185368058594 12.42552285261823,13.176185368058597&#10;c 20.8,-10.235999999999999 12.8,35.826 28.912065083023975,72.1238146319414 c 0.0,21.947685428904066 -8.0,81.79107641169546 -0.26485782534278024,69.84907641169546&#10;c 43.476508765729996,-10.235999999999999 43.36563575478012,0 43.36563575478012,15.450923588304533&#10;c 0,17.135239204433773 -5.320880921460319,27.37123920443377 -10.629763889984424,17.135239204433773&#10;c -20.8,-10.235999999999999 -12.8,35.826 -32.47101403945292,68.16476079556622 c 0.0,45.05051815322535 -8.0,82.69444244819636 14.351470956217295,70.75244244819635&#10;c 12.078959969994447,-10.235999999999999 25.27863898104454,0 25.27863898104454,14.54755755180365&#10;c 0,13.494999455377467 -4.841206052437165,23.730999455377464 -16.254913992359945,13.494999455377467&#10;c -20.8,-10.235999999999999 -12.8,35.826 -23.37519594490189,71.80500054462253 c 0.0,18.962540470832387 -8.0,78.69538463582288 22.26705799926011,66.75338463582287&#10;c 20.520961003553364,-10.235999999999999 24.68338957971182,0 24.68338957971182,18.54661536417713&#10;c 0,18.03549004120238 -10.786213882735103,28.271490041202377 -17.10336259312705,18.03549004120238&#10;c -20.8,-10.235999999999999 -12.8,35.826 -29.847084985844884,67.26450995879762 L 0 853 " fill="none" stroke="black" stroke-width="0.1" style="vector-effect:non-scaling-stroke;" /></g><g><path d="M 0 0  L 800.000000 0  c -0.0,20.042241870221112 8.0,75.8623439925193 -14.396487884260292,63.9203439925193&#10;c -30.703886915658416,-10.235999999999999 -34.42897779552317,0 -34.42897779552317,21.379656007480698&#10;c 0,13.146576812419113 20.875116204304728,23.38257681241911 25.144711409794038,13.146576812419113&#10;c 20.8,-10.235999999999999 12.8,35.826 23.680754269989425,72.15342318758088 c 0.0,17.314008593837606 -8.0,70.7383041559277 1.4752205899061304,58.7963041559277&#10;c 18.57137858009813,-10.235999999999999 41.798595744673804,0 41.798595744673804,26.503695844072297&#10;c 0,23.972769047608736 -25.396969319602107,34.20876904760873 -41.93642458157952,23.972769047608736&#10;c -20.8,-10.235999999999999 -12.8,35.826 -1.3373917530004107,61.32723095239126 c -0.0,13.32464214799933 8.0,76.76059970335933 -12.287176628591501,64.81859970335934&#10;c -26.238122423990593,-10.235999999999999 -37.181067464061215,0 -37.181067464061215,20.481400296640658&#10;c 0,21.120968976506717 18.709845297129547,31.356968976506714 27.28325354494999,21.120968976506717&#10;c 20.8,-10.235999999999999 12.8,35.826 22.18499054770273,64.17903102349328 c -0.0,13.467222091823507 8.0,84.27190909351665 -5.550362423859849,72.32990909351665&#10;c -33.64217803898342,-10.235999999999999 -41.25638534232624,0 -41.25638534232624,12.97009090648335&#10;c 0,23.158105870261068 23.96597517419603,33.394105870261065 30.502260337287474,23.158105870261068&#10;c 20.8,-10.235999999999999 12.8,35.826 16.304487428898618,62.14189412973893 c 0.0,32.51541964529205 -8.0,80.0713104066904 8.530411293716657,68.12931040669041&#10;c 29.032161451610577,-10.235999999999999 42.561478290782546,0 42.561478290782546,17.17068959330959&#10;c 0,23.94636212548008 -15.67128499570652,34.182362125480076 -26.81558430184985,23.94636212548008&#10;c -20.8,-10.235999999999999 -12.8,35.826 -24.27630528264935,61.35363787451992 L 0 853 " fill="none" stroke="black" stroke-width="0.1" style="vector-effect:non-scaling-stroke;" /></g><g><path d="M 0 0  L 960.000000 0  c -0.0,29.015917619703192 8.0,74.60047368431299 -1.239391708176751,62.65847368431298&#10;c -21.015042881867522,-10.235999999999999 -45.58759551532641,0 -45.58759551532641,22.641526315687017&#10;c 0,21.619171623820918 16.55331425608463,31.855171623820915 19.49881391237659,21.619171623820918&#10;c 20.8,-10.235999999999999 12.8,35.826 27.328173311126577,63.68082837617908 c -0.0,30.066267700792732 8.0,77.88895230904546 -18.711565763525424,65.94695230904546&#10;c -15.991211096048824,-10.235999999999999 -23.04198209553714,0 -23.04198209553714,19.35304769095454&#10;c 0,18.155949695416453 8.363949421585072,28.39194969541645 37.1176792897652,18.155949695416453&#10;c 20.8,-10.235999999999999 12.8,35.826 4.635868569297365,67.14405030458354 c 0.0,16.445998459870854 -8.0,84.19764315409901 2.9103831726921774,72.25564315409902&#10;c 9.56576967306707,-10.235999999999999 41.81835483442228,0 41.81835483442228,13.044356845900978&#10;c 0,18.145663883272732 -25.675522863895555,28.38166388327273 -28.607089252476925,18.145663883272732&#10;c -20.8,-10.235999999999999 -12.8,35.826 -16.121648754637533,67.15433611672726 c 0.0,23.53721425355959 -8.0,71.07998741554357 6.353124379490438,59.13798741554357&#10;c 24.581627492952798,-10.235999999999999 36.10519933731199,0 36.10519933731199,26.162012584456427&#10;c 0,26.828372391562212 -8.131473408425942,37.06437239156221 -8.630328509834342,26.828372391562212&#10;c -20.8,-10.235999999999999 -12.8,35.826 -33.82799520696808,58.471627608437785 c 0.0,45.53204361803727 -8.0,74.3944797310034 -3.0340543350638063,62.4524797310034&#10;c 47.363569560414774,-10.235999999999999 47.003779922854285,0 47.003779922854285,22.847520268996597&#10;c 0,16.506778642141285 -14.571165624201342,26.742778642141282 -16.729609920294365,16.506778642141285&#10;c -20.8,-10.235999999999999 -12.8,35.826 -27.240115667496113,68.79322135785871 L 0 853 " fill="none" stroke="black" stroke-width="0.1" style="vector-effect:non-scaling-stroke;" /></g><g><path d="M 0 0  L 1120.000000 0  c 0.0,9.512751378858718 -8.0,75.49695293675964 0.07172476855208443,63.55495293675965&#10;c 28.40312776320136,-10.235999999999999 52.59223042705107,0 52.59223042705107,21.74504706324035&#10;c 0,25.014309955979925 -25.83248358538973,35.25030995597992 -32.667027650758385,25.014309955979925&#10;c -20.8,-10.235999999999999 -12.8,35.826 -19.996927544844773,60.28569004402007 c 0.0,34.5627101284647 -8.0,73.97951344192245 -2.740679241300062,62.03751344192245&#10;c 42.30155243446176,-10.235999999999999 55.56752914890057,0 55.56752914890057,23.262486558077548&#10;c 0,26.907461614645356 -8.193153823857516,37.143461614645354 -34.30931908485994,26.907461614645356&#10;c -20.8,-10.235999999999999 -12.8,35.826 -18.51753082274056,58.39253838535464 c -0.0,17.159382815349645 8.0,84.596537370742 -1.7010178030880678,72.65453737074199&#10;c -11.669546877054998,-10.235999999999999 -45.39310247293974,0 -45.39310247293974,12.645462629258006&#10;c 0,13.182368359870154 25.90918697349993,23.41836835987015 41.57093987082295,13.182368359870154&#10;c 20.8,-10.235999999999999 12.8,35.826 5.523180405204862,72.11763164012984 c -0.0,42.45835794169735 8.0,73.84087040211239 -5.444581471371941,61.89887040211238&#10;c -32.92121683485167,-10.235999999999999 -41.572045934724414,0 -41.572045934724414,23.401129597887618&#10;c 0,24.081436765640532 30.243859998262863,34.31743676564053 45.99194129264411,24.081436765640532&#10;c 20.8,-10.235999999999999 12.8,35.826 1.0246861134522476,61.218563234359465 c 0.0,26.406726392893326 -8.0,72.09872543086414 -1.2339025079040442,60.156725430864135&#10;c 37.44720581990947,-10.235999999999999 46.93247311759997,0 46.93247311759997,25.143274569135862&#10;c 0,21.425785787560756 -9.492891741815972,31.661785787560753 -14.46005829135644,21.425785787560756&#10;c -20.8,-10.235999999999999 -12.8,35.826 -31.238512318339488,63.87421421243924 L 0 853 " fill="none" stroke="black" stroke-width="0.1" style="vector-effect:non-scaling-stroke;" /></g></g><g><g><path d="M 0 0  L 0 170.600000  c 39.757181480414474,-0.0 70.08195974992034,8.53 58.88195974992034,0.17759710791683853&#10;c -9.6,-15.273086119831405 0,-46.22213131506248 21.11804025007966,-46.22213131506248&#10;c 11.336511392091097,0 20.9365113920911,12.62068387849809 11.336511392091097,29.89641161744105&#10;c -9.6,22.178 33.6,13.648 68.6634886079089,16.148122589704588 c 36.36735257256505,-0.0 66.09473101220475,8.53 54.89473101220475,-26.233605539178715&#10;c -9.6,-20.57436314266866 0,-20.767982282878155 25.10526898779525,-20.767982282878155&#10;c 11.633558197412782,0 21.233558197412783,11.136702701889927 11.633558197412782,47.66623577548087&#10;c -9.6,22.178 33.6,13.648 68.36644180258722,-0.6646479534240015 c 40.304872492259975,0.0 67.31666477639666,-8.53 56.11666477639666,-2.0400589983617845&#10;c -9.6,10.451008307967824 0,43.092069890694134 23.88333522360334,43.092069890694134&#10;c 23.088213694031467,0 32.68821369403147,-2.6705404852899903 23.088213694031467,-8.401850378704012&#10;c -9.6,-22.178 33.6,-13.648 56.91178630596853,-32.650160513628336 c 14.70465293391154,-0.0 71.76028479854342,8.53 60.56028479854342,-31.144987332795825&#10;c -9.6,-4.9443192430240215 0,-10.40190853374843 19.43971520145658,-10.40190853374843&#10;c 16.279089795077567,0 25.87908979507757,35.996972918044264 16.279089795077567,40.088930406145444&#10;c -9.6,22.178 33.6,13.648 63.72091020492243,1.4579654603988104 c 44.30097858726208,-0.0 67.83555602623532,8.53 56.63555602623532,-25.954868232902903&#10;c -9.6,-11.365340681212219 0,-24.484897386216858 23.36444397376468,-24.484897386216858&#10;c 18.569366725668118,0 28.16936672566812,14.489620567337315 18.569366725668118,42.584020288350494&#10;c -9.6,22.178 33.6,13.648 61.43063327433188,7.855745330769267 c 21.592595788391904,-0.0 74.89592402963413,8.53 63.695924029634135,-31.78850808849166&#10;c -9.6,-18.05636285948945 0,-24.846561539152155 16.304075970365865,-24.846561539152155&#10;c 24.613370135936123,0 34.213370135936124,15.40241699569044 24.613370135936123,40.84990350439243&#10;c -9.6,22.178 33.6,13.648 55.38662986406388,15.785166123251386 c 25.965328477596543,-0.0 77.34924563804483,8.53 66.14924563804483,0.9768864247776211&#10;c -9.6,-36.39315150008955 0,-46.82118408557424 13.850754361955168,-46.82118408557424&#10;c 23.3632112102633,0 32.9632112102633,10.333828254392069 23.3632112102633,15.487494341641924&#10;c -9.6,22.178 33.6,13.648 56.6367887897367,30.356803319154697 c 25.019146473659177,0.0 79.52492758986808,-8.53 68.32492758986808,12.289382422646698&#10;c -9.6,22.36683924432687 0,28.761295274837032 11.675072410131918,28.761295274837032&#10;c 15.531456047639665,0 25.131456047639666,-3.2168456300723287 15.531456047639665,-10.90718891445524&#10;c -9.6,-22.178 33.6,-13.648 64.46854395236033,-30.143488783028488 L 1280 0 " fill="none" stroke="black" stroke-width="0.1" style="vector-effect:non-scaling-stroke;" /></g><g><path d="M 0 0  L 0 341.200000  c 37.08414372215029,-0.0 73.60383548627344,8.53 62.40383548627344,-9.628562096740506&#10;c -9.6,-10.935507183612176 0,-48.05184493932619 17.596164513726563,-48.05184493932619&#10;c 17.730690371066643,0 27.330690371066645,42.41315734787836 17.730690371066643,48.1455597806519&#10;c -9.6,22.178 33.6,13.648 62.26930962893336,9.534847255414796 c 33.548127398708196,0.0 68.91970847609936,-8.53 57.71970847609936,27.731504384041067&#10;c -9.6,14.77578391237996 0,18.830497857264447 22.280291523900637,18.830497857264447&#10;c 23.52362945391397,0 33.12362945391397,-12.55577965184074 23.52362945391397,-21.081771771095795&#10;c -9.6,-22.178 33.6,-13.648 56.47637054608603,-25.48023047020972 c 9.628697810017146,0.0 75.17033809250837,-8.53 63.97033809250837,-2.966211033149112&#10;c -9.6,19.564502916940945 0,58.3024690226579 16.02966190749163,58.3024690226579&#10;c 23.936338684784687,0 33.53633868478469,-19.1982386761077 23.936338684784687,-39.52842662619955&#10;c -9.6,-22.178 33.6,-13.648 56.06366131521531,-15.80783136330924 c 39.548159894092464,0.0 76.99064783521494,-8.53 65.79064783521494,1.4000900032312091&#10;c -9.6,41.39272529925235 0,44.659807076701505 14.20935216478506,44.659807076701505&#10;c 24.40705038105625,0 34.00705038105625,-11.46779593370373 24.40705038105625,-17.833836276874944&#10;c -9.6,-22.178 33.6,-13.648 55.59294961894375,-28.226060803057766 c 13.33657140576095,0.0 70.58938866193965,-8.53 59.38938866193965,23.45034186318441&#10;c -9.6,8.774437118584462 0,29.212369355538453 20.61061133806035,29.212369355538453&#10;c 21.405556200814658,0 31.00555620081466,-12.061000656435432 21.405556200814658,-36.75105588785263&#10;c -9.6,-22.178 33.6,-13.648 58.59444379918534,-15.911655330870232 c 28.153747763625844,0.0 76.68237996173785,-8.53 65.48237996173785,29.698352187379072&#10;c -9.6,17.592813716961185 0,26.60371909247621 14.517620038262152,26.60371909247621&#10;c 13.48668513621952,0 23.086685136219522,-12.800604954447795 13.48668513621952,-41.49124086215523&#10;c -9.6,-22.178 33.6,-13.648 66.51331486378048,-14.810830417700053 c 16.534058063444007,0.0 68.45892595936861,-8.53 57.25892595936861,28.335359892902794&#10;c -9.6,17.66307536351541 0,24.531533834759443 22.74107404063139,24.531533834759443&#10;c 20.12113577180314,0 29.72113577180314,-16.3842701023841 20.12113577180314,-21.49359033263946&#10;c -9.6,-22.178 33.6,-13.648 59.87886422819686,-31.373303395022777 c 42.42577756782407,0.0 74.82371533248983,-8.53 63.62371533248982,29.23773232147714&#10;c -9.6,3.678233987864775 0,13.738237336916356 16.376284667510177,13.738237336916356&#10;c 13.842945579586058,0 23.44294557958606,-5.794385422925915 13.842945579586058,-11.440432231139447&#10;c -9.6,-22.178 33.6,-13.648 66.15705442041394,-31.53553742725405 L 1280 0 " fill="none" stroke="black" stroke-width="0.1" style="vector-effect:non-scaling-stroke;" /></g><g><path d="M 0 0  L 0 511.800000  c 24.760913075003316,0.0 66.51709026123247,-8.53 55.317090261232465,24.353187491850107&#10;c -9.6,10.681900673711274 0,29.049522350433662 24.682909738767535,29.049522350433662&#10;c 24.669092167694103,0 34.269092167694104,-33.98081769253448 24.669092167694103,-45.59301023410657&#10;c -9.6,-22.178 33.6,-13.648 55.3309078323059,-7.809699608177198 c 16.153249863486845,0.0 73.7769626393498,-8.53 62.5769626393498,20.656952645421093&#10;c -9.6,22.404770264130576 0,25.47668571758375 17.4230373606502,25.47668571758375&#10;c 21.328951686682203,0 30.928951686682204,-7.642743741405114 21.328951686682203,-10.5099949745143&#10;c -9.6,-22.178 33.6,-13.648 58.6710483133178,-35.62364338849054 c 22.876492017259004,-0.0 78.90326845638332,8.53 67.70326845638331,-12.496686724977188&#10;c -9.6,-7.686575328559366 0,-30.22554813544459 12.296731543616687,-30.22554813544459&#10;c 14.961307833558607,0 24.561307833558608,17.151230499856922 14.961307833558607,22.906256848817453&#10;c -9.6,22.178 33.6,13.648 65.0386921664414,19.815978011604326 c 16.760885029291508,-0.0 72.67610476002793,8.53 61.47610476002792,-3.6760742114394644&#10;c -9.6,-43.95648688452306 0,-45.651147925229296 18.523895239972077,-45.651147925229296&#10;c 11.451849173421266,0 21.051849173421267,39.327323248387536 11.451849173421266,48.3798378122112&#10;c -9.6,22.178 33.6,13.648 68.54815082657873,0.947384324457559 c 40.677708586332585,-0.0 69.90389283489282,8.53 58.70389283489282,-4.886783806813893&#10;c -9.6,-36.34791457914402 0,-40.61797828845629 21.29610716510718,-40.61797828845629&#10;c 25.425465622960218,0 35.02546562296022,3.764156441370386 25.425465622960218,15.774565700133063&#10;c -9.6,22.178 33.6,13.648 54.57453437703978,29.730196395137124 c 38.92757429948857,0.0 78.81782407604956,-8.53 67.61782407604956,23.339541127540556&#10;c -9.6,14.565374766152498 0,22.799429917298887 12.382175923950442,22.799429917298887&#10;c 24.132783219874085,0 33.73278321987409,-5.949285814861988 24.132783219874085,-12.676399501549042&#10;c -9.6,-22.178 33.6,-13.648 55.867216780125915,-33.4625715432904 c 18.813975811612174,0.0 74.42368751310961,-8.53 63.22368751310962,15.898786737405317&#10;c -9.6,22.680600549861097 0,33.981823419667535 16.776312486890383,33.981823419667535&#10;c 18.71494302394474,0 28.314943023944743,-17.628125021061845 18.71494302394474,-50.41529721747985&#10;c -9.6,-22.178 33.6,-13.648 61.28505697605526,0.534687060407002 c 15.806215828874288,-0.0 67.9547004977171,8.53 56.754700497717096,-6.224239335841922&#10;c -9.6,-23.410711765611662 0,-49.291926434697714 23.245299502282904,-49.291926434697714&#10;c 25.050085897316848,0 34.65008589731685,16.066400729190143 25.050085897316848,37.527711082462076&#10;c -9.6,22.178 33.6,13.648 54.94991410268315,17.98845468807756 L 1280 0 " fill="none" stroke="black" stroke-width="0.1" style="vector-effect:non-scaling-stroke;" /></g><g><path d="M 0 0  L 0 682.400000  c 10.892784611750262,-0.0 75.78146691547236,8.53 64.58146691547236,-21.81765193651377&#10;c -9.6,-25.638047638065125 0,-27.793759840341238 15.418533084527638,-27.793759840341238&#10;c 18.30046198195629,0 27.90046198195629,22.542392797351305 18.30046198195629,27.18897345188342&#10;c -9.6,22.178 33.6,13.648 61.69953801804371,22.422438324971587 c 40.85936218215815,-0.0 76.84604921839886,8.53 65.64604921839886,-20.771710135255862&#10;c -9.6,-23.853457352700396 0,-29.223917367097666 14.353950781601142,-29.223917367097666&#10;c 18.717320703067045,0 28.317320703067047,3.9965405603476762 18.717320703067045,16.88312929940873&#10;c -9.6,22.178 33.6,13.648 61.282679296932955,33.1124982029448 c 29.573107920520574,-0.0 67.42940931189541,8.53 56.22940931189541,-18.764879785922478&#10;c -9.6,-25.297018685331988 0,-35.34356364862002 23.77059068810459,-35.34356364862002&#10;c 14.386658070411812,0 23.986658070411814,16.632458585172486 14.386658070411812,31.82411148303721&#10;c -9.6,22.178 33.6,13.648 65.61334192958819,22.284331951505283 c 10.137712516664017,0.0 79.58085562246227,-8.53 68.38085562246226,9.591763936569054&#10;c -9.6,10.776159067295222 0,37.026557921349315 11.619144377537737,37.026557921349315&#10;c 21.43797809642571,0 31.03797809642571,-35.7761722138285 21.43797809642571,-35.88786318862577&#10;c -9.6,-22.178 33.6,-13.648 58.56202190357429,-10.730458669292595 c 32.925831481602486,-0.0 71.00807052711028,8.53 59.80807052711028,-1.4399301889263623&#10;c -9.6,-39.27785270316033 0,-42.9054050473806 20.19192947288972,-42.9054050473806&#10;c 15.721145405414546,0 25.321145405414548,5.6686364276739765 15.721145405414546,11.106528794240752&#10;c -9.6,22.178 33.6,13.648 64.27885459458545,33.238806442066206 c 25.6379196408127,0.0 67.17035509868418,-8.53 55.97035509868419,33.18862325933172&#10;c -9.6,20.95753737938129 0,20.76742882806377 24.029644901315812,20.76742882806377&#10;c 24.312523130136583,0 33.912523130136584,-25.110402021463813 24.312523130136583,-32.454958734406965&#10;c -9.6,-22.178 33.6,-13.648 55.68747686986342,-21.501093352988526 c 20.495753445775215,0.0 75.46165939201366,-8.53 64.26165939201366,10.120315301080472&#10;c -9.6,17.61984908171619 0,40.679078278122375 15.738340607986345,40.679078278122375&#10;c 16.706820559097153,0 26.306820559097154,-24.33372247516268 16.706820559097153,-38.68644947629528&#10;c -9.6,-22.178 33.6,-13.648 63.29317944090285,-12.11294410290757 c 38.365284309118366,0.0 72.16028524872321,-8.53 60.96028524872321,26.54595021306539&#10;c -9.6,22.250265886634107 0,23.701696911278304 19.03971475127679,23.701696911278304&#10;c 17.686020109055946,0 27.286020109055947,-13.042196265843748 17.686020109055946,-31.50606081504085&#10;c -9.6,-22.178 33.6,-13.648 62.313979890944054,-18.741586309302843 L 1280 0 " fill="none" stroke="black" stroke-width="0.1" style="vector-effect:non-scaling-stroke;" /></g></g></svg>