<svg baseProfile="full" height="2884" preserveAspectRatio="none" shape-rendering="geometricPrecision" version="1.1" viewBox="0,0,4326,2884" width="4326" xmlns="http://www.w3.org/2000/svg" xmlns:ev="http://www.w3.org/2001/xml-events" xmlns:xlink="http://www.w3.org/1999/xlink"><title>Jigsaw puzzle piece clips</title><desc>Created with the piecemaker. Piece count: 24</desc><defs/><g><g><rect fill="white" height="2884" width="4326" x="0" y="0"/></g></g><g><g><path d="M 0 0  L 721.000000 0  c -0.0,99.82526932335821 36.050000000000004,313.96060669791905 -108.65852845596048,263.490606697919
c -55.5953465956647,-43.26 -130.34961733364224,0 -130.34961733364224,97.00939330208098
c 0,65.1821985084245 62.62702715616166,108.4421985084245 90.22479194529546,65.1821985084245
c 93.73,-43.26 57.68,151.41 148.78335384430727,295.3178014915755 c 0.0,91.31857088624139 -36.050000000000004,351.0926823255668 101.05359969905479,300.62268232556676
c 33.4649018672584,-43.26 129.50361549494284,0 129.50361549494284,59.87731767443324
c 0,77.51176656744855 -121.10963230634842,120.77176656744854 -126.27215603978459,77.51176656744855
c -93.73,-43.26 -57.68,151.41 -104.28505915421303,282.98823343255145 c -0.0,83.93873070276922 36.050000000000004,337.008044019994 -87.69939210269604,286.53804401999395
c -76.47576990091008,-43.26 -128.71275948855677,0 -128.71275948855677,73.96195598000605
c 0,81.23325426001014 52.83165663734988,124.49325426001013 201.88712276772478,81.23325426001014
c 93.73,-43.26 57.68,151.41 14.525028823528032,279.26674573998986 c 0.0,182.19819140040414 -36.050000000000004,320.8008424257333 66.8237482444611,270.3308424257333
c 133.62107747296437,-43.26 164.13231531567385,0 164.13231531567385,90.1691575742667
c 0,80.165112346287 -31.155369581414675,123.425112346287 -118.9664765054289,80.165112346287
c -93.73,-43.26 -57.68,151.41 -111.98958705470606,280.334887653713 L 0 2884 " fill="none" stroke="black" stroke-width="0.1" style="vector-effect:non-scaling-stroke;"/></g><g><path d="M 0 0  L 1442.000000 0  c 0.0,48.74579954498698 -36.050000000000004,307.01761809806953 -5.863227579888653,256.5476180980695
c 174.6013235291751,-43.26 201.5071462250887,0 201.5071462250887,103.9523819019305
c 0,100.41025746945076 -48.08858582806656,143.67025746945075 -135.45490753976145,100.41025746945076
c -93.73,-43.26 -57.68,151.41 -60.189011105438595,260.08974253054924 c 0.0,204.86353141652728 -36.050000000000004,298.7460815985223 37.895252037313796,248.2760815985223
c 106.43769998794062,-43.26 153.94003811837257,0 153.94003811837257,112.2239184014777
c 0,100.35009658319558 -31.55733216625128,143.61009658319557 -58.19483772485606,100.35009658319558
c -93.73,-43.26 -57.68,151.41 -133.64045243083032,260.1499034168044 c 0.0,79.1571959943679 -36.050000000000004,304.1353605992592 85.7786519869889,253.66536059925915
c 97.27853532473104,-43.26 128.20573027287043,0 128.20573027287043,106.83463940074085
c 0,90.89983598111166 -46.11738228146841,134.15983598111166 -175.10423186134253,90.89983598111166
c -93.73,-43.26 -57.68,151.41 -38.880150398516804,269.60016401888834 c -0.0,189.78981404662488 36.050000000000004,319.6641020004388 -5.785228605713527,269.19410200043876
c -92.19297434898662,-43.26 -225.31739397347337,0 -225.31739397347337,91.30589799956124
c 0,99.71799112848419 114.91924252794347,142.97799112848418 142.37907591726633,99.71799112848419
c 93.73,-43.26 57.68,151.41 88.72354666192058,260.7820088715158 L 0 2884 " fill="none" stroke="black" stroke-width="0.1" style="vector-effect:non-scaling-stroke;"/></g><g><path d="M 0 0  L 2163.000000 0  c 0.0,146.7622230480615 -36.050000000000004,312.164653598666 105.0793614049125,261.694653598666
c 109.52755709345202,-43.26 111.78539318564003,0 111.78539318564003,98.80534640133402
c 0,75.92063438756912 -70.84050810477923,119.18063438756911 -73.92677024889323,75.92063438756912
c -93.73,-43.26 -57.68,151.41 -142.9379843416593,284.5793656124309 c -0.0,176.19327712365944 36.050000000000004,315.8249528590692 -40.13584466659075,265.35495285906916
c -135.52418522497007,-43.26 -190.69971717637384,0 -190.69971717637384,95.14504714093084
c 0,66.9588627597692 168.86136536133347,110.2188627597692 220.61613531656766,66.9588627597692
c 93.73,-43.26 57.68,151.41 10.219426526396916,293.5411372402308 c 0.0,203.95726648452242 -36.050000000000004,335.2491767441533 92.72922422419747,284.7791767441533
c 83.48420208798031,-43.26 128.25469579107755,0 128.25469579107755,75.72082325584671
c 0,112.73493343708054 -41.52737696503764,155.99493343708053 -68.46808073470055,112.73493343708054
c -93.73,-43.26 -57.68,151.41 -152.51583928057448,247.76506656291946 c 0.0,81.81950270160951 -36.050000000000004,358.18663340057503 84.74741805398565,307.716633400575
c 77.54431330841399,-43.26 112.32391004926734,0 112.32391004926734,52.783366599424994
c 0,52.20699821053154 -153.6897049255357,95.46699821053153 -173.0151979464204,52.20699821053154
c -93.73,-43.26 -57.68,151.41 -24.05613015683261,308.29300178946846 L 0 2884 " fill="none" stroke="black" stroke-width="0.1" style="vector-effect:non-scaling-stroke;"/></g><g><path d="M 0 0  L 2884.000000 0  c 0.0,72.51183523558853 -36.050000000000004,312.7812035901341 21.793757464471867,262.3112035901341
c 193.0591603531743,-43.26 199.46289925740464,0 199.46289925740464,98.18879640986592
c 0,89.18400084454458 -33.11536544012755,132.44400084454458 -94.51054086542969,89.18400084454458
c -93.73,-43.26 -57.68,151.41 -126.74611585644682,271.3159991554554 c 0.0,153.84198809065813 -36.050000000000004,296.9309693992004 32.61390722829038,246.46096939920042
c 132.15428954438048,-43.26 197.9367938030728,0 197.9367938030728,114.03903060079958
c 0,114.65089598170579 -91.3126935951012,157.91089598170578 -136.48948742582968,114.65089598170579
c -93.73,-43.26 -57.68,151.41 -94.06121360553348,245.8491040182942 c -0.0,126.35845410259638 36.050000000000004,325.5175194436821 -94.9232781132687,275.04751944368206
c -79.52871956518418,-43.26 -124.47897212192076,0 -124.47897212192076,85.45248055631794
c 0,98.0610924316573 128.95423098505856,141.3210924316573 130.82492993760118,98.0610924316573
c 93.73,-43.26 57.68,151.41 88.57732029758827,262.4389075683427 c -0.0,147.638245960679 36.050000000000004,338.6204281204526 -88.58237651471885,288.15042812045255
c -70.49083940386069,-43.26 -88.94499717727575,0 -88.94499717727575,72.34957187954745
c 0,111.62882606659673 36.40209302372554,154.88882606659672 170.90248005807433,111.62882606659673
c 93.73,-43.26 57.68,151.41 6.624893633920266,248.87117393340327 L 0 2884 " fill="none" stroke="black" stroke-width="0.1" style="vector-effect:non-scaling-stroke;"/></g><g><path d="M 0 0  L 3605.000000 0  c -0.0,192.23839163288136 36.050000000000004,350.95359690675286 -154.22637222574554,300.48359690675284
c -13.66616861457336,-43.26 -20.621365235237278,0 -20.621365235237278,60.01640309324716
c 0,51.47504385867495 29.133832236548393,94.73504385867494 55.33218054898735,51.47504385867495
c 93.73,-43.26 57.68,151.41 119.51555691199546,309.02495614132505 c 0.0,87.03652667296356 -36.050000000000004,347.0512578933527 115.51789057428806,296.5812578933527
c 59.92586717666685,-43.26 89.73795672497394,0 89.73795672497394,63.9187421066473
c 0,78.86349001653952 -106.52972893900441,122.1234900165395 -219.62833375442355,78.86349001653952
c -93.73,-43.26 -57.68,151.41 14.37248645516155,281.6365099834605 c -0.0,60.711865326711575 36.050000000000004,309.67689092975405 -112.71694837755832,259.206890929754
c -37.428182543304075,-43.26 -121.79019167773,0 -121.79019167773,101.29310907024598
c 0,98.92829356080057 51.88410771035009,142.18829356080056 86.16399232026177,98.92829356080057
c 93.73,-43.26 57.68,151.41 148.34314773502655,261.57170643919943 c 0.0,200.92798500852328 -36.050000000000004,313.48096075077456 119.15941275996411,263.01096075077453
c 48.73055597107516,-43.26 68.41693510424417,0 68.41693510424417,97.48903924922547
c 0,80.4875183543104 -63.12477894326867,123.74751835431039 -75.98961315305066,80.4875183543104
c -93.73,-43.26 -57.68,151.41 -111.58673471115763,280.0124816456896 L 0 2884 " fill="none" stroke="black" stroke-width="0.1" style="vector-effect:non-scaling-stroke;"/></g></g><g><g><path d="M 0 0  L 0 721.000000  c 70.96961049060197,0.0 360.3760443530234,-36.050000000000004 309.9060443530234,-6.598394319510175
c -43.26,75.30405830362547 0,184.77254694148846 50.59395564697661,184.77254694148846
c 76.19144164151402,0 119.45144164151401,-28.64984245766181 76.19144164151402,-72.6987331687428
c -43.26,-93.73 151.41,-57.68 284.308558358486,-105.47541945323549 c 90.84497253997102,-0.0 336.3151066479962,36.050000000000004 285.84510664799615,-44.6521634494898
c -43.26,-100.19271960951457 0,-142.2369670244888 74.65489335200385,-142.2369670244888
c 53.730895023068626,0 96.99089502306862,165.63342775787606 53.730895023068626,171.26877794599073
c -43.26,93.73 151.41,57.68 306.7691049769314,15.620352527987848 c 162.99195962394415,-0.0 354.4999814770584,36.050000000000004 304.02998147705836,13.259084357066238
c -43.26,-215.71440035484488 0,-243.6333476101165 56.47001852294164,-243.6333476101165
c 65.08564247788183,0 108.34564247788182,62.858711386026016 65.08564247788183,163.47438747265477
c -43.26,93.73 151.41,57.68 295.41435752211817,66.89987578039549 c 68.63775638436836,-0.0 297.5368060314385,36.050000000000004 247.06680603143852,-110.16780496799917
c -43.26,-30.469000814119905 0,-109.61791173515793 113.43319396856148,-109.61791173515793
c 106.84169337471667,0 150.10169337471666,19.858964636102503 106.84169337471667,68.16300192429964
c -43.26,93.73 151.41,57.68 253.65830662528333,151.62271477885747 c 105.52115954037988,-0.0 327.46920087393744,36.050000000000004 276.9992008739374,-3.134944662404263
c -43.26,-90.34103427303188 0,-189.1771719470502 83.50079912606259,-189.1771719470502
c 72.46273931344774,0 115.72273931344773,89.06461719172378 72.46273931344774,94.56895688834759
c -43.26,93.73 151.41,57.68 288.03726068655226,97.74315972110686 c 81.69063137428405,-0.0 304.5721799322876,36.050000000000004 254.10217993228758,-157.66728464367208
c -43.26,-41.65664105117867 0,-68.95282646547719 106.39782006771242,-68.95282646547719
c 103.14999693295306,0 146.40999693295305,98.78591563046605 103.14999693295306,179.71505135889288
c -43.26,93.73 151.41,57.68 257.35000306704694,46.905059750256385 L 4326 0 " fill="none" stroke="black" stroke-width="0.1" style="vector-effect:non-scaling-stroke;"/></g><g><path d="M 0 0  L 0 1442.000000  c 174.6441764684365,0.0 354.6239392951925,-36.050000000000004 304.15393929519246,11.459889999461115
c -43.26,171.07811706900117 0,226.44182597779263 56.34606070480754,226.44182597779263
c 91.8770648820701,0 135.1370648820701,-44.31430388909364 91.8770648820701,-199.930354841402
c -43.26,-93.73 151.41,-57.68 268.6229351179299,-37.971361135851765 c 83.44274817701276,0.0 359.9579842644474,-36.050000000000004 309.4879842644474,93.7342651412428
c -43.26,68.88588110618221 0,81.68585307554063 51.01201573555261,81.68585307554063
c 72.4484227945311,0 115.70842279453109,-36.80398795651588 72.4484227945311,-43.84481985801713
c -43.26,-93.73 151.41,-57.68 288.0515772054689,-131.5752983587663 c 126.39745342602062,-0.0 298.90197471599305,36.050000000000004 248.43197471599305,-120.48579678516862
c -43.26,-97.97982203835763 0,-100.28641377965059 112.06802528400695,-100.28641377965059
c 52.96481713374533,0 96.22481713374532,51.60264593238949 52.96481713374533,66.24253829199489
c -43.26,93.73 151.41,57.68 307.5351828662547,154.5296722728243 c 37.54944111528595,-0.0 354.330095454013,36.050000000000004 303.860095454013,-60.998070389615755
c -43.26,-97.90698096603248 0,-123.61079880110151 56.63990454598701,-123.61079880110151
c 56.48201610489639,0 99.74201610489638,35.28090515247015 56.48201610489639,154.24741033658518
c -43.26,93.73 151.41,57.68 304.0179838951036,30.36145885413208 c 151.95343630729184,0.0 326.69318467527313,-36.050000000000004 276.2231846752731,86.30260958680586
c -43.26,114.04620795701146 0,121.62264183785405 84.2768153247269,121.62264183785405
c 72.00558498237183,0 115.26558498237182,-205.13796407287953 72.00558498237183,-217.3363753694761
c -43.26,-93.73 151.41,-57.68 288.49441501762817,9.411123944816183 c 172.3272939157028,0.0 355.4713277333476,-36.050000000000004 305.0013277333476,141.13404704226664
c -43.26,21.101635969153488 0,98.26703508150811 55.49867226665242,98.26703508150811
c 71.6307679363785,0 114.8907679363785,-161.56821850995294 71.6307679363785,-207.94016602235027
c -43.26,-93.73 151.41,-57.68 288.8692320636215,-31.460916101424488 L 4326 0 " fill="none" stroke="black" stroke-width="0.1" style="vector-effect:non-scaling-stroke;"/></g><g><path d="M 0 0  L 0 2163.000000  c 186.84660375311262,0.0 330.9606213796999,-36.050000000000004 280.49062137969986,151.14793720463553
c -43.26,38.239155421312 0,52.26148706331358 80.00937862030014,52.26148706331358
c 91.27786466317781,0 134.5378646631778,-87.13449619950933 91.27786466317781,-120.82377258413996
c -43.26,-93.73 151.41,-57.68 269.2221353368222,-82.58565168380915 c 130.8627112682293,0.0 311.5851948254685,-36.050000000000004 261.11519482546845,128.31038703011652
c -43.26,34.57530357196134 0,83.48045794522886 99.38480517453155,83.48045794522886
c 75.01797225489406,0 118.27797225489405,-103.71796914136557 75.01797225489406,-138.734771487753
c -43.26,-93.73 151.41,-57.68 285.48202774510594,-73.05607348759239 c 125.68804517968022,0.0 353.77800307885394,-36.050000000000004 303.3080030788539,87.63834342628063
c -43.26,75.6884039098387 0,136.38219736926465 57.191996921146085,136.38219736926465
c 79.36800244872603,0 122.62800244872602,-110.78519459726381 79.36800244872603,-172.52378432766233
c -43.26,-93.73 151.41,-57.68 281.13199755127397,-51.49675646788296 c 123.0748876336697,0.0 357.3594461502938,-36.050000000000004 306.8894461502938,139.73256165210046
c -43.26,24.107933217381028 0,74.78369574049364 53.61055384970621,74.78369574049364
c 64.26980012136761,0 107.5298001213676,-38.08250475080129 64.26980012136761,-135.88815378456053
c -43.26,-93.73 151.41,-57.68 296.2301998786324,-78.62810360803357 c 160.2878628204853,0.0 322.41804147082075,-36.050000000000004 271.9480414708207,143.8104821547543
c -43.26,16.940751341397277 0,55.100817526854485 88.55195852917927,55.100817526854485
c 99.65857601192397,0 142.91857601192396,-108.89523222262574 99.65857601192397,-185.55218605967212
c -43.26,-93.73 151.41,-57.68 260.84142398807603,-13.359113621936672 c 169.83228272259367,-0.0 318.66374074189514,36.050000000000004 268.1937407418951,-134.69173263261163
c -43.26,-24.522803210314894 0,-57.56829751551996 92.30625925810489,-57.56829751551996
c 69.03197091200974,0 112.29197091200973,30.28777184563257 69.03197091200974,120.2057494625016
c -43.26,93.73 151.41,57.68 291.46802908799026,72.05428068562999 L 4326 0 " fill="none" stroke="black" stroke-width="0.1" style="vector-effect:non-scaling-stroke;"/></g></g></svg>