<svg baseProfile="full" height="2376" preserveAspectRatio="none" shape-rendering="geometricPrecision" version="1.1" viewBox="0,0,1584,2376" width="1584" xmlns="http://www.w3.org/2000/svg" xmlns:ev="http://www.w3.org/2001/xml-events" xmlns:xlink="http://www.w3.org/1999/xlink"><title>Jigsaw puzzle piece clips</title><desc>Created with the piecemaker. Piece count: 24</desc><defs /><g><g><rect fill="white" height="2376" width="1584" x="0" y="0" /></g></g><g><g><path d="M 0 0  L 396.000000 0  c 0.0,103.14712800778089 -19.8,190.91132970976068 26.170175843603406,163.19132970976068&#10;c 67.74909995626619,-23.759999999999998 69.71783761273139,0 69.71783761273139,34.80867029023932&#10;c 0,59.168721654839544 -16.956948036673214,82.92872165483953 -17.472569441515006,59.168721654839544&#10;c -51.480000000000004,-23.759999999999998 -31.68,83.16 -78.41544401481978,138.83127834516046 c -0.0,105.03103349781276 19.8,167.1548466506125 7.654193318916419,139.4348466506125&#10;c -85.82039320799473,-23.759999999999998 -134.4118331554252,0 -134.4118331554252,58.56515334938749&#10;c 0,47.79764467591883 86.10138236369805,71.55764467591882 113.72425233136288,47.79764467591883&#10;c 51.480000000000004,-23.759999999999998 31.68,83.16 13.03338750514591,150.20235532408117 c -0.0,58.93259957328481 19.8,195.25950717941896 -37.02389271862841,167.53950717941896&#10;c -40.83874757071659,-23.759999999999998 -93.38099023062267,0 -93.38099023062267,30.460492820581038&#10;c 0,47.61000771889607 30.056634635475767,71.37000771889606 130.87324727461024,47.61000771889607&#10;c 51.480000000000004,-23.759999999999998 31.68,83.16 -0.46836432535914696,150.38999228110393 c 0.0,42.615164150029315 -19.8,165.86404282025424 -4.863070633558712,138.14404282025424&#10;c 85.17971934850051,-23.759999999999998 132.34685885480908,0 132.34685885480908,59.85595717974576&#10;c 0,62.2875388481919 -65.27972665007657,86.04753884819189 -97.69015691142202,62.2875388481919&#10;c -51.480000000000004,-23.759999999999998 -31.68,83.16 -29.793631309828356,135.7124611518081 c -0.0,55.03315721064539 19.8,193.7116378016692 -22.03270751885072,165.9916378016692&#10;c -27.43499533124231,-23.759999999999998 -105.43893156411221,0 -105.43893156411221,32.008362198330786&#10;c 0,28.085201329820933 28.55757503334601,51.84520132982093 43.48025492270723,28.085201329820933&#10;c 51.480000000000004,-23.759999999999998 31.68,83.16 83.99138416025569,169.91479867017907 c -0.0,52.3904209417306 19.8,169.83986697442842 -45.593256403700096,142.11986697442842&#10;c -25.866781722144058,-23.759999999999998 -73.83858068596433,0 -73.83858068596433,55.88013302557158&#10;c 0,33.08533329510533 116.33697613282536,56.84533329510533 116.21707429220292,33.08533329510533&#10;c 51.480000000000004,-23.759999999999998 31.68,83.16 3.2147627974615034,164.91466670489467 L 0 2376 " fill="none" stroke="black" stroke-width="0.1" style="vector-effect:non-scaling-stroke;" /></g><g><path d="M 0 0  L 792.000000 0  c 0.0,34.23438004538783 -19.8,168.11483680487882 68.11823125666301,140.39483680487882&#10;c 31.08743195621366,-23.759999999999998 61.158920927607724,0 61.158920927607724,57.60516319512118&#10;c 0,28.647081417913967 -44.0813104586554,52.407081417913965 -83.23106278755117,28.647081417913967&#10;c -51.480000000000004,-23.759999999999998 -31.68,83.16 -46.046089396719566,169.35291858208603 c 0.0,90.42578608220158 -19.8,170.54640366266338 -2.8566026464457286,142.82640366266338&#10;c 115.17057603140461,-23.759999999999998 137.43492922036504,0 137.43492922036504,55.17359633733662&#10;c 0,42.53420789335658 -40.96655075673742,66.29420789335657 -92.43085067647523,42.53420789335658&#10;c -51.480000000000004,-23.759999999999998 -31.68,83.16 -42.14747589744407,155.46579210664342 c 0.0,53.0249073794104 -19.8,171.70527045486278 6.798770476987314,143.98527045486279&#10;c 53.13883848909623,-23.759999999999998 89.45823206550024,0 89.45823206550024,54.014729545137214&#10;c 0,44.51486866439396 -6.356794519517493,68.27486866439395 -11.63449109522523,44.51486866439396&#10;c -51.480000000000004,-23.759999999999998 -31.68,83.16 -84.62251144726233,153.48513133560604 c -0.0,48.57971653059782 19.8,175.10483433768135 -78.3586330502382,147.38483433768135&#10;c -27.133684480804916,-23.759999999999998 -34.55518064842177,0 -34.55518064842177,50.615165662318645&#10;c 0,47.321265425500314 28.627092700291602,71.0812654255003 33.04385291600087,47.321265425500314&#10;c 51.480000000000004,-23.759999999999998 31.68,83.16 79.86996078265909,150.67873457449969 c -0.0,63.327740927959674 19.8,185.9750432208806 -39.99967850576118,158.2550432208806&#10;c -22.15300127862891,-23.759999999999998 -81.41720783086701,0 -81.41720783086701,39.744956779119406&#10;c 0,30.96267076059854 97.75760122244456,54.72267076059854 98.40618718924378,30.96267076059854&#10;c 51.480000000000004,-23.759999999999998 31.68,83.16 23.010699147384415,167.03732923940146 c -0.0,39.64219095085816 19.8,176.74999238074295 -31.922926270570947,149.02999238074295&#10;c -19.117501810700695,-23.759999999999998 -78.39366253776012,0 -78.39366253776012,48.970007619257046&#10;c 0,40.30719908058768 21.50003331378573,64.06719908058767 58.00388981846136,40.30719908058768&#10;c 51.480000000000004,-23.759999999999998 31.68,83.16 52.3126989898697,157.69280091941232 L 0 2376 " fill="none" stroke="black" stroke-width="0.1" style="vector-effect:non-scaling-stroke;" /></g><g><path d="M 0 0  L 1188.000000 0  c -0.0,22.19242748899363 19.8,164.94964133606408 -40.08071287767849,137.22964133606408&#10;c -18.0365424574195,-23.759999999999998 -75.85787252828348,0 -75.85787252828348,60.77035866393592&#10;c 0,51.19313479466527 105.89499146190221,74.95313479466526 120.07299940011382,51.19313479466527&#10;c 51.480000000000004,-23.759999999999998 31.68,83.16 -4.134413994151856,146.80686520533473 c -0.0,32.84188258865531 19.8,189.44425076026388 -0.6496848557145857,161.72425076026389&#10;c -129.1925306329974,-23.759999999999998 -133.0110270067473,0 -133.0110270067473,36.275749239736115&#10;c 0,45.98007525561587 67.19167878726851,69.74007525561586 99.10683667507604,45.98007525561587&#10;c 51.480000000000004,-23.759999999999998 31.68,83.16 34.55387518738584,152.01992474438413 c -0.0,113.36175164588705 19.8,167.1060223453934 -84.81703942160706,139.3860223453934&#10;c -27.315406093258602,-23.759999999999998 -46.11592023908656,0 -46.11592023908656,58.6139776546066&#10;c 0,50.670100902936554 23.372454066096836,74.43010090293654 79.11561274745415,50.670100902936554&#10;c 51.480000000000004,-23.759999999999998 31.68,83.16 51.817346913239476,147.32989909706345 c -0.0,28.918030509072143 19.8,189.33916982732984 -47.3484233262379,161.61916982732984&#10;c -16.794635964389606,-23.759999999999998 -64.44773871928422,0 -64.44773871928422,36.38083017267016&#10;c 0,46.262857859646516 76.2992446447903,70.0228578596465 87.0417001501544,46.262857859646516&#10;c 51.480000000000004,-23.759999999999998 31.68,83.16 24.754461895367726,151.73714214035348 c -0.0,45.648859808608876 19.8,163.01417031553135 -65.96915454303684,135.29417031553135&#10;c -32.65537199680929,-23.759999999999998 -35.58863857117713,0 -35.58863857117713,62.705829684468654&#10;c 0,37.96698744954816 18.32289217211551,61.726987449548155 27.573957808944016,37.96698744954816&#10;c 51.480000000000004,-23.759999999999998 31.68,83.16 73.98383530526995,160.03301255045184 c 0.0,35.4757228633757 -19.8,166.0185767122817 5.514102332729151,138.29857671228172&#10;c 85.74845823451425,-23.759999999999998 111.67262863356996,0 111.67262863356996,59.701423287718285&#10;c 0,60.94953341175318 -65.47872621849267,84.70953341175317 -79.75007309454341,60.94953341175318&#10;c -51.480000000000004,-23.759999999999998 -31.68,83.16 -37.4366578717557,137.05046658824682 L 0 2376 " fill="none" stroke="black" stroke-width="0.1" style="vector-effect:non-scaling-stroke;" /></g></g><g><g><path d="M 0 0  L 0 396.000000  c 81.14308018738701,0.0 183.04911322364495,-19.8 155.32911322364495,17.984100814536212&#10;c -23.759999999999998,57.66710557590908 0,85.20708708373246 42.67088677635505,85.20708708373246&#10;c 43.27183123635791,0 67.0318312363579,-45.59560557988135 43.27183123635791,-74.19218546712888&#10;c -23.759999999999998,-51.480000000000004 83.16,-31.68 154.7281687636421,-28.9990024311398 c 90.08939767114215,0.0 162.9082564835551,-19.8 135.1882564835551,76.35722604342313&#10;c -23.759999999999998,38.29484340216526 0,56.51792513176444 62.81174351644489,56.51792513176444&#10;c 28.495903704738566,0 52.255903704738564,-44.22385539668192 28.495903704738566,-102.06685033952083&#10;c -23.759999999999998,-51.480000000000004 83.16,-31.68 169.50409629526143,-30.808300835666742 c 104.26038246130732,-0.0 169.94749461379914,19.8 142.22749461379914,-27.285360879710414&#10;c -23.759999999999998,-29.728375931188417 0,-79.31188745500084 55.77250538620086,-79.31188745500084&#10;c 44.69673310883644,0 68.45673310883643,35.331970205963806 44.69673310883644,96.9712801257129&#10;c -23.759999999999998,51.480000000000004 83.16,31.68 153.30326689116356,9.625968208998358 c 87.573584370765,0.0 175.30507639207204,-19.8 147.58507639207204,-5.311951930188606&#10;c -23.759999999999998,120.83226472849353 0,136.2172200441452 50.41492360792796,136.2172200441452&#10;c 32.46902933958549,0 56.22902933958549,-10.161739110909393 32.46902933958549,-44.38341950433151&#10;c -23.759999999999998,-51.480000000000004 83.16,-31.68 165.5309706604145,-86.52184860962508 L 1584 0 " fill="none" stroke="black" stroke-width="0.1" style="vector-effect:non-scaling-stroke;" /></g><g><path d="M 0 0  L 0 792.000000  c 71.6001428808361,0.0 179.1283829830016,-19.8 151.4083829830016,44.979212996338184&#10;c -23.759999999999998,74.69050894076229 0,81.5370151973072 46.59161701699841,81.5370151973072&#10;c 39.78312981633033,0 63.54312981633033,-72.0170641462497 39.78312981633033,-117.55385008128798&#10;c -23.759999999999998,-51.480000000000004 83.16,-31.68 158.21687018366967,-8.962378112357413 c 64.25449670478137,0.0 196.14813794907496,-19.8 168.42813794907497,65.2470217144696&#10;c -23.759999999999998,16.361543103874673 0,59.9945051872205 29.571862050925034,59.9945051872205&#10;c 47.53258654263598,0 71.29258654263597,-84.48026436467626 47.53258654263598,-86.63549436962232&#10;c -23.759999999999998,-51.480000000000004 83.16,-31.68 150.46741345736402,-38.60603253206777 c 29.911175429172435,0.0 176.21663108162122,-19.8 148.49663108162122,74.0088235801988&#10;c -23.759999999999998,6.0572477088885615 0,26.48554573186405 49.50336891837878,26.48554573186405&#10;c 36.89951209234829,0 60.65951209234829,-48.96664879404923 36.89951209234829,-91.56343289663289&#10;c -23.759999999999998,-51.480000000000004 83.16,-31.68 161.1004879076517,-8.930936415429954 c 112.55107284734159,0.0 164.77588080533903,-19.8 137.05588080533903,6.951161281033674&#10;c -23.759999999999998,82.47390748403402 0,125.36436567834653 60.94411919466097,125.36436567834653&#10;c 50.3802789668664,0 74.14027896686639,-34.99943422921113 50.3802789668664,-124.96643735923783&#10;c -23.759999999999998,-51.480000000000004 83.16,-31.68 147.6197210331336,-7.349089600142378 L 1584 0 " fill="none" stroke="black" stroke-width="0.1" style="vector-effect:non-scaling-stroke;" /></g><g><path d="M 0 0  L 0 1188.000000  c 27.307862226495814,0.0 175.82134828529988,-19.8 148.10134828529988,14.229483736330074&#10;c -23.759999999999998,50.67687610831288 0,87.35566043171303 49.89865171470012,87.35566043171303&#10;c 53.86795342261129,0 77.62795342261128,-40.115558440139196 53.86795342261129,-51.15688993875858&#10;c -23.759999999999998,-51.480000000000004 83.16,-31.68 144.1320465773887,-50.42825422928453 c 27.891211196903736,0.0 175.9855726152544,-19.8 148.2655726152544,81.75928283498455&#10;c -23.759999999999998,20.993379862173153 0,37.474177520249725 49.7344273847456,37.474177520249725&#10;c 49.36614674882665,0 73.12614674882664,-37.00227782184414 49.36614674882665,-49.3984727509594&#10;c -23.759999999999998,-51.480000000000004 83.16,-31.68 148.63385325117335,-69.83498760427487 c 84.45612836065301,0.0 167.2417022792313,-19.8 139.5217022792313,40.94866698421901&#10;c -23.759999999999998,20.688764179516575 0,90.50267406627597 58.478297720768694,90.50267406627597&#10;c 45.30603565976966,0 69.06603565976965,-58.55480066750814 45.30603565976966,-78.29936125813104&#10;c -23.759999999999998,-51.480000000000004 83.16,-31.68 152.69396434023034,-53.151979792363946 c 23.5377799663052,0.0 188.73004253979613,-19.8 161.01004253979613,22.5972378750827&#10;c -23.759999999999998,36.829747080692414 0,75.56148118350586 36.98995746020387,75.56148118350586&#10;c 32.1602565667921,0 55.9202565667921,-29.887833020431398 32.1602565667921,-93.57633228099675&#10;c -23.759999999999998,-51.480000000000004 83.16,-31.68 165.8397434332079,-4.5823867775918075 L 1584 0 " fill="none" stroke="black" stroke-width="0.1" style="vector-effect:non-scaling-stroke;" /></g><g><path d="M 0 0  L 0 1584.000000  c 45.792519051891325,-0.0 192.9960285800611,19.8 165.2760285800611,-86.09676301808048&#10;c -23.759999999999998,-14.061125257721493 0,-14.6456997836234 32.72397141993889,-14.6456997836234&#10;c 28.54156571585844,0 52.30156571585844,6.475519188927808 28.54156571585844,18.065725148242024&#10;c -23.759999999999998,51.480000000000004 83.16,31.68 169.45843428414156,82.67673765346186 c 76.8800429666991,0.0 165.5328431724921,-19.8 137.8128431724921,26.798513713902732&#10;c -23.759999999999998,73.39691863090954 0,72.76552014784478 60.18715682750789,72.76552014784478&#10;c 58.95497976524558,0 82.71497976524557,-53.92650712820162 58.95497976524558,-107.39803420778728&#10;c -23.759999999999998,-51.480000000000004 83.16,-31.68 139.04502023475442,7.834000346039758 c 63.903438513471755,-0.0 170.3873854368002,19.8 142.6673854368002,-4.543932657450946&#10;c -23.759999999999998,-59.94938566017955 0,-115.07951988616071 55.3326145631998,-115.07951988616071&#10;c 52.99100012251415,0 76.75100012251414,33.70191005902079 52.99100012251415,37.02358702233364&#10;c -23.759999999999998,51.480000000000004 83.16,31.68 145.00899987748585,82.59986552127802 c 34.721399518063876,0.0 165.59914160984226,-19.8 137.87914160984226,3.8247678996184926&#10;c -23.759999999999998,48.3844410779816 0,103.38168291671568 60.120858390157736,103.38168291671568&#10;c 44.826843215720146,0 68.58684321572014,-64.87859895526532 44.826843215720146,-101.38795680972284&#10;c -23.759999999999998,-51.480000000000004 83.16,-31.68 153.17315678427985,-5.818494006611331 L 1584 0 " fill="none" stroke="black" stroke-width="0.1" style="vector-effect:non-scaling-stroke;" /></g><g><path d="M 0 0  L 0 1980.000000  c 49.13000914278788,0.0 195.03773577833618,-19.8 167.31773577833619,1.6842317839970071&#10;c -23.759999999999998,95.18353941626378 0,97.29759796079368 30.682264221663814,97.29759796079368&#10;c 34.65978744252439,0 58.41978744252439,-71.1350643572328 34.65978744252439,-79.62724856055303&#10;c -23.759999999999998,-51.480000000000004 83.16,-31.68 163.3402125574756,-19.35458118423766 c 102.0765691541481,-0.0 182.25834807225843,19.8 154.53834807225843,6.5309578293113155&#10;c -23.759999999999998,-75.98373358361877 0,-111.71825527021078 43.46165192774157,-111.71825527021078&#10;c 63.22098061126769,0 86.98098061126768,47.551047167347036 63.22098061126769,76.73309963054528&#10;c -23.759999999999998,51.480000000000004 83.16,31.68 134.7790193887323,28.454197810354174 c 70.24030167764121,-0.0 193.9736360464529,19.8 166.2536360464529,0.16738774702042233&#10;c -23.759999999999998,-44.337095160216634 0,-96.59200518549456 31.746363953547103,-96.59200518549456&#10;c 51.30478558785174,0 75.06478558785173,56.677670033962244 51.30478558785174,57.992487659088155&#10;c -23.759999999999998,51.480000000000004 83.16,31.68 146.69521441214826,38.432129779385974 c 40.912728149966675,0.0 172.95215172283102,-19.8 145.23215172283102,82.25272806205888&#10;c -23.759999999999998,37.718326157488924 0,40.89153206417748 52.76784827716898,40.89153206417748&#10;c 42.7407812129602,0 66.50078121296019,-54.057561368326766 42.7407812129602,-58.652188818630236&#10;c -23.759999999999998,-51.480000000000004 83.16,-31.68 155.2592187870398,-64.49207130760612 L 1584 0 " fill="none" stroke="black" stroke-width="0.1" style="vector-effect:non-scaling-stroke;" /></g></g></svg>