<svg baseProfile="full" height="3264" preserveAspectRatio="none" shape-rendering="geometricPrecision" version="1.1" viewBox="0,0,4912,3264" width="4912" xmlns="http://www.w3.org/2000/svg" xmlns:ev="http://www.w3.org/2001/xml-events" xmlns:xlink="http://www.w3.org/1999/xlink"><title>Jigsaw puzzle piece clips</title><desc>Created with the piecemaker. Piece count: 35</desc><defs /><g><g><rect fill="white" height="3264" width="4912" x="0" y="0" /></g></g><g><g><path d="M 0 0  L 701.714286 0  c 0.0,34.87609272526935 -35.08571428571428,290.32823298573174 50.029019501546614,244.63223298573175&#10;c 66.1933545904114,-39.168 139.9880854394409,0 139.9880854394409,81.76776701426823&#10;c 0,76.5562388327026 -103.4689438131187,115.72423883270261 -197.3322800611155,76.5562388327026&#10;c -91.22285714285714,-39.168 -56.137142857142855,137.088 7.3151751201280035,249.84376116729737 c -0.0,127.84221965992187 35.08571428571428,275.78945448741536 -53.3616815834896,230.09345448741533&#10;c -55.769088283158425,-39.168 -125.92720318539884,0 -125.92720318539884,96.30654551258465&#10;c 0,59.899961267879235 36.96375470095831,99.06796126787924 105.77692308705373,59.899961267879235&#10;c 91.22285714285714,-39.168 56.137142857142855,137.088 73.5119616818347,266.50003873212074 c 0.0,51.82336199689176 -35.08571428571428,291.88625908404254 -0.17759970378753143,246.19025908404254&#10;c 230.58301953781012,-39.168 235.12580035152752,0 235.12580035152752,80.20974091595744&#10;c 0,48.71400489776863 -57.28018170813206,87.88200489776864 -154.61930176240952,48.71400489776863&#10;c -91.22285714285714,-39.168 -56.137142857142855,137.088 -80.32889888533046,277.68599510223135 c -0.0,186.5062505539445 35.08571428571428,271.2731576814839 -43.14116872535746,225.5771576814839&#10;c -123.97285309874317,-39.168 -125.28220583669082,0 -125.28220583669082,100.82284231851608&#10;c 0,100.94850782512356 85.48280645335633,140.11650782512356 94.57433014570033,100.94850782512356&#10;c 91.22285714285714,-39.168 56.137142857142855,137.088 73.84904441634795,225.45149217487642 c -0.0,148.37509024224474 35.08571428571428,287.7902359851286 -33.640223882343534,242.09423598512862&#10;c -157.27055259628827,-39.168 -177.5421326687685,0 -177.5421326687685,84.30576401487136&#10;c 0,80.66665660893932 84.06277226158045,119.83465660893933 86.2291197415201,80.66665660893932&#10;c 91.22285714285714,-39.168 56.137142857142855,137.088 124.95323680959194,245.73334339106066 L 0 3264 " fill="none" stroke="black" stroke-width="0.1" style="vector-effect:non-scaling-stroke;" /></g><g><path d="M 0 0  L 1403.428571 0  c 0.0,140.5067686219206 -35.08571428571428,288.0055363678447 126.23983513475824,242.3095363678447&#10;c 75.72949120919967,-39.168 87.23135807850534,0 87.23135807850534,84.09046363215529&#10;c 0,49.75343761985363 -154.64412609461388,88.92143761985363 -219.66844743641366,49.75343761985363&#10;c -91.22285714285714,-39.168 -56.137142857142855,137.088 6.1972542231500825,276.64656238014635 c 0.0,76.87328018465432 -35.08571428571428,298.6095173035478 -13.405653812478254,252.91351730354785&#10;c 93.26085320683704,-39.168 240.6460880622132,0 240.6460880622132,73.48648269645213&#10;c 0,53.47436371070904 -178.87636237397996,92.64236371070905 -203.87747074391214,53.47436371070904&#10;c -91.22285714285714,-39.168 -56.137142857142855,137.088 -23.36296350582282,272.92563628929094 c 0.0,114.18570698229566 -35.08571428571428,274.0758817259182 13.120688810017459,228.37988172591815&#10;c 164.14217684817012,-39.168 208.3122726967642,0 208.3122726967642,98.02011827408182&#10;c 0,51.06980045018696 -138.78269286436682,90.23780045018697 -148.75217893930338,51.06980045018696&#10;c -91.22285714285714,-39.168 -56.137142857142855,137.088 -72.6807825674783,275.330199549813 c 0.0,149.13445629384523 -35.08571428571428,290.3917409776764 133.83227246452043,244.69574097767642&#10;c 42.910795797702924,-39.168 46.8993132458028,0 46.8993132458028,81.70425902232355&#10;c 0,86.13619424725812 -17.69198931265268,125.30419424725812 -28.767460629605438,86.13619424725812&#10;c -91.22285714285714,-39.168 -56.137142857142855,137.088 -151.9641250807178,240.26380575274186 c 0.0,117.41719037406715 -35.08571428571428,300.38713465497653 35.5054806216839,254.6911346549765&#10;c 131.92647362940053,-39.168 180.15559605984868,0 180.15559605984868,71.70886534502347&#10;c 0,76.87222976613998 -53.61262297808788,116.04022976613999 -174.32332170696122,76.87222976613998&#10;c -91.22285714285714,-39.168 -56.137142857142855,137.088 -41.33775497457134,249.52777023386 L 0 3264 " fill="none" stroke="black" stroke-width="0.1" style="vector-effect:non-scaling-stroke;" /></g><g><path d="M 0 0  L 2105.142857 0  c 0.0,41.38363072232756 -35.08571428571428,290.4919215465004 103.73362311926361,244.7959215465004&#10;c 27.275732158058712,-39.168 88.907579756099,0 88.907579756099,81.60407845349957&#10;c 0,70.06005564602151 -41.513554673994456,109.22805564602152 -176.7589984257536,70.06005564602151&#10;c -91.22285714285714,-39.168 -56.137142857142855,137.088 -15.88220444960902,256.33994435397847 c 0.0,112.35125568818809 -35.08571428571428,294.32171221496907 50.72989572186245,248.62571221496907&#10;c 124.8643068454489,-39.168 139.752269143959,0 139.752269143959,77.77428778503091&#10;c 0,77.98980155143113 -51.943279761732484,117.15780155143113 -61.32422450063066,77.98980155143113&#10;c -91.22285714285714,-39.168 -56.137142857142855,137.088 -129.1579403651908,248.41019844856885 c -0.0,112.73025272853128 35.08571428571428,270.05944631197053 -25.81584295999258,224.36344631197053&#10;c -59.1724686638501,-39.168 -157.03266443421194,0 -157.03266443421194,102.03655368802944&#10;c 0,89.6636198840572 103.80843719187523,128.8316198840572 133.12548724116968,89.6636198840572&#10;c 91.22285714285714,-39.168 56.137142857142855,137.088 49.72302015303484,236.73638011594278 c -0.0,60.1985250516368 35.08571428571428,271.54539496960024 -96.30565029536247,225.8493949696002&#10;c -75.94215273571407,-39.168 -118.9214088967271,0 -118.9214088967271,100.55060503039977&#10;c 0,58.67631668474155 119.23794897386327,97.84431668474156 183.25493184621763,58.67631668474155&#10;c 91.22285714285714,-39.168 56.137142857142855,137.088 31.97212734587194,267.7236833152584 c 0.0,115.67990740382614 -35.08571428571428,317.0524774166523 143.46320027712432,271.35647741665235&#10;c 26.980972806101146,-39.168 77.83561811882817,0 77.83561811882817,55.043522583347624&#10;c 0,54.516203117699035 -45.50559748993858,93.68420311769904 -187.5240218774639,54.516203117699035&#10;c -91.22285714285714,-39.168 -56.137142857142855,137.088 -33.774796518488586,271.88379688230094 L 0 3264 " fill="none" stroke="black" stroke-width="0.1" style="vector-effect:non-scaling-stroke;" /></g><g><path d="M 0 0  L 2806.857143 0  c 0.0,105.26933098424956 -35.08571428571428,299.73016297317906 -11.24720196847857,254.03416297317904&#10;c 61.46787066791257,-39.168 191.29435058563303,0 191.29435058563303,72.36583702682094&#10;c 0,55.937901052392476 -56.31608748618543,95.10590105239248 -65.63439104106405,55.937901052392476&#10;c -91.22285714285714,-39.168 -56.137142857142855,137.088 -114.4127575760904,270.4620989476075 c -0.0,56.951999660473795 35.08571428571428,323.40724338673 10.684231655615996,277.71124338673&#10;c -211.71450680379624,-39.168 -239.07997388816105,0 -239.07997388816105,48.68875661326996&#10;c 0,47.03371036436846 97.73158199946661,86.20171036436847 200.1479839948621,47.03371036436846&#10;c 91.22285714285714,-39.168 56.137142857142855,137.088 28.247758237682945,279.3662896356315 c -0.0,62.76080412650382 35.08571428571428,317.89158390932266 -149.78245888579394,272.1955839093227&#10;c -18.161812268032403,-39.168 -31.703864461362485,0 -31.703864461362485,54.204416090677285&#10;c 0,84.97030637228107 41.353666054246645,124.13830637228108 77.79773365118531,84.97030637228107&#10;c 91.22285714285714,-39.168 56.137142857142855,137.088 103.68858969597112,241.4296936277189 c -0.0,164.07670717742894 35.08571428571428,314.6062220324851 -146.15447822925344,268.91022203248514&#10;c -39.591704010241415,-39.168 -89.22821892034045,0 -89.22821892034045,57.48977796751484&#10;c 0,68.91164553060804 90.96538299825824,108.07964553060805 92.75151444157072,68.91164553060804&#10;c 91.22285714285714,-39.168 56.137142857142855,137.088 142.63118270802318,257.48835446939194 c 0.0,102.92530480335854 -35.08571428571428,276.6229550058102 108.99074818879092,230.92695500581019&#10;c 42.41683220851818,-39.168 121.06337252474194,0 121.06337252474194,95.47304499418979&#10;c 0,81.09986695313813 -63.344900011193154,120.26786695313814 -89.24312929172089,81.09986695313813&#10;c -91.22285714285714,-39.168 -56.137142857142855,137.088 -140.81099142181196,245.30013304686184 L 0 3264 " fill="none" stroke="black" stroke-width="0.1" style="vector-effect:non-scaling-stroke;" /></g><g><path d="M 0 0  L 3508.571429 0  c -0.0,102.01651429768636 35.08571428571428,308.89791126081855 -14.791259577000584,263.2019112608186&#10;c -148.98672209469404,-39.168 -222.5879638612252,0 -222.5879638612252,63.1980887391814&#10;c 0,79.26547612701643 140.4886023638252,118.43347612701643 238.4297179489457,79.26547612701643&#10;c 91.22285714285714,-39.168 56.137142857142855,137.088 -1.0504945107199148,247.13452387298355 c 0.0,122.7853687750984 -35.08571428571428,316.552782610538 54.845018019687146,270.85678261053795&#10;c 73.79597514366543,-39.168 162.3904982489605,0 162.3904982489605,55.54321738946203&#10;c 0,61.713969821702335 -64.15279736004376,100.88196982170234 -124.79744815907152,61.713969821702335&#10;c -91.22285714285714,-39.168 -56.137142857142855,137.088 -92.43806810957612,264.68603017829764 c -0.0,122.01805136301454 35.08571428571428,281.1458411518222 -89.74420599414937,235.44984115182217&#10;c -56.425192227590344,-39.168 -131.02530318055307,0 -131.02530318055307,90.95015884817781&#10;c 0,62.58568242565235 73.99459926346196,101.75368242565236 124.57724585358667,62.58568242565235&#10;c 91.22285714285714,-39.168 56.137142857142855,137.088 96.19226332111575,263.8143175743476 c -0.0,117.76061759209479 35.08571428571428,309.2925474058708 -124.5598154165284,263.5965474058708&#10;c -104.33422512453024,-39.168 -108.23390089236104,0 -108.23390089236104,62.80345259412917&#10;c 0,82.95739891697605 85.85147929789227,122.12539891697605 115.41640186508879,82.95739891697605&#10;c 91.22285714285714,-39.168 56.137142857142855,137.088 117.37731444380064,243.44260108302393 c -0.0,168.25239157618333 35.08571428571428,274.3247499830138 -108.51022001472666,228.6287499830138&#10;c -33.48867201309149,-39.168 -87.89012954639423,0 -87.89012954639423,97.77125001698619&#10;c 0,92.46168165381903 124.10684064425197,131.62968165381903 162.7407306251075,92.46168165381903&#10;c 91.22285714285714,-39.168 56.137142857142855,137.088 33.6596189360134,233.93831834618095 L 0 3264 " fill="none" stroke="black" stroke-width="0.1" style="vector-effect:non-scaling-stroke;" /></g><g><path d="M 0 0  L 4210.285714 0  c 0.0,174.84442193843864 -35.08571428571428,267.8693704263773 83.07475282455151,222.17337042637732&#10;c 22.923667905653385,-39.168 96.66436583857678,0 96.66436583857678,104.22662957362266&#10;c 0,85.87321141336832 -80.6684293082784,125.04121141336833 -86.16357617179123,85.87321141336832&#10;c -91.22285714285714,-39.168 -56.137142857142855,137.088 -93.57554249133706,240.52678858663165 c -0.0,144.1995279653646 35.08571428571428,295.75082533625397 0.5968006652486532,250.05482533625397&#10;c -63.13055735030178,-39.168 -173.48779198461142,0 -173.48779198461142,76.34517466374601&#10;c 0,85.64896872584626 41.895517806715866,124.81696872584627 42.76876473965751,85.64896872584626&#10;c 91.22285714285714,-39.168 56.137142857142855,137.088 130.12222657970526,240.75103127415372 c -0.0,131.54039224974147 35.08571428571428,314.50706430456046 -32.99842973527386,268.81106430456043&#10;c -140.54151642561536,-39.168 -173.568229929986,0 -173.568229929986,57.588935695439545&#10;c 0,104.10136383541266 21.978542475368563,143.26936383541266 56.85022813955209,104.10136383541266&#10;c 91.22285714285714,-39.168 56.137142857142855,137.088 149.71643152570778,222.29863616458732 c 0.0,45.560039158431 -35.08571428571428,269.0398988983568 62.076317146186284,223.34389889835683&#10;c 154.1441247747094,-39.168 158.44382409905373,0 158.44382409905373,103.05610110164315&#10;c 0,104.09763011106975 -25.129021396551188,143.26563011106975 -77.31921503177716,104.09763011106975&#10;c -91.22285714285714,-39.168 -56.137142857142855,137.088 -143.20092621346285,222.30236988893023 c 0.0,150.52529989196384 -35.08571428571428,313.418116995178 1.2984819666762477,267.72211699517806&#10;c 70.2831494970444,-39.168 175.6861919295874,0 175.6861919295874,58.67788300482192&#10;c 0,83.3013461728305 -167.06458939065163,122.46934617283051 -180.32142268697817,83.3013461728305&#10;c -91.22285714285714,-39.168 -56.137142857142855,137.088 3.3367487907145232,243.09865382716947 L 0 3264 " fill="none" stroke="black" stroke-width="0.1" style="vector-effect:non-scaling-stroke;" /></g></g><g><g><path d="M 0 0  L 0 652.800000  c 74.69848557835469,0.0 315.8343718512809,-32.64 266.7143718512809,133.5071545512997&#10;c -42.10285714285714,72.99599105048537 0,80.73148200216923 84.14277100586196,80.73148200216923&#10;c 102.41555187386246,0 144.5184090167196,-78.9467159232289 102.41555187386246,-130.32690362003234&#10;c -42.10285714285714,-84.86399999999999 147.35999999999999,-52.224 248.44159098328038,-83.91173293343658 c 131.32874485935963,-0.0 321.9865233060912,32.64 272.8665233060912,-11.735172124890735&#10;c -42.10285714285714,-54.43099186124073 0,-161.67980176068025 77.99061955105162,-161.67980176068025&#10;c 82.90556460226134,0 125.00842174511848,23.961168951281554 82.90556460226134,77.96191842755195&#10;c -42.10285714285714,84.86399999999999 147.35999999999999,52.224 267.9515782548815,95.45305545801904 c 65.1649749064735,0.0 298.75786327398623,-32.64 249.6378632739862,17.423149210650923&#10;c -42.10285714285714,76.42843746371304 0,162.7909986704185 101.21927958315663,162.7909986704185&#10;c 56.48083429197044,0 98.58369143482759,-46.1671405945178 56.48083429197044,-81.74625728247221&#10;c -42.10285714285714,-84.86399999999999 147.35999999999999,-52.224 294.3763085651724,-98.46789059859722 c 127.60276965217692,-0.0 309.1200406409167,32.64 260.0000406409167,-38.751773764381255&#10;c -42.10285714285714,-47.912831602197826 0,-179.92216401374762 90.85710221622611,-179.92216401374762&#10;c 50.18834364789052,0 92.29120079074767,101.46344526312316 50.18834364789052,153.81001756202292&#10;c -42.10285714285714,84.86399999999999 147.35999999999999,52.224 300.6687992092523,64.86392021610595 c 152.18941069617915,-0.0 337.91559760472796,32.64 288.79559760472796,-127.39310615728861&#10;c -42.10285714285714,-45.26782194754667 0,-80.07534436631629 62.061545252414874,-80.07534436631629&#10;c 106.49331722976643,0 148.59617437262358,105.48351647421481 106.49331722976643,151.8427729001203&#10;c -42.10285714285714,84.86399999999999 147.35999999999999,52.224 244.3638256273764,55.62567762348459 c 90.89920380168725,0.0 292.26118229735187,-32.64 243.14118229735186,52.71170925435579&#10;c -42.10285714285714,42.92707402483697 0,138.49414697694888 107.71596055979097,138.49414697694888&#10;c 58.693859685307984,0 100.79671682816513,-130.39771083246322 58.693859685307984,-140.0427823604873&#10;c -42.10285714285714,-84.86399999999999 147.35999999999999,-52.224 292.16328317183485,-51.16307387081736 c 203.2482957694795,-0.0 289.89262325269533,32.64 240.77262325269535,-5.620618075959271&#10;c -42.10285714285714,-131.84447929166436 0,-175.9261481759528 110.08451960444748,-175.9261481759528&#10;c 68.96563030420799,0 111.06848744706514,60.9212429532062 68.96563030420799,63.89520319614178&#10;c -42.10285714285714,84.86399999999999 147.35999999999999,52.224 281.89151255293484,117.65156305577028 L 4912 0 " fill="none" stroke="black" stroke-width="0.1" style="vector-effect:non-scaling-stroke;" /></g><g><path d="M 0 0  L 0 1305.600000  c 134.80312578186508,-0.0 294.09930481873243,32.64 244.97930481873246,-105.02573755834946&#10;c -42.10285714285714,-74.76556135909851 0,-108.9844567961165 105.87783803841037,-108.9844567961165&#10;c 88.85077311552556,0 130.9536302583827,118.23939519530622 88.85077311552556,145.1574412780683&#10;c -42.10285714285714,84.86399999999999 147.35999999999999,52.224 262.0063697416173,68.85275307639768 c 182.8566578619102,-0.0 288.6384677476722,32.64 239.51846774767222,3.608645120826188&#10;c -42.10285714285714,-158.48936833476074 0,-169.34816541741714 111.33867510947061,-169.34816541741714&#10;c 77.30805981470331,0 119.41091695756046,18.942570619972457 77.30805981470331,33.99012160463309&#10;c -42.10285714285714,84.86399999999999 147.35999999999999,52.224 273.5490830424395,131.74939869195785 c 79.23141299389903,-0.0 337.3381135795924,32.64 288.2181135795924,-40.70559588589777&#10;c -42.10285714285714,-37.328960935528 0,-139.78642350891815 62.639029277550435,-139.78642350891815&#10;c 50.7303616854914,0 92.83321882834855,69.81035587971698 50.7303616854914,108.730905147909&#10;c -42.10285714285714,84.86399999999999 147.35999999999999,52.224 300.12678117165143,71.76111424690691 c 189.2808517621534,0.0 315.6608663534135,-32.64 266.5408663534135,22.91192073344182&#10;c -42.10285714285714,62.968804650315626 0,178.1609467614385 84.31627650372934,178.1609467614385&#10;c 81.32941795462102,0 123.43227509747817,-116.38194382692149 81.32941795462102,-147.25331054151854&#10;c -42.10285714285714,-84.86399999999999 147.35999999999999,-52.224 269.5277249025218,-53.8195569533618 c 102.10586301959214,0.0 324.4501237905972,-32.64 275.3301237905972,125.77283974612195&#10;c -42.10285714285714,49.36713452641357 0,85.8632149059485 75.52701906654562,85.8632149059485&#10;c 55.41687648569484,0 97.51973362855199,-100.38568784107439 55.41687648569484,-176.70573639327236&#10;c -42.10285714285714,-84.86399999999999 147.35999999999999,-52.224 295.440266371448,-34.93031825879808 c 77.9990142961895,-0.0 336.9916889008563,32.64 287.87168890085627,-32.80919057751866&#10;c -42.10285714285714,-58.363505317255694 0,-138.24535540406953 62.98545395628656,-138.24535540406953&#10;c 54.02361514622504,0 96.12647228908219,63.34760634593922 54.02361514622504,90.46879542289159&#10;c -42.10285714285714,84.86399999999999 147.35999999999999,52.224 296.8335277109178,80.58575055869662 c 143.91612590890128,-0.0 316.7957089172353,32.64 267.6757089172353,-7.194075921137682&#10;c -42.10285714285714,-134.97752547630253 0,-181.7986574187836 83.18143393990755,-181.7986574187836&#10;c 72.29279793836145,0 114.39565508121859,135.5445259975377 72.29279793836145,168.7487645408295&#10;c -42.10285714285714,84.86399999999999 147.35999999999999,52.224 278.5643449187814,20.24396879909176 L 4912 0 " fill="none" stroke="black" stroke-width="0.1" style="vector-effect:non-scaling-stroke;" /></g><g><path d="M 0 0  L 0 1958.400000  c 168.82584385297835,-0.0 333.57481868255974,32.64 284.45481868255973,-22.259613700964884&#10;c -42.10285714285714,-151.65119156124032 0,-199.21837179598023 66.4023241745831,-199.21837179598023&#10;c 87.18961056576762,0 129.29246770862477,38.95113412826878 87.18961056576762,140.00074852266516&#10;c -42.10285714285714,84.86399999999999 147.35999999999999,52.224 263.6675322913752,81.47723697427995 c 133.3484842989451,0.0 295.8366010484943,-32.64 246.71660104849428,89.48798824071213&#10;c -42.10285714285714,72.3505388247177 0,73.61739249774979 104.14054180864855,73.61739249774979&#10;c 51.49785932607057,0 93.60071646892771,-26.214239524000178 51.49785932607057,-61.252737334043246&#10;c -42.10285714285714,-84.86399999999999 147.35999999999999,-52.224 299.35928353107226,-101.85264340441867 c 74.5568032496238,0.0 316.46987338724927,-32.64 267.34987338724926,78.50477939863664&#10;c -42.10285714285714,81.43727485009698 0,81.60618026280086 83.50726946989357,81.60618026280086&#10;c 103.0061896623684,0 145.10904680522555,-7.3631239289788555 103.0061896623684,-21.29282844519821&#10;c -42.10285714285714,-84.86399999999999 147.35999999999999,-52.224 247.85095319477443,-138.8181312162393 c 137.6226761112807,0.0 342.7488790330574,-32.64 293.6288790330574,-0.061305000817860916&#10;c -42.10285714285714,101.45000480550004 0,166.98016097479294 57.228263824085445,166.98016097479294&#10;c 59.78311495756458,0 101.88597210042172,-65.97491178598774 59.78311495756458,-99.63788336312624&#10;c -42.10285714285714,-84.86399999999999 147.35999999999999,-52.224 291.07402789957825,-67.28097261084883 c 98.73909450146391,0.0 347.5167515838123,-32.64 298.3967515838123,37.52412547616992&#10;c -42.10285714285714,99.52134239353516 0,138.30866941592922 52.460391273330515,138.30866941592922&#10;c 50.3319571435959,0 92.43481428645305,-52.549722429082365 50.3319571435959,-145.77745876173591&#10;c -42.10285714285714,-84.86399999999999 147.35999999999999,-52.224 300.52518571354693,-30.05533613036323 c 115.71945412717196,0.0 349.4216064780216,-32.64 300.3016064780216,35.99159152889213&#10;c -42.10285714285714,155.29327127727052 0,155.1603146197075 50.555536379121236,155.1603146197075&#10;c 100.19926763519811,0 142.30212477805526,-156.71025626352173 100.19926763519811,-179.62081768055245&#10;c -42.10285714285714,-84.86399999999999 147.35999999999999,-52.224 250.65787522194472,-11.531088468047159 c 166.55389987188568,-0.0 348.5364075987898,32.64 299.4164075987898,-88.97251355485052&#10;c -42.10285714285714,-63.86821049151505 0,-105.88625520199328 51.440735258353016,-105.88625520199328&#10;c 51.80288372679689,0 93.90574086965404,169.8772437006631 51.80288372679689,168.95736718826544&#10;c -42.10285714285714,84.86399999999999 147.35999999999999,52.224 299.05425913034594,25.901401568578365 L 4912 0 " fill="none" stroke="black" stroke-width="0.1" style="vector-effect:non-scaling-stroke;" /></g><g><path d="M 0 0  L 0 2611.200000  c 67.17639972632672,0.0 350.6533344135637,-32.64 301.5333344135637,64.5155341406285&#10;c -42.10285714285714,77.31882047471213 0,94.84643516074952 49.32380844357914,94.84643516074952&#10;c 60.9356506295365,0 103.03850777239364,-135.34757020764138 60.9356506295365,-166.420336037688&#10;c -42.10285714285714,-84.86399999999999 147.35999999999999,-52.224 289.92149222760634,7.058366736309978 c 192.1447972643109,0.0 350.1894220835181,-32.64 301.0694220835181,116.32460883440345&#10;c -42.10285714285714,41.85837885803653 0,56.8409372766551 49.787720773624756,56.8409372766551&#10;c 49.46293001283857,0 91.56578715569572,-44.61089096086919 49.46293001283857,-167.04106355840187&#10;c -42.10285714285714,-84.86399999999999 147.35999999999999,-52.224 301.39421284430426,-6.124482552656673 c 190.8829266196209,0.0 290.90709655867903,-32.64 241.78709655867902,-9.310013127873257&#10;c -42.10285714285714,60.968991527354156 0,226.01791875865243 109.07004629846381,226.01791875865243&#10;c 49.327827569616204,0 91.43068471247335,-73.56060846591427 49.327827569616204,-201.45589449070764&#10;c -42.10285714285714,-84.86399999999999 147.35999999999999,-52.224 301.52931528752663,-15.252011140071545 c 62.984799238983776,0.0 291.8158050444223,-32.64 242.6958050444223,82.92194647193908&#10;c -42.10285714285714,29.773983210922168 0,111.5692600239443 108.16133781272055,111.5692600239443&#10;c 49.43304660119395,0 91.5359037440511,-175.1367996071641 49.43304660119395,-178.39695742826385&#10;c -42.10285714285714,-84.86399999999999 147.35999999999999,-52.224 301.4240962559489,-16.09424906761953 c 159.82650969503922,0.0 308.7908577539853,-32.64 259.6708577539853,104.35611895308094&#10;c -42.10285714285714,68.68786948318541 0,75.41872219979268 91.18628510315756,75.41872219979268&#10;c 77.23335218096645,0 119.3362093238236,-54.56146172809713 77.23335218096645,-109.66458009178483&#10;c -42.10285714285714,-84.86399999999999 147.35999999999999,-52.224 273.6237906761764,-70.11026106108879 c 82.8850249946997,-0.0 322.28805686916604,32.64 273.16805686916604,-86.72481668856008&#10;c -42.10285714285714,-49.72155564163038 0,-88.89957005012457 77.6890859879768,-88.89957005012457&#10;c 79.6984724596777,0 121.80132960253485,110.35321289631791 79.6984724596777,125.94167063108522&#10;c -42.10285714285714,84.86399999999999 147.35999999999999,52.224 271.15867039746513,49.68271610759943 c 154.71135193158398,0.0 307.093449961314,-32.64 257.973449961314,54.18360377432736&#10;c -42.10285714285714,124.26844244882726 0,161.45370587576426 92.88369289582886,161.45370587576426&#10;c 56.39241182493862,0 98.49526896779577,-57.14597711884018 56.39241182493862,-78.1674836776944&#10;c -42.10285714285714,-84.86399999999999 147.35999999999999,-52.224 294.4647310322042,-137.46982597239722 L 4912 0 " fill="none" stroke="black" stroke-width="0.1" style="vector-effect:non-scaling-stroke;" /></g></g></svg>