<svg baseProfile="full" height="3264" preserveAspectRatio="none" shape-rendering="geometricPrecision" version="1.1" viewBox="0,0,4912,3264" width="4912" xmlns="http://www.w3.org/2000/svg" xmlns:ev="http://www.w3.org/2001/xml-events" xmlns:xlink="http://www.w3.org/1999/xlink"><title>Jigsaw puzzle piece clips</title><desc>Created with the piecemaker. Piece count: 12</desc><defs /><g><g><rect fill="white" height="3264" width="4912" x="0" y="0" /></g></g><g><g><path d="M 0 0  L 1228.000000 0  c 0.0,179.09703493030352 -61.400000000000006,512.8223800373859 108.1646819866015,436.6623800373859&#10;c 90.02210191720145,-65.28 224.9284889828319,0 224.9284889828319,107.3376199626141&#10;c 0,163.93881800736926 -148.1180643355111,229.21881800736926 -169.09451233005433,163.93881800736926&#10;c -159.64000000000001,-65.28 -98.24000000000001,228.48 -163.99865863937907,380.06118199263074 c -0.0,169.90017605095963 61.400000000000006,454.27226884641203 -236.0968323728174,378.112268846412&#10;c -74.1771947870215,-65.28 -83.62630691276786,0 -83.62630691276786,165.887731153588&#10;c 0,166.89078921088662 65.99422233027785,232.17078921088662 101.95826620434872,166.89078921088662&#10;c 159.64000000000001,-65.28 98.24000000000001,228.48 217.76487308123654,377.1092107891134 c -0.0,132.91774693467093 61.400000000000006,449.2806136880569 -198.95830396188305,373.1206136880569&#10;c -36.49149405654562,-65.28 -134.26328321429818,0 -134.26328321429818,170.8793863119431&#10;c 0,127.86341233334974 32.062706193859256,193.14341233334974 99.03595260589401,127.86341233334974&#10;c 159.64000000000001,-65.28 98.24000000000001,228.48 234.18563457028722,416.13658766665026 L 0 3264 " fill="none" stroke="black" stroke-width="0.1" style="vector-effect:non-scaling-stroke;" /></g><g><path d="M 0 0  L 2456.000000 0  c -0.0,159.5926032861698 61.400000000000006,531.6558286024056 -11.38756105216433,455.4958286024056&#10;c -90.35461303096348,-65.28 -324.20084172509644,0 -324.20084172509644,88.5041713975944&#10;c 0,132.2601220415362 184.51367739156427,197.5401220415362 196.55467180572958,132.2601220415362&#10;c 159.64000000000001,-65.28 98.24000000000001,228.48 139.03373097153116,411.7398779584638 c 0.0,241.66853306374446 -61.400000000000006,458.5824080316465 88.44396909503222,382.42240803164646&#10;c 81.38005339942755,-65.28 241.68413913591814,0 241.68413913591814,161.57759196835354&#10;c 0,112.31031260763325 -75.53690888393656,177.59031260763325 -79.65599847828244,112.31031260763325&#10;c -159.64000000000001,-65.28 -98.24000000000001,228.48 -250.47210975266793,431.68968739236675 c 0.0,86.51732341405733 -61.400000000000006,521.0439919499066 -13.329291986068776,444.88399194990666&#10;c 165.474194750854,-65.28 381.5211808470417,0 381.5211808470417,99.11600805009334&#10;c 0,159.2127478699075 -60.627823339181184,224.4927478699075 -106.58503400098954,159.2127478699075&#10;c -159.64000000000001,-65.28 -98.24000000000001,228.48 -261.6068548599834,384.7872521300925 L 0 3264 " fill="none" stroke="black" stroke-width="0.1" style="vector-effect:non-scaling-stroke;" /></g><g><path d="M 0 0  L 3684.000000 0  c -0.0,65.55344258872725 61.400000000000006,494.2368083404863 -246.75821278447674,418.07680834048625&#10;c -45.85949682616532,-65.28 -137.5907614306649,0 -137.5907614306649,125.92319165951375&#10;c 0,145.26379774249096 156.45187683205668,210.54379774249097 238.22252768818458,145.26379774249096&#10;c 159.64000000000001,-65.28 98.24000000000001,228.48 146.12644652695707,398.73620225750904 c -0.0,64.77328792180964 61.400000000000006,533.8267480919006 -235.8869919365291,457.6667480919006&#10;c -39.019476459040064,-65.28 -109.57906139473658,0 -109.57906139473658,86.33325190809938&#10;c 0,158.39633560044365 94.74488505340301,223.67633560044365 188.1084796430317,158.39633560044365&#10;c 159.64000000000001,-65.28 98.24000000000001,228.48 157.357573688234,385.60366439955635 c -0.0,118.31438960723825 61.400000000000006,494.0251347123907 -22.069716703284687,417.86513471239067&#10;c -138.58336216036773,-65.28 -386.958084971737,0 -386.958084971737,126.13486528760933&#10;c 0,171.2755258823954 137.04754240068198,236.55552588239541 153.74326748464998,171.2755258823954&#10;c 159.64000000000001,-65.28 98.24000000000001,228.48 255.28453419037172,372.7244741176046 L 0 3264 " fill="none" stroke="black" stroke-width="0.1" style="vector-effect:non-scaling-stroke;" /></g></g><g><g><path d="M 0 0  L 0 1088.000000  c 241.44916920373436,0.0 602.2390240017402,-54.400000000000006 516.2790240017401,191.23203082686732&#10;c -73.67999999999999,86.40376287524232 0,171.36728573752637 97.72097599825986,171.36728573752637&#10;c 178.245369023404,0 251.92536902340402,-37.87299400297664 178.245369023404,-143.69484587007744&#10;c -73.67999999999999,-141.44 257.88,-87.04 435.754630976596,-218.90447069431625 c 109.22121735428594,-0.0 568.33151254518,54.400000000000006 482.37151254517994,-199.19473675101864&#10;c -73.67999999999999,-90.70348981797807 0,-155.42002703805792 131.62848745482006,-155.42002703805792&#10;c 181.86722773253052,0 255.54722773253053,87.10754960177682 181.86722773253052,236.79538081508161&#10;c -73.67999999999999,141.44 257.88,87.04 432.1327722674695,117.81938297399495 c 332.47137568588795,0.0 519.72974014195,-54.400000000000006 433.76974014194997,217.157139248602&#10;c -73.67999999999999,38.93876087438515 0,113.66417931204768 180.23025985805003,113.66417931204768&#10;c 145.72294395807603,0 219.40294395807604,-173.6084770472855 145.72294395807603,-238.3829812126796&#10;c -73.67999999999999,-141.44 257.88,-87.04 468.27705604192397,-92.43833734797008 c 266.7617588267249,0.0 545.0444518264788,-54.400000000000006 459.08445182647887,30.59424571607683&#10;c -73.67999999999999,264.71936787604346 0,270.2222625407824 154.91554817352113,270.2222625407824&#10;c 139.06245455320584,0 212.74245455320585,-186.7209787535257 139.06245455320584,-267.58590783570514&#10;c -73.67999999999999,-141.44 257.88,-87.04 474.93754544679416,-33.23060042115412 L 4912 0 " fill="none" stroke="black" stroke-width="0.1" style="vector-effect:non-scaling-stroke;" /></g><g><path d="M 0 0  L 0 2176.000000  c 332.12071129687325,0.0 569.2449247231425,-54.400000000000006 483.28492472314247,-15.452580539740282&#10;c -73.67999999999999,80.40500541425932 0,289.0927299461692 130.71507527685753,289.0927299461692&#10;c 193.40791870394764,0 267.08791870394765,-49.8863965189621 193.40791870394764,-56.91560762790181&#10;c -73.67999999999999,-141.44 257.88,-87.04 420.59208129605236,-216.7245417785271 c 255.4146406068068,0.0 566.7584107881517,-54.400000000000006 480.7984107881516,102.74000824351049&#10;c -73.67999999999999,95.45538188304282 0,204.81473553243393 133.2015892118484,204.81473553243393&#10;c 173.15971944542855,0 246.83971944542856,-22.51435804006519 173.15971944542855,-89.80467400092084&#10;c -73.67999999999999,-141.44 257.88,-87.04 440.84028055457145,-217.75006977502358 c 184.54574608984578,-0.0 532.9108892698442,54.400000000000006 446.9508892698442,-221.74223962526366&#10;c -73.67999999999999,-61.12499120550355 0,-73.05719293768601 167.0491107301558,-73.05719293768601&#10;c 160.56056677124934,0 234.24056677124935,217.5985065831288 160.56056677124934,304.5765435514635&#10;c -73.67999999999999,141.44 257.88,87.04 453.43943322875066,-9.777110988513812 c 281.9438204496831,0.0 582.755222975101,-54.400000000000006 496.79522297510096,88.61533458892978&#10;c -73.67999999999999,76.83132269503214 0,176.3707577045335 117.20477702489904,176.3707577045335&#10;c 123.00044042823765,0 196.68044042823766,-148.5465782574362 123.00044042823765,-167.92120053895476&#10;c -73.67999999999999,-141.44 257.88,-87.04 490.99955957176235,-97.06489175450852 L 4912 0 " fill="none" stroke="black" stroke-width="0.1" style="vector-effect:non-scaling-stroke;" /></g></g></svg>