<svg baseProfile="full" height="2576" preserveAspectRatio="none" shape-rendering="geometricPrecision" version="1.1" viewBox="0,0,4592,2576" width="4592" xmlns="http://www.w3.org/2000/svg" xmlns:ev="http://www.w3.org/2001/xml-events" xmlns:xlink="http://www.w3.org/1999/xlink"><title>Jigsaw puzzle piece clips</title><desc>Created with the piecemaker. Piece count: 15</desc><defs /><g><g><rect fill="white" height="2576" width="4592" x="0" y="0" /></g></g><g><g><path d="M 0 0  L 918.400000 0  c 0.0,233.35290663713477 -45.92,399.5888755698485 169.17300616659557,339.4822089031818&#10;c 20.38386312317485,-51.519999999999996 66.3688985338305,0 66.3688985338305,89.85112443015151&#10;c 0,74.57906277152603 -122.35259977549518,126.09906277152602 -162.16282576418683,74.57906277152603&#10;c -119.392,-51.519999999999996 -73.472,180.32 -73.37907893623924,354.7542705618073 c 0.0,62.4817944499145 -45.92,419.5607182065468 165.41996482800107,359.45405153988014&#10;c 38.110161634978176,-51.519999999999996 81.50496564876434,0 81.50496564876434,69.87928179345317&#10;c 0,127.9273443521052 -186.41822216769663,179.44734435210518 -225.6086589382921,127.9273443521052&#10;c -119.392,-51.519999999999996 -73.472,180.32 -21.316271538473302,301.4059889812281 c -0.0,72.99598465563015 45.92,402.1663549394655 -41.967251137176355,342.05968827279884&#10;c -82.22009839610347,-51.519999999999996 -231.666278447618,0 -231.666278447618,87.27364506053448&#10;c 0,113.68242113469279 116.00274857586828,165.20242113469277 213.7693094780884,113.68242113469279&#10;c 119.392,-51.519999999999996 73.472,180.32 59.86422010670597,315.6509121986405 L 0 2576 " fill="none" stroke="black" stroke-width="0.1" style="vector-effect:non-scaling-stroke;" /></g><g><path d="M 0 0  L 1836.800000 0  c -0.0,151.84368613443485 45.92,352.7379309054442 -77.49286501602835,292.63126423877753&#10;c -87.45316791849967,-51.519999999999996 -187.0952974554105,0 -187.0952974554105,136.70206909455578&#10;c 0,96.58550401751364 48.34883171678984,148.10550401751362 88.34187053942892,96.58550401751364&#10;c 119.392,-51.519999999999996 73.472,180.32 176.24629193200994,332.7478293158197 c -0.0,241.74771765460218 45.92,429.32500893319633 -68.08689645667282,369.21834226652965&#10;c -150.89099466528057,-51.519999999999996 -228.68196663259715,0 -228.68196663259715,60.11499106680367&#10;c 0,73.07469566869821 50.226059257169275,124.59469566869821 96.49510036180223,73.07469566869821&#10;c 119.392,-51.519999999999996 73.472,180.32 200.27376272746775,356.2586376646351 c 0.0,189.44641433142937 -45.92,424.5100015540501 -13.265861610526159,364.40333488738344&#10;c 167.46123918096282,-51.519999999999996 289.3554866357718,0 289.3554866357718,64.92999844594988&#10;c 0,90.3392115814392 -115.68863003702896,141.85921158143918 -158.55144679040467,90.3392115814392&#10;c -119.392,-51.519999999999996 -73.472,180.32 -117.53817823484098,338.9941217518941 L 0 2576 " fill="none" stroke="black" stroke-width="0.1" style="vector-effect:non-scaling-stroke;" /></g><g><path d="M 0 0  L 2755.200000 0  c -0.0,167.29024608887988 45.92,357.7508680837124 -161.73756995052403,297.64420141704574&#10;c -63.77803034791094,-51.519999999999996 -90.40198269398445,0 -90.40198269398445,131.68913191628758&#10;c 0,65.64538199748102 46.91450723301751,117.16538199748102 61.706157742121974,65.64538199748102&#10;c 119.392,-51.519999999999996 73.472,180.32 190.4333949023865,363.6879513358523 c -0.0,198.61919973141593 45.92,380.3785024218765 3.341262466516112,320.2718357552098&#10;c -103.26510084620551,-51.519999999999996 -229.77659038503216,0 -229.77659038503216,109.06149757812352&#10;c 0,133.04620312918695 66.28139925300545,184.56620312918693 226.81030026317052,133.04620312918695&#10;c 119.392,-51.519999999999996 73.472,180.32 -0.37497234465445217,296.28713020414637 c -0.0,207.214653564917 45.92,369.3489035360558 -185.40224879550064,309.2422368693891&#10;c -76.24268133315611,-51.519999999999996 -78.24547119285742,0 -78.24547119285742,120.09109646394421&#10;c 0,83.33025014171602 63.39262302432589,134.850250141716 85.28141950638008,83.33025014171602&#10;c 119.392,-51.519999999999996 73.472,180.32 178.366300481978,346.0030831916173 L 0 2576 " fill="none" stroke="black" stroke-width="0.1" style="vector-effect:non-scaling-stroke;" /></g><g><path d="M 0 0  L 3673.600000 0  c -0.0,145.01226078187784 45.92,414.71893583631953 11.25412749102942,354.61226916965285&#10;c -93.7106383039972,-51.519999999999996 -272.56148620512914,0 -272.56148620512914,74.72106416368047&#10;c 0,73.13237345664942 59.43518766434954,124.65237345664941 121.93015589637801,73.13237345664942&#10;c 119.392,-51.519999999999996 73.472,180.32 139.37720281772172,356.2009598766839 c -0.0,91.9495073860878 45.92,355.9644209922656 -70.08145164883689,295.85775432559893&#10;c -118.25204206067916,-51.519999999999996 -222.28726160225318,0 -222.28726160225318,133.47557900773438&#10;c 0,77.41815969736422 65.16428445719002,128.9381596973642 110.19399382889921,77.41815969736422&#10;c 119.392,-51.519999999999996 73.472,180.32 182.17471942219086,351.9151736359691 c -0.0,100.07157038684865 45.92,379.9149791696639 -53.179430983020595,319.80831250299724&#10;c -78.44236274255869,-51.519999999999996 -236.32481675508848,0 -236.32481675508848,109.52502083033608&#10;c 0,116.54035635284589 211.3032838364223,168.06035635284587 262.13982256816007,116.54035635284589&#10;c 119.392,-51.519999999999996 73.472,180.32 27.364425169949016,312.7929769804874 L 0 2576 " fill="none" stroke="black" stroke-width="0.1" style="vector-effect:non-scaling-stroke;" /></g></g><g><g><path d="M 0 0  L 0 858.666667  c 171.27318455930535,-0.0 432.6916115091619,42.93333333333334 368.40361150916186,-7.027544190132451&#10;c -55.104,-203.38755915182236 0,-269.4647579634874 90.79638849083813,-269.4647579634874&#10;c 134.12783563588295,0 189.23183563588293,76.46692166776282 134.12783563588295,136.17420625772954&#10;c -55.104,111.62666666666667 192.86399999999998,68.69333333333333 325.07216436411704,140.3180958958903 c 258.4643746238456,0.0 453.5393170067684,-42.93333333333334 389.2513170067684,97.37014147196886&#10;c -55.104,59.968890006378444 0,135.69634205836616 69.94868299323161,135.69634205836616&#10;c 80.74929249394978,0 135.85329249394977,-152.58367569958367 80.74929249394978,-215.55632227880005&#10;c -55.104,-111.62666666666667 192.86399999999998,-68.69333333333333 378.4507075060502,-17.510161251534953 c 101.38823195206149,-0.0 394.872971609025,42.93333333333334 330.584971609025,-17.968407720026452&#10;c -55.104,-60.5632670874067 0,-247.27345989004118 128.615028390975,-247.27345989004118&#10;c 121.70839471953599,0 176.81239471953597,108.9508188045698 121.70839471953599,248.1845811649577&#10;c -55.104,111.62666666666667 192.86399999999998,68.69333333333333 337.491605280464,17.057286445109924 c 165.64430562771986,-0.0 387.5555123790641,42.93333333333334 323.2675123790641,-141.42475634229444&#10;c -55.104,-60.54043612592861 0,-76.41298135423435 135.9324876209359,-76.41298135423435&#10;c 105.52885157332429,0 160.63285157332427,28.71975991010206 105.52885157332429,129.0563138119648&#10;c -55.104,111.62666666666667 192.86399999999998,68.69333333333333 353.6711484266757,88.78142388456399 c 244.34971389382673,0.0 435.8362691868822,-42.93333333333334 371.5482691868822,-5.4484876490537&#10;c -55.104,101.70978786079897 0,240.23203224359548 87.65173081311781,240.23203224359548&#10;c 65.31767008690844,0 120.42167008690843,-58.18038130358048 65.31767008690844,-186.9626776551313&#10;c -55.104,-111.62666666666667 192.86399999999998,-68.69333333333333 393.88232991309155,-47.82086693941048 L 4592 0 " fill="none" stroke="black" stroke-width="0.1" style="vector-effect:non-scaling-stroke;" /></g><g><path d="M 0 0  L 0 1717.333333  c 210.33285399677223,-0.0 384.51691983032447,42.93333333333334 320.22891983032446,-48.304348841659305&#10;c -55.104,-121.48547821257415 0,-193.53685976198554 138.97108016967553,-193.53685976198554&#10;c 127.90355637016404,0 183.00755637016402,104.4021664348095 127.90355637016404,155.5048942182533&#10;c -55.104,111.62666666666667 192.86399999999998,68.69333333333333 331.29644362983595,86.33631438539155 c 59.82073961629168,-0.0 406.5845001224698,42.93333333333334 342.2965001224698,-74.94040817563555&#10;c -55.104,-72.04365532014866 0,-144.9818109367851 116.90349987753018,-144.9818109367851&#10;c 98.41717855875737,0 153.52117855875736,38.97178845111642 98.41717855875737,63.841750921552716&#10;c -55.104,111.62666666666667 192.86399999999998,68.69333333333333 360.7828214412426,156.08046819086795 c 65.97946090044614,0.0 415.4356769713437,-42.93333333333334 351.1476769713437,-6.102544727008053&#10;c -55.104,120.88281776901562 0,289.7372088786964 108.0523230286563,289.7372088786964&#10;c 87.76086306138785,0 142.86486306138784,-269.98023506606273 87.76086306138785,-273.52141922503216&#10;c -55.104,-111.62666666666667 192.86399999999998,-68.69333333333333 371.43913693861214,-10.113244926656137 c 57.56248280664058,-0.0 388.2027848959589,42.93333333333334 323.9147848959589,-8.891711828105704&#10;c -55.104,-51.18695529214443 0,-198.14323715258783 135.28521510404107,-198.14323715258783&#10;c 80.69335907530598,0 135.79735907530596,108.87497210465922 80.69335907530598,186.19285505111802&#10;c -55.104,111.62666666666667 192.86399999999998,68.69333333333333 378.506640924694,20.842093929575526 c 51.65760594905867,0.0 407.29989693726344,-42.93333333333334 343.01189693726343,-6.9506890793043645&#10;c -55.104,146.71536786473146 0,291.8583259590568 116.18810306273656,291.8583259590568&#10;c 96.38689515727043,0 151.49089515727042,-62.93092996976626 96.38689515727043,-179.7997937362628&#10;c -55.104,-111.62666666666667 192.86399999999998,-68.69333333333333 362.81310484272956,-105.10784314348962 L 4592 0 " fill="none" stroke="black" stroke-width="0.1" style="vector-effect:non-scaling-stroke;" /></g></g></svg>