<svg baseProfile="full" height="831" preserveAspectRatio="none" shape-rendering="geometricPrecision" version="1.1" viewBox="0,0,1280,831" width="1280" xmlns="http://www.w3.org/2000/svg" xmlns:ev="http://www.w3.org/2001/xml-events" xmlns:xlink="http://www.w3.org/1999/xlink"><title>Jigsaw puzzle piece clips</title><desc>Created with the piecemaker. Piece count: 54</desc><defs/><g><g><rect fill="white" height="831" width="1280" x="0" y="0"/></g></g><g><g><path d="M 0 0  L 142.222222 0  c -0.0,37.73966191548559 7.111111111111112,60.359786370637806 -15.68752686621916,50.664786370637806
c -12.391266358804303,-8.31 -29.691709981569026,0 -29.691709981569026,18.585213629362194
c 0,18.70404348587769 7.193306229132083,27.014043485877693 29.17621048682145,18.70404348587769
c 18.48888888888889,-8.31 11.377777777777778,29.084999999999997 16.203026360966735,50.54595651412231 c 0.0,15.134784105893553 -7.111111111111112,57.39018026083186 17.333757281450854,47.69518026083186
c 23.862851323500777,-8.31 28.71439221839653,0 28.71439221839653,21.55481973916814
c 0,16.231048443359754 -29.72721022926043,24.541048443359756 -41.89823476533615,16.231048443359754
c -18.48888888888889,-8.31 -11.377777777777778,29.084999999999997 -4.149914734511235,53.018951556640246 c 0.0,36.47196518332213 -7.111111111111112,64.80353389640291 7.072316250494877,55.10853389640291
c 17.785554200184244,-8.31 34.53948220474703,0 34.53948220474703,14.14146610359709
c 0,19.546370206493677 -43.35029875372019,27.85637020649368 -43.66205527874626,19.546370206493677
c -18.48888888888889,-8.31 -11.377777777777778,29.084999999999997 2.0502568235043483,49.70362979350632 c -0.0,17.8688596850096 7.111111111111112,68.2023255187453 -18.221509865966297,58.5073255187453
c -11.192917480948951,-8.31 -17.23277608876429,0 -17.23277608876429,10.742674481254703
c 0,20.523355447144638 5.928455911772343,28.83335544714464 13.593990722384444,20.523355447144638
c 18.48888888888889,-8.31 11.377777777777778,29.084999999999997 21.860295232346143,48.72664455285536 c -0.0,21.224420485920678 7.111111111111112,60.1398769965681 -22.30607217364965,50.4448769965681
c -17.190566967576665,-8.31 -18.910862319217348,0 -18.910862319217348,18.805123003431902
c 0,12.74354963870077 8.649397504594155,21.053549638700773 27.293899301983522,12.74354963870077
c 18.48888888888889,-8.31 11.377777777777778,29.084999999999997 13.923035190883475,56.50645036129923 c -0.0,19.768832937967126 7.111111111111112,57.40059092482411 -28.962655124322893,47.70559092482411
c -12.302056641106672,-8.31 -17.322690504675514,0 -17.322690504675514,21.544409075175892
c 0,21.196972813902136 14.721801794250302,29.506972813902138 21.751635940875772,21.196972813902136
c 18.48888888888889,-8.31 11.377777777777778,29.084999999999997 24.533709688122634,48.053027186097864 L 0 831 " fill="none" stroke="black" stroke-width="0.1" style="vector-effect:non-scaling-stroke;"/></g><g><path d="M 0 0  L 284.444444 0  c 0.0,10.924863326818901 -7.111111111111112,58.39046318567112 -0.13616561734030005,48.69546318567112
c 27.97483318133037,-8.31 46.04426792380869,0 46.04426792380869,20.554536814328877
c 0,15.69291778235025 -19.036685204075255,24.002917782350252 -39.76621630372844,15.69291778235025
c -18.48888888888889,-8.31 -11.377777777777778,29.084999999999997 -6.141886002739945,53.55708221764975 c 0.0,35.773166606434344 -7.111111111111112,63.111906795238134 12.691206568524494,53.416906795238134
c 6.129746770158166,-8.31 28.340936105475897,0 28.340936105475897,15.833093204761866
c 0,19.975629231991576 -11.156287516142415,28.285629231991578 -23.47359883442455,19.975629231991576
c -18.48888888888889,-8.31 -11.377777777777778,29.084999999999997 -17.55854383957584,49.274370768008424 c -0.0,17.590318288637057 7.111111111111112,59.71436139666568 -27.363616819577498,50.01936139666568
c -2.972788753663147,-8.31 -11.450649604584502,0 -11.450649604584502,19.23063860333432
c 0,12.620786911207475 19.680258262430645,20.930786911207477 23.015243707521623,12.620786911207475
c 18.48888888888889,-8.31 11.377777777777778,29.084999999999997 15.799022716640376,56.629213088792525 c 0.0,30.62467912203496 -7.111111111111112,62.220634018376025 4.44739185818771,52.525634018376024
c 18.355762580605756,-8.31 36.413973110610144,0 36.413973110610144,16.724365981623976
c 0,12.00875961046225 -22.86469019030737,20.31875961046225 -35.97141851017311,12.00875961046225
c -18.48888888888889,-8.31 -11.377777777777778,29.084999999999997 -4.889946458624742,57.24124038953775 c -0.0,16.936396819646752 7.111111111111112,69.01167922421563 -30.010921848369158,59.316679224215626
c -2.583124779583833,-8.31 -5.098686676907164,0 -5.098686676907164,9.933320775784374
c 0,15.831688604820712 20.593934616165484,24.141688604820715 30.758562857137726,15.831688604820712
c 18.48888888888889,-8.31 11.377777777777778,29.084999999999997 4.351045668138596,53.41831139517929 c 0.0,16.514190440561073 -7.111111111111112,63.3779092250166 19.576580234282975,53.6829092250166
c 12.443964607199556,-8.31 15.175606116738809,0 15.175606116738809,15.567090774983399
c 0,15.21094796247371 -12.374711216350336,23.520947962473713 -19.86668157591022,15.21094796247371
c -18.48888888888889,-8.31 -11.377777777777778,29.084999999999997 -14.885504775111563,54.03905203752629 L 0 831 " fill="none" stroke="black" stroke-width="0.1" style="vector-effect:non-scaling-stroke;"/></g><g><path d="M 0 0  L 426.666667 0  c -0.0,17.303290249662307 7.111111111111112,58.42642300795782 0.29110971309968253,48.73142300795782
c -37.55561785534735,-8.31 -47.24582308441346,0 -47.24582308441346,20.518576992042178
c 0,13.017384548615226 21.834696769307723,21.32738454861523 38.87060415909581,13.017384548615226
c 18.48888888888889,-8.31 11.377777777777778,29.084999999999997 8.084109212217967,56.232615451384774 c -0.0,15.64445022983153 7.111111111111112,62.640072474896655 -0.10113051915156361,52.945072474896655
c -14.357730587050796,-8.31 -38.125566721722784,0 -38.125566721722784,16.304927525103345
c 0,20.34724532995361 11.412165974478821,28.65724532995361 14.739887959708408,20.34724532995361
c 18.48888888888889,-8.31 11.377777777777778,29.084999999999997 23.486809281165936,48.90275467004639 c -0.0,22.334895243645775 7.111111111111112,65.96529242899169 -24.99051380948746,56.270292428991695
c -15.554283228390855,-8.31 -18.505613159371137,0 -18.505613159371137,12.979707571008305
c 0,15.88204751698666 24.87698849396534,24.192047516986662 29.704583765448607,15.88204751698666
c 18.48888888888889,-8.31 11.377777777777778,29.084999999999997 13.79154320340999,53.36795248301334 c -0.0,29.771065645537842 7.111111111111112,64.9689799103509 -6.568865032510228,55.273979910350896
c -20.11295765159719,-8.31 -32.60388803972852,0 -32.60388803972852,13.976020089649104
c 0,16.290723270942337 21.62654388761121,24.60072327094234 37.71927401435829,16.290723270942337
c 18.48888888888889,-8.31 11.377777777777778,29.084999999999997 1.4534790578804575,52.95927672905766 c 0.0,37.145644804224126 -7.111111111111112,62.0904524890211 12.743482985012717,52.395452489021096
c 6.615503308717132,-8.31 22.386074463422887,0 22.386074463422887,16.854547510978904
c 0,13.28875794070072 -22.503212407295724,21.59875794070072 -35.1068212966499,13.28875794070072
c -18.48888888888889,-8.31 -11.377777777777778,29.084999999999997 -0.022736151785707648,55.96124205929928 c -0.0,7.3504515019738275 7.111111111111112,65.76388256832651 -2.4561643573655045,56.06888256832651
c -17.3123694752192,-8.31 -39.211062774419766,0 -39.211062774419766,13.181117431673492
c 0,14.318878842150085 11.587740329139505,22.628878842150087 40.36692141562858,14.318878842150085
c 18.48888888888889,-8.31 11.377777777777778,29.084999999999997 1.3003057161566858,54.931121157849915 L 0 831 " fill="none" stroke="black" stroke-width="0.1" style="vector-effect:non-scaling-stroke;"/></g><g><path d="M 0 0  L 568.888889 0  c -0.0,19.633647522262788 7.111111111111112,65.11809532782124 -30.402911759373172,55.42309532782124
c -1.6161051352101299,-8.31 -4.093120651435303,0 -4.093120651435303,13.826904672178763
c 0,13.652594581958851 9.790803683643935,21.962594581958854 18.634384752882525,13.652594581958851
c 18.48888888888889,-8.31 11.377777777777778,29.084999999999997 15.86164765792595,55.59740541804115 c 0.0,32.538266416251176 -7.111111111111112,63.14058148467236 15.181225874939274,53.44558148467236
c 8.915438152178023,-8.31 28.63315457605323,0 28.63315457605323,15.80441851532764
c 0,10.444020925501604 -23.35713244004892,18.754020925501607 -30.000111965914584,10.444020925501604
c -18.48888888888889,-8.31 -11.377777777777778,29.084999999999997 -13.814268485077918,58.805979074498396 c 0.0,25.854322493657595 -7.111111111111112,57.90217558578135 10.772717423494464,48.20717558578135
c 16.825400961049144,-8.31 24.982288305767128,0 24.982288305767128,21.04282441421865
c 0,16.51449163107928 -6.435625659099806,24.824491631079283 -7.450020548159905,16.51449163107928
c -18.48888888888889,-8.31 -11.377777777777778,29.084999999999997 -28.304985181101685,52.73550836892072 c -0.0,39.563489945489664 7.111111111111112,63.302839850005476 -15.509916505605734,53.607839850005476
c -21.45179244420915,-8.31 -22.611612878572753,0 -22.611612878572753,15.642160149994524
c 0,17.938729436451666 23.661763204447375,26.24872943645167 36.749412778801606,17.938729436451666
c 18.48888888888889,-8.31 11.377777777777778,29.084999999999997 1.3721166053768812,51.311270563548334 c -0.0,32.975497497798344 7.111111111111112,57.74721956904717 -9.0049991464477,48.05221956904717
c -21.530744172473053,-8.31 -29.642874636879895,0 -29.642874636879895,21.197780430952832
c 0,20.69671556675266 7.872574327298072,29.00671556675266 23.88353200298359,20.69671556675266
c 18.48888888888889,-8.31 11.377777777777778,29.084999999999997 14.764341780344008,48.55328443324734 c 0.0,29.174258523130725 -7.111111111111112,60.9369366224477 14.337720652889141,51.2419366224477
c 13.113274247680419,-8.31 22.49475893294366,0 22.49475893294366,18.008063377552297
c 0,14.735735246160559 -7.734863230176886,23.04573524616056 -11.661407430821491,14.735735246160559
c -18.48888888888889,-8.31 -11.377777777777778,29.084999999999997 -25.17107215501131,54.51426475383944 L 0 831 " fill="none" stroke="black" stroke-width="0.1" style="vector-effect:non-scaling-stroke;"/></g><g><path d="M 0 0  L 711.111111 0  c -0.0,35.52791666476921 7.111111111111112,61.41806125718929 -4.261955093002902,51.723061257189286
c -26.892700110615348,-8.31 -32.573595189384655,0 -32.573595189384655,17.526938742810714
c 0,13.268514966068494 23.991505883013172,21.578514966068497 32.53645717872022,13.268514966068494
c 18.48888888888889,-8.31 11.377777777777778,29.084999999999997 4.299093103667339,55.981485033931506 c -0.0,18.977828012706617 7.111111111111112,65.91912854400333 -16.276611430736157,56.22412854400333
c -6.358003695972395,-8.31 -23.17728737041767,0 -23.17728737041767,13.025871455996672
c 0,20.028082101760802 8.576696128468276,28.338082101760804 28.660066295964192,20.028082101760802
c 18.48888888888889,-8.31 11.377777777777778,29.084999999999997 10.793832505189634,49.2219178982392 c 0.0,30.506685810971863 -7.111111111111112,57.01442929305132 24.53939645190767,47.31942929305132
c 4.775434057004844,-8.31 16.988109192613777,0 16.988109192613777,21.93057070694868
c 0,13.781227728775363 -23.007820211068438,22.091227728775365 -23.04558202253885,13.781227728775363
c -18.48888888888889,-8.31 -11.377777777777778,29.084999999999997 -18.4819236219826,55.46877227122464 c 0.0,30.618573906953753 -7.111111111111112,68.50537402659872 23.757115119728095,58.810374026598716
c 10.201280120562256,-8.31 23.90970778079821,0 23.90970778079821,10.439625973401284
c 0,17.167015136764803 -33.73587629252941,25.477015136764805 -38.76776355974492,17.167015136764803
c -18.48888888888889,-8.31 -11.377777777777778,29.084999999999997 -8.899059340781385,52.0829848632352 c 0.0,8.744085016334727 -7.111111111111112,68.97709486556181 12.871213894860437,59.28209486556182
c 21.58451169303681,-8.31 22.05967323768703,0 22.05967323768703,9.967905134438183
c 0,21.22170092238086 -17.410144644826147,29.531700922380864 -20.94168130944019,21.22170092238086
c -18.48888888888889,-8.31 -11.377777777777778,29.084999999999997 -13.989205823107277,48.02829907761914 c -0.0,22.389745359428133 7.111111111111112,60.40015724787455 -12.441553327378953,50.70515724787455
c -5.098709406325776,-8.31 -22.217430681558497,0 -22.217430681558497,18.544842752125447
c 0,13.074988481348512 17.932954455222195,21.384988481348515 22.287920800548203,13.074988481348512
c 18.48888888888889,-8.31 11.377777777777778,29.084999999999997 12.371063208389248,56.17501151865149 L 0 831 " fill="none" stroke="black" stroke-width="0.1" style="vector-effect:non-scaling-stroke;"/></g><g><path d="M 0 0  L 853.333333 0  c 0.0,8.414001717405503 -7.111111111111112,66.90726092496364 9.845355213317585,57.21226092496364
c 26.023755267275902,-8.31 34.21909174585933,0 34.21909174585933,12.037739075036363
c 0,14.762953558230151 -11.881145690553021,23.072953558230154 -38.207874469651145,14.762953558230151
c -18.48888888888889,-8.31 -11.377777777777778,29.084999999999997 -5.8565724895257745,54.48704644176985 c -0.0,33.05951714446971 7.111111111111112,68.46448138576702 -12.99195058509478,58.769481385767016
c -26.96659261661866,-8.31 -28.79179889278016,0 -28.79179889278016,10.480518614232984
c 0,13.499763434346306 29.055313847248463,21.80976343434631 36.909301204945116,13.499763434346306
c 18.48888888888889,-8.31 11.377777777777778,29.084999999999997 4.8744482729298255,55.750236565653694 c -0.0,34.05413624929357 7.111111111111112,59.87431573134863 -14.361235673027695,50.17931573134863
c -6.5511858570135635,-8.31 -23.31705545615837,0 -23.31705545615837,19.07068426865137
c 0,11.704384583292693 9.267615400995112,20.014384583292696 10.985331356115289,11.704384583292693
c 18.48888888888889,-8.31 11.377777777777778,29.084999999999997 26.692959773070775,57.54561541670731 c -0.0,28.560423696368495 7.111111111111112,58.55332383866059 -20.825559543891288,48.85832383866059
c -19.445152953364044,-8.31 -26.353226328278794,0 -26.353226328278794,20.39167616133941
c 0,14.189962988893171 37.5460501181108,22.499962988893174 46.260848757401334,14.189962988893171
c 18.48888888888889,-8.31 11.377777777777778,29.084999999999997 0.9179371147687476,55.06003701110683 c 0.0,27.205065052530973 -7.111111111111112,65.3460289563615 20.804044375226262,55.651028956361486
c 7.947534900995835,-8.31 16.85487681565872,0 16.85487681565872,13.598971043638514
c 0,16.9402658247063 -2.8946037579399695,25.250265824706304 -6.468881649791459,16.9402658247063
c -18.48888888888889,-8.31 -11.377777777777778,29.084999999999997 -31.190039541093523,52.3097341752937 c 0.0,12.18943700051345 -7.111111111111112,66.73702359343764 1.8655853871371861,57.04202359343765
c 23.672803696873302,-8.31 44.27876840524284,0 44.27876840524284,12.207976406562352
c 0,18.271300305148316 -36.7596442740062,26.581300305148318 -45.7805873725132,18.271300305148316
c -18.48888888888889,-8.31 -11.377777777777778,29.084999999999997 -0.36376641986682756,50.978699694851684 L 0 831 " fill="none" stroke="black" stroke-width="0.1" style="vector-effect:non-scaling-stroke;"/></g><g><path d="M 0 0  L 995.555556 0  c -0.0,7.844617161592261 7.111111111111112,62.8944359046617 -24.923932869443444,53.1994359046617
c -8.954020659390753,-8.31 -16.39010089592328,0 -16.39010089592328,16.050564095338302
c 0,10.251593321568151 5.9157429203993654,18.561593321568154 11.634983644011132,10.251593321568151
c 18.48888888888889,-8.31 11.377777777777778,29.084999999999997 29.67905012135559,58.99840667843185 c 0.0,7.925708165703182 -7.111111111111112,62.80321858233325 13.328272723138689,53.10821858233325
c 19.57004379917027,-8.31 23.879428457412075,0 23.879428457412075,16.14178141766675
c 0,17.250736127836518 -17.00684555640601,25.56073612783652 -24.27380998590326,17.250736127836518
c -18.48888888888889,-8.31 -11.377777777777778,29.084999999999997 -12.933891194647504,51.99926387216348 c -0.0,24.395890544668312 7.111111111111112,62.02533244046011 1.3991129200214336,52.33033244046011
c -34.57401191013112,-8.31 -39.70413034380118,0 -39.70413034380118,16.91966755953989
c 0,14.489855460398402 25.46472828842026,22.799855460398405 39.03519268207632,14.489855460398402
c 18.48888888888889,-8.31 11.377777777777778,29.084999999999997 -0.730175258296569,54.7601445396016 c 0.0,39.27884544754636 -7.111111111111112,57.873718923300366 7.119977978206372,48.178718923300366
c 17.0497672213655,-8.31 38.32205549393442,0 38.32205549393442,21.071281076699634
c 0,14.377141674233215 -10.25462532765275,22.687141674233217 -25.665874679984917,14.377141674233215
c -18.48888888888889,-8.31 -11.377777777777778,29.084999999999997 -19.776158792155876,54.872858325766785 c -0.0,30.660100510150333 7.111111111111112,62.632269428080754 -13.324272441848215,52.937269428080754
c -9.649924826547014,-8.31 -22.94907639766187,0 -22.94907639766187,16.312730571919246
c 0,13.70265988188747 14.242236293694596,22.012659881887473 21.16877361290927,13.70265988188747
c 18.48888888888889,-8.31 11.377777777777778,29.084999999999997 15.104575226600815,55.54734011811253 c -0.0,19.375865959810913 7.111111111111112,62.90657971927334 -25.757051614048997,53.21157971927334
c -3.01811847804182,-8.31 -10.91106407775684,0 -10.91106407775684,16.038420280726662
c 0,22.06399831186083 17.203543649731113,30.37399831186083 22.431670123159467,22.06399831186083
c 18.48888888888889,-8.31 11.377777777777778,29.084999999999997 14.23644556864637,47.18600168813917 L 0 831 " fill="none" stroke="black" stroke-width="0.1" style="vector-effect:non-scaling-stroke;"/></g><g><path d="M 0 0  L 1137.777778 0  c -0.0,25.774590651071822 7.111111111111112,57.55076990624638 -11.069471635544826,47.85576990624638
c -25.344904776197442,-8.31 -34.91508926747706,0 -34.91508926747706,21.39423009375362
c 0,20.012040749468056 12.701841574317642,28.32204074946806 15.910020215200365,20.012040749468056
c 18.48888888888889,-8.31 11.377777777777778,29.084999999999997 30.07454068782152,49.237959250531944 c 0.0,31.596411088896556 -7.111111111111112,67.91958686903351 23.856462395124147,58.224586869033516
c 8.383194570975101,-8.31 14.451195639486158,0 14.451195639486158,11.025413130966484
c 0,11.342655849193505 -25.58971329886855,19.652655849193508 -25.57778394442381,11.342655849193505
c -18.48888888888889,-8.31 -11.377777777777778,29.084999999999997 -12.729874090186495,57.907344150806495 c 0.0,7.974796294528769 -7.111111111111112,57.975944155763045 22.43591026949568,48.280944155763045
c 4.818581263831281,-8.31 20.536826723818926,0 20.536826723818926,20.969055844236955
c 0,10.99187288083536 -5.996700572996387,19.30187288083536 -14.249929866715249,10.99187288083536
c -18.48888888888889,-8.31 -11.377777777777778,29.084999999999997 -28.722807126599356,58.25812711916464 c -0.0,24.132299646845304 7.111111111111112,68.74599470369111 -27.23785550172454,59.05099470369111
c -15.919297268901682,-8.31 -17.339291448849828,0 -17.339291448849828,10.19900529630889
c 0,20.134488987246883 12.534732374835118,28.444488987246885 19.228597115964682,20.134488987246883
c 18.48888888888889,-8.31 11.377777777777778,29.084999999999997 25.348549834609685,49.11551101275312 c -0.0,32.73645259582823 7.111111111111112,66.58366923122044 -28.914167341976672,56.88866923122044
c -5.234560737547114,-8.31 -11.511655579145412,0 -11.511655579145412,12.36133076877956
c 0,14.086083739041058 13.728638909538523,22.39608373904106 43.07831550562865,14.086083739041058
c 18.48888888888889,-8.31 11.377777777777778,29.084999999999997 -2.652492584506568,55.16391626095894 c 0.0,38.07130138409154 -7.111111111111112,56.96822968985456 14.503902415303955,47.27322968985456
c 19.648812150545805,-8.31 22.449716180157857,0 22.449716180157857,21.97677031014544
c 0,21.47429971256409 -14.744009002416348,29.784299712564092 -20.97212016077755,21.47429971256409
c -18.48888888888889,-8.31 -11.377777777777778,29.084999999999997 -15.981498434684262,47.77570028743591 L 0 831 " fill="none" stroke="black" stroke-width="0.1" style="vector-effect:non-scaling-stroke;"/></g></g><g><g><path d="M 0 0  L 0 138.500000  c 36.564844688403795,-0.0 70.2906242496031,6.925000000000001 60.33506869404754,-7.137036480329664
c -8.533333333333333,-34.373773930272854 0,-36.16679366834461 10.776042417063572,-36.16679366834461
c 16.5445612742012,0 25.07789460753453,12.07387364821402 16.5445612742012,27.354458342502653
c -8.533333333333333,18.005 29.866666666666667,11.08 54.566549836909914,15.94937180617162 c 18.67938001736859,0.0 60.102747396754836,-6.925000000000001 50.14719184119928,21.380975898619894
c -8.533333333333333,10.912461805880453 0,14.231101444571415 20.963919269911834,14.231101444571415
c 15.072104929274147,0 23.60543826260748,-6.869584056401436 15.072104929274147,-11.556599937754232
c -8.533333333333333,-18.005 29.866666666666667,-11.08 56.03900618183697,-24.055477405437077 c 13.455164906276476,-0.0 65.07327926114975,6.925000000000001 55.11772370559419,-9.705261087164972
c -8.533333333333333,-17.563839199929767 0,-28.906828358794193 15.993387405516927,-28.906828358794193
c 21.811649997977682,0 30.344983331311013,15.365691920688409 21.811649997977682,16.356575668776646
c -8.533333333333333,18.005 29.866666666666667,11.08 49.29946111313343,22.255513777182518 c 21.098754689287844,-0.0 60.861905824767156,6.925000000000001 50.9063502692116,-21.09742577378661
c -8.533333333333333,-7.716117928640516 0,-22.260744510187877 20.204760841899514,-22.260744510187877
c 10.780368725810817,0 19.31370205914415,9.570141401682019 10.780368725810817,15.456862890770616
c -8.533333333333333,18.005 29.866666666666667,11.08 60.3307423853003,27.901307393203872 c 31.20721674884268,-0.0 61.95086115384128,6.925000000000001 51.995305598285725,-5.757820868014246
c -8.533333333333333,-9.036887089268737 0,-29.99788371109901 19.11580551282539,-29.99788371109901
c 14.942609423222905,0 23.475942756556236,22.224604353716117 14.942609423222905,32.082574979849745
c -8.533333333333333,18.005 29.866666666666667,11.08 56.16850168788821,3.673129599263511 c 30.51941322715602,-0.0 65.84720121737735,6.925000000000001 55.89164566182179,-17.68851901071149
c -8.533333333333333,-8.932306327122316 0,-20.066366071046073 15.219465449289324,-20.066366071046073
c 21.338317527602285,0 29.871650860935617,12.631026490238689 21.338317527602285,17.147513881004155
c -8.533333333333333,18.005 29.866666666666667,11.08 49.77279358350883,20.60737120075341 c 20.87121305571258,0.0 62.222512071917684,-6.925000000000001 52.26695651636213,1.0063058553125015
c -8.533333333333333,26.60552893970338 0,41.59357810900397 18.844154594748986,41.59357810900397
c 18.46268921153377,0 26.996022544867103,-7.420590213960466 18.46268921153377,-12.557328804689483
c -8.533333333333333,-18.005 29.866666666666667,-11.08 52.64842189957734,-30.042555159626993 c 35.60165904092018,0.0 65.12533202846019,-6.925000000000001 55.16977647290464,8.443236867267728
c -8.533333333333333,11.645281882016372 0,36.99146622054526 15.941334638206477,36.99146622054526
c 22.078735691201217,0 30.61206902453455,-13.695790706771186 22.078735691201217,-31.142814001462213
c -8.533333333333333,-18.005 29.866666666666667,-11.08 49.0323754199099,-14.291889086350778 c 19.33033839721622,0.0 61.98549185934566,-6.925000000000001 52.0299363037901,29.960315721702752
c -8.533333333333333,4.917926173287332 0,9.554676824319916 19.081174807321013,9.554676824319916
c 15.886736636010397,0 24.42006996934373,-21.095186212730965 15.886736636010397,-27.966329010378885
c -8.533333333333333,-18.005 29.866666666666667,-11.08 55.22437447510072,-11.548663535643783 L 1280 0 " fill="none" stroke="black" stroke-width="0.1" style="vector-effect:non-scaling-stroke;"/></g><g><path d="M 0 0  L 0 277.000000  c 16.915707561556072,0.0 67.3896471072886,-6.925000000000001 57.43409155173304,11.636355559666887
c -8.533333333333333,11.308457749352216 0,23.587809698670462 13.677019559378074,23.587809698670462
c 15.369760009741356,0 23.903093343074687,-6.793188473770905 15.369760009741356,-6.749074489800748
c -8.533333333333333,-18.005 29.866666666666667,-11.08 55.74135110136976,-28.475090768536603 c 16.280506977427123,-0.0 69.1277018293763,6.925000000000001 59.17214627382075,-25.61983138201043
c -8.533333333333333,-7.0789249012301845 0,-20.747163965795444 11.938964837290364,-20.747163965795444
c 11.617055385675442,0 20.150388719008774,6.661682801910119 11.617055385675442,22.38928626078366
c -8.533333333333333,18.005 29.866666666666667,11.08 59.49405572543567,23.977709087022216 c 38.082559927919945,-0.0 67.42550339188975,6.925000000000001 57.46994783633419,-6.743998046629632
c -8.533333333333333,-11.39554484645698 0,-35.575565832638766 13.641163274776922,-35.575565832638766
c 18.470592839848408,0 27.00392617318174,14.068019029238858 18.470592839848408,19.798891888477932
c -8.533333333333333,18.005 29.866666666666667,11.08 52.64051827126271,22.52067199079047 c 32.43350017223547,-0.0 69.21742229488387,6.925000000000001 59.26186673932831,0.045528678683964305
c -8.533333333333333,-10.219333914086292 0,-44.10268733024998 11.849244371782802,-44.10268733024998
c 18.552048966192956,0 27.085382299526287,11.096424227485908 18.552048966192956,16.508512492651757
c -8.533333333333333,18.005 29.866666666666667,11.08 52.55906214491816,27.548646158914256 c 21.88415406994916,-0.0 70.13940399236252,6.925000000000001 60.18384843680696,-8.452458611934556
c -8.533333333333333,-10.690853620120917 0,-28.17608302428516 10.927262674304153,-28.17608302428516
c 13.04772653688346,0 21.58105987021679,29.546596687762296 13.04772653688346,33.534702198703144
c -8.533333333333333,18.005 29.866666666666667,11.08 58.063384574227655,3.0938394375165714 c 35.95234436979674,0.0 62.635633609365435,-6.925000000000001 52.68007805380988,2.7537324907469687
c -8.533333333333333,22.541518857887947 0,40.244279898376284 18.431033057301235,40.244279898376284
c 11.225375902712472,0 19.758709236045803,-26.4270614469152 11.225375902712472,-41.00190973816772
c -8.533333333333333,-18.005 29.866666666666667,-11.08 59.88573520839864,-1.9961026509555353 c 34.17891890073232,0.0 64.67510212392902,-6.925000000000001 54.71954656837347,16.913997143058733
c -8.533333333333333,4.506246842136429 0,17.05195054553465 16.391564542737648,17.05195054553465
c 13.022496618145539,0 21.55582995147887,-12.421370050956389 13.022496618145539,-12.594336948993927
c -8.533333333333333,-18.005 29.866666666666667,-11.08 58.088614492965576,-21.371610739599454 c 34.78773823690433,-0.0 58.316742547805006,6.925000000000001 48.36118699224945,-16.87693300614865
c -8.533333333333333,-19.351719409604165 0,-29.147229049306855 22.749924118861664,-29.147229049306855
c 10.573938867259358,0 19.10727220059269,11.146794232904226 10.573938867259358,37.21604163529754
c -8.533333333333333,18.005 29.866666666666667,11.08 60.53717224385176,8.808120420157962 c 31.056218565497744,-0.0 66.33547796002645,6.925000000000001 56.379922404470896,-7.184175213034685
c -8.533333333333333,-9.567164434598995 0,-27.71923610966406 14.731188706640218,-27.71923610966406
c 13.362895072373945,0 21.896228405707276,28.829641558357533 13.362895072373945,33.08142293851102
c -8.533333333333333,18.005 29.866666666666667,11.08 57.74821603873717,1.8219883841877262 L 1280 0 " fill="none" stroke="black" stroke-width="0.1" style="vector-effect:non-scaling-stroke;"/></g><g><path d="M 0 0  L 0 415.500000  c 9.878100845866307,-0.0 68.45901378049184,6.925000000000001 58.50345822493628,-11.846127600861285
c -8.533333333333333,-31.907080969956418 0,-32.56825872369977 12.607652886174833,-32.56825872369977
c 18.721435905503597,0 27.25476923883693,16.15523219918527 18.721435905503597,20.15447949109417
c -8.533333333333333,18.005 29.866666666666667,11.08 52.38967520560752,24.25990683346689 c 37.73103053924714,-0.0 60.670952633355846,6.925000000000001 50.71539707780029,-12.473799195164101
c -8.533333333333333,-17.58694696132792 0,-22.48495653847461 20.395714033310824,-22.48495653847461
c 14.756835961664635,0 23.290169294997966,9.697020872070977 14.756835961664635,11.858403033821062
c -8.533333333333333,18.005 29.866666666666667,11.08 56.35427514944648,23.10035269981765 c 26.864265517386524,-0.0 59.62180927791778,6.925000000000001 49.66625372236222,-20.542238150839896
c -8.533333333333333,-22.956437899359592 0,-25.391062117404534 21.444857388748893,-25.391062117404534
c 16.984508004324226,0 25.517841337657558,23.259256226916364 16.984508004324226,28.32331923957124
c -8.533333333333333,18.005 29.866666666666667,11.08 54.12660310678689,17.60998102867319 c 33.93164726725014,-0.0 70.4625991466181,6.925000000000001 60.50704359106254,-17.448235697079944
c -8.533333333333333,-5.410574572580022 0,-21.275153019034754 10.604067520048574,-21.275153019034754
c 13.820445246651374,0 22.353778579984706,22.085426921166086 13.820445246651374,33.228938228018436
c -8.533333333333333,18.005 29.866666666666667,11.08 57.29066586445974,5.494450488096263 c 37.46528653603393,-0.0 62.413902663854024,6.925000000000001 52.45834710829847,-18.45077427789703
c -8.533333333333333,-7.127895065080782 0,-21.681094132893467 18.652764002812646,-21.681094132893467
c 18.37408318375961,0 26.90741651709294,17.727894797499 18.37408318375961,34.6434489668829
c -8.533333333333333,18.005 29.866666666666667,11.08 52.737027927351505,5.4884194439075955 c 21.17426237722876,0.0 63.73035883667888,-6.925000000000001 53.774803281123326,20.871086218631813
c -8.533333333333333,14.762966572976723 0,24.596106367050066 17.33630782998779,24.596106367050066
c 11.257159656210362,0 19.790492989543694,-33.91124445920492 11.257159656210362,-35.404893255055555
c -8.533333333333333,-18.005 29.866666666666667,-11.08 59.85395145490075,-10.062299330626324 c 11.331960038127603,0.0 65.6182891281375,-6.925000000000001 55.66273357258194,18.54302599321632
c -8.533333333333333,16.88411871064463 0,22.408684500747906 15.448377538529172,22.408684500747906
c 17.489716160874906,0 26.023049494208237,-14.210975074620046 17.489716160874906,-37.901074115909516
c -8.533333333333333,-18.005 29.866666666666667,-11.08 53.62139495023621,-3.050636378054712 c 38.913942288685455,-0.0 70.09877937312609,6.925000000000001 60.14322381757054,-14.36333312528579
c -8.533333333333333,-5.90695240346931 0,-22.878708309659906 10.967887293540578,-22.878708309659906
c 20.45110108773082,0 28.98443442106415,19.380882169457887 20.45110108773082,21.549137162944604
c -8.533333333333333,18.005 29.866666666666667,11.08 50.660010023380295,15.692904272001094 c 29.576028022732668,-0.0 65.9203595064951,6.925000000000001 55.96480395093955,-29.734566915027496
c -8.533333333333333,-5.800971733810855 0,-8.98407879842232 15.146307160171567,-8.98407879842232
c 16.269277097609674,0 24.802610430943005,8.323041221651744 16.269277097609674,14.583963336483762
c -8.533333333333333,18.005 29.866666666666667,11.08 54.84183401350144,24.134682376966055 L 1280 0 " fill="none" stroke="black" stroke-width="0.1" style="vector-effect:non-scaling-stroke;"/></g><g><path d="M 0 0  L 0 554.000000  c 16.26148028405501,-0.0 66.39693346882734,6.925000000000001 56.44137791327178,-2.9047369456335828
c -8.533333333333333,-7.104122599616314 0,-33.8180999146533 14.669733197839335,-33.8180999146533
c 18.11276010941677,0 26.6460934427501,7.591987570148771 18.11276010941677,16.921989617903304
c -8.533333333333333,18.005 29.866666666666667,11.08 52.998351001694346,19.80084724238358 c 26.128279555667373,0.0 61.337269878600296,-6.925000000000001 51.38171432304474,11.153840287500909
c -8.533333333333333,31.593344452914636 0,32.079224857239566 19.729396788066374,32.079224857239566
c 13.374261411727886,0 21.907594745061218,-10.019196428553204 13.374261411727886,-35.497593161462675
c -8.533333333333333,-18.005 29.866666666666667,-11.08 57.73684969938323,-7.7354719832778045 c 7.7573384145897375,0.0 65.37343292548431,-6.925000000000001 55.41787736992875,4.258730820723707
c -8.533333333333333,14.258552194552543 0,37.5921585602565 15.693233741182361,37.5921585602565
c 13.784838046214276,0 22.318171379547607,-29.93072873843481 13.784838046214276,-32.75375673408191
c -8.533333333333333,-18.005 29.866666666666667,-11.08 57.32627306489684,-9.097132646898295 c 20.54397979165939,0.0 67.20714728972789,-6.925000000000001 57.25159173417232,7.387052869062427
c -8.533333333333333,18.28498977926035 0,39.079090807805166 13.859519376938792,39.079090807805166
c 17.748172587506204,0 26.281505920839535,-7.165041152250222 17.748172587506204,-31.058204075009783
c -8.533333333333333,-18.005 29.866666666666667,-11.08 53.36293852360491,-15.407939601857812 c 12.862734101156118,-0.0 59.79921744168534,6.925000000000001 49.84366188612979,-29.42353485362895
c -8.533333333333333,-7.028508792001115 0,-10.099430954132949 21.267449224981327,-10.099430954132949
c 14.044160193238895,0 22.577493526572226,21.16148878551174 14.044160193238895,24.87408412222743
c -8.533333333333333,18.005 29.866666666666667,11.08 57.06695091787222,14.64888168553447 c 27.912657765452863,0.0 60.879500618173495,-6.925000000000001 50.92394506261794,12.866612619548519
c -8.533333333333333,31.460826615228598 0,33.802671665424974 20.187166048493175,33.802671665424974
c 21.569729937529033,0 30.103063270862364,-10.673936944346417 21.569729937529033,-23.879785457454425
c -8.533333333333333,-18.005 29.866666666666667,-11.08 49.54138117358208,-22.78949882751907 c 22.918578439912995,0.0 64.01023928138359,-6.925000000000001 54.05468372582803,30.184590953673155
c -8.533333333333333,10.206632804635307 0,16.31690089209332 17.056427385283087,16.31690089209332
c 10.004259725956985,0 18.537593059290316,-22.587753514420022 10.004259725956985,-30.010191752680218
c -8.533333333333333,-18.005 29.866666666666667,-11.08 61.10685138515413,-16.491300093086256 c 27.560710049075364,0.0 61.79903324487444,-6.925000000000001 51.84347768931888,25.07296507372463
c -8.533333333333333,6.116189190961292 0,19.4279835593168 19.267633421792233,19.4279835593168
c 11.880447989607845,0 20.413781322941176,-10.786304650779421 11.880447989607845,-35.99547189296808
c -8.533333333333333,-18.005 29.866666666666667,-11.08 59.23066312150327,-8.505476740073355 c 22.38737625263936,0.0 70.74525048053259,-6.925000000000001 60.789694924977034,26.307210379453597
c -8.533333333333333,10.819319033373157 0,13.497590810250127 10.32141618613408,13.497590810250127
c 18.73090892457229,0 27.26424225790562,-28.884153004354612 18.73090892457229,-35.99622636170471
c -8.533333333333333,-18.005 29.866666666666667,-11.08 52.380202186538824,-3.808574827999017 L 1280 0 " fill="none" stroke="black" stroke-width="0.1" style="vector-effect:non-scaling-stroke;"/></g><g><path d="M 0 0  L 0 692.500000  c 39.66610639147744,0.0 66.0641474485959,-6.925000000000001 56.10859189304035,18.530742202753544
c -8.533333333333333,10.420743114171295 0,14.886047871447687 15.002519218070766,14.886047871447687
c 16.574180779170547,0 25.10751411250388,-28.970999741119595 16.574180779170547,-29.44558275230366
c -8.533333333333333,-18.005 29.866666666666667,-11.08 54.53693033194057,-3.9712073218975696 c 14.510201740635829,-0.0 61.48644124226518,6.925000000000001 51.530885686709624,-26.251360364626734
c -8.533333333333333,-3.2654980537353184 0,-12.58993957748551 19.58022542440149,-12.58993957748551
c 21.583266659911644,0 30.116599993244975,33.224705428798835 21.583266659911644,38.24299191838656
c -8.533333333333333,18.005 29.866666666666667,11.08 49.52784445119947,0.5983080237256857 c 38.461777787454814,0.0 58.90636525103194,-6.925000000000001 48.95080969547639,11.381193264994883
c -8.533333333333333,25.807160767229576 0,25.577931941530736 22.160301415634727,25.577931941530736
c 13.571082179448524,0 22.104415512781856,-11.62146461020516 13.571082179448524,-14.422161217022136
c -8.533333333333333,-18.005 29.866666666666667,-11.08 57.54002893166259,-22.536963989503484 c 24.079034197945102,-0.0 69.57313650597766,6.925000000000001 59.6175809504221,-10.66522027112431
c -8.533333333333333,-10.78255773054364 0,-28.565687470141704 11.493530160689012,-28.565687470141704
c 10.836203921357338,0 19.36953725469067,3.965318683268968 10.836203921357338,10.707946596905117
c -8.533333333333333,18.005 29.866666666666667,11.08 60.274907189753776,28.5229611443609 c 40.67391173149251,-0.0 62.342613878860845,6.925000000000001 52.38705832330529,-30.02868886102074
c -8.533333333333333,-2.2068310713643826 0,-3.445211222173171 18.724052787805824,-3.445211222173171
c 13.43105289690233,0 21.96438623023566,9.798550378366816 13.43105289690233,33.94379841689876
c -8.533333333333333,18.005 29.866666666666667,11.08 57.680058214208785,-0.46989833370484746 c 18.02272444293225,-0.0 59.602703271267245,6.925000000000001 49.64714771571169,-16.326763924805036
c -8.533333333333333,-19.697337470021132 0,-26.211778517908307 21.463963395399425,-26.211778517908307
c 11.702211612720774,0 20.235544946054105,17.74489570488464 11.702211612720774,23.446992541757783
c -8.533333333333333,18.005 29.866666666666667,11.08 59.40889949839034,19.09154990095556 c 39.13889212473449,-0.0 62.091581722691906,6.925000000000001 52.13602616713635,1.5807381129286984
c -8.533333333333333,-28.389933780773497 0,-40.400745146643956 18.975084943974764,-40.400745146643956
c 10.971924265728774,0 19.505257599062105,3.6791851892557794 10.971924265728774,16.047921067820408
c -8.533333333333333,18.005 29.866666666666667,11.08 60.13918684538234,22.77208596589485 c 8.20164063267385,0.0 67.15469849707938,-6.925000000000001 57.199142941523824,1.8151740020150422
c -8.533333333333333,31.83756257952321 0,44.347969152622824 13.91196816958729,44.347969152622824
c 15.67521884134132,0 24.20855217467465,-9.393409043548981 15.67521884134132,-15.693472912179622
c -8.533333333333333,-18.005 29.866666666666667,-11.08 55.435892269769795,-30.469670242458243 c 26.568805520932408,-0.0 62.56604204726183,6.925000000000001 52.610486491706276,-10.12994541210531
c -8.533333333333333,-22.014863513802396 0,-32.61030165972932 18.50062461940484,-32.61030165972932
c 17.595501735320653,0 26.128835068653984,5.338592697546652 17.595501735320653,13.30199373556274
c -8.533333333333333,18.005 29.866666666666667,11.08 53.51560937579046,29.43825333627189 L 1280 0 " fill="none" stroke="black" stroke-width="0.1" style="vector-effect:non-scaling-stroke;"/></g></g></svg>